<?xml version="1.0" encoding="UTF-8" standalone="no"?><svg xmlns="http://www.w3.org/2000/svg" xmlns:xlink="http://www.w3.org/1999/xlink" contentScriptType="application/ecmascript" contentStyleType="text/css" height="850px" preserveAspectRatio="none" style="width:2003px;height:850px;" version="1.1" viewBox="0 0 2003 850" width="2003px" zoomAndPan="magnify"><defs><filter height="300%" id="f15gpwkh3go9jh" width="300%" x="-1" y="-1"><feGaussianBlur result="blurOut" stdDeviation="2.0"/><feColorMatrix in="blurOut" result="blurOut2" type="matrix" values="0 0 0 0 0 0 0 0 0 0 0 0 0 0 0 0 0 0 .4 0"/><feOffset dx="4.0" dy="4.0" in="blurOut2" result="blurOut3"/><feBlend in="SourceGraphic" in2="blurOut3" mode="normal"/></filter></defs><g><text fill="#000000" font-family="Monospace" font-size="18" lengthAdjust="spacingAndGlyphs" textLength="189" x="910" y="19.2419">OmniOpt Architecture</text><!--MD5=[3fc59b17a2df0e8aa43d25b99d46893c]
cluster User Interface--><polygon fill="#E0E0E0" filter="url(#f15gpwkh3go9jh)" points="1503,682.0158,1607,682.0158,1614,707.0838,1779,707.0838,1779,794.0158,1503,794.0158,1503,682.0158" style="stroke: #000000; stroke-width: 1.5;"/><line style="stroke: #000000; stroke-width: 1.5;" x1="1503" x2="1614" y1="707.0838" y2="707.0838"/><text fill="#000000" font-family="Monospace" font-size="14" font-weight="bold" lengthAdjust="spacingAndGlyphs" textLength="98" x="1507" y="698.9818">User Interface</text><!--MD5=[068ab849e982e95724e818cf5ecc07ce]
cluster Local Mode--><polygon fill="#E0E0E0" filter="url(#f15gpwkh3go9jh)" points="944,307.5158,1029,307.5158,1036,332.5838,1531,332.5838,1531,634.0158,944,634.0158,944,307.5158" style="stroke: #000000; stroke-width: 1.5;"/><line style="stroke: #000000; stroke-width: 1.5;" x1="944" x2="1036" y1="332.5838" y2="332.5838"/><text fill="#000000" font-family="Monospace" font-size="14" font-weight="bold" lengthAdjust="spacingAndGlyphs" textLength="79" x="948" y="324.4818">Local Mode</text><!--MD5=[494d5f1c0bba01068cf8e38a0ae48f2b]
cluster Local System--><polygon fill="#FFB84D" filter="url(#f15gpwkh3go9jh)" points="968,363.5158,978,353.5158,1409,353.5158,1409,600.0158,1399,610.0158,968,610.0158,968,363.5158" style="stroke: #000000; stroke-width: 1.5;"/><line style="stroke: #000000; stroke-width: 1.5;" x1="1399" x2="1408" y1="363.5158" y2="354.5158"/><line style="stroke: #000000; stroke-width: 1.5;" x1="968" x2="1399" y1="363.5158" y2="363.5158"/><line style="stroke: #000000; stroke-width: 1.5;" x1="1399" x2="1399" y1="363.5158" y2="610.0158"/><text fill="#000000" font-family="Monospace" font-size="14" font-weight="bold" lengthAdjust="spacingAndGlyphs" textLength="91" x="1139" y="381.4818">Local System</text><!--MD5=[8c9472c44c824e4c2cc3dfcfbb71d530]
cluster HPC Mode (via submitit/sbatch)--><polygon fill="#E0E0E0" filter="url(#f15gpwkh3go9jh)" points="22,298.0158,249,298.0158,256,323.0838,920,323.0838,920,832.5158,22,832.5158,22,298.0158" style="stroke: #000000; stroke-width: 1.5;"/><line style="stroke: #000000; stroke-width: 1.5;" x1="22" x2="256" y1="323.0838" y2="323.0838"/><text fill="#000000" font-family="Monospace" font-size="14" font-weight="bold" lengthAdjust="spacingAndGlyphs" textLength="221" x="26" y="314.9818">HPC Mode (via submitit/sbatch)</text><!--MD5=[e6a0cf9ae8480434b696af9520294622]
cluster HPC Cluster--><path d="M65.9178,357.3922 C80.4549,334.139 95.8625,335.2783 109.2749,358.4427 C122.4776,333.8102 140.3194,333.5258 157.8289,353.7845 C172.9572,329.3243 194.0767,335.859 205.7997,357.3402 C215.1537,334.9112 235.3455,336.9484 246.2158,355.8578 C264.1096,332.212 283.7841,329.7068 299.6327,357.9627 C311.4676,338.7908 323.428,336.1615 338.4758,354.6488 C358.1761,326.1808 375.2436,330.0268 392.238,357.2605 C403.907,339.8379 419.4148,337.7854 431.7272,356.5586 C443.8181,334.1196 468.0666,331.0228 480.9377,355.7445 C492.4695,336.9732 506.5441,334.641 522.4614,350.4835 C537.9182,327.1188 555.7254,330.8217 569.7653,351.9886 C583.3855,327.4433 607.9668,330.8265 621.0049,352.6321 C635.9745,331.6922 653.7846,333.7692 662.7149,358.1859 C677.717,337.5187 699.7318,334.3309 714,359.0158 C717.9811,360.3449 718.5432,363.1993 715.1896,365.8121 C734.6783,377.4748 738.2691,390.378 719.1102,405.8273 C741.7168,420.2217 738.3404,433.0008 719.6306,447.9061 C741.3095,460.6821 743.1118,478.7721 723.376,494.8522 C739.9918,509.8208 740.4255,527.2833 718.0465,537.3632 C741.8032,550.245 741.602,567.028 722.4191,583.941 C740.5045,596.2781 735.5633,612.4321 719.0253,621.6533 C738.7937,631.4108 744.5238,651.8648 722.8451,665.2536 C743.412,683.3165 742.2265,703.7536 715.575,714.9023 C732.8837,727.1492 736.6651,742.7203 715.7993,755.1798 C737.1305,772.7105 734.1674,792.3984 707,800.5158 C708.8626,800.9211 709.0894,802.0463 707.9242,803.4163 C694.6225,827.4126 674.2656,821.1529 662.7253,801.5886 C651.4739,821.9922 635.06,829.1253 618.7433,806.8027 C608.346,832.7992 585.3296,831.1156 570.3187,811.725 C556.8224,833.5903 536.3634,836.582 522.49,812.1142 C507.8964,832.3797 492.4432,832.954 478.3578,811.5756 C465.3381,829.5916 451.5245,831.4634 436.0959,814.4848 C423.7337,838.6471 399.8302,836.3165 387.751,814.1892 C371.9494,834.8519 356.0005,833.3765 344.1058,810.2914 C331.9485,829.9951 309.7274,831.1242 299.8771,807.9138 C287.2738,833.9676 270.2063,830.3206 253.2689,812.5201 C235.5989,838.6329 213.5493,836.2883 200.937,807.683 C185.6689,825.5819 171.5154,826.7863 157.8364,805.9165 C143.541,826.4598 123.5223,827.3054 113.1065,802.1216 C92.3187,827.3059 66.4126,825.8546 54,793.5158 C59.5499,792.8245 63.2471,795.565 60.956,801.6111 C35.9924,788.766 32.256,765.9964 58.3507,750.5464 C34.5051,742.261 33.0203,725.9258 51.117,710.133 C28.1556,694.2641 30.4091,680.1167 50.6135,663.7789 C27.6118,649.473 32.8848,636.5995 49.643,621.3835 C31.3291,609.7138 33.5958,596.7298 48.2681,583.8517 C25.402,566.4571 28.7951,548.506 51.9052,534.4997 C33.9913,520.4475 32.8823,507.5812 50.7755,492.5643 C35.4008,476.262 35.0865,459.5558 57.8707,449.5474 C33.7195,436.2704 34.5935,421.7923 52.9907,403.9607 C33.1948,385.5667 37.5297,363.7387 61,352.0158 C65.3208,350.9454 67.1947,353.3423 65.9178,357.3922 " fill="#E0E0E0" style="stroke: #000000; stroke-width: 1.5;"/><text fill="#000000" font-family="Monospace" font-size="14" font-weight="bold" lengthAdjust="spacingAndGlyphs" textLength="82" x="343" y="371.9818">HPC Cluster</text><!--MD5=[4f140ef10277af62a9bbfeabfb64c237]
cluster Head Node--><polygon fill="#FFB84D" filter="url(#f15gpwkh3go9jh)" points="419,522.0158,429,512.0158,613,512.0158,613,600.0158,603,610.0158,419,610.0158,419,522.0158" style="stroke: #000000; stroke-width: 1.5;"/><line style="stroke: #000000; stroke-width: 1.5;" x1="603" x2="612" y1="522.0158" y2="513.0158"/><line style="stroke: #000000; stroke-width: 1.5;" x1="419" x2="603" y1="522.0158" y2="522.0158"/><line style="stroke: #000000; stroke-width: 1.5;" x1="603" x2="603" y1="522.0158" y2="610.0158"/><text fill="#000000" font-family="Monospace" font-size="14" font-weight="bold" lengthAdjust="spacingAndGlyphs" textLength="77" x="473.5" y="539.9818">Head Node</text><!--MD5=[7018e2f8ec6c3126037d80ab91f6880d]
cluster Compute Node 1--><polygon fill="#FFB84D" filter="url(#f15gpwkh3go9jh)" points="70,696.5158,80,686.5158,263,686.5158,263,774.5158,253,784.5158,70,784.5158,70,696.5158" style="stroke: #000000; stroke-width: 1.5;"/><line style="stroke: #000000; stroke-width: 1.5;" x1="253" x2="262" y1="696.5158" y2="687.5158"/><line style="stroke: #000000; stroke-width: 1.5;" x1="70" x2="253" y1="696.5158" y2="696.5158"/><line style="stroke: #000000; stroke-width: 1.5;" x1="253" x2="253" y1="696.5158" y2="784.5158"/><text fill="#000000" font-family="Monospace" font-size="14" font-weight="bold" lengthAdjust="spacingAndGlyphs" textLength="117" x="104" y="714.4818">Compute Node 1</text><!--MD5=[87367e987a291b585b0318bcf694b76e]
cluster Compute Node 2--><polygon fill="#FFB84D" filter="url(#f15gpwkh3go9jh)" points="287,696.5158,297,686.5158,480,686.5158,480,774.5158,470,784.5158,287,784.5158,287,696.5158" style="stroke: #000000; stroke-width: 1.5;"/><line style="stroke: #000000; stroke-width: 1.5;" x1="470" x2="479" y1="696.5158" y2="687.5158"/><line style="stroke: #000000; stroke-width: 1.5;" x1="287" x2="470" y1="696.5158" y2="696.5158"/><line style="stroke: #000000; stroke-width: 1.5;" x1="470" x2="470" y1="696.5158" y2="784.5158"/><text fill="#000000" font-family="Monospace" font-size="14" font-weight="bold" lengthAdjust="spacingAndGlyphs" textLength="117" x="321" y="714.4818">Compute Node 2</text><!--MD5=[611865159834dcb625bf3423a333d68b]
cluster Compute Node n--><polygon fill="#FFB84D" filter="url(#f15gpwkh3go9jh)" points="504,696.5158,514,686.5158,698,686.5158,698,774.5158,688,784.5158,504,784.5158,504,696.5158" style="stroke: #000000; stroke-width: 1.5;"/><line style="stroke: #000000; stroke-width: 1.5;" x1="688" x2="697" y1="696.5158" y2="687.5158"/><line style="stroke: #000000; stroke-width: 1.5;" x1="504" x2="688" y1="696.5158" y2="696.5158"/><line style="stroke: #000000; stroke-width: 1.5;" x1="688" x2="688" y1="696.5158" y2="784.5158"/><text fill="#000000" font-family="Monospace" font-size="14" font-weight="bold" lengthAdjust="spacingAndGlyphs" textLength="118" x="538" y="714.4818">Compute Node n</text><!--MD5=[beb5ad5244d3d849df9473931f7c2e5e]
entity GUI--><rect fill="#E0E0E0" filter="url(#f15gpwkh3go9jh)" height="58.1358" style="stroke: #000000; stroke-width: 1.0; stroke-dasharray: 7.0,7.0;" width="83" x="1679.5" y="720.0158"/><rect fill="#E0E0E0" height="5" style="stroke: #000000; stroke-width: 1.0; stroke-dasharray: 7.0,7.0;" width="10" x="1674.5" y="725.0158"/><rect fill="#E0E0E0" height="5" style="stroke: #000000; stroke-width: 1.0; stroke-dasharray: 7.0,7.0;" width="10" x="1674.5" y="768.1517"/><text fill="#000000" font-family="Monospace" font-size="14" lengthAdjust="spacingAndGlyphs" textLength="59" x="1689.5" y="744.9818">Web GUI</text><text fill="#000000" font-family="Monospace" font-size="14" lengthAdjust="spacingAndGlyphs" textLength="63" x="1689.5" y="764.0497">(optional)</text><!--MD5=[145565a8a19c9871ef6e3b5f044408a0]
entity Share--><path d="M1519.5,735.0158 C1519.5,725.0158 1582,725.0158 1582,725.0158 C1582,725.0158 1644.5,725.0158 1644.5,735.0158 L1644.5,763.0838 C1644.5,773.0838 1582,773.0838 1582,773.0838 C1582,773.0838 1519.5,773.0838 1519.5,763.0838 L1519.5,735.0158 " fill="#FFEB3B" filter="url(#f15gpwkh3go9jh)" style="stroke: #000000; stroke-width: 1.0; stroke-dasharray: 7.0,7.0;"/><path d="M1519.5,735.0158 C1519.5,745.0158 1582,745.0158 1582,745.0158 C1582,745.0158 1644.5,745.0158 1644.5,735.0158 " fill="none" style="stroke: #000000; stroke-width: 1.0; stroke-dasharray: 7.0,7.0;"/><text fill="#000000" font-family="Monospace" font-size="14" lengthAdjust="spacingAndGlyphs" textLength="105" x="1529.5" y="763.9818">OmniOpt Share</text><!--MD5=[feac20ec967ba8193586f5464e6c98c7]
entity LocalRuns--><path d="M1425,560.5158 C1425,550.5158 1453,550.5158 1453,550.5158 C1453,550.5158 1481,550.5158 1481,560.5158 L1481,588.5838 C1481,598.5838 1453,598.5838 1453,598.5838 C1453,598.5838 1425,598.5838 1425,588.5838 L1425,560.5158 " fill="#FFEB3B" filter="url(#f15gpwkh3go9jh)" style="stroke: #000000; stroke-width: 1.5;"/><path d="M1425,560.5158 C1425,570.5158 1453,570.5158 1453,570.5158 C1453,570.5158 1481,570.5158 1481,560.5158 " fill="none" style="stroke: #000000; stroke-width: 1.5;"/><text fill="#000000" font-family="Monospace" font-size="14" lengthAdjust="spacingAndGlyphs" textLength="36" x="1435" y="589.4818">runs/</text><!--MD5=[119bd4be733b4c7d33357554b14c3254]
entity LocalCore--><rect fill="#E0E0E0" filter="url(#f15gpwkh3go9jh)" height="39.0679" style="stroke: #000000; stroke-width: 1.5;" width="162" x="1142" y="396.5158"/><rect fill="#E0E0E0" height="5" style="stroke: #000000; stroke-width: 1.5;" width="10" x="1137" y="401.5158"/><rect fill="#E0E0E0" height="5" style="stroke: #000000; stroke-width: 1.5;" width="10" x="1137" y="425.5838"/><text fill="#000000" font-family="Monospace" font-size="14" lengthAdjust="spacingAndGlyphs" textLength="142" x="1152" y="421.4818">OmniOpt main script</text><!--MD5=[c0476f576c4b8e78fa1a7957cc732c95]
entity LocalJob1--><rect fill="#FF8C00" filter="url(#f15gpwkh3go9jh)" height="39.0679" style="stroke: #000000; stroke-width: 1.5;" width="62" x="1008" y="555.0158"/><rect fill="#FF8C00" height="5" style="stroke: #000000; stroke-width: 1.5;" width="10" x="1003" y="560.0158"/><rect fill="#FF8C00" height="5" style="stroke: #000000; stroke-width: 1.5;" width="10" x="1003" y="584.0838"/><text fill="#000000" font-family="Monospace" font-size="14" lengthAdjust="spacingAndGlyphs" textLength="42" x="1018" y="579.9818">Job #1</text><!--MD5=[9e13b262acde4eca207dc0edcf26f08a]
entity LocalJob2--><rect fill="#FF8C00" filter="url(#f15gpwkh3go9jh)" height="39.0679" style="stroke: #000000; stroke-width: 1.5;" width="62" x="1296" y="555.0158"/><rect fill="#FF8C00" height="5" style="stroke: #000000; stroke-width: 1.5;" width="10" x="1291" y="560.0158"/><rect fill="#FF8C00" height="5" style="stroke: #000000; stroke-width: 1.5;" width="10" x="1291" y="584.0838"/><text fill="#000000" font-family="Monospace" font-size="14" lengthAdjust="spacingAndGlyphs" textLength="42" x="1306" y="579.9818">Job #2</text><!--MD5=[88241c78edc1a7d1a078f6ee93aafdc1]
entity LocalJobN--><rect fill="#FF8C00" filter="url(#f15gpwkh3go9jh)" height="39.0679" style="stroke: #000000; stroke-width: 1.5;" width="63" x="1158.5" y="555.0158"/><rect fill="#FF8C00" height="5" style="stroke: #000000; stroke-width: 1.5;" width="10" x="1153.5" y="560.0158"/><rect fill="#FF8C00" height="5" style="stroke: #000000; stroke-width: 1.5;" width="10" x="1153.5" y="584.0838"/><text fill="#000000" font-family="Monospace" font-size="14" lengthAdjust="spacingAndGlyphs" textLength="43" x="1168.5" y="579.9818">Job #n</text><!--MD5=[ad168f425ab565e150e1a97e9229db73]
entity HPCRuns--><path d="M737.5,735.0158 C737.5,725.0158 821,725.0158 821,725.0158 C821,725.0158 904.5,725.0158 904.5,735.0158 L904.5,763.0838 C904.5,773.0838 821,773.0838 821,773.0838 C821,773.0838 737.5,773.0838 737.5,763.0838 L737.5,735.0158 " fill="#FFEB3B" filter="url(#f15gpwkh3go9jh)" style="stroke: #000000; stroke-width: 1.5;"/><path d="M737.5,735.0158 C737.5,745.0158 821,745.0158 821,745.0158 C821,745.0158 904.5,745.0158 904.5,735.0158 " fill="none" style="stroke: #000000; stroke-width: 1.5;"/><text fill="#000000" font-family="Monospace" font-size="14" lengthAdjust="spacingAndGlyphs" textLength="147" x="747.5" y="763.9818">runs/ (HPC filesystem)</text><!--MD5=[1e30e967108d4cd087a1e501a36a7024]
entity LoginNode--><polygon fill="#FFB84D" filter="url(#f15gpwkh3go9jh)" points="478.5,392.0158,488.5,382.0158,603.5,382.0158,603.5,440.1517,593.5,450.1517,478.5,450.1517,478.5,392.0158" style="stroke: #000000; stroke-width: 1.5;"/><line style="stroke: #000000; stroke-width: 1.5;" x1="593.5" x2="602.5" y1="392.0158" y2="383.0158"/><line style="stroke: #000000; stroke-width: 1.5;" x1="478.5" x2="593.5" y1="392.0158" y2="392.0158"/><line style="stroke: #000000; stroke-width: 1.5;" x1="593.5" x2="593.5" y1="392.0158" y2="450.1517"/><text fill="#000000" font-family="Monospace" font-size="14" lengthAdjust="spacingAndGlyphs" textLength="77" x="493.5" y="416.9818">Login Node</text><text fill="#000000" font-family="Monospace" font-size="14" lengthAdjust="spacingAndGlyphs" textLength="85" x="493.5" y="436.0497">(sbatch only)</text><!--MD5=[0ca049598cf64d5a8f9e0a6c16d5d1d0]
entity HPCMaster--><rect fill="#E0E0E0" filter="url(#f15gpwkh3go9jh)" height="39.0679" style="stroke: #000000; stroke-width: 1.5;" width="162" x="435" y="555.0158"/><rect fill="#E0E0E0" height="5" style="stroke: #000000; stroke-width: 1.5;" width="10" x="430" y="560.0158"/><rect fill="#E0E0E0" height="5" style="stroke: #000000; stroke-width: 1.5;" width="10" x="430" y="584.0838"/><text fill="#000000" font-family="Monospace" font-size="14" lengthAdjust="spacingAndGlyphs" textLength="142" x="445" y="579.9818">OmniOpt main script</text><!--MD5=[a8c9e1bff1aa63f06ad018284bbd72dd]
entity HPCJob1--><rect fill="#FF8C00" filter="url(#f15gpwkh3go9jh)" height="39.0679" style="stroke: #000000; stroke-width: 1.5;" width="62" x="185" y="729.5158"/><rect fill="#FF8C00" height="5" style="stroke: #000000; stroke-width: 1.5;" width="10" x="180" y="734.5158"/><rect fill="#FF8C00" height="5" style="stroke: #000000; stroke-width: 1.5;" width="10" x="180" y="758.5838"/><text fill="#000000" font-family="Monospace" font-size="14" lengthAdjust="spacingAndGlyphs" textLength="42" x="195" y="754.4818">Job #1</text><!--MD5=[1dcecde6a5121159a1faf602000e16e3]
entity HPCJob2--><rect fill="#FF8C00" filter="url(#f15gpwkh3go9jh)" height="39.0679" style="stroke: #000000; stroke-width: 1.5;" width="62" x="390" y="729.5158"/><rect fill="#FF8C00" height="5" style="stroke: #000000; stroke-width: 1.5;" width="10" x="385" y="734.5158"/><rect fill="#FF8C00" height="5" style="stroke: #000000; stroke-width: 1.5;" width="10" x="385" y="758.5838"/><text fill="#000000" font-family="Monospace" font-size="14" lengthAdjust="spacingAndGlyphs" textLength="42" x="400" y="754.4818">Job #2</text><!--MD5=[2bf1f977fea88408e4812a583a4bafda]
entity HPCJobN--><rect fill="#FF8C00" filter="url(#f15gpwkh3go9jh)" height="39.0679" style="stroke: #000000; stroke-width: 1.5;" width="63" x="571.5" y="729.5158"/><rect fill="#FF8C00" height="5" style="stroke: #000000; stroke-width: 1.5;" width="10" x="566.5" y="734.5158"/><rect fill="#FF8C00" height="5" style="stroke: #000000; stroke-width: 1.5;" width="10" x="566.5" y="758.5838"/><text fill="#000000" font-family="Monospace" font-size="14" lengthAdjust="spacingAndGlyphs" textLength="43" x="581.5" y="754.4818">Job #n</text><!--MD5=[fee662a292a0353a69bd162820bae93b]
entity User--><ellipse cx="1675" cy="42.5158" fill="#FEFECE" filter="url(#f15gpwkh3go9jh)" rx="8" ry="8" style="stroke: #A80036; stroke-width: 1.5;"/><path d="M1675,50.5158 L1675,77.5158 M1662,58.5158 L1688,58.5158 M1675,77.5158 L1662,92.5158 M1675,77.5158 L1688,92.5158 " fill="none" filter="url(#f15gpwkh3go9jh)" style="stroke: #A80036; stroke-width: 1.5;"/><text fill="#000000" font-family="Monospace" font-size="14" lengthAdjust="spacingAndGlyphs" textLength="31" x="1659.5" y="112.9818">User</text><!--MD5=[df6a39b053164d23cc3ecae9c3484a54]
entity CLI--><rect fill="#E0E0E0" filter="url(#f15gpwkh3go9jh)" height="58.1358" style="stroke: #000000; stroke-width: 1.5;" width="114" x="1166" y="178.0158"/><rect fill="#E0E0E0" height="5" style="stroke: #000000; stroke-width: 1.5;" width="10" x="1161" y="183.0158"/><rect fill="#E0E0E0" height="5" style="stroke: #000000; stroke-width: 1.5;" width="10" x="1161" y="226.1517"/><text fill="#000000" font-family="Monospace" font-size="14" lengthAdjust="spacingAndGlyphs" textLength="94" x="1176" y="202.9818">CLI Command</text><text fill="#000000" font-family="Monospace" font-size="14" lengthAdjust="spacingAndGlyphs" textLength="72" x="1176" y="222.0497">omniopt ...</text><!--MD5=[1a457fd8e28b3041cec67c80f41624c2]
link User to GUI--><path d="M1690.67,78.8858 C1754.43,90.9858 1991,140.3158 1991,206.0158 C1991,206.0158 1991,206.0158 1991,575.5158 C1991,680.2958 1844.82,724.2758 1767.58,740.1958 " fill="none" id="User-&gt;GUI" style="stroke: #000000; stroke-width: 1.0; stroke-dasharray: 7.0,7.0;"/><polygon fill="#000000" points="1762.6,741.2058,1772.2121,743.3523,1767.5018,740.2198,1770.6344,735.5095,1762.6,741.2058" style="stroke: #000000; stroke-width: 1.0;"/><!--MD5=[761995b0aa7cfbda5d40025356efe8d6]
link GUI to User--><path d="M1733.86,719.9958 C1748.08,686.3958 1769,628.0458 1769,575.5158 C1769,206.0158 1769,206.0158 1769,206.0158 C1769,155.7858 1722.35,111.8058 1694.77,90.2058 " fill="none" id="GUI-&gt;User" style="stroke: #000000; stroke-width: 1.0; stroke-dasharray: 7.0,7.0;"/><polygon fill="#000000" points="1690.52,86.9258,1695.2163,95.5829,1694.4837,89.9737,1700.0929,89.2411,1690.52,86.9258" style="stroke: #000000; stroke-width: 1.0;"/><text fill="#000000" font-family="Monospace" font-size="11" lengthAdjust="spacingAndGlyphs" textLength="167" x="1770" y="420.7748">Copies generated CLI command</text><!--MD5=[a0f25749318cff2d56becdb4118cd0c0]
link User to CLI--><path d="M1659.44,80.4858 C1600.76,97.3658 1390.84,157.7458 1284.98,188.1858 " fill="none" id="User-&gt;CLI" style="stroke: #000000; stroke-width: 1.0;"/><polygon fill="#000000" points="1280.02,189.6158,1289.7763,190.9626,1284.8238,188.229,1287.5574,183.2765,1280.02,189.6158" style="stroke: #000000; stroke-width: 1.0;"/><!--MD5=[0bd4b8b6828653c2c87907b9c9921787]
link User to Share--><path d="M1659.22,87.2958 C1632.69,107.7058 1582,153.5658 1582,206.0158 C1582,206.0158 1582,206.0158 1582,575.5158 C1582,626.2558 1582,685.3958 1582,719.5858 " fill="none" id="User-&gt;Share" style="stroke: #000000; stroke-width: 1.0; stroke-dasharray: 7.0,7.0;"/><polygon fill="#000000" points="1582,724.8558,1586,715.8558,1582,719.8558,1578,715.8558,1582,724.8558" style="stroke: #000000; stroke-width: 1.0;"/><text fill="#000000" font-family="Monospace" font-size="11" lengthAdjust="spacingAndGlyphs" textLength="115" x="1583" y="420.7748">User Views Job results</text><!--MD5=[bb07170366ce939dcc727915865a8aad]
link CLI to LocalCore--><path d="M1223,236.3658 C1223,277.4158 1223,352.6958 1223,391.1058 " fill="none" id="CLI-&gt;LocalCore" style="stroke: #000000; stroke-width: 1.0;"/><polygon fill="#000000" points="1223,396.4958,1227,387.4958,1223,391.4958,1219,387.4958,1223,396.4958" style="stroke: #000000; stroke-width: 1.0;"/><text fill="#000000" font-family="Monospace" font-size="11" lengthAdjust="spacingAndGlyphs" textLength="55" x="1224" y="278.7748">run locally</text><!--MD5=[0e6d18481b08b17b462d5a261920847c]
link LocalCore to LocalJob1--><path d="M1184.22,435.6058 C1162.89,446.8358 1136.65,462.3758 1116,480.0158 C1091.37,501.0558 1068.5,530.6258 1054.19,550.8458 " fill="none" id="LocalCore-&gt;LocalJob1" style="stroke: #000000; stroke-width: 1.0;"/><polygon fill="#000000" points="1051.27,555.0158,1059.7176,549.9524,1054.145,550.9251,1053.1724,545.3525,1051.27,555.0158" style="stroke: #000000; stroke-width: 1.0;"/><text fill="#000000" font-family="Monospace" font-size="11" lengthAdjust="spacingAndGlyphs" textLength="24" x="1117" y="492.7748">start</text><!--MD5=[a518fe6e517a59ab92dd0863db8bb0f5]
link LocalJob1 to LocalCore--><path d="M1038.04,554.7358 C1038,534.0558 1041.09,500.9558 1059,480.0158 C1078.86,456.7858 1108.3,442.0858 1136.78,432.8058 " fill="none" id="LocalJob1-&gt;LocalCore" style="stroke: #000000; stroke-width: 1.0;"/><polygon fill="#000000" points="1141.71,431.2458,1131.9217,430.1557,1136.9442,432.7583,1134.3416,437.7809,1141.71,431.2458" style="stroke: #000000; stroke-width: 1.0;"/><text fill="#000000" font-family="Monospace" font-size="11" lengthAdjust="spacingAndGlyphs" textLength="30" x="1060" y="492.7748">result</text><!--MD5=[33a3b53a6537c1d12e29cd383ef05c9f]
link LocalCore to LocalJob2--><path d="M1275.81,435.5358 C1295.85,445.4358 1316.58,459.8558 1328,480.0158 C1340.04,501.2858 1337.57,529.8758 1333.5,549.8158 " fill="none" id="LocalCore-&gt;LocalJob2" style="stroke: #000000; stroke-width: 1.0;"/><polygon fill="#000000" points="1332.38,554.9458,1338.215,547.0116,1333.451,550.0619,1330.4007,545.2979,1332.38,554.9458" style="stroke: #000000; stroke-width: 1.0;"/><text fill="#000000" font-family="Monospace" font-size="11" lengthAdjust="spacingAndGlyphs" textLength="24" x="1334" y="492.7748">start</text><!--MD5=[362a689a2ff5a55e4bb8af325ffe6fb1]
link LocalJob2 to LocalCore--><path d="M1314.68,554.9758 C1295.61,526.2758 1259,471.1858 1238.28,440.0058 " fill="none" id="LocalJob2-&gt;LocalCore" style="stroke: #000000; stroke-width: 1.0;"/><polygon fill="#000000" points="1235.34,435.5858,1237.0041,445.2931,1238.1135,439.7461,1243.6605,440.8555,1235.34,435.5858" style="stroke: #000000; stroke-width: 1.0;"/><text fill="#000000" font-family="Monospace" font-size="11" lengthAdjust="spacingAndGlyphs" textLength="30" x="1276" y="492.7748">result</text><!--MD5=[54c4f1dc6cd4585ccb823f3f58d6f788]
link LocalCore to LocalJobN--><path d="M1193,435.5758 C1178.3,446.5058 1162.05,461.7558 1154,480.0158 C1143.56,503.6858 1157.41,531.4158 1170.84,550.4958 " fill="none" id="LocalCore-&gt;LocalJobN" style="stroke: #000000; stroke-width: 1.0;"/><polygon fill="#000000" points="1173.87,554.6758,1171.8074,545.0454,1170.9274,550.6334,1165.3394,549.7535,1173.87,554.6758" style="stroke: #000000; stroke-width: 1.0;"/><text fill="#000000" font-family="Monospace" font-size="11" lengthAdjust="spacingAndGlyphs" textLength="24" x="1155" y="492.7748">start</text><!--MD5=[ac70afda2daeea9b70ae0e8ab2126b82]
link LocalJobN to LocalCore--><path d="M1193.91,554.9758 C1199.91,526.5158 1211.39,472.0858 1217.99,440.7758 " fill="none" id="LocalJobN-&gt;LocalCore" style="stroke: #000000; stroke-width: 1.0;"/><polygon fill="#000000" points="1219.08,435.5858,1213.3164,443.5721,1218.0528,440.4792,1221.1458,445.2156,1219.08,435.5858" style="stroke: #000000; stroke-width: 1.0;"/><text fill="#000000" font-family="Monospace" font-size="11" lengthAdjust="spacingAndGlyphs" textLength="30" x="1210" y="492.7748">result</text><!--MD5=[3a314155df3c86a96c6dc817f2f42b38]
link LocalCore to LocalRuns--><path d="M1287.7,435.5958 C1326.59,449.3858 1374.98,471.5058 1409,504.0158 C1421.43,515.8958 1431.9,531.9758 1439.5,545.6658 " fill="none" id="LocalCore-&gt;LocalRuns" style="stroke: #000000; stroke-width: 1.0;"/><polygon fill="#000000" points="1441.97,550.2158,1441.1831,540.3985,1439.5808,545.8236,1434.1556,544.2213,1441.97,550.2158" style="stroke: #000000; stroke-width: 1.0;"/><text fill="#000000" font-family="Monospace" font-size="11" lengthAdjust="spacingAndGlyphs" textLength="80" x="1397" y="492.7748">write all results</text><!--MD5=[b5fc14f47ef1615d3bd9d3af545c0805]
link LocalRuns to Share--><path d="M1436.21,598.7458 C1420.82,621.3958 1401.48,654.1358 1409,666.0158 C1432.04,702.4358 1476.13,723.0058 1514.03,734.4258 " fill="none" id="LocalRuns-&gt;Share" style="stroke: #000000; stroke-width: 1.0; stroke-dasharray: 7.0,7.0;"/><polygon fill="#000000" points="1519.1,735.9158,1511.58,729.5558,1514.3,734.5158,1509.34,737.2358,1519.1,735.9158" style="stroke: #000000; stroke-width: 1.0;"/><text fill="#000000" font-family="Monospace" font-size="11" lengthAdjust="spacingAndGlyphs" textLength="145" x="1410" y="662.7748">--live_share, omniopt_share</text><!--MD5=[800e0e0bb90fb898e4eff9c9cad77fdf]
link CLI to LoginNode--><path d="M1165.73,225.3958 C1040.53,263.3958 742.93,353.7258 608.71,394.4658 " fill="none" id="CLI-&gt;LoginNode" style="stroke: #000000; stroke-width: 1.0;"/><polygon fill="#000000" points="603.62,396.0058,613.3949,397.2109,608.4032,394.5495,611.0647,389.5578,603.62,396.0058" style="stroke: #000000; stroke-width: 1.0;"/><text fill="#000000" font-family="Monospace" font-size="11" lengthAdjust="spacingAndGlyphs" textLength="47" x="1022" y="278.7748">ssh login</text><!--MD5=[0c619afe08a0a430c7a3ffb1ff1eec8b]
link LoginNode to HPCMaster--><path d="M535.7,450.2058 C530.94,479.9858 524.07,522.9658 519.83,549.5258 " fill="none" id="LoginNode-&gt;HPCMaster" style="stroke: #000000; stroke-width: 1.0;"/><polygon fill="#000000" points="519.02,554.6058,524.3833,546.3454,519.8049,549.6678,516.4825,545.0895,519.02,554.6058" style="stroke: #000000; stroke-width: 1.0;"/><text fill="#000000" font-family="Monospace" font-size="11" lengthAdjust="spacingAndGlyphs" textLength="89" x="531" y="492.7748">sbatch command</text><!--MD5=[bc271b6a5cff6b31372976e95eaea9c1]
link HPCMaster to HPCJob1--><path d="M479.71,594.0658 C451.25,608.7858 410.78,630.1358 376,650.0158 C331.79,675.2858 281.92,706.2358 249.78,726.5058 " fill="none" id="HPCMaster-&gt;HPCJob1" style="stroke: #000000; stroke-width: 1.0;"/><polygon fill="#000000" points="245.17,729.4158,254.9152,727.9906,249.3971,726.7453,250.6424,721.2273,245.17,729.4158" style="stroke: #000000; stroke-width: 1.0;"/><text fill="#000000" font-family="Monospace" font-size="11" lengthAdjust="spacingAndGlyphs" textLength="36" x="377" y="662.7748">submit</text><!--MD5=[fbdf50cdb4f9f975e37bd022847b94e5]
link HPCJob1 to HPCMaster--><path d="M229.62,729.2758 C246.33,707.4858 276.6,671.7358 310,650.0158 C347.68,625.5058 394.48,607.7558 433.94,595.7358 " fill="none" id="HPCJob1-&gt;HPCMaster" style="stroke: #000000; stroke-width: 1.0;"/><polygon fill="#000000" points="439.21,594.1458,429.4385,592.914,434.4228,595.5891,431.7477,600.5735,439.21,594.1458" style="stroke: #000000; stroke-width: 1.0;"/><text fill="#000000" font-family="Monospace" font-size="11" lengthAdjust="spacingAndGlyphs" textLength="30" x="311" y="662.7748">result</text><!--MD5=[3bdf263a73ddb7c8e0d20086a00f2fd2]
link HPCMaster to HPCJob2--><path d="M505.65,594.3058 C488.12,626.1458 452.62,690.5958 433.64,725.0558 " fill="none" id="HPCMaster-&gt;HPCJob2" style="stroke: #000000; stroke-width: 1.0;"/><polygon fill="#000000" points="431.19,729.5158,439.0344,723.5605,433.6012,725.1357,432.0261,719.7025,431.19,729.5158" style="stroke: #000000; stroke-width: 1.0;"/><text fill="#000000" font-family="Monospace" font-size="11" lengthAdjust="spacingAndGlyphs" textLength="36" x="475" y="662.7748">submit</text><!--MD5=[d5e22fb7790a5359df04a4237c610cdc]
link HPCJob2 to HPCMaster--><path d="M418.19,729.1858 C416.03,708.5658 415.26,675.1158 428,650.0158 C439.21,627.9458 460.12,609.8158 478.74,596.9658 " fill="none" id="HPCJob2-&gt;HPCMaster" style="stroke: #000000; stroke-width: 1.0;"/><polygon fill="#000000" points="482.92,594.1458,473.2235,595.8714,478.7774,596.9457,477.7032,602.4996,482.92,594.1458" style="stroke: #000000; stroke-width: 1.0;"/><text fill="#000000" font-family="Monospace" font-size="11" lengthAdjust="spacingAndGlyphs" textLength="30" x="429" y="662.7748">result</text><!--MD5=[cabc2e8b1aeb44303f3178c6eecdfaaf]
link HPCMaster to HPCJobN--><path d="M525.24,594.2658 C534.29,612.5958 548.51,641.2658 561,666.0158 C571.08,685.9858 582.68,708.6058 591.13,725.0258 " fill="none" id="HPCMaster-&gt;HPCJobN" style="stroke: #000000; stroke-width: 1.0;"/><polygon fill="#000000" points="593.43,729.4858,592.8575,719.6536,591.1371,725.0426,585.7482,723.3222,593.43,729.4858" style="stroke: #000000; stroke-width: 1.0;"/><text fill="#000000" font-family="Monospace" font-size="11" lengthAdjust="spacingAndGlyphs" textLength="36" x="562" y="662.7748">submit</text><!--MD5=[cbab37695bd00e2f37efe170a9fa92c9]
link HPCJobN to HPCMaster--><path d="M607.45,729.3358 C611.34,708.8558 614.74,675.5158 603,650.0158 C592.8,627.8458 572.38,609.8158 553.89,597.0458 " fill="none" id="HPCJobN-&gt;HPCMaster" style="stroke: #000000; stroke-width: 1.0;"/><polygon fill="#000000" points="549.74,594.2358,554.9568,602.5896,553.8826,597.0357,559.4365,595.9614,549.74,594.2358" style="stroke: #000000; stroke-width: 1.0;"/><text fill="#000000" font-family="Monospace" font-size="11" lengthAdjust="spacingAndGlyphs" textLength="30" x="609" y="662.7748">result</text><!--MD5=[571935b6720c67f63951b3fde5967843]
link HPCMaster to HPCRuns--><path d="M548.83,594.0258 C575.54,609.0858 614.21,630.9158 648,650.0158 C691.28,674.4858 740.62,702.4458 775.5,722.2158 " fill="none" id="HPCMaster-&gt;HPCRuns" style="stroke: #000000; stroke-width: 1.0;"/><polygon fill="#000000" points="780.11,724.8258,774.2663,716.898,775.7644,722.3529,770.3095,723.8509,780.11,724.8258" style="stroke: #000000; stroke-width: 1.0;"/><text fill="#000000" font-family="Monospace" font-size="11" lengthAdjust="spacingAndGlyphs" textLength="80" x="672" y="662.7748">write all results</text><!--MD5=[9251a4ddef4a8be2b2b946da628c179a]
link HPCRuns to Share--><path d="M904.62,749.0158 C1056.43,749.0158 1374.56,749.0158 1514.03,749.0158 " fill="none" id="HPCRuns-&gt;Share" style="stroke: #000000; stroke-width: 1.0; stroke-dasharray: 7.0,7.0;"/><polygon fill="#000000" points="1519.32,749.0158,1510.32,745.0158,1514.32,749.0158,1510.32,753.0158,1519.32,749.0158" style="stroke: #000000; stroke-width: 1.0;"/><text fill="#000000" font-family="Monospace" font-size="11" lengthAdjust="spacingAndGlyphs" textLength="145" x="1139.5" y="742.7748">--live_share, omniopt_share</text><!--MD5=[890dfe98479a93f482f2268e44fab975]
@startuml

actor User

  skinparam backgroundColor #ffffff
  skinparam defaultFontColor #000000
  skinparam componentFontColor #000000
  skinparam nodeFontColor #000000
  skinparam databaseFontColor #000000
  skinparam arrowColor #000000
  skinparam ArrowFontColor #000000

  skinparam componentBackgroundColor #e0e0e0
  skinparam nodeBackgroundColor #FFB84D
  skinparam databaseBackgroundColor #FFEB3B
  skinparam packageBackgroundColor #e0e0e0
  skinparam cloudBackgroundColor #e0e0e0

  skinparam componentBorderColor #000000
  skinparam nodeBorderColor #000000
  skinparam databaseBorderColor #000000
  skinparam packageBorderColor #000000
  skinparam cloudBorderColor #000000
  skinparam rectangleBorderColor #000000

skinparam componentStyle rectangle
skinparam defaultFontName Monospace
skinparam ArrowFontSize 11

title OmniOpt Architecture

package "User Interface" {
  component "Web GUI\n(optional)" as GUI #line.dashed
  database "OmniOpt Share" as Share #line.dashed
}

component "CLI Command\nomniopt ..." as CLI

User ..> GUI
GUI ..> User : Copies generated CLI command
User - -> CLI
User ..> Share : User Views Job results

package "Local Mode" {
  database "runs/" as LocalRuns

  node "Local System" {
    component "OmniOpt main script" as LocalCore

    component "Job #1" as LocalJob1 #FF8C00
    component "Job #2" as LocalJob2 #FF8C00
    component "Job #n" as LocalJobN #FF8C00
  }

  CLI - -> LocalCore : run locally

  LocalCore - -> LocalJob1 : start
  LocalJob1 - -> LocalCore : result

  LocalCore - -> LocalJob2 : start
  LocalJob2 - -> LocalCore : result

  LocalCore - -> LocalJobN : start
  LocalJobN - -> LocalCore : result

  LocalCore - -> LocalRuns : write all results
  LocalRuns ..> Share : - -live_share, omniopt_share
}

package "HPC Mode (via submitit/sbatch)" {
  cloud "HPC Cluster" {

    node "Login Node\n(sbatch only)" as LoginNode
    node "Head Node" {
      component "OmniOpt main script" as HPCMaster
    }
    node "Compute Node 1" {
      component "Job #1" as HPCJob1 #FF8C00
    }
    node "Compute Node 2" {
      component "Job #2" as HPCJob2 #FF8C00
    }
    node "Compute Node n" {
      component "Job #n" as HPCJobN #FF8C00
    }
  }

  database "runs/ (HPC filesystem)" as HPCRuns

  CLI - -> LoginNode : ssh login
  LoginNode - -> HPCMaster : sbatch command

  HPCMaster - -> HPCJob1 : submit
  HPCMaster - -> HPCJob2 : submit
  HPCMaster - -> HPCJobN : submit

  HPCJob1 - -> HPCMaster : result
  HPCJob2 - -> HPCMaster : result
  HPCJobN - -> HPCMaster : result

  HPCMaster - -> HPCRuns : write all results
  HPCRuns ..> Share : - -live_share, omniopt_share
}

@enduml

PlantUML version 1.2020.02(Sun Mar 01 11:22:07 CET 2020)
(GPL source distribution)
Java Runtime: OpenJDK Runtime Environment
JVM: OpenJDK 64-Bit Server VM
Java Version: 17.0.17+10-Debian-1deb12u1
Operating System: Linux
Default Encoding: UTF-8
Language: de
Country: DE
--></g></svg>