<?xml version="1.0" encoding="UTF-8" standalone="no"?><svg xmlns="http://www.w3.org/2000/svg" xmlns:xlink="http://www.w3.org/1999/xlink" contentScriptType="application/ecmascript" contentStyleType="text/css" height="1017px" preserveAspectRatio="none" style="width:2045px;height:1017px;" version="1.1" viewBox="0 0 2045 1017" width="2045px" zoomAndPan="magnify"><defs><filter height="300%" id="furwmxjcq2n3n" width="300%" x="-1" y="-1"><feGaussianBlur result="blurOut" stdDeviation="2.0"/><feColorMatrix in="blurOut" result="blurOut2" type="matrix" values="0 0 0 0 0 0 0 0 0 0 0 0 0 0 0 0 0 0 .4 0"/><feOffset dx="4.0" dy="4.0" in="blurOut2" result="blurOut3"/><feBlend in="SourceGraphic" in2="blurOut3" mode="normal"/></filter></defs><g><text fill="#000000" font-family="Monospace" font-size="18" lengthAdjust="spacingAndGlyphs" textLength="199" x="929" y="19.2419">OmniOpt2 Architecture</text><!--MD5=[3fc59b17a2df0e8aa43d25b99d46893c]
cluster User Interface--><polygon fill="#F0F0F0" filter="url(#furwmxjcq2n3n)" points="721,49.0158,825,49.0158,832,74.0838,885,74.0838,885,236.0158,721,236.0158,721,49.0158" style="stroke: #000000; stroke-width: 1.5;"/><line style="stroke: #000000; stroke-width: 1.5;" x1="721" x2="832" y1="74.0838" y2="74.0838"/><text fill="#000000" font-family="Monospace" font-size="14" font-weight="bold" lengthAdjust="spacingAndGlyphs" textLength="98" x="725" y="65.9818">User Interface</text><!--MD5=[d0083cf0b2d9f17e335f85bf9624e57e]
cluster User--><polygon fill="#F0F0F0" filter="url(#furwmxjcq2n3n)" points="745,105.0158,755,95.0158,861,95.0158,861,202.0158,851,212.0158,745,212.0158,745,105.0158" style="stroke: #000000; stroke-width: 1.5;"/><line style="stroke: #000000; stroke-width: 1.5;" x1="851" x2="860" y1="105.0158" y2="96.0158"/><line style="stroke: #000000; stroke-width: 1.5;" x1="745" x2="851" y1="105.0158" y2="105.0158"/><line style="stroke: #000000; stroke-width: 1.5;" x1="851" x2="851" y1="105.0158" y2="212.0158"/><text fill="#000000" font-family="Monospace" font-size="14" font-weight="bold" lengthAdjust="spacingAndGlyphs" textLength="32" x="783" y="122.9818">User</text><!--MD5=[6f2137f269eb2ba82dff926d1268b8a6]
cluster OmniOpt2 Workflow--><polygon fill="#F0F0F0" filter="url(#furwmxjcq2n3n)" points="22,284.0158,172,284.0158,179,309.0838,2023,309.0838,2023,1005.5158,22,1005.5158,22,284.0158" style="stroke: #000000; stroke-width: 1.5;"/><line style="stroke: #000000; stroke-width: 1.5;" x1="22" x2="179" y1="309.0838" y2="309.0838"/><text fill="#000000" font-family="Monospace" font-size="14" font-weight="bold" lengthAdjust="spacingAndGlyphs" textLength="144" x="26" y="300.9818">OmniOpt2 Workflow</text><!--MD5=[068ab849e982e95724e818cf5ecc07ce]
cluster Local Mode--><polygon fill="#F0F0F0" filter="url(#furwmxjcq2n3n)" points="46,442.0158,131,442.0158,138,467.0838,920,467.0838,920,787.5158,46,787.5158,46,442.0158" style="stroke: #000000; stroke-width: 1.5;"/><line style="stroke: #000000; stroke-width: 1.5;" x1="46" x2="138" y1="467.0838" y2="467.0838"/><text fill="#000000" font-family="Monospace" font-size="14" font-weight="bold" lengthAdjust="spacingAndGlyphs" textLength="79" x="50" y="458.9818">Local Mode</text><!--MD5=[494d5f1c0bba01068cf8e38a0ae48f2b]
cluster Local System--><polygon fill="#F0F0F0" filter="url(#furwmxjcq2n3n)" points="70,498.0158,80,488.0158,788,488.0158,788,753.5158,778,763.5158,70,763.5158,70,498.0158" style="stroke: #000000; stroke-width: 1.5;"/><line style="stroke: #000000; stroke-width: 1.5;" x1="778" x2="787" y1="498.0158" y2="489.0158"/><line style="stroke: #000000; stroke-width: 1.5;" x1="70" x2="778" y1="498.0158" y2="498.0158"/><line style="stroke: #000000; stroke-width: 1.5;" x1="778" x2="778" y1="498.0158" y2="763.5158"/><text fill="#000000" font-family="Monospace" font-size="14" font-weight="bold" lengthAdjust="spacingAndGlyphs" textLength="91" x="379.5" y="515.9818">Local System</text><!--MD5=[8c9472c44c824e4c2cc3dfcfbb71d530]
cluster HPC Mode (via submitit/sbatch)--><polygon fill="#F0F0F0" filter="url(#furwmxjcq2n3n)" points="1105,442.0158,1332,442.0158,1339,467.0838,1999,467.0838,1999,981.5158,1105,981.5158,1105,442.0158" style="stroke: #000000; stroke-width: 1.5;"/><line style="stroke: #000000; stroke-width: 1.5;" x1="1105" x2="1339" y1="467.0838" y2="467.0838"/><text fill="#000000" font-family="Monospace" font-size="14" font-weight="bold" lengthAdjust="spacingAndGlyphs" textLength="221" x="1109" y="458.9818">HPC Mode (via submitit/sbatch)</text><!--MD5=[f47ff5492917336f42ec66f20ec4a271]
cluster HPC--><path d="M1149.7301,497.7745 C1164.8831,480.0267 1181.4317,474.9172 1194.4644,499.9895 C1207.5641,477.381 1222.2642,474.8573 1238.4251,496.9811 C1252.9998,477.322 1270.6952,476.5161 1285.2974,496.9488 C1304.7632,477.1641 1321.0506,476.0222 1335.59,502.3247 C1343.0754,477.8364 1365.8495,475.5887 1380.8723,494.4514 C1397.2922,472.418 1414.7979,474.359 1427.2082,498.477 C1438.3061,474.1986 1460.7334,470.756 1474.4736,495.9528 C1491.9246,474.2586 1504.4867,479.3038 1517.2692,500.6001 C1528.5513,478.6722 1547.8218,469.3581 1565.5214,493.9425 C1581.1522,474.707 1596.0683,473.1083 1609.3892,496.3293 C1624.6402,474.2276 1642.1813,472.6959 1658.6702,494.9541 C1676.5551,474.401 1692.514,480.4273 1701.8834,503.4071 C1713.6245,483.6478 1732.8405,480.6798 1747.7967,499.5897 C1765.8122,480.2172 1782.004,479.0243 1797,503.0158 C1799.6398,503.7089 1800.5237,505.3719 1799.1719,507.8561 C1821.9574,518.0203 1823.038,538.2604 1804.1502,553.0184 C1820.7497,567.9776 1817.2149,581.9673 1799.0583,592.4368 C1817.3692,604.5924 1822.7395,622.3933 1799.974,635.424 C1822.6056,646.4438 1826.2828,667.1796 1803.5835,681.7327 C1821.9423,696.9382 1825.1256,710.1302 1801.9732,723.7445 C1825.3092,737.1284 1823.9421,750.6912 1806.0719,767.9 C1832.0204,783.3857 1832.3781,801.5453 1806.1485,817.1121 C1827.1292,834.9894 1821.6191,848.9173 1801.5203,862.6165 C1824.0516,875.5706 1820.9525,890.6967 1801.5199,903.6504 C1821.0318,923.7683 1812.2254,939.881 1790,949.5158 C1792.9992,946.369 1796.6629,946.3446 1798.0067,951.177 C1784.4207,972.7583 1759.5295,971.2941 1746.8482,950.0952 C1737.8755,972.6873 1719.8224,975.706 1705.3197,955.4557 C1693.7881,974.7929 1671.1405,976.3167 1659.7614,955.2837 C1643.108,979.3145 1624.8645,984.7486 1606.7876,956.7325 C1595.2289,977.3256 1577.4906,974.7114 1567.5677,955.1355 C1553.9468,975.4254 1529.3452,979.2229 1516.9269,953.8031 C1503.4556,974.6243 1481.9987,975.3049 1470.5936,951.6506 C1456.3894,972.8805 1434.6008,971.5589 1421.0141,950.9194 C1411.2328,971.9102 1391.3384,971.297 1379.2964,953.3409 C1368.9843,972.8581 1349.7317,976.2585 1335.1675,958.3553 C1320.0956,977.1666 1296.9371,975.0573 1286.4507,952.9022 C1270.3781,972.1324 1253.25,973.4078 1239.2237,950.6032 C1228.0872,970.1977 1206.0447,974.4423 1193.9353,951.6424 C1172.4056,971.8301 1150.3412,973.4116 1137,942.5158 C1139.6288,940.3873 1141.3608,941.0913 1142.4095,944.1604 C1127.5618,931.0592 1128.016,918.3411 1144.4264,906.9335 C1123.6176,894.5132 1118.6257,881.7225 1137.1707,862.8282 C1113.6763,850.273 1115.6774,826.3336 1135.9455,812.7086 C1112.9856,795.9065 1113.921,782.3145 1138.208,767.8979 C1121.1601,753.7904 1117.9216,739.8682 1137.98,725.5608 C1114.8911,709.7993 1120.3593,692.4803 1141.1204,679.7231 C1119.1026,670.5021 1121.3879,655.8422 1135.538,641.3585 C1114.7409,621.9385 1118.9841,607.1895 1142.7631,594.6673 C1120.9554,583.7709 1117.8741,570.2783 1136.6202,553.3522 C1113.2875,533.7574 1112.1724,508.5108 1144,496.0158 C1146.4176,494.1801 1148.9284,494.3454 1149.7301,497.7745 " fill="#F0F0F0" style="stroke: #000000; stroke-width: 1.5;"/><text fill="#000000" font-family="Monospace" font-size="14" font-weight="bold" lengthAdjust="spacingAndGlyphs" textLength="29" x="1452.5" y="515.9818">HPC</text><!--MD5=[4f140ef10277af62a9bbfeabfb64c237]
cluster Head Node--><polygon fill="#F0F0F0" filter="url(#furwmxjcq2n3n)" points="1293,666.0158,1303,656.0158,1451,656.0158,1451,763.0158,1441,773.0158,1293,773.0158,1293,666.0158" style="stroke: #000000; stroke-width: 1.5;"/><line style="stroke: #000000; stroke-width: 1.5;" x1="1441" x2="1450" y1="666.0158" y2="657.0158"/><line style="stroke: #000000; stroke-width: 1.5;" x1="1293" x2="1441" y1="666.0158" y2="666.0158"/><line style="stroke: #000000; stroke-width: 1.5;" x1="1441" x2="1441" y1="666.0158" y2="773.0158"/><text fill="#000000" font-family="Monospace" font-size="14" font-weight="bold" lengthAdjust="spacingAndGlyphs" textLength="77" x="1329.5" y="683.9818">Head Node</text><!--MD5=[7018e2f8ec6c3126037d80ab91f6880d]
cluster Compute Node 1--><polygon fill="#F0F0F0" filter="url(#furwmxjcq2n3n)" points="1153,845.5158,1163,835.5158,1346,835.5158,1346,923.5158,1336,933.5158,1153,933.5158,1153,845.5158" style="stroke: #000000; stroke-width: 1.5;"/><line style="stroke: #000000; stroke-width: 1.5;" x1="1336" x2="1345" y1="845.5158" y2="836.5158"/><line style="stroke: #000000; stroke-width: 1.5;" x1="1153" x2="1336" y1="845.5158" y2="845.5158"/><line style="stroke: #000000; stroke-width: 1.5;" x1="1336" x2="1336" y1="845.5158" y2="933.5158"/><text fill="#000000" font-family="Monospace" font-size="14" font-weight="bold" lengthAdjust="spacingAndGlyphs" textLength="117" x="1187" y="863.4818">Compute Node 1</text><!--MD5=[87367e987a291b585b0318bcf694b76e]
cluster Compute Node 2--><polygon fill="#F0F0F0" filter="url(#furwmxjcq2n3n)" points="1370,845.5158,1380,835.5158,1563,835.5158,1563,923.5158,1553,933.5158,1370,933.5158,1370,845.5158" style="stroke: #000000; stroke-width: 1.5;"/><line style="stroke: #000000; stroke-width: 1.5;" x1="1553" x2="1562" y1="845.5158" y2="836.5158"/><line style="stroke: #000000; stroke-width: 1.5;" x1="1370" x2="1553" y1="845.5158" y2="845.5158"/><line style="stroke: #000000; stroke-width: 1.5;" x1="1553" x2="1553" y1="845.5158" y2="933.5158"/><text fill="#000000" font-family="Monospace" font-size="14" font-weight="bold" lengthAdjust="spacingAndGlyphs" textLength="117" x="1404" y="863.4818">Compute Node 2</text><!--MD5=[611865159834dcb625bf3423a333d68b]
cluster Compute Node n--><polygon fill="#F0F0F0" filter="url(#furwmxjcq2n3n)" points="1587,845.5158,1597,835.5158,1781,835.5158,1781,923.5158,1771,933.5158,1587,933.5158,1587,845.5158" style="stroke: #000000; stroke-width: 1.5;"/><line style="stroke: #000000; stroke-width: 1.5;" x1="1771" x2="1780" y1="845.5158" y2="836.5158"/><line style="stroke: #000000; stroke-width: 1.5;" x1="1587" x2="1771" y1="845.5158" y2="845.5158"/><line style="stroke: #000000; stroke-width: 1.5;" x1="1771" x2="1771" y1="845.5158" y2="933.5158"/><text fill="#000000" font-family="Monospace" font-size="14" font-weight="bold" lengthAdjust="spacingAndGlyphs" textLength="118" x="1621" y="863.4818">Compute Node n</text><!--MD5=[beb5ad5244d3d849df9473931f7c2e5e]
entity GUI--><rect fill="#F0F0F0" filter="url(#furwmxjcq2n3n)" height="58.1358" style="stroke: #000000; stroke-width: 1.5;" width="83" x="761.5" y="138.0158"/><rect fill="#F0F0F0" height="5" style="stroke: #000000; stroke-width: 1.5;" width="10" x="756.5" y="143.0158"/><rect fill="#F0F0F0" height="5" style="stroke: #000000; stroke-width: 1.5;" width="10" x="756.5" y="186.1517"/><text fill="#000000" font-family="Monospace" font-size="14" lengthAdjust="spacingAndGlyphs" textLength="59" x="771.5" y="162.9818">Web GUI</text><text fill="#000000" font-family="Monospace" font-size="14" lengthAdjust="spacingAndGlyphs" textLength="63" x="771.5" y="182.0497">(optional)</text><!--MD5=[df6a39b053164d23cc3ecae9c3484a54]
entity CLI--><rect fill="#F0F0F0" filter="url(#furwmxjcq2n3n)" height="58.1358" style="stroke: #000000; stroke-width: 1.5;" width="114" x="746" y="322.0158"/><rect fill="#F0F0F0" height="5" style="stroke: #000000; stroke-width: 1.5;" width="10" x="741" y="327.0158"/><rect fill="#F0F0F0" height="5" style="stroke: #000000; stroke-width: 1.5;" width="10" x="741" y="370.1517"/><text fill="#000000" font-family="Monospace" font-size="14" lengthAdjust="spacingAndGlyphs" textLength="94" x="756" y="346.9818">CLI Command</text><text fill="#000000" font-family="Monospace" font-size="14" lengthAdjust="spacingAndGlyphs" textLength="72" x="756" y="366.0497">omniopt ...</text><!--MD5=[6701a3ea7878410edba432ced09d8d77]
entity OmniOpt2Server--><path d="M910.5,874.5158 C910.5,864.5158 991,864.5158 991,864.5158 C991,864.5158 1071.5,864.5158 1071.5,874.5158 L1071.5,921.6517 C1071.5,931.6517 991,931.6517 991,931.6517 C991,931.6517 910.5,931.6517 910.5,921.6517 L910.5,874.5158 " fill="#F0F0F0" filter="url(#furwmxjcq2n3n)" style="stroke: #000000; stroke-width: 1.5;"/><path d="M910.5,874.5158 C910.5,884.5158 991,884.5158 991,884.5158 C991,884.5158 1071.5,884.5158 1071.5,874.5158 " fill="none" style="stroke: #000000; stroke-width: 1.5;"/><text fill="#000000" font-family="Monospace" font-size="14" lengthAdjust="spacingAndGlyphs" textLength="117" x="920.5" y="903.4818">OmniOpt2 Server</text><text fill="#000000" font-family="Monospace" font-size="14" lengthAdjust="spacingAndGlyphs" textLength="141" x="920.5" y="922.5497">(optional, Live-Share)</text><!--MD5=[feac20ec967ba8193586f5464e6c98c7]
entity LocalRuns--><path d="M804.5,714.0158 C804.5,704.0158 854,704.0158 854,704.0158 C854,704.0158 903.5,704.0158 903.5,714.0158 L903.5,742.0838 C903.5,752.0838 854,752.0838 854,752.0838 C854,752.0838 804.5,752.0838 804.5,742.0838 L804.5,714.0158 " fill="#F0F0F0" filter="url(#furwmxjcq2n3n)" style="stroke: #000000; stroke-width: 1.5;"/><path d="M804.5,714.0158 C804.5,724.0158 854,724.0158 854,724.0158 C854,724.0158 903.5,724.0158 903.5,714.0158 " fill="none" style="stroke: #000000; stroke-width: 1.5;"/><text fill="#000000" font-family="Monospace" font-size="14" lengthAdjust="spacingAndGlyphs" textLength="79" x="814.5" y="742.9818">runs/ (local)</text><!--MD5=[119bd4be733b4c7d33357554b14c3254]
entity LocalCore--><rect fill="#F0F0F0" filter="url(#furwmxjcq2n3n)" height="58.1358" style="stroke: #000000; stroke-width: 1.5;" width="125" x="518.5" y="531.0158"/><rect fill="#F0F0F0" height="5" style="stroke: #000000; stroke-width: 1.5;" width="10" x="513.5" y="536.0158"/><rect fill="#F0F0F0" height="5" style="stroke: #000000; stroke-width: 1.5;" width="10" x="513.5" y="579.1517"/><text fill="#000000" font-family="Monospace" font-size="14" lengthAdjust="spacingAndGlyphs" textLength="105" x="528.5" y="555.9818">OmniOpt2 Core</text><text fill="#000000" font-family="Monospace" font-size="14" lengthAdjust="spacingAndGlyphs" textLength="84" x="528.5" y="575.0497">(main script)</text><!--MD5=[d2fc6cf2bce407d526ef15191755a4fd]
entity LocalJobs1--><rect fill="#F0F0F0" filter="url(#furwmxjcq2n3n)" height="39.0679" style="stroke: #000000; stroke-width: 1.5;" width="62" x="137" y="708.5158"/><rect fill="#F0F0F0" height="5" style="stroke: #000000; stroke-width: 1.5;" width="10" x="132" y="713.5158"/><rect fill="#F0F0F0" height="5" style="stroke: #000000; stroke-width: 1.5;" width="10" x="132" y="737.5838"/><text fill="#000000" font-family="Monospace" font-size="14" lengthAdjust="spacingAndGlyphs" textLength="42" x="147" y="733.4818">Job #1</text><!--MD5=[e40594d447fda55db88d25f62754828c]
entity LocalJobs2--><rect fill="#F0F0F0" filter="url(#furwmxjcq2n3n)" height="39.0679" style="stroke: #000000; stroke-width: 1.5;" width="62" x="367" y="708.5158"/><rect fill="#F0F0F0" height="5" style="stroke: #000000; stroke-width: 1.5;" width="10" x="362" y="713.5158"/><rect fill="#F0F0F0" height="5" style="stroke: #000000; stroke-width: 1.5;" width="10" x="362" y="737.5838"/><text fill="#000000" font-family="Monospace" font-size="14" lengthAdjust="spacingAndGlyphs" textLength="42" x="377" y="733.4818">Job #2</text><!--MD5=[21263cadb4f481f7ee75bf6952ec9ed8]
entity LocalJobsN--><rect fill="#F0F0F0" filter="url(#furwmxjcq2n3n)" height="39.0679" style="stroke: #000000; stroke-width: 1.5;" width="63" x="597.5" y="708.5158"/><rect fill="#F0F0F0" height="5" style="stroke: #000000; stroke-width: 1.5;" width="10" x="592.5" y="713.5158"/><rect fill="#F0F0F0" height="5" style="stroke: #000000; stroke-width: 1.5;" width="10" x="592.5" y="737.5838"/><text fill="#000000" font-family="Monospace" font-size="14" lengthAdjust="spacingAndGlyphs" textLength="43" x="607.5" y="733.4818">Job #n</text><!--MD5=[ad168f425ab565e150e1a97e9229db73]
entity HPCRuns--><path d="M1821.5,884.0158 C1821.5,874.0158 1902,874.0158 1902,874.0158 C1902,874.0158 1982.5,874.0158 1982.5,884.0158 L1982.5,912.0838 C1982.5,922.0838 1902,922.0838 1902,922.0838 C1902,922.0838 1821.5,922.0838 1821.5,912.0838 L1821.5,884.0158 " fill="#F0F0F0" filter="url(#furwmxjcq2n3n)" style="stroke: #000000; stroke-width: 1.5;"/><path d="M1821.5,884.0158 C1821.5,894.0158 1902,894.0158 1902,894.0158 C1902,894.0158 1982.5,894.0158 1982.5,884.0158 " fill="none" style="stroke: #000000; stroke-width: 1.5;"/><text fill="#000000" font-family="Monospace" font-size="14" lengthAdjust="spacingAndGlyphs" textLength="141" x="1831.5" y="912.9818">runs/ (on file system)</text><!--MD5=[1e30e967108d4cd087a1e501a36a7024]
entity LoginNode--><polygon fill="#F0F0F0" filter="url(#furwmxjcq2n3n)" points="1227.5,536.0158,1237.5,526.0158,1352.5,526.0158,1352.5,584.1517,1342.5,594.1517,1227.5,594.1517,1227.5,536.0158" style="stroke: #000000; stroke-width: 1.5;"/><line style="stroke: #000000; stroke-width: 1.5;" x1="1342.5" x2="1351.5" y1="536.0158" y2="527.0158"/><line style="stroke: #000000; stroke-width: 1.5;" x1="1227.5" x2="1342.5" y1="536.0158" y2="536.0158"/><line style="stroke: #000000; stroke-width: 1.5;" x1="1342.5" x2="1342.5" y1="536.0158" y2="594.1517"/><text fill="#000000" font-family="Monospace" font-size="14" lengthAdjust="spacingAndGlyphs" textLength="77" x="1242.5" y="560.9818">Login Node</text><text fill="#000000" font-family="Monospace" font-size="14" lengthAdjust="spacingAndGlyphs" textLength="85" x="1242.5" y="580.0497">(sbatch only)</text><!--MD5=[0ca049598cf64d5a8f9e0a6c16d5d1d0]
entity HPCMaster--><rect fill="#F0F0F0" filter="url(#furwmxjcq2n3n)" height="58.1358" style="stroke: #000000; stroke-width: 1.5;" width="125" x="1309.5" y="699.0158"/><rect fill="#F0F0F0" height="5" style="stroke: #000000; stroke-width: 1.5;" width="10" x="1304.5" y="704.0158"/><rect fill="#F0F0F0" height="5" style="stroke: #000000; stroke-width: 1.5;" width="10" x="1304.5" y="747.1517"/><text fill="#000000" font-family="Monospace" font-size="14" lengthAdjust="spacingAndGlyphs" textLength="105" x="1319.5" y="723.9818">OmniOpt2 Core</text><text fill="#000000" font-family="Monospace" font-size="14" lengthAdjust="spacingAndGlyphs" textLength="84" x="1319.5" y="743.0497">(main script)</text><!--MD5=[47e052b533fd8425fd8ca2757eeea134]
entity Job1--><rect fill="#F0F0F0" filter="url(#furwmxjcq2n3n)" height="39.0679" style="stroke: #000000; stroke-width: 1.5;" width="62" x="1198" y="878.5158"/><rect fill="#F0F0F0" height="5" style="stroke: #000000; stroke-width: 1.5;" width="10" x="1193" y="883.5158"/><rect fill="#F0F0F0" height="5" style="stroke: #000000; stroke-width: 1.5;" width="10" x="1193" y="907.5838"/><text fill="#000000" font-family="Monospace" font-size="14" lengthAdjust="spacingAndGlyphs" textLength="42" x="1208" y="903.4818">Job #1</text><!--MD5=[ad1ecd006b7d6e2fcd722d0410ebc487]
entity Job2--><rect fill="#F0F0F0" filter="url(#furwmxjcq2n3n)" height="39.0679" style="stroke: #000000; stroke-width: 1.5;" width="62" x="1402" y="878.5158"/><rect fill="#F0F0F0" height="5" style="stroke: #000000; stroke-width: 1.5;" width="10" x="1397" y="883.5158"/><rect fill="#F0F0F0" height="5" style="stroke: #000000; stroke-width: 1.5;" width="10" x="1397" y="907.5838"/><text fill="#000000" font-family="Monospace" font-size="14" lengthAdjust="spacingAndGlyphs" textLength="42" x="1412" y="903.4818">Job #2</text><!--MD5=[0ab1b686e84364c8109e522a8c779fa1]
entity Job3--><rect fill="#F0F0F0" filter="url(#furwmxjcq2n3n)" height="39.0679" style="stroke: #000000; stroke-width: 1.5;" width="63" x="1606.5" y="878.5158"/><rect fill="#F0F0F0" height="5" style="stroke: #000000; stroke-width: 1.5;" width="10" x="1601.5" y="883.5158"/><rect fill="#F0F0F0" height="5" style="stroke: #000000; stroke-width: 1.5;" width="10" x="1601.5" y="907.5838"/><text fill="#000000" font-family="Monospace" font-size="14" lengthAdjust="spacingAndGlyphs" textLength="43" x="1616.5" y="903.4818">Job #n</text><!--MD5=[35c1068cf10654a3a88a78f31c30ad7d]
link GUI to CLI--><path d="M803,196.0558 C803,228.5158 803,281.9558 803,316.5558 " fill="none" id="GUI-&gt;CLI" style="stroke: #000000; stroke-width: 1.0; stroke-dasharray: 7.0,7.0;"/><polygon fill="#000000" points="803,321.9458,807,312.9458,803,316.9458,799,312.9458,803,321.9458" style="stroke: #000000; stroke-width: 1.0;"/><text fill="#000000" font-family="Monospace" font-size="11" lengthAdjust="spacingAndGlyphs" textLength="210" x="804" y="264.7748">Generates CLI Command to be executed</text><!--MD5=[bb07170366ce939dcc727915865a8aad]
link CLI to LocalCore--><path d="M772.6,380.3658 C731.33,418.8458 657.82,487.3858 614.84,527.4658 " fill="none" id="CLI-&gt;LocalCore" style="stroke: #000000; stroke-width: 1.0;"/><polygon fill="#000000" points="611.04,531.0058,620.3483,527.7879,614.6948,527.5937,614.889,521.9402,611.04,531.0058" style="stroke: #000000; stroke-width: 1.0;"/><text fill="#000000" font-family="Monospace" font-size="11" lengthAdjust="spacingAndGlyphs" textLength="57" x="738" y="422.7748">Run locally</text><!--MD5=[c27c3c7b98a2dd3503e29f99b530e9bd]
link LocalCore to LocalJobs1--><path d="M518.17,565.0358 C397.73,573.3758 143.94,594.3058 118,624.0158 C97.11,647.9358 121.77,682.1158 143.26,704.4358 " fill="none" id="LocalCore-&gt;LocalJobs1" style="stroke: #000000; stroke-width: 1.0;"/><polygon fill="#000000" points="146.95,708.1858,143.4887,698.9652,143.4431,704.6219,137.7864,704.5763,146.95,708.1858" style="stroke: #000000; stroke-width: 1.0;"/><text fill="#000000" font-family="Monospace" font-size="11" lengthAdjust="spacingAndGlyphs" textLength="53" x="119" y="636.7748">start job 1</text><!--MD5=[4eeaa9e26c347e59d17bf1e1a3b1be70]
link LocalJobs1 to LocalCore--><path d="M175.25,708.4058 C185.47,684.7658 206.49,644.5658 238,624.0158 C282.38,595.0758 426.39,576.2658 513.06,567.2558 " fill="none" id="LocalJobs1-&gt;LocalCore" style="stroke: #000000; stroke-width: 1.0;"/><polygon fill="#000000" points="518.17,566.7258,508.8062,563.6732,513.1965,567.2403,509.6294,571.6307,518.17,566.7258" style="stroke: #000000; stroke-width: 1.0;"/><text fill="#000000" font-family="Monospace" font-size="11" lengthAdjust="spacingAndGlyphs" textLength="93" x="239" y="636.7748">notify completion</text><!--MD5=[cb8031634bd4e903ccabb5225de90d8b]
link LocalCore to LocalJobs2--><path d="M518.46,569.3158 C456.73,578.9358 368.66,597.0258 348,624.0158 C328.81,649.0858 352.67,682.6858 373.56,704.5858 " fill="none" id="LocalCore-&gt;LocalJobs2" style="stroke: #000000; stroke-width: 1.0;"/><polygon fill="#000000" points="377.14,708.2658,373.7348,699.0244,373.6548,704.6807,367.9985,704.6007,377.14,708.2658" style="stroke: #000000; stroke-width: 1.0;"/><text fill="#000000" font-family="Monospace" font-size="11" lengthAdjust="spacingAndGlyphs" textLength="53" x="349" y="636.7748">start job 2</text><!--MD5=[814f6603e38c8b8987a1125c9d474155]
link LocalJobs2 to LocalCore--><path d="M408.05,708.4658 C420.73,686.3158 444.26,649.1458 472,624.0158 C485.48,611.8158 501.7,600.8858 517.47,591.6958 " fill="none" id="LocalJobs2-&gt;LocalCore" style="stroke: #000000; stroke-width: 1.0;"/><polygon fill="#000000" points="521.9,589.1558,512.1045,590.1793,517.5667,591.6503,516.0957,597.1126,521.9,589.1558" style="stroke: #000000; stroke-width: 1.0;"/><text fill="#000000" font-family="Monospace" font-size="11" lengthAdjust="spacingAndGlyphs" textLength="93" x="473" y="636.7748">notify completion</text><!--MD5=[3d83dad48673b6a0e540888e983ac65e]
link LocalCore to LocalJobsN--><path d="M575.87,589.2658 C574.11,604.5458 573.54,623.5958 578,640.0158 C584.43,663.6958 599.1,687.5158 611.06,704.2258 " fill="none" id="LocalCore-&gt;LocalJobsN" style="stroke: #000000; stroke-width: 1.0;"/><polygon fill="#000000" points="614.04,708.3258,611.9774,698.6954,611.0974,704.2834,605.5094,703.4035,614.04,708.3258" style="stroke: #000000; stroke-width: 1.0;"/><text fill="#000000" font-family="Monospace" font-size="11" lengthAdjust="spacingAndGlyphs" textLength="54" x="579" y="636.7748">start job n</text><!--MD5=[0cb1104b4ebfd97325a9a087985e8a2b]
link LocalJobsN to LocalCore--><path d="M635.41,708.4658 C641.66,687.2958 648.78,651.9858 638,624.0158 C633.64,612.6958 626.2,602.1458 618.1,593.0358 " fill="none" id="LocalJobsN-&gt;LocalCore" style="stroke: #000000; stroke-width: 1.0;"/><polygon fill="#000000" points="614.6,589.2258,617.7427,598.5598,617.9825,592.9081,623.6343,593.1478,614.6,589.2258" style="stroke: #000000; stroke-width: 1.0;"/><text fill="#000000" font-family="Monospace" font-size="11" lengthAdjust="spacingAndGlyphs" textLength="93" x="642" y="636.7748">notify completion</text><!--MD5=[3a314155df3c86a96c6dc817f2f42b38]
link LocalCore to LocalRuns--><path d="M643.65,568.6558 C679.02,576.4458 720.69,592.1958 744,624.0158 C746.11,626.8858 742.64,637.3458 745,640.0158 C757.89,654.5658 771.22,638.1958 788,648.0158 C809.05,660.3258 826.41,681.9558 838.03,699.4758 " fill="none" id="LocalCore-&gt;LocalRuns" style="stroke: #000000; stroke-width: 1.0;"/><polygon fill="#000000" points="840.86,703.8258,839.2961,694.102,838.1295,699.6372,832.5943,698.4707,840.86,703.8258" style="stroke: #000000; stroke-width: 1.0;"/><text fill="#000000" font-family="Monospace" font-size="11" lengthAdjust="spacingAndGlyphs" textLength="80" x="746" y="636.7748">write all results</text><!--MD5=[95ac879643d0f9a162a8988bbb1df057]
link LocalCore to OmniOpt2Server--><path d="M643.56,564.7458 C730.26,571.1958 880.75,587.4458 920,624.0158 C985.91,685.4258 993.76,799.5358 992.96,858.9058 " fill="none" id="LocalCore-&gt;OmniOpt2Server" style="stroke: #000000; stroke-width: 1.0;"/><polygon fill="#000000" points="992.86,864.1258,997.0137,855.1957,992.9457,859.1266,989.0149,855.0586,992.86,864.1258" style="stroke: #000000; stroke-width: 1.0;"/><text fill="#000000" font-family="Monospace" font-size="11" lengthAdjust="spacingAndGlyphs" textLength="113" x="990" y="732.7748">--live_share (optional)</text><!--MD5=[800e0e0bb90fb898e4eff9c9cad77fdf]
link CLI to LoginNode--><path d="M860.3,376.3658 C950.67,414.7858 1125.93,489.2758 1222.35,530.2558 " fill="none" id="CLI-&gt;LoginNode" style="stroke: #000000; stroke-width: 1.0;"/><polygon fill="#000000" points="1227.16,532.3058,1220.4364,525.1091,1222.5569,530.3535,1217.3126,532.474,1227.16,532.3058" style="stroke: #000000; stroke-width: 1.0;"/><text fill="#000000" font-family="Monospace" font-size="11" lengthAdjust="spacingAndGlyphs" textLength="47" x="975" y="422.7748">ssh login</text><!--MD5=[0c619afe08a0a430c7a3ffb1ff1eec8b]
link LoginNode to HPCMaster--><path d="M1306.4,594.2058 C1320.77,623.3058 1341.55,665.3658 1355.85,694.3158 " fill="none" id="LoginNode-&gt;HPCMaster" style="stroke: #000000; stroke-width: 1.0;"/><polygon fill="#000000" points="1358.09,698.8458,1357.6931,689.005,1355.8768,694.3623,1350.5195,692.5461,1358.09,698.8458" style="stroke: #000000; stroke-width: 1.0;"/><text fill="#000000" font-family="Monospace" font-size="11" lengthAdjust="spacingAndGlyphs" textLength="89" x="1329" y="636.7748">sbatch command</text><!--MD5=[d73132a875438189b2b3ce4229eb2a32]
link HPCMaster to Job1--><path d="M1352.11,757.1858 C1340.43,771.3258 1324.37,787.1858 1306,795.5158 C1292.92,801.4458 1186.84,793.0558 1177,803.5158 C1172.13,808.6958 1173.19,813.5158 1177,819.5158 C1181.47,826.5658 1188.02,821.6858 1194,827.5158 C1207.04,840.2158 1216.05,858.8058 1221.66,873.5658 " fill="none" id="HPCMaster-&gt;Job1" style="stroke: #000000; stroke-width: 1.0;"/><polygon fill="#000000" points="1223.44,878.4058,1224.0876,868.5783,1221.7141,873.7132,1216.5793,871.3397,1223.44,878.4058" style="stroke: #000000; stroke-width: 1.0;"/><text fill="#000000" font-family="Monospace" font-size="11" lengthAdjust="spacingAndGlyphs" textLength="36" x="1178" y="816.2748">submit</text><!--MD5=[0361fc0b2f9e0c1d656e25018cbd835c]
link Job1 to HPCMaster--><path d="M1235.29,878.2058 C1243.25,857.1758 1258.87,823.4658 1283,803.5158 C1291.34,796.6158 1296.84,801.2858 1306,795.5158 C1320.72,786.2458 1334.66,773.1158 1345.9,760.9758 " fill="none" id="Job1-&gt;HPCMaster" style="stroke: #000000; stroke-width: 1.0;"/><polygon fill="#000000" points="1349.3,757.2358,1340.2816,761.1942,1345.9324,760.9317,1346.1949,766.5824,1349.3,757.2358" style="stroke: #000000; stroke-width: 1.0;"/><text fill="#000000" font-family="Monospace" font-size="11" lengthAdjust="spacingAndGlyphs" textLength="72" x="1284" y="816.2748">return results</text><!--MD5=[76de094807e8008348a742240e8dbe38]
link HPCMaster to Job2--><path d="M1365.81,757.1758 C1363.05,775.4658 1361.82,799.5458 1369,819.5158 C1376.73,841.0158 1393.29,860.7858 1407.63,874.9858 " fill="none" id="HPCMaster-&gt;Job2" style="stroke: #000000; stroke-width: 1.0;"/><polygon fill="#000000" points="1411.22,878.4658,1407.5548,869.3244,1407.6348,874.9807,1401.9785,875.0606,1411.22,878.4658" style="stroke: #000000; stroke-width: 1.0;"/><text fill="#000000" font-family="Monospace" font-size="11" lengthAdjust="spacingAndGlyphs" textLength="36" x="1370" y="816.2748">submit</text><!--MD5=[dac3ded752d84de080905c6c3483a0d1]
link Job2 to HPCMaster--><path d="M1430.03,878.3358 C1426.66,859.1658 1420.37,828.6758 1411,803.5158 C1405.73,789.3858 1398.37,774.5258 1391.45,761.8258 " fill="none" id="Job2-&gt;HPCMaster" style="stroke: #000000; stroke-width: 1.0;"/><polygon fill="#000000" points="1388.93,757.2458,1389.7661,767.0592,1391.3412,761.626,1396.7744,763.2012,1388.93,757.2458" style="stroke: #000000; stroke-width: 1.0;"/><text fill="#000000" font-family="Monospace" font-size="11" lengthAdjust="spacingAndGlyphs" textLength="72" x="1417" y="816.2748">return results</text><!--MD5=[d49c4ab690e9114edc7d2c3d09ac25fe]
link HPCMaster to Job3--><path d="M1420.84,757.0558 C1444.35,770.7658 1472.83,787.6858 1498,803.5158 C1535.93,827.3658 1578.63,856.1858 1606.8,875.4658 " fill="none" id="HPCMaster-&gt;Job3" style="stroke: #000000; stroke-width: 1.0;"/><polygon fill="#000000" points="1611.19,878.4758,1606.0397,870.0809,1607.0698,875.6432,1601.5075,876.6733,1611.19,878.4758" style="stroke: #000000; stroke-width: 1.0;"/><text fill="#000000" font-family="Monospace" font-size="11" lengthAdjust="spacingAndGlyphs" textLength="36" x="1522" y="816.2748">submit</text><!--MD5=[0b084569a1b025af739eee478835d34a]
link Job3 to HPCMaster--><path d="M1623.15,878.4458 C1610.82,862.8858 1592.95,839.9958 1578,819.5158 C1572.91,812.5458 1573.78,808.8558 1567,803.5158 C1529.78,774.2258 1479.74,755.4258 1439.67,744.0358 " fill="none" id="Job3-&gt;HPCMaster" style="stroke: #000000; stroke-width: 1.0;"/><polygon fill="#000000" points="1434.84,742.6858,1442.4171,748.9777,1439.6524,744.0425,1444.5877,741.2778,1434.84,742.6858" style="stroke: #000000; stroke-width: 1.0;"/><text fill="#000000" font-family="Monospace" font-size="11" lengthAdjust="spacingAndGlyphs" textLength="72" x="1579" y="816.2748">return results</text><!--MD5=[571935b6720c67f63951b3fde5967843]
link HPCMaster to HPCRuns--><path d="M1434.67,743.0258 C1493.42,756.6658 1583.42,778.9058 1660,803.5158 C1723.35,823.8758 1794.18,851.8758 1842.75,871.9158 " fill="none" id="HPCMaster-&gt;HPCRuns" style="stroke: #000000; stroke-width: 1.0;"/><polygon fill="#000000" points="1847.38,873.8258,1840.5998,866.6824,1842.7617,871.9099,1837.5342,874.0718,1847.38,873.8258" style="stroke: #000000; stroke-width: 1.0;"/><text fill="#000000" font-family="Monospace" font-size="11" lengthAdjust="spacingAndGlyphs" textLength="65" x="1708" y="816.2748">write results</text><!--MD5=[9b4661392c5508d5bc2f8f38988871a1]
link HPCMaster to OmniOpt2Server--><path d="M1352.49,757.0658 C1340.82,771.3658 1324.65,787.4058 1306,795.5158 C1279.9,806.8658 1074.7,789.3858 1050,803.5158 C1028.71,815.6958 1013.98,838.9958 1004.56,859.2958 " fill="none" id="HPCMaster-&gt;OmniOpt2Server" style="stroke: #000000; stroke-width: 1.0;"/><polygon fill="#000000" points="1002.39,864.1158,1009.7387,857.5586,1004.4472,859.5586,1002.4471,854.2672,1002.39,864.1158" style="stroke: #000000; stroke-width: 1.0;"/><text fill="#000000" font-family="Monospace" font-size="11" lengthAdjust="spacingAndGlyphs" textLength="113" x="1051" y="816.2748">--live_share (optional)</text><!--MD5=[6e31415ef85a9e673a28cd212ec4a873]
@startuml

  skinparam backgroundColor #ffffff
  skinparam defaultFontColor #000000
  skinparam titleFontColor #000000
  skinparam componentFontColor #000000
  skinparam nodeFontColor #000000
  skinparam databaseFontColor #000000
  skinparam arrowColor #000000
  skinparam ArrowFontColor #000000

  skinparam componentBackgroundColor #f0f0f0
  skinparam nodeBackgroundColor #f0f0f0
  skinparam databaseBackgroundColor #f0f0f0
  skinparam packageBackgroundColor #f0f0f0
  skinparam cloudBackgroundColor #f0f0f0

  skinparam componentBorderColor #000000
  skinparam nodeBorderColor #000000
  skinparam databaseBorderColor #000000
  skinparam packageBorderColor #000000
  skinparam cloudBorderColor #000000
  skinparam rectangleBorderColor #000000

skinparam componentStyle rectangle
skinparam defaultFontName Monospace
skinparam ArrowFontSize 11

title OmniOpt2 Architecture

package "User Interface" {
  node "User" {
    component "Web GUI\n(optional)" as GUI
  }
}

package "OmniOpt2 Workflow" {

  component "CLI Command\nomniopt ..." as CLI

  GUI ..> CLI : Generates CLI Command to be executed

  database "OmniOpt2 Server\n(optional, Live-Share)" as OmniOpt2Server

  package "Local Mode" {
	  database "runs/ (local)" as LocalRuns

	  node "Local System" {
		  component "OmniOpt2 Core\n(main script)" as LocalCore
			  component "Job #1" as LocalJobs1
			  component "Job #2" as LocalJobs2
			  component "Job #n" as LocalJobsN
	  }

	  CLI - -> LocalCore : Run locally

		  LocalCore - -> LocalJobs1 : start job 1
		  LocalJobs1 - -> LocalCore : notify completion

		  LocalCore - -> LocalJobs2 : start job 2
		  LocalJobs2 - -> LocalCore : notify completion

		  LocalCore - -> LocalJobsN : start job n
		  LocalJobsN - -> LocalCore : notify completion

		  LocalCore - -> LocalRuns : write all results

		  LocalCore - -> OmniOpt2Server : - -live_share (optional)
  }

  package "HPC Mode (via submitit/sbatch)" {

    cloud "HPC" {

      node "Login Node\n(sbatch only)" as LoginNode

      node "Head Node" {
        component "OmniOpt2 Core\n(main script)" as HPCMaster
      }

      node "Compute Node 1" {
        component "Job #1" as Job1
      }

      node "Compute Node 2" {
        component "Job #2" as Job2
      }

      node "Compute Node n" {
        component "Job #n" as Job3
      }
    }

    database "runs/ (on file system)" as HPCRuns

    CLI - -> LoginNode : ssh login
    LoginNode - -> HPCMaster : sbatch command

    HPCMaster - -> Job1 : submit
    HPCMaster - -> Job2 : submit
    HPCMaster - -> Job3 : submit

    Job1 -down-> HPCMaster : return results
    Job2 -down-> HPCMaster : return results
    Job3 -down-> HPCMaster : return results

    HPCMaster - -> HPCRuns : write results
    HPCMaster - -> OmniOpt2Server : - -live_share (optional)
  }
}

@enduml

PlantUML version 1.2020.02(Sun Mar 01 11:22:07 CET 2020)
(GPL source distribution)
Java Runtime: OpenJDK Runtime Environment
JVM: OpenJDK 64-Bit Server VM
Java Version: 11.0.26+4-post-Debian-1
Operating System: Linux
Default Encoding: UTF-8
Language: de
Country: DE
--></g></svg>