<?xml version="1.0" encoding="UTF-8" standalone="no"?>
<svg
   class="icon icon-tabler icon-tabler-csv"
   width="20"
   height="10"
   viewBox="0 0 20 10"
   stroke-width="2"
   stroke="currentColor"
   fill="none"
   stroke-linecap="round"
   stroke-linejoin="round"
   version="1.1"
   id="svg329"
   xmlns="http://www.w3.org/2000/svg"
   xmlns:svg="http://www.w3.org/2000/svg">
  <defs
     id="defs333" />
  <path
     stroke="none"
     d="M -2,-7 H 22 V 17 H -2 Z"
     fill="none"
     id="path321" />
  <path
     d="m 8,8 a 1,1 0 0 0 1,1 h 2 A 1,1 0 0 0 12,8 V 6 A 1,1 0 0 0 11,5 H 9 A 1,1 0 0 1 8,4 V 2 A 1,1 0 0 1 9,1 h 2 a 1,1 0 0 1 1,1"
     id="path323" />
  <path
     d="m 15,1 2,8 2,-8"
     id="path325" />
  <path
     d="M 5,3 A 2,2 0 1 0 1,3 v 4 a 2,2 0 1 0 4,0"
     id="path327" />
</svg>
