<?xml version="1.0" encoding="UTF-8" standalone="no"?>
<svg
   width="14.000517"
   height="14"
   viewBox="0 0 14.000517 14"
   version="1.1"
   id="svg343"
   xmlns="http://www.w3.org/2000/svg"
   xmlns:svg="http://www.w3.org/2000/svg">
  <defs
     id="defs347" />
  <g
     fill="none"
     fill-rule="evenodd"
     id="g341"
     transform="translate(-5.0033894,-5)">
    <path
       fill="#536076"
       fill-rule="nonzero"
       d="m 9.0097656,5 v 4 h -3 v 9 H 18.003906 V 9 H 15.005859 V 5 l 2.025272,6.56e-4 c 0.230584,0.00854 1.850849,0.1282548 1.966288,1.8063969 L 19.003906,7 V 19 H 5.0117188 V 7 c 0,0 -0.2347428,-1.8730489 1.7881407,-1.9938908 L 7.0097656,5 Z M 8,6 H 7 C 6.4871642,6 6.0644928,6.3860402 6.0067277,6.8833789 L 6,7 v 1 h 2 z m 9,0 h -1 v 2 h 2 V 7 C 18,6.4477152 17.552285,6 17,6 Z"
       id="path335" />
    <path
       fill="#536076"
       fill-rule="nonzero"
       d="M 13.589844,9.9941406 13.578125,10 v 0.591797 c 0.71028,0 0.71875,0.239129 0.71875,1.105469 0.007,0.0804 0.002,0.198624 0.02539,0.302734 0.0532,0.37563 0.224195,0.801346 0.697265,1.003906 -0.59869,0.25635 -0.722656,0.875566 -0.722656,1.291016 -0.0137,0.19066 -0.01718,0.589108 -0.05078,0.705078 -0.0635,0.28989 -0.218459,0.408203 -0.667969,0.408203 V 16 c 0.95725,0 1.410941,-0.28836 1.494141,-1 0.004,-0.10814 0.02258,-0.302633 0.01758,-0.476562 0,-0.55691 0.02081,-1.201172 0.609375,-1.201172 h 0.304687 v -0.644532 h -0.304687 c -0.40273,0 -0.531945,-0.308814 -0.578125,-0.677734 -0.007,-0.15866 -0.03125,-0.746094 -0.03125,-0.746094 0.01,-0.91 -0.44,-1.2597654 -1.5,-1.2597654 z M 10.435547,10 c -1.0655001,0 -1.513672,0.352256 -1.513672,1.253906 0,0 -0.02455,0.587434 -0.03125,0.746094 -0.0462,0.36892 -0.175395,0.677734 -0.578125,0.677734 H 8.0078125 v 0.644532 H 8.3125 c 0.58855,0 0.609375,0.644231 0.609375,1.201172 -0.005,0.17393 0.013578,0.368422 0.017578,0.476562 0.0833,0.71164 0.5388438,1 1.496094,1 V 15.408203 C 9.9860369,15.408203 9.829155,15.28989 9.765625,15 9.731925,14.88403 9.728444,14.485582 9.714844,14.294922 c 0,-0.41546 -0.1239663,-1.034716 -0.7226563,-1.291016 C 9.4652575,12.801336 9.6362631,12.37562 9.6894531,12 c 0.0239,-0.10411 0.018591,-0.222304 0.025391,-0.302734 0,-0.86631 0.010393,-1.105469 0.7207029,-1.105469 z"
       id="path337" />
    <polygon
       fill="#536076"
       fill-rule="nonzero"
       points="10.008,5 12.008,8 14.006,5 "
       id="polygon339" />
  </g>
</svg>
