<?xml version="1.0" encoding="UTF-8" standalone="no"?>
<svg
   width="16"
   height="14"
   fill="currentColor"
   class="bi bi-gpu-card"
   viewBox="0 0 16 14"
   version="1.1"
   id="svg8"
   xmlns="http://www.w3.org/2000/svg"
   xmlns:svg="http://www.w3.org/2000/svg">
  <defs
     id="defs12" />
  <path
     d="M 4,7 A 1.5,1.5 0 1 1 7,7 1.5,1.5 0 0 1 4,7 Z m 7.5,-1.5 a 1.5,1.5 0 1 0 0,3 1.5,1.5 0 0 0 0,-3 z"
     id="path2" />
  <path
     d="M 0,0.5 A 0.5,0.5 0 0 1 0.5,0 h 1 A 0.5,0.5 0 0 1 2,0.5 V 3 H 15.5 A 0.5,0.5 0 0 1 16,3.5 v 7 A 0.5,0.5 0 0 1 15.5,11 H 2 v 2.5 a 0.5,0.5 0 0 1 -1,0 V 1 H 0.5 A 0.5,0.5 0 0 1 0,0.5 Z m 5.5,4 a 2.5,2.5 0 1 0 0,5 2.5,2.5 0 0 0 0,-5 z M 9,7 a 2.5,2.5 0 1 0 5,0 2.5,2.5 0 0 0 -5,0 z"
     id="path4" />
  <path
     d="m 3,11.5 h 3.5 v 1 A 0.5,0.5 0 0 1 6,13 H 3.5 A 0.5,0.5 0 0 1 3,12.5 Z m 4,1 v -1 h 4 v 1 A 0.5,0.5 0 0 1 10.5,13 h -3 A 0.5,0.5 0 0 1 7,12.5 Z"
     id="path6" />
</svg>
