<?xml version="1.0" encoding="UTF-8" standalone="no"?>
<svg
   version="1.1"
   x="0px"
   y="0px"
   viewBox="0 0 100.09375 66.40625"
   id="svg8"
   width="100.09375"
   height="66.40625"
   xmlns="http://www.w3.org/2000/svg"
   xmlns:svg="http://www.w3.org/2000/svg">
  <defs
     id="defs12" />
  <g
     transform="translate(-0.4375,-968.15625)"
     id="g6">
    <path
       style="color:#000000;text-indent:0;text-transform:none;direction:ltr;baseline-shift:baseline;enable-background:accumulate"
       d="m 0.4375,968.15625 v 63.96875 2.4375 h 2.4375 97.65625 v -4.9063 H 5.34375 v -61.49995 z"
       fill="#000000"
       fill-opacity="1"
       stroke="none"
       marker="none"
       visibility="visible"
       display="inline"
       overflow="visible"
       id="path2" />
    <path
       style="color:#000000;text-indent:0;text-transform:none;direction:ltr;baseline-shift:baseline;enable-background:accumulate"
       d="m 11.78125,969.1875 -0.0625,6 c 8.569935,0.0753 17.50799,-0.40802 24.09375,3.15625 6.951914,4.84571 10.011408,13.22705 14.53125,21.375 l 0.03125,0.0625 0.03125,0.0625 c 4.204972,6.69975 7.239189,16.16595 15.875,21.93745 l 0.21875,0.1563 0.25,0.125 c 8.854303,3.8648 17.908629,3.2392 26.46875,3.125 l -0.09375,-6 c -8.625733,0.115 -16.537422,0.4831 -23.6875,-2.5313 -6.374014,-4.3768 -9.18167,-12.3647 -13.84375,-19.8437 -0.02751,-0.0496 -0.06632,-0.10648 -0.09375,-0.15625 -4.158406,-7.54497 -7.485587,-17.22532 -16.40625,-23.34375 l -0.125,-0.0937 -0.125,-0.0625 c -8.690569,-4.78997 -18.806248,-3.89616 -27.0625,-3.96875 z"
       fill="#000000"
       fill-opacity="1"
       stroke="none"
       marker="none"
       visibility="visible"
       display="inline"
       overflow="visible"
       id="path4" />
  </g>
</svg>
