<?xml version="1.0" encoding="UTF-8" standalone="no"?>
<svg
   width="40.006001"
   height="40"
   version="1.1"
   id="svg29"
   xmlns="http://www.w3.org/2000/svg"
   xmlns:svg="http://www.w3.org/2000/svg">
  <defs
     id="defs17">
    <linearGradient
       id="a"
       y1="547.63397"
       y2="499.67899"
       x2="388.86499"
       gradientUnits="userSpaceOnUse"
       gradientTransform="translate(-388.57,-503.8)"
       x1="428.81601">
      <stop
         stop-color="#2a2c2f"
         id="stop2" />
      <stop
         offset="1"
         stop-color="#536161"
         id="stop4" />
    </linearGradient>
    <linearGradient
       id="b"
       y1="44"
       y2="12"
       x2="14"
       gradientUnits="userSpaceOnUse"
       x1="36"
       gradientTransform="translate(-4,-4)">
      <stop
         stop-color="#536161"
         style="stop-color:#bfc9c9;stop-opacity:1"
         id="stop7" />
      <stop
         offset="1"
         stop-color="#f4f5f5"
         style="stop-color:#fbfbfb;stop-opacity:1"
         id="stop9" />
    </linearGradient>
    <linearGradient
       id="c"
       y1="527.01398"
       x1="406.50101"
       y2="539.82501"
       x2="419.974"
       gradientUnits="userSpaceOnUse"
       gradientTransform="translate(-388.57,-503.8)">
      <stop
         stop-color="#292c2f"
         id="stop12" />
      <stop
         offset="1"
         stop-opacity="0"
         id="stop14" />
    </linearGradient>
  </defs>
  <rect
     style="fill:url(#a)"
     height="40"
     rx="1"
     y="0"
     x="0"
     width="40"
     ry="1"
     id="rect19" />
  <path
     style="opacity:0.3;fill:#000000;fill-opacity:1"
     d="m 0,38 v 1 c 0,0.554007 0.4459958,1 1,1 h 38 c 0.554004,0 1,-0.445993 1,-1 v -1 c 0,0.554007 -0.445996,1 -1,1 H 1 C 0.4459958,39 0,38.554007 0,38 Z"
     id="path21" />
  <path
     style="fill:url(#b);stroke:none;stroke-width:0.2;stroke-miterlimit:4;stroke-dasharray:none;stroke-opacity:1"
     d="M 16.414,10 15,11.414 23.586,20 15,28.586 16.414,30 26.414,20 25,18.586 Z"
     id="path23" />
  <path
     d="m 16.42,30 9.586,9.586 h 14 v -6 L 26.42,20 Z"
     style="opacity:0.4;fill:url(#c);fill-rule:evenodd"
     id="path25" />
  <path
     d="M 0,2 V 1 C 0,0.445993 0.445996,0 1,0 h 38 c 0.554004,0 1,0.445993 1,1 V 2 C 40,1.445993 39.554004,1 39,1 H 1 C 0.445996,1 0,1.445993 0,2 Z"
     style="opacity:0.3;fill:#ffffff;fill-opacity:1"
     id="path27" />
</svg>
