<?xml version="1.0" encoding="UTF-8" standalone="no"?>
<svg xmlns="http://www.w3.org/2000/svg" xmlns:xlink="http://www.w3.org/1999/xlink" width="822" height="854" viewBox="-70 5 850 840">
  <defs>
    <linearGradient id="e">
      <stop offset="0" stop-color="#eeeeec"/>
      <stop offset="1" stop-color="#eeeeec" stop-opacity="0"/>
    </linearGradient>
    <linearGradient id="d">
      <stop offset="0" stop-opacity="0"/>
      <stop offset=".5"/>
      <stop offset="1" stop-opacity="0"/>
    </linearGradient>
    <linearGradient id="k">
      <stop offset="0"/>
      <stop offset="1" stop-opacity="0"/>
    </linearGradient>
    <linearGradient xlink:href="#a" id="m" x1="8.9156475" x2="9.8855033" y1="37.197018" y2="52.090678" gradientTransform="matrix(53.89587 0 0 16.73015 -617.06384 -215.31424)" gradientUnits="userSpaceOnUse"/>
    <linearGradient xlink:href="#b" id="r" x1="19.667364" x2="20.329933" y1="4.2570662" y2="5.2845874" gradientUnits="userSpaceOnUse"/>
    <linearGradient xlink:href="#c" id="p" x1="6.342216" x2="22.218424" y1="7.7893324" y2="25.884274" gradientUnits="userSpaceOnUse"/>
    <linearGradient id="j">
      <stop offset="0"/>
      <stop offset="1" stop-opacity="0"/>
    </linearGradient>
    <linearGradient id="a">
      <stop offset="0" stop-color="#9aa29a"/>
      <stop offset="1" stop-color="#b5beb5"/>
    </linearGradient>
    <linearGradient id="i">
      <stop offset="0" stop-color="#888a85"/>
      <stop offset="1" stop-color="#2e3436"/>
    </linearGradient>
    <linearGradient id="h">
      <stop offset="0" stop-color="#fff"/>
      <stop offset="1" stop-color="#babdb6"/>
    </linearGradient>
    <linearGradient id="c">
      <stop offset="0" stop-color="#555753"/>
      <stop offset="1" stop-color="#fff"/>
    </linearGradient>
    <linearGradient id="g">
      <stop offset="0" stop-color="#c4a000"/>
      <stop offset="1" stop-color="#c4a000" stop-opacity="0"/>
    </linearGradient>
    <linearGradient id="b">
      <stop offset="0" stop-color="#c4a000"/>
      <stop offset="1" stop-color="#c4a000" stop-opacity="0"/>
    </linearGradient>
    <linearGradient id="f">
      <stop offset="0" stop-color="#eeeeec"/>
      <stop offset=".5" stop-color="#555753"/>
      <stop offset="1" stop-color="#888a85"/>
    </linearGradient>
    <linearGradient xlink:href="#d" id="t" x1="302.85715" x2="302.85715" y1="366.64789" y2="609.50507" gradientTransform="matrix(2.77439 0 0 1.9697 -1892.179 -872.8854)" gradientUnits="userSpaceOnUse"/>
    <linearGradient xlink:href="#e" id="w" x1="244.21428" x2="644" y1="304.50504" y2="767.36218" gradientTransform="translate(1237.1672 -622.55043) scale(1.0417)" gradientUnits="userSpaceOnUse"/>
    <radialGradient xlink:href="#f" id="s" cx="11.3292" cy="10.58397" r="15.532059" fx="11.3292" fy="10.58397" gradientUnits="userSpaceOnUse"/>
    <radialGradient xlink:href="#g" id="q" cx="23.375" cy="10.972863" r="3.3478092" fx="23.375" fy="10.972863" gradientTransform="matrix(3.63042 0 0 3.74207 -61.48607 -29.18618)" gradientUnits="userSpaceOnUse"/>
    <radialGradient xlink:href="#h" id="o" cx="11.901996" cy="10.045444" r="29.292715" fx="11.901996" fy="10.045444" gradientUnits="userSpaceOnUse"/>
    <radialGradient xlink:href="#i" id="n" cx="8.7468252" cy="6.8283234" r="29.889715" fx="8.7468252" fy="6.8283234" gradientUnits="userSpaceOnUse"/>
    <radialGradient xlink:href="#j" id="l" cx="31.112698" cy="19.008621" r="8.6620579" fx="31.112698" fy="19.008621" gradientUnits="userSpaceOnUse"/>
    <radialGradient xlink:href="#k" id="u" cx="605.71429" cy="486.64789" r="117.14286" fx="605.71429" fy="486.64789" gradientTransform="matrix(2.77439 0 0 1.9697 -1891.633 -872.8854)" gradientUnits="userSpaceOnUse"/>
    <radialGradient xlink:href="#k" id="v" cx="605.71429" cy="486.64789" r="117.14286" fx="605.71429" fy="486.64789" gradientTransform="matrix(-2.77439 0 0 1.9697 112.7623 -872.8854)" gradientUnits="userSpaceOnUse"/>
  </defs>
  <path fill="none" d="M-52.794028 39.694276h850v850h-850z"/>
  <path fill="url(#l)" fill-rule="evenodd" d="M39.774755 19.008621c0 4.783923-3.878135 8.662058-8.662057 8.662058-4.783923 0-8.662058-3.878135-8.662058-8.662058 0-4.783922 3.878135-8.662058 8.662058-8.662058 4.783922 0 8.662057 3.878136 8.662057 8.662058z" overflow="visible" style="marker:none" transform="matrix(44.22236 0 0 21.04189 -1020.717783 288.855036)"/>
  <path fill="url(#m)" fill-rule="evenodd" d="M253.7881 146.97707 6.0196117 434.98146l21.7166193 21.44868L253.7881 146.97707z" overflow="visible" style="marker:none" transform="translate(12.085817 -76.161404)"/>
  <path fill="#fefefe" fill-rule="evenodd" d="m263.796477 69.264096-220.953415 306.3941 31.56502 27.86889 189.388395-334.26299z"/>
  <path fill="url(#n)" fill-rule="evenodd" stroke="#2e3436" stroke-linecap="round" stroke-linejoin="round" stroke-width=".69855404" d="M31.160714 16.910715c0 8.23496-6.675754 14.910714-14.910714 14.910714-8.23496 0-14.9107141-6.675754-14.9107141-14.910714C1.3392859 8.6757551 8.01504 2.000001 16.25 2.000001c8.23496 0 14.910714 6.6757541 14.910714 14.910714z" transform="translate(-44.994246 18.049719) scale(24.69828)"/>
  <path fill="url(#o)" fill-rule="evenodd" stroke="url(#p)" stroke-linecap="round" stroke-linejoin="round" stroke-width=".71139598" d="M31.160714 16.910715c0 8.23496-6.675754 14.910714-14.910714 14.910714-8.23496 0-14.9107141-6.675754-14.9107141-14.910714C1.3392859 8.6757551 8.01504 2.000001 16.25 2.000001c8.23496 0 14.910714 6.6757541 14.910714 14.910714z" transform="translate(28.423458 94.518286) scale(20.07979)"/>
  <path fill="url(#q)" fill-rule="evenodd" stroke="url(#r)" stroke-width=".56498736" d="M16.679382 6.6387137c1.601839-2.0482657 4.053094-3.2506655 6.653309-3.2636084L23.375 11.875z" overflow="visible" style="marker:none" transform="translate(-348.539693 74.387226) scale(30.5371)"/>
  <path fill="#f3f3f3" fill-rule="evenodd" stroke="#000" stroke-linecap="round" stroke-linejoin="round" stroke-width="17.25307783" d="M405.92034637 438.10913187c0 24.07716163-19.5183985 43.59556013-43.59556012 43.59556013-24.07716163 0-43.59556013-19.5183985-43.59556013-43.59556013 0-24.07716162 19.5183985-43.59556012 43.59556013-43.59556012 24.07716163 0 43.59556012 19.5183985 43.59556012 43.59556012z"/>
  <path fill="none" stroke="#000" stroke-linecap="round" stroke-width="17.25307655" d="m327.795727 404.046406-155.63862-130.73915"/>
  <path fill="none" stroke="#000" stroke-linecap="round" stroke-width="34.50615311" d="m280.039217 560.333226 51.06979-77.52291"/>
  <path fill="#babdb6" fill-rule="evenodd" d="M382.23243784 197.44102308c0 16.20971279-13.1405821 29.35027591-29.35025693 29.35027591-16.20972228 0-29.35030437-13.14056312-29.35030437-29.3502759 0-16.2097128 13.1405821-29.35027592 29.35030437-29.35027592 16.20967484 0 29.35025693 13.14056312 29.35025693 29.35027591zm0 469.604751c0 16.20971279-13.1405821 29.35027591-29.35025693 29.35027591-16.20972228 0-29.35030437-13.14056312-29.35030437-29.3502759 0-16.2097128 13.1405821-29.35027592 29.35030437-29.35027592 16.20967484 0 29.35025693 13.14056312 29.35025693 29.35027591zm-234.80246-234.80281c0 16.20971279-13.1405821 29.35027591-29.35025693 29.35027591-16.20972228 0-29.35030437-13.14056312-29.35030437-29.3502759 0-16.2097128 13.1405821-29.35027592 29.35030437-29.35027592 16.20967484 0 29.35025693 13.14056312 29.35025693 29.35027591zm469.6044 0c0 16.20971279-13.1405821 29.35027591-29.35025693 29.35027591-16.20972228 0-29.35030437-13.14056312-29.35030437-29.3502759 0-16.2097128 13.1405821-29.35027592 29.35030437-29.35027592 16.20967484 0 29.35025693 13.14056312 29.35025693 29.35027591z"/>
  <path fill="none" stroke="url(#s)" stroke-linecap="round" stroke-linejoin="round" stroke-width=".73656511" d="M31.160714 16.910715c0 8.23496-6.675754 14.910714-14.910714 14.910714-8.23496 0-14.9107141-6.675754-14.9107141-14.910714C1.3392859 8.6757551 8.01504 2.000001 16.25 2.000001c8.23496 0 14.910714 6.6757541 14.910714 14.910714z" transform="translate(-24.282964 38.078466) scale(23.4237)"/>
  <path fill="url(#t)" d="M-1559.2523-150.69685h1339.6335v478.35718h-1339.6335z" opacity=".40206185" overflow="visible" style="marker:none" transform="matrix(.28514 0 0 .16085 752.35010188 825.27322178)"/>
  <path fill="url(#u)" d="M-219.61876-150.68038v478.33079c142.874166.90045 345.40022-107.16966 345.40014-239.196175 0-132.026537-159.436816-239.134595-345.40014-239.134615z" opacity=".40206185" overflow="visible" style="marker:none" transform="matrix(.28514 0 0 .16085 752.35010188 825.27322178)"/>
  <path fill="url(#v)" d="M-1559.2523-150.68038v478.33079c-142.8742.90045-345.4002-107.16966-345.4002-239.196175 0-132.026537 159.4368-239.134595 345.4002-239.134615z" opacity=".40206185" overflow="visible" style="marker:none" transform="matrix(.28514 0 0 .16085 752.35010188 825.27322178)"/>
  <path fill="#c00" stroke="#a40000" stroke-linejoin="round" stroke-width="21.04671024" d="M246.86173813 803.36531554 498.9910922 405.33745705 751.12044625 801.9283943l-504.25870812 1.43692125z"/>
  <path fill="url(#w)" stroke="#eeeeec" stroke-width="17.70878983" d="M1620.8359-325.96076c-91.7654 144.5892-183.0687 289.4717-275.0396 433.93043 184.456-.46995 368.9111-1.30106 553.3671-1.79041-92.1669-144.98364-184.3772-289.93964-276.5696-434.90702-.586.92233-1.1719 1.84466-1.7579 2.767z" opacity=".18518521" transform="translate(-797.78906 699.43627) scale(.7992)"/>
  <path fill="none" stroke="#eeeeec" stroke-width="14.08205558" d="M497.5964009 439.7890495c-72.9723812 114.9781639-145.57728828 230.18956757-218.71310673 345.0639708 146.68050979-.37369992 293.3603003-1.03460985 440.04073016-1.42374238-73.29158336-115.2918196-146.61777226-230.56166108-219.92973532-345.84055755-.46593607.73344571-.93187213 1.46688342-1.39788812 2.20032913z" opacity=".18518521"/>
  <path fill="#eeeeec" d="M497.64243505 493.3757091C442.7403812 580.00489218 387.9423038 666.70002558 332.98134858 753.29190979c110.61418114-.6763106 221.23060004-.91349843 331.84462134-1.6233836-55.29150609-86.79680016-110.56566944-173.60471726-165.83487773-260.41570331-.44955238.7076314-.89910476 1.41525483-1.34865714 2.12288624z"/>
  <g stroke="#000">
    <path d="M-148.49242 217.97618h73.741132c-3.695383 57.24198-1.719001 114.48395-15.152288 171.72593h-44.446714c-13.09475-57.24198-10.78639-114.48395-14.14213-171.72593z" transform="matrix(.62404 0 0 .71154 568.82371964 393.99262513)"/>
    <path fill-rule="evenodd" d="M-72.730984 453.8468c0 19.80516-16.055255 35.86042-35.860416 35.86042-19.80516 0-35.86042-16.05526-35.86042-35.86042 0-19.80516 16.05526-35.86041 35.86042-35.86041 19.805161 0 35.860416 16.05525 35.860416 35.86041z" transform="matrix(.62404 0 0 .71154 566.94527553 383.95880838)"/>
  </g>
  <path fill="#fff" stroke="#000" stroke-width=".7992" d="M477.86924328 550.97595637c-.13986074 41.56643618 1.00116314 55.53391272 4.2814969 95.04821621-1.7551324-38.39541757-2.47489574-50.139452-.85634733-91.90848645 12.93695863-.43523064 24.8726742-.32443695 37.10593351-.85629139-13.06451163-1.6528023-25.99491678-3.57380954-40.53108308-2.28343837zm32.53904078 137.86272968s-8.58848842-7.37142825-19.69463-3.71058536c-11.1062215 3.6608349-11.13962824 27.60404257-10.56092445 27.68671226 0 0 .86473897-17.1790148 11.41719186-23.69069111 10.5524529-6.5116763 18.8383626-.2854358 18.8383626-.2854358z" opacity=".27000002"/>
</svg>