<?xml version="1.0" encoding="UTF-8" standalone="no"?><svg xmlns="http://www.w3.org/2000/svg" xmlns:xlink="http://www.w3.org/1999/xlink" contentScriptType="application/ecmascript" contentStyleType="text/css" height="1008px" preserveAspectRatio="none" style="width:1945px;height:1008px;background:#000000;" version="1.1" viewBox="0 0 1945 1008" width="1945px" zoomAndPan="magnify"><defs><filter height="300%" id="frumfvrj9z2vk" width="300%" x="-1" y="-1"><feGaussianBlur result="blurOut" stdDeviation="2.0"/><feColorMatrix in="blurOut" result="blurOut2" type="matrix" values="0 0 0 0 0 0 0 0 0 0 0 0 0 0 0 0 0 0 .4 0"/><feOffset dx="4.0" dy="4.0" in="blurOut2" result="blurOut3"/><feBlend in="SourceGraphic" in2="blurOut3" mode="normal"/></filter></defs><g><text fill="#FFFFFF" font-family="Monospace" font-size="18" lengthAdjust="spacingAndGlyphs" textLength="199" x="879" y="19.2419">OmniOpt2 Architecture</text><!--MD5=[3fc59b17a2df0e8aa43d25b99d46893c]
cluster User Interface--><polygon fill="#1E1E1E" filter="url(#frumfvrj9z2vk)" points="808,48.5158,912,48.5158,919,73.5838,972,73.5838,972,235.5158,808,235.5158,808,48.5158" style="stroke: #FFFFFF; stroke-width: 1.5;"/><line style="stroke: #FFFFFF; stroke-width: 1.5;" x1="808" x2="919" y1="73.5838" y2="73.5838"/><text fill="#FFFFFF" font-family="Monospace" font-size="14" font-weight="bold" lengthAdjust="spacingAndGlyphs" textLength="98" x="812" y="65.4818">User Interface</text><!--MD5=[d0083cf0b2d9f17e335f85bf9624e57e]
cluster User--><polygon fill="#1E1E1E" filter="url(#frumfvrj9z2vk)" points="832,104.5158,842,94.5158,948,94.5158,948,201.5158,938,211.5158,832,211.5158,832,104.5158" style="stroke: #FFFFFF; stroke-width: 1.5;"/><line style="stroke: #FFFFFF; stroke-width: 1.5;" x1="938" x2="947" y1="104.5158" y2="95.5158"/><line style="stroke: #FFFFFF; stroke-width: 1.5;" x1="832" x2="938" y1="104.5158" y2="104.5158"/><line style="stroke: #FFFFFF; stroke-width: 1.5;" x1="938" x2="938" y1="104.5158" y2="211.5158"/><text fill="#FFFFFF" font-family="Monospace" font-size="14" font-weight="bold" lengthAdjust="spacingAndGlyphs" textLength="32" x="870" y="122.4818">User</text><!--MD5=[068ab849e982e95724e818cf5ecc07ce]
cluster Local Mode--><polygon fill="#1E1E1E" filter="url(#frumfvrj9z2vk)" points="1112,631.5158,1197,631.5158,1204,656.5838,1923,656.5838,1923,964.5158,1112,964.5158,1112,631.5158" style="stroke: #FFFFFF; stroke-width: 1.5;"/><line style="stroke: #FFFFFF; stroke-width: 1.5;" x1="1112" x2="1204" y1="656.5838" y2="656.5838"/><text fill="#FFFFFF" font-family="Monospace" font-size="14" font-weight="bold" lengthAdjust="spacingAndGlyphs" textLength="79" x="1116" y="648.4818">Local Mode</text><!--MD5=[494d5f1c0bba01068cf8e38a0ae48f2b]
cluster Local System--><polygon fill="#1E1E1E" filter="url(#frumfvrj9z2vk)" points="1136,687.5158,1146,677.5158,1791,677.5158,1791,930.5158,1781,940.5158,1136,940.5158,1136,687.5158" style="stroke: #FFFFFF; stroke-width: 1.5;"/><line style="stroke: #FFFFFF; stroke-width: 1.5;" x1="1781" x2="1790" y1="687.5158" y2="678.5158"/><line style="stroke: #FFFFFF; stroke-width: 1.5;" x1="1136" x2="1781" y1="687.5158" y2="687.5158"/><line style="stroke: #FFFFFF; stroke-width: 1.5;" x1="1781" x2="1781" y1="687.5158" y2="940.5158"/><text fill="#FFFFFF" font-family="Monospace" font-size="14" font-weight="bold" lengthAdjust="spacingAndGlyphs" textLength="91" x="1414" y="705.4818">Local System</text><!--MD5=[8c9472c44c824e4c2cc3dfcfbb71d530]
cluster HPC Mode (via submitit/sbatch)--><polygon fill="#1E1E1E" filter="url(#frumfvrj9z2vk)" points="22,417.5158,249,417.5158,256,442.5838,916,442.5838,916,988.5158,22,988.5158,22,417.5158" style="stroke: #FFFFFF; stroke-width: 1.5;"/><line style="stroke: #FFFFFF; stroke-width: 1.5;" x1="22" x2="256" y1="442.5838" y2="442.5838"/><text fill="#FFFFFF" font-family="Monospace" font-size="14" font-weight="bold" lengthAdjust="spacingAndGlyphs" textLength="221" x="26" y="434.4818">HPC Mode (via submitit/sbatch)</text><!--MD5=[f47ff5492917336f42ec66f20ec4a271]
cluster HPC--><path d="M65.939,472.6744 C80.023,450.7769 102.7401,453.3761 111.6335,477.7954 C124.0974,454.3959 140.2851,457.4956 154.8806,475.5729 C164.0137,456.1894 185.6058,450.3932 199.6387,469.9396 C218.5972,444.4647 236.583,444.4357 252.9229,472.5437 C263.8464,456.0664 279.2506,455.2623 291.8095,470.5412 C304.0342,447.9192 324.3119,448.8741 338.0729,468.8736 C355.0705,446.5715 369.9404,446.7539 385.3228,470.5299 C397.9535,448.3605 417.462,443.9559 432.7728,467.764 C448.9152,446.4142 469.956,441.5559 484.5352,469.4086 C500.1212,445.812 514.0552,447.6538 530.2794,468.7554 C543.3893,447.1797 563.0348,447.1907 575.9908,468.9178 C594.4556,449.7536 610.5863,451.5768 620.2724,477.5332 C633.3963,456.6465 650.8519,457.6063 663.6137,477.9142 C679.1035,455.4586 699.0222,458.0989 714,478.5158 C717.1547,480.2437 717.4952,482.6348 714.584,484.9161 C738.02,496.3843 740.7053,509.4301 720.7487,527.2214 C745.4615,543.1687 740.2341,562.1545 718.9142,576.384 C739.137,589.1827 741.5878,613.2203 718.1028,625.2939 C738.0065,636.651 743.6324,659.6149 719.5475,672.3232 C741.7658,683.5973 746.0311,706.9678 721.5015,720.1518 C745.3045,732.3268 745.2802,750.6159 723.989,765.2767 C746.7404,781.1518 742.1677,797.5646 719.8322,809.1697 C739.9135,826.1515 741.6201,842.1259 717.3622,856.8088 C743.3994,870.6155 748.3106,891.1418 722.0118,909.5614 C736.4912,930.0804 736.2541,949.9789 707,956.5158 C711.0195,956.0407 713.2783,958.2889 711.975,962.3515 C697.029,986.1909 679.5541,984.281 663.659,963.3764 C649.9668,985.5222 632.2716,986.1508 616.5541,965.6116 C602.8358,989.4048 584.9856,987.4257 569.4064,967.6243 C552.2637,987.0238 538.5821,983.5044 527.4387,961.5378 C514.6434,985.4025 495.7394,992.8219 476.5734,968.2244 C464.5762,986.3856 446.5042,984.7685 436.7001,965.8651 C424.4387,991.901 401.9343,996.3509 385.8781,969.5125 C372.5216,993.6063 353.7536,992.7704 339.4378,970.4729 C322.2732,989.0069 303.1704,987.3506 291.8477,963.8578 C277.3568,983.6752 261.5701,979.369 249.9615,960.7193 C237.9145,983.7487 222.9678,988.129 204.7465,967.0483 C185.5522,988.2985 171.7248,983.0773 158.538,960.6873 C146.8313,982.6521 126.0194,988.9459 110.3784,964.7961 C85.6697,986.3018 64.896,978.9741 54,949.5158 C57.5645,949.6067 59.0596,952.1949 57.728,955.392 C34.9784,939.2279 31.4781,919.9431 56.486,902.6543 C34.836,888.8492 34.1834,871.479 54.5215,855.9093 C34.9285,840.2518 32.3012,824.5402 54.3966,808.7722 C31.6494,798.4299 32.4509,781.1196 49.565,766.2482 C23.096,755.5534 21.9745,735.7499 41.0653,717.1656 C15.0733,699.4119 21.6645,680.7035 45.2946,667.1454 C24.8157,650.7261 25.5014,635.8508 47.4724,621.4548 C29.9372,606.7935 32.1006,586.5672 55.2604,579.4513 C29.8854,567.0367 32.2204,543.3679 52.9148,528.819 C24.4205,507.5326 35.0038,485.1139 61,471.5158 C63.0329,469.6658 64.9717,469.9815 65.939,472.6744 " fill="#1E1E1E" style="stroke: #FFFFFF; stroke-width: 1.5;"/><text fill="#FFFFFF" font-family="Monospace" font-size="14" font-weight="bold" lengthAdjust="spacingAndGlyphs" textLength="29" x="369.5" y="491.4818">HPC</text><!--MD5=[4f140ef10277af62a9bbfeabfb64c237]
cluster Head Node--><polygon fill="#1E1E1E" filter="url(#frumfvrj9z2vk)" points="475,687.5158,485,677.5158,633,677.5158,633,784.5158,623,794.5158,475,794.5158,475,687.5158" style="stroke: #FFFFFF; stroke-width: 1.5;"/><line style="stroke: #FFFFFF; stroke-width: 1.5;" x1="623" x2="632" y1="687.5158" y2="678.5158"/><line style="stroke: #FFFFFF; stroke-width: 1.5;" x1="475" x2="623" y1="687.5158" y2="687.5158"/><line style="stroke: #FFFFFF; stroke-width: 1.5;" x1="623" x2="623" y1="687.5158" y2="794.5158"/><text fill="#FFFFFF" font-family="Monospace" font-size="14" font-weight="bold" lengthAdjust="spacingAndGlyphs" textLength="77" x="511.5" y="705.4818">Head Node</text><!--MD5=[7018e2f8ec6c3126037d80ab91f6880d]
cluster Compute Node 1--><polygon fill="#1E1E1E" filter="url(#frumfvrj9z2vk)" points="70,852.5158,80,842.5158,263,842.5158,263,930.5158,253,940.5158,70,940.5158,70,852.5158" style="stroke: #FFFFFF; stroke-width: 1.5;"/><line style="stroke: #FFFFFF; stroke-width: 1.5;" x1="253" x2="262" y1="852.5158" y2="843.5158"/><line style="stroke: #FFFFFF; stroke-width: 1.5;" x1="70" x2="253" y1="852.5158" y2="852.5158"/><line style="stroke: #FFFFFF; stroke-width: 1.5;" x1="253" x2="253" y1="852.5158" y2="940.5158"/><text fill="#FFFFFF" font-family="Monospace" font-size="14" font-weight="bold" lengthAdjust="spacingAndGlyphs" textLength="117" x="104" y="870.4818">Compute Node 1</text><!--MD5=[87367e987a291b585b0318bcf694b76e]
cluster Compute Node 2--><polygon fill="#1E1E1E" filter="url(#frumfvrj9z2vk)" points="287,852.5158,297,842.5158,480,842.5158,480,930.5158,470,940.5158,287,940.5158,287,852.5158" style="stroke: #FFFFFF; stroke-width: 1.5;"/><line style="stroke: #FFFFFF; stroke-width: 1.5;" x1="470" x2="479" y1="852.5158" y2="843.5158"/><line style="stroke: #FFFFFF; stroke-width: 1.5;" x1="287" x2="470" y1="852.5158" y2="852.5158"/><line style="stroke: #FFFFFF; stroke-width: 1.5;" x1="470" x2="470" y1="852.5158" y2="940.5158"/><text fill="#FFFFFF" font-family="Monospace" font-size="14" font-weight="bold" lengthAdjust="spacingAndGlyphs" textLength="117" x="321" y="870.4818">Compute Node 2</text><!--MD5=[611865159834dcb625bf3423a333d68b]
cluster Compute Node n--><polygon fill="#1E1E1E" filter="url(#frumfvrj9z2vk)" points="504,852.5158,514,842.5158,698,842.5158,698,930.5158,688,940.5158,504,940.5158,504,852.5158" style="stroke: #FFFFFF; stroke-width: 1.5;"/><line style="stroke: #FFFFFF; stroke-width: 1.5;" x1="688" x2="697" y1="852.5158" y2="843.5158"/><line style="stroke: #FFFFFF; stroke-width: 1.5;" x1="504" x2="688" y1="852.5158" y2="852.5158"/><line style="stroke: #FFFFFF; stroke-width: 1.5;" x1="688" x2="688" y1="852.5158" y2="940.5158"/><text fill="#FFFFFF" font-family="Monospace" font-size="14" font-weight="bold" lengthAdjust="spacingAndGlyphs" textLength="118" x="538" y="870.4818">Compute Node n</text><!--MD5=[beb5ad5244d3d849df9473931f7c2e5e]
entity GUI--><rect fill="#1E1E1E" filter="url(#frumfvrj9z2vk)" height="58.1358" style="stroke: #FFFFFF; stroke-width: 1.5;" width="83" x="848.5" y="137.5158"/><rect fill="#1E1E1E" height="5" style="stroke: #FFFFFF; stroke-width: 1.5;" width="10" x="843.5" y="142.5158"/><rect fill="#1E1E1E" height="5" style="stroke: #FFFFFF; stroke-width: 1.5;" width="10" x="843.5" y="185.6517"/><text fill="#FFFFFF" font-family="Monospace" font-size="14" lengthAdjust="spacingAndGlyphs" textLength="59" x="858.5" y="162.4818">Web GUI</text><text fill="#FFFFFF" font-family="Monospace" font-size="14" lengthAdjust="spacingAndGlyphs" textLength="63" x="858.5" y="181.5497">(optional)</text><!--MD5=[feac20ec967ba8193586f5464e6c98c7]
entity LocalRuns--><path d="M1807.5,891.0158 C1807.5,881.0158 1857,881.0158 1857,881.0158 C1857,881.0158 1906.5,881.0158 1906.5,891.0158 L1906.5,919.0838 C1906.5,929.0838 1857,929.0838 1857,929.0838 C1857,929.0838 1807.5,929.0838 1807.5,919.0838 L1807.5,891.0158 " fill="#003366" filter="url(#frumfvrj9z2vk)" style="stroke: #FFFFFF; stroke-width: 1.5;"/><path d="M1807.5,891.0158 C1807.5,901.0158 1857,901.0158 1857,901.0158 C1857,901.0158 1906.5,901.0158 1906.5,891.0158 " fill="none" style="stroke: #FFFFFF; stroke-width: 1.5;"/><text fill="#FFFFFF" font-family="Monospace" font-size="14" lengthAdjust="spacingAndGlyphs" textLength="79" x="1817.5" y="919.9818">runs/ (local)</text><!--MD5=[119bd4be733b4c7d33357554b14c3254]
entity LocalCore--><rect fill="#1E1E1E" filter="url(#frumfvrj9z2vk)" height="58.1358" style="stroke: #FFFFFF; stroke-width: 1.5;" width="125" x="1333.5" y="720.5158"/><rect fill="#1E1E1E" height="5" style="stroke: #FFFFFF; stroke-width: 1.5;" width="10" x="1328.5" y="725.5158"/><rect fill="#1E1E1E" height="5" style="stroke: #FFFFFF; stroke-width: 1.5;" width="10" x="1328.5" y="768.6517"/><text fill="#FFFFFF" font-family="Monospace" font-size="14" lengthAdjust="spacingAndGlyphs" textLength="105" x="1343.5" y="745.4818">OmniOpt2 Core</text><text fill="#FFFFFF" font-family="Monospace" font-size="14" lengthAdjust="spacingAndGlyphs" textLength="84" x="1343.5" y="764.5497">(main script)</text><!--MD5=[d2fc6cf2bce407d526ef15191755a4fd]
entity LocalJobs1--><rect fill="#FF8C00" filter="url(#frumfvrj9z2vk)" height="39.0679" style="stroke: #FFFFFF; stroke-width: 1.5;" width="62" x="1203" y="885.5158"/><rect fill="#FF8C00" height="5" style="stroke: #FFFFFF; stroke-width: 1.5;" width="10" x="1198" y="890.5158"/><rect fill="#FF8C00" height="5" style="stroke: #FFFFFF; stroke-width: 1.5;" width="10" x="1198" y="914.5838"/><text fill="#FFFFFF" font-family="Monospace" font-size="14" lengthAdjust="spacingAndGlyphs" textLength="42" x="1213" y="910.4818">Job #1</text><!--MD5=[e40594d447fda55db88d25f62754828c]
entity LocalJobs2--><rect fill="#FF8C00" filter="url(#frumfvrj9z2vk)" height="39.0679" style="stroke: #FFFFFF; stroke-width: 1.5;" width="62" x="1412" y="885.5158"/><rect fill="#FF8C00" height="5" style="stroke: #FFFFFF; stroke-width: 1.5;" width="10" x="1407" y="890.5158"/><rect fill="#FF8C00" height="5" style="stroke: #FFFFFF; stroke-width: 1.5;" width="10" x="1407" y="914.5838"/><text fill="#FFFFFF" font-family="Monospace" font-size="14" lengthAdjust="spacingAndGlyphs" textLength="42" x="1422" y="910.4818">Job #2</text><!--MD5=[21263cadb4f481f7ee75bf6952ec9ed8]
entity LocalJobsN--><rect fill="#FF8C00" filter="url(#frumfvrj9z2vk)" height="39.0679" style="stroke: #FFFFFF; stroke-width: 1.5;" width="63" x="1621.5" y="885.5158"/><rect fill="#FF8C00" height="5" style="stroke: #FFFFFF; stroke-width: 1.5;" width="10" x="1616.5" y="890.5158"/><rect fill="#FF8C00" height="5" style="stroke: #FFFFFF; stroke-width: 1.5;" width="10" x="1616.5" y="914.5838"/><text fill="#FFFFFF" font-family="Monospace" font-size="14" lengthAdjust="spacingAndGlyphs" textLength="43" x="1631.5" y="910.4818">Job #n</text><!--MD5=[ad168f425ab565e150e1a97e9229db73]
entity HPCRuns--><path d="M738.5,891.0158 C738.5,881.0158 819,881.0158 819,881.0158 C819,881.0158 899.5,881.0158 899.5,891.0158 L899.5,919.0838 C899.5,929.0838 819,929.0838 819,929.0838 C819,929.0838 738.5,929.0838 738.5,919.0838 L738.5,891.0158 " fill="#003366" filter="url(#frumfvrj9z2vk)" style="stroke: #FFFFFF; stroke-width: 1.5;"/><path d="M738.5,891.0158 C738.5,901.0158 819,901.0158 819,901.0158 C819,901.0158 899.5,901.0158 899.5,891.0158 " fill="none" style="stroke: #FFFFFF; stroke-width: 1.5;"/><text fill="#FFFFFF" font-family="Monospace" font-size="14" lengthAdjust="spacingAndGlyphs" textLength="141" x="748.5" y="919.9818">runs/ (on file system)</text><!--MD5=[1e30e967108d4cd087a1e501a36a7024]
entity LoginNode--><polygon fill="#CC7000" filter="url(#frumfvrj9z2vk)" points="536.5,511.5158,546.5,501.5158,661.5,501.5158,661.5,559.6517,651.5,569.6517,536.5,569.6517,536.5,511.5158" style="stroke: #FFFFFF; stroke-width: 1.5;"/><line style="stroke: #FFFFFF; stroke-width: 1.5;" x1="651.5" x2="660.5" y1="511.5158" y2="502.5158"/><line style="stroke: #FFFFFF; stroke-width: 1.5;" x1="536.5" x2="651.5" y1="511.5158" y2="511.5158"/><line style="stroke: #FFFFFF; stroke-width: 1.5;" x1="651.5" x2="651.5" y1="511.5158" y2="569.6517"/><text fill="#FFFFFF" font-family="Monospace" font-size="14" lengthAdjust="spacingAndGlyphs" textLength="77" x="551.5" y="536.4818">Login Node</text><text fill="#FFFFFF" font-family="Monospace" font-size="14" lengthAdjust="spacingAndGlyphs" textLength="85" x="551.5" y="555.5497">(sbatch only)</text><!--MD5=[0ca049598cf64d5a8f9e0a6c16d5d1d0]
entity HPCMaster--><rect fill="#1E1E1E" filter="url(#frumfvrj9z2vk)" height="58.1358" style="stroke: #FFFFFF; stroke-width: 1.5;" width="125" x="491.5" y="720.5158"/><rect fill="#1E1E1E" height="5" style="stroke: #FFFFFF; stroke-width: 1.5;" width="10" x="486.5" y="725.5158"/><rect fill="#1E1E1E" height="5" style="stroke: #FFFFFF; stroke-width: 1.5;" width="10" x="486.5" y="768.6517"/><text fill="#FFFFFF" font-family="Monospace" font-size="14" lengthAdjust="spacingAndGlyphs" textLength="105" x="501.5" y="745.4818">OmniOpt2 Core</text><text fill="#FFFFFF" font-family="Monospace" font-size="14" lengthAdjust="spacingAndGlyphs" textLength="84" x="501.5" y="764.5497">(main script)</text><!--MD5=[47e052b533fd8425fd8ca2757eeea134]
entity Job1--><rect fill="#FF8C00" filter="url(#frumfvrj9z2vk)" height="39.0679" style="stroke: #FFFFFF; stroke-width: 1.5;" width="62" x="162" y="885.5158"/><rect fill="#FF8C00" height="5" style="stroke: #FFFFFF; stroke-width: 1.5;" width="10" x="157" y="890.5158"/><rect fill="#FF8C00" height="5" style="stroke: #FFFFFF; stroke-width: 1.5;" width="10" x="157" y="914.5838"/><text fill="#FFFFFF" font-family="Monospace" font-size="14" lengthAdjust="spacingAndGlyphs" textLength="42" x="172" y="910.4818">Job #1</text><!--MD5=[ad1ecd006b7d6e2fcd722d0410ebc487]
entity Job2--><rect fill="#FF8C00" filter="url(#frumfvrj9z2vk)" height="39.0679" style="stroke: #FFFFFF; stroke-width: 1.5;" width="62" x="366" y="885.5158"/><rect fill="#FF8C00" height="5" style="stroke: #FFFFFF; stroke-width: 1.5;" width="10" x="361" y="890.5158"/><rect fill="#FF8C00" height="5" style="stroke: #FFFFFF; stroke-width: 1.5;" width="10" x="361" y="914.5838"/><text fill="#FFFFFF" font-family="Monospace" font-size="14" lengthAdjust="spacingAndGlyphs" textLength="42" x="376" y="910.4818">Job #2</text><!--MD5=[0ab1b686e84364c8109e522a8c779fa1]
entity Job3--><rect fill="#FF8C00" filter="url(#frumfvrj9z2vk)" height="39.0679" style="stroke: #FFFFFF; stroke-width: 1.5;" width="63" x="561.5" y="885.5158"/><rect fill="#FF8C00" height="5" style="stroke: #FFFFFF; stroke-width: 1.5;" width="10" x="556.5" y="890.5158"/><rect fill="#FF8C00" height="5" style="stroke: #FFFFFF; stroke-width: 1.5;" width="10" x="556.5" y="914.5838"/><text fill="#FFFFFF" font-family="Monospace" font-size="14" lengthAdjust="spacingAndGlyphs" textLength="43" x="571.5" y="910.4818">Job #n</text><!--MD5=[df6a39b053164d23cc3ecae9c3484a54]
entity CLI--><rect fill="#1E1E1E" filter="url(#frumfvrj9z2vk)" height="58.1358" style="stroke: #FFFFFF; stroke-width: 1.5;" width="114" x="833" y="297.5158"/><rect fill="#1E1E1E" height="5" style="stroke: #FFFFFF; stroke-width: 1.5;" width="10" x="828" y="302.5158"/><rect fill="#1E1E1E" height="5" style="stroke: #FFFFFF; stroke-width: 1.5;" width="10" x="828" y="345.6517"/><text fill="#FFFFFF" font-family="Monospace" font-size="14" lengthAdjust="spacingAndGlyphs" textLength="94" x="843" y="322.4818">CLI Command</text><text fill="#FFFFFF" font-family="Monospace" font-size="14" lengthAdjust="spacingAndGlyphs" textLength="72" x="843" y="341.5497">omniopt ...</text><!--MD5=[6701a3ea7878410edba432ced09d8d77]
entity OmniOpt2Server--><path d="M934.5,881.5158 C934.5,871.5158 1015,871.5158 1015,871.5158 C1015,871.5158 1095.5,871.5158 1095.5,881.5158 L1095.5,928.6517 C1095.5,938.6517 1015,938.6517 1015,938.6517 C1015,938.6517 934.5,938.6517 934.5,928.6517 L934.5,881.5158 " fill="#003366" filter="url(#frumfvrj9z2vk)" style="stroke: #FFFFFF; stroke-width: 1.5;"/><path d="M934.5,881.5158 C934.5,891.5158 1015,891.5158 1015,891.5158 C1015,891.5158 1095.5,891.5158 1095.5,881.5158 " fill="none" style="stroke: #FFFFFF; stroke-width: 1.5;"/><text fill="#FFFFFF" font-family="Monospace" font-size="14" lengthAdjust="spacingAndGlyphs" textLength="117" x="944.5" y="910.4818">OmniOpt2 Server</text><text fill="#FFFFFF" font-family="Monospace" font-size="14" lengthAdjust="spacingAndGlyphs" textLength="141" x="944.5" y="929.5497">(optional, Live-Share)</text><!--MD5=[35c1068cf10654a3a88a78f31c30ad7d]
link GUI to CLI--><path d="M890,195.7658 C890,222.8358 890,263.7058 890,292.3158 " fill="none" id="GUI-&gt;CLI" style="stroke: #FFFFFF; stroke-width: 1.0; stroke-dasharray: 7.0,7.0;"/><polygon fill="#FFFFFF" points="890,297.5158,894,288.5158,890,292.5158,886,288.5158,890,297.5158" style="stroke: #FFFFFF; stroke-width: 1.0;"/><text fill="#FFFFFF" font-family="Monospace" font-size="11" lengthAdjust="spacingAndGlyphs" textLength="210" x="891" y="264.2748">Generates CLI Command to be executed</text><!--MD5=[bb07170366ce939dcc727915865a8aad]
link CLI to LocalCore--><path d="M923.99,355.7958 C1014.9,431.4358 1263.24,638.0558 1358.3,717.1458 " fill="none" id="CLI-&gt;LocalCore" style="stroke: #FFFFFF; stroke-width: 1.0;"/><polygon fill="#FFFFFF" points="1362.16,720.3658,1357.8035,711.5329,1358.3177,717.1663,1352.6843,717.6805,1362.16,720.3658" style="stroke: #FFFFFF; stroke-width: 1.0;"/><text fill="#FFFFFF" font-family="Monospace" font-size="11" lengthAdjust="spacingAndGlyphs" textLength="57" x="1177" y="540.2748">Run locally</text><!--MD5=[c27c3c7b98a2dd3503e29f99b530e9bd]
link LocalCore to LocalJobs1--><path d="M1333.27,759.7958 C1277.5,769.4758 1202.08,786.6058 1184,810.5158 C1167.03,832.9558 1188.14,861.9158 1207.91,881.6258 " fill="none" id="LocalCore-&gt;LocalJobs1" style="stroke: #FFFFFF; stroke-width: 1.0;"/><polygon fill="#FFFFFF" points="1211.83,885.4358,1208.1648,876.2944,1208.2448,881.9507,1202.5885,882.0306,1211.83,885.4358" style="stroke: #FFFFFF; stroke-width: 1.0;"/><text fill="#FFFFFF" font-family="Monospace" font-size="11" lengthAdjust="spacingAndGlyphs" textLength="53" x="1185" y="823.2748">start job 1</text><!--MD5=[4eeaa9e26c347e59d17bf1e1a3b1be70]
link LocalJobs1 to LocalCore--><path d="M1246.18,885.4358 C1259.77,865.5158 1283.16,833.6558 1308,810.5158 C1319.18,800.0958 1332.32,790.1558 1344.98,781.4658 " fill="none" id="LocalJobs1-&gt;LocalCore" style="stroke: #FFFFFF; stroke-width: 1.0;"/><polygon fill="#FFFFFF" points="1349.25,778.5658,1339.5604,780.3299,1345.1186,781.3821,1344.0664,786.9402,1349.25,778.5658" style="stroke: #FFFFFF; stroke-width: 1.0;"/><text fill="#FFFFFF" font-family="Monospace" font-size="11" lengthAdjust="spacingAndGlyphs" textLength="72" x="1309" y="823.2748">return results</text><!--MD5=[cb8031634bd4e903ccabb5225de90d8b]
link LocalCore to LocalJobs2--><path d="M1390.61,778.8458 C1388.91,793.3758 1388.49,811.1858 1393,826.5158 C1399,846.8758 1412.19,866.9258 1423.51,881.5258 " fill="none" id="LocalCore-&gt;LocalJobs2" style="stroke: #FFFFFF; stroke-width: 1.0;"/><polygon fill="#FFFFFF" points="1426.65,885.5058,1424.1981,875.9671,1423.5458,881.5862,1417.9266,880.9339,1426.65,885.5058" style="stroke: #FFFFFF; stroke-width: 1.0;"/><text fill="#FFFFFF" font-family="Monospace" font-size="11" lengthAdjust="spacingAndGlyphs" textLength="53" x="1394" y="823.2748">start job 2</text><!--MD5=[814f6603e38c8b8987a1125c9d474155]
link LocalJobs2 to LocalCore--><path d="M1449.67,885.3958 C1455.51,866.0058 1461.69,835.0958 1452,810.5158 C1448,800.3758 1441.4,790.9358 1434.1,782.6958 " fill="none" id="LocalJobs2-&gt;LocalCore" style="stroke: #FFFFFF; stroke-width: 1.0;"/><polygon fill="#FFFFFF" points="1430.46,778.7358,1433.6027,788.0698,1433.8425,782.4181,1439.4943,782.6578,1430.46,778.7358" style="stroke: #FFFFFF; stroke-width: 1.0;"/><text fill="#FFFFFF" font-family="Monospace" font-size="11" lengthAdjust="spacingAndGlyphs" textLength="72" x="1456" y="823.2748">return results</text><!--MD5=[3d83dad48673b6a0e540888e983ac65e]
link LocalCore to LocalJobsN--><path d="M1458.54,772.8058 C1483.69,782.8658 1512.48,795.8058 1537,810.5158 C1571.6,831.2758 1607.1,861.4458 1629.56,881.8558 " fill="none" id="LocalCore-&gt;LocalJobsN" style="stroke: #FFFFFF; stroke-width: 1.0;"/><polygon fill="#FFFFFF" points="1633.32,885.2958,1629.3616,876.2775,1629.6242,881.9282,1623.9734,882.1908,1633.32,885.2958" style="stroke: #FFFFFF; stroke-width: 1.0;"/><text fill="#FFFFFF" font-family="Monospace" font-size="11" lengthAdjust="spacingAndGlyphs" textLength="54" x="1561" y="823.2748">start job n</text><!--MD5=[0cb1104b4ebfd97325a9a087985e8a2b]
link LocalJobsN to LocalCore--><path d="M1652.39,885.4658 C1650.67,864.3558 1644.62,830.2658 1624,810.5158 C1581.27,769.6058 1514.11,755.7658 1463.73,751.4658 " fill="none" id="LocalJobsN-&gt;LocalCore" style="stroke: #FFFFFF; stroke-width: 1.0;"/><polygon fill="#FFFFFF" points="1458.6,751.0558,1467.2513,755.7628,1463.584,751.4557,1467.8911,747.7884,1458.6,751.0558" style="stroke: #FFFFFF; stroke-width: 1.0;"/><text fill="#FFFFFF" font-family="Monospace" font-size="11" lengthAdjust="spacingAndGlyphs" textLength="72" x="1636" y="823.2748">return results</text><!--MD5=[3a314155df3c86a96c6dc817f2f42b38]
link LocalCore to LocalRuns--><path d="M1458.79,750.7858 C1541.15,753.9058 1687.35,769.1858 1791,834.5158 C1808.63,845.6258 1824.8,862.4958 1836.73,876.8358 " fill="none" id="LocalCore-&gt;LocalRuns" style="stroke: #FFFFFF; stroke-width: 1.0;"/><polygon fill="#FFFFFF" points="1839.98,880.8058,1837.3538,871.3136,1836.8045,876.9437,1831.1743,876.3944,1839.98,880.8058" style="stroke: #FFFFFF; stroke-width: 1.0;"/><text fill="#FFFFFF" font-family="Monospace" font-size="11" lengthAdjust="spacingAndGlyphs" textLength="80" x="1773" y="823.2748">write all results</text><!--MD5=[95ac879643d0f9a162a8988bbb1df057]
link LocalCore to OmniOpt2Server--><path d="M1333.45,754.4658 C1247.08,761.0758 1097.16,777.0958 1055,810.5158 C1037.65,824.2658 1027.7,846.9758 1022.07,866.5658 " fill="none" id="LocalCore-&gt;OmniOpt2Server" style="stroke: #FFFFFF; stroke-width: 1.0; stroke-dasharray: 7.0,7.0;"/><polygon fill="#FFFFFF" points="1020.72,871.4758,1026.949,863.847,1022.0368,866.6524,1019.2314,861.7401,1020.72,871.4758" style="stroke: #FFFFFF; stroke-width: 1.0;"/><text fill="#FFFFFF" font-family="Monospace" font-size="11" lengthAdjust="spacingAndGlyphs" textLength="113" x="1056" y="823.2748">--live_share (optional)</text><!--MD5=[800e0e0bb90fb898e4eff9c9cad77fdf]
link CLI to LoginNode--><path d="M850.45,355.6458 C798.5,392.6058 707.2,457.5458 650.07,498.1858 " fill="none" id="CLI-&gt;LoginNode" style="stroke: #FFFFFF; stroke-width: 1.0;"/><polygon fill="#FFFFFF" points="645.68,501.3058,655.3312,499.3425,649.7525,498.4051,650.6899,492.8264,645.68,501.3058" style="stroke: #FFFFFF; stroke-width: 1.0;"/><text fill="#FFFFFF" font-family="Monospace" font-size="11" lengthAdjust="spacingAndGlyphs" textLength="47" x="805" y="398.2748">ssh login</text><!--MD5=[0c619afe08a0a430c7a3ffb1ff1eec8b]
link LoginNode to HPCMaster--><path d="M591.97,569.6358 C583.55,609.3158 569.52,675.3958 561.08,715.1658 " fill="none" id="LoginNode-&gt;HPCMaster" style="stroke: #FFFFFF; stroke-width: 1.0;"/><polygon fill="#FFFFFF" points="559.98,720.3658,565.7659,712.3957,561.0208,715.4754,557.9411,710.7303,559.98,720.3658" style="stroke: #FFFFFF; stroke-width: 1.0;"/><text fill="#FFFFFF" font-family="Monospace" font-size="11" lengthAdjust="spacingAndGlyphs" textLength="89" x="585" y="612.2748">sbatch command</text><!--MD5=[d73132a875438189b2b3ce4229eb2a32]
link HPCMaster to Job1--><path d="M491.45,750.7658 C392.8,752.6358 208.03,762.6358 167,810.5158 C150.01,830.3458 163.12,860.4258 176.11,881.0858 " fill="none" id="HPCMaster-&gt;Job1" style="stroke: #FFFFFF; stroke-width: 1.0;"/><polygon fill="#FFFFFF" points="178.87,885.3458,177.3212,875.6195,176.1461,881.153,170.6126,879.9778,178.87,885.3458" style="stroke: #FFFFFF; stroke-width: 1.0;"/><text fill="#FFFFFF" font-family="Monospace" font-size="11" lengthAdjust="spacingAndGlyphs" textLength="36" x="168" y="823.2748">submit</text><!--MD5=[0361fc0b2f9e0c1d656e25018cbd835c]
link Job1 to HPCMaster--><path d="M203.3,885.3458 C216.21,863.7958 240.4,828.9558 271,810.5158 C337.11,770.6858 425.83,757.0558 486.2,752.5158 " fill="none" id="Job1-&gt;HPCMaster" style="stroke: #FFFFFF; stroke-width: 1.0;"/><polygon fill="#FFFFFF" points="491.22,752.1558,481.9572,748.8091,486.2328,752.5131,482.5288,756.7887,491.22,752.1558" style="stroke: #FFFFFF; stroke-width: 1.0;"/><text fill="#FFFFFF" font-family="Monospace" font-size="11" lengthAdjust="spacingAndGlyphs" textLength="72" x="272" y="823.2748">return results</text><!--MD5=[76de094807e8008348a742240e8dbe38]
link HPCMaster to Job2--><path d="M491.15,751.4558 C446.41,755.8258 389.09,769.7758 359,810.5158 C342.99,832.1858 359.92,861.5558 376,881.5558 " fill="none" id="HPCMaster-&gt;Job2" style="stroke: #FFFFFF; stroke-width: 1.0;"/><polygon fill="#FFFFFF" points="379.19,885.4258,376.5428,875.9394,376.006,881.5707,370.3746,881.0339,379.19,885.4258" style="stroke: #FFFFFF; stroke-width: 1.0;"/><text fill="#FFFFFF" font-family="Monospace" font-size="11" lengthAdjust="spacingAndGlyphs" textLength="36" x="360" y="823.2748">submit</text><!--MD5=[dac3ded752d84de080905c6c3483a0d1]
link Job2 to HPCMaster--><path d="M408.1,885.3658 C420.56,865.3858 442.17,833.4658 466,810.5158 C476.89,800.0258 489.8,790.1158 502.33,781.4858 " fill="none" id="Job2-&gt;HPCMaster" style="stroke: #FFFFFF; stroke-width: 1.0;"/><polygon fill="#FFFFFF" points="506.56,778.6158,496.8704,780.3799,502.4286,781.4321,501.3764,786.9902,506.56,778.6158" style="stroke: #FFFFFF; stroke-width: 1.0;"/><text fill="#FFFFFF" font-family="Monospace" font-size="11" lengthAdjust="spacingAndGlyphs" textLength="72" x="467" y="823.2748">return results</text><!--MD5=[d49c4ab690e9114edc7d2c3d09ac25fe]
link HPCMaster to Job3--><path d="M549.1,778.7058 C547.53,793.2058 547.07,811.0258 551,826.5158 C555.98,846.1458 567.03,866.1858 576.55,880.9658 " fill="none" id="HPCMaster-&gt;Job3" style="stroke: #FFFFFF; stroke-width: 1.0;"/><polygon fill="#FFFFFF" points="579.44,885.3858,577.8376,875.6682,576.693,881.2081,571.1531,880.0635,579.44,885.3858" style="stroke: #FFFFFF; stroke-width: 1.0;"/><text fill="#FFFFFF" font-family="Monospace" font-size="11" lengthAdjust="spacingAndGlyphs" textLength="36" x="552" y="823.2748">submit</text><!--MD5=[0b084569a1b025af739eee478835d34a]
link Job3 to HPCMaster--><path d="M596.07,885.2958 C598.51,866.0958 600.43,835.5758 593,810.5158 C590.2,801.0658 585.39,791.7158 580.09,783.3058 " fill="none" id="Job3-&gt;HPCMaster" style="stroke: #FFFFFF; stroke-width: 1.0;"/><polygon fill="#FFFFFF" points="577.1,778.7358,578.6639,788.4597,579.8305,782.9245,585.3657,784.091,577.1,778.7358" style="stroke: #FFFFFF; stroke-width: 1.0;"/><text fill="#FFFFFF" font-family="Monospace" font-size="11" lengthAdjust="spacingAndGlyphs" textLength="72" x="597" y="823.2748">return results</text><!--MD5=[571935b6720c67f63951b3fde5967843]
link HPCMaster to HPCRuns--><path d="M616.34,778.6658 C636.33,788.2158 658.37,799.3258 678,810.5158 C714.7,831.4358 754.66,858.3558 782.64,877.9358 " fill="none" id="HPCMaster-&gt;HPCRuns" style="stroke: #FFFFFF; stroke-width: 1.0;"/><polygon fill="#FFFFFF" points="787.02,881.0158,781.9427,872.5766,782.9245,878.1476,777.3535,879.1294,787.02,881.0158" style="stroke: #FFFFFF; stroke-width: 1.0;"/><text fill="#FFFFFF" font-family="Monospace" font-size="11" lengthAdjust="spacingAndGlyphs" textLength="65" x="702" y="823.2748">write results</text><!--MD5=[9b4661392c5508d5bc2f8f38988871a1]
link HPCMaster to OmniOpt2Server--><path d="M616.79,757.0158 C691.12,766.4958 817.25,788.2958 916,834.5158 C935.11,843.4558 954.47,856.0958 970.94,868.1358 " fill="none" id="HPCMaster-&gt;OmniOpt2Server" style="stroke: #FFFFFF; stroke-width: 1.0; stroke-dasharray: 7.0,7.0;"/><polygon fill="#FFFFFF" points="975.07,871.1858,970.216,862.6162,971.0512,868.2111,965.4563,869.0463,975.07,871.1858" style="stroke: #FFFFFF; stroke-width: 1.0;"/><text fill="#FFFFFF" font-family="Monospace" font-size="11" lengthAdjust="spacingAndGlyphs" textLength="113" x="898" y="823.2748">--live_share (optional)</text><!--MD5=[1d9f0367549888f445c1635be8a1fa18]
@startuml

  skinparam backgroundColor #000000
  skinparam defaultFontColor #ffffff
  skinparam titleFontColor #ffffff
  skinparam componentFontColor #ffffff
  skinparam nodeFontColor #ffffff
  skinparam databaseFontColor #ffffff
  skinparam arrowColor #ffffff
  skinparam ArrowFontColor #ffffff

  skinparam componentBackgroundColor #1e1e1e
  skinparam nodeBackgroundColor #CC7000   ' dunkles Orange/Braun
  skinparam databaseBackgroundColor #003366
  skinparam packageBackgroundColor #1e1e1e
  skinparam cloudBackgroundColor #1e1e1e

  skinparam componentBorderColor #ffffff
  skinparam nodeBorderColor #ffffff
  skinparam databaseBorderColor #ffffff
  skinparam packageBorderColor #ffffff
  skinparam cloudBorderColor #ffffff
  skinparam rectangleBorderColor #ffffff

  skinparam componentBackgroundColor #1e1e1e

skinparam componentStyle rectangle
skinparam defaultFontName Monospace
skinparam ArrowFontSize 11

title OmniOpt2 Architecture

package "User Interface" {
  node "User" {
    component "Web GUI\n(optional)" as GUI
  }
}

component "CLI Command\nomniopt ..." as CLI


  GUI ..> CLI : Generates CLI Command to be executed

  database "OmniOpt2 Server\n(optional, Live-Share)" as OmniOpt2Server

  package "Local Mode" {
          database "runs/ (local)" as LocalRuns

          node "Local System" {
                  component "OmniOpt2 Core\n(main script)" as LocalCore

                    component "Job #1" as LocalJobs1 #FF8C00
                    component "Job #2" as LocalJobs2 #FF8C00
                    component "Job #n" as LocalJobsN #FF8C00
          }

          CLI - -> LocalCore : Run locally

                  LocalCore - -> LocalJobs1 : start job 1
                  LocalJobs1 - -> LocalCore : return results

                  LocalCore - -> LocalJobs2 : start job 2
                  LocalJobs2 - -> LocalCore : return results

                  LocalCore - -> LocalJobsN : start job n
                  LocalJobsN - -> LocalCore : return results

                  LocalCore - -> LocalRuns : write all results

                  LocalCore ..> OmniOpt2Server : - -live_share (optional)
  }

  package "HPC Mode (via submitit/sbatch)" {

    cloud "HPC" {

        node "Login Node\n(sbatch only)" as LoginNode #CC7000
        node "Head Node" {
          component "OmniOpt2 Core\n(main script)" as HPCMaster
        }
        node "Compute Node 1" {
          component "Job #1" as Job1 #FF8C00
        }
        node "Compute Node 2" {
          component "Job #2" as Job2 #FF8C00
        }
        node "Compute Node n" {
          component "Job #n" as Job3 #FF8C00
        }

    }

    database "runs/ (on file system)" as HPCRuns

    CLI - -> LoginNode : ssh login
    LoginNode - -> HPCMaster : sbatch command

    HPCMaster - -> Job1 : submit
    HPCMaster - -> Job2 : submit
    HPCMaster - -> Job3 : submit

    Job1 -down-> HPCMaster : return results
    Job2 -down-> HPCMaster : return results
    Job3 -down-> HPCMaster : return results

    HPCMaster - -> HPCRuns : write results
    HPCMaster ..> OmniOpt2Server : - -live_share (optional)
  }

@enduml

PlantUML version 1.2020.02(Sun Mar 01 11:22:07 CET 2020)
(GPL source distribution)
Java Runtime: OpenJDK Runtime Environment
JVM: OpenJDK 64-Bit Server VM
Java Version: 11.0.26+4-post-Debian-1
Operating System: Linux
Default Encoding: UTF-8
Language: de
Country: DE
--></g></svg>