<?xml version="1.0" encoding="UTF-8" standalone="no"?><svg xmlns="http://www.w3.org/2000/svg" xmlns:xlink="http://www.w3.org/1999/xlink" contentScriptType="application/ecmascript" contentStyleType="text/css" height="986px" preserveAspectRatio="none" style="width:1945px;height:986px;background:#000000;" version="1.1" viewBox="0 0 1945 986" width="1945px" zoomAndPan="magnify"><defs><filter height="300%" id="f3udl5wtnwmg8" width="300%" x="-1" y="-1"><feGaussianBlur result="blurOut" stdDeviation="2.0"/><feColorMatrix in="blurOut" result="blurOut2" type="matrix" values="0 0 0 0 0 0 0 0 0 0 0 0 0 0 0 0 0 0 .4 0"/><feOffset dx="4.0" dy="4.0" in="blurOut2" result="blurOut3"/><feBlend in="SourceGraphic" in2="blurOut3" mode="normal"/></filter></defs><g><text fill="#FFFFFF" font-family="Monospace" font-size="18" lengthAdjust="spacingAndGlyphs" textLength="199" x="879" y="19.2419">OmniOpt2 Architecture</text><!--MD5=[3fc59b17a2df0e8aa43d25b99d46893c]
cluster User Interface--><polygon fill="#1E1E1E" filter="url(#f3udl5wtnwmg8)" points="808,48.5158,912,48.5158,919,73.5838,972,73.5838,972,235.5158,808,235.5158,808,48.5158" style="stroke: #FFFFFF; stroke-width: 1.5;"/><line style="stroke: #FFFFFF; stroke-width: 1.5;" x1="808" x2="919" y1="73.5838" y2="73.5838"/><text fill="#FFFFFF" font-family="Monospace" font-size="14" font-weight="bold" lengthAdjust="spacingAndGlyphs" textLength="98" x="812" y="65.4818">User Interface</text><!--MD5=[d0083cf0b2d9f17e335f85bf9624e57e]
cluster User--><polygon fill="#1E1E1E" filter="url(#f3udl5wtnwmg8)" points="832,104.5158,842,94.5158,948,94.5158,948,201.5158,938,211.5158,832,211.5158,832,104.5158" style="stroke: #FFFFFF; stroke-width: 1.5;"/><line style="stroke: #FFFFFF; stroke-width: 1.5;" x1="938" x2="947" y1="104.5158" y2="95.5158"/><line style="stroke: #FFFFFF; stroke-width: 1.5;" x1="832" x2="938" y1="104.5158" y2="104.5158"/><line style="stroke: #FFFFFF; stroke-width: 1.5;" x1="938" x2="938" y1="104.5158" y2="211.5158"/><text fill="#FFFFFF" font-family="Monospace" font-size="14" font-weight="bold" lengthAdjust="spacingAndGlyphs" textLength="32" x="870" y="122.4818">User</text><!--MD5=[068ab849e982e95724e818cf5ecc07ce]
cluster Local Mode--><polygon fill="#1E1E1E" filter="url(#f3udl5wtnwmg8)" points="1112,631.5158,1197,631.5158,1204,656.5838,1923,656.5838,1923,945.5158,1112,945.5158,1112,631.5158" style="stroke: #FFFFFF; stroke-width: 1.5;"/><line style="stroke: #FFFFFF; stroke-width: 1.5;" x1="1112" x2="1204" y1="656.5838" y2="656.5838"/><text fill="#FFFFFF" font-family="Monospace" font-size="14" font-weight="bold" lengthAdjust="spacingAndGlyphs" textLength="79" x="1116" y="648.4818">Local Mode</text><!--MD5=[494d5f1c0bba01068cf8e38a0ae48f2b]
cluster Local System--><polygon fill="#1E1E1E" filter="url(#f3udl5wtnwmg8)" points="1136,687.5158,1146,677.5158,1791,677.5158,1791,911.5158,1781,921.5158,1136,921.5158,1136,687.5158" style="stroke: #FFFFFF; stroke-width: 1.5;"/><line style="stroke: #FFFFFF; stroke-width: 1.5;" x1="1781" x2="1790" y1="687.5158" y2="678.5158"/><line style="stroke: #FFFFFF; stroke-width: 1.5;" x1="1136" x2="1781" y1="687.5158" y2="687.5158"/><line style="stroke: #FFFFFF; stroke-width: 1.5;" x1="1781" x2="1781" y1="687.5158" y2="921.5158"/><text fill="#FFFFFF" font-family="Monospace" font-size="14" font-weight="bold" lengthAdjust="spacingAndGlyphs" textLength="91" x="1414" y="705.4818">Local System</text><!--MD5=[8c9472c44c824e4c2cc3dfcfbb71d530]
cluster HPC Mode (via submitit/sbatch)--><polygon fill="#1E1E1E" filter="url(#f3udl5wtnwmg8)" points="22,417.5158,249,417.5158,256,442.5838,916,442.5838,916,969.5158,22,969.5158,22,417.5158" style="stroke: #FFFFFF; stroke-width: 1.5;"/><line style="stroke: #FFFFFF; stroke-width: 1.5;" x1="22" x2="256" y1="442.5838" y2="442.5838"/><text fill="#FFFFFF" font-family="Monospace" font-size="14" font-weight="bold" lengthAdjust="spacingAndGlyphs" textLength="221" x="26" y="434.4818">HPC Mode (via submitit/sbatch)</text><!--MD5=[f47ff5492917336f42ec66f20ec4a271]
cluster HPC--><path d="M62.6458,477.9474 C78.1632,450.4664 96.991,453.5806 114.4474,475.9318 C124.5979,457.001 142.9606,456.9018 155.3919,473.2875 C167.2574,449.6406 189.1283,449.2294 201.6175,472.6753 C213.8079,450.2419 232.3563,449.2921 246.211,470.9937 C264.9114,452.5458 279.8605,453.2734 295.424,474.8506 C307.0873,453.2885 329.9097,452.4818 343.3107,472.867 C358.1175,455.0684 372.888,453.9053 386.697,474.0093 C399.6329,452.9517 422.8925,454.0585 435.5388,474.3514 C449.6689,450.2381 466.6643,448.9249 483.0876,472.0427 C498.2318,453.5012 518.0795,455.9403 530.08,475.8816 C543.7487,453.022 558.2173,449.8463 574.6111,473.2591 C587.8148,449.371 604.0841,452.4995 618.6014,471.9251 C633.5644,448.7514 656.222,449.042 666.774,476.1511 C680.4825,456.8105 702.4272,455.2047 714,478.5158 C715.0057,477.3087 716.257,477.7546 716.7998,479.0365 C737.0038,490.3749 740.4172,513.4168 719.2012,526.8361 C740.8647,540.8052 742.0757,557.9097 723.0057,575.0904 C746.0285,586.7454 744.8421,604.003 726.3332,618.8184 C744.6725,638.0069 744.4364,652.6568 720.3362,666.5086 C740.5642,675.9839 744.0439,691.6851 725.1881,705.9662 C745.6408,720.0446 751.0686,735.5052 728.2869,752.4648 C747.4855,767.1108 744.5159,784.3971 724.9806,796.1089 C745.73,809.485 751.1678,829.9186 725.3092,843.6171 C746.6183,857.0833 743.1682,877.6243 721.7334,887.6168 C743.3447,912.9614 735.0402,926.8315 707,937.5158 C709.566,934.1673 713.3269,933.6798 715.3048,938.1412 C705.6855,963.8082 683.2861,965.8712 666.265,946.136 C650.9093,965.6544 627.8512,962.3363 616.8865,940.8485 C608.5188,958.8599 588.9659,964.728 575.8438,946.1869 C561.9661,968.1982 535.4096,972.6287 522.7124,944.9252 C513.5641,965.1377 493.8849,969.1213 481.1355,948.6009 C466.3528,970.5195 447.5242,974.9091 431.1259,950.3389 C417.3516,972.7616 403.4996,971.7551 388.7783,951.2736 C371.3519,972.064 353.8225,973.9082 341.142,946.5757 C326.2266,971.9936 310.4482,971.9321 294.7069,947.3425 C278.1724,968.727 261.7759,963.9533 248.3868,943.8322 C239.3406,962.7354 219.0986,969.5005 205.6916,948.4979 C192.5635,967.4744 172.4293,965.6929 161.7281,945.7562 C148.9899,971.3297 125.6124,967.9172 113.6629,944.9748 C87.8107,968.9484 65.7287,964.8208 54,930.5158 C59.3765,928.913 62.3915,931.9064 61.8107,937.2318 C41.9229,926.2502 42.347,906.4787 59.763,893.7407 C40.4747,882.7259 35.0273,859.6263 58.1001,847.1012 C38.6688,832.8605 32.5171,816.1572 57.1022,800.9644 C34.5583,790.4113 25.1311,769.2626 49.5411,751.528 C28.9917,739.5027 31.2568,719.5682 52.6989,710.7986 C30.9575,694.3588 33.3594,679.63 54.7189,665.0951 C29.3836,651.206 33.0492,626.5986 56.9235,614.8695 C37.6679,601.9554 33.2965,584.9686 55.4614,570.6838 C35.0776,557.2989 35.9836,536.0792 58.7463,525.856 C30.95,506.3321 30.6616,488.6287 61,471.5158 C64.7014,472.3804 65.1016,475.5073 62.6458,477.9474 " fill="#1E1E1E" style="stroke: #FFFFFF; stroke-width: 1.5;"/><text fill="#FFFFFF" font-family="Monospace" font-size="14" font-weight="bold" lengthAdjust="spacingAndGlyphs" textLength="29" x="369.5" y="491.4818">HPC</text><!--MD5=[4f140ef10277af62a9bbfeabfb64c237]
cluster Head Node--><polygon fill="#1E1E1E" filter="url(#f3udl5wtnwmg8)" points="453,687.5158,463,677.5158,655,677.5158,655,765.5158,645,775.5158,453,775.5158,453,687.5158" style="stroke: #FFFFFF; stroke-width: 1.5;"/><line style="stroke: #FFFFFF; stroke-width: 1.5;" x1="645" x2="654" y1="687.5158" y2="678.5158"/><line style="stroke: #FFFFFF; stroke-width: 1.5;" x1="453" x2="645" y1="687.5158" y2="687.5158"/><line style="stroke: #FFFFFF; stroke-width: 1.5;" x1="645" x2="645" y1="687.5158" y2="775.5158"/><text fill="#FFFFFF" font-family="Monospace" font-size="14" font-weight="bold" lengthAdjust="spacingAndGlyphs" textLength="77" x="511.5" y="705.4818">Head Node</text><!--MD5=[7018e2f8ec6c3126037d80ab91f6880d]
cluster Compute Node 1--><polygon fill="#1E1E1E" filter="url(#f3udl5wtnwmg8)" points="70,833.5158,80,823.5158,263,823.5158,263,911.5158,253,921.5158,70,921.5158,70,833.5158" style="stroke: #FFFFFF; stroke-width: 1.5;"/><line style="stroke: #FFFFFF; stroke-width: 1.5;" x1="253" x2="262" y1="833.5158" y2="824.5158"/><line style="stroke: #FFFFFF; stroke-width: 1.5;" x1="70" x2="253" y1="833.5158" y2="833.5158"/><line style="stroke: #FFFFFF; stroke-width: 1.5;" x1="253" x2="253" y1="833.5158" y2="921.5158"/><text fill="#FFFFFF" font-family="Monospace" font-size="14" font-weight="bold" lengthAdjust="spacingAndGlyphs" textLength="117" x="104" y="851.4818">Compute Node 1</text><!--MD5=[87367e987a291b585b0318bcf694b76e]
cluster Compute Node 2--><polygon fill="#1E1E1E" filter="url(#f3udl5wtnwmg8)" points="287,833.5158,297,823.5158,480,823.5158,480,911.5158,470,921.5158,287,921.5158,287,833.5158" style="stroke: #FFFFFF; stroke-width: 1.5;"/><line style="stroke: #FFFFFF; stroke-width: 1.5;" x1="470" x2="479" y1="833.5158" y2="824.5158"/><line style="stroke: #FFFFFF; stroke-width: 1.5;" x1="287" x2="470" y1="833.5158" y2="833.5158"/><line style="stroke: #FFFFFF; stroke-width: 1.5;" x1="470" x2="470" y1="833.5158" y2="921.5158"/><text fill="#FFFFFF" font-family="Monospace" font-size="14" font-weight="bold" lengthAdjust="spacingAndGlyphs" textLength="117" x="321" y="851.4818">Compute Node 2</text><!--MD5=[611865159834dcb625bf3423a333d68b]
cluster Compute Node n--><polygon fill="#1E1E1E" filter="url(#f3udl5wtnwmg8)" points="504,833.5158,514,823.5158,698,823.5158,698,911.5158,688,921.5158,504,921.5158,504,833.5158" style="stroke: #FFFFFF; stroke-width: 1.5;"/><line style="stroke: #FFFFFF; stroke-width: 1.5;" x1="688" x2="697" y1="833.5158" y2="824.5158"/><line style="stroke: #FFFFFF; stroke-width: 1.5;" x1="504" x2="688" y1="833.5158" y2="833.5158"/><line style="stroke: #FFFFFF; stroke-width: 1.5;" x1="688" x2="688" y1="833.5158" y2="921.5158"/><text fill="#FFFFFF" font-family="Monospace" font-size="14" font-weight="bold" lengthAdjust="spacingAndGlyphs" textLength="118" x="538" y="851.4818">Compute Node n</text><!--MD5=[beb5ad5244d3d849df9473931f7c2e5e]
entity GUI--><rect fill="#1E1E1E" filter="url(#f3udl5wtnwmg8)" height="58.1358" style="stroke: #FFFFFF; stroke-width: 1.5;" width="83" x="848.5" y="137.5158"/><rect fill="#1E1E1E" height="5" style="stroke: #FFFFFF; stroke-width: 1.5;" width="10" x="843.5" y="142.5158"/><rect fill="#1E1E1E" height="5" style="stroke: #FFFFFF; stroke-width: 1.5;" width="10" x="843.5" y="185.6517"/><text fill="#FFFFFF" font-family="Monospace" font-size="14" lengthAdjust="spacingAndGlyphs" textLength="59" x="858.5" y="162.4818">Web GUI</text><text fill="#FFFFFF" font-family="Monospace" font-size="14" lengthAdjust="spacingAndGlyphs" textLength="63" x="858.5" y="181.5497">(optional)</text><!--MD5=[feac20ec967ba8193586f5464e6c98c7]
entity LocalRuns--><path d="M1807.5,872.0158 C1807.5,862.0158 1857,862.0158 1857,862.0158 C1857,862.0158 1906.5,862.0158 1906.5,872.0158 L1906.5,900.0838 C1906.5,910.0838 1857,910.0838 1857,910.0838 C1857,910.0838 1807.5,910.0838 1807.5,900.0838 L1807.5,872.0158 " fill="#003366" filter="url(#f3udl5wtnwmg8)" style="stroke: #FFFFFF; stroke-width: 1.5;"/><path d="M1807.5,872.0158 C1807.5,882.0158 1857,882.0158 1857,882.0158 C1857,882.0158 1906.5,882.0158 1906.5,872.0158 " fill="none" style="stroke: #FFFFFF; stroke-width: 1.5;"/><text fill="#FFFFFF" font-family="Monospace" font-size="14" lengthAdjust="spacingAndGlyphs" textLength="79" x="1817.5" y="900.9818">runs/ (local)</text><!--MD5=[119bd4be733b4c7d33357554b14c3254]
entity LocalCore--><rect fill="#1E1E1E" filter="url(#f3udl5wtnwmg8)" height="39.0679" style="stroke: #FFFFFF; stroke-width: 1.5;" width="170" x="1311" y="720.5158"/><rect fill="#1E1E1E" height="5" style="stroke: #FFFFFF; stroke-width: 1.5;" width="10" x="1306" y="725.5158"/><rect fill="#1E1E1E" height="5" style="stroke: #FFFFFF; stroke-width: 1.5;" width="10" x="1306" y="749.5838"/><text fill="#FFFFFF" font-family="Monospace" font-size="14" lengthAdjust="spacingAndGlyphs" textLength="150" x="1321" y="745.4818">OmniOpt2 main script</text><!--MD5=[d2fc6cf2bce407d526ef15191755a4fd]
entity LocalJobs1--><rect fill="#FF8C00" filter="url(#f3udl5wtnwmg8)" height="39.0679" style="stroke: #FFFFFF; stroke-width: 1.5;" width="62" x="1203" y="866.5158"/><rect fill="#FF8C00" height="5" style="stroke: #FFFFFF; stroke-width: 1.5;" width="10" x="1198" y="871.5158"/><rect fill="#FF8C00" height="5" style="stroke: #FFFFFF; stroke-width: 1.5;" width="10" x="1198" y="895.5838"/><text fill="#FFFFFF" font-family="Monospace" font-size="14" lengthAdjust="spacingAndGlyphs" textLength="42" x="1213" y="891.4818">Job #1</text><!--MD5=[e40594d447fda55db88d25f62754828c]
entity LocalJobs2--><rect fill="#FF8C00" filter="url(#f3udl5wtnwmg8)" height="39.0679" style="stroke: #FFFFFF; stroke-width: 1.5;" width="62" x="1412" y="866.5158"/><rect fill="#FF8C00" height="5" style="stroke: #FFFFFF; stroke-width: 1.5;" width="10" x="1407" y="871.5158"/><rect fill="#FF8C00" height="5" style="stroke: #FFFFFF; stroke-width: 1.5;" width="10" x="1407" y="895.5838"/><text fill="#FFFFFF" font-family="Monospace" font-size="14" lengthAdjust="spacingAndGlyphs" textLength="42" x="1422" y="891.4818">Job #2</text><!--MD5=[21263cadb4f481f7ee75bf6952ec9ed8]
entity LocalJobsN--><rect fill="#FF8C00" filter="url(#f3udl5wtnwmg8)" height="39.0679" style="stroke: #FFFFFF; stroke-width: 1.5;" width="63" x="1621.5" y="866.5158"/><rect fill="#FF8C00" height="5" style="stroke: #FFFFFF; stroke-width: 1.5;" width="10" x="1616.5" y="871.5158"/><rect fill="#FF8C00" height="5" style="stroke: #FFFFFF; stroke-width: 1.5;" width="10" x="1616.5" y="895.5838"/><text fill="#FFFFFF" font-family="Monospace" font-size="14" lengthAdjust="spacingAndGlyphs" textLength="43" x="1631.5" y="891.4818">Job #n</text><!--MD5=[ad168f425ab565e150e1a97e9229db73]
entity HPCRuns--><path d="M738.5,872.0158 C738.5,862.0158 819,862.0158 819,862.0158 C819,862.0158 899.5,862.0158 899.5,872.0158 L899.5,900.0838 C899.5,910.0838 819,910.0838 819,910.0838 C819,910.0838 738.5,910.0838 738.5,900.0838 L738.5,872.0158 " fill="#003366" filter="url(#f3udl5wtnwmg8)" style="stroke: #FFFFFF; stroke-width: 1.5;"/><path d="M738.5,872.0158 C738.5,882.0158 819,882.0158 819,882.0158 C819,882.0158 899.5,882.0158 899.5,872.0158 " fill="none" style="stroke: #FFFFFF; stroke-width: 1.5;"/><text fill="#FFFFFF" font-family="Monospace" font-size="14" lengthAdjust="spacingAndGlyphs" textLength="141" x="748.5" y="900.9818">runs/ (on file system)</text><!--MD5=[1e30e967108d4cd087a1e501a36a7024]
entity LoginNode--><polygon fill="#CC7000" filter="url(#f3udl5wtnwmg8)" points="536.5,511.5158,546.5,501.5158,661.5,501.5158,661.5,559.6517,651.5,569.6517,536.5,569.6517,536.5,511.5158" style="stroke: #FFFFFF; stroke-width: 1.5;"/><line style="stroke: #FFFFFF; stroke-width: 1.5;" x1="651.5" x2="660.5" y1="511.5158" y2="502.5158"/><line style="stroke: #FFFFFF; stroke-width: 1.5;" x1="536.5" x2="651.5" y1="511.5158" y2="511.5158"/><line style="stroke: #FFFFFF; stroke-width: 1.5;" x1="651.5" x2="651.5" y1="511.5158" y2="569.6517"/><text fill="#FFFFFF" font-family="Monospace" font-size="14" lengthAdjust="spacingAndGlyphs" textLength="77" x="551.5" y="536.4818">Login Node</text><text fill="#FFFFFF" font-family="Monospace" font-size="14" lengthAdjust="spacingAndGlyphs" textLength="85" x="551.5" y="555.5497">(sbatch only)</text><!--MD5=[0ca049598cf64d5a8f9e0a6c16d5d1d0]
entity HPCMaster--><rect fill="#1E1E1E" filter="url(#f3udl5wtnwmg8)" height="39.0679" style="stroke: #FFFFFF; stroke-width: 1.5;" width="170" x="469" y="720.5158"/><rect fill="#1E1E1E" height="5" style="stroke: #FFFFFF; stroke-width: 1.5;" width="10" x="464" y="725.5158"/><rect fill="#1E1E1E" height="5" style="stroke: #FFFFFF; stroke-width: 1.5;" width="10" x="464" y="749.5838"/><text fill="#FFFFFF" font-family="Monospace" font-size="14" lengthAdjust="spacingAndGlyphs" textLength="150" x="479" y="745.4818">OmniOpt2 main script</text><!--MD5=[47e052b533fd8425fd8ca2757eeea134]
entity Job1--><rect fill="#FF8C00" filter="url(#f3udl5wtnwmg8)" height="39.0679" style="stroke: #FFFFFF; stroke-width: 1.5;" width="62" x="162" y="866.5158"/><rect fill="#FF8C00" height="5" style="stroke: #FFFFFF; stroke-width: 1.5;" width="10" x="157" y="871.5158"/><rect fill="#FF8C00" height="5" style="stroke: #FFFFFF; stroke-width: 1.5;" width="10" x="157" y="895.5838"/><text fill="#FFFFFF" font-family="Monospace" font-size="14" lengthAdjust="spacingAndGlyphs" textLength="42" x="172" y="891.4818">Job #1</text><!--MD5=[ad1ecd006b7d6e2fcd722d0410ebc487]
entity Job2--><rect fill="#FF8C00" filter="url(#f3udl5wtnwmg8)" height="39.0679" style="stroke: #FFFFFF; stroke-width: 1.5;" width="62" x="366" y="866.5158"/><rect fill="#FF8C00" height="5" style="stroke: #FFFFFF; stroke-width: 1.5;" width="10" x="361" y="871.5158"/><rect fill="#FF8C00" height="5" style="stroke: #FFFFFF; stroke-width: 1.5;" width="10" x="361" y="895.5838"/><text fill="#FFFFFF" font-family="Monospace" font-size="14" lengthAdjust="spacingAndGlyphs" textLength="42" x="376" y="891.4818">Job #2</text><!--MD5=[0ab1b686e84364c8109e522a8c779fa1]
entity Job3--><rect fill="#FF8C00" filter="url(#f3udl5wtnwmg8)" height="39.0679" style="stroke: #FFFFFF; stroke-width: 1.5;" width="63" x="561.5" y="866.5158"/><rect fill="#FF8C00" height="5" style="stroke: #FFFFFF; stroke-width: 1.5;" width="10" x="556.5" y="871.5158"/><rect fill="#FF8C00" height="5" style="stroke: #FFFFFF; stroke-width: 1.5;" width="10" x="556.5" y="895.5838"/><text fill="#FFFFFF" font-family="Monospace" font-size="14" lengthAdjust="spacingAndGlyphs" textLength="43" x="571.5" y="891.4818">Job #n</text><!--MD5=[df6a39b053164d23cc3ecae9c3484a54]
entity CLI--><rect fill="#1E1E1E" filter="url(#f3udl5wtnwmg8)" height="58.1358" style="stroke: #FFFFFF; stroke-width: 1.5;" width="114" x="833" y="297.5158"/><rect fill="#1E1E1E" height="5" style="stroke: #FFFFFF; stroke-width: 1.5;" width="10" x="828" y="302.5158"/><rect fill="#1E1E1E" height="5" style="stroke: #FFFFFF; stroke-width: 1.5;" width="10" x="828" y="345.6517"/><text fill="#FFFFFF" font-family="Monospace" font-size="14" lengthAdjust="spacingAndGlyphs" textLength="94" x="843" y="322.4818">CLI Command</text><text fill="#FFFFFF" font-family="Monospace" font-size="14" lengthAdjust="spacingAndGlyphs" textLength="72" x="843" y="341.5497">omniopt ...</text><!--MD5=[6701a3ea7878410edba432ced09d8d77]
entity OmniOpt2Server--><path d="M934.5,862.5158 C934.5,852.5158 1015,852.5158 1015,852.5158 C1015,852.5158 1095.5,852.5158 1095.5,862.5158 L1095.5,909.6517 C1095.5,919.6517 1015,919.6517 1015,919.6517 C1015,919.6517 934.5,919.6517 934.5,909.6517 L934.5,862.5158 " fill="#003366" filter="url(#f3udl5wtnwmg8)" style="stroke: #FFFFFF; stroke-width: 1.5;"/><path d="M934.5,862.5158 C934.5,872.5158 1015,872.5158 1015,872.5158 C1015,872.5158 1095.5,872.5158 1095.5,862.5158 " fill="none" style="stroke: #FFFFFF; stroke-width: 1.5;"/><text fill="#FFFFFF" font-family="Monospace" font-size="14" lengthAdjust="spacingAndGlyphs" textLength="117" x="944.5" y="891.4818">OmniOpt2 Server</text><text fill="#FFFFFF" font-family="Monospace" font-size="14" lengthAdjust="spacingAndGlyphs" textLength="141" x="944.5" y="910.5497">(optional, Live-Share)</text><!--MD5=[35c1068cf10654a3a88a78f31c30ad7d]
link GUI to CLI--><path d="M890,195.7658 C890,222.8358 890,263.7058 890,292.3158 " fill="none" id="GUI-&gt;CLI" style="stroke: #FFFFFF; stroke-width: 1.0; stroke-dasharray: 7.0,7.0;"/><polygon fill="#FFFFFF" points="890,297.5158,894,288.5158,890,292.5158,886,288.5158,890,297.5158" style="stroke: #FFFFFF; stroke-width: 1.0;"/><text fill="#FFFFFF" font-family="Monospace" font-size="11" lengthAdjust="spacingAndGlyphs" textLength="210" x="891" y="264.2748">Generates CLI Command to be executed</text><!--MD5=[bb07170366ce939dcc727915865a8aad]
link CLI to LocalCore--><path d="M924.78,355.7958 C1020.06,433.2858 1283.85,647.8058 1369.07,717.1158 " fill="none" id="CLI-&gt;LocalCore" style="stroke: #FFFFFF; stroke-width: 1.0;"/><polygon fill="#FFFFFF" points="1372.99,720.3058,1368.5432,711.518,1369.1151,717.1459,1363.4873,717.7178,1372.99,720.3058" style="stroke: #FFFFFF; stroke-width: 1.0;"/><text fill="#FFFFFF" font-family="Monospace" font-size="11" lengthAdjust="spacingAndGlyphs" textLength="57" x="1185" y="540.2748">Run locally</text><!--MD5=[c27c3c7b98a2dd3503e29f99b530e9bd]
link LocalCore to LocalJobs1--><path d="M1310.72,750.5458 C1259,758.2858 1199.98,771.2858 1184,791.5158 C1166.57,813.5958 1187.76,842.6258 1207.68,862.4458 " fill="none" id="LocalCore-&gt;LocalJobs1" style="stroke: #FFFFFF; stroke-width: 1.0;"/><polygon fill="#FFFFFF" points="1211.64,866.2858,1207.9748,857.1444,1208.0548,862.8007,1202.3985,862.8806,1211.64,866.2858" style="stroke: #FFFFFF; stroke-width: 1.0;"/><text fill="#FFFFFF" font-family="Monospace" font-size="11" lengthAdjust="spacingAndGlyphs" textLength="53" x="1185" y="804.2748">start job 1</text><!--MD5=[4eeaa9e26c347e59d17bf1e1a3b1be70]
link LocalJobs1 to LocalCore--><path d="M1245.59,866.4258 C1258.86,846.2058 1282.12,813.8058 1308,791.5158 C1321.06,780.2658 1337,770.2358 1351.7,762.1358 " fill="none" id="LocalJobs1-&gt;LocalCore" style="stroke: #FFFFFF; stroke-width: 1.0;"/><polygon fill="#FFFFFF" points="1356.22,759.6858,1346.4016,760.4593,1351.8245,762.0691,1350.2148,767.4921,1356.22,759.6858" style="stroke: #FFFFFF; stroke-width: 1.0;"/><text fill="#FFFFFF" font-family="Monospace" font-size="11" lengthAdjust="spacingAndGlyphs" textLength="72" x="1309" y="804.2748">return results</text><!--MD5=[cb8031634bd4e903ccabb5225de90d8b]
link LocalCore to LocalJobs2--><path d="M1391.94,759.7558 C1389.77,773.2958 1388.4,791.8858 1393,807.5158 C1399,827.8758 1412.19,847.9258 1423.51,862.5258 " fill="none" id="LocalCore-&gt;LocalJobs2" style="stroke: #FFFFFF; stroke-width: 1.0;"/><polygon fill="#FFFFFF" points="1426.65,866.5058,1424.1981,856.9671,1423.5458,862.5862,1417.9266,861.9339,1426.65,866.5058" style="stroke: #FFFFFF; stroke-width: 1.0;"/><text fill="#FFFFFF" font-family="Monospace" font-size="11" lengthAdjust="spacingAndGlyphs" textLength="53" x="1394" y="804.2748">start job 2</text><!--MD5=[814f6603e38c8b8987a1125c9d474155]
link LocalJobs2 to LocalCore--><path d="M1450.09,866.2158 C1456.28,846.6858 1462.74,815.6558 1452,791.5158 C1447.07,780.4258 1438.36,770.7358 1429.25,762.8958 " fill="none" id="LocalJobs2-&gt;LocalCore" style="stroke: #FFFFFF; stroke-width: 1.0;"/><polygon fill="#FFFFFF" points="1425.34,759.6558,1429.6965,768.4888,1429.1823,762.8554,1434.8157,762.3412,1425.34,759.6558" style="stroke: #FFFFFF; stroke-width: 1.0;"/><text fill="#FFFFFF" font-family="Monospace" font-size="11" lengthAdjust="spacingAndGlyphs" textLength="72" x="1457" y="804.2748">return results</text><!--MD5=[3d83dad48673b6a0e540888e983ac65e]
link LocalCore to LocalJobsN--><path d="M1462.72,759.5358 C1487.2,767.6558 1514.62,778.3758 1538,791.5158 C1573.2,811.3058 1608.45,841.9658 1630.47,862.7358 " fill="none" id="LocalCore-&gt;LocalJobsN" style="stroke: #FFFFFF; stroke-width: 1.0;"/><polygon fill="#FFFFFF" points="1634.16,866.2358,1630.4023,857.132,1630.5397,862.7872,1624.8845,862.9246,1634.16,866.2358" style="stroke: #FFFFFF; stroke-width: 1.0;"/><text fill="#FFFFFF" font-family="Monospace" font-size="11" lengthAdjust="spacingAndGlyphs" textLength="54" x="1562" y="804.2748">start job n</text><!--MD5=[0cb1104b4ebfd97325a9a087985e8a2b]
link LocalJobsN to LocalCore--><path d="M1649.71,866.3058 C1645.06,842.0558 1635.93,801.6658 1625,791.5158 C1604.69,772.6558 1541.22,759.5758 1486.24,751.4558 " fill="none" id="LocalJobsN-&gt;LocalCore" style="stroke: #FFFFFF; stroke-width: 1.0;"/><polygon fill="#FFFFFF" points="1481.28,750.7358,1489.6154,755.9819,1486.2286,751.451,1490.7596,748.0642,1481.28,750.7358" style="stroke: #FFFFFF; stroke-width: 1.0;"/><text fill="#FFFFFF" font-family="Monospace" font-size="11" lengthAdjust="spacingAndGlyphs" textLength="72" x="1635" y="804.2748">return results</text><!--MD5=[3a314155df3c86a96c6dc817f2f42b38]
link LocalCore to LocalRuns--><path d="M1481.01,749.7158 C1581.2,761.2158 1740.46,783.7958 1791,815.5158 C1808.65,826.5958 1824.82,843.4658 1836.74,857.8058 " fill="none" id="LocalCore-&gt;LocalRuns" style="stroke: #FFFFFF; stroke-width: 1.0;"/><polygon fill="#FFFFFF" points="1839.99,861.7758,1837.402,852.2731,1836.83,857.901,1831.2022,857.329,1839.99,861.7758" style="stroke: #FFFFFF; stroke-width: 1.0;"/><text fill="#FFFFFF" font-family="Monospace" font-size="11" lengthAdjust="spacingAndGlyphs" textLength="80" x="1775" y="804.2748">write all results</text><!--MD5=[95ac879643d0f9a162a8988bbb1df057]
link LocalCore to OmniOpt2Server--><path d="M1310.69,744.1658 C1222.67,749.0358 1092.91,761.2558 1054,791.5158 C1036.59,805.0558 1026.88,827.7558 1021.5,847.4058 " fill="none" id="LocalCore-&gt;OmniOpt2Server" style="stroke: #FFFFFF; stroke-width: 1.0; stroke-dasharray: 7.0,7.0;"/><polygon fill="#FFFFFF" points="1020.23,852.3258,1026.363,844.6196,1021.4863,847.4862,1018.6197,842.6095,1020.23,852.3258" style="stroke: #FFFFFF; stroke-width: 1.0;"/><text fill="#FFFFFF" font-family="Monospace" font-size="11" lengthAdjust="spacingAndGlyphs" textLength="113" x="1055" y="804.2748">--live_share (optional)</text><!--MD5=[800e0e0bb90fb898e4eff9c9cad77fdf]
link CLI to LoginNode--><path d="M850.45,355.6458 C798.5,392.6058 707.2,457.5458 650.07,498.1858 " fill="none" id="CLI-&gt;LoginNode" style="stroke: #FFFFFF; stroke-width: 1.0;"/><polygon fill="#FFFFFF" points="645.68,501.3058,655.3312,499.3425,649.7525,498.4051,650.6899,492.8264,645.68,501.3058" style="stroke: #FFFFFF; stroke-width: 1.0;"/><text fill="#FFFFFF" font-family="Monospace" font-size="11" lengthAdjust="spacingAndGlyphs" textLength="47" x="805" y="398.2748">ssh login</text><!--MD5=[0c619afe08a0a430c7a3ffb1ff1eec8b]
link LoginNode to HPCMaster--><path d="M591.57,569.9558 C582.46,610.9658 567.24,679.4358 559.26,715.3658 " fill="none" id="LoginNode-&gt;HPCMaster" style="stroke: #FFFFFF; stroke-width: 1.0;"/><polygon fill="#FFFFFF" points="558.13,720.4258,563.9871,712.5079,559.2147,715.5449,556.1776,710.7724,558.13,720.4258" style="stroke: #FFFFFF; stroke-width: 1.0;"/><text fill="#FFFFFF" font-family="Monospace" font-size="11" lengthAdjust="spacingAndGlyphs" textLength="89" x="585" y="612.2748">sbatch command</text><!--MD5=[d73132a875438189b2b3ce4229eb2a32]
link HPCMaster to Job1--><path d="M468.62,746.2658 C360.72,753.7758 186.59,769.2058 167,791.5158 C149.77,811.1358 162.93,841.2658 176,861.9958 " fill="none" id="HPCMaster-&gt;Job1" style="stroke: #FFFFFF; stroke-width: 1.0;"/><polygon fill="#FFFFFF" points="178.78,866.2658,177.2312,856.5395,176.0561,862.073,170.5226,860.8978,178.78,866.2658" style="stroke: #FFFFFF; stroke-width: 1.0;"/><text fill="#FFFFFF" font-family="Monospace" font-size="11" lengthAdjust="spacingAndGlyphs" textLength="36" x="168" y="804.2748">submit</text><!--MD5=[0361fc0b2f9e0c1d656e25018cbd835c]
link Job1 to HPCMaster--><path d="M203,866.1758 C215.59,844.4558 239.32,809.4458 270,791.5158 C302.25,772.6658 393.34,758.6358 463.75,750.2158 " fill="none" id="Job1-&gt;HPCMaster" style="stroke: #FFFFFF; stroke-width: 1.0;"/><polygon fill="#FFFFFF" points="468.79,749.6158,459.3838,746.6964,463.8243,750.2009,460.3198,754.6414,468.79,749.6158" style="stroke: #FFFFFF; stroke-width: 1.0;"/><text fill="#FFFFFF" font-family="Monospace" font-size="11" lengthAdjust="spacingAndGlyphs" textLength="72" x="271" y="804.2748">return results</text><!--MD5=[76de094807e8008348a742240e8dbe38]
link HPCMaster to Job2--><path d="M468.9,752.6058 C422.98,760.7958 372.91,773.5358 359,791.5158 C342.51,812.8158 359.53,842.2558 375.76,862.3758 " fill="none" id="HPCMaster-&gt;Job2" style="stroke: #FFFFFF; stroke-width: 1.0;"/><polygon fill="#FFFFFF" points="378.99,866.2758,376.3428,856.7894,375.806,862.4207,370.1746,861.8839,378.99,866.2758" style="stroke: #FFFFFF; stroke-width: 1.0;"/><text fill="#FFFFFF" font-family="Monospace" font-size="11" lengthAdjust="spacingAndGlyphs" textLength="36" x="360" y="804.2748">submit</text><!--MD5=[dac3ded752d84de080905c6c3483a0d1]
link Job2 to HPCMaster--><path d="M407.54,866.3658 C419.67,846.1058 441.15,813.6658 466,791.5158 C478.75,780.1458 494.47,770.1458 509.07,762.1058 " fill="none" id="Job2-&gt;HPCMaster" style="stroke: #FFFFFF; stroke-width: 1.0;"/><polygon fill="#FFFFFF" points="513.57,759.6758,503.7496,760.4247,509.1686,762.048,507.5452,767.467,513.57,759.6758" style="stroke: #FFFFFF; stroke-width: 1.0;"/><text fill="#FFFFFF" font-family="Monospace" font-size="11" lengthAdjust="spacingAndGlyphs" textLength="72" x="467" y="804.2748">return results</text><!--MD5=[d49c4ab690e9114edc7d2c3d09ac25fe]
link HPCMaster to Job3--><path d="M550.3,759.6558 C548.31,773.1558 547,791.7158 551,807.5158 C555.98,827.1458 567.03,847.1858 576.55,861.9658 " fill="none" id="HPCMaster-&gt;Job3" style="stroke: #FFFFFF; stroke-width: 1.0;"/><polygon fill="#FFFFFF" points="579.44,866.3858,577.8376,856.6682,576.693,862.2081,571.1531,861.0635,579.44,866.3858" style="stroke: #FFFFFF; stroke-width: 1.0;"/><text fill="#FFFFFF" font-family="Monospace" font-size="11" lengthAdjust="spacingAndGlyphs" textLength="36" x="552" y="804.2748">submit</text><!--MD5=[0b084569a1b025af739eee478835d34a]
link Job3 to HPCMaster--><path d="M596.49,866.1658 C599.26,846.8558 601.44,816.2458 593,791.5158 C589.56,781.4258 583.19,771.7858 576.58,763.6758 " fill="none" id="Job3-&gt;HPCMaster" style="stroke: #FFFFFF; stroke-width: 1.0;"/><polygon fill="#FFFFFF" points="573.33,759.8258,576.0534,769.2907,576.545,763.6552,582.1804,764.1467,573.33,759.8258" style="stroke: #FFFFFF; stroke-width: 1.0;"/><text fill="#FFFFFF" font-family="Monospace" font-size="11" lengthAdjust="spacingAndGlyphs" textLength="72" x="597" y="804.2748">return results</text><!--MD5=[571935b6720c67f63951b3fde5967843]
link HPCMaster to HPCRuns--><path d="M606.02,759.5458 C628.61,768.2658 655.09,779.4058 678,791.5158 C715.72,811.4458 756.02,838.8558 783.83,858.8458 " fill="none" id="HPCMaster-&gt;HPCRuns" style="stroke: #FFFFFF; stroke-width: 1.0;"/><polygon fill="#FFFFFF" points="788.19,861.9858,783.2337,853.475,784.1359,859.0594,778.5514,859.9616,788.19,861.9858" style="stroke: #FFFFFF; stroke-width: 1.0;"/><text fill="#FFFFFF" font-family="Monospace" font-size="11" lengthAdjust="spacingAndGlyphs" textLength="65" x="707" y="804.2748">write results</text><!--MD5=[9b4661392c5508d5bc2f8f38988871a1]
link HPCMaster to OmniOpt2Server--><path d="M639.1,747.2458 C714.78,755.3558 826.94,773.8358 916,815.5158 C935.11,824.4558 954.47,837.0958 970.94,849.1358 " fill="none" id="HPCMaster-&gt;OmniOpt2Server" style="stroke: #FFFFFF; stroke-width: 1.0; stroke-dasharray: 7.0,7.0;"/><polygon fill="#FFFFFF" points="975.07,852.1858,970.216,843.6162,971.0512,849.2111,965.4563,850.0463,975.07,852.1858" style="stroke: #FFFFFF; stroke-width: 1.0;"/><text fill="#FFFFFF" font-family="Monospace" font-size="11" lengthAdjust="spacingAndGlyphs" textLength="113" x="898" y="804.2748">--live_share (optional)</text><!--MD5=[f226246bbf2139085b8aeedaf7362ea1]
@startuml

  skinparam backgroundColor #000000
  skinparam defaultFontColor #ffffff
  skinparam titleFontColor #ffffff
  skinparam componentFontColor #ffffff
  skinparam nodeFontColor #ffffff
  skinparam databaseFontColor #ffffff
  skinparam arrowColor #ffffff
  skinparam ArrowFontColor #ffffff

  skinparam componentBackgroundColor #1e1e1e
  skinparam nodeBackgroundColor #CC7000   ' dunkles Orange/Braun
  skinparam databaseBackgroundColor #003366
  skinparam packageBackgroundColor #1e1e1e
  skinparam cloudBackgroundColor #1e1e1e

  skinparam componentBorderColor #ffffff
  skinparam nodeBorderColor #ffffff
  skinparam databaseBorderColor #ffffff
  skinparam packageBorderColor #ffffff
  skinparam cloudBorderColor #ffffff
  skinparam rectangleBorderColor #ffffff

  skinparam componentBackgroundColor #1e1e1e

skinparam componentStyle rectangle
skinparam defaultFontName Monospace
skinparam ArrowFontSize 11

title OmniOpt2 Architecture

package "User Interface" {
  node "User" {
    component "Web GUI\n(optional)" as GUI
  }
}

component "CLI Command\nomniopt ..." as CLI


  GUI ..> CLI : Generates CLI Command to be executed

  database "OmniOpt2 Server\n(optional, Live-Share)" as OmniOpt2Server

  package "Local Mode" {
          database "runs/ (local)" as LocalRuns

          node "Local System" {
                  component "OmniOpt2 main script" as LocalCore

                    component "Job #1" as LocalJobs1 #FF8C00
                    component "Job #2" as LocalJobs2 #FF8C00
                    component "Job #n" as LocalJobsN #FF8C00
          }

          CLI - -> LocalCore : Run locally

                  LocalCore - -> LocalJobs1 : start job 1
                  LocalJobs1 - -> LocalCore : return results

                  LocalCore - -> LocalJobs2 : start job 2
                  LocalJobs2 - -> LocalCore : return results

                  LocalCore - -> LocalJobsN : start job n
                  LocalJobsN - -> LocalCore : return results

                  LocalCore - -> LocalRuns : write all results

                  LocalCore ..> OmniOpt2Server : - -live_share (optional)
  }

  package "HPC Mode (via submitit/sbatch)" {

    cloud "HPC" {

        node "Login Node\n(sbatch only)" as LoginNode #CC7000
        node "Head Node" {
          component "OmniOpt2 main script" as HPCMaster
        }
        node "Compute Node 1" {
          component "Job #1" as Job1 #FF8C00
        }
        node "Compute Node 2" {
          component "Job #2" as Job2 #FF8C00
        }
        node "Compute Node n" {
          component "Job #n" as Job3 #FF8C00
        }

    }

    database "runs/ (on file system)" as HPCRuns

    CLI - -> LoginNode : ssh login
    LoginNode - -> HPCMaster : sbatch command

    HPCMaster - -> Job1 : submit
    HPCMaster - -> Job2 : submit
    HPCMaster - -> Job3 : submit

    Job1 -down-> HPCMaster : return results
    Job2 -down-> HPCMaster : return results
    Job3 -down-> HPCMaster : return results

    HPCMaster - -> HPCRuns : write results
    HPCMaster ..> OmniOpt2Server : - -live_share (optional)
  }

@enduml

PlantUML version 1.2020.02(Sun Mar 01 11:22:07 CET 2020)
(GPL source distribution)
Java Runtime: OpenJDK Runtime Environment
JVM: OpenJDK 64-Bit Server VM
Java Version: 17.0.15+6-Debian-1deb12u1
Operating System: Linux
Default Encoding: UTF-8
Language: de
Country: DE
--></g></svg>