<?xml version="1.0" encoding="UTF-8" standalone="no"?><svg xmlns="http://www.w3.org/2000/svg" xmlns:xlink="http://www.w3.org/1999/xlink" contentScriptType="application/ecmascript" contentStyleType="text/css" height="1070px" preserveAspectRatio="none" style="width:1993px;height:1070px;background:#000000;" version="1.1" viewBox="0 0 1993 1070" width="1993px" zoomAndPan="magnify"><defs><filter height="300%" id="f2krg5jj06x7x" width="300%" x="-1" y="-1"><feGaussianBlur result="blurOut" stdDeviation="2.0"/><feColorMatrix in="blurOut" result="blurOut2" type="matrix" values="0 0 0 0 0 0 0 0 0 0 0 0 0 0 0 0 0 0 .4 0"/><feOffset dx="4.0" dy="4.0" in="blurOut2" result="blurOut3"/><feBlend in="SourceGraphic" in2="blurOut3" mode="normal"/></filter></defs><g><text fill="#FFFFFF" font-family="Monospace" font-size="18" lengthAdjust="spacingAndGlyphs" textLength="199" x="903" y="19.2419">OmniOpt2 Architecture</text><!--MD5=[3fc59b17a2df0e8aa43d25b99d46893c]
cluster User Interface--><polygon fill="#2D2D2D" filter="url(#f2krg5jj06x7x)" points="832,48.5158,936,48.5158,943,73.5838,996,73.5838,996,235.5158,832,235.5158,832,48.5158" style="stroke: #FFFFFF; stroke-width: 1.5;"/><line style="stroke: #FFFFFF; stroke-width: 1.5;" x1="832" x2="943" y1="73.5838" y2="73.5838"/><text fill="#FFFFFF" font-family="Monospace" font-size="14" font-weight="bold" lengthAdjust="spacingAndGlyphs" textLength="98" x="836" y="65.4818">User Interface</text><!--MD5=[d0083cf0b2d9f17e335f85bf9624e57e]
cluster User--><polygon fill="#2D2D2D" filter="url(#f2krg5jj06x7x)" points="856,104.5158,866,94.5158,972,94.5158,972,201.5158,962,211.5158,856,211.5158,856,104.5158" style="stroke: #FFFFFF; stroke-width: 1.5;"/><line style="stroke: #FFFFFF; stroke-width: 1.5;" x1="962" x2="971" y1="104.5158" y2="95.5158"/><line style="stroke: #FFFFFF; stroke-width: 1.5;" x1="856" x2="962" y1="104.5158" y2="104.5158"/><line style="stroke: #FFFFFF; stroke-width: 1.5;" x1="962" x2="962" y1="104.5158" y2="211.5158"/><text fill="#FFFFFF" font-family="Monospace" font-size="14" font-weight="bold" lengthAdjust="spacingAndGlyphs" textLength="32" x="894" y="122.4818">User</text><!--MD5=[6f2137f269eb2ba82dff926d1268b8a6]
cluster OmniOpt2 Workflow--><polygon fill="#2D2D2D" filter="url(#f2krg5jj06x7x)" points="22,417.5158,172,417.5158,179,442.5838,1971,442.5838,1971,1058.5158,22,1058.5158,22,417.5158" style="stroke: #FFFFFF; stroke-width: 1.5;"/><line style="stroke: #FFFFFF; stroke-width: 1.5;" x1="22" x2="179" y1="442.5838" y2="442.5838"/><text fill="#FFFFFF" font-family="Monospace" font-size="14" font-weight="bold" lengthAdjust="spacingAndGlyphs" textLength="144" x="26" y="434.4818">OmniOpt2 Workflow</text><!--MD5=[068ab849e982e95724e818cf5ecc07ce]
cluster Local Mode--><polygon fill="#2D2D2D" filter="url(#f2krg5jj06x7x)" points="1136,677.5158,1221,677.5158,1228,702.5838,1947,702.5838,1947,1010.5158,1136,1010.5158,1136,677.5158" style="stroke: #FFFFFF; stroke-width: 1.5;"/><line style="stroke: #FFFFFF; stroke-width: 1.5;" x1="1136" x2="1228" y1="702.5838" y2="702.5838"/><text fill="#FFFFFF" font-family="Monospace" font-size="14" font-weight="bold" lengthAdjust="spacingAndGlyphs" textLength="79" x="1140" y="694.4818">Local Mode</text><!--MD5=[494d5f1c0bba01068cf8e38a0ae48f2b]
cluster Local System--><polygon fill="#2D2D2D" filter="url(#f2krg5jj06x7x)" points="1160,733.5158,1170,723.5158,1815,723.5158,1815,976.5158,1805,986.5158,1160,986.5158,1160,733.5158" style="stroke: #FFFFFF; stroke-width: 1.5;"/><line style="stroke: #FFFFFF; stroke-width: 1.5;" x1="1805" x2="1814" y1="733.5158" y2="724.5158"/><line style="stroke: #FFFFFF; stroke-width: 1.5;" x1="1160" x2="1805" y1="733.5158" y2="733.5158"/><line style="stroke: #FFFFFF; stroke-width: 1.5;" x1="1805" x2="1805" y1="733.5158" y2="986.5158"/><text fill="#FFFFFF" font-family="Monospace" font-size="14" font-weight="bold" lengthAdjust="spacingAndGlyphs" textLength="91" x="1438" y="751.4818">Local System</text><!--MD5=[8c9472c44c824e4c2cc3dfcfbb71d530]
cluster HPC Mode (via submitit/sbatch)--><polygon fill="#2D2D2D" filter="url(#f2krg5jj06x7x)" points="46,463.5158,273,463.5158,280,488.5838,940,488.5838,940,1034.5158,46,1034.5158,46,463.5158" style="stroke: #FFFFFF; stroke-width: 1.5;"/><line style="stroke: #FFFFFF; stroke-width: 1.5;" x1="46" x2="280" y1="488.5838" y2="488.5838"/><text fill="#FFFFFF" font-family="Monospace" font-size="14" font-weight="bold" lengthAdjust="spacingAndGlyphs" textLength="221" x="50" y="480.4818">HPC Mode (via submitit/sbatch)</text><!--MD5=[f47ff5492917336f42ec66f20ec4a271]
cluster HPC--><path d="M89.939,518.6744 C104.023,496.7769 126.7401,499.3761 135.6335,523.7954 C148.0974,500.3959 164.2851,503.4956 178.8806,521.5729 C188.0137,502.1894 209.6058,496.3932 223.6387,515.9396 C242.5972,490.4647 260.583,490.4357 276.9229,518.5437 C287.8464,502.0664 303.2506,501.2623 315.8095,516.5412 C328.0342,493.9192 348.3119,494.8741 362.0729,514.8736 C379.0705,492.5715 393.9404,492.7539 409.3228,516.5299 C421.9535,494.3605 441.462,489.9559 456.7728,513.764 C472.9152,492.4142 493.956,487.5559 508.5352,515.4086 C524.1212,491.812 538.0552,493.6538 554.2794,514.7554 C567.3893,493.1797 587.0348,493.1907 599.9908,514.9178 C618.4556,495.7536 634.5863,497.5768 644.2724,523.5332 C657.3963,502.6465 674.8519,503.6063 687.6137,523.9142 C703.1035,501.4586 723.0222,504.0989 738,524.5158 C741.1547,526.2437 741.4952,528.6348 738.584,530.9161 C762.02,542.3843 764.7053,555.4301 744.7487,573.2214 C769.4615,589.1687 764.2341,608.1545 742.9142,622.384 C763.137,635.1827 765.5878,659.2203 742.1028,671.2939 C762.0065,682.651 767.6324,705.6149 743.5475,718.3232 C765.7658,729.5973 770.0311,752.9678 745.5015,766.1518 C769.3045,778.3268 769.2802,796.6159 747.989,811.2767 C770.7404,827.1518 766.1677,843.5646 743.8322,855.1697 C763.9135,872.1515 765.6201,888.1259 741.3622,902.8088 C767.3994,916.6155 772.3106,937.1418 746.0118,955.5614 C760.4912,976.0804 760.2541,995.9789 731,1002.5158 C735.0195,1002.0407 737.2783,1004.2889 735.975,1008.3515 C721.029,1032.1909 703.5541,1030.281 687.659,1009.3764 C673.9668,1031.5222 656.2716,1032.1508 640.5541,1011.6116 C626.8358,1035.4048 608.9856,1033.4257 593.4064,1013.6243 C576.2637,1033.0238 562.5821,1029.5044 551.4387,1007.5378 C538.6434,1031.4025 519.7394,1038.8219 500.5734,1014.2244 C488.5762,1032.3856 470.5042,1030.7685 460.7001,1011.8651 C448.4387,1037.901 425.9343,1042.3509 409.8781,1015.5125 C396.5216,1039.6063 377.7536,1038.7704 363.4378,1016.4729 C346.2732,1035.0069 327.1704,1033.3506 315.8477,1009.8578 C301.3568,1029.6752 285.5701,1025.369 273.9615,1006.7193 C261.9145,1029.7487 246.9678,1034.129 228.7465,1013.0483 C209.5522,1034.2985 195.7248,1029.0773 182.538,1006.6873 C170.8313,1028.6521 150.0194,1034.9459 134.3784,1010.7961 C109.6697,1032.3018 88.896,1024.9741 78,995.5158 C81.5645,995.6067 83.0596,998.1949 81.728,1001.392 C58.9784,985.2279 55.4781,965.9431 80.486,948.6543 C58.836,934.8492 58.1834,917.479 78.5215,901.9093 C58.9285,886.2518 56.3012,870.5402 78.3966,854.7722 C55.6494,844.4299 56.4509,827.1196 73.565,812.2482 C47.096,801.5534 45.9745,781.7499 65.0653,763.1656 C39.0733,745.4119 45.6645,726.7035 69.2946,713.1454 C48.8157,696.7261 49.5014,681.8508 71.4724,667.4548 C53.9372,652.7935 56.1006,632.5672 79.2604,625.4513 C53.8854,613.0367 56.2204,589.3679 76.9148,574.819 C48.4205,553.5326 59.0038,531.1139 85,517.5158 C87.0329,515.6658 88.9717,515.9815 89.939,518.6744 " fill="#2D2D2D" style="stroke: #FFFFFF; stroke-width: 1.5;"/><text fill="#FFFFFF" font-family="Monospace" font-size="14" font-weight="bold" lengthAdjust="spacingAndGlyphs" textLength="29" x="393.5" y="537.4818">HPC</text><!--MD5=[4f140ef10277af62a9bbfeabfb64c237]
cluster Head Node--><polygon fill="#2D2D2D" filter="url(#f2krg5jj06x7x)" points="499,733.5158,509,723.5158,657,723.5158,657,830.5158,647,840.5158,499,840.5158,499,733.5158" style="stroke: #FFFFFF; stroke-width: 1.5;"/><line style="stroke: #FFFFFF; stroke-width: 1.5;" x1="647" x2="656" y1="733.5158" y2="724.5158"/><line style="stroke: #FFFFFF; stroke-width: 1.5;" x1="499" x2="647" y1="733.5158" y2="733.5158"/><line style="stroke: #FFFFFF; stroke-width: 1.5;" x1="647" x2="647" y1="733.5158" y2="840.5158"/><text fill="#FFFFFF" font-family="Monospace" font-size="14" font-weight="bold" lengthAdjust="spacingAndGlyphs" textLength="77" x="535.5" y="751.4818">Head Node</text><!--MD5=[7018e2f8ec6c3126037d80ab91f6880d]
cluster Compute Node 1--><polygon fill="#2D2D2D" filter="url(#f2krg5jj06x7x)" points="94,898.5158,104,888.5158,287,888.5158,287,976.5158,277,986.5158,94,986.5158,94,898.5158" style="stroke: #FFFFFF; stroke-width: 1.5;"/><line style="stroke: #FFFFFF; stroke-width: 1.5;" x1="277" x2="286" y1="898.5158" y2="889.5158"/><line style="stroke: #FFFFFF; stroke-width: 1.5;" x1="94" x2="277" y1="898.5158" y2="898.5158"/><line style="stroke: #FFFFFF; stroke-width: 1.5;" x1="277" x2="277" y1="898.5158" y2="986.5158"/><text fill="#FFFFFF" font-family="Monospace" font-size="14" font-weight="bold" lengthAdjust="spacingAndGlyphs" textLength="117" x="128" y="916.4818">Compute Node 1</text><!--MD5=[87367e987a291b585b0318bcf694b76e]
cluster Compute Node 2--><polygon fill="#2D2D2D" filter="url(#f2krg5jj06x7x)" points="311,898.5158,321,888.5158,504,888.5158,504,976.5158,494,986.5158,311,986.5158,311,898.5158" style="stroke: #FFFFFF; stroke-width: 1.5;"/><line style="stroke: #FFFFFF; stroke-width: 1.5;" x1="494" x2="503" y1="898.5158" y2="889.5158"/><line style="stroke: #FFFFFF; stroke-width: 1.5;" x1="311" x2="494" y1="898.5158" y2="898.5158"/><line style="stroke: #FFFFFF; stroke-width: 1.5;" x1="494" x2="494" y1="898.5158" y2="986.5158"/><text fill="#FFFFFF" font-family="Monospace" font-size="14" font-weight="bold" lengthAdjust="spacingAndGlyphs" textLength="117" x="345" y="916.4818">Compute Node 2</text><!--MD5=[611865159834dcb625bf3423a333d68b]
cluster Compute Node n--><polygon fill="#2D2D2D" filter="url(#f2krg5jj06x7x)" points="528,898.5158,538,888.5158,722,888.5158,722,976.5158,712,986.5158,528,986.5158,528,898.5158" style="stroke: #FFFFFF; stroke-width: 1.5;"/><line style="stroke: #FFFFFF; stroke-width: 1.5;" x1="712" x2="721" y1="898.5158" y2="889.5158"/><line style="stroke: #FFFFFF; stroke-width: 1.5;" x1="528" x2="712" y1="898.5158" y2="898.5158"/><line style="stroke: #FFFFFF; stroke-width: 1.5;" x1="712" x2="712" y1="898.5158" y2="986.5158"/><text fill="#FFFFFF" font-family="Monospace" font-size="14" font-weight="bold" lengthAdjust="spacingAndGlyphs" textLength="118" x="562" y="916.4818">Compute Node n</text><!--MD5=[beb5ad5244d3d849df9473931f7c2e5e]
entity GUI--><rect fill="#2D2D2D" filter="url(#f2krg5jj06x7x)" height="58.1358" style="stroke: #FFFFFF; stroke-width: 1.5;" width="83" x="872.5" y="137.5158"/><rect fill="#2D2D2D" height="5" style="stroke: #FFFFFF; stroke-width: 1.5;" width="10" x="867.5" y="142.5158"/><rect fill="#2D2D2D" height="5" style="stroke: #FFFFFF; stroke-width: 1.5;" width="10" x="867.5" y="185.6517"/><text fill="#FFFFFF" font-family="Monospace" font-size="14" lengthAdjust="spacingAndGlyphs" textLength="59" x="882.5" y="162.4818">Web GUI</text><text fill="#FFFFFF" font-family="Monospace" font-size="14" lengthAdjust="spacingAndGlyphs" textLength="63" x="882.5" y="181.5497">(optional)</text><!--MD5=[6701a3ea7878410edba432ced09d8d77]
entity OmniOpt2Server--><path d="M958.5,927.5158 C958.5,917.5158 1039,917.5158 1039,917.5158 C1039,917.5158 1119.5,917.5158 1119.5,927.5158 L1119.5,974.6517 C1119.5,984.6517 1039,984.6517 1039,984.6517 C1039,984.6517 958.5,984.6517 958.5,974.6517 L958.5,927.5158 " fill="#2D2D2D" filter="url(#f2krg5jj06x7x)" style="stroke: #FFFFFF; stroke-width: 1.5;"/><path d="M958.5,927.5158 C958.5,937.5158 1039,937.5158 1039,937.5158 C1039,937.5158 1119.5,937.5158 1119.5,927.5158 " fill="none" style="stroke: #FFFFFF; stroke-width: 1.5;"/><text fill="#FFFFFF" font-family="Monospace" font-size="14" lengthAdjust="spacingAndGlyphs" textLength="117" x="968.5" y="956.4818">OmniOpt2 Server</text><text fill="#FFFFFF" font-family="Monospace" font-size="14" lengthAdjust="spacingAndGlyphs" textLength="141" x="968.5" y="975.5497">(optional, Live-Share)</text><!--MD5=[feac20ec967ba8193586f5464e6c98c7]
entity LocalRuns--><path d="M1831.5,937.0158 C1831.5,927.0158 1881,927.0158 1881,927.0158 C1881,927.0158 1930.5,927.0158 1930.5,937.0158 L1930.5,965.0838 C1930.5,975.0838 1881,975.0838 1881,975.0838 C1881,975.0838 1831.5,975.0838 1831.5,965.0838 L1831.5,937.0158 " fill="#2D2D2D" filter="url(#f2krg5jj06x7x)" style="stroke: #FFFFFF; stroke-width: 1.5;"/><path d="M1831.5,937.0158 C1831.5,947.0158 1881,947.0158 1881,947.0158 C1881,947.0158 1930.5,947.0158 1930.5,937.0158 " fill="none" style="stroke: #FFFFFF; stroke-width: 1.5;"/><text fill="#FFFFFF" font-family="Monospace" font-size="14" lengthAdjust="spacingAndGlyphs" textLength="79" x="1841.5" y="965.9818">runs/ (local)</text><!--MD5=[119bd4be733b4c7d33357554b14c3254]
entity LocalCore--><rect fill="#2D2D2D" filter="url(#f2krg5jj06x7x)" height="58.1358" style="stroke: #FFFFFF; stroke-width: 1.5;" width="125" x="1357.5" y="766.5158"/><rect fill="#2D2D2D" height="5" style="stroke: #FFFFFF; stroke-width: 1.5;" width="10" x="1352.5" y="771.5158"/><rect fill="#2D2D2D" height="5" style="stroke: #FFFFFF; stroke-width: 1.5;" width="10" x="1352.5" y="814.6517"/><text fill="#FFFFFF" font-family="Monospace" font-size="14" lengthAdjust="spacingAndGlyphs" textLength="105" x="1367.5" y="791.4818">OmniOpt2 Core</text><text fill="#FFFFFF" font-family="Monospace" font-size="14" lengthAdjust="spacingAndGlyphs" textLength="84" x="1367.5" y="810.5497">(main script)</text><!--MD5=[d2fc6cf2bce407d526ef15191755a4fd]
entity LocalJobs1--><rect fill="#2D2D2D" filter="url(#f2krg5jj06x7x)" height="39.0679" style="stroke: #FFFFFF; stroke-width: 1.5;" width="62" x="1227" y="931.5158"/><rect fill="#2D2D2D" height="5" style="stroke: #FFFFFF; stroke-width: 1.5;" width="10" x="1222" y="936.5158"/><rect fill="#2D2D2D" height="5" style="stroke: #FFFFFF; stroke-width: 1.5;" width="10" x="1222" y="960.5838"/><text fill="#FFFFFF" font-family="Monospace" font-size="14" lengthAdjust="spacingAndGlyphs" textLength="42" x="1237" y="956.4818">Job #1</text><!--MD5=[e40594d447fda55db88d25f62754828c]
entity LocalJobs2--><rect fill="#2D2D2D" filter="url(#f2krg5jj06x7x)" height="39.0679" style="stroke: #FFFFFF; stroke-width: 1.5;" width="62" x="1436" y="931.5158"/><rect fill="#2D2D2D" height="5" style="stroke: #FFFFFF; stroke-width: 1.5;" width="10" x="1431" y="936.5158"/><rect fill="#2D2D2D" height="5" style="stroke: #FFFFFF; stroke-width: 1.5;" width="10" x="1431" y="960.5838"/><text fill="#FFFFFF" font-family="Monospace" font-size="14" lengthAdjust="spacingAndGlyphs" textLength="42" x="1446" y="956.4818">Job #2</text><!--MD5=[21263cadb4f481f7ee75bf6952ec9ed8]
entity LocalJobsN--><rect fill="#2D2D2D" filter="url(#f2krg5jj06x7x)" height="39.0679" style="stroke: #FFFFFF; stroke-width: 1.5;" width="63" x="1645.5" y="931.5158"/><rect fill="#2D2D2D" height="5" style="stroke: #FFFFFF; stroke-width: 1.5;" width="10" x="1640.5" y="936.5158"/><rect fill="#2D2D2D" height="5" style="stroke: #FFFFFF; stroke-width: 1.5;" width="10" x="1640.5" y="960.5838"/><text fill="#FFFFFF" font-family="Monospace" font-size="14" lengthAdjust="spacingAndGlyphs" textLength="43" x="1655.5" y="956.4818">Job #n</text><!--MD5=[ad168f425ab565e150e1a97e9229db73]
entity HPCRuns--><path d="M762.5,937.0158 C762.5,927.0158 843,927.0158 843,927.0158 C843,927.0158 923.5,927.0158 923.5,937.0158 L923.5,965.0838 C923.5,975.0838 843,975.0838 843,975.0838 C843,975.0838 762.5,975.0838 762.5,965.0838 L762.5,937.0158 " fill="#2D2D2D" filter="url(#f2krg5jj06x7x)" style="stroke: #FFFFFF; stroke-width: 1.5;"/><path d="M762.5,937.0158 C762.5,947.0158 843,947.0158 843,947.0158 C843,947.0158 923.5,947.0158 923.5,937.0158 " fill="none" style="stroke: #FFFFFF; stroke-width: 1.5;"/><text fill="#FFFFFF" font-family="Monospace" font-size="14" lengthAdjust="spacingAndGlyphs" textLength="141" x="772.5" y="965.9818">runs/ (on file system)</text><!--MD5=[1e30e967108d4cd087a1e501a36a7024]
entity LoginNode--><polygon fill="#2D2D2D" filter="url(#f2krg5jj06x7x)" points="560.5,557.5158,570.5,547.5158,685.5,547.5158,685.5,605.6517,675.5,615.6517,560.5,615.6517,560.5,557.5158" style="stroke: #FFFFFF; stroke-width: 1.5;"/><line style="stroke: #FFFFFF; stroke-width: 1.5;" x1="675.5" x2="684.5" y1="557.5158" y2="548.5158"/><line style="stroke: #FFFFFF; stroke-width: 1.5;" x1="560.5" x2="675.5" y1="557.5158" y2="557.5158"/><line style="stroke: #FFFFFF; stroke-width: 1.5;" x1="675.5" x2="675.5" y1="557.5158" y2="615.6517"/><text fill="#FFFFFF" font-family="Monospace" font-size="14" lengthAdjust="spacingAndGlyphs" textLength="77" x="575.5" y="582.4818">Login Node</text><text fill="#FFFFFF" font-family="Monospace" font-size="14" lengthAdjust="spacingAndGlyphs" textLength="85" x="575.5" y="601.5497">(sbatch only)</text><!--MD5=[0ca049598cf64d5a8f9e0a6c16d5d1d0]
entity HPCMaster--><rect fill="#2D2D2D" filter="url(#f2krg5jj06x7x)" height="58.1358" style="stroke: #FFFFFF; stroke-width: 1.5;" width="125" x="515.5" y="766.5158"/><rect fill="#2D2D2D" height="5" style="stroke: #FFFFFF; stroke-width: 1.5;" width="10" x="510.5" y="771.5158"/><rect fill="#2D2D2D" height="5" style="stroke: #FFFFFF; stroke-width: 1.5;" width="10" x="510.5" y="814.6517"/><text fill="#FFFFFF" font-family="Monospace" font-size="14" lengthAdjust="spacingAndGlyphs" textLength="105" x="525.5" y="791.4818">OmniOpt2 Core</text><text fill="#FFFFFF" font-family="Monospace" font-size="14" lengthAdjust="spacingAndGlyphs" textLength="84" x="525.5" y="810.5497">(main script)</text><!--MD5=[47e052b533fd8425fd8ca2757eeea134]
entity Job1--><rect fill="#2D2D2D" filter="url(#f2krg5jj06x7x)" height="39.0679" style="stroke: #FFFFFF; stroke-width: 1.5;" width="62" x="186" y="931.5158"/><rect fill="#2D2D2D" height="5" style="stroke: #FFFFFF; stroke-width: 1.5;" width="10" x="181" y="936.5158"/><rect fill="#2D2D2D" height="5" style="stroke: #FFFFFF; stroke-width: 1.5;" width="10" x="181" y="960.5838"/><text fill="#FFFFFF" font-family="Monospace" font-size="14" lengthAdjust="spacingAndGlyphs" textLength="42" x="196" y="956.4818">Job #1</text><!--MD5=[ad1ecd006b7d6e2fcd722d0410ebc487]
entity Job2--><rect fill="#2D2D2D" filter="url(#f2krg5jj06x7x)" height="39.0679" style="stroke: #FFFFFF; stroke-width: 1.5;" width="62" x="390" y="931.5158"/><rect fill="#2D2D2D" height="5" style="stroke: #FFFFFF; stroke-width: 1.5;" width="10" x="385" y="936.5158"/><rect fill="#2D2D2D" height="5" style="stroke: #FFFFFF; stroke-width: 1.5;" width="10" x="385" y="960.5838"/><text fill="#FFFFFF" font-family="Monospace" font-size="14" lengthAdjust="spacingAndGlyphs" textLength="42" x="400" y="956.4818">Job #2</text><!--MD5=[0ab1b686e84364c8109e522a8c779fa1]
entity Job3--><rect fill="#2D2D2D" filter="url(#f2krg5jj06x7x)" height="39.0679" style="stroke: #FFFFFF; stroke-width: 1.5;" width="63" x="585.5" y="931.5158"/><rect fill="#2D2D2D" height="5" style="stroke: #FFFFFF; stroke-width: 1.5;" width="10" x="580.5" y="936.5158"/><rect fill="#2D2D2D" height="5" style="stroke: #FFFFFF; stroke-width: 1.5;" width="10" x="580.5" y="960.5838"/><text fill="#FFFFFF" font-family="Monospace" font-size="14" lengthAdjust="spacingAndGlyphs" textLength="43" x="595.5" y="956.4818">Job #n</text><!--MD5=[df6a39b053164d23cc3ecae9c3484a54]
entity CLI--><rect fill="#2D2D2D" filter="url(#f2krg5jj06x7x)" height="58.1358" style="stroke: #FFFFFF; stroke-width: 1.5;" width="114" x="857" y="297.5158"/><rect fill="#2D2D2D" height="5" style="stroke: #FFFFFF; stroke-width: 1.5;" width="10" x="852" y="302.5158"/><rect fill="#2D2D2D" height="5" style="stroke: #FFFFFF; stroke-width: 1.5;" width="10" x="852" y="345.6517"/><text fill="#FFFFFF" font-family="Monospace" font-size="14" lengthAdjust="spacingAndGlyphs" textLength="94" x="867" y="322.4818">CLI Command</text><text fill="#FFFFFF" font-family="Monospace" font-size="14" lengthAdjust="spacingAndGlyphs" textLength="72" x="867" y="341.5497">omniopt ...</text><!--MD5=[35c1068cf10654a3a88a78f31c30ad7d]
link GUI to CLI--><path d="M914,195.7658 C914,222.8358 914,263.7058 914,292.3158 " fill="none" id="GUI-&gt;CLI" style="stroke: #FFFFFF; stroke-width: 1.0; stroke-dasharray: 7.0,7.0;"/><polygon fill="#FFFFFF" points="914,297.5158,918,288.5158,914,292.5158,910,288.5158,914,297.5158" style="stroke: #FFFFFF; stroke-width: 1.0;"/><text fill="#FFFFFF" font-family="Monospace" font-size="11" lengthAdjust="spacingAndGlyphs" textLength="210" x="915" y="264.2748">Generates CLI Command to be executed</text><!--MD5=[bb07170366ce939dcc727915865a8aad]
link CLI to LocalCore--><path d="M944.51,355.6758 C1033.45,437.7558 1292.03,676.4058 1385.65,762.8158 " fill="none" id="CLI-&gt;LocalCore" style="stroke: #FFFFFF; stroke-width: 1.0;"/><polygon fill="#FFFFFF" points="1389.45,766.3158,1385.528,757.2816,1385.7678,762.9333,1380.116,763.1731,1389.45,766.3158" style="stroke: #FFFFFF; stroke-width: 1.0;"/><text fill="#FFFFFF" font-family="Monospace" font-size="11" lengthAdjust="spacingAndGlyphs" textLength="57" x="1226" y="586.2748">Run locally</text><!--MD5=[c27c3c7b98a2dd3503e29f99b530e9bd]
link LocalCore to LocalJobs1--><path d="M1357.27,805.7958 C1301.5,815.4758 1226.08,832.6058 1208,856.5158 C1203.71,862.1858 1204.34,866.4158 1208,872.5158 C1211.89,878.9958 1217.72,875.1158 1223,880.5158 C1235.64,893.4558 1244.63,911.8658 1250.33,926.4858 " fill="none" id="LocalCore-&gt;LocalJobs1" style="stroke: #FFFFFF; stroke-width: 1.0;"/><polygon fill="#FFFFFF" points="1252.14,931.2858,1252.7153,921.4538,1250.3797,926.606,1245.2275,924.2703,1252.14,931.2858" style="stroke: #FFFFFF; stroke-width: 1.0;"/><text fill="#FFFFFF" font-family="Monospace" font-size="11" lengthAdjust="spacingAndGlyphs" textLength="53" x="1209" y="869.2748">start job 1</text><!--MD5=[4eeaa9e26c347e59d17bf1e1a3b1be70]
link LocalJobs1 to LocalCore--><path d="M1270.18,931.4358 C1283.77,911.5158 1307.16,879.6558 1332,856.5158 C1343.18,846.0958 1356.32,836.1558 1368.98,827.4658 " fill="none" id="LocalJobs1-&gt;LocalCore" style="stroke: #FFFFFF; stroke-width: 1.0;"/><polygon fill="#FFFFFF" points="1373.25,824.5658,1363.5604,826.3299,1369.1186,827.3821,1368.0664,832.9402,1373.25,824.5658" style="stroke: #FFFFFF; stroke-width: 1.0;"/><text fill="#FFFFFF" font-family="Monospace" font-size="11" lengthAdjust="spacingAndGlyphs" textLength="72" x="1333" y="869.2748">return results</text><!--MD5=[cb8031634bd4e903ccabb5225de90d8b]
link LocalCore to LocalJobs2--><path d="M1414.61,824.8458 C1412.91,839.3758 1412.49,857.1858 1417,872.5158 C1423,892.8758 1436.19,912.9258 1447.51,927.5258 " fill="none" id="LocalCore-&gt;LocalJobs2" style="stroke: #FFFFFF; stroke-width: 1.0;"/><polygon fill="#FFFFFF" points="1450.65,931.5058,1448.1981,921.9671,1447.5458,927.5862,1441.9266,926.9339,1450.65,931.5058" style="stroke: #FFFFFF; stroke-width: 1.0;"/><text fill="#FFFFFF" font-family="Monospace" font-size="11" lengthAdjust="spacingAndGlyphs" textLength="53" x="1418" y="869.2748">start job 2</text><!--MD5=[814f6603e38c8b8987a1125c9d474155]
link LocalJobs2 to LocalCore--><path d="M1473.67,931.3958 C1479.51,912.0058 1485.69,881.0958 1476,856.5158 C1472,846.3758 1465.4,836.9358 1458.1,828.6958 " fill="none" id="LocalJobs2-&gt;LocalCore" style="stroke: #FFFFFF; stroke-width: 1.0;"/><polygon fill="#FFFFFF" points="1454.46,824.7358,1457.6027,834.0698,1457.8425,828.4181,1463.4943,828.6578,1454.46,824.7358" style="stroke: #FFFFFF; stroke-width: 1.0;"/><text fill="#FFFFFF" font-family="Monospace" font-size="11" lengthAdjust="spacingAndGlyphs" textLength="72" x="1480" y="869.2748">return results</text><!--MD5=[3d83dad48673b6a0e540888e983ac65e]
link LocalCore to LocalJobsN--><path d="M1482.54,818.8058 C1507.69,828.8658 1536.48,841.8058 1561,856.5158 C1595.6,877.2758 1631.1,907.4458 1653.56,927.8558 " fill="none" id="LocalCore-&gt;LocalJobsN" style="stroke: #FFFFFF; stroke-width: 1.0;"/><polygon fill="#FFFFFF" points="1657.32,931.2958,1653.3616,922.2775,1653.6242,927.9282,1647.9734,928.1908,1657.32,931.2958" style="stroke: #FFFFFF; stroke-width: 1.0;"/><text fill="#FFFFFF" font-family="Monospace" font-size="11" lengthAdjust="spacingAndGlyphs" textLength="54" x="1585" y="869.2748">start job n</text><!--MD5=[0cb1104b4ebfd97325a9a087985e8a2b]
link LocalJobsN to LocalCore--><path d="M1676.39,931.4658 C1674.67,910.3558 1668.62,876.2658 1648,856.5158 C1605.27,815.6058 1538.11,801.7658 1487.73,797.4658 " fill="none" id="LocalJobsN-&gt;LocalCore" style="stroke: #FFFFFF; stroke-width: 1.0;"/><polygon fill="#FFFFFF" points="1482.6,797.0558,1491.2513,801.7628,1487.584,797.4557,1491.8911,793.7884,1482.6,797.0558" style="stroke: #FFFFFF; stroke-width: 1.0;"/><text fill="#FFFFFF" font-family="Monospace" font-size="11" lengthAdjust="spacingAndGlyphs" textLength="72" x="1660" y="869.2748">return results</text><!--MD5=[3a314155df3c86a96c6dc817f2f42b38]
link LocalCore to LocalRuns--><path d="M1482.79,796.7858 C1565.15,799.9058 1711.35,815.1858 1815,880.5158 C1832.63,891.6258 1848.8,908.4958 1860.73,922.8358 " fill="none" id="LocalCore-&gt;LocalRuns" style="stroke: #FFFFFF; stroke-width: 1.0;"/><polygon fill="#FFFFFF" points="1863.98,926.8058,1861.3538,917.3136,1860.8045,922.9437,1855.1743,922.3944,1863.98,926.8058" style="stroke: #FFFFFF; stroke-width: 1.0;"/><text fill="#FFFFFF" font-family="Monospace" font-size="11" lengthAdjust="spacingAndGlyphs" textLength="80" x="1797" y="869.2748">write all results</text><!--MD5=[95ac879643d0f9a162a8988bbb1df057]
link LocalCore to OmniOpt2Server--><path d="M1357.4,800.7458 C1271.82,807.6558 1124.1,823.9958 1082,856.5158 C1064.27,870.2058 1053.6,892.9158 1047.31,912.5258 " fill="none" id="LocalCore-&gt;OmniOpt2Server" style="stroke: #FFFFFF; stroke-width: 1.0; stroke-dasharray: 7.0,7.0;"/><polygon fill="#FFFFFF" points="1045.81,917.4358,1052.258,909.9912,1047.2664,912.6526,1044.6049,907.661,1045.81,917.4358" style="stroke: #FFFFFF; stroke-width: 1.0;"/><text fill="#FFFFFF" font-family="Monospace" font-size="11" lengthAdjust="spacingAndGlyphs" textLength="113" x="1083" y="869.2748">--live_share (optional)</text><!--MD5=[800e0e0bb90fb898e4eff9c9cad77fdf]
link CLI to LoginNode--><path d="M881.75,355.5558 C828.89,401.5058 723.87,492.8158 665.18,543.8458 " fill="none" id="CLI-&gt;LoginNode" style="stroke: #FFFFFF; stroke-width: 1.0;"/><polygon fill="#FFFFFF" points="661.38,547.1458,670.7997,544.2702,665.157,543.8696,665.5576,538.2269,661.38,547.1458" style="stroke: #FFFFFF; stroke-width: 1.0;"/><text fill="#FFFFFF" font-family="Monospace" font-size="11" lengthAdjust="spacingAndGlyphs" textLength="47" x="844" y="398.2748">ssh login</text><!--MD5=[0c619afe08a0a430c7a3ffb1ff1eec8b]
link LoginNode to HPCMaster--><path d="M615.97,615.6358 C607.55,655.3158 593.52,721.3958 585.08,761.1658 " fill="none" id="LoginNode-&gt;HPCMaster" style="stroke: #FFFFFF; stroke-width: 1.0;"/><polygon fill="#FFFFFF" points="583.98,766.3658,589.7659,758.3957,585.0208,761.4754,581.9411,756.7303,583.98,766.3658" style="stroke: #FFFFFF; stroke-width: 1.0;"/><text fill="#FFFFFF" font-family="Monospace" font-size="11" lengthAdjust="spacingAndGlyphs" textLength="89" x="609" y="658.2748">sbatch command</text><!--MD5=[d73132a875438189b2b3ce4229eb2a32]
link HPCMaster to Job1--><path d="M515.45,796.7658 C416.8,798.6358 232.03,808.6358 191,856.5158 C174.01,876.3458 187.12,906.4258 200.11,927.0858 " fill="none" id="HPCMaster-&gt;Job1" style="stroke: #FFFFFF; stroke-width: 1.0;"/><polygon fill="#FFFFFF" points="202.87,931.3458,201.3212,921.6195,200.1461,927.153,194.6126,925.9778,202.87,931.3458" style="stroke: #FFFFFF; stroke-width: 1.0;"/><text fill="#FFFFFF" font-family="Monospace" font-size="11" lengthAdjust="spacingAndGlyphs" textLength="36" x="192" y="869.2748">submit</text><!--MD5=[0361fc0b2f9e0c1d656e25018cbd835c]
link Job1 to HPCMaster--><path d="M227.3,931.3458 C240.21,909.7958 264.4,874.9558 295,856.5158 C361.11,816.6858 449.83,803.0558 510.2,798.5158 " fill="none" id="Job1-&gt;HPCMaster" style="stroke: #FFFFFF; stroke-width: 1.0;"/><polygon fill="#FFFFFF" points="515.22,798.1558,505.9572,794.8091,510.2328,798.5131,506.5288,802.7887,515.22,798.1558" style="stroke: #FFFFFF; stroke-width: 1.0;"/><text fill="#FFFFFF" font-family="Monospace" font-size="11" lengthAdjust="spacingAndGlyphs" textLength="72" x="296" y="869.2748">return results</text><!--MD5=[76de094807e8008348a742240e8dbe38]
link HPCMaster to Job2--><path d="M515.15,797.4558 C470.41,801.8258 413.09,815.7758 383,856.5158 C366.99,878.1858 383.92,907.5558 400,927.5558 " fill="none" id="HPCMaster-&gt;Job2" style="stroke: #FFFFFF; stroke-width: 1.0;"/><polygon fill="#FFFFFF" points="403.19,931.4258,400.5428,921.9394,400.006,927.5707,394.3746,927.0339,403.19,931.4258" style="stroke: #FFFFFF; stroke-width: 1.0;"/><text fill="#FFFFFF" font-family="Monospace" font-size="11" lengthAdjust="spacingAndGlyphs" textLength="36" x="384" y="869.2748">submit</text><!--MD5=[dac3ded752d84de080905c6c3483a0d1]
link Job2 to HPCMaster--><path d="M432.1,931.3658 C444.56,911.3858 466.17,879.4658 490,856.5158 C500.89,846.0258 513.8,836.1158 526.33,827.4858 " fill="none" id="Job2-&gt;HPCMaster" style="stroke: #FFFFFF; stroke-width: 1.0;"/><polygon fill="#FFFFFF" points="530.56,824.6158,520.8704,826.3799,526.4286,827.4321,525.3764,832.9902,530.56,824.6158" style="stroke: #FFFFFF; stroke-width: 1.0;"/><text fill="#FFFFFF" font-family="Monospace" font-size="11" lengthAdjust="spacingAndGlyphs" textLength="72" x="491" y="869.2748">return results</text><!--MD5=[d49c4ab690e9114edc7d2c3d09ac25fe]
link HPCMaster to Job3--><path d="M573.1,824.7058 C571.53,839.2058 571.07,857.0258 575,872.5158 C579.98,892.1458 591.03,912.1858 600.55,926.9658 " fill="none" id="HPCMaster-&gt;Job3" style="stroke: #FFFFFF; stroke-width: 1.0;"/><polygon fill="#FFFFFF" points="603.44,931.3858,601.8376,921.6682,600.693,927.2081,595.1531,926.0635,603.44,931.3858" style="stroke: #FFFFFF; stroke-width: 1.0;"/><text fill="#FFFFFF" font-family="Monospace" font-size="11" lengthAdjust="spacingAndGlyphs" textLength="36" x="576" y="869.2748">submit</text><!--MD5=[0b084569a1b025af739eee478835d34a]
link Job3 to HPCMaster--><path d="M620.07,931.2958 C622.51,912.0958 624.43,881.5758 617,856.5158 C614.2,847.0658 609.39,837.7158 604.09,829.3058 " fill="none" id="Job3-&gt;HPCMaster" style="stroke: #FFFFFF; stroke-width: 1.0;"/><polygon fill="#FFFFFF" points="601.1,824.7358,602.6639,834.4597,603.8305,828.9245,609.3657,830.091,601.1,824.7358" style="stroke: #FFFFFF; stroke-width: 1.0;"/><text fill="#FFFFFF" font-family="Monospace" font-size="11" lengthAdjust="spacingAndGlyphs" textLength="72" x="621" y="869.2748">return results</text><!--MD5=[571935b6720c67f63951b3fde5967843]
link HPCMaster to HPCRuns--><path d="M640.79,823.8958 C660.81,833.4158 682.74,844.6858 702,856.5158 C712,862.6558 713.4,865.7758 723,872.5158 C748.6,890.4958 778.11,909.5758 801.46,924.3058 " fill="none" id="HPCMaster-&gt;HPCRuns" style="stroke: #FFFFFF; stroke-width: 1.0;"/><polygon fill="#FFFFFF" points="805.75,927.0058,800.2776,918.8173,801.5229,924.3353,796.0048,925.5806,805.75,927.0058" style="stroke: #FFFFFF; stroke-width: 1.0;"/><text fill="#FFFFFF" font-family="Monospace" font-size="11" lengthAdjust="spacingAndGlyphs" textLength="65" x="724" y="869.2748">write results</text><!--MD5=[9b4661392c5508d5bc2f8f38988871a1]
link HPCMaster to OmniOpt2Server--><path d="M640.79,803.0158 C715.12,812.4958 841.25,834.2958 940,880.5158 C959.11,889.4558 978.47,902.0958 994.94,914.1358 " fill="none" id="HPCMaster-&gt;OmniOpt2Server" style="stroke: #FFFFFF; stroke-width: 1.0; stroke-dasharray: 7.0,7.0;"/><polygon fill="#FFFFFF" points="999.07,917.1858,994.216,908.6162,995.0512,914.2111,989.4563,915.0463,999.07,917.1858" style="stroke: #FFFFFF; stroke-width: 1.0;"/><text fill="#FFFFFF" font-family="Monospace" font-size="11" lengthAdjust="spacingAndGlyphs" textLength="113" x="922" y="869.2748">--live_share (optional)</text><!--MD5=[4c87f8419e5a0024e98f62e28c7f1cf6]
@startuml

  skinparam backgroundColor #000000
  skinparam defaultFontColor #ffffff
  skinparam titleFontColor #ffffff
  skinparam componentFontColor #ffffff
  skinparam nodeFontColor #ffffff
  skinparam databaseFontColor #ffffff
  skinparam arrowColor #ffffff
  skinparam ArrowFontColor #ffffff

  skinparam componentBackgroundColor #2d2d2d
  skinparam nodeBackgroundColor #2d2d2d
  skinparam databaseBackgroundColor #2d2d2d
  skinparam packageBackgroundColor #2d2d2d
  skinparam cloudBackgroundColor #2d2d2d

  skinparam componentBorderColor #ffffff
  skinparam nodeBorderColor #ffffff
  skinparam databaseBorderColor #ffffff
  skinparam packageBorderColor #ffffff
  skinparam cloudBorderColor #ffffff
  skinparam rectangleBorderColor #ffffff

skinparam componentStyle rectangle
skinparam defaultFontName Monospace
skinparam ArrowFontSize 11

title OmniOpt2 Architecture

package "User Interface" {
  node "User" {
    component "Web GUI\n(optional)" as GUI
  }
}

component "CLI Command\nomniopt ..." as CLI

package "OmniOpt2 Workflow" {


  GUI ..> CLI : Generates CLI Command to be executed

  database "OmniOpt2 Server\n(optional, Live-Share)" as OmniOpt2Server

  package "Local Mode" {
	  database "runs/ (local)" as LocalRuns

	  node "Local System" {
		  component "OmniOpt2 Core\n(main script)" as LocalCore
			  component "Job #1" as LocalJobs1
			  component "Job #2" as LocalJobs2
			  component "Job #n" as LocalJobsN
	  }

	  CLI - -> LocalCore : Run locally

		  LocalCore - -> LocalJobs1 : start job 1
		  LocalJobs1 - -> LocalCore : return results

		  LocalCore - -> LocalJobs2 : start job 2
		  LocalJobs2 - -> LocalCore : return results

		  LocalCore - -> LocalJobsN : start job n
		  LocalJobsN - -> LocalCore : return results

		  LocalCore - -> LocalRuns : write all results

		  LocalCore ..> OmniOpt2Server : - -live_share (optional)
  }

  package "HPC Mode (via submitit/sbatch)" {

    cloud "HPC" {

      node "Login Node\n(sbatch only)" as LoginNode

      node "Head Node" {
        component "OmniOpt2 Core\n(main script)" as HPCMaster
      }

      node "Compute Node 1" {
        component "Job #1" as Job1
      }

      node "Compute Node 2" {
        component "Job #2" as Job2
      }

      node "Compute Node n" {
        component "Job #n" as Job3
      }
    }

    database "runs/ (on file system)" as HPCRuns

    CLI - -> LoginNode : ssh login
    LoginNode - -> HPCMaster : sbatch command

    HPCMaster - -> Job1 : submit
    HPCMaster - -> Job2 : submit
    HPCMaster - -> Job3 : submit

    Job1 -down-> HPCMaster : return results
    Job2 -down-> HPCMaster : return results
    Job3 -down-> HPCMaster : return results

    HPCMaster - -> HPCRuns : write results
    HPCMaster ..> OmniOpt2Server : - -live_share (optional)
  }
}

@enduml

PlantUML version 1.2020.02(Sun Mar 01 11:22:07 CET 2020)
(GPL source distribution)
Java Runtime: OpenJDK Runtime Environment
JVM: OpenJDK 64-Bit Server VM
Java Version: 11.0.26+4-post-Debian-1
Operating System: Linux
Default Encoding: UTF-8
Language: de
Country: DE
--></g></svg>