<?xml version="1.0" encoding="UTF-8" standalone="no"?><svg xmlns="http://www.w3.org/2000/svg" xmlns:xlink="http://www.w3.org/1999/xlink" contentScriptType="application/ecmascript" contentStyleType="text/css" height="1017px" preserveAspectRatio="none" style="width:1982px;height:1017px;background:#000000;" version="1.1" viewBox="0 0 1982 1017" width="1982px" zoomAndPan="magnify"><defs><filter height="300%" id="f1joohj8p7k0yg" width="300%" x="-1" y="-1"><feGaussianBlur result="blurOut" stdDeviation="2.0"/><feColorMatrix in="blurOut" result="blurOut2" type="matrix" values="0 0 0 0 0 0 0 0 0 0 0 0 0 0 0 0 0 0 .4 0"/><feOffset dx="4.0" dy="4.0" in="blurOut2" result="blurOut3"/><feBlend in="SourceGraphic" in2="blurOut3" mode="normal"/></filter></defs><g><text fill="#FFFFFF" font-family="Monospace" font-size="18" lengthAdjust="spacingAndGlyphs" textLength="199" x="897.5" y="19.2419">OmniOpt2 Architecture</text><!--MD5=[3fc59b17a2df0e8aa43d25b99d46893c]
cluster User Interface--><polygon fill="#2D2D2D" filter="url(#f1joohj8p7k0yg)" points="674,49.0158,778,49.0158,785,74.0838,838,74.0838,838,236.0158,674,236.0158,674,49.0158" style="stroke: #FFFFFF; stroke-width: 1.5;"/><line style="stroke: #FFFFFF; stroke-width: 1.5;" x1="674" x2="785" y1="74.0838" y2="74.0838"/><text fill="#FFFFFF" font-family="Monospace" font-size="14" font-weight="bold" lengthAdjust="spacingAndGlyphs" textLength="98" x="678" y="65.9818">User Interface</text><!--MD5=[d0083cf0b2d9f17e335f85bf9624e57e]
cluster User--><polygon fill="#2D2D2D" filter="url(#f1joohj8p7k0yg)" points="698,105.0158,708,95.0158,814,95.0158,814,202.0158,804,212.0158,698,212.0158,698,105.0158" style="stroke: #FFFFFF; stroke-width: 1.5;"/><line style="stroke: #FFFFFF; stroke-width: 1.5;" x1="804" x2="813" y1="105.0158" y2="96.0158"/><line style="stroke: #FFFFFF; stroke-width: 1.5;" x1="698" x2="804" y1="105.0158" y2="105.0158"/><line style="stroke: #FFFFFF; stroke-width: 1.5;" x1="804" x2="804" y1="105.0158" y2="212.0158"/><text fill="#FFFFFF" font-family="Monospace" font-size="14" font-weight="bold" lengthAdjust="spacingAndGlyphs" textLength="32" x="736" y="122.9818">User</text><!--MD5=[6f2137f269eb2ba82dff926d1268b8a6]
cluster OmniOpt2 Workflow--><polygon fill="#2D2D2D" filter="url(#f1joohj8p7k0yg)" points="22,284.0158,172,284.0158,179,309.0838,1960,309.0838,1960,1005.5158,22,1005.5158,22,284.0158" style="stroke: #FFFFFF; stroke-width: 1.5;"/><line style="stroke: #FFFFFF; stroke-width: 1.5;" x1="22" x2="179" y1="309.0838" y2="309.0838"/><text fill="#FFFFFF" font-family="Monospace" font-size="14" font-weight="bold" lengthAdjust="spacingAndGlyphs" textLength="144" x="26" y="300.9818">OmniOpt2 Workflow</text><!--MD5=[068ab849e982e95724e818cf5ecc07ce]
cluster Local Mode--><polygon fill="#2D2D2D" filter="url(#f1joohj8p7k0yg)" points="46,442.0158,131,442.0158,138,467.0838,857,467.0838,857,787.5158,46,787.5158,46,442.0158" style="stroke: #FFFFFF; stroke-width: 1.5;"/><line style="stroke: #FFFFFF; stroke-width: 1.5;" x1="46" x2="138" y1="467.0838" y2="467.0838"/><text fill="#FFFFFF" font-family="Monospace" font-size="14" font-weight="bold" lengthAdjust="spacingAndGlyphs" textLength="79" x="50" y="458.9818">Local Mode</text><!--MD5=[494d5f1c0bba01068cf8e38a0ae48f2b]
cluster Local System--><polygon fill="#2D2D2D" filter="url(#f1joohj8p7k0yg)" points="70,498.0158,80,488.0158,725,488.0158,725,753.5158,715,763.5158,70,763.5158,70,498.0158" style="stroke: #FFFFFF; stroke-width: 1.5;"/><line style="stroke: #FFFFFF; stroke-width: 1.5;" x1="715" x2="724" y1="498.0158" y2="489.0158"/><line style="stroke: #FFFFFF; stroke-width: 1.5;" x1="70" x2="715" y1="498.0158" y2="498.0158"/><line style="stroke: #FFFFFF; stroke-width: 1.5;" x1="715" x2="715" y1="498.0158" y2="763.5158"/><text fill="#FFFFFF" font-family="Monospace" font-size="14" font-weight="bold" lengthAdjust="spacingAndGlyphs" textLength="91" x="348" y="515.9818">Local System</text><!--MD5=[8c9472c44c824e4c2cc3dfcfbb71d530]
cluster HPC Mode (via submitit/sbatch)--><polygon fill="#2D2D2D" filter="url(#f1joohj8p7k0yg)" points="1042,442.0158,1269,442.0158,1276,467.0838,1936,467.0838,1936,981.5158,1042,981.5158,1042,442.0158" style="stroke: #FFFFFF; stroke-width: 1.5;"/><line style="stroke: #FFFFFF; stroke-width: 1.5;" x1="1042" x2="1276" y1="467.0838" y2="467.0838"/><text fill="#FFFFFF" font-family="Monospace" font-size="14" font-weight="bold" lengthAdjust="spacingAndGlyphs" textLength="221" x="1046" y="458.9818">HPC Mode (via submitit/sbatch)</text><!--MD5=[f47ff5492917336f42ec66f20ec4a271]
cluster HPC--><path d="M1086.7301,497.7745 C1101.8831,480.0267 1118.4317,474.9172 1131.4644,499.9895 C1144.5641,477.381 1159.2642,474.8573 1175.4251,496.9811 C1189.9998,477.322 1207.6952,476.5161 1222.2974,496.9488 C1241.7632,477.1641 1258.0506,476.0222 1272.59,502.3247 C1280.0754,477.8364 1302.8495,475.5887 1317.8723,494.4514 C1334.2922,472.418 1351.7979,474.359 1364.2082,498.477 C1375.3061,474.1986 1397.7334,470.756 1411.4736,495.9528 C1428.9246,474.2586 1441.4867,479.3038 1454.2692,500.6001 C1465.5513,478.6722 1484.8218,469.3581 1502.5214,493.9425 C1518.1522,474.707 1533.0683,473.1083 1546.3892,496.3293 C1561.6402,474.2276 1579.1813,472.6959 1595.6702,494.9541 C1613.5551,474.401 1629.514,480.4273 1638.8834,503.4071 C1650.6245,483.6478 1669.8405,480.6798 1684.7967,499.5897 C1702.8122,480.2172 1719.004,479.0243 1734,503.0158 C1736.6398,503.7089 1737.5237,505.3719 1736.1719,507.8561 C1758.9574,518.0203 1760.038,538.2604 1741.1502,553.0184 C1757.7497,567.9776 1754.2149,581.9673 1736.0583,592.4368 C1754.3692,604.5924 1759.7395,622.3933 1736.974,635.424 C1759.6056,646.4438 1763.2828,667.1796 1740.5835,681.7327 C1758.9423,696.9382 1762.1256,710.1302 1738.9732,723.7445 C1762.3092,737.1284 1760.9421,750.6912 1743.0719,767.9 C1769.0204,783.3857 1769.3781,801.5453 1743.1485,817.1121 C1764.1292,834.9894 1758.6191,848.9173 1738.5203,862.6165 C1761.0516,875.5706 1757.9525,890.6967 1738.5199,903.6504 C1758.0318,923.7683 1749.2254,939.881 1727,949.5158 C1729.9992,946.369 1733.6629,946.3446 1735.0067,951.177 C1721.4207,972.7583 1696.5295,971.2941 1683.8482,950.0952 C1674.8755,972.6873 1656.8224,975.706 1642.3197,955.4557 C1630.7881,974.7929 1608.1405,976.3167 1596.7614,955.2837 C1580.108,979.3145 1561.8645,984.7486 1543.7876,956.7325 C1532.2289,977.3256 1514.4906,974.7114 1504.5677,955.1355 C1490.9468,975.4254 1466.3452,979.2229 1453.9269,953.8031 C1440.4556,974.6243 1418.9987,975.3049 1407.5936,951.6506 C1393.3894,972.8805 1371.6008,971.5589 1358.0141,950.9194 C1348.2328,971.9102 1328.3384,971.297 1316.2964,953.3409 C1305.9843,972.8581 1286.7317,976.2585 1272.1675,958.3553 C1257.0956,977.1666 1233.9371,975.0573 1223.4507,952.9022 C1207.3781,972.1324 1190.25,973.4078 1176.2237,950.6032 C1165.0872,970.1977 1143.0447,974.4423 1130.9353,951.6424 C1109.4056,971.8301 1087.3412,973.4116 1074,942.5158 C1076.6288,940.3873 1078.3608,941.0913 1079.4095,944.1604 C1064.5618,931.0592 1065.016,918.3411 1081.4264,906.9335 C1060.6176,894.5132 1055.6257,881.7225 1074.1707,862.8282 C1050.6763,850.273 1052.6774,826.3336 1072.9455,812.7086 C1049.9856,795.9065 1050.921,782.3145 1075.208,767.8979 C1058.1601,753.7904 1054.9216,739.8682 1074.98,725.5608 C1051.8911,709.7993 1057.3593,692.4803 1078.1204,679.7231 C1056.1026,670.5021 1058.3879,655.8422 1072.538,641.3585 C1051.7409,621.9385 1055.9841,607.1895 1079.7631,594.6673 C1057.9554,583.7709 1054.8741,570.2783 1073.6202,553.3522 C1050.2875,533.7574 1049.1724,508.5108 1081,496.0158 C1083.4176,494.1801 1085.9284,494.3454 1086.7301,497.7745 " fill="#2D2D2D" style="stroke: #FFFFFF; stroke-width: 1.5;"/><text fill="#FFFFFF" font-family="Monospace" font-size="14" font-weight="bold" lengthAdjust="spacingAndGlyphs" textLength="29" x="1389.5" y="515.9818">HPC</text><!--MD5=[4f140ef10277af62a9bbfeabfb64c237]
cluster Head Node--><polygon fill="#2D2D2D" filter="url(#f1joohj8p7k0yg)" points="1230,666.0158,1240,656.0158,1388,656.0158,1388,763.0158,1378,773.0158,1230,773.0158,1230,666.0158" style="stroke: #FFFFFF; stroke-width: 1.5;"/><line style="stroke: #FFFFFF; stroke-width: 1.5;" x1="1378" x2="1387" y1="666.0158" y2="657.0158"/><line style="stroke: #FFFFFF; stroke-width: 1.5;" x1="1230" x2="1378" y1="666.0158" y2="666.0158"/><line style="stroke: #FFFFFF; stroke-width: 1.5;" x1="1378" x2="1378" y1="666.0158" y2="773.0158"/><text fill="#FFFFFF" font-family="Monospace" font-size="14" font-weight="bold" lengthAdjust="spacingAndGlyphs" textLength="77" x="1266.5" y="683.9818">Head Node</text><!--MD5=[7018e2f8ec6c3126037d80ab91f6880d]
cluster Compute Node 1--><polygon fill="#2D2D2D" filter="url(#f1joohj8p7k0yg)" points="1090,845.5158,1100,835.5158,1283,835.5158,1283,923.5158,1273,933.5158,1090,933.5158,1090,845.5158" style="stroke: #FFFFFF; stroke-width: 1.5;"/><line style="stroke: #FFFFFF; stroke-width: 1.5;" x1="1273" x2="1282" y1="845.5158" y2="836.5158"/><line style="stroke: #FFFFFF; stroke-width: 1.5;" x1="1090" x2="1273" y1="845.5158" y2="845.5158"/><line style="stroke: #FFFFFF; stroke-width: 1.5;" x1="1273" x2="1273" y1="845.5158" y2="933.5158"/><text fill="#FFFFFF" font-family="Monospace" font-size="14" font-weight="bold" lengthAdjust="spacingAndGlyphs" textLength="117" x="1124" y="863.4818">Compute Node 1</text><!--MD5=[87367e987a291b585b0318bcf694b76e]
cluster Compute Node 2--><polygon fill="#2D2D2D" filter="url(#f1joohj8p7k0yg)" points="1307,845.5158,1317,835.5158,1500,835.5158,1500,923.5158,1490,933.5158,1307,933.5158,1307,845.5158" style="stroke: #FFFFFF; stroke-width: 1.5;"/><line style="stroke: #FFFFFF; stroke-width: 1.5;" x1="1490" x2="1499" y1="845.5158" y2="836.5158"/><line style="stroke: #FFFFFF; stroke-width: 1.5;" x1="1307" x2="1490" y1="845.5158" y2="845.5158"/><line style="stroke: #FFFFFF; stroke-width: 1.5;" x1="1490" x2="1490" y1="845.5158" y2="933.5158"/><text fill="#FFFFFF" font-family="Monospace" font-size="14" font-weight="bold" lengthAdjust="spacingAndGlyphs" textLength="117" x="1341" y="863.4818">Compute Node 2</text><!--MD5=[611865159834dcb625bf3423a333d68b]
cluster Compute Node n--><polygon fill="#2D2D2D" filter="url(#f1joohj8p7k0yg)" points="1524,845.5158,1534,835.5158,1718,835.5158,1718,923.5158,1708,933.5158,1524,933.5158,1524,845.5158" style="stroke: #FFFFFF; stroke-width: 1.5;"/><line style="stroke: #FFFFFF; stroke-width: 1.5;" x1="1708" x2="1717" y1="845.5158" y2="836.5158"/><line style="stroke: #FFFFFF; stroke-width: 1.5;" x1="1524" x2="1708" y1="845.5158" y2="845.5158"/><line style="stroke: #FFFFFF; stroke-width: 1.5;" x1="1708" x2="1708" y1="845.5158" y2="933.5158"/><text fill="#FFFFFF" font-family="Monospace" font-size="14" font-weight="bold" lengthAdjust="spacingAndGlyphs" textLength="118" x="1558" y="863.4818">Compute Node n</text><!--MD5=[beb5ad5244d3d849df9473931f7c2e5e]
entity GUI--><rect fill="#2D2D2D" filter="url(#f1joohj8p7k0yg)" height="58.1358" style="stroke: #FFFFFF; stroke-width: 1.5;" width="83" x="714.5" y="138.0158"/><rect fill="#2D2D2D" height="5" style="stroke: #FFFFFF; stroke-width: 1.5;" width="10" x="709.5" y="143.0158"/><rect fill="#2D2D2D" height="5" style="stroke: #FFFFFF; stroke-width: 1.5;" width="10" x="709.5" y="186.1517"/><text fill="#FFFFFF" font-family="Monospace" font-size="14" lengthAdjust="spacingAndGlyphs" textLength="59" x="724.5" y="162.9818">Web GUI</text><text fill="#FFFFFF" font-family="Monospace" font-size="14" lengthAdjust="spacingAndGlyphs" textLength="63" x="724.5" y="182.0497">(optional)</text><!--MD5=[df6a39b053164d23cc3ecae9c3484a54]
entity CLI--><rect fill="#2D2D2D" filter="url(#f1joohj8p7k0yg)" height="58.1358" style="stroke: #FFFFFF; stroke-width: 1.5;" width="114" x="699" y="322.0158"/><rect fill="#2D2D2D" height="5" style="stroke: #FFFFFF; stroke-width: 1.5;" width="10" x="694" y="327.0158"/><rect fill="#2D2D2D" height="5" style="stroke: #FFFFFF; stroke-width: 1.5;" width="10" x="694" y="370.1517"/><text fill="#FFFFFF" font-family="Monospace" font-size="14" lengthAdjust="spacingAndGlyphs" textLength="94" x="709" y="346.9818">CLI Command</text><text fill="#FFFFFF" font-family="Monospace" font-size="14" lengthAdjust="spacingAndGlyphs" textLength="72" x="709" y="366.0497">omniopt ...</text><!--MD5=[6701a3ea7878410edba432ced09d8d77]
entity OmniOpt2Server--><path d="M847.5,874.5158 C847.5,864.5158 928,864.5158 928,864.5158 C928,864.5158 1008.5,864.5158 1008.5,874.5158 L1008.5,921.6517 C1008.5,931.6517 928,931.6517 928,931.6517 C928,931.6517 847.5,931.6517 847.5,921.6517 L847.5,874.5158 " fill="#2D2D2D" filter="url(#f1joohj8p7k0yg)" style="stroke: #FFFFFF; stroke-width: 1.5;"/><path d="M847.5,874.5158 C847.5,884.5158 928,884.5158 928,884.5158 C928,884.5158 1008.5,884.5158 1008.5,874.5158 " fill="none" style="stroke: #FFFFFF; stroke-width: 1.5;"/><text fill="#FFFFFF" font-family="Monospace" font-size="14" lengthAdjust="spacingAndGlyphs" textLength="117" x="857.5" y="903.4818">OmniOpt2 Server</text><text fill="#FFFFFF" font-family="Monospace" font-size="14" lengthAdjust="spacingAndGlyphs" textLength="141" x="857.5" y="922.5497">(optional, Live-Share)</text><!--MD5=[feac20ec967ba8193586f5464e6c98c7]
entity LocalRuns--><path d="M741.5,714.0158 C741.5,704.0158 791,704.0158 791,704.0158 C791,704.0158 840.5,704.0158 840.5,714.0158 L840.5,742.0838 C840.5,752.0838 791,752.0838 791,752.0838 C791,752.0838 741.5,752.0838 741.5,742.0838 L741.5,714.0158 " fill="#2D2D2D" filter="url(#f1joohj8p7k0yg)" style="stroke: #FFFFFF; stroke-width: 1.5;"/><path d="M741.5,714.0158 C741.5,724.0158 791,724.0158 791,724.0158 C791,724.0158 840.5,724.0158 840.5,714.0158 " fill="none" style="stroke: #FFFFFF; stroke-width: 1.5;"/><text fill="#FFFFFF" font-family="Monospace" font-size="14" lengthAdjust="spacingAndGlyphs" textLength="79" x="751.5" y="742.9818">runs/ (local)</text><!--MD5=[119bd4be733b4c7d33357554b14c3254]
entity LocalCore--><rect fill="#2D2D2D" filter="url(#f1joohj8p7k0yg)" height="58.1358" style="stroke: #FFFFFF; stroke-width: 1.5;" width="125" x="476.5" y="531.0158"/><rect fill="#2D2D2D" height="5" style="stroke: #FFFFFF; stroke-width: 1.5;" width="10" x="471.5" y="536.0158"/><rect fill="#2D2D2D" height="5" style="stroke: #FFFFFF; stroke-width: 1.5;" width="10" x="471.5" y="579.1517"/><text fill="#FFFFFF" font-family="Monospace" font-size="14" lengthAdjust="spacingAndGlyphs" textLength="105" x="486.5" y="555.9818">OmniOpt2 Core</text><text fill="#FFFFFF" font-family="Monospace" font-size="14" lengthAdjust="spacingAndGlyphs" textLength="84" x="486.5" y="575.0497">(main script)</text><!--MD5=[d2fc6cf2bce407d526ef15191755a4fd]
entity LocalJobs1--><rect fill="#2D2D2D" filter="url(#f1joohj8p7k0yg)" height="39.0679" style="stroke: #FFFFFF; stroke-width: 1.5;" width="62" x="137" y="708.5158"/><rect fill="#2D2D2D" height="5" style="stroke: #FFFFFF; stroke-width: 1.5;" width="10" x="132" y="713.5158"/><rect fill="#2D2D2D" height="5" style="stroke: #FFFFFF; stroke-width: 1.5;" width="10" x="132" y="737.5838"/><text fill="#FFFFFF" font-family="Monospace" font-size="14" lengthAdjust="spacingAndGlyphs" textLength="42" x="147" y="733.4818">Job #1</text><!--MD5=[e40594d447fda55db88d25f62754828c]
entity LocalJobs2--><rect fill="#2D2D2D" filter="url(#f1joohj8p7k0yg)" height="39.0679" style="stroke: #FFFFFF; stroke-width: 1.5;" width="62" x="346" y="708.5158"/><rect fill="#2D2D2D" height="5" style="stroke: #FFFFFF; stroke-width: 1.5;" width="10" x="341" y="713.5158"/><rect fill="#2D2D2D" height="5" style="stroke: #FFFFFF; stroke-width: 1.5;" width="10" x="341" y="737.5838"/><text fill="#FFFFFF" font-family="Monospace" font-size="14" lengthAdjust="spacingAndGlyphs" textLength="42" x="356" y="733.4818">Job #2</text><!--MD5=[21263cadb4f481f7ee75bf6952ec9ed8]
entity LocalJobsN--><rect fill="#2D2D2D" filter="url(#f1joohj8p7k0yg)" height="39.0679" style="stroke: #FFFFFF; stroke-width: 1.5;" width="63" x="555.5" y="708.5158"/><rect fill="#2D2D2D" height="5" style="stroke: #FFFFFF; stroke-width: 1.5;" width="10" x="550.5" y="713.5158"/><rect fill="#2D2D2D" height="5" style="stroke: #FFFFFF; stroke-width: 1.5;" width="10" x="550.5" y="737.5838"/><text fill="#FFFFFF" font-family="Monospace" font-size="14" lengthAdjust="spacingAndGlyphs" textLength="43" x="565.5" y="733.4818">Job #n</text><!--MD5=[ad168f425ab565e150e1a97e9229db73]
entity HPCRuns--><path d="M1758.5,884.0158 C1758.5,874.0158 1839,874.0158 1839,874.0158 C1839,874.0158 1919.5,874.0158 1919.5,884.0158 L1919.5,912.0838 C1919.5,922.0838 1839,922.0838 1839,922.0838 C1839,922.0838 1758.5,922.0838 1758.5,912.0838 L1758.5,884.0158 " fill="#2D2D2D" filter="url(#f1joohj8p7k0yg)" style="stroke: #FFFFFF; stroke-width: 1.5;"/><path d="M1758.5,884.0158 C1758.5,894.0158 1839,894.0158 1839,894.0158 C1839,894.0158 1919.5,894.0158 1919.5,884.0158 " fill="none" style="stroke: #FFFFFF; stroke-width: 1.5;"/><text fill="#FFFFFF" font-family="Monospace" font-size="14" lengthAdjust="spacingAndGlyphs" textLength="141" x="1768.5" y="912.9818">runs/ (on file system)</text><!--MD5=[1e30e967108d4cd087a1e501a36a7024]
entity LoginNode--><polygon fill="#2D2D2D" filter="url(#f1joohj8p7k0yg)" points="1164.5,536.0158,1174.5,526.0158,1289.5,526.0158,1289.5,584.1517,1279.5,594.1517,1164.5,594.1517,1164.5,536.0158" style="stroke: #FFFFFF; stroke-width: 1.5;"/><line style="stroke: #FFFFFF; stroke-width: 1.5;" x1="1279.5" x2="1288.5" y1="536.0158" y2="527.0158"/><line style="stroke: #FFFFFF; stroke-width: 1.5;" x1="1164.5" x2="1279.5" y1="536.0158" y2="536.0158"/><line style="stroke: #FFFFFF; stroke-width: 1.5;" x1="1279.5" x2="1279.5" y1="536.0158" y2="594.1517"/><text fill="#FFFFFF" font-family="Monospace" font-size="14" lengthAdjust="spacingAndGlyphs" textLength="77" x="1179.5" y="560.9818">Login Node</text><text fill="#FFFFFF" font-family="Monospace" font-size="14" lengthAdjust="spacingAndGlyphs" textLength="85" x="1179.5" y="580.0497">(sbatch only)</text><!--MD5=[0ca049598cf64d5a8f9e0a6c16d5d1d0]
entity HPCMaster--><rect fill="#2D2D2D" filter="url(#f1joohj8p7k0yg)" height="58.1358" style="stroke: #FFFFFF; stroke-width: 1.5;" width="125" x="1246.5" y="699.0158"/><rect fill="#2D2D2D" height="5" style="stroke: #FFFFFF; stroke-width: 1.5;" width="10" x="1241.5" y="704.0158"/><rect fill="#2D2D2D" height="5" style="stroke: #FFFFFF; stroke-width: 1.5;" width="10" x="1241.5" y="747.1517"/><text fill="#FFFFFF" font-family="Monospace" font-size="14" lengthAdjust="spacingAndGlyphs" textLength="105" x="1256.5" y="723.9818">OmniOpt2 Core</text><text fill="#FFFFFF" font-family="Monospace" font-size="14" lengthAdjust="spacingAndGlyphs" textLength="84" x="1256.5" y="743.0497">(main script)</text><!--MD5=[47e052b533fd8425fd8ca2757eeea134]
entity Job1--><rect fill="#2D2D2D" filter="url(#f1joohj8p7k0yg)" height="39.0679" style="stroke: #FFFFFF; stroke-width: 1.5;" width="62" x="1135" y="878.5158"/><rect fill="#2D2D2D" height="5" style="stroke: #FFFFFF; stroke-width: 1.5;" width="10" x="1130" y="883.5158"/><rect fill="#2D2D2D" height="5" style="stroke: #FFFFFF; stroke-width: 1.5;" width="10" x="1130" y="907.5838"/><text fill="#FFFFFF" font-family="Monospace" font-size="14" lengthAdjust="spacingAndGlyphs" textLength="42" x="1145" y="903.4818">Job #1</text><!--MD5=[ad1ecd006b7d6e2fcd722d0410ebc487]
entity Job2--><rect fill="#2D2D2D" filter="url(#f1joohj8p7k0yg)" height="39.0679" style="stroke: #FFFFFF; stroke-width: 1.5;" width="62" x="1339" y="878.5158"/><rect fill="#2D2D2D" height="5" style="stroke: #FFFFFF; stroke-width: 1.5;" width="10" x="1334" y="883.5158"/><rect fill="#2D2D2D" height="5" style="stroke: #FFFFFF; stroke-width: 1.5;" width="10" x="1334" y="907.5838"/><text fill="#FFFFFF" font-family="Monospace" font-size="14" lengthAdjust="spacingAndGlyphs" textLength="42" x="1349" y="903.4818">Job #2</text><!--MD5=[0ab1b686e84364c8109e522a8c779fa1]
entity Job3--><rect fill="#2D2D2D" filter="url(#f1joohj8p7k0yg)" height="39.0679" style="stroke: #FFFFFF; stroke-width: 1.5;" width="63" x="1543.5" y="878.5158"/><rect fill="#2D2D2D" height="5" style="stroke: #FFFFFF; stroke-width: 1.5;" width="10" x="1538.5" y="883.5158"/><rect fill="#2D2D2D" height="5" style="stroke: #FFFFFF; stroke-width: 1.5;" width="10" x="1538.5" y="907.5838"/><text fill="#FFFFFF" font-family="Monospace" font-size="14" lengthAdjust="spacingAndGlyphs" textLength="43" x="1553.5" y="903.4818">Job #n</text><!--MD5=[35c1068cf10654a3a88a78f31c30ad7d]
link GUI to CLI--><path d="M756,196.0558 C756,228.5158 756,281.9558 756,316.5558 " fill="none" id="GUI-&gt;CLI" style="stroke: #FFFFFF; stroke-width: 1.0; stroke-dasharray: 7.0,7.0;"/><polygon fill="#FFFFFF" points="756,321.9458,760,312.9458,756,316.9458,752,312.9458,756,321.9458" style="stroke: #FFFFFF; stroke-width: 1.0;"/><text fill="#FFFFFF" font-family="Monospace" font-size="11" lengthAdjust="spacingAndGlyphs" textLength="210" x="757" y="264.7748">Generates CLI Command to be executed</text><!--MD5=[bb07170366ce939dcc727915865a8aad]
link CLI to LocalCore--><path d="M726.28,380.3658 C685.94,418.8458 614.09,487.3858 572.08,527.4658 " fill="none" id="CLI-&gt;LocalCore" style="stroke: #FFFFFF; stroke-width: 1.0;"/><polygon fill="#FFFFFF" points="568.36,531.0058,577.6355,527.6946,571.9803,527.5572,572.1177,521.902,568.36,531.0058" style="stroke: #FFFFFF; stroke-width: 1.0;"/><text fill="#FFFFFF" font-family="Monospace" font-size="11" lengthAdjust="spacingAndGlyphs" textLength="57" x="692" y="422.7748">Run locally</text><!--MD5=[c27c3c7b98a2dd3503e29f99b530e9bd]
link LocalCore to LocalJobs1--><path d="M476.11,560.8358 C370.23,562.0258 163.46,571.2458 118,624.0158 C97.27,648.0758 121.89,682.2158 143.32,704.4858 " fill="none" id="LocalCore-&gt;LocalJobs1" style="stroke: #FFFFFF; stroke-width: 1.0;"/><polygon fill="#FFFFFF" points="147,708.2358,143.5387,699.0152,143.4931,704.6719,137.8364,704.6263,147,708.2358" style="stroke: #FFFFFF; stroke-width: 1.0;"/><text fill="#FFFFFF" font-family="Monospace" font-size="11" lengthAdjust="spacingAndGlyphs" textLength="53" x="119" y="636.7748">start job 1</text><!--MD5=[4eeaa9e26c347e59d17bf1e1a3b1be70]
link LocalJobs1 to LocalCore--><path d="M175.5,708.1158 C185.88,684.5458 206.92,644.8258 238,624.0158 C308.15,577.0358 406.48,564.0558 471.42,560.9958 " fill="none" id="LocalJobs1-&gt;LocalCore" style="stroke: #FFFFFF; stroke-width: 1.0;"/><polygon fill="#FFFFFF" points="476.42,560.7858,467.2565,557.176,471.4246,561.0005,467.6001,565.1686,476.42,560.7858" style="stroke: #FFFFFF; stroke-width: 1.0;"/><text fill="#FFFFFF" font-family="Monospace" font-size="11" lengthAdjust="spacingAndGlyphs" textLength="72" x="239" y="636.7748">return results</text><!--MD5=[cb8031634bd4e903ccabb5225de90d8b]
link LocalCore to LocalJobs2--><path d="M476.49,571.1558 C420.68,581.6358 345.02,599.8558 327,624.0158 C308.12,649.3158 331.91,682.8658 352.69,704.6958 " fill="none" id="LocalCore-&gt;LocalJobs2" style="stroke: #FFFFFF; stroke-width: 1.0;"/><polygon fill="#FFFFFF" points="356.26,708.3558,352.8548,699.1144,352.7748,704.7707,347.1185,704.6907,356.26,708.3558" style="stroke: #FFFFFF; stroke-width: 1.0;"/><text fill="#FFFFFF" font-family="Monospace" font-size="11" lengthAdjust="spacingAndGlyphs" textLength="53" x="328" y="636.7748">start job 2</text><!--MD5=[814f6603e38c8b8987a1125c9d474155]
link LocalJobs2 to LocalCore--><path d="M387.94,708.1358 C401.13,686.3458 424.82,650.1458 451,624.0158 C462.57,612.4658 476.44,601.4958 489.71,592.0358 " fill="none" id="LocalJobs2-&gt;LocalCore" style="stroke: #FFFFFF; stroke-width: 1.0;"/><polygon fill="#FFFFFF" points="493.8,589.1458,484.1366,591.0482,489.7092,592.0208,488.7366,597.5934,493.8,589.1458" style="stroke: #FFFFFF; stroke-width: 1.0;"/><text fill="#FFFFFF" font-family="Monospace" font-size="11" lengthAdjust="spacingAndGlyphs" textLength="72" x="452" y="636.7748">return results</text><!--MD5=[3d83dad48673b6a0e540888e983ac65e]
link LocalCore to LocalJobsN--><path d="M533.87,589.2658 C532.11,604.5458 531.54,623.5958 536,640.0158 C542.43,663.6958 557.1,687.5158 569.06,704.2258 " fill="none" id="LocalCore-&gt;LocalJobsN" style="stroke: #FFFFFF; stroke-width: 1.0;"/><polygon fill="#FFFFFF" points="572.04,708.3258,569.9774,698.6954,569.0974,704.2834,563.5094,703.4035,572.04,708.3258" style="stroke: #FFFFFF; stroke-width: 1.0;"/><text fill="#FFFFFF" font-family="Monospace" font-size="11" lengthAdjust="spacingAndGlyphs" textLength="54" x="537" y="636.7748">start job n</text><!--MD5=[0cb1104b4ebfd97325a9a087985e8a2b]
link LocalJobsN to LocalCore--><path d="M593.41,708.4658 C599.66,687.2958 606.78,651.9858 596,624.0158 C591.64,612.6958 584.2,602.1458 576.1,593.0358 " fill="none" id="LocalJobsN-&gt;LocalCore" style="stroke: #FFFFFF; stroke-width: 1.0;"/><polygon fill="#FFFFFF" points="572.6,589.2258,575.7427,598.5598,575.9825,592.9081,581.6343,593.1478,572.6,589.2258" style="stroke: #FFFFFF; stroke-width: 1.0;"/><text fill="#FFFFFF" font-family="Monospace" font-size="11" lengthAdjust="spacingAndGlyphs" textLength="72" x="600" y="636.7748">return results</text><!--MD5=[3a314155df3c86a96c6dc817f2f42b38]
link LocalCore to LocalRuns--><path d="M601.73,573.1958 C630.7,582.2058 662.67,597.6658 681,624.0158 C683.03,626.9358 679.64,637.3458 682,640.0158 C694.89,654.5658 708.22,638.1958 725,648.0158 C746.05,660.3258 763.41,681.9558 775.03,699.4758 " fill="none" id="LocalCore-&gt;LocalRuns" style="stroke: #FFFFFF; stroke-width: 1.0;"/><polygon fill="#FFFFFF" points="777.86,703.8258,776.2961,694.102,775.1295,699.6372,769.5943,698.4707,777.86,703.8258" style="stroke: #FFFFFF; stroke-width: 1.0;"/><text fill="#FFFFFF" font-family="Monospace" font-size="11" lengthAdjust="spacingAndGlyphs" textLength="80" x="683" y="636.7748">write all results</text><!--MD5=[95ac879643d0f9a162a8988bbb1df057]
link LocalCore to OmniOpt2Server--><path d="M601.85,565.6458 C683.78,572.9558 820.91,589.9958 857,624.0158 C922.55,685.8158 930.55,799.7558 929.87,858.9958 " fill="none" id="LocalCore-&gt;OmniOpt2Server" style="stroke: #FFFFFF; stroke-width: 1.0; stroke-dasharray: 7.0,7.0;"/><polygon fill="#FFFFFF" points="929.79,864.2058,933.9182,855.2639,929.8614,859.2064,925.919,855.1496,929.79,864.2058" style="stroke: #FFFFFF; stroke-width: 1.0;"/><text fill="#FFFFFF" font-family="Monospace" font-size="11" lengthAdjust="spacingAndGlyphs" textLength="113" x="927" y="732.7748">--live_share (optional)</text><!--MD5=[800e0e0bb90fb898e4eff9c9cad77fdf]
link CLI to LoginNode--><path d="M813.28,377.1958 C900.56,415.5458 1066.47,488.4658 1159.48,529.3458 " fill="none" id="CLI-&gt;LoginNode" style="stroke: #FFFFFF; stroke-width: 1.0;"/><polygon fill="#FFFFFF" points="1164.13,531.3858,1157.5069,524.0965,1159.5545,529.3698,1154.2812,531.4173,1164.13,531.3858" style="stroke: #FFFFFF; stroke-width: 1.0;"/><text fill="#FFFFFF" font-family="Monospace" font-size="11" lengthAdjust="spacingAndGlyphs" textLength="47" x="922" y="422.7748">ssh login</text><!--MD5=[0c619afe08a0a430c7a3ffb1ff1eec8b]
link LoginNode to HPCMaster--><path d="M1243.4,594.2058 C1257.77,623.3058 1278.55,665.3658 1292.85,694.3158 " fill="none" id="LoginNode-&gt;HPCMaster" style="stroke: #FFFFFF; stroke-width: 1.0;"/><polygon fill="#FFFFFF" points="1295.09,698.8458,1294.6931,689.005,1292.8768,694.3623,1287.5195,692.5461,1295.09,698.8458" style="stroke: #FFFFFF; stroke-width: 1.0;"/><text fill="#FFFFFF" font-family="Monospace" font-size="11" lengthAdjust="spacingAndGlyphs" textLength="89" x="1266" y="636.7748">sbatch command</text><!--MD5=[d73132a875438189b2b3ce4229eb2a32]
link HPCMaster to Job1--><path d="M1289.11,757.1858 C1277.43,771.3258 1261.37,787.1858 1243,795.5158 C1229.92,801.4458 1123.84,793.0558 1114,803.5158 C1109.13,808.6958 1110.19,813.5158 1114,819.5158 C1118.47,826.5658 1125.02,821.6858 1131,827.5158 C1144.04,840.2158 1153.05,858.8058 1158.66,873.5658 " fill="none" id="HPCMaster-&gt;Job1" style="stroke: #FFFFFF; stroke-width: 1.0;"/><polygon fill="#FFFFFF" points="1160.44,878.4058,1161.0876,868.5783,1158.7141,873.7132,1153.5793,871.3397,1160.44,878.4058" style="stroke: #FFFFFF; stroke-width: 1.0;"/><text fill="#FFFFFF" font-family="Monospace" font-size="11" lengthAdjust="spacingAndGlyphs" textLength="36" x="1115" y="816.2748">submit</text><!--MD5=[0361fc0b2f9e0c1d656e25018cbd835c]
link Job1 to HPCMaster--><path d="M1172.29,878.2058 C1180.25,857.1758 1195.87,823.4658 1220,803.5158 C1228.34,796.6158 1233.84,801.2858 1243,795.5158 C1257.72,786.2458 1271.66,773.1158 1282.9,760.9758 " fill="none" id="Job1-&gt;HPCMaster" style="stroke: #FFFFFF; stroke-width: 1.0;"/><polygon fill="#FFFFFF" points="1286.3,757.2358,1277.2816,761.1942,1282.9324,760.9317,1283.1949,766.5824,1286.3,757.2358" style="stroke: #FFFFFF; stroke-width: 1.0;"/><text fill="#FFFFFF" font-family="Monospace" font-size="11" lengthAdjust="spacingAndGlyphs" textLength="72" x="1221" y="816.2748">return results</text><!--MD5=[76de094807e8008348a742240e8dbe38]
link HPCMaster to Job2--><path d="M1302.81,757.1758 C1300.05,775.4658 1298.82,799.5458 1306,819.5158 C1313.73,841.0158 1330.29,860.7858 1344.63,874.9858 " fill="none" id="HPCMaster-&gt;Job2" style="stroke: #FFFFFF; stroke-width: 1.0;"/><polygon fill="#FFFFFF" points="1348.22,878.4658,1344.5548,869.3244,1344.6348,874.9807,1338.9785,875.0606,1348.22,878.4658" style="stroke: #FFFFFF; stroke-width: 1.0;"/><text fill="#FFFFFF" font-family="Monospace" font-size="11" lengthAdjust="spacingAndGlyphs" textLength="36" x="1307" y="816.2748">submit</text><!--MD5=[dac3ded752d84de080905c6c3483a0d1]
link Job2 to HPCMaster--><path d="M1367.03,878.3358 C1363.66,859.1658 1357.37,828.6758 1348,803.5158 C1342.73,789.3858 1335.37,774.5258 1328.45,761.8258 " fill="none" id="Job2-&gt;HPCMaster" style="stroke: #FFFFFF; stroke-width: 1.0;"/><polygon fill="#FFFFFF" points="1325.93,757.2458,1326.7661,767.0592,1328.3412,761.626,1333.7744,763.2012,1325.93,757.2458" style="stroke: #FFFFFF; stroke-width: 1.0;"/><text fill="#FFFFFF" font-family="Monospace" font-size="11" lengthAdjust="spacingAndGlyphs" textLength="72" x="1354" y="816.2748">return results</text><!--MD5=[d49c4ab690e9114edc7d2c3d09ac25fe]
link HPCMaster to Job3--><path d="M1357.84,757.0558 C1381.35,770.7658 1409.83,787.6858 1435,803.5158 C1472.93,827.3658 1515.63,856.1858 1543.8,875.4658 " fill="none" id="HPCMaster-&gt;Job3" style="stroke: #FFFFFF; stroke-width: 1.0;"/><polygon fill="#FFFFFF" points="1548.19,878.4758,1543.0397,870.0809,1544.0698,875.6432,1538.5075,876.6733,1548.19,878.4758" style="stroke: #FFFFFF; stroke-width: 1.0;"/><text fill="#FFFFFF" font-family="Monospace" font-size="11" lengthAdjust="spacingAndGlyphs" textLength="36" x="1459" y="816.2748">submit</text><!--MD5=[0b084569a1b025af739eee478835d34a]
link Job3 to HPCMaster--><path d="M1560.15,878.4458 C1547.82,862.8858 1529.95,839.9958 1515,819.5158 C1509.91,812.5458 1510.78,808.8558 1504,803.5158 C1466.78,774.2258 1416.74,755.4258 1376.67,744.0358 " fill="none" id="Job3-&gt;HPCMaster" style="stroke: #FFFFFF; stroke-width: 1.0;"/><polygon fill="#FFFFFF" points="1371.84,742.6858,1379.4171,748.9777,1376.6524,744.0425,1381.5877,741.2778,1371.84,742.6858" style="stroke: #FFFFFF; stroke-width: 1.0;"/><text fill="#FFFFFF" font-family="Monospace" font-size="11" lengthAdjust="spacingAndGlyphs" textLength="72" x="1516" y="816.2748">return results</text><!--MD5=[571935b6720c67f63951b3fde5967843]
link HPCMaster to HPCRuns--><path d="M1371.67,743.0258 C1430.42,756.6658 1520.42,778.9058 1597,803.5158 C1660.35,823.8758 1731.18,851.8758 1779.75,871.9158 " fill="none" id="HPCMaster-&gt;HPCRuns" style="stroke: #FFFFFF; stroke-width: 1.0;"/><polygon fill="#FFFFFF" points="1784.38,873.8258,1777.5998,866.6824,1779.7617,871.9099,1774.5342,874.0718,1784.38,873.8258" style="stroke: #FFFFFF; stroke-width: 1.0;"/><text fill="#FFFFFF" font-family="Monospace" font-size="11" lengthAdjust="spacingAndGlyphs" textLength="65" x="1645" y="816.2748">write results</text><!--MD5=[9b4661392c5508d5bc2f8f38988871a1]
link HPCMaster to OmniOpt2Server--><path d="M1289.49,757.0658 C1277.82,771.3658 1261.65,787.4058 1243,795.5158 C1216.9,806.8658 1011.7,789.3858 987,803.5158 C965.71,815.6958 950.98,838.9958 941.56,859.2958 " fill="none" id="HPCMaster-&gt;OmniOpt2Server" style="stroke: #FFFFFF; stroke-width: 1.0; stroke-dasharray: 7.0,7.0;"/><polygon fill="#FFFFFF" points="939.39,864.1158,946.7387,857.5586,941.4472,859.5586,939.4471,854.2672,939.39,864.1158" style="stroke: #FFFFFF; stroke-width: 1.0;"/><text fill="#FFFFFF" font-family="Monospace" font-size="11" lengthAdjust="spacingAndGlyphs" textLength="113" x="988" y="816.2748">--live_share (optional)</text><!--MD5=[60922c6446840b3447b10afc888cff7d]
@startuml

  skinparam backgroundColor #000000
  skinparam defaultFontColor #ffffff
  skinparam titleFontColor #ffffff
  skinparam componentFontColor #ffffff
  skinparam nodeFontColor #ffffff
  skinparam databaseFontColor #ffffff
  skinparam arrowColor #ffffff
  skinparam ArrowFontColor #ffffff

  skinparam componentBackgroundColor #2d2d2d
  skinparam nodeBackgroundColor #2d2d2d
  skinparam databaseBackgroundColor #2d2d2d
  skinparam packageBackgroundColor #2d2d2d
  skinparam cloudBackgroundColor #2d2d2d

  skinparam componentBorderColor #ffffff
  skinparam nodeBorderColor #ffffff
  skinparam databaseBorderColor #ffffff
  skinparam packageBorderColor #ffffff
  skinparam cloudBorderColor #ffffff
  skinparam rectangleBorderColor #ffffff

skinparam componentStyle rectangle
skinparam defaultFontName Monospace
skinparam ArrowFontSize 11

title OmniOpt2 Architecture

package "User Interface" {
  node "User" {
    component "Web GUI\n(optional)" as GUI
  }
}

package "OmniOpt2 Workflow" {

  component "CLI Command\nomniopt ..." as CLI

  GUI ..> CLI : Generates CLI Command to be executed

  database "OmniOpt2 Server\n(optional, Live-Share)" as OmniOpt2Server

  package "Local Mode" {
	  database "runs/ (local)" as LocalRuns

	  node "Local System" {
		  component "OmniOpt2 Core\n(main script)" as LocalCore
			  component "Job #1" as LocalJobs1
			  component "Job #2" as LocalJobs2
			  component "Job #n" as LocalJobsN
	  }

	  CLI - -> LocalCore : Run locally

		  LocalCore - -> LocalJobs1 : start job 1
		  LocalJobs1 - -> LocalCore : return results

		  LocalCore - -> LocalJobs2 : start job 2
		  LocalJobs2 - -> LocalCore : return results

		  LocalCore - -> LocalJobsN : start job n
		  LocalJobsN - -> LocalCore : return results

		  LocalCore - -> LocalRuns : write all results

		  LocalCore ..> OmniOpt2Server : - -live_share (optional)
  }

  package "HPC Mode (via submitit/sbatch)" {

    cloud "HPC" {

      node "Login Node\n(sbatch only)" as LoginNode

      node "Head Node" {
        component "OmniOpt2 Core\n(main script)" as HPCMaster
      }

      node "Compute Node 1" {
        component "Job #1" as Job1
      }

      node "Compute Node 2" {
        component "Job #2" as Job2
      }

      node "Compute Node n" {
        component "Job #n" as Job3
      }
    }

    database "runs/ (on file system)" as HPCRuns

    CLI - -> LoginNode : ssh login
    LoginNode - -> HPCMaster : sbatch command

    HPCMaster - -> Job1 : submit
    HPCMaster - -> Job2 : submit
    HPCMaster - -> Job3 : submit

    Job1 -down-> HPCMaster : return results
    Job2 -down-> HPCMaster : return results
    Job3 -down-> HPCMaster : return results

    HPCMaster - -> HPCRuns : write results
    HPCMaster ..> OmniOpt2Server : - -live_share (optional)
  }
}

@enduml

PlantUML version 1.2020.02(Sun Mar 01 11:22:07 CET 2020)
(GPL source distribution)
Java Runtime: OpenJDK Runtime Environment
JVM: OpenJDK 64-Bit Server VM
Java Version: 11.0.26+4-post-Debian-1
Operating System: Linux
Default Encoding: UTF-8
Language: de
Country: DE
--></g></svg>