<?xml version="1.0" encoding="UTF-8" standalone="no"?><svg xmlns="http://www.w3.org/2000/svg" xmlns:xlink="http://www.w3.org/1999/xlink" contentScriptType="application/ecmascript" contentStyleType="text/css" height="780px" preserveAspectRatio="none" style="width:1788px;height:780px;background:#000000;" version="1.1" viewBox="0 0 1788 780" width="1788px" zoomAndPan="magnify"><defs><filter height="300%" id="f4nz7tndm4m9b" width="300%" x="-1" y="-1"><feGaussianBlur result="blurOut" stdDeviation="2.0"/><feColorMatrix in="blurOut" result="blurOut2" type="matrix" values="0 0 0 0 0 0 0 0 0 0 0 0 0 0 0 0 0 0 .4 0"/><feOffset dx="4.0" dy="4.0" in="blurOut2" result="blurOut3"/><feBlend in="SourceGraphic" in2="blurOut3" mode="normal"/></filter></defs><g><text fill="#FFFFFF" font-family="Monospace" font-size="18" lengthAdjust="spacingAndGlyphs" textLength="199" x="800.5" y="19.2419">OmniOpt2 Architecture</text><!--MD5=[3fc59b17a2df0e8aa43d25b99d46893c]
cluster User Interface--><polygon fill="#1E1E1E" filter="url(#f4nz7tndm4m9b)" points="496,586.0158,600,586.0158,607,611.0838,780,611.0838,780,720.0158,496,720.0158,496,586.0158" style="stroke: #FFFFFF; stroke-width: 1.5;"/><line style="stroke: #FFFFFF; stroke-width: 1.5;" x1="496" x2="607" y1="611.0838" y2="611.0838"/><text fill="#FFFFFF" font-family="Monospace" font-size="14" font-weight="bold" lengthAdjust="spacingAndGlyphs" textLength="98" x="500" y="602.9818">User Interface</text><!--MD5=[068ab849e982e95724e818cf5ecc07ce]
cluster Local Mode--><polygon fill="#1E1E1E" filter="url(#f4nz7tndm4m9b)" points="22,157.0158,107,157.0158,114,182.0838,619,182.0838,619,537.5158,22,537.5158,22,157.0158" style="stroke: #FFFFFF; stroke-width: 1.5;"/><line style="stroke: #FFFFFF; stroke-width: 1.5;" x1="22" x2="114" y1="182.0838" y2="182.0838"/><text fill="#FFFFFF" font-family="Monospace" font-size="14" font-weight="bold" lengthAdjust="spacingAndGlyphs" textLength="79" x="26" y="173.9818">Local Mode</text><!--MD5=[494d5f1c0bba01068cf8e38a0ae48f2b]
cluster Local System--><polygon fill="#CC7000" filter="url(#f4nz7tndm4m9b)" points="46,213.0158,56,203.0158,487,203.0158,487,503.5158,477,513.5158,46,513.5158,46,213.0158" style="stroke: #FFFFFF; stroke-width: 1.5;"/><line style="stroke: #FFFFFF; stroke-width: 1.5;" x1="477" x2="486" y1="213.0158" y2="204.0158"/><line style="stroke: #FFFFFF; stroke-width: 1.5;" x1="46" x2="477" y1="213.0158" y2="213.0158"/><line style="stroke: #FFFFFF; stroke-width: 1.5;" x1="477" x2="477" y1="213.0158" y2="513.5158"/><text fill="#FFFFFF" font-family="Monospace" font-size="14" font-weight="bold" lengthAdjust="spacingAndGlyphs" textLength="91" x="217" y="230.9818">Local System</text><!--MD5=[8c9472c44c824e4c2cc3dfcfbb71d530]
cluster HPC Mode (via submitit/sbatch)--><polygon fill="#1E1E1E" filter="url(#f4nz7tndm4m9b)" points="868,152.5158,1095,152.5158,1102,177.5838,1766,177.5838,1766,758.5158,868,758.5158,868,152.5158" style="stroke: #FFFFFF; stroke-width: 1.5;"/><line style="stroke: #FFFFFF; stroke-width: 1.5;" x1="868" x2="1102" y1="177.5838" y2="177.5838"/><text fill="#FFFFFF" font-family="Monospace" font-size="14" font-weight="bold" lengthAdjust="spacingAndGlyphs" textLength="221" x="872" y="169.4818">HPC Mode (via submitit/sbatch)</text><!--MD5=[e6a0cf9ae8480434b696af9520294622]
cluster HPC Cluster--><path d="M911.0353,210.5435 C924.8117,189.8669 939.4301,190.3188 954.6588,208.9311 C967.8085,184.7273 986.3387,189.0888 1000.2079,208.1741 C1015.4312,185.9658 1033.7791,182.3236 1050.4006,206.6666 C1066.4346,184.4483 1086.8496,186.2784 1099.3249,210.422 C1109.3926,184.5616 1125.2527,181.567 1143.7534,202.3976 C1158.2285,179.2054 1171.9583,183.8628 1186.9309,201.8764 C1205.9331,175.2823 1223.5318,177.1499 1238.1466,205.934 C1249.7919,185.3824 1269.9583,185.0773 1283.2522,204.0527 C1295.3974,183.5834 1313.1738,184.041 1323.3343,205.9307 C1340.6239,179.4786 1360.7012,181.006 1375.6103,208.2485 C1387.102,182.954 1408.6643,181.3556 1422.396,206.1564 C1434.3738,187.5016 1453.6427,186.4925 1463.2986,208.4924 C1477.7047,189.6764 1496.1543,188.4202 1509.9877,209.1683 C1527.004,185.5115 1547.1718,188.9942 1560,213.5158 C1566.1524,212.2309 1567.9727,215.6925 1566.9838,221.0378 C1589.7749,232.1237 1585.7452,251.2499 1568.9302,264.125 C1588.2574,283.7123 1591.532,301.0426 1563.8119,315.9867 C1590.1455,326.4264 1589.8523,350.6627 1570.5111,367.0899 C1592.1201,383.2332 1591.3555,401.8014 1568.7088,416.3247 C1596.2377,434.544 1591.4108,451.4356 1568.4637,469.4218 C1592.0292,483.7526 1589.9646,503.0826 1570.6861,519.3215 C1590.5389,534.4806 1590.4754,556.2078 1566.8809,567.9684 C1596.4146,580.639 1595.7176,605.6532 1571.2585,622.6464 C1595.4069,640.6419 1594.6959,660.2983 1568.6806,675.8637 C1591.4113,698.3087 1582.8431,720.3464 1553,726.5158 C1558.3853,726.0737 1559.7733,729.8402 1557.9503,734.1019 C1543.2606,757.2112 1520.9225,752.4208 1511.0073,729.2581 C1500.168,753.1977 1484.9065,752.3241 1469.0467,734.2754 C1454.6348,754.5304 1439.0485,757.2279 1422.2302,737.0624 C1406.1398,762.5936 1386.8576,764.402 1369.0871,738.8089 C1359.3836,760.2722 1340.2484,762.7288 1327.5293,741.7625 C1314.2155,766.5924 1296.181,766.1198 1280.0868,744.6091 C1260.9921,768.585 1246.4194,762.932 1230.7906,740.8959 C1214.4815,757.6368 1200.4395,757.7663 1186.982,737.5186 C1174.8515,754.218 1155.4524,753.302 1145.0464,735.427 C1130.112,757.9084 1112.2307,754.9491 1097.7657,734.9051 C1085.6602,754.0639 1067.6589,757.573 1053.0541,737.7735 C1037.5739,761.297 1017.8319,758.6403 1006.7948,733.5458 C992.7996,757.0745 971.7754,755.598 959.1303,732.1753 C935.5498,757.1135 911.0355,753.1736 900,719.5158 C904.218,719.7856 906.4135,723.1977 903.8939,726.9816 C881.8661,712.469 875.1047,691.078 901.1051,674.0356 C876.6531,657.2803 875.2173,638.4775 898.591,619.5167 C873.1755,603.2265 878.1075,583.329 902.0989,570.5804 C877.8736,561.6963 874.2592,542.3755 893.5028,525.2485 C868.6502,509.2905 872.6863,488.6366 894.1733,473.2764 C868.1799,457.0559 872.6582,435.2782 895.5433,420.3223 C873.6715,405.3839 874.2139,382.014 896.8363,368.179 C878.1068,351.1563 876.463,333.6184 901.1067,320.4787 C881.7334,302.8879 881.497,280.8718 906.6833,268.0178 C877.8942,248.184 881.6041,226.0707 907,206.5158 C910.2053,205.7259 911.5668,207.5897 911.0353,210.5435 " fill="#1E1E1E" style="stroke: #FFFFFF; stroke-width: 1.5;"/><text fill="#FFFFFF" font-family="Monospace" font-size="14" font-weight="bold" lengthAdjust="spacingAndGlyphs" textLength="82" x="1189" y="226.4818">HPC Cluster</text><!--MD5=[4f140ef10277af62a9bbfeabfb64c237]
cluster Head Node--><polygon fill="#CC7000" filter="url(#f4nz7tndm4m9b)" points="1141,398.5158,1151,388.5158,1343,388.5158,1343,503.5158,1333,513.5158,1141,513.5158,1141,398.5158" style="stroke: #FFFFFF; stroke-width: 1.5;"/><line style="stroke: #FFFFFF; stroke-width: 1.5;" x1="1333" x2="1342" y1="398.5158" y2="389.5158"/><line style="stroke: #FFFFFF; stroke-width: 1.5;" x1="1141" x2="1333" y1="398.5158" y2="398.5158"/><line style="stroke: #FFFFFF; stroke-width: 1.5;" x1="1333" x2="1333" y1="398.5158" y2="513.5158"/><text fill="#FFFFFF" font-family="Monospace" font-size="14" font-weight="bold" lengthAdjust="spacingAndGlyphs" textLength="77" x="1199.5" y="416.4818">Head Node</text><!--MD5=[7018e2f8ec6c3126037d80ab91f6880d]
cluster Compute Node 1--><polygon fill="#CC7000" filter="url(#f4nz7tndm4m9b)" points="916,595.5158,926,585.5158,1109,585.5158,1109,700.5158,1099,710.5158,916,710.5158,916,595.5158" style="stroke: #FFFFFF; stroke-width: 1.5;"/><line style="stroke: #FFFFFF; stroke-width: 1.5;" x1="1099" x2="1108" y1="595.5158" y2="586.5158"/><line style="stroke: #FFFFFF; stroke-width: 1.5;" x1="916" x2="1099" y1="595.5158" y2="595.5158"/><line style="stroke: #FFFFFF; stroke-width: 1.5;" x1="1099" x2="1099" y1="595.5158" y2="710.5158"/><text fill="#FFFFFF" font-family="Monospace" font-size="14" font-weight="bold" lengthAdjust="spacingAndGlyphs" textLength="117" x="950" y="613.4818">Compute Node 1</text><!--MD5=[87367e987a291b585b0318bcf694b76e]
cluster Compute Node 2--><polygon fill="#CC7000" filter="url(#f4nz7tndm4m9b)" points="1133,595.5158,1143,585.5158,1326,585.5158,1326,700.5158,1316,710.5158,1133,710.5158,1133,595.5158" style="stroke: #FFFFFF; stroke-width: 1.5;"/><line style="stroke: #FFFFFF; stroke-width: 1.5;" x1="1316" x2="1325" y1="595.5158" y2="586.5158"/><line style="stroke: #FFFFFF; stroke-width: 1.5;" x1="1133" x2="1316" y1="595.5158" y2="595.5158"/><line style="stroke: #FFFFFF; stroke-width: 1.5;" x1="1316" x2="1316" y1="595.5158" y2="710.5158"/><text fill="#FFFFFF" font-family="Monospace" font-size="14" font-weight="bold" lengthAdjust="spacingAndGlyphs" textLength="117" x="1167" y="613.4818">Compute Node 2</text><!--MD5=[611865159834dcb625bf3423a333d68b]
cluster Compute Node n--><polygon fill="#CC7000" filter="url(#f4nz7tndm4m9b)" points="1350,595.5158,1360,585.5158,1544,585.5158,1544,700.5158,1534,710.5158,1350,710.5158,1350,595.5158" style="stroke: #FFFFFF; stroke-width: 1.5;"/><line style="stroke: #FFFFFF; stroke-width: 1.5;" x1="1534" x2="1543" y1="595.5158" y2="586.5158"/><line style="stroke: #FFFFFF; stroke-width: 1.5;" x1="1350" x2="1534" y1="595.5158" y2="595.5158"/><line style="stroke: #FFFFFF; stroke-width: 1.5;" x1="1534" x2="1534" y1="595.5158" y2="710.5158"/><text fill="#FFFFFF" font-family="Monospace" font-size="14" font-weight="bold" lengthAdjust="spacingAndGlyphs" textLength="118" x="1384" y="613.4818">Compute Node n</text><!--MD5=[beb5ad5244d3d849df9473931f7c2e5e]
entity GUI--><rect fill="#1E1E1E" filter="url(#f4nz7tndm4m9b)" height="58.1358" style="stroke: #FFFFFF; stroke-width: 1.0; stroke-dasharray: 7.0,7.0;" width="83" x="680.5" y="646.0158"/><rect fill="#1E1E1E" height="5" style="stroke: #FFFFFF; stroke-width: 1.0; stroke-dasharray: 7.0,7.0;" width="10" x="675.5" y="651.0158"/><rect fill="#1E1E1E" height="5" style="stroke: #FFFFFF; stroke-width: 1.0; stroke-dasharray: 7.0,7.0;" width="10" x="675.5" y="694.1517"/><text fill="#FFFFFF" font-family="Monospace" font-size="14" lengthAdjust="spacingAndGlyphs" textLength="59" x="690.5" y="670.9818">Web GUI</text><text fill="#FFFFFF" font-family="Monospace" font-size="14" lengthAdjust="spacingAndGlyphs" textLength="63" x="690.5" y="690.0497">(optional)</text><!--MD5=[145565a8a19c9871ef6e3b5f044408a0]
entity Share--><path d="M512.5,661.0158 C512.5,651.0158 579,651.0158 579,651.0158 C579,651.0158 645.5,651.0158 645.5,661.0158 L645.5,689.0838 C645.5,699.0838 579,699.0838 579,699.0838 C579,699.0838 512.5,699.0838 512.5,689.0838 L512.5,661.0158 " fill="#003366" filter="url(#f4nz7tndm4m9b)" style="stroke: #FFFFFF; stroke-width: 1.0; stroke-dasharray: 7.0,7.0;"/><path d="M512.5,661.0158 C512.5,671.0158 579,671.0158 579,671.0158 C579,671.0158 645.5,671.0158 645.5,661.0158 " fill="none" style="stroke: #FFFFFF; stroke-width: 1.0; stroke-dasharray: 7.0,7.0;"/><text fill="#FFFFFF" font-family="Monospace" font-size="14" lengthAdjust="spacingAndGlyphs" textLength="113" x="522.5" y="689.9818">OmniOpt2 Share</text><!--MD5=[feac20ec967ba8193586f5464e6c98c7]
entity LocalRuns--><path d="M503.5,464.0158 C503.5,454.0158 553,454.0158 553,454.0158 C553,454.0158 602.5,454.0158 602.5,464.0158 L602.5,492.0838 C602.5,502.0838 553,502.0838 553,502.0838 C553,502.0838 503.5,502.0838 503.5,492.0838 L503.5,464.0158 " fill="#003366" filter="url(#f4nz7tndm4m9b)" style="stroke: #FFFFFF; stroke-width: 1.5;"/><path d="M503.5,464.0158 C503.5,474.0158 553,474.0158 553,474.0158 C553,474.0158 602.5,474.0158 602.5,464.0158 " fill="none" style="stroke: #FFFFFF; stroke-width: 1.5;"/><text fill="#FFFFFF" font-family="Monospace" font-size="14" lengthAdjust="spacingAndGlyphs" textLength="79" x="513.5" y="492.9818">runs/ (local)</text><!--MD5=[119bd4be733b4c7d33357554b14c3254]
entity LocalCore--><rect fill="#1E1E1E" filter="url(#f4nz7tndm4m9b)" height="39.0679" style="stroke: #FFFFFF; stroke-width: 1.5;" width="170" x="252" y="273.0158"/><rect fill="#1E1E1E" height="5" style="stroke: #FFFFFF; stroke-width: 1.5;" width="10" x="247" y="278.0158"/><rect fill="#1E1E1E" height="5" style="stroke: #FFFFFF; stroke-width: 1.5;" width="10" x="247" y="302.0838"/><text fill="#FFFFFF" font-family="Monospace" font-size="14" lengthAdjust="spacingAndGlyphs" textLength="150" x="262" y="297.9818">OmniOpt2 main script</text><!--MD5=[c0476f576c4b8e78fa1a7957cc732c95]
entity LocalJob1--><rect fill="#FF8C00" filter="url(#f4nz7tndm4m9b)" height="39.0679" style="stroke: #FFFFFF; stroke-width: 1.5;" width="62" x="86" y="458.5158"/><rect fill="#FF8C00" height="5" style="stroke: #FFFFFF; stroke-width: 1.5;" width="10" x="81" y="463.5158"/><rect fill="#FF8C00" height="5" style="stroke: #FFFFFF; stroke-width: 1.5;" width="10" x="81" y="487.5838"/><text fill="#FFFFFF" font-family="Monospace" font-size="14" lengthAdjust="spacingAndGlyphs" textLength="42" x="96" y="483.4818">Job #1</text><!--MD5=[9e13b262acde4eca207dc0edcf26f08a]
entity LocalJob2--><rect fill="#FF8C00" filter="url(#f4nz7tndm4m9b)" height="39.0679" style="stroke: #FFFFFF; stroke-width: 1.5;" width="62" x="237" y="458.5158"/><rect fill="#FF8C00" height="5" style="stroke: #FFFFFF; stroke-width: 1.5;" width="10" x="232" y="463.5158"/><rect fill="#FF8C00" height="5" style="stroke: #FFFFFF; stroke-width: 1.5;" width="10" x="232" y="487.5838"/><text fill="#FFFFFF" font-family="Monospace" font-size="14" lengthAdjust="spacingAndGlyphs" textLength="42" x="247" y="483.4818">Job #2</text><!--MD5=[88241c78edc1a7d1a078f6ee93aafdc1]
entity LocalJobN--><rect fill="#FF8C00" filter="url(#f4nz7tndm4m9b)" height="39.0679" style="stroke: #FFFFFF; stroke-width: 1.5;" width="63" x="373.5" y="458.5158"/><rect fill="#FF8C00" height="5" style="stroke: #FFFFFF; stroke-width: 1.5;" width="10" x="368.5" y="463.5158"/><rect fill="#FF8C00" height="5" style="stroke: #FFFFFF; stroke-width: 1.5;" width="10" x="368.5" y="487.5838"/><text fill="#FFFFFF" font-family="Monospace" font-size="14" lengthAdjust="spacingAndGlyphs" textLength="43" x="383.5" y="483.4818">Job #n</text><!--MD5=[ad168f425ab565e150e1a97e9229db73]
entity HPCRuns--><path d="M1583.5,661.0158 C1583.5,651.0158 1667,651.0158 1667,651.0158 C1667,651.0158 1750.5,651.0158 1750.5,661.0158 L1750.5,689.0838 C1750.5,699.0838 1667,699.0838 1667,699.0838 C1667,699.0838 1583.5,699.0838 1583.5,689.0838 L1583.5,661.0158 " fill="#003366" filter="url(#f4nz7tndm4m9b)" style="stroke: #FFFFFF; stroke-width: 1.5;"/><path d="M1583.5,661.0158 C1583.5,671.0158 1667,671.0158 1667,671.0158 C1667,671.0158 1750.5,671.0158 1750.5,661.0158 " fill="none" style="stroke: #FFFFFF; stroke-width: 1.5;"/><text fill="#FFFFFF" font-family="Monospace" font-size="14" lengthAdjust="spacingAndGlyphs" textLength="147" x="1593.5" y="689.9818">runs/ (HPC filesystem)</text><!--MD5=[1e30e967108d4cd087a1e501a36a7024]
entity LoginNode--><polygon fill="#CC7000" filter="url(#f4nz7tndm4m9b)" points="1007.5,268.5158,1017.5,258.5158,1132.5,258.5158,1132.5,316.6517,1122.5,326.6517,1007.5,326.6517,1007.5,268.5158" style="stroke: #FFFFFF; stroke-width: 1.5;"/><line style="stroke: #FFFFFF; stroke-width: 1.5;" x1="1122.5" x2="1131.5" y1="268.5158" y2="259.5158"/><line style="stroke: #FFFFFF; stroke-width: 1.5;" x1="1007.5" x2="1122.5" y1="268.5158" y2="268.5158"/><line style="stroke: #FFFFFF; stroke-width: 1.5;" x1="1122.5" x2="1122.5" y1="268.5158" y2="326.6517"/><text fill="#FFFFFF" font-family="Monospace" font-size="14" lengthAdjust="spacingAndGlyphs" textLength="77" x="1022.5" y="293.4818">Login Node</text><text fill="#FFFFFF" font-family="Monospace" font-size="14" lengthAdjust="spacingAndGlyphs" textLength="85" x="1022.5" y="312.5497">(sbatch only)</text><!--MD5=[0ca049598cf64d5a8f9e0a6c16d5d1d0]
entity HPCMaster--><rect fill="#1E1E1E" filter="url(#f4nz7tndm4m9b)" height="39.0679" style="stroke: #FFFFFF; stroke-width: 1.5;" width="170" x="1157" y="458.5158"/><rect fill="#1E1E1E" height="5" style="stroke: #FFFFFF; stroke-width: 1.5;" width="10" x="1152" y="463.5158"/><rect fill="#1E1E1E" height="5" style="stroke: #FFFFFF; stroke-width: 1.5;" width="10" x="1152" y="487.5838"/><text fill="#FFFFFF" font-family="Monospace" font-size="14" lengthAdjust="spacingAndGlyphs" textLength="150" x="1167" y="483.4818">OmniOpt2 main script</text><!--MD5=[a8c9e1bff1aa63f06ad018284bbd72dd]
entity HPCJob1--><rect fill="#FF8C00" filter="url(#f4nz7tndm4m9b)" height="39.0679" style="stroke: #FFFFFF; stroke-width: 1.5;" width="62" x="966" y="655.5158"/><rect fill="#FF8C00" height="5" style="stroke: #FFFFFF; stroke-width: 1.5;" width="10" x="961" y="660.5158"/><rect fill="#FF8C00" height="5" style="stroke: #FFFFFF; stroke-width: 1.5;" width="10" x="961" y="684.5838"/><text fill="#FFFFFF" font-family="Monospace" font-size="14" lengthAdjust="spacingAndGlyphs" textLength="42" x="976" y="680.4818">Job #1</text><!--MD5=[1dcecde6a5121159a1faf602000e16e3]
entity HPCJob2--><rect fill="#FF8C00" filter="url(#f4nz7tndm4m9b)" height="39.0679" style="stroke: #FFFFFF; stroke-width: 1.5;" width="62" x="1183" y="655.5158"/><rect fill="#FF8C00" height="5" style="stroke: #FFFFFF; stroke-width: 1.5;" width="10" x="1178" y="660.5158"/><rect fill="#FF8C00" height="5" style="stroke: #FFFFFF; stroke-width: 1.5;" width="10" x="1178" y="684.5838"/><text fill="#FFFFFF" font-family="Monospace" font-size="14" lengthAdjust="spacingAndGlyphs" textLength="42" x="1193" y="680.4818">Job #2</text><!--MD5=[2bf1f977fea88408e4812a583a4bafda]
entity HPCJobN--><rect fill="#FF8C00" filter="url(#f4nz7tndm4m9b)" height="39.0679" style="stroke: #FFFFFF; stroke-width: 1.5;" width="63" x="1388.5" y="655.5158"/><rect fill="#FF8C00" height="5" style="stroke: #FFFFFF; stroke-width: 1.5;" width="10" x="1383.5" y="660.5158"/><rect fill="#FF8C00" height="5" style="stroke: #FFFFFF; stroke-width: 1.5;" width="10" x="1383.5" y="684.5838"/><text fill="#FFFFFF" font-family="Monospace" font-size="14" lengthAdjust="spacingAndGlyphs" textLength="43" x="1398.5" y="680.4818">Job #n</text><!--MD5=[fee662a292a0353a69bd162820bae93b]
entity User--><ellipse cx="653" cy="445.5158" fill="#FEFECE" filter="url(#f4nz7tndm4m9b)" rx="8" ry="8" style="stroke: #A80036; stroke-width: 1.5;"/><path d="M653,453.5158 L653,480.5158 M640,461.5158 L666,461.5158 M653,480.5158 L640,495.5158 M653,480.5158 L666,495.5158 " fill="none" filter="url(#f4nz7tndm4m9b)" style="stroke: #A80036; stroke-width: 1.5;"/><text fill="#FFFFFF" font-family="Monospace" font-size="14" lengthAdjust="spacingAndGlyphs" textLength="31" x="637.5" y="515.9818">User</text><!--MD5=[df6a39b053164d23cc3ecae9c3484a54]
entity CLI--><rect fill="#1E1E1E" filter="url(#f4nz7tndm4m9b)" height="58.1358" style="stroke: #FFFFFF; stroke-width: 1.5;" width="114" x="665" y="32.5158"/><rect fill="#1E1E1E" height="5" style="stroke: #FFFFFF; stroke-width: 1.5;" width="10" x="660" y="37.5158"/><rect fill="#1E1E1E" height="5" style="stroke: #FFFFFF; stroke-width: 1.5;" width="10" x="660" y="80.6517"/><text fill="#FFFFFF" font-family="Monospace" font-size="14" lengthAdjust="spacingAndGlyphs" textLength="94" x="675" y="57.4818">CLI Command</text><text fill="#FFFFFF" font-family="Monospace" font-size="14" lengthAdjust="spacingAndGlyphs" textLength="72" x="675" y="76.5497">omniopt ...</text><!--MD5=[35c1068cf10654a3a88a78f31c30ad7d]
link GUI to CLI--><path d="M722,645.6958 C722,545.0158 722,204.6358 722,96.0758 " fill="none" id="GUI-&gt;CLI" style="stroke: #FFFFFF; stroke-width: 1.0; stroke-dasharray: 7.0,7.0;"/><polygon fill="#FFFFFF" points="722,90.7858,718,99.7858,722,95.7858,726,99.7858,722,90.7858" style="stroke: #FFFFFF; stroke-width: 1.0;"/><text fill="#FFFFFF" font-family="Monospace" font-size="11" lengthAdjust="spacingAndGlyphs" textLength="128" x="723" y="369.2748">Generates CLI command</text><!--MD5=[1a457fd8e28b3041cec67c80f41624c2]
link User to GUI--><path d="M667.63,520.3658 C680.38,556.3858 698.61,607.9058 710.38,641.1658 " fill="none" id="User-&gt;GUI" style="stroke: #FFFFFF; stroke-width: 1.0;"/><polygon fill="#FFFFFF" points="712.06,645.9358,712.8226,636.1166,710.3892,641.2233,705.2825,638.7899,712.06,645.9358" style="stroke: #FFFFFF; stroke-width: 1.0;"/><!--MD5=[bb07170366ce939dcc727915865a8aad]
link CLI to LocalCore--><path d="M674.79,90.5958 C596.69,137.0458 442.31,228.8758 372.62,270.3358 " fill="none" id="CLI-&gt;LocalCore" style="stroke: #FFFFFF; stroke-width: 1.0;"/><polygon fill="#FFFFFF" points="368.15,272.9858,377.93,271.8237,372.4475,270.4302,373.841,264.9476,368.15,272.9858" style="stroke: #FFFFFF; stroke-width: 1.0;"/><text fill="#FFFFFF" font-family="Monospace" font-size="11" lengthAdjust="spacingAndGlyphs" textLength="55" x="619" y="133.2748">run locally</text><!--MD5=[0e6d18481b08b17b462d5a261920847c]
link LocalCore to LocalJob1--><path d="M251.74,304.4758 C189.77,314.4058 113.47,331.3558 94,356.5158 C72.19,384.6958 88.72,427.5158 102.78,453.7958 " fill="none" id="LocalCore-&gt;LocalJob1" style="stroke: #FFFFFF; stroke-width: 1.0;"/><polygon fill="#FFFFFF" points="105.19,458.1858,104.3785,448.3705,102.7897,453.7996,97.3606,452.2109,105.19,458.1858" style="stroke: #FFFFFF; stroke-width: 1.0;"/><text fill="#FFFFFF" font-family="Monospace" font-size="11" lengthAdjust="spacingAndGlyphs" textLength="24" x="95" y="369.2748">start</text><!--MD5=[a518fe6e517a59ab92dd0863db8bb0f5]
link LocalJob1 to LocalCore--><path d="M123.53,458.1958 C133.45,432.0958 154.65,384.9458 187,356.5158 C208.57,337.5558 236.67,323.7158 262.7,313.9258 " fill="none" id="LocalJob1-&gt;LocalCore" style="stroke: #FFFFFF; stroke-width: 1.0;"/><polygon fill="#FFFFFF" points="267.54,312.1458,257.7118,311.508,262.849,313.8764,260.4806,319.0136,267.54,312.1458" style="stroke: #FFFFFF; stroke-width: 1.0;"/><text fill="#FFFFFF" font-family="Monospace" font-size="11" lengthAdjust="spacingAndGlyphs" textLength="30" x="188" y="369.2748">result</text><!--MD5=[33a3b53a6537c1d12e29cd383ef05c9f]
link LocalCore to LocalJob2--><path d="M284.19,312.0358 C264.15,321.9358 243.42,336.3558 232,356.5158 C214.2,387.9458 234.44,429.0758 250.99,454.2458 " fill="none" id="LocalCore-&gt;LocalJob2" style="stroke: #FFFFFF; stroke-width: 1.0;"/><polygon fill="#FFFFFF" points="253.81,458.4458,252.0999,448.7466,251.0168,454.2988,245.4646,453.2157,253.81,458.4458" style="stroke: #FFFFFF; stroke-width: 1.0;"/><text fill="#FFFFFF" font-family="Monospace" font-size="11" lengthAdjust="spacingAndGlyphs" textLength="24" x="233" y="369.2748">start</text><!--MD5=[362a689a2ff5a55e4bb8af325ffe6fb1]
link LocalJob2 to LocalCore--><path d="M275.01,458.3658 C287.68,424.6658 314.36,353.7358 328.22,316.8758 " fill="none" id="LocalJob2-&gt;LocalCore" style="stroke: #FFFFFF; stroke-width: 1.0;"/><polygon fill="#FFFFFF" points="330,312.1158,323.0875,319.1314,328.2397,316.7957,330.5753,321.9479,330,312.1158" style="stroke: #FFFFFF; stroke-width: 1.0;"/><text fill="#FFFFFF" font-family="Monospace" font-size="11" lengthAdjust="spacingAndGlyphs" textLength="30" x="314" y="369.2748">result</text><!--MD5=[54c4f1dc6cd4585ccb823f3f58d6f788]
link LocalCore to LocalJobN--><path d="M343.89,312.1158 C356.37,345.7758 382.65,416.7058 396.32,453.6058 " fill="none" id="LocalCore-&gt;LocalJobN" style="stroke: #FFFFFF; stroke-width: 1.0;"/><polygon fill="#FFFFFF" points="398.09,458.3658,398.7015,448.536,396.3469,453.6795,391.2034,451.3249,398.09,458.3658" style="stroke: #FFFFFF; stroke-width: 1.0;"/><text fill="#FFFFFF" font-family="Monospace" font-size="11" lengthAdjust="spacingAndGlyphs" textLength="24" x="365" y="369.2748">start</text><!--MD5=[ac70afda2daeea9b70ae0e8ab2126b82]
link LocalJobN to LocalCore--><path d="M407.82,458.1258 C410.62,433.5758 412.66,389.9058 398,356.5158 C391.07,340.7358 378.34,326.5958 366.3,315.7258 " fill="none" id="LocalJobN-&gt;LocalCore" style="stroke: #FFFFFF; stroke-width: 1.0;"/><polygon fill="#FFFFFF" points="362.25,312.1658,366.3554,321.1182,366.0004,315.4725,371.6461,315.1175,362.25,312.1658" style="stroke: #FFFFFF; stroke-width: 1.0;"/><text fill="#FFFFFF" font-family="Monospace" font-size="11" lengthAdjust="spacingAndGlyphs" textLength="30" x="404" y="369.2748">result</text><!--MD5=[3a314155df3c86a96c6dc817f2f42b38]
link LocalCore to LocalRuns--><path d="M380.1,312.1258 C412.04,327.3458 455.34,351.1258 487,380.5158 C508.44,400.4158 526.65,428.4858 538.48,449.2258 " fill="none" id="LocalCore-&gt;LocalRuns" style="stroke: #FFFFFF; stroke-width: 1.0;"/><polygon fill="#FFFFFF" points="541.05,453.8058,540.1133,444.0016,538.5939,449.4506,533.1449,447.9313,541.05,453.8058" style="stroke: #FFFFFF; stroke-width: 1.0;"/><text fill="#FFFFFF" font-family="Monospace" font-size="11" lengthAdjust="spacingAndGlyphs" textLength="80" x="477" y="369.2748">write all results</text><!--MD5=[b5fc14f47ef1615d3bd9d3af545c0805]
link LocalRuns to Share--><path d="M556.05,502.0758 C558.47,520.3658 561.94,546.5758 565,569.5158 C568.43,595.2758 572.36,624.6058 575.18,645.6158 " fill="none" id="LocalRuns-&gt;Share" style="stroke: #FFFFFF; stroke-width: 1.0; stroke-dasharray: 7.0,7.0;"/><polygon fill="#FFFFFF" points="575.88,650.7758,578.6358,641.3204,575.2089,645.8211,570.7082,642.3942,575.88,650.7758" style="stroke: #FFFFFF; stroke-width: 1.0;"/><text fill="#FFFFFF" font-family="Monospace" font-size="11" lengthAdjust="spacingAndGlyphs" textLength="60" x="566" y="566.2748">--live_share</text><!--MD5=[800e0e0bb90fb898e4eff9c9cad77fdf]
link CLI to LoginNode--><path d="M764.67,90.5958 C827.72,132.0858 945.76,209.7658 1015.15,255.4258 " fill="none" id="CLI-&gt;LoginNode" style="stroke: #FFFFFF; stroke-width: 1.0;"/><polygon fill="#FFFFFF" points="1019.65,258.3858,1014.3474,250.0863,1015.4788,255.6288,1009.9362,256.7602,1019.65,258.3858" style="stroke: #FFFFFF; stroke-width: 1.0;"/><text fill="#FFFFFF" font-family="Monospace" font-size="11" lengthAdjust="spacingAndGlyphs" textLength="47" x="825" y="133.2748">ssh login</text><!--MD5=[0c619afe08a0a430c7a3ffb1ff1eec8b]
link LoginNode to HPCMaster--><path d="M1101.15,326.7458 C1135.75,363.6658 1190.7,422.2858 1220.71,454.3058 " fill="none" id="LoginNode-&gt;HPCMaster" style="stroke: #FFFFFF; stroke-width: 1.0;"/><polygon fill="#FFFFFF" points="1224.24,458.0758,1221.0039,448.7738,1220.8208,454.4277,1215.1669,454.2446,1224.24,458.0758" style="stroke: #FFFFFF; stroke-width: 1.0;"/><text fill="#FFFFFF" font-family="Monospace" font-size="11" lengthAdjust="spacingAndGlyphs" textLength="89" x="1141" y="369.2748">sbatch command</text><!--MD5=[bc271b6a5cff6b31372976e95eaea9c1]
link HPCMaster to HPCJob1--><path d="M1156.75,492.2758 C1089.68,504.6558 1004.14,525.4358 983,553.5158 C961.89,581.5558 974.19,624.1458 985.35,650.4658 " fill="none" id="HPCMaster-&gt;HPCJob1" style="stroke: #FFFFFF; stroke-width: 1.0;"/><polygon fill="#FFFFFF" points="987.42,655.1758,987.4885,645.3272,985.4212,650.5928,980.1556,648.5254,987.42,655.1758" style="stroke: #FFFFFF; stroke-width: 1.0;"/><text fill="#FFFFFF" font-family="Monospace" font-size="11" lengthAdjust="spacingAndGlyphs" textLength="36" x="984" y="566.2748">submit</text><!--MD5=[fbdf50cdb4f9f975e37bd022847b94e5]
link HPCJob1 to HPCMaster--><path d="M999.16,655.0958 C1003.11,628.8958 1013.88,581.6158 1042,553.5158 C1071.47,524.0658 1113.65,506.1158 1151.67,495.2358 " fill="none" id="HPCJob1-&gt;HPCMaster" style="stroke: #FFFFFF; stroke-width: 1.0;"/><polygon fill="#FFFFFF" points="1156.77,493.8158,1147.0262,492.381,1151.9538,495.1592,1149.1756,500.0868,1156.77,493.8158" style="stroke: #FFFFFF; stroke-width: 1.0;"/><text fill="#FFFFFF" font-family="Monospace" font-size="11" lengthAdjust="spacingAndGlyphs" textLength="30" x="1043" y="566.2748">result</text><!--MD5=[3bdf263a73ddb7c8e0d20086a00f2fd2]
link HPCMaster to HPCJob2--><path d="M1227.83,497.7458 C1217.86,512.1358 1205.39,532.9758 1200,553.5158 C1191.36,586.4158 1199.2,625.7658 1206.16,650.3358 " fill="none" id="HPCMaster-&gt;HPCJob2" style="stroke: #FFFFFF; stroke-width: 1.0;"/><polygon fill="#FFFFFF" points="1207.62,655.3458,1208.94,645.5858,1206.22,650.5458,1201.26,647.8258,1207.62,655.3458" style="stroke: #FFFFFF; stroke-width: 1.0;"/><text fill="#FFFFFF" font-family="Monospace" font-size="11" lengthAdjust="spacingAndGlyphs" textLength="36" x="1201" y="566.2748">submit</text><!--MD5=[d5e22fb7790a5359df04a4237c610cdc]
link HPCJob2 to HPCMaster--><path d="M1220.57,655.4358 C1227.49,634.7758 1237.95,600.2458 1242,569.5158 C1244.94,547.2158 1244.59,521.5458 1243.71,503.2558 " fill="none" id="HPCJob2-&gt;HPCMaster" style="stroke: #FFFFFF; stroke-width: 1.0;"/><polygon fill="#FFFFFF" points="1243.42,497.8258,1239.9137,507.0294,1243.691,502.8185,1247.902,506.5958,1243.42,497.8258" style="stroke: #FFFFFF; stroke-width: 1.0;"/><text fill="#FFFFFF" font-family="Monospace" font-size="11" lengthAdjust="spacingAndGlyphs" textLength="30" x="1244" y="566.2748">result</text><!--MD5=[cabc2e8b1aeb44303f3178c6eecdfaaf]
link HPCMaster to HPCJobN--><path d="M1259.07,497.7158 C1291.89,533.6758 1363.72,612.3558 1399.25,651.2858 " fill="none" id="HPCMaster-&gt;HPCJobN" style="stroke: #FFFFFF; stroke-width: 1.0;"/><polygon fill="#FFFFFF" points="1402.98,655.3758,1399.8749,646.0293,1399.6124,651.68,1393.9616,651.4175,1402.98,655.3758" style="stroke: #FFFFFF; stroke-width: 1.0;"/><text fill="#FFFFFF" font-family="Monospace" font-size="11" lengthAdjust="spacingAndGlyphs" textLength="36" x="1321" y="566.2748">submit</text><!--MD5=[cbab37695bd00e2f37efe170a9fa92c9]
link HPCJobN to HPCMaster--><path d="M1415.44,655.3458 C1408.43,629.8558 1392.92,583.8758 1366,553.5158 C1345.61,530.5258 1316.37,512.4858 1291.41,499.9258 " fill="none" id="HPCJobN-&gt;HPCMaster" style="stroke: #FFFFFF; stroke-width: 1.0;"/><polygon fill="#FFFFFF" points="1286.8,497.6458,1293.0901,505.2244,1291.2807,499.8647,1296.6403,498.0553,1286.8,497.6458" style="stroke: #FFFFFF; stroke-width: 1.0;"/><text fill="#FFFFFF" font-family="Monospace" font-size="11" lengthAdjust="spacingAndGlyphs" textLength="30" x="1377" y="566.2748">result</text><!--MD5=[571935b6720c67f63951b3fde5967843]
link HPCMaster to HPCRuns--><path d="M1286.49,497.6658 C1321.73,512.5258 1372.16,534.0158 1416,553.5158 C1486.31,584.7858 1566.24,623.7658 1616.63,648.7658 " fill="none" id="HPCMaster-&gt;HPCRuns" style="stroke: #FFFFFF; stroke-width: 1.0;"/><polygon fill="#FFFFFF" points="1621.11,650.9958,1614.8199,643.4173,1616.6293,648.777,1611.2697,650.5864,1621.11,650.9958" style="stroke: #FFFFFF; stroke-width: 1.0;"/><text fill="#FFFFFF" font-family="Monospace" font-size="11" lengthAdjust="spacingAndGlyphs" textLength="80" x="1451" y="566.2748">write all results</text><!--MD5=[9251a4ddef4a8be2b2b946da628c179a]
link HPCRuns to Share--><path d="M1630.37,650.9058 C1591.8,627.0458 1528.41,592.0458 1468,577.5158 C1381.03,556.6058 744.09,539.7758 663,577.5158 C632.42,591.7458 608.7,623.0858 594.38,646.4158 " fill="none" id="HPCRuns-&gt;Share" style="stroke: #FFFFFF; stroke-width: 1.0; stroke-dasharray: 7.0,7.0;"/><polygon fill="#FFFFFF" points="591.64,650.9658,599.7004,645.3064,594.2125,646.6784,592.8405,641.1904,591.64,650.9658" style="stroke: #FFFFFF; stroke-width: 1.0;"/><text fill="#FFFFFF" font-family="Monospace" font-size="11" lengthAdjust="spacingAndGlyphs" textLength="60" x="1102" y="566.2748">--live_share</text><!--MD5=[3eb4aa57ff005f560730cbaeb0979979]
@startuml

actor User

  skinparam backgroundColor #000000
  skinparam defaultFontColor #ffffff
  skinparam componentFontColor #ffffff
  skinparam nodeFontColor #ffffff
  skinparam databaseFontColor #ffffff
  skinparam arrowColor #ffffff
  skinparam ArrowFontColor #ffffff

  skinparam componentBackgroundColor #1e1e1e
  skinparam nodeBackgroundColor #CC7000
  skinparam databaseBackgroundColor #003366
  skinparam packageBackgroundColor #1e1e1e
  skinparam cloudBackgroundColor #1e1e1e

  skinparam componentBorderColor #ffffff
  skinparam nodeBorderColor #ffffff
  skinparam databaseBorderColor #ffffff
  skinparam packageBorderColor #ffffff
  skinparam cloudBorderColor #ffffff
  skinparam rectangleBorderColor #ffffff

skinparam componentStyle rectangle
skinparam defaultFontName Monospace
skinparam ArrowFontSize 11

title OmniOpt2 Architecture

package "User Interface" {
  component "Web GUI\n(optional)" as GUI #line.dashed
  database "OmniOpt2 Share" as Share #line.dashed
}

component "CLI Command\nomniopt ..." as CLI

GUI ..> CLI : Generates CLI command
User - -> GUI

package "Local Mode" {
  database "runs/ (local)" as LocalRuns

  node "Local System" {
    component "OmniOpt2 main script" as LocalCore

    component "Job #1" as LocalJob1 #FF8C00
    component "Job #2" as LocalJob2 #FF8C00
    component "Job #n" as LocalJobN #FF8C00
  }

  CLI - -> LocalCore : run locally

  LocalCore - -> LocalJob1 : start
  LocalJob1 - -> LocalCore : result

  LocalCore - -> LocalJob2 : start
  LocalJob2 - -> LocalCore : result

  LocalCore - -> LocalJobN : start
  LocalJobN - -> LocalCore : result

  LocalCore - -> LocalRuns : write all results
  LocalRuns ..> Share : - -live_share
}

package "HPC Mode (via submitit/sbatch)" {
  cloud "HPC Cluster" {

    node "Login Node\n(sbatch only)" as LoginNode
    node "Head Node" {
      component "OmniOpt2 main script" as HPCMaster
    }
    node "Compute Node 1" {
      component "Job #1" as HPCJob1 #FF8C00
    }
    node "Compute Node 2" {
      component "Job #2" as HPCJob2 #FF8C00
    }
    node "Compute Node n" {
      component "Job #n" as HPCJobN #FF8C00
    }
  }

  database "runs/ (HPC filesystem)" as HPCRuns

  CLI - -> LoginNode : ssh login
  LoginNode - -> HPCMaster : sbatch command

  HPCMaster - -> HPCJob1 : submit
  HPCMaster - -> HPCJob2 : submit
  HPCMaster - -> HPCJobN : submit

  HPCJob1 - -> HPCMaster : result
  HPCJob2 - -> HPCMaster : result
  HPCJobN - -> HPCMaster : result

  HPCMaster - -> HPCRuns : write all results
  HPCRuns ..> Share : - -live_share
}

@enduml

PlantUML version 1.2020.02(Sun Mar 01 11:22:07 CET 2020)
(GPL source distribution)
Java Runtime: OpenJDK Runtime Environment
JVM: OpenJDK 64-Bit Server VM
Java Version: 17.0.15+6-Debian-1deb12u1
Operating System: Linux
Default Encoding: UTF-8
Language: de
Country: DE
--></g></svg>