<?xml version="1.0" encoding="UTF-8" standalone="no"?><svg xmlns="http://www.w3.org/2000/svg" xmlns:xlink="http://www.w3.org/1999/xlink" contentScriptType="application/ecmascript" contentStyleType="text/css" height="850px" preserveAspectRatio="none" style="width:1784px;height:850px;background:#000000;" version="1.1" viewBox="0 0 1784 850" width="1784px" zoomAndPan="magnify"><defs><filter height="300%" id="fe3kgwid5pbgr" width="300%" x="-1" y="-1"><feGaussianBlur result="blurOut" stdDeviation="2.0"/><feColorMatrix in="blurOut" result="blurOut2" type="matrix" values="0 0 0 0 0 0 0 0 0 0 0 0 0 0 0 0 0 0 .4 0"/><feOffset dx="4.0" dy="4.0" in="blurOut2" result="blurOut3"/><feBlend in="SourceGraphic" in2="blurOut3" mode="normal"/></filter></defs><g><text fill="#FFFFFF" font-family="Monospace" font-size="18" lengthAdjust="spacingAndGlyphs" textLength="199" x="798.5" y="19.2419">OmniOpt2 Architecture</text><!--MD5=[3fc59b17a2df0e8aa43d25b99d46893c]
cluster User Interface--><polygon fill="#1E1E1E" filter="url(#fe3kgwid5pbgr)" points="1478,682.0158,1582,682.0158,1589,707.0838,1762,707.0838,1762,794.0158,1478,794.0158,1478,682.0158" style="stroke: #FFFFFF; stroke-width: 1.5;"/><line style="stroke: #FFFFFF; stroke-width: 1.5;" x1="1478" x2="1589" y1="707.0838" y2="707.0838"/><text fill="#FFFFFF" font-family="Monospace" font-size="14" font-weight="bold" lengthAdjust="spacingAndGlyphs" textLength="98" x="1482" y="698.9818">User Interface</text><!--MD5=[068ab849e982e95724e818cf5ecc07ce]
cluster Local Mode--><polygon fill="#1E1E1E" filter="url(#fe3kgwid5pbgr)" points="1117,307.5158,1202,307.5158,1209,332.5838,1714,332.5838,1714,634.0158,1117,634.0158,1117,307.5158" style="stroke: #FFFFFF; stroke-width: 1.5;"/><line style="stroke: #FFFFFF; stroke-width: 1.5;" x1="1117" x2="1209" y1="332.5838" y2="332.5838"/><text fill="#FFFFFF" font-family="Monospace" font-size="14" font-weight="bold" lengthAdjust="spacingAndGlyphs" textLength="79" x="1121" y="324.4818">Local Mode</text><!--MD5=[494d5f1c0bba01068cf8e38a0ae48f2b]
cluster Local System--><polygon fill="#CC7000" filter="url(#fe3kgwid5pbgr)" points="1141,363.5158,1151,353.5158,1582,353.5158,1582,600.0158,1572,610.0158,1141,610.0158,1141,363.5158" style="stroke: #FFFFFF; stroke-width: 1.5;"/><line style="stroke: #FFFFFF; stroke-width: 1.5;" x1="1572" x2="1581" y1="363.5158" y2="354.5158"/><line style="stroke: #FFFFFF; stroke-width: 1.5;" x1="1141" x2="1572" y1="363.5158" y2="363.5158"/><line style="stroke: #FFFFFF; stroke-width: 1.5;" x1="1572" x2="1572" y1="363.5158" y2="610.0158"/><text fill="#FFFFFF" font-family="Monospace" font-size="14" font-weight="bold" lengthAdjust="spacingAndGlyphs" textLength="91" x="1312" y="381.4818">Local System</text><!--MD5=[8c9472c44c824e4c2cc3dfcfbb71d530]
cluster HPC Mode (via submitit/sbatch)--><polygon fill="#1E1E1E" filter="url(#fe3kgwid5pbgr)" points="22,298.0158,249,298.0158,256,323.0838,920,323.0838,920,832.5158,22,832.5158,22,298.0158" style="stroke: #FFFFFF; stroke-width: 1.5;"/><line style="stroke: #FFFFFF; stroke-width: 1.5;" x1="22" x2="256" y1="323.0838" y2="323.0838"/><text fill="#FFFFFF" font-family="Monospace" font-size="14" font-weight="bold" lengthAdjust="spacingAndGlyphs" textLength="221" x="26" y="314.9818">HPC Mode (via submitit/sbatch)</text><!--MD5=[e6a0cf9ae8480434b696af9520294622]
cluster HPC Cluster--><path d="M65.9178,357.3922 C80.4549,334.139 95.8625,335.2783 109.2749,358.4427 C122.4776,333.8102 140.3194,333.5258 157.8289,353.7845 C172.9572,329.3243 194.0767,335.859 205.7997,357.3402 C215.1537,334.9112 235.3455,336.9484 246.2158,355.8578 C264.1096,332.212 283.7841,329.7068 299.6327,357.9627 C311.4676,338.7908 323.428,336.1615 338.4758,354.6488 C358.1761,326.1808 375.2436,330.0268 392.238,357.2605 C403.907,339.8379 419.4148,337.7854 431.7272,356.5586 C443.8181,334.1196 468.0666,331.0228 480.9377,355.7445 C492.4695,336.9732 506.5441,334.641 522.4614,350.4835 C537.9182,327.1188 555.7254,330.8217 569.7653,351.9886 C583.3855,327.4433 607.9668,330.8265 621.0049,352.6321 C635.9745,331.6922 653.7846,333.7692 662.7149,358.1859 C677.717,337.5187 699.7318,334.3309 714,359.0158 C717.9811,360.3449 718.5432,363.1993 715.1896,365.8121 C734.6783,377.4748 738.2691,390.378 719.1102,405.8273 C741.7168,420.2217 738.3404,433.0008 719.6306,447.9061 C741.3095,460.6821 743.1118,478.7721 723.376,494.8522 C739.9918,509.8208 740.4255,527.2833 718.0465,537.3632 C741.8032,550.245 741.602,567.028 722.4191,583.941 C740.5045,596.2781 735.5633,612.4321 719.0253,621.6533 C738.7937,631.4108 744.5238,651.8648 722.8451,665.2536 C743.412,683.3165 742.2265,703.7536 715.575,714.9023 C732.8837,727.1492 736.6651,742.7203 715.7993,755.1798 C737.1305,772.7105 734.1674,792.3984 707,800.5158 C708.8626,800.9211 709.0894,802.0463 707.9242,803.4163 C694.6225,827.4126 674.2656,821.1529 662.7253,801.5886 C651.4739,821.9922 635.06,829.1253 618.7433,806.8027 C608.346,832.7992 585.3296,831.1156 570.3187,811.725 C556.8224,833.5903 536.3634,836.582 522.49,812.1142 C507.8964,832.3797 492.4432,832.954 478.3578,811.5756 C465.3381,829.5916 451.5245,831.4634 436.0959,814.4848 C423.7337,838.6471 399.8302,836.3165 387.751,814.1892 C371.9494,834.8519 356.0005,833.3765 344.1058,810.2914 C331.9485,829.9951 309.7274,831.1242 299.8771,807.9138 C287.2738,833.9676 270.2063,830.3206 253.2689,812.5201 C235.5989,838.6329 213.5493,836.2883 200.937,807.683 C185.6689,825.5819 171.5154,826.7863 157.8364,805.9165 C143.541,826.4598 123.5223,827.3054 113.1065,802.1216 C92.3187,827.3059 66.4126,825.8546 54,793.5158 C59.5499,792.8245 63.2471,795.565 60.956,801.6111 C35.9924,788.766 32.256,765.9964 58.3507,750.5464 C34.5051,742.261 33.0203,725.9258 51.117,710.133 C28.1556,694.2641 30.4091,680.1167 50.6135,663.7789 C27.6118,649.473 32.8848,636.5995 49.643,621.3835 C31.3291,609.7138 33.5958,596.7298 48.2681,583.8517 C25.402,566.4571 28.7951,548.506 51.9052,534.4997 C33.9913,520.4475 32.8823,507.5812 50.7755,492.5643 C35.4008,476.262 35.0865,459.5558 57.8707,449.5474 C33.7195,436.2704 34.5935,421.7923 52.9907,403.9607 C33.1948,385.5667 37.5297,363.7387 61,352.0158 C65.3208,350.9454 67.1947,353.3423 65.9178,357.3922 " fill="#1E1E1E" style="stroke: #FFFFFF; stroke-width: 1.5;"/><text fill="#FFFFFF" font-family="Monospace" font-size="14" font-weight="bold" lengthAdjust="spacingAndGlyphs" textLength="82" x="343" y="371.9818">HPC Cluster</text><!--MD5=[4f140ef10277af62a9bbfeabfb64c237]
cluster Head Node--><polygon fill="#CC7000" filter="url(#fe3kgwid5pbgr)" points="420,522.0158,430,512.0158,622,512.0158,622,600.0158,612,610.0158,420,610.0158,420,522.0158" style="stroke: #FFFFFF; stroke-width: 1.5;"/><line style="stroke: #FFFFFF; stroke-width: 1.5;" x1="612" x2="621" y1="522.0158" y2="513.0158"/><line style="stroke: #FFFFFF; stroke-width: 1.5;" x1="420" x2="612" y1="522.0158" y2="522.0158"/><line style="stroke: #FFFFFF; stroke-width: 1.5;" x1="612" x2="612" y1="522.0158" y2="610.0158"/><text fill="#FFFFFF" font-family="Monospace" font-size="14" font-weight="bold" lengthAdjust="spacingAndGlyphs" textLength="77" x="478.5" y="539.9818">Head Node</text><!--MD5=[7018e2f8ec6c3126037d80ab91f6880d]
cluster Compute Node 1--><polygon fill="#CC7000" filter="url(#fe3kgwid5pbgr)" points="70,696.5158,80,686.5158,263,686.5158,263,774.5158,253,784.5158,70,784.5158,70,696.5158" style="stroke: #FFFFFF; stroke-width: 1.5;"/><line style="stroke: #FFFFFF; stroke-width: 1.5;" x1="253" x2="262" y1="696.5158" y2="687.5158"/><line style="stroke: #FFFFFF; stroke-width: 1.5;" x1="70" x2="253" y1="696.5158" y2="696.5158"/><line style="stroke: #FFFFFF; stroke-width: 1.5;" x1="253" x2="253" y1="696.5158" y2="784.5158"/><text fill="#FFFFFF" font-family="Monospace" font-size="14" font-weight="bold" lengthAdjust="spacingAndGlyphs" textLength="117" x="104" y="714.4818">Compute Node 1</text><!--MD5=[87367e987a291b585b0318bcf694b76e]
cluster Compute Node 2--><polygon fill="#CC7000" filter="url(#fe3kgwid5pbgr)" points="287,696.5158,297,686.5158,480,686.5158,480,774.5158,470,784.5158,287,784.5158,287,696.5158" style="stroke: #FFFFFF; stroke-width: 1.5;"/><line style="stroke: #FFFFFF; stroke-width: 1.5;" x1="470" x2="479" y1="696.5158" y2="687.5158"/><line style="stroke: #FFFFFF; stroke-width: 1.5;" x1="287" x2="470" y1="696.5158" y2="696.5158"/><line style="stroke: #FFFFFF; stroke-width: 1.5;" x1="470" x2="470" y1="696.5158" y2="784.5158"/><text fill="#FFFFFF" font-family="Monospace" font-size="14" font-weight="bold" lengthAdjust="spacingAndGlyphs" textLength="117" x="321" y="714.4818">Compute Node 2</text><!--MD5=[611865159834dcb625bf3423a333d68b]
cluster Compute Node n--><polygon fill="#CC7000" filter="url(#fe3kgwid5pbgr)" points="504,696.5158,514,686.5158,698,686.5158,698,774.5158,688,784.5158,504,784.5158,504,696.5158" style="stroke: #FFFFFF; stroke-width: 1.5;"/><line style="stroke: #FFFFFF; stroke-width: 1.5;" x1="688" x2="697" y1="696.5158" y2="687.5158"/><line style="stroke: #FFFFFF; stroke-width: 1.5;" x1="504" x2="688" y1="696.5158" y2="696.5158"/><line style="stroke: #FFFFFF; stroke-width: 1.5;" x1="688" x2="688" y1="696.5158" y2="784.5158"/><text fill="#FFFFFF" font-family="Monospace" font-size="14" font-weight="bold" lengthAdjust="spacingAndGlyphs" textLength="118" x="538" y="714.4818">Compute Node n</text><!--MD5=[beb5ad5244d3d849df9473931f7c2e5e]
entity GUI--><rect fill="#1E1E1E" filter="url(#fe3kgwid5pbgr)" height="58.1358" style="stroke: #FFFFFF; stroke-width: 1.0; stroke-dasharray: 7.0,7.0;" width="83" x="1662.5" y="720.0158"/><rect fill="#1E1E1E" height="5" style="stroke: #FFFFFF; stroke-width: 1.0; stroke-dasharray: 7.0,7.0;" width="10" x="1657.5" y="725.0158"/><rect fill="#1E1E1E" height="5" style="stroke: #FFFFFF; stroke-width: 1.0; stroke-dasharray: 7.0,7.0;" width="10" x="1657.5" y="768.1517"/><text fill="#FFFFFF" font-family="Monospace" font-size="14" lengthAdjust="spacingAndGlyphs" textLength="59" x="1672.5" y="744.9818">Web GUI</text><text fill="#FFFFFF" font-family="Monospace" font-size="14" lengthAdjust="spacingAndGlyphs" textLength="63" x="1672.5" y="764.0497">(optional)</text><!--MD5=[145565a8a19c9871ef6e3b5f044408a0]
entity Share--><path d="M1494.5,735.0158 C1494.5,725.0158 1561,725.0158 1561,725.0158 C1561,725.0158 1627.5,725.0158 1627.5,735.0158 L1627.5,763.0838 C1627.5,773.0838 1561,773.0838 1561,773.0838 C1561,773.0838 1494.5,773.0838 1494.5,763.0838 L1494.5,735.0158 " fill="#003366" filter="url(#fe3kgwid5pbgr)" style="stroke: #FFFFFF; stroke-width: 1.0; stroke-dasharray: 7.0,7.0;"/><path d="M1494.5,735.0158 C1494.5,745.0158 1561,745.0158 1561,745.0158 C1561,745.0158 1627.5,745.0158 1627.5,735.0158 " fill="none" style="stroke: #FFFFFF; stroke-width: 1.0; stroke-dasharray: 7.0,7.0;"/><text fill="#FFFFFF" font-family="Monospace" font-size="14" lengthAdjust="spacingAndGlyphs" textLength="113" x="1504.5" y="763.9818">OmniOpt2 Share</text><!--MD5=[feac20ec967ba8193586f5464e6c98c7]
entity LocalRuns--><path d="M1598.5,560.5158 C1598.5,550.5158 1648,550.5158 1648,550.5158 C1648,550.5158 1697.5,550.5158 1697.5,560.5158 L1697.5,588.5838 C1697.5,598.5838 1648,598.5838 1648,598.5838 C1648,598.5838 1598.5,598.5838 1598.5,588.5838 L1598.5,560.5158 " fill="#003366" filter="url(#fe3kgwid5pbgr)" style="stroke: #FFFFFF; stroke-width: 1.5;"/><path d="M1598.5,560.5158 C1598.5,570.5158 1648,570.5158 1648,570.5158 C1648,570.5158 1697.5,570.5158 1697.5,560.5158 " fill="none" style="stroke: #FFFFFF; stroke-width: 1.5;"/><text fill="#FFFFFF" font-family="Monospace" font-size="14" lengthAdjust="spacingAndGlyphs" textLength="79" x="1608.5" y="589.4818">runs/ (local)</text><!--MD5=[119bd4be733b4c7d33357554b14c3254]
entity LocalCore--><rect fill="#1E1E1E" filter="url(#fe3kgwid5pbgr)" height="39.0679" style="stroke: #FFFFFF; stroke-width: 1.5;" width="170" x="1278" y="396.5158"/><rect fill="#1E1E1E" height="5" style="stroke: #FFFFFF; stroke-width: 1.5;" width="10" x="1273" y="401.5158"/><rect fill="#1E1E1E" height="5" style="stroke: #FFFFFF; stroke-width: 1.5;" width="10" x="1273" y="425.5838"/><text fill="#FFFFFF" font-family="Monospace" font-size="14" lengthAdjust="spacingAndGlyphs" textLength="150" x="1288" y="421.4818">OmniOpt2 main script</text><!--MD5=[c0476f576c4b8e78fa1a7957cc732c95]
entity LocalJob1--><rect fill="#FF8C00" filter="url(#fe3kgwid5pbgr)" height="39.0679" style="stroke: #FFFFFF; stroke-width: 1.5;" width="62" x="1469" y="555.0158"/><rect fill="#FF8C00" height="5" style="stroke: #FFFFFF; stroke-width: 1.5;" width="10" x="1464" y="560.0158"/><rect fill="#FF8C00" height="5" style="stroke: #FFFFFF; stroke-width: 1.5;" width="10" x="1464" y="584.0838"/><text fill="#FFFFFF" font-family="Monospace" font-size="14" lengthAdjust="spacingAndGlyphs" textLength="42" x="1479" y="579.9818">Job #1</text><!--MD5=[9e13b262acde4eca207dc0edcf26f08a]
entity LocalJob2--><rect fill="#FF8C00" filter="url(#fe3kgwid5pbgr)" height="39.0679" style="stroke: #FFFFFF; stroke-width: 1.5;" width="62" x="1191" y="555.0158"/><rect fill="#FF8C00" height="5" style="stroke: #FFFFFF; stroke-width: 1.5;" width="10" x="1186" y="560.0158"/><rect fill="#FF8C00" height="5" style="stroke: #FFFFFF; stroke-width: 1.5;" width="10" x="1186" y="584.0838"/><text fill="#FFFFFF" font-family="Monospace" font-size="14" lengthAdjust="spacingAndGlyphs" textLength="42" x="1201" y="579.9818">Job #2</text><!--MD5=[88241c78edc1a7d1a078f6ee93aafdc1]
entity LocalJobN--><rect fill="#FF8C00" filter="url(#fe3kgwid5pbgr)" height="39.0679" style="stroke: #FFFFFF; stroke-width: 1.5;" width="63" x="1318.5" y="555.0158"/><rect fill="#FF8C00" height="5" style="stroke: #FFFFFF; stroke-width: 1.5;" width="10" x="1313.5" y="560.0158"/><rect fill="#FF8C00" height="5" style="stroke: #FFFFFF; stroke-width: 1.5;" width="10" x="1313.5" y="584.0838"/><text fill="#FFFFFF" font-family="Monospace" font-size="14" lengthAdjust="spacingAndGlyphs" textLength="43" x="1328.5" y="579.9818">Job #n</text><!--MD5=[ad168f425ab565e150e1a97e9229db73]
entity HPCRuns--><path d="M737.5,735.0158 C737.5,725.0158 821,725.0158 821,725.0158 C821,725.0158 904.5,725.0158 904.5,735.0158 L904.5,763.0838 C904.5,773.0838 821,773.0838 821,773.0838 C821,773.0838 737.5,773.0838 737.5,763.0838 L737.5,735.0158 " fill="#003366" filter="url(#fe3kgwid5pbgr)" style="stroke: #FFFFFF; stroke-width: 1.5;"/><path d="M737.5,735.0158 C737.5,745.0158 821,745.0158 821,745.0158 C821,745.0158 904.5,745.0158 904.5,735.0158 " fill="none" style="stroke: #FFFFFF; stroke-width: 1.5;"/><text fill="#FFFFFF" font-family="Monospace" font-size="14" lengthAdjust="spacingAndGlyphs" textLength="147" x="747.5" y="763.9818">runs/ (HPC filesystem)</text><!--MD5=[1e30e967108d4cd087a1e501a36a7024]
entity LoginNode--><polygon fill="#CC7000" filter="url(#fe3kgwid5pbgr)" points="481.5,392.0158,491.5,382.0158,606.5,382.0158,606.5,440.1517,596.5,450.1517,481.5,450.1517,481.5,392.0158" style="stroke: #FFFFFF; stroke-width: 1.5;"/><line style="stroke: #FFFFFF; stroke-width: 1.5;" x1="596.5" x2="605.5" y1="392.0158" y2="383.0158"/><line style="stroke: #FFFFFF; stroke-width: 1.5;" x1="481.5" x2="596.5" y1="392.0158" y2="392.0158"/><line style="stroke: #FFFFFF; stroke-width: 1.5;" x1="596.5" x2="596.5" y1="392.0158" y2="450.1517"/><text fill="#FFFFFF" font-family="Monospace" font-size="14" lengthAdjust="spacingAndGlyphs" textLength="77" x="496.5" y="416.9818">Login Node</text><text fill="#FFFFFF" font-family="Monospace" font-size="14" lengthAdjust="spacingAndGlyphs" textLength="85" x="496.5" y="436.0497">(sbatch only)</text><!--MD5=[0ca049598cf64d5a8f9e0a6c16d5d1d0]
entity HPCMaster--><rect fill="#1E1E1E" filter="url(#fe3kgwid5pbgr)" height="39.0679" style="stroke: #FFFFFF; stroke-width: 1.5;" width="170" x="436" y="555.0158"/><rect fill="#1E1E1E" height="5" style="stroke: #FFFFFF; stroke-width: 1.5;" width="10" x="431" y="560.0158"/><rect fill="#1E1E1E" height="5" style="stroke: #FFFFFF; stroke-width: 1.5;" width="10" x="431" y="584.0838"/><text fill="#FFFFFF" font-family="Monospace" font-size="14" lengthAdjust="spacingAndGlyphs" textLength="150" x="446" y="579.9818">OmniOpt2 main script</text><!--MD5=[a8c9e1bff1aa63f06ad018284bbd72dd]
entity HPCJob1--><rect fill="#FF8C00" filter="url(#fe3kgwid5pbgr)" height="39.0679" style="stroke: #FFFFFF; stroke-width: 1.5;" width="62" x="185" y="729.5158"/><rect fill="#FF8C00" height="5" style="stroke: #FFFFFF; stroke-width: 1.5;" width="10" x="180" y="734.5158"/><rect fill="#FF8C00" height="5" style="stroke: #FFFFFF; stroke-width: 1.5;" width="10" x="180" y="758.5838"/><text fill="#FFFFFF" font-family="Monospace" font-size="14" lengthAdjust="spacingAndGlyphs" textLength="42" x="195" y="754.4818">Job #1</text><!--MD5=[1dcecde6a5121159a1faf602000e16e3]
entity HPCJob2--><rect fill="#FF8C00" filter="url(#fe3kgwid5pbgr)" height="39.0679" style="stroke: #FFFFFF; stroke-width: 1.5;" width="62" x="390" y="729.5158"/><rect fill="#FF8C00" height="5" style="stroke: #FFFFFF; stroke-width: 1.5;" width="10" x="385" y="734.5158"/><rect fill="#FF8C00" height="5" style="stroke: #FFFFFF; stroke-width: 1.5;" width="10" x="385" y="758.5838"/><text fill="#FFFFFF" font-family="Monospace" font-size="14" lengthAdjust="spacingAndGlyphs" textLength="42" x="400" y="754.4818">Job #2</text><!--MD5=[2bf1f977fea88408e4812a583a4bafda]
entity HPCJobN--><rect fill="#FF8C00" filter="url(#fe3kgwid5pbgr)" height="39.0679" style="stroke: #FFFFFF; stroke-width: 1.5;" width="63" x="571.5" y="729.5158"/><rect fill="#FF8C00" height="5" style="stroke: #FFFFFF; stroke-width: 1.5;" width="10" x="566.5" y="734.5158"/><rect fill="#FF8C00" height="5" style="stroke: #FFFFFF; stroke-width: 1.5;" width="10" x="566.5" y="758.5838"/><text fill="#FFFFFF" font-family="Monospace" font-size="14" lengthAdjust="spacingAndGlyphs" textLength="43" x="581.5" y="754.4818">Job #n</text><!--MD5=[fee662a292a0353a69bd162820bae93b]
entity User--><ellipse cx="1540" cy="42.5158" fill="#FEFECE" filter="url(#fe3kgwid5pbgr)" rx="8" ry="8" style="stroke: #A80036; stroke-width: 1.5;"/><path d="M1540,50.5158 L1540,77.5158 M1527,58.5158 L1553,58.5158 M1540,77.5158 L1527,92.5158 M1540,77.5158 L1553,92.5158 " fill="none" filter="url(#fe3kgwid5pbgr)" style="stroke: #A80036; stroke-width: 1.5;"/><text fill="#FFFFFF" font-family="Monospace" font-size="14" lengthAdjust="spacingAndGlyphs" textLength="31" x="1524.5" y="112.9818">User</text><!--MD5=[df6a39b053164d23cc3ecae9c3484a54]
entity CLI--><rect fill="#1E1E1E" filter="url(#fe3kgwid5pbgr)" height="58.1358" style="stroke: #FFFFFF; stroke-width: 1.5;" width="114" x="1052" y="178.0158"/><rect fill="#1E1E1E" height="5" style="stroke: #FFFFFF; stroke-width: 1.5;" width="10" x="1047" y="183.0158"/><rect fill="#1E1E1E" height="5" style="stroke: #FFFFFF; stroke-width: 1.5;" width="10" x="1047" y="226.1517"/><text fill="#FFFFFF" font-family="Monospace" font-size="14" lengthAdjust="spacingAndGlyphs" textLength="94" x="1062" y="202.9818">CLI Command</text><text fill="#FFFFFF" font-family="Monospace" font-size="14" lengthAdjust="spacingAndGlyphs" textLength="72" x="1062" y="222.0497">omniopt ...</text><!--MD5=[35c1068cf10654a3a88a78f31c30ad7d]
link GUI to CLI--><path d="M1689.42,719.8058 C1679.32,703.4058 1664.23,684.0458 1645,674.0158 C1620.12,661.0458 1166.22,654.3058 1141,642.0158 C1062.89,603.9658 1041.91,577.2158 1011,496.0158 C976.02,404.1358 1043.73,293.5958 1083.28,240.1158 " fill="none" id="GUI-&gt;CLI" style="stroke: #FFFFFF; stroke-width: 1.0; stroke-dasharray: 7.0,7.0;"/><polygon fill="#FFFFFF" points="1086.31,236.0558,1077.7293,240.8902,1083.326,240.0678,1084.1484,245.6646,1086.31,236.0558" style="stroke: #FFFFFF; stroke-width: 1.0;"/><text fill="#FFFFFF" font-family="Monospace" font-size="11" lengthAdjust="spacingAndGlyphs" textLength="128" x="1012" y="492.7748">Generates CLI command</text><!--MD5=[1a457fd8e28b3041cec67c80f41624c2]
link User to GUI--><path d="M1555.52,77.9758 C1604.24,85.0958 1751,114.1558 1751,206.0158 C1751,206.0158 1751,206.0158 1751,575.5158 C1751,625.5158 1732.39,680.8858 1718.59,715.0758 " fill="none" id="User-&gt;GUI" style="stroke: #FFFFFF; stroke-width: 1.0; stroke-dasharray: 7.0,7.0;"/><polygon fill="#FFFFFF" points="1716.6,719.9658,1723.7,713.1402,1718.4865,715.3354,1716.2913,710.1218,1716.6,719.9658" style="stroke: #FFFFFF; stroke-width: 1.0;"/><!--MD5=[a0f25749318cff2d56becdb4118cd0c0]
link User to CLI--><path d="M1524.41,80.7158 C1468.01,97.7258 1272.65,156.6558 1171.22,187.2458 " fill="none" id="User-&gt;CLI" style="stroke: #FFFFFF; stroke-width: 1.0;"/><polygon fill="#FFFFFF" points="1166.16,188.7758,1175.9315,190.0076,1170.9472,187.3326,1173.6223,182.3482,1166.16,188.7758" style="stroke: #FFFFFF; stroke-width: 1.0;"/><!--MD5=[bb07170366ce939dcc727915865a8aad]
link CLI to LocalCore--><path d="M1143.52,236.1458 C1194.74,277.8858 1289.79,355.3458 1336.16,393.1458 " fill="none" id="CLI-&gt;LocalCore" style="stroke: #FFFFFF; stroke-width: 1.0;"/><polygon fill="#FFFFFF" points="1340.22,396.4558,1335.7732,387.668,1336.3451,393.2959,1330.7173,393.8678,1340.22,396.4558" style="stroke: #FFFFFF; stroke-width: 1.0;"/><text fill="#FFFFFF" font-family="Monospace" font-size="11" lengthAdjust="spacingAndGlyphs" textLength="55" x="1199" y="278.7748">run locally</text><!--MD5=[0e6d18481b08b17b462d5a261920847c]
link LocalCore to LocalJob1--><path d="M1379.25,435.5858 C1404.49,464.4058 1453.01,519.8358 1480.23,550.9358 " fill="none" id="LocalCore-&gt;LocalJob1" style="stroke: #FFFFFF; stroke-width: 1.0;"/><polygon fill="#FFFFFF" points="1483.77,554.9758,1480.8361,545.5741,1480.4704,551.2192,1474.8254,550.8535,1483.77,554.9758" style="stroke: #FFFFFF; stroke-width: 1.0;"/><text fill="#FFFFFF" font-family="Monospace" font-size="11" lengthAdjust="spacingAndGlyphs" textLength="24" x="1432" y="492.7748">start</text><!--MD5=[a518fe6e517a59ab92dd0863db8bb0f5]
link LocalJob1 to LocalCore--><path d="M1496.76,554.8458 C1492.45,534.5658 1483.16,502.1158 1465,480.0158 C1450.56,462.4458 1429.88,448.4058 1410.9,438.0658 " fill="none" id="LocalJob1-&gt;LocalCore" style="stroke: #FFFFFF; stroke-width: 1.0;"/><polygon fill="#FFFFFF" points="1406.12,435.5258,1412.1945,443.2783,1410.5365,437.8699,1415.9449,436.2119,1406.12,435.5258" style="stroke: #FFFFFF; stroke-width: 1.0;"/><text fill="#FFFFFF" font-family="Monospace" font-size="11" lengthAdjust="spacingAndGlyphs" textLength="30" x="1476" y="492.7748">result</text><!--MD5=[33a3b53a6537c1d12e29cd383ef05c9f]
link LocalCore to LocalJob2--><path d="M1277.57,426.8858 C1244.27,435.3858 1209.29,451.0858 1189,480.0158 C1173.86,501.5958 1188.64,530.8058 1202.96,550.8058 " fill="none" id="LocalCore-&gt;LocalJob2" style="stroke: #FFFFFF; stroke-width: 1.0;"/><polygon fill="#FFFFFF" points="1206,554.9258,1203.8768,545.3086,1203.0321,550.902,1197.4386,550.0573,1206,554.9258" style="stroke: #FFFFFF; stroke-width: 1.0;"/><text fill="#FFFFFF" font-family="Monospace" font-size="11" lengthAdjust="spacingAndGlyphs" textLength="24" x="1190" y="492.7748">start</text><!--MD5=[362a689a2ff5a55e4bb8af325ffe6fb1]
link LocalJob2 to LocalCore--><path d="M1232.11,554.7358 C1243.28,534.9358 1262.56,503.4258 1284,480.0158 C1298.08,464.6458 1316.11,449.9658 1331.39,438.6558 " fill="none" id="LocalJob2-&gt;LocalCore" style="stroke: #FFFFFF; stroke-width: 1.0;"/><polygon fill="#FFFFFF" points="1335.62,435.5558,1325.9943,437.6407,1331.5844,438.5077,1330.7173,444.0977,1335.62,435.5558" style="stroke: #FFFFFF; stroke-width: 1.0;"/><text fill="#FFFFFF" font-family="Monospace" font-size="11" lengthAdjust="spacingAndGlyphs" textLength="30" x="1285" y="492.7748">result</text><!--MD5=[54c4f1dc6cd4585ccb823f3f58d6f788]
link LocalCore to LocalJobN--><path d="M1348.85,435.7258 C1340.71,447.6958 1331.27,463.9458 1327,480.0158 C1320.67,503.8458 1329.27,531.2558 1337.7,550.2058 " fill="none" id="LocalCore-&gt;LocalJobN" style="stroke: #FFFFFF; stroke-width: 1.0;"/><polygon fill="#FFFFFF" points="1339.83,554.8358,1339.71,544.9877,1337.7438,550.2919,1332.4396,548.3257,1339.83,554.8358" style="stroke: #FFFFFF; stroke-width: 1.0;"/><text fill="#FFFFFF" font-family="Monospace" font-size="11" lengthAdjust="spacingAndGlyphs" textLength="24" x="1328" y="492.7748">start</text><!--MD5=[ac70afda2daeea9b70ae0e8ab2126b82]
link LocalJobN to LocalCore--><path d="M1351.77,554.7258 C1353.23,539.0358 1355.33,516.0758 1357,496.0158 C1358.55,477.4158 1360.14,456.3458 1361.29,440.6458 " fill="none" id="LocalJobN-&gt;LocalCore" style="stroke: #FFFFFF; stroke-width: 1.0;"/><polygon fill="#FFFFFF" points="1361.67,435.5358,1357.0124,444.2138,1361.2985,440.522,1364.9903,444.8081,1361.67,435.5358" style="stroke: #FFFFFF; stroke-width: 1.0;"/><text fill="#FFFFFF" font-family="Monospace" font-size="11" lengthAdjust="spacingAndGlyphs" textLength="30" x="1359" y="492.7748">result</text><!--MD5=[3a314155df3c86a96c6dc817f2f42b38]
link LocalCore to LocalRuns--><path d="M1430.87,435.5758 C1476.12,449.9058 1535.57,472.6158 1582,504.0158 C1599.13,515.6058 1615.19,532.3258 1627.18,546.4658 " fill="none" id="LocalCore-&gt;LocalRuns" style="stroke: #FFFFFF; stroke-width: 1.0;"/><polygon fill="#FFFFFF" points="1630.45,550.3758,1627.7266,540.911,1627.235,546.5465,1621.5996,546.0549,1630.45,550.3758" style="stroke: #FFFFFF; stroke-width: 1.0;"/><text fill="#FFFFFF" font-family="Monospace" font-size="11" lengthAdjust="spacingAndGlyphs" textLength="80" x="1566" y="492.7748">write all results</text><!--MD5=[b5fc14f47ef1615d3bd9d3af545c0805]
link LocalRuns to Share--><path d="M1636.27,598.7758 C1620.4,630.2458 1592.12,686.3058 1575.11,720.0358 " fill="none" id="LocalRuns-&gt;Share" style="stroke: #FFFFFF; stroke-width: 1.0; stroke-dasharray: 7.0,7.0;"/><polygon fill="#FFFFFF" points="1572.69,724.8458,1580.3086,718.6043,1574.9375,720.3795,1573.1624,715.0083,1572.69,724.8458" style="stroke: #FFFFFF; stroke-width: 1.0;"/><text fill="#FFFFFF" font-family="Monospace" font-size="11" lengthAdjust="spacingAndGlyphs" textLength="60" x="1610" y="662.7748">--live_share</text><!--MD5=[800e0e0bb90fb898e4eff9c9cad77fdf]
link CLI to LoginNode--><path d="M1051.86,221.3558 C1008.61,231.9858 947.97,248.0358 896,266.0158 C794.75,301.0558 681.2,351.1658 611.14,383.3958 " fill="none" id="CLI-&gt;LoginNode" style="stroke: #FFFFFF; stroke-width: 1.0;"/><polygon fill="#FFFFFF" points="606.59,385.4958,616.4381,385.3758,611.134,383.4096,613.1002,378.1055,606.59,385.4958" style="stroke: #FFFFFF; stroke-width: 1.0;"/><text fill="#FFFFFF" font-family="Monospace" font-size="11" lengthAdjust="spacingAndGlyphs" textLength="47" x="897" y="278.7748">ssh login</text><!--MD5=[0c619afe08a0a430c7a3ffb1ff1eec8b]
link LoginNode to HPCMaster--><path d="M539.12,450.2058 C534.75,479.9858 528.43,522.9658 524.53,549.5258 " fill="none" id="LoginNode-&gt;HPCMaster" style="stroke: #FFFFFF; stroke-width: 1.0;"/><polygon fill="#FFFFFF" points="523.78,554.6058,529.0462,546.2832,524.5071,549.659,521.1312,545.1199,523.78,554.6058" style="stroke: #FFFFFF; stroke-width: 1.0;"/><text fill="#FFFFFF" font-family="Monospace" font-size="11" lengthAdjust="spacingAndGlyphs" textLength="89" x="535" y="492.7748">sbatch command</text><!--MD5=[bc271b6a5cff6b31372976e95eaea9c1]
link HPCMaster to HPCJob1--><path d="M435.79,577.9058 C375.73,584.0458 297.32,601.7058 247,650.0158 C226.74,669.4658 219.67,702.0358 217.24,724.2458 " fill="none" id="HPCMaster-&gt;HPCJob1" style="stroke: #FFFFFF; stroke-width: 1.0;"/><polygon fill="#FFFFFF" points="216.74,729.3758,221.5962,720.8074,217.2262,724.3995,213.6341,720.0295,216.74,729.3758" style="stroke: #FFFFFF; stroke-width: 1.0;"/><text fill="#FFFFFF" font-family="Monospace" font-size="11" lengthAdjust="spacingAndGlyphs" textLength="36" x="248" y="662.7748">submit</text><!--MD5=[fbdf50cdb4f9f975e37bd022847b94e5]
link HPCJob1 to HPCMaster--><path d="M241.97,729.3758 C271.17,708.7758 320.37,675.1958 365,650.0158 C400.36,630.0658 441.9,610.4058 473.23,596.2858 " fill="none" id="HPCJob1-&gt;HPCMaster" style="stroke: #FFFFFF; stroke-width: 1.0;"/><polygon fill="#FFFFFF" points="478.16,594.0658,468.3112,594.0973,473.5975,596.1111,471.5836,601.3974,478.16,594.0658" style="stroke: #FFFFFF; stroke-width: 1.0;"/><text fill="#FFFFFF" font-family="Monospace" font-size="11" lengthAdjust="spacingAndGlyphs" textLength="30" x="366" y="662.7748">result</text><!--MD5=[3bdf263a73ddb7c8e0d20086a00f2fd2]
link HPCMaster to HPCJob2--><path d="M474.68,594.0658 C451.05,606.1858 424.51,624.5458 411,650.0158 C398.68,673.2358 404.76,703.8958 411.58,724.6958 " fill="none" id="HPCMaster-&gt;HPCJob2" style="stroke: #FFFFFF; stroke-width: 1.0;"/><polygon fill="#FFFFFF" points="413.23,729.4958,414.0812,719.6838,411.6018,724.7684,406.5173,722.289,413.23,729.4958" style="stroke: #FFFFFF; stroke-width: 1.0;"/><text fill="#FFFFFF" font-family="Monospace" font-size="11" lengthAdjust="spacingAndGlyphs" textLength="36" x="412" y="662.7748">submit</text><!--MD5=[d5e22fb7790a5359df04a4237c610cdc]
link HPCJob2 to HPCMaster--><path d="M431.73,729.5158 C450.07,697.8658 487.43,633.4258 507.51,598.7858 " fill="none" id="HPCJob2-&gt;HPCMaster" style="stroke: #FFFFFF; stroke-width: 1.0;"/><polygon fill="#FFFFFF" points="510.11,594.3058,502.1367,600.0874,507.6031,598.632,509.0585,604.0984,510.11,594.3058" style="stroke: #FFFFFF; stroke-width: 1.0;"/><text fill="#FFFFFF" font-family="Monospace" font-size="11" lengthAdjust="spacingAndGlyphs" textLength="30" x="477" y="662.7748">result</text><!--MD5=[cabc2e8b1aeb44303f3178c6eecdfaaf]
link HPCMaster to HPCJobN--><path d="M528.82,594.0258 C536.66,612.4158 549.25,641.3558 561,666.0158 C570.56,686.0758 582.12,708.5158 590.68,724.8458 " fill="none" id="HPCMaster-&gt;HPCJobN" style="stroke: #FFFFFF; stroke-width: 1.0;"/><polygon fill="#FFFFFF" points="593.02,729.2758,592.3719,719.4483,590.693,724.8503,585.291,723.1715,593.02,729.2758" style="stroke: #FFFFFF; stroke-width: 1.0;"/><text fill="#FFFFFF" font-family="Monospace" font-size="11" lengthAdjust="spacingAndGlyphs" textLength="36" x="562" y="662.7748">submit</text><!--MD5=[cbab37695bd00e2f37efe170a9fa92c9]
link HPCJobN to HPCMaster--><path d="M607.31,729.4058 C611.08,708.9758 614.36,675.6858 603,650.0158 C593.38,628.2858 573.96,610.1858 556.42,597.2658 " fill="none" id="HPCJobN-&gt;HPCMaster" style="stroke: #FFFFFF; stroke-width: 1.0;"/><polygon fill="#FFFFFF" points="552.01,594.0858,556.9861,602.5852,556.0709,597.0028,561.6533,596.0877,552.01,594.0858" style="stroke: #FFFFFF; stroke-width: 1.0;"/><text fill="#FFFFFF" font-family="Monospace" font-size="11" lengthAdjust="spacingAndGlyphs" textLength="30" x="608" y="662.7748">result</text><!--MD5=[571935b6720c67f63951b3fde5967843]
link HPCMaster to HPCRuns--><path d="M553.39,594.1358 C607.14,625.0458 714.88,686.9958 775.99,722.1358 " fill="none" id="HPCMaster-&gt;HPCRuns" style="stroke: #FFFFFF; stroke-width: 1.0;"/><polygon fill="#FFFFFF" points="780.67,724.8258,774.877,716.8608,776.3403,722.3252,770.8759,723.7884,780.67,724.8258" style="stroke: #FFFFFF; stroke-width: 1.0;"/><text fill="#FFFFFF" font-family="Monospace" font-size="11" lengthAdjust="spacingAndGlyphs" textLength="80" x="672" y="662.7748">write all results</text><!--MD5=[9251a4ddef4a8be2b2b946da628c179a]
link HPCRuns to Share--><path d="M904.81,749.0158 C1051.35,749.0158 1351.63,749.0158 1489.24,749.0158 " fill="none" id="HPCRuns-&gt;Share" style="stroke: #FFFFFF; stroke-width: 1.0; stroke-dasharray: 7.0,7.0;"/><polygon fill="#FFFFFF" points="1494.46,749.0158,1485.46,745.0158,1489.46,749.0158,1485.46,753.0158,1494.46,749.0158" style="stroke: #FFFFFF; stroke-width: 1.0;"/><text fill="#FFFFFF" font-family="Monospace" font-size="11" lengthAdjust="spacingAndGlyphs" textLength="60" x="1169.5" y="742.7748">--live_share</text><!--MD5=[86aa990bbab0f001ce6ecd6afc64f378]
@startuml

actor User

  skinparam backgroundColor #000000
  skinparam defaultFontColor #ffffff
  skinparam componentFontColor #ffffff
  skinparam nodeFontColor #ffffff
  skinparam databaseFontColor #ffffff
  skinparam arrowColor #ffffff
  skinparam ArrowFontColor #ffffff

  skinparam componentBackgroundColor #1e1e1e
  skinparam nodeBackgroundColor #CC7000
  skinparam databaseBackgroundColor #003366
  skinparam packageBackgroundColor #1e1e1e
  skinparam cloudBackgroundColor #1e1e1e

  skinparam componentBorderColor #ffffff
  skinparam nodeBorderColor #ffffff
  skinparam databaseBorderColor #ffffff
  skinparam packageBorderColor #ffffff
  skinparam cloudBorderColor #ffffff
  skinparam rectangleBorderColor #ffffff

skinparam componentStyle rectangle
skinparam defaultFontName Monospace
skinparam ArrowFontSize 11

title OmniOpt2 Architecture

package "User Interface" {
  component "Web GUI\n(optional)" as GUI #line.dashed
  database "OmniOpt2 Share" as Share #line.dashed
}

component "CLI Command\nomniopt ..." as CLI

GUI ..> CLI : Generates CLI command
User ..> GUI
User - -> CLI

package "Local Mode" {
  database "runs/ (local)" as LocalRuns

  node "Local System" {
    component "OmniOpt2 main script" as LocalCore

    component "Job #1" as LocalJob1 #FF8C00
    component "Job #2" as LocalJob2 #FF8C00
    component "Job #n" as LocalJobN #FF8C00
  }

  CLI - -> LocalCore : run locally

  LocalCore - -> LocalJob1 : start
  LocalJob1 - -> LocalCore : result

  LocalCore - -> LocalJob2 : start
  LocalJob2 - -> LocalCore : result

  LocalCore - -> LocalJobN : start
  LocalJobN - -> LocalCore : result

  LocalCore - -> LocalRuns : write all results
  LocalRuns ..> Share : - -live_share
}

package "HPC Mode (via submitit/sbatch)" {
  cloud "HPC Cluster" {

    node "Login Node\n(sbatch only)" as LoginNode
    node "Head Node" {
      component "OmniOpt2 main script" as HPCMaster
    }
    node "Compute Node 1" {
      component "Job #1" as HPCJob1 #FF8C00
    }
    node "Compute Node 2" {
      component "Job #2" as HPCJob2 #FF8C00
    }
    node "Compute Node n" {
      component "Job #n" as HPCJobN #FF8C00
    }
  }

  database "runs/ (HPC filesystem)" as HPCRuns

  CLI - -> LoginNode : ssh login
  LoginNode - -> HPCMaster : sbatch command

  HPCMaster - -> HPCJob1 : submit
  HPCMaster - -> HPCJob2 : submit
  HPCMaster - -> HPCJobN : submit

  HPCJob1 - -> HPCMaster : result
  HPCJob2 - -> HPCMaster : result
  HPCJobN - -> HPCMaster : result

  HPCMaster - -> HPCRuns : write all results
  HPCRuns ..> Share : - -live_share
}

@enduml

PlantUML version 1.2020.02(Sun Mar 01 11:22:07 CET 2020)
(GPL source distribution)
Java Runtime: OpenJDK Runtime Environment
JVM: OpenJDK 64-Bit Server VM
Java Version: 17.0.15+6-Debian-1deb12u1
Operating System: Linux
Default Encoding: UTF-8
Language: de
Country: DE
--></g></svg>