<?xml version="1.0" encoding="UTF-8" standalone="no"?><svg xmlns="http://www.w3.org/2000/svg" xmlns:xlink="http://www.w3.org/1999/xlink" contentScriptType="application/ecmascript" contentStyleType="text/css" height="491px" preserveAspectRatio="none" style="width:1348px;height:491px;" version="1.1" viewBox="0 0 1348 491" width="1348px" zoomAndPan="magnify"><defs><filter height="300%" id="f19beiqkasi1f2" width="300%" x="-1" y="-1"><feGaussianBlur result="blurOut" stdDeviation="2.0"/><feColorMatrix in="blurOut" result="blurOut2" type="matrix" values="0 0 0 0 0 0 0 0 0 0 0 0 0 0 0 0 0 0 .4 0"/><feOffset dx="4.0" dy="4.0" in="blurOut2" result="blurOut3"/><feBlend in="SourceGraphic" in2="blurOut3" mode="normal"/></filter></defs><g><text fill="#000000" font-family="sans-serif" font-size="18" lengthAdjust="spacingAndGlyphs" textLength="770" x="292.5" y="19.2419">Interaction between OmniOpt, sbatch, ax, BoTorch Module, and ExternalGenerationNodes</text><!--MD5=[5687f5b0a9f1da24cf398575a94f7314]
cluster HPCMaster--><polygon fill="#FFFFFF" filter="url(#f19beiqkasi1f2)" points="22,58.5158,32,48.5158,947,48.5158,947,469.5158,937,479.5158,22,479.5158,22,58.5158" style="stroke: #000000; stroke-width: 1.5;"/><line style="stroke: #000000; stroke-width: 1.5;" x1="937" x2="946" y1="58.5158" y2="49.5158"/><line style="stroke: #000000; stroke-width: 1.5;" x1="22" x2="937" y1="58.5158" y2="58.5158"/><line style="stroke: #000000; stroke-width: 1.5;" x1="937" x2="937" y1="58.5158" y2="479.5158"/><text fill="#000000" font-family="sans-serif" font-size="14" font-weight="bold" lengthAdjust="spacingAndGlyphs" textLength="122" x="419.5" y="76.4818">HPC Master Node</text><!--MD5=[2581f1adf71c4d9c4ca8845dd85da35f]
cluster BoTorch Module--><polygon fill="#FFFFFF" filter="url(#f19beiqkasi1f2)" points="414,362.5158,533,362.5158,540,387.5838,827,387.5838,827,455.5158,414,455.5158,414,362.5158" style="stroke: #000000; stroke-width: 1.5;"/><line style="stroke: #000000; stroke-width: 1.5;" x1="414" x2="540" y1="387.5838" y2="387.5838"/><text fill="#000000" font-family="sans-serif" font-size="14" font-weight="bold" lengthAdjust="spacingAndGlyphs" textLength="113" x="418" y="379.4818">BoTorch Module</text><!--MD5=[e2889d74894dfd2cde98a945e775442d]
cluster ComputeNodes--><polygon fill="#FFFFFF" filter="url(#f19beiqkasi1f2)" points="971,205.5158,981,195.5158,1261,195.5158,1261,283.5158,1251,293.5158,971,293.5158,971,205.5158" style="stroke: #000000; stroke-width: 1.5;"/><line style="stroke: #000000; stroke-width: 1.5;" x1="1251" x2="1260" y1="205.5158" y2="196.5158"/><line style="stroke: #000000; stroke-width: 1.5;" x1="971" x2="1251" y1="205.5158" y2="205.5158"/><line style="stroke: #000000; stroke-width: 1.5;" x1="1251" x2="1251" y1="205.5158" y2="293.5158"/><text fill="#000000" font-family="sans-serif" font-size="14" font-weight="bold" lengthAdjust="spacingAndGlyphs" textLength="112" x="1056" y="223.4818">Compute Nodes</text><!--MD5=[2f2b0aedd9c38e5145f377076e8d496d]
entity OmniOptCore--><rect fill="#FEFECE" filter="url(#f19beiqkasi1f2)" height="39.0679" style="stroke: #A80036; stroke-width: 1.5;" width="125" x="805.5" y="91.5158"/><rect fill="#FEFECE" height="5" style="stroke: #A80036; stroke-width: 1.5;" width="10" x="800.5" y="96.5158"/><rect fill="#FEFECE" height="5" style="stroke: #A80036; stroke-width: 1.5;" width="10" x="800.5" y="120.5838"/><text fill="#000000" font-family="sans-serif" font-size="14" lengthAdjust="spacingAndGlyphs" textLength="105" x="815.5" y="116.4818">OmniOpt2 Core</text><!--MD5=[3a66b5fcc5a5db46ac919e228b9ab7c5]
entity ax_module--><rect fill="#ADD8E6" filter="url(#f19beiqkasi1f2)" height="39.0679" style="stroke: #A80036; stroke-width: 1.5;" width="35" x="534.5" y="238.5158"/><rect fill="#ADD8E6" height="5" style="stroke: #A80036; stroke-width: 1.5;" width="10" x="529.5" y="243.5158"/><rect fill="#ADD8E6" height="5" style="stroke: #A80036; stroke-width: 1.5;" width="10" x="529.5" y="267.5838"/><text fill="#000000" font-family="sans-serif" font-size="14" lengthAdjust="spacingAndGlyphs" textLength="15" x="544.5" y="263.4818">ax</text><!--MD5=[ff96caba99bf59d2b43e041a81d886a4]
entity external_nodes--><rect fill="#FFFFE0" filter="url(#f19beiqkasi1f2)" height="39.0679" style="stroke: #A80036; stroke-width: 1.5;" width="193" x="93.5" y="400.5158"/><rect fill="#FFFFE0" height="5" style="stroke: #A80036; stroke-width: 1.5;" width="10" x="88.5" y="405.5158"/><rect fill="#FFFFE0" height="5" style="stroke: #A80036; stroke-width: 1.5;" width="10" x="88.5" y="429.5838"/><text fill="#000000" font-family="sans-serif" font-size="14" lengthAdjust="spacingAndGlyphs" textLength="173" x="103.5" y="425.4818">ExternalGenerationNodes</text><!--MD5=[fd9ebf31d21df91e110ad002d6f4b355]
entity sobol--><rect fill="#90EE90" filter="url(#f19beiqkasi1f2)" height="39.0679" style="stroke: #A80036; stroke-width: 1.5;" width="199" x="430.5" y="400.5158"/><rect fill="#90EE90" height="5" style="stroke: #A80036; stroke-width: 1.5;" width="10" x="425.5" y="405.5158"/><rect fill="#90EE90" height="5" style="stroke: #A80036; stroke-width: 1.5;" width="10" x="425.5" y="429.5838"/><text fill="#000000" font-family="sans-serif" font-size="14" lengthAdjust="spacingAndGlyphs" textLength="179" x="440.5" y="425.4818">Sobol Sequence Generator</text><!--MD5=[768daca0a1630a961345edac01c51118]
entity botorch--><rect fill="#FFFFE0" filter="url(#f19beiqkasi1f2)" height="39.0679" style="stroke: #A80036; stroke-width: 1.5;" width="146" x="665" y="400.5158"/><rect fill="#FFFFE0" height="5" style="stroke: #A80036; stroke-width: 1.5;" width="10" x="660" y="405.5158"/><rect fill="#FFFFE0" height="5" style="stroke: #A80036; stroke-width: 1.5;" width="10" x="660" y="429.5838"/><text fill="#000000" font-family="sans-serif" font-size="14" lengthAdjust="spacingAndGlyphs" textLength="126" x="675" y="425.4818">BoTorch Optimizer</text><!--MD5=[47e052b533fd8425fd8ca2757eeea134]
entity Job1--><rect fill="#FF8C00" filter="url(#f19beiqkasi1f2)" height="39.0679" style="stroke: #A80036; stroke-width: 1.5;" width="62" x="987" y="238.5158"/><rect fill="#FF8C00" height="5" style="stroke: #A80036; stroke-width: 1.5;" width="10" x="982" y="243.5158"/><rect fill="#FF8C00" height="5" style="stroke: #A80036; stroke-width: 1.5;" width="10" x="982" y="267.5838"/><text fill="#000000" font-family="sans-serif" font-size="14" lengthAdjust="spacingAndGlyphs" textLength="42" x="997" y="263.4818">Job #1</text><!--MD5=[ad1ecd006b7d6e2fcd722d0410ebc487]
entity Job2--><rect fill="#FF8C00" filter="url(#f19beiqkasi1f2)" height="39.0679" style="stroke: #A80036; stroke-width: 1.5;" width="62" x="1084" y="238.5158"/><rect fill="#FF8C00" height="5" style="stroke: #A80036; stroke-width: 1.5;" width="10" x="1079" y="243.5158"/><rect fill="#FF8C00" height="5" style="stroke: #A80036; stroke-width: 1.5;" width="10" x="1079" y="267.5838"/><text fill="#000000" font-family="sans-serif" font-size="14" lengthAdjust="spacingAndGlyphs" textLength="42" x="1094" y="263.4818">Job #2</text><!--MD5=[d6d399e3b77205a86664f0dcaaa37b67]
entity JobN--><rect fill="#FF8C00" filter="url(#f19beiqkasi1f2)" height="39.0679" style="stroke: #A80036; stroke-width: 1.5;" width="63" x="1181.5" y="238.5158"/><rect fill="#FF8C00" height="5" style="stroke: #A80036; stroke-width: 1.5;" width="10" x="1176.5" y="243.5158"/><rect fill="#FF8C00" height="5" style="stroke: #A80036; stroke-width: 1.5;" width="10" x="1176.5" y="267.5838"/><text fill="#000000" font-family="sans-serif" font-size="14" lengthAdjust="spacingAndGlyphs" textLength="43" x="1191.5" y="263.4818">Job #n</text><!--MD5=[da8e97604b8f762f2f25f39b9ce180b2]
link OmniOptCore to ax_module--><path d="M805.03,113.3758 C675.43,116.8258 388.49,128.0858 359,160.5158 C306.53,218.2258 467.09,245.8958 528.85,254.2158 " fill="none" id="OmniOptCore-&gt;ax_module" style="stroke: #A80036; stroke-width: 1.0;"/><polygon fill="#A80036" points="534.17,254.9158,525.7737,249.7678,529.2134,254.2588,524.7224,257.6984,534.17,254.9158" style="stroke: #A80036; stroke-width: 1.0;"/><text fill="#000000" font-family="sans-serif" font-size="13" lengthAdjust="spacingAndGlyphs" textLength="148" x="360" y="175.4129">invoke with search space</text><!--MD5=[1af0978839253e48dc811fb528ff5245]
link ax_module to OmniOptCore--><path d="M569.51,245.3458 C599.38,225.8058 662.54,186.1058 720,160.5158 C745.59,149.1158 774.7,139.0058 800.3,130.9958 " fill="none" id="ax_module-&gt;OmniOptCore" style="stroke: #A80036; stroke-width: 1.0;"/><polygon fill="#A80036" points="805.37,129.4258,795.5877,128.2824,800.5961,130.9123,797.9661,135.9207,805.37,129.4258" style="stroke: #A80036; stroke-width: 1.0;"/><text fill="#000000" font-family="sans-serif" font-size="13" lengthAdjust="spacingAndGlyphs" textLength="119" x="721" y="175.4129">all generated points</text><!--MD5=[da8e97604b8f762f2f25f39b9ce180b2]
link OmniOptCore to ax_module--><path d="M805.39,115.1058 C731.47,120.0158 614.46,132.1258 582,160.5158 C561.22,178.6958 554.65,210.9958 552.67,233.1858 " fill="none" id="OmniOptCore-&gt;ax_module-1" style="stroke: #A80036; stroke-width: 1.0;"/><polygon fill="#A80036" points="552.28,238.3058,556.9376,229.6279,552.6515,233.3197,548.9597,229.0335,552.28,238.3058" style="stroke: #A80036; stroke-width: 1.0;"/><text fill="#000000" font-family="sans-serif" font-size="13" lengthAdjust="spacingAndGlyphs" textLength="90" x="583" y="175.4129">forward results</text><!--MD5=[8fff2eeadda3fff93d08937226cdcd97]
link ax_module to sobol--><path d="M534.43,260.6658 C489.45,265.3058 372.04,280.0458 349,309.5158 C338.87,322.4758 337.99,334.3058 349,346.5158 C360.52,359.2958 409.72,348.9558 426,354.5158 C454.15,364.1358 482.63,382.5358 502.64,397.2258 " fill="none" id="ax_module-&gt;sobol" style="stroke: #A80036; stroke-width: 1.0;"/><polygon fill="#A80036" points="506.79,400.2958,501.936,391.7262,502.7712,397.3211,497.1763,398.1563,506.79,400.2958" style="stroke: #A80036; stroke-width: 1.0;"/><text fill="#000000" font-family="sans-serif" font-size="13" lengthAdjust="spacingAndGlyphs" textLength="183" x="350" y="333.4129">generate initial points (default)</text><!--MD5=[8e9aa0cc2a47bc04528d2dac2760e7a8]
link sobol to ax_module--><path d="M532.55,400.4658 C536.55,371.3958 544.29,315.1158 548.7,283.0058 " fill="none" id="sobol-&gt;ax_module" style="stroke: #A80036; stroke-width: 1.0;"/><polygon fill="#A80036" points="549.43,277.6858,544.2345,286.0529,548.7449,282.6387,552.1591,287.1491,549.43,277.6858" style="stroke: #A80036; stroke-width: 1.0;"/><text fill="#000000" font-family="sans-serif" font-size="13" lengthAdjust="spacingAndGlyphs" textLength="73" x="546" y="333.4129">initial points</text><!--MD5=[cec394c570342177663ef42daa4e7d28]
link ax_module to botorch--><path d="M569.58,269.3258 C585.44,278.9458 609.1,294.0858 628,309.5158 C661.74,337.0658 696.73,373.4858 717.94,396.5858 " fill="none" id="ax_module-&gt;botorch" style="stroke: #A80036; stroke-width: 1.0;"/><polygon fill="#A80036" points="721.48,400.4558,718.3569,391.1153,718.1053,396.7665,712.454,396.5148,721.48,400.4558" style="stroke: #A80036; stroke-width: 1.0;"/><text fill="#000000" font-family="sans-serif" font-size="13" lengthAdjust="spacingAndGlyphs" textLength="95" x="688" y="324.4129">generate points</text><text fill="#000000" font-family="sans-serif" font-size="13" lengthAdjust="spacingAndGlyphs" textLength="129" x="671" y="342.1189">(using current points)</text><!--MD5=[d98d609daf0f481925676ee246f0cfd7]
link botorch to ax_module--><path d="M764.68,400.5158 C793.9,378.0158 833.54,339.3458 809,309.5158 C779.41,273.5458 632.56,262.8058 575.1,259.9458 " fill="none" id="botorch-&gt;ax_module" style="stroke: #A80036; stroke-width: 1.0;"/><polygon fill="#A80036" points="569.83,259.6958,578.6253,264.1278,574.8241,259.9384,579.0135,256.1372,569.83,259.6958" style="stroke: #A80036; stroke-width: 1.0;"/><text fill="#000000" font-family="sans-serif" font-size="13" lengthAdjust="spacingAndGlyphs" textLength="66" x="818" y="333.4129">new points</text><!--MD5=[fec4a35e48065a648c0a47644d8b95b4]
link ax_module to external_nodes--><path d="M534.46,259.4958 C451.55,261.9358 101.74,274.2758 70,309.5158 C39.89,342.9458 93.9,377.2258 138.89,398.3258 " fill="none" id="ax_module-&gt;external_nodes" style="stroke: #A80036; stroke-width: 1.0;"/><polygon fill="#A80036" points="143.49,400.4558,136.999,393.0486,138.9515,398.3578,133.6422,400.3103,143.49,400.4558" style="stroke: #A80036; stroke-width: 1.0;"/><text fill="#000000" font-family="sans-serif" font-size="13" lengthAdjust="spacingAndGlyphs" textLength="95" x="88" y="324.4129">generate points</text><text fill="#000000" font-family="sans-serif" font-size="13" lengthAdjust="spacingAndGlyphs" textLength="129" x="71" y="342.1189">(using current points)</text><!--MD5=[d5253afcf19d710b4b3ea91b9ffa8f3e]
link external_nodes to ax_module--><path d="M197.39,400.4758 C208.38,375.4858 231.5,331.5958 266,309.5158 C309.9,281.4158 469.45,265.7658 529.2,260.7858 " fill="none" id="external_nodes-&gt;ax_module" style="stroke: #A80036; stroke-width: 1.0;"/><polygon fill="#A80036" points="534.33,260.3658,525.0297,257.1249,529.3472,260.7799,525.6921,265.0974,534.33,260.3658" style="stroke: #A80036; stroke-width: 1.0;"/><text fill="#000000" font-family="sans-serif" font-size="13" lengthAdjust="spacingAndGlyphs" textLength="66" x="267" y="333.4129">new points</text><!--MD5=[81c8fd8f3110b8c69dff5529db286869]
link OmniOptCore to Job1--><path d="M879.4,130.7558 C889.45,145.8358 905.36,166.5858 924,179.5158 C932.89,185.6858 937.8,181.8158 947,187.5158 C967.24,200.0558 986.29,219.2758 999.56,234.3258 " fill="none" id="OmniOptCore-&gt;Job1" style="stroke: #A80036; stroke-width: 1.0;"/><polygon fill="#A80036" points="1003.14,238.4558,1000.2643,229.0362,999.8637,234.6788,994.2211,234.2782,1003.14,238.4558" style="stroke: #A80036; stroke-width: 1.0;"/><text fill="#000000" font-family="sans-serif" font-size="13" lengthAdjust="spacingAndGlyphs" textLength="64" x="925" y="175.4129">submit job</text><!--MD5=[c18ddbec662f5264ce3bce332f70300b]
link Job1 to OmniOptCore--><path d="M1004.91,238.3058 C992.2,221.8058 971.29,198.6758 947,187.5158 C928.35,178.9458 868.87,194.6458 855,179.5158 C844.2,167.7358 848.25,149.8258 854.57,135.4058 " fill="none" id="Job1-&gt;OmniOptCore" style="stroke: #A80036; stroke-width: 1.0;"/><polygon fill="#A80036" points="856.79,130.6658,849.3582,137.1287,854.6748,135.1964,856.6071,140.513,856.79,130.6658" style="stroke: #A80036; stroke-width: 1.0;"/><text fill="#000000" font-family="sans-serif" font-size="13" lengthAdjust="spacingAndGlyphs" textLength="40" x="856" y="175.4129">results</text><!--MD5=[8f4913b2f0c9031033e922545f626df0]
link OmniOptCore to Job2--><path d="M930.68,120.1758 C983.67,128.2158 1054.34,141.9758 1076,160.5158 C1097.61,179.0058 1107.39,211.2358 1111.72,233.3158 " fill="none" id="OmniOptCore-&gt;Job2" style="stroke: #A80036; stroke-width: 1.0;"/><polygon fill="#A80036" points="1112.65,238.4258,1114.9363,228.846,1111.7355,233.5102,1107.0713,230.3093,1112.65,238.4258" style="stroke: #A80036; stroke-width: 1.0;"/><text fill="#000000" font-family="sans-serif" font-size="13" lengthAdjust="spacingAndGlyphs" textLength="64" x="1091" y="175.4129">submit job</text><!--MD5=[e1f374dc4ac342c09d47f00321df32d4]
link Job2 to OmniOptCore--><path d="M1107.06,238.2858 C1099.25,222.2258 1085.77,199.8058 1067,187.5158 C1051.47,177.3458 1043.35,186.1258 1026,179.5158 C1010.54,173.6258 1008.88,167.7358 994,160.5158 C972.63,150.1458 948.43,140.3858 927,132.3858 " fill="none" id="Job2-&gt;OmniOptCore" style="stroke: #A80036; stroke-width: 1.0;"/><polygon fill="#A80036" points="922.19,130.5958,929.2309,137.4825,926.8763,132.3389,932.0199,129.9843,922.19,130.5958" style="stroke: #A80036; stroke-width: 1.0;"/><text fill="#000000" font-family="sans-serif" font-size="13" lengthAdjust="spacingAndGlyphs" textLength="40" x="1027" y="175.4129">results</text><!--MD5=[531f84d1dbeccf3f27e2ed863d36d27c]
link OmniOptCore to JobN--><path d="M930.72,115.2058 C1036.8,121.2558 1242.31,136.0058 1264,160.5158 C1283.71,182.7858 1260.09,214.0158 1238.86,234.8458 " fill="none" id="OmniOptCore-&gt;JobN" style="stroke: #A80036; stroke-width: 1.0;"/><polygon fill="#A80036" points="1235.21,238.3558,1244.4718,235.0063,1238.8161,234.8923,1238.9301,229.2366,1235.21,238.3558" style="stroke: #A80036; stroke-width: 1.0;"/><text fill="#000000" font-family="sans-serif" font-size="13" lengthAdjust="spacingAndGlyphs" textLength="64" x="1272" y="175.4129">submit job</text><!--MD5=[4d52ecd93ead93b7a2fe0b14a0c77798]
link JobN to OmniOptCore--><path d="M1208.96,238.4358 C1203.08,216.1758 1189.93,179.4858 1164,160.5158 C1128.65,134.6558 1011.96,121.8358 936.08,116.0858 " fill="none" id="JobN-&gt;OmniOptCore" style="stroke: #A80036; stroke-width: 1.0;"/><polygon fill="#A80036" points="930.69,115.6858,939.368,120.3434,935.6762,116.0573,939.9623,112.3655,930.69,115.6858" style="stroke: #A80036; stroke-width: 1.0;"/><text fill="#000000" font-family="sans-serif" font-size="13" lengthAdjust="spacingAndGlyphs" textLength="40" x="1183" y="175.4129">results</text><!--MD5=[a88abf5a6a68462ebc1a59710320b7ed]
@startuml

title Interaction between OmniOpt, sbatch, ax, BoTorch Module, and ExternalGenerationNodes

node "HPC Master Node" as HPCMaster {
  component "OmniOpt2 Core" as OmniOptCore
  component "ax" as ax_module #LightBlue

  package "BoTorch Module" {
    component "Sobol Sequence Generator" as sobol #LightGreen
    component "BoTorch Optimizer" as botorch #LightYellow
  }

  component "ExternalGenerationNodes" as external_nodes #LightYellow
}

node "Compute Nodes" as ComputeNodes {
  component "Job #1" as Job1 #FF8C00
  component "Job #2" as Job2 #FF8C00
  component "Job #n" as JobN #FF8C00
}

OmniOptCore - -> ax_module : invoke with search space

ax_module - -> sobol : generate initial points (default)

sobol - -> ax_module : initial points


ax_module - -> botorch : generate points\n(using current points)

ax_module - -> external_nodes : generate points\n(using current points)

botorch - -> ax_module : new points
external_nodes - -> ax_module : new points

ax_module - -> OmniOptCore : all generated points

OmniOptCore - -> Job1 : submit job
OmniOptCore - -> Job2 : submit job
OmniOptCore - -> JobN : submit job

Job1 - -> OmniOptCore : results
Job2 - -> OmniOptCore : results
JobN - -> OmniOptCore : results

OmniOptCore - -> ax_module : forward results

@enduml

PlantUML version 1.2020.02(Sun Mar 01 11:22:07 CET 2020)
(GPL source distribution)
Java Runtime: OpenJDK Runtime Environment
JVM: OpenJDK 64-Bit Server VM
Java Version: 11.0.27+6-post-Debian-1deb11u1
Operating System: Linux
Default Encoding: UTF-8
Language: de
Country: DE
--></g></svg>