<?xml version="1.0" encoding="UTF-8" standalone="no"?><svg xmlns="http://www.w3.org/2000/svg" xmlns:xlink="http://www.w3.org/1999/xlink" contentScriptType="application/ecmascript" contentStyleType="text/css" height="550px" preserveAspectRatio="none" style="width:1533px;height:550px;background:#000000;" version="1.1" viewBox="0 0 1533 550" width="1533px" zoomAndPan="magnify"><defs><filter height="300%" id="fp5x5ik57xyg7" width="300%" x="-1" y="-1"><feGaussianBlur result="blurOut" stdDeviation="2.0"/><feColorMatrix in="blurOut" result="blurOut2" type="matrix" values="0 0 0 0 0 0 0 0 0 0 0 0 0 0 0 0 0 0 .4 0"/><feOffset dx="4.0" dy="4.0" in="blurOut2" result="blurOut3"/><feBlend in="SourceGraphic" in2="blurOut3" mode="normal"/></filter></defs><g><text fill="#FFFFFF" font-family="Monospace" font-size="18" lengthAdjust="spacingAndGlyphs" textLength="770" x="385" y="19.2419">Interaction between OmniOpt, sbatch, ax, BoTorch Module, and ExternalGenerationNodes</text><!--MD5=[5687f5b0a9f1da24cf398575a94f7314]
cluster HPCMaster--><polygon fill="#CC7000" filter="url(#fp5x5ik57xyg7)" points="22,59.0158,32,49.0158,1120,49.0158,1120,528.5158,1110,538.5158,22,538.5158,22,59.0158" style="stroke: #FFFFFF; stroke-width: 1.5;"/><line style="stroke: #FFFFFF; stroke-width: 1.5;" x1="1110" x2="1119" y1="59.0158" y2="50.0158"/><line style="stroke: #FFFFFF; stroke-width: 1.5;" x1="22" x2="1110" y1="59.0158" y2="59.0158"/><line style="stroke: #FFFFFF; stroke-width: 1.5;" x1="1110" x2="1110" y1="59.0158" y2="538.5158"/><text fill="#FFFFFF" font-family="Monospace" font-size="14" font-weight="bold" lengthAdjust="spacingAndGlyphs" textLength="122" x="506" y="76.9818">HPC Master Node</text><!--MD5=[2581f1adf71c4d9c4ca8845dd85da35f]
cluster BoTorch Module--><polygon fill="#1E1E1E" filter="url(#fp5x5ik57xyg7)" points="46,100.0158,165,100.0158,172,125.0838,475,125.0838,475,514.5158,46,514.5158,46,100.0158" style="stroke: #FFFFFF; stroke-width: 1.5;"/><line style="stroke: #FFFFFF; stroke-width: 1.5;" x1="46" x2="172" y1="125.0838" y2="125.0838"/><text fill="#FFFFFF" font-family="Monospace" font-size="14" font-weight="bold" lengthAdjust="spacingAndGlyphs" textLength="113" x="50" y="116.9818">BoTorch Module</text><!--MD5=[e2889d74894dfd2cde98a945e775442d]
cluster ComputeNodes--><polygon fill="#CC7000" filter="url(#fp5x5ik57xyg7)" points="1194,268.0158,1204,258.0158,1484,258.0158,1484,346.0158,1474,356.0158,1194,356.0158,1194,268.0158" style="stroke: #FFFFFF; stroke-width: 1.5;"/><line style="stroke: #FFFFFF; stroke-width: 1.5;" x1="1474" x2="1483" y1="268.0158" y2="259.0158"/><line style="stroke: #FFFFFF; stroke-width: 1.5;" x1="1194" x2="1474" y1="268.0158" y2="268.0158"/><line style="stroke: #FFFFFF; stroke-width: 1.5;" x1="1474" x2="1474" y1="268.0158" y2="356.0158"/><text fill="#FFFFFF" font-family="Monospace" font-size="14" font-weight="bold" lengthAdjust="spacingAndGlyphs" textLength="112" x="1279" y="285.9818">Compute Nodes</text><!--MD5=[2f2b0aedd9c38e5145f377076e8d496d]
entity OmniOptCore--><rect fill="#1E1E1E" filter="url(#fp5x5ik57xyg7)" height="39.0679" style="stroke: #FFFFFF; stroke-width: 1.5;" width="125" x="978.5" y="147.5158"/><rect fill="#1E1E1E" height="5" style="stroke: #FFFFFF; stroke-width: 1.5;" width="10" x="973.5" y="152.5158"/><rect fill="#1E1E1E" height="5" style="stroke: #FFFFFF; stroke-width: 1.5;" width="10" x="973.5" y="176.5838"/><text fill="#FFFFFF" font-family="Monospace" font-size="14" lengthAdjust="spacingAndGlyphs" textLength="105" x="988.5" y="172.4818">OmniOpt2 Core</text><!--MD5=[3a66b5fcc5a5db46ac919e228b9ab7c5]
entity ax_module--><rect fill="#ADD8E6" filter="url(#fp5x5ik57xyg7)" height="39.0679" style="stroke: #FFFFFF; stroke-width: 1.5;" width="35" x="631.5" y="301.0158"/><rect fill="#ADD8E6" height="5" style="stroke: #FFFFFF; stroke-width: 1.5;" width="10" x="626.5" y="306.0158"/><rect fill="#ADD8E6" height="5" style="stroke: #FFFFFF; stroke-width: 1.5;" width="10" x="626.5" y="330.0838"/><text fill="#FFFFFF" font-family="Monospace" font-size="14" lengthAdjust="spacingAndGlyphs" textLength="15" x="641.5" y="325.9818">ax</text><!--MD5=[ff96caba99bf59d2b43e041a81d886a4]
entity external_nodes--><rect fill="#1E1E1E" filter="url(#fp5x5ik57xyg7)" height="39.0679" style="stroke: #FFFFFF; stroke-width: 1.5;" width="193" x="806.5" y="450.0158"/><rect fill="#1E1E1E" height="5" style="stroke: #FFFFFF; stroke-width: 1.5;" width="10" x="801.5" y="455.0158"/><rect fill="#1E1E1E" height="5" style="stroke: #FFFFFF; stroke-width: 1.5;" width="10" x="801.5" y="479.0838"/><text fill="#FFFFFF" font-family="Monospace" font-size="14" lengthAdjust="spacingAndGlyphs" textLength="173" x="816.5" y="474.9818">ExternalGenerationNodes</text><!--MD5=[106eb1323429edff886bc7e700cb3794]
entity rf_nodes--><rect fill="#ADD8E6" filter="url(#fp5x5ik57xyg7)" height="39.0679" style="stroke: #FFFFFF; stroke-width: 1.5;" width="117" x="607.5" y="450.0158"/><rect fill="#ADD8E6" height="5" style="stroke: #FFFFFF; stroke-width: 1.5;" width="10" x="602.5" y="455.0158"/><rect fill="#ADD8E6" height="5" style="stroke: #FFFFFF; stroke-width: 1.5;" width="10" x="602.5" y="479.0838"/><text fill="#FFFFFF" font-family="Monospace" font-size="14" lengthAdjust="spacingAndGlyphs" textLength="97" x="617.5" y="474.9818">RandomForest</text><!--MD5=[9f2a0a02820928be63157aaf6d5916ea]
entity db_runs--><path d="M940,306.5158 C940,296.5158 968,296.5158 968,296.5158 C968,296.5158 996,296.5158 996,306.5158 L996,334.5838 C996,344.5838 968,344.5838 968,344.5838 C968,344.5838 940,344.5838 940,334.5838 L940,306.5158 " fill="#003166" filter="url(#fp5x5ik57xyg7)" style="stroke: #FFFFFF; stroke-width: 1.5;"/><path d="M940,306.5158 C940,316.5158 968,316.5158 968,316.5158 C968,316.5158 996,316.5158 996,306.5158 " fill="none" style="stroke: #FFFFFF; stroke-width: 1.5;"/><text fill="#FFFFFF" font-family="Monospace" font-size="14" lengthAdjust="spacingAndGlyphs" textLength="36" x="950" y="335.4818">runs/</text><!--MD5=[fd9ebf31d21df91e110ad002d6f4b355]
entity sobol--><rect fill="#90EE90" filter="url(#fp5x5ik57xyg7)" height="39.0679" style="stroke: #FFFFFF; stroke-width: 1.5;" width="199" x="259.5" y="147.5158"/><rect fill="#90EE90" height="5" style="stroke: #FFFFFF; stroke-width: 1.5;" width="10" x="254.5" y="152.5158"/><rect fill="#90EE90" height="5" style="stroke: #FFFFFF; stroke-width: 1.5;" width="10" x="254.5" y="176.5838"/><text fill="#FFFFFF" font-family="Monospace" font-size="14" lengthAdjust="spacingAndGlyphs" textLength="179" x="269.5" y="172.4818">Sobol Sequence Generator</text><!--MD5=[768daca0a1630a961345edac01c51118]
entity botorch--><rect fill="#1E1E1E" filter="url(#fp5x5ik57xyg7)" height="39.0679" style="stroke: #FFFFFF; stroke-width: 1.5;" width="146" x="219" y="301.0158"/><rect fill="#1E1E1E" height="5" style="stroke: #FFFFFF; stroke-width: 1.5;" width="10" x="214" y="306.0158"/><rect fill="#1E1E1E" height="5" style="stroke: #FFFFFF; stroke-width: 1.5;" width="10" x="214" y="330.0838"/><text fill="#FFFFFF" font-family="Monospace" font-size="14" lengthAdjust="spacingAndGlyphs" textLength="126" x="229" y="325.9818">BoTorch Optimizer</text><!--MD5=[e370f027d8ab62f12a0687b2633d3af2]
entity modular--><rect fill="#99FF99" filter="url(#fp5x5ik57xyg7)" height="58.1358" style="stroke: #FFFFFF; stroke-width: 1.5;" width="162" x="62" y="138.0158"/><rect fill="#99FF99" height="5" style="stroke: #FFFFFF; stroke-width: 1.5;" width="10" x="57" y="143.0158"/><rect fill="#99FF99" height="5" style="stroke: #FFFFFF; stroke-width: 1.5;" width="10" x="57" y="186.1517"/><text fill="#FFFFFF" font-family="Monospace" font-size="14" lengthAdjust="spacingAndGlyphs" textLength="142" x="72" y="162.9818">BOTORCH_MODULAR</text><text fill="#FFFFFF" font-family="Monospace" font-size="14" lengthAdjust="spacingAndGlyphs" textLength="12" x="72" y="182.0497">...</text><!--MD5=[c9ced51c7560f4c42780d593f844e299]
entity gpei--><rect fill="#99FF99" filter="url(#fp5x5ik57xyg7)" height="58.1358" style="stroke: #FFFFFF; stroke-width: 1.5;" width="51" x="228.5" y="440.5158"/><rect fill="#99FF99" height="5" style="stroke: #FFFFFF; stroke-width: 1.5;" width="10" x="223.5" y="445.5158"/><rect fill="#99FF99" height="5" style="stroke: #FFFFFF; stroke-width: 1.5;" width="10" x="223.5" y="488.6517"/><text fill="#FFFFFF" font-family="Monospace" font-size="14" lengthAdjust="spacingAndGlyphs" textLength="31" x="238.5" y="465.4818">GPEI</text><text fill="#FFFFFF" font-family="Monospace" font-size="14" lengthAdjust="spacingAndGlyphs" textLength="12" x="238.5" y="484.5497">...</text><!--MD5=[9cdd96db190de10f1cbe2e9685338b4e]
entity saasbo--><rect fill="#99FF99" filter="url(#fp5x5ik57xyg7)" height="58.1358" style="stroke: #FFFFFF; stroke-width: 1.5;" width="74" x="315" y="440.5158"/><rect fill="#99FF99" height="5" style="stroke: #FFFFFF; stroke-width: 1.5;" width="10" x="310" y="445.5158"/><rect fill="#99FF99" height="5" style="stroke: #FFFFFF; stroke-width: 1.5;" width="10" x="310" y="488.6517"/><text fill="#FFFFFF" font-family="Monospace" font-size="14" lengthAdjust="spacingAndGlyphs" textLength="54" x="325" y="465.4818">SAASBO</text><text fill="#FFFFFF" font-family="Monospace" font-size="14" lengthAdjust="spacingAndGlyphs" textLength="12" x="325" y="484.5497">...</text><!--MD5=[128e14960fffa06a6e7cbefa58c158d3]
entity othermodules--><rect fill="#99FF99" filter="url(#fp5x5ik57xyg7)" height="58.1358" style="stroke: #FFFFFF; stroke-width: 1.5;" width="121" x="62.5" y="291.5158"/><rect fill="#99FF99" height="5" style="stroke: #FFFFFF; stroke-width: 1.5;" width="10" x="57.5" y="296.5158"/><rect fill="#99FF99" height="5" style="stroke: #FFFFFF; stroke-width: 1.5;" width="10" x="57.5" y="339.6517"/><text fill="#FFFFFF" font-family="Monospace" font-size="14" lengthAdjust="spacingAndGlyphs" textLength="101" x="72.5" y="316.4818">Other modules</text><text fill="#FFFFFF" font-family="Monospace" font-size="14" lengthAdjust="spacingAndGlyphs" textLength="12" x="72.5" y="335.5497">...</text><!--MD5=[47e052b533fd8425fd8ca2757eeea134]
entity Job1--><rect fill="#FF8C00" filter="url(#fp5x5ik57xyg7)" height="39.0679" style="stroke: #FFFFFF; stroke-width: 1.5;" width="62" x="1210" y="301.0158"/><rect fill="#FF8C00" height="5" style="stroke: #FFFFFF; stroke-width: 1.5;" width="10" x="1205" y="306.0158"/><rect fill="#FF8C00" height="5" style="stroke: #FFFFFF; stroke-width: 1.5;" width="10" x="1205" y="330.0838"/><text fill="#FFFFFF" font-family="Monospace" font-size="14" lengthAdjust="spacingAndGlyphs" textLength="42" x="1220" y="325.9818">Job #1</text><!--MD5=[ad1ecd006b7d6e2fcd722d0410ebc487]
entity Job2--><rect fill="#FF8C00" filter="url(#fp5x5ik57xyg7)" height="39.0679" style="stroke: #FFFFFF; stroke-width: 1.5;" width="62" x="1307" y="301.0158"/><rect fill="#FF8C00" height="5" style="stroke: #FFFFFF; stroke-width: 1.5;" width="10" x="1302" y="306.0158"/><rect fill="#FF8C00" height="5" style="stroke: #FFFFFF; stroke-width: 1.5;" width="10" x="1302" y="330.0838"/><text fill="#FFFFFF" font-family="Monospace" font-size="14" lengthAdjust="spacingAndGlyphs" textLength="42" x="1317" y="325.9818">Job #2</text><!--MD5=[d6d399e3b77205a86664f0dcaaa37b67]
entity JobN--><rect fill="#FF8C00" filter="url(#fp5x5ik57xyg7)" height="39.0679" style="stroke: #FFFFFF; stroke-width: 1.5;" width="63" x="1404.5" y="301.0158"/><rect fill="#FF8C00" height="5" style="stroke: #FFFFFF; stroke-width: 1.5;" width="10" x="1399.5" y="306.0158"/><rect fill="#FF8C00" height="5" style="stroke: #FFFFFF; stroke-width: 1.5;" width="10" x="1399.5" y="330.0838"/><text fill="#FFFFFF" font-family="Monospace" font-size="14" lengthAdjust="spacingAndGlyphs" textLength="43" x="1414.5" y="325.9818">Job #n</text><!--MD5=[f94e1ae4e0ea171f49725a209a6b3fb4]
link botorch to modular--><path d="M282.71,300.6258 C262.75,275.3858 219.08,230.3158 185.5,199.8058 " fill="none" id="botorch-&gt;modular" style="stroke: #FFFFFF; stroke-width: 1.0;"/><polygon fill="#FFFFFF" points="181.45,196.1558,185.4447,205.1582,185.1594,199.5085,190.809,199.2232,181.45,196.1558" style="stroke: #FFFFFF; stroke-width: 1.0;"/><!--MD5=[21280dc836f3d4ef10a06be7db40d0f4]
link modular to botorch--><path d="M160.5,196.1558 C185.56,225.3958 230.25,270.5458 260.87,297.3458 " fill="none" id="modular-&gt;botorch" style="stroke: #FFFFFF; stroke-width: 1.0;"/><polygon fill="#FFFFFF" points="264.9,300.8458,260.7057,291.9347,261.1168,297.5766,255.475,297.9878,264.9,300.8458" style="stroke: #FFFFFF; stroke-width: 1.0;"/><!--MD5=[fa02ca17e1f691da79ce8002acca5787]
link botorch to gpei--><path d="M278.36,340.1358 C267.73,364.0858 256.19,406.1158 251.68,435.5358 " fill="none" id="botorch-&gt;gpei" style="stroke: #FFFFFF; stroke-width: 1.0;"/><polygon fill="#FFFFFF" points="250.97,440.5058,256.1925,432.1556,251.6711,435.5552,248.2715,431.0339,250.97,440.5058" style="stroke: #FFFFFF; stroke-width: 1.0;"/><!--MD5=[3a1e5aaa99c808991e95c2adaa16f7ce]
link gpei to botorch--><path d="M272.11,440.5058 C282.92,412.9958 293.46,371.4558 296.09,345.4358 " fill="none" id="gpei-&gt;botorch" style="stroke: #FFFFFF; stroke-width: 1.0;"/><polygon fill="#FFFFFF" points="296.53,340.1358,291.7964,348.7726,296.1148,345.1186,299.7688,349.4369,296.53,340.1358" style="stroke: #FFFFFF; stroke-width: 1.0;"/><!--MD5=[38bf1cf78b0a0fe45143638fd8e8012a]
link botorch to saasbo--><path d="M281.16,340.2258 C279.64,358.7058 284.91,387.4458 295,410.5158 C299.17,420.0458 304.99,429.6558 311.52,438.2258 " fill="none" id="botorch-&gt;saasbo" style="stroke: #FFFFFF; stroke-width: 1.0;"/><polygon fill="#FFFFFF" points="314.78,442.3458,312.3236,432.8082,311.6739,438.4276,306.0545,437.7779,314.78,442.3458" style="stroke: #FFFFFF; stroke-width: 1.0;"/><!--MD5=[6ed2baeb033a05b55787f255f4375b62]
link saasbo to botorch--><path d="M346.5,440.2958 C340.94,431.2158 334.51,420.8258 330,410.5158 C320.77,389.4258 315.58,363.5958 309.52,345.2058 " fill="none" id="saasbo-&gt;botorch" style="stroke: #FFFFFF; stroke-width: 1.0;"/><polygon fill="#FFFFFF" points="307.78,340.2258,306.9552,350.0401,309.4209,344.9489,314.5121,347.4146,307.78,340.2258" style="stroke: #FFFFFF; stroke-width: 1.0;"/><!--MD5=[d245de65be03d9e6142822a4d73b8fe3]
link othermodules to botorch--><path d="M183.73,340.5458 C198.93,342.7458 214.13,342.8358 229.33,340.8158 " fill="none" id="othermodules-&gt;botorch" style="stroke: #FFFFFF; stroke-width: 1.0;"/><polygon fill="#FFFFFF" points="234.48,340.0458,224.9855,337.4278,229.5355,340.7889,226.1744,345.339,234.48,340.0458" style="stroke: #FFFFFF; stroke-width: 1.0;"/><!--MD5=[e365e8f0c69dfbd3cb03d1b2da39b3f7]
link botorch to othermodules--><path d="M234.48,300.9858 C219.29,298.4858 204.09,298.0958 188.89,299.8258 " fill="none" id="botorch-&gt;othermodules" style="stroke: #FFFFFF; stroke-width: 1.0;"/><polygon fill="#FFFFFF" points="183.73,300.4858,193.1687,303.2986,188.6887,299.8446,192.1427,295.3647,183.73,300.4858" style="stroke: #FFFFFF; stroke-width: 1.0;"/><!--MD5=[da8e97604b8f762f2f25f39b9ce180b2]
link OmniOptCore to ax_module--><path d="M978.26,180.2058 C933.3,189.9658 871.79,205.4158 820,226.0158 C763.96,248.3058 703.07,284.8758 671.24,305.0458 " fill="none" id="OmniOptCore-&gt;ax_module" style="stroke: #FFFFFF; stroke-width: 1.0;"/><polygon fill="#FFFFFF" points="666.76,307.8958,676.4995,306.4322,670.9765,305.2087,672.2001,299.6857,666.76,307.8958" style="stroke: #FFFFFF; stroke-width: 1.0;"/><text fill="#FFFFFF" font-family="Monospace" font-size="11" lengthAdjust="spacingAndGlyphs" textLength="130" x="821" y="238.7748">invoke with search space</text><!--MD5=[1af0978839253e48dc811fb528ff5245]
link ax_module to OmniOptCore--><path d="M647.73,300.7158 C647.4,279.3758 650.46,245.0658 671,226.0158 C713.8,186.3358 878.55,173.7858 973.15,169.8258 " fill="none" id="ax_module-&gt;OmniOptCore" style="stroke: #FFFFFF; stroke-width: 1.0;"/><polygon fill="#FFFFFF" points="978.16,169.6258,969.0073,165.9888,973.164,169.8257,969.3271,173.9824,978.16,169.6258" style="stroke: #FFFFFF; stroke-width: 1.0;"/><text fill="#FFFFFF" font-family="Monospace" font-size="11" lengthAdjust="spacingAndGlyphs" textLength="105" x="672" y="238.7748">all generated points</text><!--MD5=[da8e97604b8f762f2f25f39b9ce180b2]
link OmniOptCore to ax_module--><path d="M978.05,171.2058 C855.96,178.0258 596.61,195.9258 570,226.0158 C544.37,254.9958 595.14,290.0458 626.61,307.8758 " fill="none" id="OmniOptCore-&gt;ax_module-1" style="stroke: #FFFFFF; stroke-width: 1.0;"/><polygon fill="#FFFFFF" points="631.11,310.3758,625.1961,302.5002,626.7426,307.9416,621.3012,309.488,631.11,310.3758" style="stroke: #FFFFFF; stroke-width: 1.0;"/><text fill="#FFFFFF" font-family="Monospace" font-size="11" lengthAdjust="spacingAndGlyphs" textLength="81" x="571" y="238.7748">forward results</text><!--MD5=[8e9aa0cc2a47bc04528d2dac2760e7a8]
link sobol to ax_module--><path d="M367.91,186.6058 C377.31,204.0058 393.82,229.1858 416,242.0158 C438.9,255.2658 449.41,243.2758 475,250.0158 C531.37,264.8558 594.07,292.9658 626.63,308.5058 " fill="none" id="sobol-&gt;ax_module" style="stroke: #FFFFFF; stroke-width: 1.0;"/><polygon fill="#FFFFFF" points="631.21,310.7058,624.8427,303.192,626.7069,308.5329,621.366,310.3971,631.21,310.7058" style="stroke: #FFFFFF; stroke-width: 1.0;"/><text fill="#FFFFFF" font-family="Monospace" font-size="11" lengthAdjust="spacingAndGlyphs" textLength="65" x="417" y="238.7748">initial points</text><!--MD5=[cec394c570342177663ef42daa4e7d28]
link ax_module to botorch--><path d="M631.41,320.5158 C584.63,320.5158 454.96,320.5158 370.12,320.5158 " fill="none" id="ax_module-&gt;botorch" style="stroke: #FFFFFF; stroke-width: 1.0;"/><polygon fill="#FFFFFF" points="365.11,320.5158,374.11,324.5158,370.11,320.5158,374.11,316.5158,365.11,320.5158" style="stroke: #FFFFFF; stroke-width: 1.0;"/><text fill="#FFFFFF" font-family="Monospace" font-size="11" lengthAdjust="spacingAndGlyphs" textLength="83" x="456.75" y="299.2748">generate points</text><text fill="#FFFFFF" font-family="Monospace" font-size="11" lengthAdjust="spacingAndGlyphs" textLength="167" x="414.75" y="314.2566">(using already evaluated points)</text><!--MD5=[fec4a35e48065a648c0a47644d8b95b4]
link ax_module to external_nodes--><path d="M666.54,329.3158 C689.9,339.8958 732.3,359.7258 767,379.5158 C804.23,400.7458 845.15,428.1058 872.28,446.8558 " fill="none" id="ax_module-&gt;external_nodes" style="stroke: #FFFFFF; stroke-width: 1.0;"/><polygon fill="#FFFFFF" points="876.52,449.7858,871.4032,441.3705,872.4111,446.9368,866.8448,447.9447,876.52,449.7858" style="stroke: #FFFFFF; stroke-width: 1.0;"/><text fill="#FFFFFF" font-family="Monospace" font-size="11" lengthAdjust="spacingAndGlyphs" textLength="83" x="860" y="392.2748">generate points</text><text fill="#FFFFFF" font-family="Monospace" font-size="11" lengthAdjust="spacingAndGlyphs" textLength="167" x="818" y="407.2566">(using already evaluated points)</text><!--MD5=[d5253afcf19d710b4b3ea91b9ffa8f3e]
link external_nodes to ax_module--><path d="M944.97,449.9258 C978.34,432.6058 1016.05,405.5858 994,379.5158 C988.72,373.2758 748.23,336.4958 671.95,324.9658 " fill="none" id="external_nodes-&gt;ax_module" style="stroke: #FFFFFF; stroke-width: 1.0;"/><polygon fill="#FFFFFF" points="666.75,324.1858,675.0429,329.4989,671.6927,324.9408,676.2508,321.5906,666.75,324.1858" style="stroke: #FFFFFF; stroke-width: 1.0;"/><text fill="#FFFFFF" font-family="Monospace" font-size="11" lengthAdjust="spacingAndGlyphs" textLength="58" x="1002" y="399.7748">new points</text><!--MD5=[d3b0d654d092eaf63e60d69bdd25e7e1]
link ax_module to rf_nodes--><path d="M631.43,325.5058 C590.13,335.7358 492.55,365.3158 523,410.5158 C540.83,436.9858 573.02,451.3758 602.35,459.2058 " fill="none" id="ax_module-&gt;rf_nodes" style="stroke: #FFFFFF; stroke-width: 1.0;"/><polygon fill="#FFFFFF" points="607.41,460.4958,599.6699,454.4056,602.5635,459.2664,597.7027,462.1599,607.41,460.4958" style="stroke: #FFFFFF; stroke-width: 1.0;"/><text fill="#FFFFFF" font-family="Monospace" font-size="11" lengthAdjust="spacingAndGlyphs" textLength="83" x="566" y="392.2748">generate points</text><text fill="#FFFFFF" font-family="Monospace" font-size="11" lengthAdjust="spacingAndGlyphs" textLength="167" x="524" y="407.2566">(using already evaluated points)</text><!--MD5=[a6d1526b9d204e0c6295b6a95fedb011]
link rf_nodes to ax_module--><path d="M679.83,449.7058 C691.33,431.6558 704.55,403.6458 696,379.5158 C690.83,364.9358 680.27,351.3458 670.46,340.9858 " fill="none" id="rf_nodes-&gt;ax_module" style="stroke: #FFFFFF; stroke-width: 1.0;"/><polygon fill="#FFFFFF" points="666.9,337.3258,670.3052,346.5673,670.3852,340.911,676.0415,340.991,666.9,337.3258" style="stroke: #FFFFFF; stroke-width: 1.0;"/><text fill="#FFFFFF" font-family="Monospace" font-size="11" lengthAdjust="spacingAndGlyphs" textLength="58" x="700" y="399.7748">new points</text><!--MD5=[81c8fd8f3110b8c69dff5529db286869]
link OmniOptCore to Job1--><path d="M1056.43,186.6858 C1070.06,202.5158 1090.99,225.2458 1112,242.0158 C1141.34,265.4358 1178.39,286.9758 1205.24,301.3758 " fill="none" id="OmniOptCore-&gt;Job1" style="stroke: #FFFFFF; stroke-width: 1.0;"/><polygon fill="#FFFFFF" points="1209.8,303.8058,1203.7451,296.0381,1205.3894,301.4507,1199.9768,303.095,1209.8,303.8058" style="stroke: #FFFFFF; stroke-width: 1.0;"/><text fill="#FFFFFF" font-family="Monospace" font-size="11" lengthAdjust="spacingAndGlyphs" textLength="56" x="1113" y="238.7748">submit job</text><!--MD5=[c18ddbec662f5264ce3bce332f70300b]
link Job1 to OmniOptCore--><path d="M1231.54,300.7058 C1220.29,279.9858 1199.77,246.8658 1174,226.0158 C1154.25,210.0458 1129.43,197.6558 1106.59,188.5058 " fill="none" id="Job1-&gt;OmniOptCore" style="stroke: #FFFFFF; stroke-width: 1.0;"/><polygon fill="#FFFFFF" points="1101.75,186.6058,1108.6581,193.6256,1106.4022,188.4381,1111.5897,186.1821,1101.75,186.6058" style="stroke: #FFFFFF; stroke-width: 1.0;"/><text fill="#FFFFFF" font-family="Monospace" font-size="11" lengthAdjust="spacingAndGlyphs" textLength="35" x="1191" y="238.7748">results</text><!--MD5=[8f4913b2f0c9031033e922545f626df0]
link OmniOptCore to Job2--><path d="M1103.62,175.8658 C1157.78,185.4358 1235.55,206.1358 1289,250.0158 C1304.51,262.7558 1317.37,281.5558 1326.01,296.3958 " fill="none" id="OmniOptCore-&gt;Job2" style="stroke: #FFFFFF; stroke-width: 1.0;"/><polygon fill="#FFFFFF" points="1328.56,300.8658,1327.5851,291.0654,1326.087,296.5202,1320.6321,295.0221,1328.56,300.8658" style="stroke: #FFFFFF; stroke-width: 1.0;"/><text fill="#FFFFFF" font-family="Monospace" font-size="11" lengthAdjust="spacingAndGlyphs" textLength="56" x="1279" y="238.7748">submit job</text><!--MD5=[e1f374dc4ac342c09d47f00321df32d4]
link Job2 to OmniOptCore--><path d="M1346.08,300.6858 C1353.57,279.9658 1361.2,246.8258 1344,226.0158 C1314.78,190.6758 1189.08,176.6558 1109.04,171.2558 " fill="none" id="Job2-&gt;OmniOptCore" style="stroke: #FFFFFF; stroke-width: 1.0;"/><polygon fill="#FFFFFF" points="1103.84,170.9158,1112.5575,175.499,1108.8292,171.2446,1113.0836,167.5163,1103.84,170.9158" style="stroke: #FFFFFF; stroke-width: 1.0;"/><text fill="#FFFFFF" font-family="Monospace" font-size="11" lengthAdjust="spacingAndGlyphs" textLength="35" x="1353" y="238.7748">results</text><!--MD5=[531f84d1dbeccf3f27e2ed863d36d27c]
link OmniOptCore to JobN--><path d="M1103.68,171.0058 C1193.42,176.4758 1352.59,190.9358 1397,226.0158 C1418.59,243.0758 1428.36,274.2058 1432.69,295.8358 " fill="none" id="OmniOptCore-&gt;JobN" style="stroke: #FFFFFF; stroke-width: 1.0;"/><polygon fill="#FFFFFF" points="1433.63,300.8458,1435.8894,291.2597,1432.7017,295.9328,1428.0285,292.745,1433.63,300.8458" style="stroke: #FFFFFF; stroke-width: 1.0;"/><text fill="#FFFFFF" font-family="Monospace" font-size="11" lengthAdjust="spacingAndGlyphs" textLength="56" x="1413" y="238.7748">submit job</text><!--MD5=[4d52ecd93ead93b7a2fe0b14a0c77798]
link JobN to OmniOptCore--><path d="M1455.48,300.8458 C1474.31,280.5558 1497.35,248.1058 1478,226.0158 C1454.09,198.7158 1225.7,180.0258 1108.97,172.1758 " fill="none" id="JobN-&gt;OmniOptCore" style="stroke: #FFFFFF; stroke-width: 1.0;"/><polygon fill="#FFFFFF" points="1103.84,171.8358,1112.5575,176.419,1108.8292,172.1646,1113.0836,168.4363,1103.84,171.8358" style="stroke: #FFFFFF; stroke-width: 1.0;"/><text fill="#FFFFFF" font-family="Monospace" font-size="11" lengthAdjust="spacingAndGlyphs" textLength="35" x="1486" y="238.7748">results</text><!--MD5=[cd9410c4e60777fc3d6f7560487be14a]
link OmniOptCore to db_runs--><path d="M1003.74,186.6058 C988.82,196.1658 973.24,209.3558 965,226.0158 C955.06,246.1058 956.71,271.7158 960.34,291.0458 " fill="none" id="OmniOptCore-&gt;db_runs" style="stroke: #FFFFFF; stroke-width: 1.0;"/><polygon fill="#FFFFFF" points="961.41,296.3258,963.5296,286.7078,960.4102,291.4268,955.6911,288.3074,961.41,296.3258" style="stroke: #FFFFFF; stroke-width: 1.0;"/><text fill="#FFFFFF" font-family="Monospace" font-size="11" lengthAdjust="spacingAndGlyphs" textLength="105" x="966" y="238.7748">log runs and results</text><!--MD5=[8fcdd90b3e3e07e950b4a5a54be6eefc]
@startuml

  skinparam backgroundColor #000000
  skinparam defaultFontColor #ffffff
  skinparam componentFontColor #ffffff
  skinparam nodeFontColor #ffffff
  skinparam databaseFontColor #ffffff
  skinparam arrowColor #ffffff
  skinparam ArrowFontColor #ffffff

  skinparam componentBackgroundColor #1e1e1e
  skinparam nodeBackgroundColor #CC7000
  skinparam databaseBackgroundColor #003166
  skinparam packageBackgroundColor #1e1e1e
  skinparam cloudBackgroundColor #1e1e1e

  skinparam componentBorderColor #ffffff
  skinparam nodeBorderColor #ffffff
  skinparam databaseBorderColor #ffffff
  skinparam packageBorderColor #ffffff
  skinparam cloudBorderColor #ffffff
  skinparam rectangleBorderColor #ffffff

skinparam componentStyle rectangle
skinparam defaultFontName Monospace
skinparam ArrowFontSize 11

title Interaction between OmniOpt, sbatch, ax, BoTorch Module, and ExternalGenerationNodes

node "HPC Master Node" as HPCMaster {
  component "OmniOpt2 Core" as OmniOptCore
  component "ax" as ax_module #LightBlue

  package "BoTorch Module" {
    component "Sobol Sequence Generator" as sobol #LightGreen
    component "BoTorch Optimizer" as botorch

    component "BOTORCH_MODULAR\n..." as modular #99FF99
    component "GPEI\n..." as gpei #99FF99
    component "SAASBO\n..." as saasbo #99FF99
    component "Other modules\n..." as othermodules #99FF99

    botorch -down-> modular
    modular -> botorch
    botorch -down-> gpei
    gpei -> botorch
    botorch -down-> saasbo
    saasbo -> botorch
    othermodules -> botorch
    botorch -> othermodules
  }

  component "ExternalGenerationNodes" as external_nodes
  component "RandomForest" as rf_nodes #LightBlue

  database "runs/" as db_runs
}

node "Compute Nodes" as ComputeNodes {
  component "Job #1" as Job1 #FF8C00
  component "Job #2" as Job2 #FF8C00
  component "Job #n" as JobN #FF8C00
}

OmniOptCore - -> ax_module : invoke with search space

sobol - -> ax_module : initial points

ax_module - -> botorch : generate points\n(using already evaluated points)
ax_module - -> external_nodes : generate points\n(using already evaluated points)
ax_module - -> rf_nodes : generate points\n(using already evaluated points)

external_nodes - -> ax_module : new points
rf_nodes - -> ax_module : new points

ax_module - -> OmniOptCore : all generated points

OmniOptCore - -> Job1 : submit job
OmniOptCore - -> Job2 : submit job
OmniOptCore - -> JobN : submit job

Job1 - -> OmniOptCore : results
Job2 - -> OmniOptCore : results
JobN - -> OmniOptCore : results

OmniOptCore - -> ax_module : forward results

OmniOptCore - -> db_runs : log runs and results

@enduml

PlantUML version 1.2020.02(Sun Mar 01 11:22:07 CET 2020)
(GPL source distribution)
Java Runtime: OpenJDK Runtime Environment
JVM: OpenJDK 64-Bit Server VM
Java Version: 17.0.17+10-Debian-1deb12u1
Operating System: Linux
Default Encoding: UTF-8
Language: de
Country: DE
--></g></svg>