<?xml version="1.0" encoding="UTF-8" standalone="no"?><svg xmlns="http://www.w3.org/2000/svg" xmlns:xlink="http://www.w3.org/1999/xlink" contentScriptType="application/ecmascript" contentStyleType="text/css" height="507px" preserveAspectRatio="none" style="width:1535px;height:507px;" version="1.1" viewBox="0 0 1535 507" width="1535px" zoomAndPan="magnify"><defs><filter height="300%" id="ftxwsh15ppw55" width="300%" x="-1" y="-1"><feGaussianBlur result="blurOut" stdDeviation="2.0"/><feColorMatrix in="blurOut" result="blurOut2" type="matrix" values="0 0 0 0 0 0 0 0 0 0 0 0 0 0 0 0 0 0 .4 0"/><feOffset dx="4.0" dy="4.0" in="blurOut2" result="blurOut3"/><feBlend in="SourceGraphic" in2="blurOut3" mode="normal"/></filter></defs><g><text fill="#000000" font-family="Monospace" font-size="18" lengthAdjust="spacingAndGlyphs" textLength="763" x="389.5" y="19.2419">Interaction between OmniOpt, Slurm, ax, BoTorch Module, and ExternalGenerationNodes</text><!--MD5=[5687f5b0a9f1da24cf398575a94f7314]
cluster HPCMaster--><polygon fill="#FFB84D" filter="url(#ftxwsh15ppw55)" points="22,59.0158,32,49.0158,1120,49.0158,1120,485.5158,1110,495.5158,22,495.5158,22,59.0158" style="stroke: #000000; stroke-width: 1.5;"/><line style="stroke: #000000; stroke-width: 1.5;" x1="1110" x2="1119" y1="59.0158" y2="50.0158"/><line style="stroke: #000000; stroke-width: 1.5;" x1="22" x2="1110" y1="59.0158" y2="59.0158"/><line style="stroke: #000000; stroke-width: 1.5;" x1="1110" x2="1110" y1="59.0158" y2="495.5158"/><text fill="#000000" font-family="Monospace" font-size="14" font-weight="bold" lengthAdjust="spacingAndGlyphs" textLength="122" x="506" y="76.9818">HPC Master Node</text><!--MD5=[2581f1adf71c4d9c4ca8845dd85da35f]
cluster BoTorch Module--><polygon fill="#E0E0E0" filter="url(#ftxwsh15ppw55)" points="46,100.0158,165,100.0158,172,125.0838,475,125.0838,475,471.5158,46,471.5158,46,100.0158" style="stroke: #000000; stroke-width: 1.5;"/><line style="stroke: #000000; stroke-width: 1.5;" x1="46" x2="172" y1="125.0838" y2="125.0838"/><text fill="#000000" font-family="Monospace" font-size="14" font-weight="bold" lengthAdjust="spacingAndGlyphs" textLength="113" x="50" y="116.9818">BoTorch Module</text><!--MD5=[e2889d74894dfd2cde98a945e775442d]
cluster ComputeNodes--><polygon fill="#FFB84D" filter="url(#ftxwsh15ppw55)" points="1194,249.0158,1204,239.0158,1484,239.0158,1484,327.0158,1474,337.0158,1194,337.0158,1194,249.0158" style="stroke: #000000; stroke-width: 1.5;"/><line style="stroke: #000000; stroke-width: 1.5;" x1="1474" x2="1483" y1="249.0158" y2="240.0158"/><line style="stroke: #000000; stroke-width: 1.5;" x1="1194" x2="1474" y1="249.0158" y2="249.0158"/><line style="stroke: #000000; stroke-width: 1.5;" x1="1474" x2="1474" y1="249.0158" y2="337.0158"/><text fill="#000000" font-family="Monospace" font-size="14" font-weight="bold" lengthAdjust="spacingAndGlyphs" textLength="112" x="1279" y="266.9818">Compute Nodes</text><!--MD5=[2f2b0aedd9c38e5145f377076e8d496d]
entity OmniOptCore--><rect fill="#E0E0E0" filter="url(#ftxwsh15ppw55)" height="39.0679" style="stroke: #000000; stroke-width: 1.5;" width="117" x="986.5" y="138.0158"/><rect fill="#E0E0E0" height="5" style="stroke: #000000; stroke-width: 1.5;" width="10" x="981.5" y="143.0158"/><rect fill="#E0E0E0" height="5" style="stroke: #000000; stroke-width: 1.5;" width="10" x="981.5" y="167.0838"/><text fill="#000000" font-family="Monospace" font-size="14" lengthAdjust="spacingAndGlyphs" textLength="97" x="996.5" y="162.9818">OmniOpt Core</text><!--MD5=[3a66b5fcc5a5db46ac919e228b9ab7c5]
entity ax_module--><rect fill="#ADD8E6" filter="url(#ftxwsh15ppw55)" height="39.0679" style="stroke: #000000; stroke-width: 1.5;" width="35" x="631.5" y="282.0158"/><rect fill="#ADD8E6" height="5" style="stroke: #000000; stroke-width: 1.5;" width="10" x="626.5" y="287.0158"/><rect fill="#ADD8E6" height="5" style="stroke: #000000; stroke-width: 1.5;" width="10" x="626.5" y="311.0838"/><text fill="#000000" font-family="Monospace" font-size="14" lengthAdjust="spacingAndGlyphs" textLength="15" x="641.5" y="306.9818">ax</text><!--MD5=[ff96caba99bf59d2b43e041a81d886a4]
entity external_nodes--><rect fill="#E0E0E0" filter="url(#ftxwsh15ppw55)" height="39.0679" style="stroke: #000000; stroke-width: 1.5;" width="193" x="806.5" y="416.5158"/><rect fill="#E0E0E0" height="5" style="stroke: #000000; stroke-width: 1.5;" width="10" x="801.5" y="421.5158"/><rect fill="#E0E0E0" height="5" style="stroke: #000000; stroke-width: 1.5;" width="10" x="801.5" y="445.5838"/><text fill="#000000" font-family="Monospace" font-size="14" lengthAdjust="spacingAndGlyphs" textLength="173" x="816.5" y="441.4818">ExternalGenerationNodes</text><!--MD5=[106eb1323429edff886bc7e700cb3794]
entity rf_nodes--><rect fill="#ADD8E6" filter="url(#ftxwsh15ppw55)" height="39.0679" style="stroke: #000000; stroke-width: 1.5;" width="117" x="607.5" y="416.5158"/><rect fill="#ADD8E6" height="5" style="stroke: #000000; stroke-width: 1.5;" width="10" x="602.5" y="421.5158"/><rect fill="#ADD8E6" height="5" style="stroke: #000000; stroke-width: 1.5;" width="10" x="602.5" y="445.5838"/><text fill="#000000" font-family="Monospace" font-size="14" lengthAdjust="spacingAndGlyphs" textLength="97" x="617.5" y="441.4818">RandomForest</text><!--MD5=[9f2a0a02820928be63157aaf6d5916ea]
entity db_runs--><path d="M940,287.5158 C940,277.5158 968,277.5158 968,277.5158 C968,277.5158 996,277.5158 996,287.5158 L996,315.5838 C996,325.5838 968,325.5838 968,325.5838 C968,325.5838 940,325.5838 940,315.5838 L940,287.5158 " fill="#FFEB3B" filter="url(#ftxwsh15ppw55)" style="stroke: #000000; stroke-width: 1.5;"/><path d="M940,287.5158 C940,297.5158 968,297.5158 968,297.5158 C968,297.5158 996,297.5158 996,287.5158 " fill="none" style="stroke: #000000; stroke-width: 1.5;"/><text fill="#000000" font-family="Monospace" font-size="14" lengthAdjust="spacingAndGlyphs" textLength="36" x="950" y="316.4818">runs/</text><!--MD5=[fd9ebf31d21df91e110ad002d6f4b355]
entity sobol--><rect fill="#90EE90" filter="url(#ftxwsh15ppw55)" height="39.0679" style="stroke: #000000; stroke-width: 1.5;" width="199" x="259.5" y="138.0158"/><rect fill="#90EE90" height="5" style="stroke: #000000; stroke-width: 1.5;" width="10" x="254.5" y="143.0158"/><rect fill="#90EE90" height="5" style="stroke: #000000; stroke-width: 1.5;" width="10" x="254.5" y="167.0838"/><text fill="#000000" font-family="Monospace" font-size="14" lengthAdjust="spacingAndGlyphs" textLength="179" x="269.5" y="162.9818">Sobol Sequence Generator</text><!--MD5=[768daca0a1630a961345edac01c51118]
entity botorch--><rect fill="#E0E0E0" filter="url(#ftxwsh15ppw55)" height="39.0679" style="stroke: #000000; stroke-width: 1.5;" width="146" x="219" y="282.0158"/><rect fill="#E0E0E0" height="5" style="stroke: #000000; stroke-width: 1.5;" width="10" x="214" y="287.0158"/><rect fill="#E0E0E0" height="5" style="stroke: #000000; stroke-width: 1.5;" width="10" x="214" y="311.0838"/><text fill="#000000" font-family="Monospace" font-size="14" lengthAdjust="spacingAndGlyphs" textLength="126" x="229" y="306.9818">BoTorch Optimizer</text><!--MD5=[e370f027d8ab62f12a0687b2633d3af2]
entity modular--><rect fill="#99FF99" filter="url(#ftxwsh15ppw55)" height="39.0679" style="stroke: #000000; stroke-width: 1.5;" width="162" x="62" y="138.0158"/><rect fill="#99FF99" height="5" style="stroke: #000000; stroke-width: 1.5;" width="10" x="57" y="143.0158"/><rect fill="#99FF99" height="5" style="stroke: #000000; stroke-width: 1.5;" width="10" x="57" y="167.0838"/><text fill="#000000" font-family="Monospace" font-size="14" lengthAdjust="spacingAndGlyphs" textLength="142" x="72" y="162.9818">BOTORCH_MODULAR</text><!--MD5=[c9ced51c7560f4c42780d593f844e299]
entity gpei--><rect fill="#99FF99" filter="url(#ftxwsh15ppw55)" height="39.0679" style="stroke: #000000; stroke-width: 1.5;" width="51" x="228.5" y="416.5158"/><rect fill="#99FF99" height="5" style="stroke: #000000; stroke-width: 1.5;" width="10" x="223.5" y="421.5158"/><rect fill="#99FF99" height="5" style="stroke: #000000; stroke-width: 1.5;" width="10" x="223.5" y="445.5838"/><text fill="#000000" font-family="Monospace" font-size="14" lengthAdjust="spacingAndGlyphs" textLength="31" x="238.5" y="441.4818">GPEI</text><!--MD5=[9cdd96db190de10f1cbe2e9685338b4e]
entity saasbo--><rect fill="#99FF99" filter="url(#ftxwsh15ppw55)" height="39.0679" style="stroke: #000000; stroke-width: 1.5;" width="74" x="315" y="416.5158"/><rect fill="#99FF99" height="5" style="stroke: #000000; stroke-width: 1.5;" width="10" x="310" y="421.5158"/><rect fill="#99FF99" height="5" style="stroke: #000000; stroke-width: 1.5;" width="10" x="310" y="445.5838"/><text fill="#000000" font-family="Monospace" font-size="14" lengthAdjust="spacingAndGlyphs" textLength="54" x="325" y="441.4818">SAASBO</text><!--MD5=[128e14960fffa06a6e7cbefa58c158d3]
entity othermodules--><rect fill="#99FF99" filter="url(#ftxwsh15ppw55)" height="39.0679" style="stroke: #000000; stroke-width: 1.5;" width="121" x="62.5" y="282.0158"/><rect fill="#99FF99" height="5" style="stroke: #000000; stroke-width: 1.5;" width="10" x="57.5" y="287.0158"/><rect fill="#99FF99" height="5" style="stroke: #000000; stroke-width: 1.5;" width="10" x="57.5" y="311.0838"/><text fill="#000000" font-family="Monospace" font-size="14" lengthAdjust="spacingAndGlyphs" textLength="101" x="72.5" y="306.9818">Other modules</text><!--MD5=[47e052b533fd8425fd8ca2757eeea134]
entity Job1--><rect fill="#FF8C00" filter="url(#ftxwsh15ppw55)" height="39.0679" style="stroke: #000000; stroke-width: 1.5;" width="62" x="1210" y="282.0158"/><rect fill="#FF8C00" height="5" style="stroke: #000000; stroke-width: 1.5;" width="10" x="1205" y="287.0158"/><rect fill="#FF8C00" height="5" style="stroke: #000000; stroke-width: 1.5;" width="10" x="1205" y="311.0838"/><text fill="#000000" font-family="Monospace" font-size="14" lengthAdjust="spacingAndGlyphs" textLength="42" x="1220" y="306.9818">Job #1</text><!--MD5=[ad1ecd006b7d6e2fcd722d0410ebc487]
entity Job2--><rect fill="#FF8C00" filter="url(#ftxwsh15ppw55)" height="39.0679" style="stroke: #000000; stroke-width: 1.5;" width="62" x="1307" y="282.0158"/><rect fill="#FF8C00" height="5" style="stroke: #000000; stroke-width: 1.5;" width="10" x="1302" y="287.0158"/><rect fill="#FF8C00" height="5" style="stroke: #000000; stroke-width: 1.5;" width="10" x="1302" y="311.0838"/><text fill="#000000" font-family="Monospace" font-size="14" lengthAdjust="spacingAndGlyphs" textLength="42" x="1317" y="306.9818">Job #2</text><!--MD5=[d6d399e3b77205a86664f0dcaaa37b67]
entity JobN--><rect fill="#FF8C00" filter="url(#ftxwsh15ppw55)" height="39.0679" style="stroke: #000000; stroke-width: 1.5;" width="63" x="1404.5" y="282.0158"/><rect fill="#FF8C00" height="5" style="stroke: #000000; stroke-width: 1.5;" width="10" x="1399.5" y="287.0158"/><rect fill="#FF8C00" height="5" style="stroke: #000000; stroke-width: 1.5;" width="10" x="1399.5" y="311.0838"/><text fill="#000000" font-family="Monospace" font-size="14" lengthAdjust="spacingAndGlyphs" textLength="43" x="1414.5" y="306.9818">Job #n</text><!--MD5=[f94e1ae4e0ea171f49725a209a6b3fb4]
link botorch to modular--><path d="M281.98,281.9458 C259.71,255.7958 209.97,208.1958 176,180.3758 " fill="none" id="botorch-&gt;modular" style="stroke: #000000; stroke-width: 1.0;"/><polygon fill="#000000" points="171.94,177.0758,176.4027,185.8556,175.8206,180.2288,181.4474,179.6467,171.94,177.0758" style="stroke: #000000; stroke-width: 1.0;"/><!--MD5=[21280dc836f3d4ef10a06be7db40d0f4]
link modular to botorch--><path d="M153.54,177.0758 C176.1,203.2358 225.85,250.8258 259.55,278.6558 " fill="none" id="modular-&gt;botorch" style="stroke: #000000; stroke-width: 1.0;"/><polygon fill="#000000" points="263.58,281.9458,259.1526,273.1482,259.7121,278.7773,254.083,279.3368,263.58,281.9458" style="stroke: #000000; stroke-width: 1.0;"/><!--MD5=[fa02ca17e1f691da79ce8002acca5787]
link botorch to gpei--><path d="M277.43,321.2158 C266.25,344.7958 254.33,385.3458 250.78,411.1358 " fill="none" id="botorch-&gt;gpei" style="stroke: #000000; stroke-width: 1.0;"/><polygon fill="#000000" points="250.15,416.4058,255.1756,407.9357,250.735,411.4402,247.2305,406.9996,250.15,416.4058" style="stroke: #000000; stroke-width: 1.0;"/><!--MD5=[3a1e5aaa99c808991e95c2adaa16f7ce]
link gpei to botorch--><path d="M269.06,416.4058 C280.5,392.8758 292.45,352.3258 295.8,326.4958 " fill="none" id="gpei-&gt;botorch" style="stroke: #000000; stroke-width: 1.0;"/><polygon fill="#000000" points="296.38,321.2158,291.4267,329.7285,295.8372,326.1863,299.3794,330.5969,296.38,321.2158" style="stroke: #000000; stroke-width: 1.0;"/><!--MD5=[38bf1cf78b0a0fe45143638fd8e8012a]
link botorch to saasbo--><path d="M280.88,321.0358 C279.37,338.6258 284.52,365.4458 295,386.5158 C299.6,395.7558 306.25,404.7858 313.68,412.4958 " fill="none" id="botorch-&gt;saasbo" style="stroke: #000000; stroke-width: 1.0;"/><polygon fill="#000000" points="317.38,416.1758,313.8073,406.9978,313.8302,412.6547,308.1734,412.6776,317.38,416.1758" style="stroke: #000000; stroke-width: 1.0;"/><!--MD5=[6ed2baeb033a05b55787f255f4375b62]
link saasbo to botorch--><path d="M349.6,416.1758 C343.49,407.7258 335.35,397.2658 330,386.5158 C320.42,367.2558 315.29,343.1958 309.47,325.7658 " fill="none" id="saasbo-&gt;botorch" style="stroke: #000000; stroke-width: 1.0;"/><polygon fill="#000000" points="307.8,321.0358,307.0017,330.8523,309.4537,325.7545,314.5515,328.2064,307.8,321.0358" style="stroke: #000000; stroke-width: 1.0;"/><!--MD5=[d245de65be03d9e6142822a4d73b8fe3]
link othermodules to botorch--><path d="M183.73,314.9858 C193.7,315.9558 203.66,316.3158 213.63,316.0658 " fill="none" id="othermodules-&gt;botorch" style="stroke: #000000; stroke-width: 1.0;"/><polygon fill="#000000" points="218.84,315.8758,209.7082,312.1866,213.8429,316.0472,209.9823,320.1819,218.84,315.8758" style="stroke: #000000; stroke-width: 1.0;"/><!--MD5=[e365e8f0c69dfbd3cb03d1b2da39b3f7]
link botorch to othermodules--><path d="M218.84,287.1558 C208.87,286.6958 198.91,286.8358 188.94,287.5958 " fill="none" id="botorch-&gt;othermodules" style="stroke: #000000; stroke-width: 1.0;"/><polygon fill="#000000" points="183.73,288.0458,193.0494,291.2315,188.7103,287.6022,192.3396,283.2631,183.73,288.0458" style="stroke: #000000; stroke-width: 1.0;"/><!--MD5=[da8e97604b8f762f2f25f39b9ce180b2]
link OmniOptCore to ax_module--><path d="M986.36,166.4158 C940.17,173.7558 874.68,186.6658 820,207.0158 C763.48,228.0558 702.77,265.1158 671.11,285.6958 " fill="none" id="OmniOptCore-&gt;ax_module" style="stroke: #000000; stroke-width: 1.0;"/><polygon fill="#000000" points="666.65,288.6058,676.3739,287.0419,670.8386,285.8754,672.0051,280.3401,666.65,288.6058" style="stroke: #000000; stroke-width: 1.0;"/><text fill="#000000" font-family="Monospace" font-size="11" lengthAdjust="spacingAndGlyphs" textLength="130" x="821" y="219.7748">invoke with search space</text><!--MD5=[1af0978839253e48dc811fb528ff5245]
link ax_module to OmniOptCore--><path d="M647.65,282.0058 C647.19,260.5958 650.08,225.8958 671,207.0158 C715.34,166.9858 886.51,159.3758 981.16,158.3158 " fill="none" id="ax_module-&gt;OmniOptCore" style="stroke: #000000; stroke-width: 1.0;"/><polygon fill="#000000" points="986.16,158.2658,977.126,154.3431,981.1602,158.3087,977.1946,162.3428,986.16,158.2658" style="stroke: #000000; stroke-width: 1.0;"/><text fill="#000000" font-family="Monospace" font-size="11" lengthAdjust="spacingAndGlyphs" textLength="105" x="672" y="219.7748">all generated points</text><!--MD5=[da8e97604b8f762f2f25f39b9ce180b2]
link OmniOptCore to ax_module--><path d="M986.1,160.1858 C864.87,164.2358 596.49,176.5758 569,207.0158 C542.79,236.0258 594.93,271.3358 626.8,289.1158 " fill="none" id="OmniOptCore-&gt;ax_module-1" style="stroke: #000000; stroke-width: 1.0;"/><polygon fill="#000000" points="631.34,291.6158,625.3651,283.7864,626.9538,289.2156,621.5246,290.8043,631.34,291.6158" style="stroke: #000000; stroke-width: 1.0;"/><text fill="#000000" font-family="Monospace" font-size="11" lengthAdjust="spacingAndGlyphs" textLength="81" x="570" y="219.7748">forward results</text><!--MD5=[8e9aa0cc2a47bc04528d2dac2760e7a8]
link sobol to ax_module--><path d="M370.06,177.0958 C380.06,192.1158 396.23,212.4458 416,223.0158 C439.34,235.4958 449.41,224.2758 475,231.0158 C531.37,245.8558 594.07,273.9658 626.63,289.5058 " fill="none" id="sobol-&gt;ax_module" style="stroke: #000000; stroke-width: 1.0;"/><polygon fill="#000000" points="631.21,291.7058,624.8427,284.192,626.7069,289.5329,621.366,291.3971,631.21,291.7058" style="stroke: #000000; stroke-width: 1.0;"/><text fill="#000000" font-family="Monospace" font-size="11" lengthAdjust="spacingAndGlyphs" textLength="65" x="417" y="219.7748">initial points</text><!--MD5=[cec394c570342177663ef42daa4e7d28]
link ax_module to botorch--><path d="M631.41,301.5158 C584.63,301.5158 454.96,301.5158 370.12,301.5158 " fill="none" id="ax_module-&gt;botorch" style="stroke: #000000; stroke-width: 1.0;"/><polygon fill="#000000" points="365.11,301.5158,374.11,305.5158,370.11,301.5158,374.11,297.5158,365.11,301.5158" style="stroke: #000000; stroke-width: 1.0;"/><text fill="#000000" font-family="Monospace" font-size="11" lengthAdjust="spacingAndGlyphs" textLength="83" x="456.75" y="280.2748">generate points</text><text fill="#000000" font-family="Monospace" font-size="11" lengthAdjust="spacingAndGlyphs" textLength="167" x="414.75" y="295.2566">(using already evaluated points)</text><!--MD5=[fec4a35e48065a648c0a47644d8b95b4]
link ax_module to external_nodes--><path d="M666.63,309.6358 C690.13,319.2858 732.81,337.3958 768,355.5158 C803.32,373.7058 842.28,397.0158 869.23,413.6858 " fill="none" id="ax_module-&gt;external_nodes" style="stroke: #000000; stroke-width: 1.0;"/><polygon fill="#000000" points="873.78,416.5058,868.2359,408.3657,869.5296,413.8726,864.0227,415.1663,873.78,416.5058" style="stroke: #000000; stroke-width: 1.0;"/><text fill="#000000" font-family="Monospace" font-size="11" lengthAdjust="spacingAndGlyphs" textLength="83" x="864" y="368.2748">generate points</text><text fill="#000000" font-family="Monospace" font-size="11" lengthAdjust="spacingAndGlyphs" textLength="167" x="822" y="383.2566">(using already evaluated points)</text><!--MD5=[d5253afcf19d710b4b3ea91b9ffa8f3e]
link external_nodes to ax_module--><path d="M963.52,416.4658 C977.17,409.3258 989.97,399.6258 998,386.5158 C1005.19,374.7658 1007.05,365.9058 998,355.5158 C986.8,342.6658 938.87,347.4958 922,345.0158 C829.01,331.3558 718.43,313.7058 671.67,306.1758 " fill="none" id="external_nodes-&gt;ax_module" style="stroke: #000000; stroke-width: 1.0;"/><polygon fill="#000000" points="666.55,305.3558,674.7928,310.7462,671.4854,306.157,676.0746,302.8495,666.55,305.3558" style="stroke: #000000; stroke-width: 1.0;"/><text fill="#000000" font-family="Monospace" font-size="11" lengthAdjust="spacingAndGlyphs" textLength="58" x="1006" y="375.7748">new points</text><!--MD5=[d3b0d654d092eaf63e60d69bdd25e7e1]
link ax_module to rf_nodes--><path d="M631.34,306.1758 C589.84,315.6058 491.83,343.0358 523,386.5158 C541.12,411.7958 573.16,424.0558 602.32,429.9458 " fill="none" id="ax_module-&gt;rf_nodes" style="stroke: #000000; stroke-width: 1.0;"/><polygon fill="#000000" points="607.35,430.9058,599.2492,425.3044,602.4369,429.9775,597.7638,433.1653,607.35,430.9058" style="stroke: #000000; stroke-width: 1.0;"/><text fill="#000000" font-family="Monospace" font-size="11" lengthAdjust="spacingAndGlyphs" textLength="83" x="566" y="368.2748">generate points</text><text fill="#000000" font-family="Monospace" font-size="11" lengthAdjust="spacingAndGlyphs" textLength="167" x="524" y="383.2566">(using already evaluated points)</text><!--MD5=[a6d1526b9d204e0c6295b6a95fedb011]
link rf_nodes to ax_module--><path d="M680.92,416.3658 C686.85,407.7958 692.97,397.1858 696,386.5158 C699.77,373.2658 700.89,368.3958 696,355.5158 C690.84,341.9158 680.41,329.5658 670.69,320.2158 " fill="none" id="rf_nodes-&gt;ax_module" style="stroke: #000000; stroke-width: 1.0;"/><polygon fill="#000000" points="666.86,316.6558,670.709,325.7215,670.5148,320.0679,676.1683,319.8738,666.86,316.6558" style="stroke: #000000; stroke-width: 1.0;"/><text fill="#000000" font-family="Monospace" font-size="11" lengthAdjust="spacingAndGlyphs" textLength="58" x="701" y="375.7748">new points</text><!--MD5=[81c8fd8f3110b8c69dff5529db286869]
link OmniOptCore to Job1--><path d="M1062.2,177.2058 C1075.18,190.7558 1093.8,209.0758 1112,223.0158 C1141.7,245.7658 1178.55,267.3158 1205.24,281.8958 " fill="none" id="OmniOptCore-&gt;Job1" style="stroke: #000000; stroke-width: 1.0;"/><polygon fill="#000000" points="1209.77,284.3458,1203.7648,276.5396,1205.3745,281.9626,1199.9516,283.5724,1209.77,284.3458" style="stroke: #000000; stroke-width: 1.0;"/><text fill="#000000" font-family="Monospace" font-size="11" lengthAdjust="spacingAndGlyphs" textLength="56" x="1113" y="219.7748">submit job</text><!--MD5=[c18ddbec662f5264ce3bce332f70300b]
link Job1 to OmniOptCore--><path d="M1231.93,281.8258 C1220.91,260.9158 1200.46,227.3158 1174,207.0158 C1154.85,192.3258 1130.76,181.6858 1108.6,174.1758 " fill="none" id="Job1-&gt;OmniOptCore" style="stroke: #000000; stroke-width: 1.0;"/><polygon fill="#000000" points="1103.61,172.5258,1110.8952,179.1535,1108.3563,174.0984,1113.4113,171.5594,1103.61,172.5258" style="stroke: #000000; stroke-width: 1.0;"/><text fill="#000000" font-family="Monospace" font-size="11" lengthAdjust="spacingAndGlyphs" textLength="35" x="1192" y="219.7748">results</text><!--MD5=[8f4913b2f0c9031033e922545f626df0]
link OmniOptCore to Job2--><path d="M1103.55,162.9858 C1157.14,169.8258 1235.96,187.1558 1289,231.0158 C1304.47,243.8058 1317.32,262.6058 1325.98,277.4358 " fill="none" id="OmniOptCore-&gt;Job2" style="stroke: #000000; stroke-width: 1.0;"/><polygon fill="#000000" points="1328.53,281.8958,1327.5308,272.0978,1326.0462,277.5564,1320.5877,276.0718,1328.53,281.8958" style="stroke: #000000; stroke-width: 1.0;"/><text fill="#000000" font-family="Monospace" font-size="11" lengthAdjust="spacingAndGlyphs" textLength="56" x="1280" y="219.7748">submit job</text><!--MD5=[e1f374dc4ac342c09d47f00321df32d4]
link Job2 to OmniOptCore--><path d="M1346.34,281.9758 C1354.27,261.1958 1362.62,227.7158 1345,207.0158 C1315.3,172.1258 1187.81,162.2558 1108.89,159.5158 " fill="none" id="Job2-&gt;OmniOptCore" style="stroke: #000000; stroke-width: 1.0;"/><polygon fill="#000000" points="1103.76,159.3458,1112.6177,163.6519,1108.7571,159.5172,1112.8918,155.6566,1103.76,159.3458" style="stroke: #000000; stroke-width: 1.0;"/><text fill="#000000" font-family="Monospace" font-size="11" lengthAdjust="spacingAndGlyphs" textLength="35" x="1355" y="219.7748">results</text><!--MD5=[531f84d1dbeccf3f27e2ed863d36d27c]
link OmniOptCore to JobN--><path d="M1103.68,159.5458 C1192.19,162.2258 1354.28,171.9358 1399,207.0158 C1420.49,223.8758 1429.53,255.0458 1433.32,276.7458 " fill="none" id="OmniOptCore-&gt;JobN" style="stroke: #000000; stroke-width: 1.0;"/><polygon fill="#000000" points="1434.13,281.7658,1436.6407,272.2424,1433.3311,276.8301,1428.7434,273.5205,1434.13,281.7658" style="stroke: #000000; stroke-width: 1.0;"/><text fill="#000000" font-family="Monospace" font-size="11" lengthAdjust="spacingAndGlyphs" textLength="56" x="1415" y="219.7748">submit job</text><!--MD5=[4d52ecd93ead93b7a2fe0b14a0c77798]
link JobN to OmniOptCore--><path d="M1456.21,281.8358 C1475.75,261.5458 1499.74,229.0758 1480,207.0158 C1455.69,179.8458 1223.4,166.1558 1108.59,161.0058 " fill="none" id="JobN-&gt;OmniOptCore" style="stroke: #000000; stroke-width: 1.0;"/><polygon fill="#000000" points="1103.55,160.7858,1112.3705,165.1675,1108.5454,160.9999,1112.713,157.1749,1103.55,160.7858" style="stroke: #000000; stroke-width: 1.0;"/><text fill="#000000" font-family="Monospace" font-size="11" lengthAdjust="spacingAndGlyphs" textLength="35" x="1488" y="219.7748">results</text><!--MD5=[cd9410c4e60777fc3d6f7560487be14a]
link OmniOptCore to db_runs--><path d="M996.76,177.1858 C984.19,184.5058 972.17,194.2758 965,207.0158 C953.93,226.6758 955.76,252.5358 959.75,272.0758 " fill="none" id="OmniOptCore-&gt;db_runs" style="stroke: #000000; stroke-width: 1.0;"/><polygon fill="#000000" points="960.92,277.4058,962.8664,267.7512,959.8323,272.5256,955.058,269.4915,960.92,277.4058" style="stroke: #000000; stroke-width: 1.0;"/><text fill="#000000" font-family="Monospace" font-size="11" lengthAdjust="spacingAndGlyphs" textLength="105" x="966" y="219.7748">log runs and results</text><!--MD5=[c98726c415b12fc631bdf592e71df1bb]
@startuml

  skinparam backgroundColor #ffffff
  skinparam defaultFontColor #000000
  skinparam componentFontColor #000000
  skinparam nodeFontColor #000000
  skinparam databaseFontColor #000000
  skinparam arrowColor #000000
  skinparam ArrowFontColor #000000

  skinparam componentBackgroundColor #e0e0e0
  skinparam nodeBackgroundColor #FFB84D
  skinparam databaseBackgroundColor #FFEB3B
  skinparam packageBackgroundColor #e0e0e0
  skinparam cloudBackgroundColor #e0e0e0

  skinparam componentBorderColor #000000
  skinparam nodeBorderColor #000000
  skinparam databaseBorderColor #000000
  skinparam packageBorderColor #000000
  skinparam cloudBorderColor #000000
  skinparam rectangleBorderColor #000000

skinparam componentStyle rectangle
skinparam defaultFontName Monospace
skinparam ArrowFontSize 11

title Interaction between OmniOpt, Slurm, ax, BoTorch Module, and ExternalGenerationNodes

node "HPC Master Node" as HPCMaster {
  component "OmniOpt Core" as OmniOptCore
  component "ax" as ax_module #LightBlue

  package "BoTorch Module" {
    component "Sobol Sequence Generator" as sobol #LightGreen
    component "BoTorch Optimizer" as botorch

    component "BOTORCH_MODULAR" as modular #99FF99
    component "GPEI" as gpei #99FF99
    component "SAASBO" as saasbo #99FF99
    component "Other modules" as othermodules #99FF99

    botorch -down-> modular
    modular -> botorch
    botorch -down-> gpei
    gpei -> botorch
    botorch -down-> saasbo
    saasbo -> botorch
    othermodules -> botorch
    botorch -> othermodules
  }

  component "ExternalGenerationNodes" as external_nodes
  component "RandomForest" as rf_nodes #LightBlue

  database "runs/" as db_runs
}

node "Compute Nodes" as ComputeNodes {
  component "Job #1" as Job1 #FF8C00
  component "Job #2" as Job2 #FF8C00
  component "Job #n" as JobN #FF8C00
}

OmniOptCore - -> ax_module : invoke with search space

sobol - -> ax_module : initial points

ax_module - -> botorch : generate points\n(using already evaluated points)
ax_module - -> external_nodes : generate points\n(using already evaluated points)
ax_module - -> rf_nodes : generate points\n(using already evaluated points)

external_nodes - -> ax_module : new points
rf_nodes - -> ax_module : new points

ax_module - -> OmniOptCore : all generated points

OmniOptCore - -> Job1 : submit job
OmniOptCore - -> Job2 : submit job
OmniOptCore - -> JobN : submit job

Job1 - -> OmniOptCore : results
Job2 - -> OmniOptCore : results
JobN - -> OmniOptCore : results

OmniOptCore - -> ax_module : forward results

OmniOptCore - -> db_runs : log runs and results

@enduml

PlantUML version 1.2020.02(Sun Mar 01 11:22:07 CET 2020)
(GPL source distribution)
Java Runtime: OpenJDK Runtime Environment
JVM: OpenJDK 64-Bit Server VM
Java Version: 17.0.17+10-Debian-1deb12u1
Operating System: Linux
Default Encoding: UTF-8
Language: de
Country: DE
--></g></svg>