<?xml version="1.0" encoding="UTF-8" standalone="no"?><svg xmlns="http://www.w3.org/2000/svg" xmlns:xlink="http://www.w3.org/1999/xlink" contentScriptType="application/ecmascript" contentStyleType="text/css" height="545px" preserveAspectRatio="none" style="width:1578px;height:545px;" version="1.1" viewBox="0 0 1578 545" width="1578px" zoomAndPan="magnify"><defs><filter height="300%" id="futhycv6um7z3" width="300%" x="-1" y="-1"><feGaussianBlur result="blurOut" stdDeviation="2.0"/><feColorMatrix in="blurOut" result="blurOut2" type="matrix" values="0 0 0 0 0 0 0 0 0 0 0 0 0 0 0 0 0 0 .4 0"/><feOffset dx="4.0" dy="4.0" in="blurOut2" result="blurOut3"/><feBlend in="SourceGraphic" in2="blurOut3" mode="normal"/></filter></defs><g><text fill="#000000" font-family="Monospace" font-size="18" lengthAdjust="spacingAndGlyphs" textLength="770" x="407.5" y="19.2419">Interaction between OmniOpt, sbatch, ax, BoTorch Module, and ExternalGenerationNodes</text><!--MD5=[5687f5b0a9f1da24cf398575a94f7314]
cluster HPCMaster--><polygon fill="#FFB84D" filter="url(#futhycv6um7z3)" points="22,59.0158,32,49.0158,1091,49.0158,1091,523.5158,1081,533.5158,22,533.5158,22,59.0158" style="stroke: #000000; stroke-width: 1.5;"/><line style="stroke: #000000; stroke-width: 1.5;" x1="1081" x2="1090" y1="59.0158" y2="50.0158"/><line style="stroke: #000000; stroke-width: 1.5;" x1="22" x2="1081" y1="59.0158" y2="59.0158"/><line style="stroke: #000000; stroke-width: 1.5;" x1="1081" x2="1081" y1="59.0158" y2="533.5158"/><text fill="#000000" font-family="Monospace" font-size="14" font-weight="bold" lengthAdjust="spacingAndGlyphs" textLength="122" x="491.5" y="76.9818">HPC Master Node</text><!--MD5=[2581f1adf71c4d9c4ca8845dd85da35f]
cluster BoTorch Module--><polygon fill="#E0E0E0" filter="url(#futhycv6um7z3)" points="46,100.0158,165,100.0158,172,125.0838,475,125.0838,475,509.5158,46,509.5158,46,100.0158" style="stroke: #000000; stroke-width: 1.5;"/><line style="stroke: #000000; stroke-width: 1.5;" x1="46" x2="172" y1="125.0838" y2="125.0838"/><text fill="#000000" font-family="Monospace" font-size="14" font-weight="bold" lengthAdjust="spacingAndGlyphs" textLength="113" x="50" y="116.9818">BoTorch Module</text><!--MD5=[e2889d74894dfd2cde98a945e775442d]
cluster ComputeNodes--><polygon fill="#FFB84D" filter="url(#futhycv6um7z3)" points="1194,268.0158,1204,258.0158,1484,258.0158,1484,346.0158,1474,356.0158,1194,356.0158,1194,268.0158" style="stroke: #000000; stroke-width: 1.5;"/><line style="stroke: #000000; stroke-width: 1.5;" x1="1474" x2="1483" y1="268.0158" y2="259.0158"/><line style="stroke: #000000; stroke-width: 1.5;" x1="1194" x2="1474" y1="268.0158" y2="268.0158"/><line style="stroke: #000000; stroke-width: 1.5;" x1="1474" x2="1474" y1="268.0158" y2="356.0158"/><text fill="#000000" font-family="Monospace" font-size="14" font-weight="bold" lengthAdjust="spacingAndGlyphs" textLength="112" x="1279" y="285.9818">Compute Nodes</text><!--MD5=[2f2b0aedd9c38e5145f377076e8d496d]
entity OmniOptCore--><rect fill="#E0E0E0" filter="url(#futhycv6um7z3)" height="39.0679" style="stroke: #000000; stroke-width: 1.5;" width="125" x="949.5" y="147.5158"/><rect fill="#E0E0E0" height="5" style="stroke: #000000; stroke-width: 1.5;" width="10" x="944.5" y="152.5158"/><rect fill="#E0E0E0" height="5" style="stroke: #000000; stroke-width: 1.5;" width="10" x="944.5" y="176.5838"/><text fill="#000000" font-family="Monospace" font-size="14" lengthAdjust="spacingAndGlyphs" textLength="105" x="959.5" y="172.4818">OmniOpt2 Core</text><!--MD5=[3a66b5fcc5a5db46ac919e228b9ab7c5]
entity ax_module--><rect fill="#ADD8E6" filter="url(#futhycv6um7z3)" height="39.0679" style="stroke: #000000; stroke-width: 1.5;" width="35" x="585.5" y="301.0158"/><rect fill="#ADD8E6" height="5" style="stroke: #000000; stroke-width: 1.5;" width="10" x="580.5" y="306.0158"/><rect fill="#ADD8E6" height="5" style="stroke: #000000; stroke-width: 1.5;" width="10" x="580.5" y="330.0838"/><text fill="#000000" font-family="Monospace" font-size="14" lengthAdjust="spacingAndGlyphs" textLength="15" x="595.5" y="325.9818">ax</text><!--MD5=[ff96caba99bf59d2b43e041a81d886a4]
entity external_nodes--><rect fill="#E0E0E0" filter="url(#futhycv6um7z3)" height="39.0679" style="stroke: #000000; stroke-width: 1.5;" width="193" x="538.5" y="445.0158"/><rect fill="#E0E0E0" height="5" style="stroke: #000000; stroke-width: 1.5;" width="10" x="533.5" y="450.0158"/><rect fill="#E0E0E0" height="5" style="stroke: #000000; stroke-width: 1.5;" width="10" x="533.5" y="474.0838"/><text fill="#000000" font-family="Monospace" font-size="14" lengthAdjust="spacingAndGlyphs" textLength="173" x="548.5" y="469.9818">ExternalGenerationNodes</text><!--MD5=[106eb1323429edff886bc7e700cb3794]
entity rf_nodes--><rect fill="#ADD8E6" filter="url(#futhycv6um7z3)" height="39.0679" style="stroke: #000000; stroke-width: 1.5;" width="117" x="767.5" y="445.0158"/><rect fill="#ADD8E6" height="5" style="stroke: #000000; stroke-width: 1.5;" width="10" x="762.5" y="450.0158"/><rect fill="#ADD8E6" height="5" style="stroke: #000000; stroke-width: 1.5;" width="10" x="762.5" y="474.0838"/><text fill="#000000" font-family="Monospace" font-size="14" lengthAdjust="spacingAndGlyphs" textLength="97" x="777.5" y="469.9818">RandomForest</text><!--MD5=[9f2a0a02820928be63157aaf6d5916ea]
entity db_runs--><path d="M940,306.5158 C940,296.5158 968,296.5158 968,296.5158 C968,296.5158 996,296.5158 996,306.5158 L996,334.5838 C996,344.5838 968,344.5838 968,344.5838 C968,344.5838 940,344.5838 940,334.5838 L940,306.5158 " fill="#FFEB3B" filter="url(#futhycv6um7z3)" style="stroke: #000000; stroke-width: 1.5;"/><path d="M940,306.5158 C940,316.5158 968,316.5158 968,316.5158 C968,316.5158 996,316.5158 996,306.5158 " fill="none" style="stroke: #000000; stroke-width: 1.5;"/><text fill="#000000" font-family="Monospace" font-size="14" lengthAdjust="spacingAndGlyphs" textLength="36" x="950" y="335.4818">runs/</text><!--MD5=[fd9ebf31d21df91e110ad002d6f4b355]
entity sobol--><rect fill="#90EE90" filter="url(#futhycv6um7z3)" height="39.0679" style="stroke: #000000; stroke-width: 1.5;" width="199" x="259.5" y="147.5158"/><rect fill="#90EE90" height="5" style="stroke: #000000; stroke-width: 1.5;" width="10" x="254.5" y="152.5158"/><rect fill="#90EE90" height="5" style="stroke: #000000; stroke-width: 1.5;" width="10" x="254.5" y="176.5838"/><text fill="#000000" font-family="Monospace" font-size="14" lengthAdjust="spacingAndGlyphs" textLength="179" x="269.5" y="172.4818">Sobol Sequence Generator</text><!--MD5=[768daca0a1630a961345edac01c51118]
entity botorch--><rect fill="#E0E0E0" filter="url(#futhycv6um7z3)" height="39.0679" style="stroke: #000000; stroke-width: 1.5;" width="146" x="70" y="301.0158"/><rect fill="#E0E0E0" height="5" style="stroke: #000000; stroke-width: 1.5;" width="10" x="65" y="306.0158"/><rect fill="#E0E0E0" height="5" style="stroke: #000000; stroke-width: 1.5;" width="10" x="65" y="330.0838"/><text fill="#000000" font-family="Monospace" font-size="14" lengthAdjust="spacingAndGlyphs" textLength="126" x="80" y="325.9818">BoTorch Optimizer</text><!--MD5=[e370f027d8ab62f12a0687b2633d3af2]
entity modular--><rect fill="#99FF99" filter="url(#futhycv6um7z3)" height="58.1358" style="stroke: #000000; stroke-width: 1.5;" width="162" x="62" y="138.0158"/><rect fill="#99FF99" height="5" style="stroke: #000000; stroke-width: 1.5;" width="10" x="57" y="143.0158"/><rect fill="#99FF99" height="5" style="stroke: #000000; stroke-width: 1.5;" width="10" x="57" y="186.1517"/><text fill="#000000" font-family="Monospace" font-size="14" lengthAdjust="spacingAndGlyphs" textLength="142" x="72" y="162.9818">BOTORCH_MODULAR</text><text fill="#000000" font-family="Monospace" font-size="14" lengthAdjust="spacingAndGlyphs" textLength="12" x="72" y="182.0497">...</text><!--MD5=[c9ced51c7560f4c42780d593f844e299]
entity gpei--><rect fill="#99FF99" filter="url(#futhycv6um7z3)" height="58.1358" style="stroke: #000000; stroke-width: 1.5;" width="51" x="86.5" y="435.5158"/><rect fill="#99FF99" height="5" style="stroke: #000000; stroke-width: 1.5;" width="10" x="81.5" y="440.5158"/><rect fill="#99FF99" height="5" style="stroke: #000000; stroke-width: 1.5;" width="10" x="81.5" y="483.6517"/><text fill="#000000" font-family="Monospace" font-size="14" lengthAdjust="spacingAndGlyphs" textLength="31" x="96.5" y="460.4818">GPEI</text><text fill="#000000" font-family="Monospace" font-size="14" lengthAdjust="spacingAndGlyphs" textLength="12" x="96.5" y="479.5497">...</text><!--MD5=[9cdd96db190de10f1cbe2e9685338b4e]
entity saasbo--><rect fill="#99FF99" filter="url(#futhycv6um7z3)" height="58.1358" style="stroke: #000000; stroke-width: 1.5;" width="74" x="173" y="435.5158"/><rect fill="#99FF99" height="5" style="stroke: #000000; stroke-width: 1.5;" width="10" x="168" y="440.5158"/><rect fill="#99FF99" height="5" style="stroke: #000000; stroke-width: 1.5;" width="10" x="168" y="483.6517"/><text fill="#000000" font-family="Monospace" font-size="14" lengthAdjust="spacingAndGlyphs" textLength="54" x="183" y="460.4818">SAASBO</text><text fill="#000000" font-family="Monospace" font-size="14" lengthAdjust="spacingAndGlyphs" textLength="12" x="183" y="479.5497">...</text><!--MD5=[47e052b533fd8425fd8ca2757eeea134]
entity Job1--><rect fill="#FF8C00" filter="url(#futhycv6um7z3)" height="39.0679" style="stroke: #000000; stroke-width: 1.5;" width="62" x="1406" y="301.0158"/><rect fill="#FF8C00" height="5" style="stroke: #000000; stroke-width: 1.5;" width="10" x="1401" y="306.0158"/><rect fill="#FF8C00" height="5" style="stroke: #000000; stroke-width: 1.5;" width="10" x="1401" y="330.0838"/><text fill="#000000" font-family="Monospace" font-size="14" lengthAdjust="spacingAndGlyphs" textLength="42" x="1416" y="325.9818">Job #1</text><!--MD5=[ad1ecd006b7d6e2fcd722d0410ebc487]
entity Job2--><rect fill="#FF8C00" filter="url(#futhycv6um7z3)" height="39.0679" style="stroke: #000000; stroke-width: 1.5;" width="62" x="1210" y="301.0158"/><rect fill="#FF8C00" height="5" style="stroke: #000000; stroke-width: 1.5;" width="10" x="1205" y="306.0158"/><rect fill="#FF8C00" height="5" style="stroke: #000000; stroke-width: 1.5;" width="10" x="1205" y="330.0838"/><text fill="#000000" font-family="Monospace" font-size="14" lengthAdjust="spacingAndGlyphs" textLength="42" x="1220" y="325.9818">Job #2</text><!--MD5=[d6d399e3b77205a86664f0dcaaa37b67]
entity JobN--><rect fill="#FF8C00" filter="url(#futhycv6um7z3)" height="39.0679" style="stroke: #000000; stroke-width: 1.5;" width="63" x="1307.5" y="301.0158"/><rect fill="#FF8C00" height="5" style="stroke: #000000; stroke-width: 1.5;" width="10" x="1302.5" y="306.0158"/><rect fill="#FF8C00" height="5" style="stroke: #000000; stroke-width: 1.5;" width="10" x="1302.5" y="330.0838"/><text fill="#000000" font-family="Monospace" font-size="14" lengthAdjust="spacingAndGlyphs" textLength="43" x="1317.5" y="325.9818">Job #n</text><!--MD5=[f94e1ae4e0ea171f49725a209a6b3fb4]
link botorch to modular--><path d="M152.29,300.6258 C157.08,275.7958 157.78,231.7758 154.4,201.3058 " fill="none" id="botorch-&gt;modular" style="stroke: #000000; stroke-width: 1.0;"/><polygon fill="#000000" points="153.78,196.1558,150.9139,205.5784,154.3932,201.1181,158.8535,204.5974,153.78,196.1558" style="stroke: #000000; stroke-width: 1.0;"/><!--MD5=[21280dc836f3d4ef10a06be7db40d0f4]
link modular to botorch--><path d="M132.82,196.1558 C129.22,224.7158 129.4,268.4558 133.38,295.4558 " fill="none" id="modular-&gt;botorch" style="stroke: #000000; stroke-width: 1.0;"/><polygon fill="#000000" points="134.23,300.6258,136.7094,291.0942,133.415,295.6927,128.8164,292.3983,134.23,300.6258" style="stroke: #000000; stroke-width: 1.0;"/><!--MD5=[fa02ca17e1f691da79ce8002acca5787]
link botorch to gpei--><path d="M130.01,340.0758 C120.75,362.9358 111.5,402.1858 108.27,430.2858 " fill="none" id="botorch-&gt;gpei" style="stroke: #000000; stroke-width: 1.0;"/><polygon fill="#000000" points="107.73,435.3958,112.6349,426.8552,108.2445,430.4224,104.6773,426.032,107.73,435.3958" style="stroke: #000000; stroke-width: 1.0;"/><!--MD5=[3a1e5aaa99c808991e95c2adaa16f7ce]
link gpei to botorch--><path d="M129.15,435.3958 C138.43,409.0058 146.74,369.9758 148.2,345.1558 " fill="none" id="gpei-&gt;botorch" style="stroke: #000000; stroke-width: 1.0;"/><polygon fill="#000000" points="148.41,340.0758,144.0525,348.9083,148.2096,345.0718,152.046,349.2289,148.41,340.0758" style="stroke: #000000; stroke-width: 1.0;"/><!--MD5=[38bf1cf78b0a0fe45143638fd8e8012a]
link botorch to saasbo--><path d="M137.95,340.2958 C141.81,357.3858 153.41,383.2558 164,405.5158 C167.92,413.7458 172.26,422.5758 176.91,430.8058 " fill="none" id="botorch-&gt;saasbo" style="stroke: #000000; stroke-width: 1.0;"/><polygon fill="#000000" points="179.52,435.3058,178.4584,425.5144,177.0086,430.9823,171.5407,429.5326,179.52,435.3058" style="stroke: #000000; stroke-width: 1.0;"/><!--MD5=[6ed2baeb033a05b55787f255f4375b62]
link saasbo to botorch--><path d="M212.67,435.3058 C208.88,425.8658 203.64,415.2758 199,405.5158 C189.32,385.1758 178.79,361.8058 168.29,344.8858 " fill="none" id="saasbo-&gt;botorch" style="stroke: #000000; stroke-width: 1.0;"/><polygon fill="#000000" points="165.33,340.2958,166.8555,350.0258,168.0439,344.4952,173.5745,345.6836,165.33,340.2958" style="stroke: #000000; stroke-width: 1.0;"/><!--MD5=[da8e97604b8f762f2f25f39b9ce180b2]
link OmniOptCore to ax_module--><path d="M949.07,170.8958 C823.38,177.2958 550.86,194.6558 523,226.0158 C497.03,255.2458 549.07,290.4658 580.86,308.1758 " fill="none" id="OmniOptCore-&gt;ax_module" style="stroke: #000000; stroke-width: 1.0;"/><polygon fill="#000000" points="585.39,310.6558,579.4151,302.8264,581.0038,308.2556,575.5746,309.8443,585.39,310.6558" style="stroke: #000000; stroke-width: 1.0;"/><text fill="#000000" font-family="Monospace" font-size="11" lengthAdjust="spacingAndGlyphs" textLength="130" x="524" y="238.7748">invoke with search space</text><!--MD5=[1af0978839253e48dc811fb528ff5245]
link ax_module to OmniOptCore--><path d="M620.69,312.5458 C660.81,296.7658 761.83,257.2958 847,226.0158 C882.04,213.1458 921.47,199.2658 953,188.3058 " fill="none" id="ax_module-&gt;OmniOptCore" style="stroke: #000000; stroke-width: 1.0;"/><polygon fill="#000000" points="957.99,186.5758,948.175,185.7603,953.2685,188.2212,950.8076,193.3147,957.99,186.5758" style="stroke: #000000; stroke-width: 1.0;"/><text fill="#000000" font-family="Monospace" font-size="11" lengthAdjust="spacingAndGlyphs" textLength="105" x="848" y="238.7748">all generated points</text><!--MD5=[da8e97604b8f762f2f25f39b9ce180b2]
link OmniOptCore to ax_module--><path d="M949.42,171.3058 C887.51,176.5858 791.37,190.3158 716,226.0158 C679.24,243.4258 644.35,275.5258 623.32,297.1958 " fill="none" id="OmniOptCore-&gt;ax_module-1" style="stroke: #000000; stroke-width: 1.0;"/><polygon fill="#000000" points="619.81,300.8458,628.929,297.125,623.2733,297.2395,623.1588,291.5838,619.81,300.8458" style="stroke: #000000; stroke-width: 1.0;"/><text fill="#000000" font-family="Monospace" font-size="11" lengthAdjust="spacingAndGlyphs" textLength="81" x="717" y="238.7748">forward results</text><!--MD5=[8fff2eeadda3fff93d08937226cdcd97]
link ax_module to sobol--><path d="M585.46,306.6458 C561.77,290.0858 517.59,262.0158 475,250.0158 C458.4,245.3458 331.88,254.5158 320,242.0158 C305.99,227.2558 319,206.4858 333.65,190.7058 " fill="none" id="ax_module-&gt;sobol" style="stroke: #000000; stroke-width: 1.0;"/><polygon fill="#000000" points="337.39,186.8058,328.2634,190.5079,333.9193,190.4051,334.0222,196.061,337.39,186.8058" style="stroke: #000000; stroke-width: 1.0;"/><text fill="#000000" font-family="Monospace" font-size="11" lengthAdjust="spacingAndGlyphs" textLength="161" x="321" y="238.7748">generate initial points (default)</text><!--MD5=[8e9aa0cc2a47bc04528d2dac2760e7a8]
link sobol to ax_module--><path d="M287.83,186.5858 C250.76,199.5458 217.43,218.6658 240,242.0158 C249.08,251.4058 462.4,246.5858 475,250.0158 C515.2,260.9558 556.67,286.5958 581.13,303.4858 " fill="none" id="sobol-&gt;ax_module" style="stroke: #000000; stroke-width: 1.0;"/><polygon fill="#000000" points="585.49,306.5358,580.393,298.1085,581.3878,303.6772,575.8191,304.672,585.49,306.5358" style="stroke: #000000; stroke-width: 1.0;"/><text fill="#000000" font-family="Monospace" font-size="11" lengthAdjust="spacingAndGlyphs" textLength="65" x="241" y="238.7748">initial points</text><!--MD5=[cec394c570342177663ef42daa4e7d28]
link ax_module to botorch--><path d="M585.22,320.5158 C525.79,320.5158 331.6,320.5158 221.33,320.5158 " fill="none" id="ax_module-&gt;botorch" style="stroke: #000000; stroke-width: 1.0;"/><polygon fill="#000000" points="216.14,320.5158,225.14,324.5158,221.14,320.5158,225.14,316.5158,216.14,320.5158" style="stroke: #000000; stroke-width: 1.0;"/><text fill="#000000" font-family="Monospace" font-size="11" lengthAdjust="spacingAndGlyphs" textLength="83" x="359.25" y="299.2748">generate points</text><text fill="#000000" font-family="Monospace" font-size="11" lengthAdjust="spacingAndGlyphs" textLength="113" x="344.25" y="314.2566">(using current points)</text><!--MD5=[d98d609daf0f481925676ee246f0cfd7]
link botorch to ax_module--><path d="M216.14,320.5158 C322.41,320.5158 514.01,320.5158 579.96,320.5158 " fill="none" id="botorch-&gt;ax_module" style="stroke: #000000; stroke-width: 1.0;"/><polygon fill="#000000" points="585.22,320.5158,576.22,316.5158,580.22,320.5158,576.22,324.5158,585.22,320.5158" style="stroke: #000000; stroke-width: 1.0;"/><text fill="#000000" font-family="Monospace" font-size="11" lengthAdjust="spacingAndGlyphs" textLength="58" x="371.75" y="314.2748">new points</text><!--MD5=[fec4a35e48065a648c0a47644d8b95b4]
link ax_module to external_nodes--><path d="M585.49,327.3958 C566.2,334.9158 536.16,350.0058 523,374.5158 C516.48,386.6558 515.84,393.7458 523,405.5158 C532.99,421.9358 549.28,433.9058 566.4,442.5558 " fill="none" id="ax_module-&gt;external_nodes" style="stroke: #000000; stroke-width: 1.0;"/><polygon fill="#000000" points="571.24,444.9158,564.892,437.3857,566.7425,442.7313,561.3968,444.5817,571.24,444.9158" style="stroke: #000000; stroke-width: 1.0;"/><text fill="#000000" font-family="Monospace" font-size="11" lengthAdjust="spacingAndGlyphs" textLength="83" x="539" y="387.2748">generate points</text><text fill="#000000" font-family="Monospace" font-size="11" lengthAdjust="spacingAndGlyphs" textLength="113" x="524" y="402.2566">(using current points)</text><!--MD5=[d5253afcf19d710b4b3ea91b9ffa8f3e]
link external_nodes to ax_module--><path d="M640.56,444.9458 C645.12,426.5958 649.69,397.9258 642,374.5158 C638.33,363.3258 631.28,352.5458 624.18,343.6658 " fill="none" id="external_nodes-&gt;ax_module" style="stroke: #000000; stroke-width: 1.0;"/><polygon fill="#000000" points="620.71,339.4658,623.3745,348.9474,623.9011,343.3152,629.5333,343.8417,620.71,339.4658" style="stroke: #000000; stroke-width: 1.0;"/><text fill="#000000" font-family="Monospace" font-size="11" lengthAdjust="spacingAndGlyphs" textLength="58" x="648" y="394.7748">new points</text><!--MD5=[d3b0d654d092eaf63e60d69bdd25e7e1]
link ax_module to rf_nodes--><path d="M620.67,322.6658 C671.14,326.3458 814.07,339.7158 842,374.5158 C856.77,392.9158 848.68,420.3758 839.49,439.9258 " fill="none" id="ax_module-&gt;rf_nodes" style="stroke: #000000; stroke-width: 1.0;"/><polygon fill="#000000" points="837.14,444.7158,844.6944,438.3967,839.3417,440.2267,837.5117,434.874,837.14,444.7158" style="stroke: #000000; stroke-width: 1.0;"/><text fill="#000000" font-family="Monospace" font-size="11" lengthAdjust="spacingAndGlyphs" textLength="83" x="867" y="387.2748">generate points</text><text fill="#000000" font-family="Monospace" font-size="11" lengthAdjust="spacingAndGlyphs" textLength="113" x="852" y="402.2566">(using current points)</text><!--MD5=[a6d1526b9d204e0c6295b6a95fedb011]
link rf_nodes to ax_module--><path d="M805.82,444.9158 C784.36,425.7358 748.93,395.7358 715,374.5158 C685.54,356.0958 648.67,339.8158 625.47,330.3158 " fill="none" id="rf_nodes-&gt;ax_module" style="stroke: #000000; stroke-width: 1.0;"/><polygon fill="#000000" points="620.74,328.3958,627.5656,335.4959,625.3705,330.2823,630.584,328.0871,620.74,328.3958" style="stroke: #000000; stroke-width: 1.0;"/><text fill="#000000" font-family="Monospace" font-size="11" lengthAdjust="spacingAndGlyphs" textLength="58" x="758" y="394.7748">new points</text><!--MD5=[81c8fd8f3110b8c69dff5529db286869]
link OmniOptCore to Job1--><path d="M1074.7,170.8558 C1200.69,177.1958 1474.99,194.4958 1503,226.0158 C1523.3,248.8558 1495.4,277.9858 1469.88,297.6158 " fill="none" id="OmniOptCore-&gt;Job1" style="stroke: #000000; stroke-width: 1.0;"/><polygon fill="#000000" points="1465.81,300.6858,1475.405,298.4639,1469.8031,297.6767,1470.5904,292.0749,1465.81,300.6858" style="stroke: #000000; stroke-width: 1.0;"/><text fill="#000000" font-family="Monospace" font-size="11" lengthAdjust="spacingAndGlyphs" textLength="56" x="1510" y="238.7748">submit job</text><!--MD5=[c18ddbec662f5264ce3bce332f70300b]
link Job1 to OmniOptCore--><path d="M1434.25,300.7758 C1430.03,279.1458 1419.78,244.2358 1396,226.0158 C1347.69,189.0058 1176.57,175.3558 1079.86,170.5158 " fill="none" id="Job1-&gt;OmniOptCore" style="stroke: #000000; stroke-width: 1.0;"/><polygon fill="#000000" points="1074.74,170.2658,1083.5347,174.699,1079.7341,170.5091,1083.924,166.7085,1074.74,170.2658" style="stroke: #000000; stroke-width: 1.0;"/><text fill="#000000" font-family="Monospace" font-size="11" lengthAdjust="spacingAndGlyphs" textLength="35" x="1412" y="238.7748">results</text><!--MD5=[8f4913b2f0c9031033e922545f626df0]
link OmniOptCore to Job2--><path d="M1035.78,186.6258 C1055.76,202.0058 1085.24,224.1358 1112,242.0158 C1142.91,262.6658 1179.3,284.2958 1205.54,299.4458 " fill="none" id="OmniOptCore-&gt;Job2" style="stroke: #000000; stroke-width: 1.0;"/><polygon fill="#000000" points="1209.99,302.0058,1204.197,294.0408,1205.6603,299.5052,1200.1959,300.9684,1209.99,302.0058" style="stroke: #000000; stroke-width: 1.0;"/><text fill="#000000" font-family="Monospace" font-size="11" lengthAdjust="spacingAndGlyphs" textLength="56" x="1113" y="238.7748">submit job</text><!--MD5=[e1f374dc4ac342c09d47f00321df32d4]
link Job2 to OmniOptCore--><path d="M1231.99,300.7558 C1221.02,279.7758 1200.62,246.1058 1174,226.0158 C1146.38,205.1758 1110.6,191.3258 1079.7,182.3958 " fill="none" id="Job2-&gt;OmniOptCore" style="stroke: #000000; stroke-width: 1.0;"/><polygon fill="#000000" points="1074.78,181.0058,1082.3398,187.3185,1079.5887,182.3757,1084.5315,179.6246,1074.78,181.0058" style="stroke: #000000; stroke-width: 1.0;"/><text fill="#000000" font-family="Monospace" font-size="11" lengthAdjust="spacingAndGlyphs" textLength="35" x="1192" y="238.7748">results</text><!--MD5=[531f84d1dbeccf3f27e2ed863d36d27c]
link OmniOptCore to JobN--><path d="M1074.6,172.6558 C1135.39,180.0958 1227.3,199.4958 1289,250.0158 C1304.63,262.8158 1317.76,281.6158 1326.64,296.4458 " fill="none" id="OmniOptCore-&gt;JobN" style="stroke: #000000; stroke-width: 1.0;"/><polygon fill="#000000" points="1329.25,300.9058,1328.136,291.1202,1326.7155,296.5958,1321.2399,295.1754,1329.25,300.9058" style="stroke: #000000; stroke-width: 1.0;"/><text fill="#000000" font-family="Monospace" font-size="11" lengthAdjust="spacingAndGlyphs" textLength="56" x="1278" y="238.7748">submit job</text><!--MD5=[4d52ecd93ead93b7a2fe0b14a0c77798]
link JobN to OmniOptCore--><path d="M1346.44,301.0058 C1353.43,280.2458 1360.45,246.7958 1343,226.0158 C1310.07,186.8158 1166.72,174.1058 1079.83,169.9858 " fill="none" id="JobN-&gt;OmniOptCore" style="stroke: #000000; stroke-width: 1.0;"/><polygon fill="#000000" points="1074.71,169.7458,1083.5174,174.1538,1079.7048,169.9748,1083.8837,166.1622,1074.71,169.7458" style="stroke: #000000; stroke-width: 1.0;"/><text fill="#000000" font-family="Monospace" font-size="11" lengthAdjust="spacingAndGlyphs" textLength="35" x="1352" y="238.7748">results</text><!--MD5=[cd9410c4e60777fc3d6f7560487be14a]
link OmniOptCore to db_runs--><path d="M991.43,186.5458 C981.38,197.0158 970.32,210.9858 965,226.0158 C957.56,247.0058 958.95,272.3358 961.85,291.3258 " fill="none" id="OmniOptCore-&gt;db_runs" style="stroke: #000000; stroke-width: 1.0;"/><polygon fill="#000000" points="962.7,296.5058,965.2107,286.9824,961.9011,291.5701,957.3134,288.2605,962.7,296.5058" style="stroke: #000000; stroke-width: 1.0;"/><text fill="#000000" font-family="Monospace" font-size="11" lengthAdjust="spacingAndGlyphs" textLength="105" x="966" y="238.7748">log runs and results</text><!--MD5=[c09d6d3a94e06322609f399c44c0c84c]
@startuml

  skinparam backgroundColor #ffffff
  skinparam defaultFontColor #000000
  skinparam componentFontColor #000000
  skinparam nodeFontColor #000000
  skinparam databaseFontColor #000000
  skinparam arrowColor #000000
  skinparam ArrowFontColor #000000

  skinparam componentBackgroundColor #e0e0e0
  skinparam nodeBackgroundColor #FFB84D
  skinparam databaseBackgroundColor #FFEB3B
  skinparam packageBackgroundColor #e0e0e0
  skinparam cloudBackgroundColor #e0e0e0

  skinparam componentBorderColor #000000
  skinparam nodeBorderColor #000000
  skinparam databaseBorderColor #000000
  skinparam packageBorderColor #000000
  skinparam cloudBorderColor #000000
  skinparam rectangleBorderColor #000000

skinparam componentStyle rectangle
skinparam defaultFontName Monospace
skinparam ArrowFontSize 11

title Interaction between OmniOpt, sbatch, ax, BoTorch Module, and ExternalGenerationNodes

node "HPC Master Node" as HPCMaster {
  component "OmniOpt2 Core" as OmniOptCore
  component "ax" as ax_module #LightBlue

  package "BoTorch Module" {
    component "Sobol Sequence Generator" as sobol #LightGreen
    component "BoTorch Optimizer" as botorch

    component "BOTORCH_MODULAR\n..." as modular #99FF99
    component "GPEI\n..." as gpei #99FF99
    component "SAASBO\n..." as saasbo #99FF99

    botorch -down-> modular
    modular -> botorch
    botorch -down-> gpei
    gpei -> botorch
    botorch -down-> saasbo
    saasbo -> botorch
  }

  component "ExternalGenerationNodes" as external_nodes
  component "RandomForest" as rf_nodes #LightBlue

  database "runs/" as db_runs
}

node "Compute Nodes" as ComputeNodes {
  component "Job #1" as Job1 #FF8C00
  component "Job #2" as Job2 #FF8C00
  component "Job #n" as JobN #FF8C00
}

OmniOptCore - -> ax_module : invoke with search space

ax_module - -> sobol : generate initial points (default)
sobol - -> ax_module : initial points

ax_module - -> botorch : generate points\n(using current points)
ax_module - -> external_nodes : generate points\n(using current points)
ax_module - -> rf_nodes : generate points\n(using current points)

botorch - -> ax_module : new points
external_nodes - -> ax_module : new points
rf_nodes - -> ax_module : new points

ax_module - -> OmniOptCore : all generated points

OmniOptCore - -> Job1 : submit job
OmniOptCore - -> Job2 : submit job
OmniOptCore - -> JobN : submit job

Job1 - -> OmniOptCore : results
Job2 - -> OmniOptCore : results
JobN - -> OmniOptCore : results

OmniOptCore - -> ax_module : forward results

OmniOptCore - -> db_runs : log runs and results

@enduml

PlantUML version 1.2020.02(Sun Mar 01 11:22:07 CET 2020)
(GPL source distribution)
Java Runtime: OpenJDK Runtime Environment
JVM: OpenJDK 64-Bit Server VM
Java Version: 11.0.27+6-post-Debian-1deb11u1
Operating System: Linux
Default Encoding: UTF-8
Language: de
Country: DE
--></g></svg>