<?xml version="1.0" encoding="UTF-8" standalone="no"?><svg xmlns="http://www.w3.org/2000/svg" xmlns:xlink="http://www.w3.org/1999/xlink" contentScriptType="application/ecmascript" contentStyleType="text/css" height="604px" preserveAspectRatio="none" style="width:1470px;height:604px;" version="1.1" viewBox="0 0 1470 604" width="1470px" zoomAndPan="magnify"><defs><filter height="300%" id="fz5nvakizh7hu" width="300%" x="-1" y="-1"><feGaussianBlur result="blurOut" stdDeviation="2.0"/><feColorMatrix in="blurOut" result="blurOut2" type="matrix" values="0 0 0 0 0 0 0 0 0 0 0 0 0 0 0 0 0 0 .4 0"/><feOffset dx="4.0" dy="4.0" in="blurOut2" result="blurOut3"/><feBlend in="SourceGraphic" in2="blurOut3" mode="normal"/></filter></defs><g><text fill="#000000" font-family="Monospace" font-size="18" lengthAdjust="spacingAndGlyphs" textLength="770" x="353.5" y="19.2419">Interaction between OmniOpt, sbatch, ax, BoTorch Module, and ExternalGenerationNodes</text><!--MD5=[5687f5b0a9f1da24cf398575a94f7314]
cluster HPCMaster--><polygon fill="#FFB84D" filter="url(#fz5nvakizh7hu)" points="22,59.0158,32,49.0158,1124,49.0158,1124,582.5158,1114,592.5158,22,592.5158,22,59.0158" style="stroke: #000000; stroke-width: 1.5;"/><line style="stroke: #000000; stroke-width: 1.5;" x1="1114" x2="1123" y1="59.0158" y2="50.0158"/><line style="stroke: #000000; stroke-width: 1.5;" x1="22" x2="1114" y1="59.0158" y2="59.0158"/><line style="stroke: #000000; stroke-width: 1.5;" x1="1114" x2="1114" y1="59.0158" y2="592.5158"/><text fill="#000000" font-family="Monospace" font-size="14" font-weight="bold" lengthAdjust="spacingAndGlyphs" textLength="122" x="508" y="76.9818">HPC Master Node</text><!--MD5=[2581f1adf71c4d9c4ca8845dd85da35f]
cluster BoTorch Module--><polygon fill="#E0E0E0" filter="url(#fz5nvakizh7hu)" points="619,356.5158,738,356.5158,745,381.5838,1032,381.5838,1032,568.5158,619,568.5158,619,356.5158" style="stroke: #000000; stroke-width: 1.5;"/><line style="stroke: #000000; stroke-width: 1.5;" x1="619" x2="745" y1="381.5838" y2="381.5838"/><text fill="#000000" font-family="Monospace" font-size="14" font-weight="bold" lengthAdjust="spacingAndGlyphs" textLength="113" x="623" y="373.4818">BoTorch Module</text><!--MD5=[e2889d74894dfd2cde98a945e775442d]
cluster ComputeNodes--><polygon fill="#FFB84D" filter="url(#fz5nvakizh7hu)" points="1148,203.0158,1158,193.0158,1438,193.0158,1438,281.0158,1428,291.0158,1148,291.0158,1148,203.0158" style="stroke: #000000; stroke-width: 1.5;"/><line style="stroke: #000000; stroke-width: 1.5;" x1="1428" x2="1437" y1="203.0158" y2="194.0158"/><line style="stroke: #000000; stroke-width: 1.5;" x1="1148" x2="1428" y1="203.0158" y2="203.0158"/><line style="stroke: #000000; stroke-width: 1.5;" x1="1428" x2="1428" y1="203.0158" y2="291.0158"/><text fill="#000000" font-family="Monospace" font-size="14" font-weight="bold" lengthAdjust="spacingAndGlyphs" textLength="112" x="1233" y="220.9818">Compute Nodes</text><!--MD5=[2f2b0aedd9c38e5145f377076e8d496d]
entity OmniOptCore--><rect fill="#E0E0E0" filter="url(#fz5nvakizh7hu)" height="39.0679" style="stroke: #000000; stroke-width: 1.5;" width="125" x="980.5" y="92.0158"/><rect fill="#E0E0E0" height="5" style="stroke: #000000; stroke-width: 1.5;" width="10" x="975.5" y="97.0158"/><rect fill="#E0E0E0" height="5" style="stroke: #000000; stroke-width: 1.5;" width="10" x="975.5" y="121.0838"/><text fill="#000000" font-family="Monospace" font-size="14" lengthAdjust="spacingAndGlyphs" textLength="105" x="990.5" y="116.9818">OmniOpt2 Core</text><!--MD5=[3a66b5fcc5a5db46ac919e228b9ab7c5]
entity ax_module--><rect fill="#ADD8E6" filter="url(#fz5nvakizh7hu)" height="39.0679" style="stroke: #000000; stroke-width: 1.5;" width="35" x="581.5" y="236.0158"/><rect fill="#ADD8E6" height="5" style="stroke: #000000; stroke-width: 1.5;" width="10" x="576.5" y="241.0158"/><rect fill="#ADD8E6" height="5" style="stroke: #000000; stroke-width: 1.5;" width="10" x="576.5" y="265.0838"/><text fill="#000000" font-family="Monospace" font-size="14" lengthAdjust="spacingAndGlyphs" textLength="15" x="591.5" y="260.9818">ax</text><!--MD5=[ff96caba99bf59d2b43e041a81d886a4]
entity external_nodes--><rect fill="#E0E0E0" filter="url(#fz5nvakizh7hu)" height="39.0679" style="stroke: #000000; stroke-width: 1.5;" width="193" x="85.5" y="394.5158"/><rect fill="#E0E0E0" height="5" style="stroke: #000000; stroke-width: 1.5;" width="10" x="80.5" y="399.5158"/><rect fill="#E0E0E0" height="5" style="stroke: #000000; stroke-width: 1.5;" width="10" x="80.5" y="423.5838"/><text fill="#000000" font-family="Monospace" font-size="14" lengthAdjust="spacingAndGlyphs" textLength="173" x="95.5" y="419.4818">ExternalGenerationNodes</text><!--MD5=[106eb1323429edff886bc7e700cb3794]
entity rf_nodes--><rect fill="#ADD8E6" filter="url(#fz5nvakizh7hu)" height="39.0679" style="stroke: #000000; stroke-width: 1.5;" width="117" x="314.5" y="394.5158"/><rect fill="#ADD8E6" height="5" style="stroke: #000000; stroke-width: 1.5;" width="10" x="309.5" y="399.5158"/><rect fill="#ADD8E6" height="5" style="stroke: #000000; stroke-width: 1.5;" width="10" x="309.5" y="423.5838"/><text fill="#000000" font-family="Monospace" font-size="14" lengthAdjust="spacingAndGlyphs" textLength="97" x="324.5" y="419.4818">RandomForest</text><!--MD5=[9f2a0a02820928be63157aaf6d5916ea]
entity db_runs--><path d="M424,241.5158 C424,231.5158 452,231.5158 452,231.5158 C452,231.5158 480,231.5158 480,241.5158 L480,269.5838 C480,279.5838 452,279.5838 452,279.5838 C452,279.5838 424,279.5838 424,269.5838 L424,241.5158 " fill="#003166" filter="url(#fz5nvakizh7hu)" style="stroke: #000000; stroke-width: 1.5;"/><path d="M424,241.5158 C424,251.5158 452,251.5158 452,251.5158 C452,251.5158 480,251.5158 480,241.5158 " fill="none" style="stroke: #000000; stroke-width: 1.5;"/><text fill="#000000" font-family="Monospace" font-size="14" lengthAdjust="spacingAndGlyphs" textLength="36" x="434" y="270.4818">runs/</text><!--MD5=[fd9ebf31d21df91e110ad002d6f4b355]
entity sobol--><rect fill="#90EE90" filter="url(#fz5nvakizh7hu)" height="39.0679" style="stroke: #000000; stroke-width: 1.5;" width="199" x="635.5" y="394.5158"/><rect fill="#90EE90" height="5" style="stroke: #000000; stroke-width: 1.5;" width="10" x="630.5" y="399.5158"/><rect fill="#90EE90" height="5" style="stroke: #000000; stroke-width: 1.5;" width="10" x="630.5" y="423.5838"/><text fill="#000000" font-family="Monospace" font-size="14" lengthAdjust="spacingAndGlyphs" textLength="179" x="645.5" y="419.4818">Sobol Sequence Generator</text><!--MD5=[768daca0a1630a961345edac01c51118]
entity botorch--><rect fill="#E0E0E0" filter="url(#fz5nvakizh7hu)" height="39.0679" style="stroke: #000000; stroke-width: 1.5;" width="146" x="870" y="394.5158"/><rect fill="#E0E0E0" height="5" style="stroke: #000000; stroke-width: 1.5;" width="10" x="865" y="399.5158"/><rect fill="#E0E0E0" height="5" style="stroke: #000000; stroke-width: 1.5;" width="10" x="865" y="423.5838"/><text fill="#000000" font-family="Monospace" font-size="14" lengthAdjust="spacingAndGlyphs" textLength="126" x="880" y="419.4818">BoTorch Optimizer</text><!--MD5=[e370f027d8ab62f12a0687b2633d3af2]
entity modular--><rect fill="#99FF99" filter="url(#fz5nvakizh7hu)" height="58.1358" style="stroke: #000000; stroke-width: 1.5;" width="162" x="658" y="494.5158"/><rect fill="#99FF99" height="5" style="stroke: #000000; stroke-width: 1.5;" width="10" x="653" y="499.5158"/><rect fill="#99FF99" height="5" style="stroke: #000000; stroke-width: 1.5;" width="10" x="653" y="542.6517"/><text fill="#000000" font-family="Monospace" font-size="14" lengthAdjust="spacingAndGlyphs" textLength="142" x="668" y="519.4818">BOTORCH_MODULAR</text><text fill="#000000" font-family="Monospace" font-size="14" lengthAdjust="spacingAndGlyphs" textLength="12" x="668" y="538.5497">...</text><!--MD5=[c9ced51c7560f4c42780d593f844e299]
entity gpei--><rect fill="#99FF99" filter="url(#fz5nvakizh7hu)" height="58.1358" style="stroke: #000000; stroke-width: 1.5;" width="51" x="855.5" y="494.5158"/><rect fill="#99FF99" height="5" style="stroke: #000000; stroke-width: 1.5;" width="10" x="850.5" y="499.5158"/><rect fill="#99FF99" height="5" style="stroke: #000000; stroke-width: 1.5;" width="10" x="850.5" y="542.6517"/><text fill="#000000" font-family="Monospace" font-size="14" lengthAdjust="spacingAndGlyphs" textLength="31" x="865.5" y="519.4818">GPEI</text><text fill="#000000" font-family="Monospace" font-size="14" lengthAdjust="spacingAndGlyphs" textLength="12" x="865.5" y="538.5497">...</text><!--MD5=[9cdd96db190de10f1cbe2e9685338b4e]
entity saasbo--><rect fill="#99FF99" filter="url(#fz5nvakizh7hu)" height="58.1358" style="stroke: #000000; stroke-width: 1.5;" width="74" x="942" y="494.5158"/><rect fill="#99FF99" height="5" style="stroke: #000000; stroke-width: 1.5;" width="10" x="937" y="499.5158"/><rect fill="#99FF99" height="5" style="stroke: #000000; stroke-width: 1.5;" width="10" x="937" y="542.6517"/><text fill="#000000" font-family="Monospace" font-size="14" lengthAdjust="spacingAndGlyphs" textLength="54" x="952" y="519.4818">SAASBO</text><text fill="#000000" font-family="Monospace" font-size="14" lengthAdjust="spacingAndGlyphs" textLength="12" x="952" y="538.5497">...</text><!--MD5=[47e052b533fd8425fd8ca2757eeea134]
entity Job1--><rect fill="#FF8C00" filter="url(#fz5nvakizh7hu)" height="39.0679" style="stroke: #000000; stroke-width: 1.5;" width="62" x="1360" y="236.0158"/><rect fill="#FF8C00" height="5" style="stroke: #000000; stroke-width: 1.5;" width="10" x="1355" y="241.0158"/><rect fill="#FF8C00" height="5" style="stroke: #000000; stroke-width: 1.5;" width="10" x="1355" y="265.0838"/><text fill="#000000" font-family="Monospace" font-size="14" lengthAdjust="spacingAndGlyphs" textLength="42" x="1370" y="260.9818">Job #1</text><!--MD5=[ad1ecd006b7d6e2fcd722d0410ebc487]
entity Job2--><rect fill="#FF8C00" filter="url(#fz5nvakizh7hu)" height="39.0679" style="stroke: #000000; stroke-width: 1.5;" width="62" x="1164" y="236.0158"/><rect fill="#FF8C00" height="5" style="stroke: #000000; stroke-width: 1.5;" width="10" x="1159" y="241.0158"/><rect fill="#FF8C00" height="5" style="stroke: #000000; stroke-width: 1.5;" width="10" x="1159" y="265.0838"/><text fill="#000000" font-family="Monospace" font-size="14" lengthAdjust="spacingAndGlyphs" textLength="42" x="1174" y="260.9818">Job #2</text><!--MD5=[d6d399e3b77205a86664f0dcaaa37b67]
entity JobN--><rect fill="#FF8C00" filter="url(#fz5nvakizh7hu)" height="39.0679" style="stroke: #000000; stroke-width: 1.5;" width="63" x="1261.5" y="236.0158"/><rect fill="#FF8C00" height="5" style="stroke: #000000; stroke-width: 1.5;" width="10" x="1256.5" y="241.0158"/><rect fill="#FF8C00" height="5" style="stroke: #000000; stroke-width: 1.5;" width="10" x="1256.5" y="265.0838"/><text fill="#000000" font-family="Monospace" font-size="14" lengthAdjust="spacingAndGlyphs" textLength="43" x="1271.5" y="260.9818">Job #n</text><!--MD5=[f94e1ae4e0ea171f49725a209a6b3fb4]
link botorch to modular--><path d="M907.47,433.7458 C877.09,449.7458 832.8,473.0858 797.25,491.8258 " fill="none" id="botorch-&gt;modular" style="stroke: #000000; stroke-width: 1.0;"/><polygon fill="#000000" points="792.52,494.3158,802.3475,493.6677,796.9455,491.9889,798.6244,486.5869,792.52,494.3158" style="stroke: #000000; stroke-width: 1.0;"/><!--MD5=[fa02ca17e1f691da79ce8002acca5787]
link botorch to gpei--><path d="M932.2,433.7458 C923.31,449.1558 910.49,471.3858 899.9,489.7358 " fill="none" id="botorch-&gt;gpei" style="stroke: #000000; stroke-width: 1.0;"/><polygon fill="#000000" points="897.26,494.3158,905.225,488.5229,899.7607,489.9861,898.2974,484.5218,897.26,494.3158" style="stroke: #000000; stroke-width: 1.0;"/><!--MD5=[38bf1cf78b0a0fe45143638fd8e8012a]
link botorch to saasbo--><path d="M949.27,433.7458 C954.39,449.0258 961.75,471.0058 967.87,489.2758 " fill="none" id="botorch-&gt;saasbo" style="stroke: #000000; stroke-width: 1.0;"/><polygon fill="#000000" points="969.56,494.3158,970.4998,484.5119,967.9746,489.5739,962.9126,487.0486,969.56,494.3158" style="stroke: #000000; stroke-width: 1.0;"/><!--MD5=[da8e97604b8f762f2f25f39b9ce180b2]
link OmniOptCore to ax_module--><path d="M980.43,115.1058 C918.34,119.3958 821.39,130.7858 743,161.0158 C695.75,179.2358 647.78,214.4558 620.87,236.0858 " fill="none" id="OmniOptCore-&gt;ax_module" style="stroke: #000000; stroke-width: 1.0;"/><polygon fill="#000000" points="616.73,239.4358,626.2431,236.8861,620.6176,236.2915,621.2121,230.666,616.73,239.4358" style="stroke: #000000; stroke-width: 1.0;"/><text fill="#000000" font-family="Monospace" font-size="11" lengthAdjust="spacingAndGlyphs" textLength="130" x="744" y="173.7748">invoke with search space</text><!--MD5=[1af0978839253e48dc811fb528ff5245]
link ax_module to OmniOptCore--><path d="M591.31,235.7958 C584.1,214.8458 576.88,181.2058 595,161.0158 C619.91,133.2658 856.22,119.9458 975.22,114.9558 " fill="none" id="ax_module-&gt;OmniOptCore" style="stroke: #000000; stroke-width: 1.0;"/><polygon fill="#000000" points="980.45,114.7358,971.287,111.1249,975.4546,114.9499,971.6295,119.1175,980.45,114.7358" style="stroke: #000000; stroke-width: 1.0;"/><text fill="#000000" font-family="Monospace" font-size="11" lengthAdjust="spacingAndGlyphs" textLength="105" x="596" y="173.7748">all generated points</text><!--MD5=[da8e97604b8f762f2f25f39b9ce180b2]
link OmniOptCore to ax_module--><path d="M999.6,131.0258 C966.81,144.6558 920.5,163.1558 879,177.0158 C784.61,208.5458 669.39,237.5158 621.52,249.1358 " fill="none" id="OmniOptCore-&gt;ax_module-1" style="stroke: #000000; stroke-width: 1.0;"/><polygon fill="#000000" points="616.56,250.3358,626.247,252.1143,621.4206,249.1636,624.3713,244.3372,616.56,250.3358" style="stroke: #000000; stroke-width: 1.0;"/><text fill="#000000" font-family="Monospace" font-size="11" lengthAdjust="spacingAndGlyphs" textLength="81" x="921" y="173.7748">forward results</text><!--MD5=[8fff2eeadda3fff93d08937226cdcd97]
link ax_module to sobol--><path d="M586.63,275.0758 C575.9,293.7158 564.35,322.2258 580,340.5158 C587.46,349.2358 620.24,344.5258 631,348.5158 C658.71,358.7958 687.01,376.9558 707.08,391.3858 " fill="none" id="ax_module-&gt;sobol" style="stroke: #000000; stroke-width: 1.0;"/><polygon fill="#000000" points="711.24,394.4058,706.3176,385.8753,707.1976,391.4633,701.6096,392.3432,711.24,394.4058" style="stroke: #000000; stroke-width: 1.0;"/><text fill="#000000" font-family="Monospace" font-size="11" lengthAdjust="spacingAndGlyphs" textLength="161" x="581" y="329.7748">generate initial points (default)</text><!--MD5=[8e9aa0cc2a47bc04528d2dac2760e7a8]
link sobol to ax_module--><path d="M744.15,394.3358 C753.6,372.0558 764.7,334.6558 747,309.5158 C718.44,268.9558 655.82,259.2758 621.91,257.0658 " fill="none" id="sobol-&gt;ax_module" style="stroke: #000000; stroke-width: 1.0;"/><polygon fill="#000000" points="616.72,256.7758,625.4771,261.2828,621.7119,257.0611,625.9335,253.2958,616.72,256.7758" style="stroke: #000000; stroke-width: 1.0;"/><text fill="#000000" font-family="Monospace" font-size="11" lengthAdjust="spacingAndGlyphs" textLength="65" x="758" y="329.7748">initial points</text><!--MD5=[cec394c570342177663ef42daa4e7d28]
link ax_module to botorch--><path d="M616.74,257.4158 C657.2,260.1258 758.5,270.5858 832,309.5158 C870.08,329.6858 904.81,366.3258 924.92,390.1558 " fill="none" id="ax_module-&gt;botorch" style="stroke: #000000; stroke-width: 1.0;"/><polygon fill="#000000" points="928.26,394.1558,925.5366,384.691,925.045,390.3265,919.4096,389.8349,928.26,394.1558" style="stroke: #000000; stroke-width: 1.0;"/><text fill="#000000" font-family="Monospace" font-size="11" lengthAdjust="spacingAndGlyphs" textLength="83" x="892" y="322.2748">generate points</text><text fill="#000000" font-family="Monospace" font-size="11" lengthAdjust="spacingAndGlyphs" textLength="113" x="877" y="337.2566">(using current points)</text><!--MD5=[d98d609daf0f481925676ee246f0cfd7]
link botorch to ax_module--><path d="M965.89,394.2758 C990.06,372.2758 1021.75,335.4858 999,309.5158 C973.93,280.9058 703.39,262.6858 622.02,257.8258 " fill="none" id="botorch-&gt;ax_module" style="stroke: #000000; stroke-width: 1.0;"/><polygon fill="#000000" points="616.94,257.5258,625.6835,262.0592,621.931,257.8262,626.164,254.0736,616.94,257.5258" style="stroke: #000000; stroke-width: 1.0;"/><text fill="#000000" font-family="Monospace" font-size="11" lengthAdjust="spacingAndGlyphs" textLength="58" x="1007" y="329.7748">new points</text><!--MD5=[fec4a35e48065a648c0a47644d8b95b4]
link ax_module to external_nodes--><path d="M581.23,266.3158 C561.38,276.6758 527.96,292.4258 497,299.0158 C473.79,303.9558 86.57,292.5358 70,309.5158 C40.83,339.4058 90.14,371.7658 132.28,392.1958 " fill="none" id="ax_module-&gt;external_nodes" style="stroke: #000000; stroke-width: 1.0;"/><polygon fill="#000000" points="136.86,394.3758,130.4641,386.8864,132.3486,392.2201,127.0149,394.1046,136.86,394.3758" style="stroke: #000000; stroke-width: 1.0;"/><text fill="#000000" font-family="Monospace" font-size="11" lengthAdjust="spacingAndGlyphs" textLength="83" x="86" y="322.2748">generate points</text><text fill="#000000" font-family="Monospace" font-size="11" lengthAdjust="spacingAndGlyphs" textLength="113" x="71" y="337.2566">(using current points)</text><!--MD5=[d5253afcf19d710b4b3ea91b9ffa8f3e]
link external_nodes to ax_module--><path d="M187.96,394.4858 C196.89,370.1258 216.29,328.2158 249,309.5158 C272.94,295.8258 470.08,304.9958 497,299.0158 C525.61,292.6658 556.39,278.7558 576.57,268.5758 " fill="none" id="external_nodes-&gt;ax_module" style="stroke: #000000; stroke-width: 1.0;"/><polygon fill="#000000" points="581.21,266.2058,571.3757,266.7412,576.7581,268.4819,575.0174,273.8643,581.21,266.2058" style="stroke: #000000; stroke-width: 1.0;"/><text fill="#000000" font-family="Monospace" font-size="11" lengthAdjust="spacingAndGlyphs" textLength="58" x="250" y="329.7748">new points</text><!--MD5=[d3b0d654d092eaf63e60d69bdd25e7e1]
link ax_module to rf_nodes--><path d="M581.19,266.0958 C561.29,276.2758 527.84,291.8658 497,299.0158 C478.35,303.3458 338.12,295.5658 325,309.5158 C303.19,332.6958 327.68,367.5658 348.93,390.3058 " fill="none" id="ax_module-&gt;rf_nodes" style="stroke: #000000; stroke-width: 1.0;"/><polygon fill="#000000" points="352.58,394.1258,349.2496,384.8572,349.1239,390.5126,343.4684,390.387,352.58,394.1258" style="stroke: #000000; stroke-width: 1.0;"/><text fill="#000000" font-family="Monospace" font-size="11" lengthAdjust="spacingAndGlyphs" textLength="83" x="341" y="322.2748">generate points</text><text fill="#000000" font-family="Monospace" font-size="11" lengthAdjust="spacingAndGlyphs" textLength="113" x="326" y="337.2566">(using current points)</text><!--MD5=[a6d1526b9d204e0c6295b6a95fedb011]
link rf_nodes to ax_module--><path d="M394.65,394.3758 C420.19,372.7758 464.32,336.7058 505,309.5158 C528.55,293.7758 557.07,278.1458 576.47,267.9758 " fill="none" id="rf_nodes-&gt;ax_module" style="stroke: #000000; stroke-width: 1.0;"/><polygon fill="#000000" points="581.2,265.5158,571.3709,266.1391,576.7686,267.8316,575.0761,273.2293,581.2,265.5158" style="stroke: #000000; stroke-width: 1.0;"/><text fill="#000000" font-family="Monospace" font-size="11" lengthAdjust="spacingAndGlyphs" textLength="58" x="506" y="329.7748">new points</text><!--MD5=[81c8fd8f3110b8c69dff5529db286869]
link OmniOptCore to Job1--><path d="M1105.77,117.0658 C1179.35,123.4158 1295.84,136.9558 1332,161.0158 C1357.11,177.7258 1373.62,209.1358 1382.63,230.9158 " fill="none" id="OmniOptCore-&gt;Job1" style="stroke: #000000; stroke-width: 1.0;"/><polygon fill="#000000" points="1384.55,235.6858,1384.9109,225.8436,1382.6881,231.0454,1377.4863,228.8226,1384.55,235.6858" style="stroke: #000000; stroke-width: 1.0;"/><text fill="#000000" font-family="Monospace" font-size="11" lengthAdjust="spacingAndGlyphs" textLength="56" x="1350" y="173.7748">submit job</text><!--MD5=[c18ddbec662f5264ce3bce332f70300b]
link Job1 to OmniOptCore--><path d="M1404.62,235.7258 C1417.82,215.0258 1433.36,181.9158 1415,161.0158 C1395.27,138.5458 1212.4,123.3558 1110.62,116.5658 " fill="none" id="Job1-&gt;OmniOptCore" style="stroke: #000000; stroke-width: 1.0;"/><polygon fill="#000000" points="1105.53,116.2258,1114.2344,120.8339,1110.5182,116.5689,1114.7832,112.8527,1105.53,116.2258" style="stroke: #000000; stroke-width: 1.0;"/><text fill="#000000" font-family="Monospace" font-size="11" lengthAdjust="spacingAndGlyphs" textLength="35" x="1423" y="173.7748">results</text><!--MD5=[8f4913b2f0c9031033e922545f626df0]
link OmniOptCore to Job2--><path d="M1063.78,131.1658 C1078.15,144.0558 1097.72,161.5958 1115,177.0158 C1118.99,180.5758 1120.09,181.3658 1124,185.0158 C1140.6,200.5058 1158.9,218.4358 1172.76,232.2058 " fill="none" id="OmniOptCore-&gt;Job2" style="stroke: #000000; stroke-width: 1.0;"/><polygon fill="#000000" points="1176.55,235.9758,1172.9959,226.7906,1173.0073,232.4475,1167.3505,232.4589,1176.55,235.9758" style="stroke: #000000; stroke-width: 1.0;"/><text fill="#000000" font-family="Monospace" font-size="11" lengthAdjust="spacingAndGlyphs" textLength="56" x="1116" y="173.7748">submit job</text><!--MD5=[e1f374dc4ac342c09d47f00321df32d4]
link Job2 to OmniOptCore--><path d="M1181.85,235.9458 C1169.09,219.5358 1148.16,196.4658 1124,185.0158 C1109.45,178.1158 1063.54,188.2358 1052,177.0158 C1041.41,166.7158 1039.28,150.1258 1039.74,136.3558 " fill="none" id="Job2-&gt;OmniOptCore" style="stroke: #000000; stroke-width: 1.0;"/><polygon fill="#000000" points="1040.05,131.0358,1035.5431,139.793,1039.7648,136.0277,1043.53,140.2494,1040.05,131.0358" style="stroke: #000000; stroke-width: 1.0;"/><text fill="#000000" font-family="Monospace" font-size="11" lengthAdjust="spacingAndGlyphs" textLength="35" x="1053" y="173.7748">results</text><!--MD5=[531f84d1dbeccf3f27e2ed863d36d27c]
link OmniOptCore to JobN--><path d="M1105.74,120.5158 C1159.55,128.5058 1231.81,142.2958 1254,161.0158 C1274.91,178.6558 1284.81,209.3758 1289.36,230.7658 " fill="none" id="OmniOptCore-&gt;JobN" style="stroke: #000000; stroke-width: 1.0;"/><polygon fill="#000000" points="1290.35,235.7158,1292.4965,226.1037,1289.3639,230.814,1284.6536,227.6815,1290.35,235.7158" style="stroke: #000000; stroke-width: 1.0;"/><text fill="#000000" font-family="Monospace" font-size="11" lengthAdjust="spacingAndGlyphs" textLength="56" x="1267" y="173.7748">submit job</text><!--MD5=[4d52ecd93ead93b7a2fe0b14a0c77798]
link JobN to OmniOptCore--><path d="M1284.7,235.9258 C1276.6,219.9658 1262.76,197.5958 1244,185.0158 C1230.75,176.1258 1224.02,182.3958 1209,177.0158 C1194.03,171.6458 1191.61,167.2858 1177,161.0158 C1153.33,150.8558 1126.76,140.9458 1103.55,132.7458 " fill="none" id="JobN-&gt;OmniOptCore" style="stroke: #000000; stroke-width: 1.0;"/><polygon fill="#000000" points="1098.65,131.0258,1105.8142,137.7841,1103.3671,132.684,1108.4672,130.2368,1098.65,131.0258" style="stroke: #000000; stroke-width: 1.0;"/><text fill="#000000" font-family="Monospace" font-size="11" lengthAdjust="spacingAndGlyphs" textLength="35" x="1210" y="173.7748">results</text><!--MD5=[cd9410c4e60777fc3d6f7560487be14a]
link OmniOptCore to db_runs--><path d="M980.45,113.6958 C840.12,116.9158 509.51,127.9658 472,161.0158 C453.98,176.9058 449.94,204.7158 449.84,225.8858 " fill="none" id="OmniOptCore-&gt;db_runs" style="stroke: #000000; stroke-width: 1.0;"/><polygon fill="#000000" points="449.89,231.1158,453.8127,222.0819,449.8471,226.116,445.813,222.1505,449.89,231.1158" style="stroke: #000000; stroke-width: 1.0;"/><text fill="#000000" font-family="Monospace" font-size="11" lengthAdjust="spacingAndGlyphs" textLength="105" x="473" y="173.7748">log runs and results</text><!--MD5=[8fdc6b45975d8b5d212030b30f85da1e]
@startuml

  skinparam backgroundColor #ffffff
  skinparam defaultFontColor #000000
  skinparam componentFontColor #000000
  skinparam nodeFontColor #000000
  skinparam databaseFontColor #000000
  skinparam arrowColor #000000
  skinparam ArrowFontColor #000000

  skinparam componentBackgroundColor #e0e0e0
  skinparam nodeBackgroundColor #FFB84D
  skinparam databaseBackgroundColor #003166
  skinparam packageBackgroundColor #e0e0e0
  skinparam cloudBackgroundColor #e0e0e0

  skinparam componentBorderColor #000000
  skinparam nodeBorderColor #000000
  skinparam databaseBorderColor #000000
  skinparam packageBorderColor #000000
  skinparam cloudBorderColor #000000
  skinparam rectangleBorderColor #000000

skinparam componentStyle rectangle
skinparam defaultFontName Monospace
skinparam ArrowFontSize 11

title Interaction between OmniOpt, sbatch, ax, BoTorch Module, and ExternalGenerationNodes

node "HPC Master Node" as HPCMaster {
  component "OmniOpt2 Core" as OmniOptCore
  component "ax" as ax_module #LightBlue

  package "BoTorch Module" {
    component "Sobol Sequence Generator" as sobol #LightGreen
    component "BoTorch Optimizer" as botorch

    component "BOTORCH_MODULAR\n..." as modular #99FF99
    component "GPEI\n..." as gpei #99FF99
    component "SAASBO\n..." as saasbo #99FF99

    botorch -down-> modular
    botorch -down-> gpei
    botorch -down-> saasbo
  }

  component "ExternalGenerationNodes" as external_nodes
  component "RandomForest" as rf_nodes #LightBlue

  database "runs/" as db_runs
}

node "Compute Nodes" as ComputeNodes {
  component "Job #1" as Job1 #FF8C00
  component "Job #2" as Job2 #FF8C00
  component "Job #n" as JobN #FF8C00
}

OmniOptCore - -> ax_module : invoke with search space

ax_module - -> sobol : generate initial points (default)
sobol - -> ax_module : initial points

ax_module - -> botorch : generate points\n(using current points)
ax_module - -> external_nodes : generate points\n(using current points)
ax_module - -> rf_nodes : generate points\n(using current points)

botorch - -> ax_module : new points
external_nodes - -> ax_module : new points
rf_nodes - -> ax_module : new points

ax_module - -> OmniOptCore : all generated points

OmniOptCore - -> Job1 : submit job
OmniOptCore - -> Job2 : submit job
OmniOptCore - -> JobN : submit job

Job1 - -> OmniOptCore : results
Job2 - -> OmniOptCore : results
JobN - -> OmniOptCore : results

OmniOptCore - -> ax_module : forward results

OmniOptCore - -> db_runs : log runs and results

@enduml

PlantUML version 1.2020.02(Sun Mar 01 11:22:07 CET 2020)
(GPL source distribution)
Java Runtime: OpenJDK Runtime Environment
JVM: OpenJDK 64-Bit Server VM
Java Version: 11.0.27+6-post-Debian-1deb11u1
Operating System: Linux
Default Encoding: UTF-8
Language: de
Country: DE
--></g></svg>