<?xml version="1.0" encoding="UTF-8" standalone="no"?><svg xmlns="http://www.w3.org/2000/svg" xmlns:xlink="http://www.w3.org/1999/xlink" contentScriptType="application/ecmascript" contentStyleType="text/css" height="482px" preserveAspectRatio="none" style="width:1249px;height:482px;" version="1.1" viewBox="0 0 1249 482" width="1249px" zoomAndPan="magnify"><defs><filter height="300%" id="f1dx3fk581m8ae" width="300%" x="-1" y="-1"><feGaussianBlur result="blurOut" stdDeviation="2.0"/><feColorMatrix in="blurOut" result="blurOut2" type="matrix" values="0 0 0 0 0 0 0 0 0 0 0 0 0 0 0 0 0 0 .4 0"/><feOffset dx="4.0" dy="4.0" in="blurOut2" result="blurOut3"/><feBlend in="SourceGraphic" in2="blurOut3" mode="normal"/></filter></defs><g><text fill="#000000" font-family="Monospace" font-size="18" lengthAdjust="spacingAndGlyphs" textLength="770" x="243" y="19.2419">Interaction between OmniOpt, sbatch, ax, BoTorch Module, and ExternalGenerationNodes</text><!--MD5=[5687f5b0a9f1da24cf398575a94f7314]
cluster HPCMaster--><polygon fill="#FFB84D" filter="url(#f1dx3fk581m8ae)" points="22,58.5158,32,48.5158,869,48.5158,869,460.5158,859,470.5158,22,470.5158,22,58.5158" style="stroke: #000000; stroke-width: 1.5;"/><line style="stroke: #000000; stroke-width: 1.5;" x1="859" x2="868" y1="58.5158" y2="49.5158"/><line style="stroke: #000000; stroke-width: 1.5;" x1="22" x2="859" y1="58.5158" y2="58.5158"/><line style="stroke: #000000; stroke-width: 1.5;" x1="859" x2="859" y1="58.5158" y2="470.5158"/><text fill="#000000" font-family="Monospace" font-size="14" font-weight="bold" lengthAdjust="spacingAndGlyphs" textLength="122" x="380.5" y="76.4818">HPC Master Node</text><!--MD5=[2581f1adf71c4d9c4ca8845dd85da35f]
cluster BoTorch Module--><polygon fill="#E0E0E0" filter="url(#f1dx3fk581m8ae)" points="344,353.5158,463,353.5158,470,378.5838,757,378.5838,757,446.5158,344,446.5158,344,353.5158" style="stroke: #000000; stroke-width: 1.5;"/><line style="stroke: #000000; stroke-width: 1.5;" x1="344" x2="470" y1="378.5838" y2="378.5838"/><text fill="#000000" font-family="Monospace" font-size="14" font-weight="bold" lengthAdjust="spacingAndGlyphs" textLength="113" x="348" y="370.4818">BoTorch Module</text><!--MD5=[e2889d74894dfd2cde98a945e775442d]
cluster ComputeNodes--><polygon fill="#FFB84D" filter="url(#f1dx3fk581m8ae)" points="893,202.5158,903,192.5158,1183,192.5158,1183,280.5158,1173,290.5158,893,290.5158,893,202.5158" style="stroke: #000000; stroke-width: 1.5;"/><line style="stroke: #000000; stroke-width: 1.5;" x1="1173" x2="1182" y1="202.5158" y2="193.5158"/><line style="stroke: #000000; stroke-width: 1.5;" x1="893" x2="1173" y1="202.5158" y2="202.5158"/><line style="stroke: #000000; stroke-width: 1.5;" x1="1173" x2="1173" y1="202.5158" y2="290.5158"/><text fill="#000000" font-family="Monospace" font-size="14" font-weight="bold" lengthAdjust="spacingAndGlyphs" textLength="112" x="978" y="220.4818">Compute Nodes</text><!--MD5=[2f2b0aedd9c38e5145f377076e8d496d]
entity OmniOptCore--><rect fill="#E0E0E0" filter="url(#f1dx3fk581m8ae)" height="39.0679" style="stroke: #000000; stroke-width: 1.5;" width="125" x="727.5" y="91.5158"/><rect fill="#E0E0E0" height="5" style="stroke: #000000; stroke-width: 1.5;" width="10" x="722.5" y="96.5158"/><rect fill="#E0E0E0" height="5" style="stroke: #000000; stroke-width: 1.5;" width="10" x="722.5" y="120.5838"/><text fill="#000000" font-family="Monospace" font-size="14" lengthAdjust="spacingAndGlyphs" textLength="105" x="737.5" y="116.4818">OmniOpt2 Core</text><!--MD5=[3a66b5fcc5a5db46ac919e228b9ab7c5]
entity ax_module--><rect fill="#ADD8E6" filter="url(#f1dx3fk581m8ae)" height="39.0679" style="stroke: #000000; stroke-width: 1.5;" width="35" x="497.5" y="235.5158"/><rect fill="#ADD8E6" height="5" style="stroke: #000000; stroke-width: 1.5;" width="10" x="492.5" y="240.5158"/><rect fill="#ADD8E6" height="5" style="stroke: #000000; stroke-width: 1.5;" width="10" x="492.5" y="264.5838"/><text fill="#000000" font-family="Monospace" font-size="14" lengthAdjust="spacingAndGlyphs" textLength="15" x="507.5" y="260.4818">ax</text><!--MD5=[ff96caba99bf59d2b43e041a81d886a4]
entity external_nodes--><rect fill="#E0E0E0" filter="url(#f1dx3fk581m8ae)" height="39.0679" style="stroke: #000000; stroke-width: 1.5;" width="193" x="100.5" y="391.5158"/><rect fill="#E0E0E0" height="5" style="stroke: #000000; stroke-width: 1.5;" width="10" x="95.5" y="396.5158"/><rect fill="#E0E0E0" height="5" style="stroke: #000000; stroke-width: 1.5;" width="10" x="95.5" y="420.5838"/><text fill="#000000" font-family="Monospace" font-size="14" lengthAdjust="spacingAndGlyphs" textLength="173" x="110.5" y="416.4818">ExternalGenerationNodes</text><!--MD5=[fd9ebf31d21df91e110ad002d6f4b355]
entity sobol--><rect fill="#90EE90" filter="url(#f1dx3fk581m8ae)" height="39.0679" style="stroke: #000000; stroke-width: 1.5;" width="199" x="360.5" y="391.5158"/><rect fill="#90EE90" height="5" style="stroke: #000000; stroke-width: 1.5;" width="10" x="355.5" y="396.5158"/><rect fill="#90EE90" height="5" style="stroke: #000000; stroke-width: 1.5;" width="10" x="355.5" y="420.5838"/><text fill="#000000" font-family="Monospace" font-size="14" lengthAdjust="spacingAndGlyphs" textLength="179" x="370.5" y="416.4818">Sobol Sequence Generator</text><!--MD5=[768daca0a1630a961345edac01c51118]
entity botorch--><rect fill="#E0E0E0" filter="url(#f1dx3fk581m8ae)" height="39.0679" style="stroke: #000000; stroke-width: 1.5;" width="146" x="595" y="391.5158"/><rect fill="#E0E0E0" height="5" style="stroke: #000000; stroke-width: 1.5;" width="10" x="590" y="396.5158"/><rect fill="#E0E0E0" height="5" style="stroke: #000000; stroke-width: 1.5;" width="10" x="590" y="420.5838"/><text fill="#000000" font-family="Monospace" font-size="14" lengthAdjust="spacingAndGlyphs" textLength="126" x="605" y="416.4818">BoTorch Optimizer</text><!--MD5=[47e052b533fd8425fd8ca2757eeea134]
entity Job1--><rect fill="#FF8C00" filter="url(#f1dx3fk581m8ae)" height="39.0679" style="stroke: #000000; stroke-width: 1.5;" width="62" x="909" y="235.5158"/><rect fill="#FF8C00" height="5" style="stroke: #000000; stroke-width: 1.5;" width="10" x="904" y="240.5158"/><rect fill="#FF8C00" height="5" style="stroke: #000000; stroke-width: 1.5;" width="10" x="904" y="264.5838"/><text fill="#000000" font-family="Monospace" font-size="14" lengthAdjust="spacingAndGlyphs" textLength="42" x="919" y="260.4818">Job #1</text><!--MD5=[ad1ecd006b7d6e2fcd722d0410ebc487]
entity Job2--><rect fill="#FF8C00" filter="url(#f1dx3fk581m8ae)" height="39.0679" style="stroke: #000000; stroke-width: 1.5;" width="62" x="1006" y="235.5158"/><rect fill="#FF8C00" height="5" style="stroke: #000000; stroke-width: 1.5;" width="10" x="1001" y="240.5158"/><rect fill="#FF8C00" height="5" style="stroke: #000000; stroke-width: 1.5;" width="10" x="1001" y="264.5838"/><text fill="#000000" font-family="Monospace" font-size="14" lengthAdjust="spacingAndGlyphs" textLength="42" x="1016" y="260.4818">Job #2</text><!--MD5=[d6d399e3b77205a86664f0dcaaa37b67]
entity JobN--><rect fill="#FF8C00" filter="url(#f1dx3fk581m8ae)" height="39.0679" style="stroke: #000000; stroke-width: 1.5;" width="63" x="1103.5" y="235.5158"/><rect fill="#FF8C00" height="5" style="stroke: #000000; stroke-width: 1.5;" width="10" x="1098.5" y="240.5158"/><rect fill="#FF8C00" height="5" style="stroke: #000000; stroke-width: 1.5;" width="10" x="1098.5" y="264.5838"/><text fill="#000000" font-family="Monospace" font-size="14" lengthAdjust="spacingAndGlyphs" textLength="43" x="1113.5" y="260.4818">Job #n</text><!--MD5=[da8e97604b8f762f2f25f39b9ce180b2]
link OmniOptCore to ax_module--><path d="M727.17,114.2158 C609.5,118.9958 365.4,132.2358 340,160.5158 C292.62,213.2758 434.6,241.6458 492.04,250.7358 " fill="none" id="OmniOptCore-&gt;ax_module" style="stroke: #000000; stroke-width: 1.0;"/><polygon fill="#000000" points="497.32,251.5558,489.0445,246.2159,492.3798,250.7848,487.8108,254.1202,497.32,251.5558" style="stroke: #000000; stroke-width: 1.0;"/><text fill="#000000" font-family="Monospace" font-size="11" lengthAdjust="spacingAndGlyphs" textLength="130" x="341" y="173.2748">invoke with search space</text><!--MD5=[1af0978839253e48dc811fb528ff5245]
link ax_module to OmniOptCore--><path d="M532.68,242.5458 C561.58,224.0458 621.02,187.0158 674,160.5158 C694.15,150.4358 716.91,140.5958 736.9,132.4458 " fill="none" id="ax_module-&gt;OmniOptCore" style="stroke: #000000; stroke-width: 1.0;"/><polygon fill="#000000" points="741.65,130.5258,731.8063,130.2066,737.0175,132.4073,734.8167,137.6185,741.65,130.5258" style="stroke: #000000; stroke-width: 1.0;"/><text fill="#000000" font-family="Monospace" font-size="11" lengthAdjust="spacingAndGlyphs" textLength="105" x="675" y="173.2748">all generated points</text><!--MD5=[da8e97604b8f762f2f25f39b9ce180b2]
link OmniOptCore to ax_module--><path d="M727.43,118.5958 C667.6,125.9958 582.81,139.7758 557,160.5158 C535.3,177.9558 524.43,209.0058 519.27,230.5058 " fill="none" id="OmniOptCore-&gt;ax_module-1" style="stroke: #000000; stroke-width: 1.0;"/><polygon fill="#000000" points="518.13,235.4858,524.0361,227.6044,519.2449,230.6117,516.2375,225.8205,518.13,235.4858" style="stroke: #000000; stroke-width: 1.0;"/><text fill="#000000" font-family="Monospace" font-size="11" lengthAdjust="spacingAndGlyphs" textLength="81" x="558" y="173.2748">forward results</text><!--MD5=[8fff2eeadda3fff93d08937226cdcd97]
link ax_module to sobol--><path d="M497.29,258.0058 C454.27,263.2358 346.22,278.9158 325,306.5158 C316.6,317.4358 316.56,326.6258 325,337.5158 C333.71,348.7658 342.92,339.9258 356,345.5158 C382.63,356.8958 410.39,374.4458 430.52,388.3658 " fill="none" id="ax_module-&gt;sobol" style="stroke: #000000; stroke-width: 1.0;"/><polygon fill="#000000" points="434.7,391.2758,429.5893,382.8568,430.5932,388.4239,425.0261,389.4278,434.7,391.2758" style="stroke: #000000; stroke-width: 1.0;"/><text fill="#000000" font-family="Monospace" font-size="11" lengthAdjust="spacingAndGlyphs" textLength="161" x="326" y="326.7748">generate initial points (default)</text><!--MD5=[8e9aa0cc2a47bc04528d2dac2760e7a8]
link sobol to ax_module--><path d="M469.16,391.2358 C476.01,376.7658 485.29,356.1558 492,337.5158 C498.9,318.3358 505.07,296.0258 509.28,279.5958 " fill="none" id="sobol-&gt;ax_module" style="stroke: #000000; stroke-width: 1.0;"/><polygon fill="#000000" points="510.52,274.6958,504.4297,282.4359,509.2905,279.5423,512.1841,284.4031,510.52,274.6958" style="stroke: #000000; stroke-width: 1.0;"/><text fill="#000000" font-family="Monospace" font-size="11" lengthAdjust="spacingAndGlyphs" textLength="65" x="503" y="326.7748">initial points</text><!--MD5=[cec394c570342177663ef42daa4e7d28]
link ax_module to botorch--><path d="M532.76,269.2158 C545.52,278.9958 562.9,292.9358 577,306.5158 C604.09,332.6058 632.23,365.6858 649.91,387.3358 " fill="none" id="ax_module-&gt;botorch" style="stroke: #000000; stroke-width: 1.0;"/><polygon fill="#000000" points="653.09,391.2358,650.5191,381.7284,649.937,387.3553,644.3102,386.7732,653.09,391.2358" style="stroke: #000000; stroke-width: 1.0;"/><text fill="#000000" font-family="Monospace" font-size="11" lengthAdjust="spacingAndGlyphs" textLength="83" x="622" y="319.2748">generate points</text><text fill="#000000" font-family="Monospace" font-size="11" lengthAdjust="spacingAndGlyphs" textLength="113" x="607" y="334.2566">(using current points)</text><!--MD5=[d98d609daf0f481925676ee246f0cfd7]
link botorch to ax_module--><path d="M692.38,391.4758 C717.68,369.9758 750.75,333.9958 729,306.5158 C705.34,276.6258 588.35,262.6358 538.05,257.9258 " fill="none" id="botorch-&gt;ax_module" style="stroke: #000000; stroke-width: 1.0;"/><polygon fill="#000000" points="532.82,257.4558,541.4172,262.2609,537.7991,257.9124,542.1476,254.2943,532.82,257.4558" style="stroke: #000000; stroke-width: 1.0;"/><text fill="#000000" font-family="Monospace" font-size="11" lengthAdjust="spacingAndGlyphs" textLength="58" x="738" y="326.7748">new points</text><!--MD5=[fec4a35e48065a648c0a47644d8b95b4]
link ax_module to external_nodes--><path d="M497.24,256.6658 C417.95,259.7358 99,274.0358 70,306.5158 C40.79,339.2358 92.85,370.0858 138.87,389.4558 " fill="none" id="ax_module-&gt;external_nodes" style="stroke: #000000; stroke-width: 1.0;"/><polygon fill="#000000" points="143.59,391.4058,136.802,384.2698,138.9696,389.4949,133.7445,391.6625,143.59,391.4058" style="stroke: #000000; stroke-width: 1.0;"/><text fill="#000000" font-family="Monospace" font-size="11" lengthAdjust="spacingAndGlyphs" textLength="83" x="86" y="319.2748">generate points</text><text fill="#000000" font-family="Monospace" font-size="11" lengthAdjust="spacingAndGlyphs" textLength="113" x="71" y="334.2566">(using current points)</text><!--MD5=[d5253afcf19d710b4b3ea91b9ffa8f3e]
link external_nodes to ax_module--><path d="M201.36,391.4358 C207.93,367.8158 222.7,327.5558 251,306.5158 C289.36,277.9858 435.43,262.7758 492.22,257.8358 " fill="none" id="external_nodes-&gt;ax_module" style="stroke: #000000; stroke-width: 1.0;"/><polygon fill="#000000" points="497.43,257.3958,488.1205,254.1813,492.4484,257.8241,488.8056,262.1519,497.43,257.3958" style="stroke: #000000; stroke-width: 1.0;"/><text fill="#000000" font-family="Monospace" font-size="11" lengthAdjust="spacingAndGlyphs" textLength="58" x="252" y="326.7748">new points</text><!--MD5=[81c8fd8f3110b8c69dff5529db286869]
link OmniOptCore to Job1--><path d="M809.26,130.7758 C822.9,143.8658 841.76,161.6058 859,176.5158 C863.3,180.2358 864.74,180.7458 869,184.5158 C886.12,199.6758 904.54,217.7658 918.33,231.6858 " fill="none" id="OmniOptCore-&gt;Job1" style="stroke: #000000; stroke-width: 1.0;"/><polygon fill="#000000" points="922.09,235.4958,918.6475,226.2682,918.5904,231.9248,912.9338,231.8676,922.09,235.4958" style="stroke: #000000; stroke-width: 1.0;"/><text fill="#000000" font-family="Monospace" font-size="11" lengthAdjust="spacingAndGlyphs" textLength="56" x="860" y="173.2748">submit job</text><!--MD5=[c18ddbec662f5264ce3bce332f70300b]
link Job1 to OmniOptCore--><path d="M926.85,235.4458 C914.09,219.0358 893.16,195.9658 869,184.5158 C854.45,177.6158 808.37,187.9158 797,176.5158 C786.68,166.1658 785.02,149.7358 785.9,136.0458 " fill="none" id="Job1-&gt;OmniOptCore" style="stroke: #000000; stroke-width: 1.0;"/><polygon fill="#000000" points="786.37,130.7658,781.5894,139.3766,785.9276,135.7462,789.558,140.0845,786.37,130.7658" style="stroke: #000000; stroke-width: 1.0;"/><text fill="#000000" font-family="Monospace" font-size="11" lengthAdjust="spacingAndGlyphs" textLength="35" x="798" y="173.2748">results</text><!--MD5=[8f4913b2f0c9031033e922545f626df0]
link OmniOptCore to Job2--><path d="M852.63,120.2358 C905.59,128.3158 976.24,142.1058 998,160.5158 C1018.88,178.1858 1028.78,208.8958 1033.34,230.2858 " fill="none" id="OmniOptCore-&gt;Job2" style="stroke: #000000; stroke-width: 1.0;"/><polygon fill="#000000" points="1034.34,235.2358,1036.4865,225.6237,1033.3539,230.334,1028.6436,227.2015,1034.34,235.2358" style="stroke: #000000; stroke-width: 1.0;"/><text fill="#000000" font-family="Monospace" font-size="11" lengthAdjust="spacingAndGlyphs" textLength="56" x="1011" y="173.2748">submit job</text><!--MD5=[e1f374dc4ac342c09d47f00321df32d4]
link Job2 to OmniOptCore--><path d="M1028.98,235.4058 C1021.12,219.4258 1007.61,197.0458 989,184.5158 C975.4,175.3658 968.45,181.9958 953,176.5158 C938.02,171.1958 935.59,166.8458 921,160.5158 C897.73,150.4258 871.62,140.4858 848.86,132.2658 " fill="none" id="Job2-&gt;OmniOptCore" style="stroke: #000000; stroke-width: 1.0;"/><polygon fill="#000000" points="844.06,130.5358,851.1695,137.3517,848.7635,132.232,853.8832,129.826,844.06,130.5358" style="stroke: #000000; stroke-width: 1.0;"/><text fill="#000000" font-family="Monospace" font-size="11" lengthAdjust="spacingAndGlyphs" textLength="35" x="954" y="173.2748">results</text><!--MD5=[531f84d1dbeccf3f27e2ed863d36d27c]
link OmniOptCore to JobN--><path d="M852.72,115.4858 C955.9,121.8458 1152.2,136.9158 1173,160.5158 C1190.92,180.8458 1173.31,210.7458 1156.56,231.2258 " fill="none" id="OmniOptCore-&gt;JobN" style="stroke: #000000; stroke-width: 1.0;"/><polygon fill="#000000" points="1153.24,235.1958,1162.0904,230.8749,1156.455,231.3665,1155.9634,225.731,1153.24,235.1958" style="stroke: #000000; stroke-width: 1.0;"/><text fill="#000000" font-family="Monospace" font-size="11" lengthAdjust="spacingAndGlyphs" textLength="56" x="1181" y="173.2748">submit job</text><!--MD5=[4d52ecd93ead93b7a2fe0b14a0c77798]
link JobN to OmniOptCore--><path d="M1128.54,235.1958 C1120.06,213.4958 1102.99,178.5058 1076,160.5158 C1041.16,137.2958 930.95,123.7758 857.95,117.1558 " fill="none" id="JobN-&gt;OmniOptCore" style="stroke: #000000; stroke-width: 1.0;"/><polygon fill="#000000" points="852.76,116.6958,861.3708,121.4765,857.7404,117.1382,862.0786,113.5078,852.76,116.6958" style="stroke: #000000; stroke-width: 1.0;"/><text fill="#000000" font-family="Monospace" font-size="11" lengthAdjust="spacingAndGlyphs" textLength="35" x="1094" y="173.2748">results</text><!--MD5=[02184de03ae65d9a1c06e664469142c2]
@startuml

  skinparam backgroundColor #ffffff
  skinparam defaultFontColor #000000
  skinparam componentFontColor #000000
  skinparam nodeFontColor #000000
  skinparam databaseFontColor #000000
  skinparam arrowColor #000000
  skinparam ArrowFontColor #000000

  skinparam componentBackgroundColor #e0e0e0
  skinparam nodeBackgroundColor #FFB84D
  skinparam databaseBackgroundColor #FFEB3B
  skinparam packageBackgroundColor #e0e0e0
  skinparam cloudBackgroundColor #e0e0e0

  skinparam componentBorderColor #000000
  skinparam nodeBorderColor #000000
  skinparam databaseBorderColor #000000
  skinparam packageBorderColor #000000
  skinparam cloudBorderColor #000000
  skinparam rectangleBorderColor #000000

skinparam componentStyle rectangle
skinparam defaultFontName Monospace
skinparam ArrowFontSize 11

title Interaction between OmniOpt, sbatch, ax, BoTorch Module, and ExternalGenerationNodes

node "HPC Master Node" as HPCMaster {
  component "OmniOpt2 Core" as OmniOptCore
  component "ax" as ax_module #LightBlue

  package "BoTorch Module" {
    component "Sobol Sequence Generator" as sobol #LightGreen
    component "BoTorch Optimizer" as botorch
  }

  component "ExternalGenerationNodes" as external_nodes
}

node "Compute Nodes" as ComputeNodes {
  component "Job #1" as Job1 #FF8C00
  component "Job #2" as Job2 #FF8C00
  component "Job #n" as JobN #FF8C00
}

OmniOptCore - -> ax_module : invoke with search space

ax_module - -> sobol : generate initial points (default)

sobol - -> ax_module : initial points

ax_module - -> botorch : generate points\n(using current points)

ax_module - -> external_nodes : generate points\n(using current points)

botorch - -> ax_module : new points
external_nodes - -> ax_module : new points

ax_module - -> OmniOptCore : all generated points

OmniOptCore - -> Job1 : submit job
OmniOptCore - -> Job2 : submit job
OmniOptCore - -> JobN : submit job

Job1 - -> OmniOptCore : results
Job2 - -> OmniOptCore : results
JobN - -> OmniOptCore : results

OmniOptCore - -> ax_module : forward results

@enduml

PlantUML version 1.2020.02(Sun Mar 01 11:22:07 CET 2020)
(GPL source distribution)
Java Runtime: OpenJDK Runtime Environment
JVM: OpenJDK 64-Bit Server VM
Java Version: 11.0.27+6-post-Debian-1deb11u1
Operating System: Linux
Default Encoding: UTF-8
Language: de
Country: DE
--></g></svg>