<?xml version="1.0" encoding="UTF-8" standalone="no"?><svg xmlns="http://www.w3.org/2000/svg" xmlns:xlink="http://www.w3.org/1999/xlink" contentScriptType="application/ecmascript" contentStyleType="text/css" height="1252px" preserveAspectRatio="none" style="width:1395px;height:1252px;" version="1.1" viewBox="0 0 1395 1252" width="1395px" zoomAndPan="magnify"><defs><filter height="300%" id="fzzy5y4cu21zo" width="300%" x="-1" y="-1"><feGaussianBlur result="blurOut" stdDeviation="2.0"/><feColorMatrix in="blurOut" result="blurOut2" type="matrix" values="0 0 0 0 0 0 0 0 0 0 0 0 0 0 0 0 0 0 .4 0"/><feOffset dx="4.0" dy="4.0" in="blurOut2" result="blurOut3"/><feBlend in="SourceGraphic" in2="blurOut3" mode="normal"/></filter></defs><g><text fill="#000000" font-family="Monospace" font-size="18" lengthAdjust="spacingAndGlyphs" textLength="199" x="604" y="19.2419">OmniOpt2 Architecture</text><!--MD5=[3fc59b17a2df0e8aa43d25b99d46893c]
cluster User Interface--><polygon fill="#FFFFFF" filter="url(#fzzy5y4cu21zo)" points="232,48.5158,336,48.5158,343,73.5838,396,73.5838,396,235.5158,232,235.5158,232,48.5158" style="stroke: #000000; stroke-width: 1.5;"/><line style="stroke: #000000; stroke-width: 1.5;" x1="232" x2="343" y1="73.5838" y2="73.5838"/><text fill="#000000" font-family="Monospace" font-size="14" font-weight="bold" lengthAdjust="spacingAndGlyphs" textLength="98" x="236" y="65.4818">User Interface</text><!--MD5=[d0083cf0b2d9f17e335f85bf9624e57e]
cluster User--><polygon fill="#FFFFFF" filter="url(#fzzy5y4cu21zo)" points="256,104.5158,266,94.5158,372,94.5158,372,201.5158,362,211.5158,256,211.5158,256,104.5158" style="stroke: #000000; stroke-width: 1.5;"/><line style="stroke: #000000; stroke-width: 1.5;" x1="362" x2="371" y1="104.5158" y2="95.5158"/><line style="stroke: #000000; stroke-width: 1.5;" x1="256" x2="362" y1="104.5158" y2="104.5158"/><line style="stroke: #000000; stroke-width: 1.5;" x1="362" x2="362" y1="104.5158" y2="211.5158"/><text fill="#000000" font-family="Monospace" font-size="14" font-weight="bold" lengthAdjust="spacingAndGlyphs" textLength="32" x="294" y="122.4818">User</text><!--MD5=[6f2137f269eb2ba82dff926d1268b8a6]
cluster OmniOpt2 Workflow--><polygon fill="#FFFFFF" filter="url(#fzzy5y4cu21zo)" points="22,283.5158,172,283.5158,179,308.5838,1373,308.5838,1373,1240.5158,22,1240.5158,22,283.5158" style="stroke: #000000; stroke-width: 1.5;"/><line style="stroke: #000000; stroke-width: 1.5;" x1="22" x2="179" y1="308.5838" y2="308.5838"/><text fill="#000000" font-family="Monospace" font-size="14" font-weight="bold" lengthAdjust="spacingAndGlyphs" textLength="144" x="26" y="300.4818">OmniOpt2 Workflow</text><!--MD5=[068ab849e982e95724e818cf5ecc07ce]
cluster Local Mode--><polygon fill="#FFFFFF" filter="url(#fzzy5y4cu21zo)" points="46,441.5158,131,441.5158,138,466.5838,261,466.5838,261,1216.5158,46,1216.5158,46,441.5158" style="stroke: #000000; stroke-width: 1.5;"/><line style="stroke: #000000; stroke-width: 1.5;" x1="46" x2="138" y1="466.5838" y2="466.5838"/><text fill="#000000" font-family="Monospace" font-size="14" font-weight="bold" lengthAdjust="spacingAndGlyphs" textLength="79" x="50" y="458.4818">Local Mode</text><!--MD5=[494d5f1c0bba01068cf8e38a0ae48f2b]
cluster Local System--><polygon fill="#FFFFFF" filter="url(#fzzy5y4cu21zo)" points="70,497.5158,80,487.5158,237,487.5158,237,1182.5158,227,1192.5158,70,1192.5158,70,497.5158" style="stroke: #000000; stroke-width: 1.5;"/><line style="stroke: #000000; stroke-width: 1.5;" x1="227" x2="236" y1="497.5158" y2="488.5158"/><line style="stroke: #000000; stroke-width: 1.5;" x1="70" x2="227" y1="497.5158" y2="497.5158"/><line style="stroke: #000000; stroke-width: 1.5;" x1="227" x2="227" y1="497.5158" y2="1192.5158"/><text fill="#000000" font-family="Monospace" font-size="14" font-weight="bold" lengthAdjust="spacingAndGlyphs" textLength="91" x="104" y="515.4818">Local System</text><!--MD5=[8c9472c44c824e4c2cc3dfcfbb71d530]
cluster HPC Mode (via submitit/sbatch)--><polygon fill="#FFFFFF" filter="url(#fzzy5y4cu21zo)" points="455,441.5158,682,441.5158,689,466.5838,1349,466.5838,1349,966.5158,455,966.5158,455,441.5158" style="stroke: #000000; stroke-width: 1.5;"/><line style="stroke: #000000; stroke-width: 1.5;" x1="455" x2="689" y1="466.5838" y2="466.5838"/><text fill="#000000" font-family="Monospace" font-size="14" font-weight="bold" lengthAdjust="spacingAndGlyphs" textLength="221" x="459" y="458.4818">HPC Mode (via submitit/sbatch)</text><!--MD5=[f47ff5492917336f42ec66f20ec4a271]
cluster HPC--><path d="M496.6367,497.45 C508.8643,477.5563 531.2,475.27 543.7838,497.0469 C560.9757,475.3982 575.3459,478.0851 591.2742,498.4744 C605.93,473.177 622.5554,477.9966 638.7164,496.8572 C649.7089,473.206 666.6932,473.6915 681.082,493.5503 C700.7112,468.4417 716.2732,470.078 732.6969,496.7459 C743.8559,471.3793 759.1294,473.1477 775.7436,491.3569 C793.0172,469.8352 809.7004,470.0131 822.9448,495.4103 C835.2592,473.702 851.3377,471.873 865.4037,493.7021 C881.1212,472.4347 903.5448,473.8068 915.3456,498.0045 C927.1412,473.4467 946.4967,474.2765 962.1722,493.8915 C980.3972,475.5102 994.5294,479.7612 1007.2298,500.2892 C1020.3194,475.7201 1036.8126,477.2103 1052.2905,497.9119 C1066.9701,481.1536 1085.5892,477.1399 1096.071,502.2966 C1110.5344,479.5226 1132.7481,476.1663 1147,502.5158 C1150.8713,503.0998 1152.1999,505.7316 1149.523,508.9024 C1165.528,518.5604 1167.142,534.8581 1151.0195,545.8184 C1174.6899,558.2713 1173.3001,579.6251 1151.2044,592.2601 C1169.5263,605.2358 1174.4175,619.1066 1153.3221,634.0783 C1178.3676,648.994 1175.4126,664.1562 1154.2865,680.0408 C1175.9453,692.5132 1179.5283,705.6783 1158.1264,722.0836 C1174.6838,736.6154 1168.4567,753.9247 1149.7162,760.7862 C1168.1015,771.9543 1171.7118,787.9655 1154.3938,803.0821 C1179.9416,816.7812 1173.4806,837.2889 1153.9641,850.5803 C1170.1229,862.6233 1169.4746,880.9381 1150.3215,889.6925 C1167.42,909.5169 1163.0522,923.9369 1140,934.5158 C1143.3995,932.6232 1146.119,933.8243 1145.9384,938.0123 C1130.5796,963.1632 1115.3137,961.8122 1099.02,938.9254 C1080.93,959.7304 1064.6527,963.5676 1048.1868,937.1762 C1038.6632,956.8113 1016.1928,961.336 1002.7826,941.6658 C991.6857,963.0647 974.5412,962.3787 960.3012,945.1199 C946.9372,971.4522 922.8125,967.2879 910.7368,943.8373 C897.571,964.2663 885.0981,960.602 871.5715,944.2212 C856.3721,963.7797 841.2621,964.0371 825.3786,945.0408 C806.8521,966.0262 790.9191,966.2529 773.187,944.08 C759.9029,964.8605 746.0168,961.5876 731.7795,945.1402 C714.0482,966.1653 698.0565,969.7632 680.5256,944.9163 C665.8782,962.8112 649.3403,961.4555 637.594,941.6156 C622.8583,965.7138 606.4337,964.6933 590.2671,943.0976 C575.0453,963.2066 554.2358,963.1014 541.7719,940.0022 C518.7298,962.5149 497.3274,960.7764 487,927.5158 C492.4402,926.6144 495.7882,929.487 494.2803,935.183 C472.9346,923.7173 470.5983,904.7372 492.1252,891.1722 C471.382,878.1841 469.4448,865.1325 489.7036,849.7474 C466.3094,838.4059 465.4114,822.7236 480.906,803.917 C459.8364,788.5771 465.1218,774.6693 484.8102,763.2415 C464.9467,754.7961 459.4553,735.2722 478.498,721.0114 C457.2019,704.913 459.0686,685.0317 483.8921,674.2537 C463.651,666.099 465.7684,647.4097 481.8079,637.2136 C457.6613,620.6664 460.8922,603.4646 484.2451,589.3353 C469.5641,576.1739 471.0364,560.8433 488.656,551.4419 C463.0055,532.2187 467.9441,509.7983 494,495.5158 C495.6449,495.059 496.683,495.6012 496.6367,497.45 " fill="#FFFFFF" style="stroke: #000000; stroke-width: 1.5;"/><text fill="#000000" font-family="Monospace" font-size="14" font-weight="bold" lengthAdjust="spacingAndGlyphs" textLength="29" x="802.5" y="515.4818">HPC</text><!--MD5=[4f140ef10277af62a9bbfeabfb64c237]
cluster Head Node--><polygon fill="#FFFFFF" filter="url(#fzzy5y4cu21zo)" points="643,665.5158,653,655.5158,801,655.5158,801,762.5158,791,772.5158,643,772.5158,643,665.5158" style="stroke: #000000; stroke-width: 1.5;"/><line style="stroke: #000000; stroke-width: 1.5;" x1="791" x2="800" y1="665.5158" y2="656.5158"/><line style="stroke: #000000; stroke-width: 1.5;" x1="643" x2="791" y1="665.5158" y2="665.5158"/><line style="stroke: #000000; stroke-width: 1.5;" x1="791" x2="791" y1="665.5158" y2="772.5158"/><text fill="#000000" font-family="Monospace" font-size="14" font-weight="bold" lengthAdjust="spacingAndGlyphs" textLength="77" x="679.5" y="683.4818">Head Node</text><!--MD5=[7018e2f8ec6c3126037d80ab91f6880d]
cluster Compute Node 1--><polygon fill="#FFFFFF" filter="url(#fzzy5y4cu21zo)" points="503,830.5158,513,820.5158,696,820.5158,696,908.5158,686,918.5158,503,918.5158,503,830.5158" style="stroke: #000000; stroke-width: 1.5;"/><line style="stroke: #000000; stroke-width: 1.5;" x1="686" x2="695" y1="830.5158" y2="821.5158"/><line style="stroke: #000000; stroke-width: 1.5;" x1="503" x2="686" y1="830.5158" y2="830.5158"/><line style="stroke: #000000; stroke-width: 1.5;" x1="686" x2="686" y1="830.5158" y2="918.5158"/><text fill="#000000" font-family="Monospace" font-size="14" font-weight="bold" lengthAdjust="spacingAndGlyphs" textLength="117" x="537" y="848.4818">Compute Node 1</text><!--MD5=[87367e987a291b585b0318bcf694b76e]
cluster Compute Node 2--><polygon fill="#FFFFFF" filter="url(#fzzy5y4cu21zo)" points="720,830.5158,730,820.5158,913,820.5158,913,908.5158,903,918.5158,720,918.5158,720,830.5158" style="stroke: #000000; stroke-width: 1.5;"/><line style="stroke: #000000; stroke-width: 1.5;" x1="903" x2="912" y1="830.5158" y2="821.5158"/><line style="stroke: #000000; stroke-width: 1.5;" x1="720" x2="903" y1="830.5158" y2="830.5158"/><line style="stroke: #000000; stroke-width: 1.5;" x1="903" x2="903" y1="830.5158" y2="918.5158"/><text fill="#000000" font-family="Monospace" font-size="14" font-weight="bold" lengthAdjust="spacingAndGlyphs" textLength="117" x="754" y="848.4818">Compute Node 2</text><!--MD5=[611865159834dcb625bf3423a333d68b]
cluster Compute Node n--><polygon fill="#FFFFFF" filter="url(#fzzy5y4cu21zo)" points="937,830.5158,947,820.5158,1131,820.5158,1131,908.5158,1121,918.5158,937,918.5158,937,830.5158" style="stroke: #000000; stroke-width: 1.5;"/><line style="stroke: #000000; stroke-width: 1.5;" x1="1121" x2="1130" y1="830.5158" y2="821.5158"/><line style="stroke: #000000; stroke-width: 1.5;" x1="937" x2="1121" y1="830.5158" y2="830.5158"/><line style="stroke: #000000; stroke-width: 1.5;" x1="1121" x2="1121" y1="830.5158" y2="918.5158"/><text fill="#000000" font-family="Monospace" font-size="14" font-weight="bold" lengthAdjust="spacingAndGlyphs" textLength="118" x="971" y="848.4818">Compute Node n</text><!--MD5=[beb5ad5244d3d849df9473931f7c2e5e]
entity GUI--><rect fill="#FEFECE" filter="url(#fzzy5y4cu21zo)" height="58.1358" style="stroke: #A80036; stroke-width: 1.5;" width="83" x="272.5" y="137.5158"/><rect fill="#FEFECE" height="5" style="stroke: #A80036; stroke-width: 1.5;" width="10" x="267.5" y="142.5158"/><rect fill="#FEFECE" height="5" style="stroke: #A80036; stroke-width: 1.5;" width="10" x="267.5" y="185.6517"/><text fill="#000000" font-family="Monospace" font-size="14" lengthAdjust="spacingAndGlyphs" textLength="59" x="282.5" y="162.4818">Web GUI</text><text fill="#000000" font-family="Monospace" font-size="14" lengthAdjust="spacingAndGlyphs" textLength="63" x="282.5" y="181.5497">(optional)</text><!--MD5=[df6a39b053164d23cc3ecae9c3484a54]
entity CLI--><rect fill="#FEFECE" filter="url(#fzzy5y4cu21zo)" height="58.1358" style="stroke: #A80036; stroke-width: 1.5;" width="114" x="257" y="321.5158"/><rect fill="#FEFECE" height="5" style="stroke: #A80036; stroke-width: 1.5;" width="10" x="252" y="326.5158"/><rect fill="#FEFECE" height="5" style="stroke: #A80036; stroke-width: 1.5;" width="10" x="252" y="369.6517"/><text fill="#000000" font-family="Monospace" font-size="14" lengthAdjust="spacingAndGlyphs" textLength="94" x="267" y="346.4818">CLI Command</text><text fill="#000000" font-family="Monospace" font-size="14" lengthAdjust="spacingAndGlyphs" textLength="72" x="267" y="365.5497">omniopt ...</text><!--MD5=[6701a3ea7878410edba432ced09d8d77]
entity OmniOpt2Server--><path d="M277.5,859.5158 C277.5,849.5158 358,849.5158 358,849.5158 C358,849.5158 438.5,849.5158 438.5,859.5158 L438.5,906.6517 C438.5,916.6517 358,916.6517 358,916.6517 C358,916.6517 277.5,916.6517 277.5,906.6517 L277.5,859.5158 " fill="#FEFECE" filter="url(#fzzy5y4cu21zo)" style="stroke: #000000; stroke-width: 1.5;"/><path d="M277.5,859.5158 C277.5,869.5158 358,869.5158 358,869.5158 C358,869.5158 438.5,869.5158 438.5,859.5158 " fill="none" style="stroke: #000000; stroke-width: 1.5;"/><text fill="#000000" font-family="Monospace" font-size="14" lengthAdjust="spacingAndGlyphs" textLength="117" x="287.5" y="888.4818">OmniOpt2 Server</text><text fill="#000000" font-family="Monospace" font-size="14" lengthAdjust="spacingAndGlyphs" textLength="141" x="287.5" y="907.5497">(optional live upload)</text><!--MD5=[119bd4be733b4c7d33357554b14c3254]
entity LocalCore--><rect fill="#FEFECE" filter="url(#fzzy5y4cu21zo)" height="58.1358" style="stroke: #A80036; stroke-width: 1.5;" width="125" x="95.5" y="530.5158"/><rect fill="#FEFECE" height="5" style="stroke: #A80036; stroke-width: 1.5;" width="10" x="90.5" y="535.5158"/><rect fill="#FEFECE" height="5" style="stroke: #A80036; stroke-width: 1.5;" width="10" x="90.5" y="578.6517"/><text fill="#000000" font-family="Monospace" font-size="14" lengthAdjust="spacingAndGlyphs" textLength="105" x="105.5" y="555.4818">OmniOpt2 Core</text><text fill="#000000" font-family="Monospace" font-size="14" lengthAdjust="spacingAndGlyphs" textLength="84" x="105.5" y="574.5497">(main script)</text><!--MD5=[d2fc6cf2bce407d526ef15191755a4fd]
entity LocalJobs1--><rect fill="#FEFECE" filter="url(#fzzy5y4cu21zo)" height="39.0679" style="stroke: #A80036; stroke-width: 1.5;" width="62" x="126" y="708.0158"/><rect fill="#FEFECE" height="5" style="stroke: #A80036; stroke-width: 1.5;" width="10" x="121" y="713.0158"/><rect fill="#FEFECE" height="5" style="stroke: #A80036; stroke-width: 1.5;" width="10" x="121" y="737.0838"/><text fill="#000000" font-family="Monospace" font-size="14" lengthAdjust="spacingAndGlyphs" textLength="42" x="136" y="732.9818">Job #1</text><!--MD5=[e40594d447fda55db88d25f62754828c]
entity LocalJobs2--><rect fill="#FEFECE" filter="url(#fzzy5y4cu21zo)" height="39.0679" style="stroke: #A80036; stroke-width: 1.5;" width="62" x="124" y="863.5158"/><rect fill="#FEFECE" height="5" style="stroke: #A80036; stroke-width: 1.5;" width="10" x="119" y="868.5158"/><rect fill="#FEFECE" height="5" style="stroke: #A80036; stroke-width: 1.5;" width="10" x="119" y="892.5838"/><text fill="#000000" font-family="Monospace" font-size="14" lengthAdjust="spacingAndGlyphs" textLength="42" x="134" y="888.4818">Job #2</text><!--MD5=[56b844404ccb3c9080fe51c1c814a144]
entity LocalJobs3--><rect fill="#FEFECE" filter="url(#fzzy5y4cu21zo)" height="39.0679" style="stroke: #A80036; stroke-width: 1.5;" width="63" x="122.5" y="1013.5158"/><rect fill="#FEFECE" height="5" style="stroke: #A80036; stroke-width: 1.5;" width="10" x="117.5" y="1018.5158"/><rect fill="#FEFECE" height="5" style="stroke: #A80036; stroke-width: 1.5;" width="10" x="117.5" y="1042.5838"/><text fill="#000000" font-family="Monospace" font-size="14" lengthAdjust="spacingAndGlyphs" textLength="43" x="132.5" y="1038.4818">Job #n</text><!--MD5=[feac20ec967ba8193586f5464e6c98c7]
entity LocalRuns--><path d="M104.5,1138.5158 C104.5,1128.5158 154,1128.5158 154,1128.5158 C154,1128.5158 203.5,1128.5158 203.5,1138.5158 L203.5,1166.5838 C203.5,1176.5838 154,1176.5838 154,1176.5838 C154,1176.5838 104.5,1176.5838 104.5,1166.5838 L104.5,1138.5158 " fill="#FEFECE" filter="url(#fzzy5y4cu21zo)" style="stroke: #000000; stroke-width: 1.5;"/><path d="M104.5,1138.5158 C104.5,1148.5158 154,1148.5158 154,1148.5158 C154,1148.5158 203.5,1148.5158 203.5,1138.5158 " fill="none" style="stroke: #000000; stroke-width: 1.5;"/><text fill="#000000" font-family="Monospace" font-size="14" lengthAdjust="spacingAndGlyphs" textLength="79" x="114.5" y="1167.4818">runs/ (local)</text><!--MD5=[ad168f425ab565e150e1a97e9229db73]
entity HPCRuns--><path d="M1171.5,869.0158 C1171.5,859.0158 1252,859.0158 1252,859.0158 C1252,859.0158 1332.5,859.0158 1332.5,869.0158 L1332.5,897.0838 C1332.5,907.0838 1252,907.0838 1252,907.0838 C1252,907.0838 1171.5,907.0838 1171.5,897.0838 L1171.5,869.0158 " fill="#FEFECE" filter="url(#fzzy5y4cu21zo)" style="stroke: #000000; stroke-width: 1.5;"/><path d="M1171.5,869.0158 C1171.5,879.0158 1252,879.0158 1252,879.0158 C1252,879.0158 1332.5,879.0158 1332.5,869.0158 " fill="none" style="stroke: #000000; stroke-width: 1.5;"/><text fill="#000000" font-family="Monospace" font-size="14" lengthAdjust="spacingAndGlyphs" textLength="141" x="1181.5" y="897.9818">runs/ (on file system)</text><!--MD5=[1e30e967108d4cd087a1e501a36a7024]
entity LoginNode--><polygon fill="#FEFECE" filter="url(#fzzy5y4cu21zo)" points="577.5,535.5158,587.5,525.5158,702.5,525.5158,702.5,583.6517,692.5,593.6517,577.5,593.6517,577.5,535.5158" style="stroke: #000000; stroke-width: 1.5;"/><line style="stroke: #000000; stroke-width: 1.5;" x1="692.5" x2="701.5" y1="535.5158" y2="526.5158"/><line style="stroke: #000000; stroke-width: 1.5;" x1="577.5" x2="692.5" y1="535.5158" y2="535.5158"/><line style="stroke: #000000; stroke-width: 1.5;" x1="692.5" x2="692.5" y1="535.5158" y2="593.6517"/><text fill="#000000" font-family="Monospace" font-size="14" lengthAdjust="spacingAndGlyphs" textLength="77" x="592.5" y="560.4818">Login Node</text><text fill="#000000" font-family="Monospace" font-size="14" lengthAdjust="spacingAndGlyphs" textLength="85" x="592.5" y="579.5497">(sbatch only)</text><!--MD5=[0ca049598cf64d5a8f9e0a6c16d5d1d0]
entity HPCMaster--><rect fill="#FEFECE" filter="url(#fzzy5y4cu21zo)" height="58.1358" style="stroke: #A80036; stroke-width: 1.5;" width="125" x="659.5" y="698.5158"/><rect fill="#FEFECE" height="5" style="stroke: #A80036; stroke-width: 1.5;" width="10" x="654.5" y="703.5158"/><rect fill="#FEFECE" height="5" style="stroke: #A80036; stroke-width: 1.5;" width="10" x="654.5" y="746.6517"/><text fill="#000000" font-family="Monospace" font-size="14" lengthAdjust="spacingAndGlyphs" textLength="105" x="669.5" y="723.4818">OmniOpt2 Core</text><text fill="#000000" font-family="Monospace" font-size="14" lengthAdjust="spacingAndGlyphs" textLength="84" x="669.5" y="742.5497">(main script)</text><!--MD5=[47e052b533fd8425fd8ca2757eeea134]
entity Job1--><rect fill="#FEFECE" filter="url(#fzzy5y4cu21zo)" height="39.0679" style="stroke: #A80036; stroke-width: 1.5;" width="62" x="548" y="863.5158"/><rect fill="#FEFECE" height="5" style="stroke: #A80036; stroke-width: 1.5;" width="10" x="543" y="868.5158"/><rect fill="#FEFECE" height="5" style="stroke: #A80036; stroke-width: 1.5;" width="10" x="543" y="892.5838"/><text fill="#000000" font-family="Monospace" font-size="14" lengthAdjust="spacingAndGlyphs" textLength="42" x="558" y="888.4818">Job #1</text><!--MD5=[ad1ecd006b7d6e2fcd722d0410ebc487]
entity Job2--><rect fill="#FEFECE" filter="url(#fzzy5y4cu21zo)" height="39.0679" style="stroke: #A80036; stroke-width: 1.5;" width="62" x="752" y="863.5158"/><rect fill="#FEFECE" height="5" style="stroke: #A80036; stroke-width: 1.5;" width="10" x="747" y="868.5158"/><rect fill="#FEFECE" height="5" style="stroke: #A80036; stroke-width: 1.5;" width="10" x="747" y="892.5838"/><text fill="#000000" font-family="Monospace" font-size="14" lengthAdjust="spacingAndGlyphs" textLength="42" x="762" y="888.4818">Job #2</text><!--MD5=[0ab1b686e84364c8109e522a8c779fa1]
entity Job3--><rect fill="#FEFECE" filter="url(#fzzy5y4cu21zo)" height="39.0679" style="stroke: #A80036; stroke-width: 1.5;" width="63" x="956.5" y="863.5158"/><rect fill="#FEFECE" height="5" style="stroke: #A80036; stroke-width: 1.5;" width="10" x="951.5" y="868.5158"/><rect fill="#FEFECE" height="5" style="stroke: #A80036; stroke-width: 1.5;" width="10" x="951.5" y="892.5838"/><text fill="#000000" font-family="Monospace" font-size="14" lengthAdjust="spacingAndGlyphs" textLength="43" x="966.5" y="888.4818">Job #n</text><!--MD5=[35c1068cf10654a3a88a78f31c30ad7d]
link GUI to CLI--><path d="M314,195.5558 C314,228.0158 314,281.4558 314,316.0558 " fill="none" id="GUI-&gt;CLI" style="stroke: #A80036; stroke-width: 1.0; stroke-dasharray: 7.0,7.0;"/><polygon fill="#A80036" points="314,321.4458,318,312.4458,314,316.4458,310,312.4458,314,321.4458" style="stroke: #A80036; stroke-width: 1.0;"/><text fill="#000000" font-family="Monospace" font-size="11" lengthAdjust="spacingAndGlyphs" textLength="210" x="315" y="264.2748">Generates CLI Command to be executed</text><!--MD5=[bb07170366ce939dcc727915865a8aad]
link CLI to LocalCore--><path d="M292.64,379.8658 C263.81,418.1158 212.6,486.0658 182.33,526.2358 " fill="none" id="CLI-&gt;LocalCore" style="stroke: #A80036; stroke-width: 1.0;"/><polygon fill="#A80036" points="179.11,530.5058,187.7182,525.7206,182.1169,526.511,181.3265,520.9096,179.11,530.5058" style="stroke: #A80036; stroke-width: 1.0;"/><text fill="#000000" font-family="Monospace" font-size="11" lengthAdjust="spacingAndGlyphs" textLength="21" x="268" y="422.2748">Run</text><!--MD5=[c27c3c7b98a2dd3503e29f99b530e9bd]
link LocalCore to LocalJobs1--><path d="M157.83,588.6758 C157.64,620.6758 157.33,672.3758 157.14,702.5358 " fill="none" id="LocalCore-&gt;LocalJobs1" style="stroke: #A80036; stroke-width: 1.0;"/><polygon fill="#A80036" points="157.11,707.5458,161.1614,698.5688,157.1386,702.5459,153.1615,698.5231,157.11,707.5458" style="stroke: #A80036; stroke-width: 1.0;"/><!--MD5=[d01e2fbc9967036337eedae7337f61ea]
link LocalJobs1 to LocalJobs2--><path d="M156.76,747.0358 C156.4,774.9258 155.71,827.6958 155.31,858.3458 " fill="none" id="LocalJobs1-&gt;LocalJobs2" style="stroke: #A80036; stroke-width: 1.0;"/><polygon fill="#A80036" points="155.24,863.4358,159.3426,854.4821,155.2971,858.4362,151.3431,854.3907,155.24,863.4358" style="stroke: #A80036; stroke-width: 1.0;"/><!--MD5=[8318b7c12ef90802bd16e5fa1c392597]
link LocalJobs2 to LocalJobs3--><path d="M154.87,902.7558 C154.69,929.5558 154.36,978.8258 154.16,1008.1858 " fill="none" id="LocalJobs2-&gt;LocalJobs3" style="stroke: #A80036; stroke-width: 1.0;"/><polygon fill="#A80036" points="154.13,1013.4258,158.1814,1004.4488,154.1586,1008.4259,150.1815,1004.4031,154.13,1013.4258" style="stroke: #A80036; stroke-width: 1.0;"/><!--MD5=[ca851b8c61ec6a7d6bed90f24515cb48]
link LocalJobs3 to LocalRuns--><path d="M154,1052.6358 C154,1071.5658 154,1101.1458 154,1123.0258 " fill="none" id="LocalJobs3-&gt;LocalRuns" style="stroke: #A80036; stroke-width: 1.0;"/><polygon fill="#A80036" points="154,1128.1258,158,1119.1258,154,1123.1258,150,1119.1258,154,1128.1258" style="stroke: #A80036; stroke-width: 1.0;"/><text fill="#000000" font-family="Monospace" font-size="11" lengthAdjust="spacingAndGlyphs" textLength="65" x="155" y="1095.2748">write results</text><!--MD5=[95ac879643d0f9a162a8988bbb1df057]
link LocalCore to OmniOpt2Server--><path d="M175.57,588.7658 C211.69,646.8258 294.26,779.5558 334.75,844.6358 " fill="none" id="LocalCore-&gt;OmniOpt2Server" style="stroke: #A80036; stroke-width: 1.0;"/><polygon fill="#A80036" points="337.59,849.2058,336.2415,839.4497,334.9528,844.9579,329.4447,843.6692,337.59,849.2058" style="stroke: #A80036; stroke-width: 1.0;"/><text fill="#000000" font-family="Monospace" font-size="11" lengthAdjust="spacingAndGlyphs" textLength="113" x="294" y="732.2748">--live_share (optional)</text><!--MD5=[800e0e0bb90fb898e4eff9c9cad77fdf]
link CLI to LoginNode--><path d="M358.31,379.6458 C416.7,416.7258 519.5,482.0058 583.45,522.6058 " fill="none" id="CLI-&gt;LoginNode" style="stroke: #A80036; stroke-width: 1.0;"/><polygon fill="#A80036" points="587.98,525.4858,582.5274,517.2841,583.7593,522.8052,578.2383,524.0371,587.98,525.4858" style="stroke: #A80036; stroke-width: 1.0;"/><text fill="#000000" font-family="Monospace" font-size="11" lengthAdjust="spacingAndGlyphs" textLength="47" x="429" y="422.2748">ssh login</text><!--MD5=[0c619afe08a0a430c7a3ffb1ff1eec8b]
link LoginNode to HPCMaster--><path d="M656.4,593.7058 C670.77,622.8058 691.55,664.8658 705.85,693.8158 " fill="none" id="LoginNode-&gt;HPCMaster" style="stroke: #A80036; stroke-width: 1.0;"/><polygon fill="#A80036" points="708.09,698.3458,707.6931,688.505,705.8768,693.8623,700.5195,692.0461,708.09,698.3458" style="stroke: #A80036; stroke-width: 1.0;"/><text fill="#000000" font-family="Monospace" font-size="11" lengthAdjust="spacingAndGlyphs" textLength="89" x="679" y="636.2748">sbatch command</text><!--MD5=[d73132a875438189b2b3ce4229eb2a32]
link HPCMaster to Job1--><path d="M694.18,756.5658 C683.2,765.8758 669.9,775.2058 656,780.5158 C642.58,785.6358 536.84,778.0558 527,788.5158 C522.13,793.6958 523.19,798.5158 527,804.5158 C531.47,811.5658 538.02,806.6858 544,812.5158 C557.04,825.2158 566.05,843.8058 571.66,858.5658 " fill="none" id="HPCMaster-&gt;Job1" style="stroke: #A80036; stroke-width: 1.0;"/><polygon fill="#A80036" points="573.44,863.4058,574.0876,853.5783,571.7141,858.7132,566.5793,856.3397,573.44,863.4058" style="stroke: #A80036; stroke-width: 1.0;"/><text fill="#000000" font-family="Monospace" font-size="11" lengthAdjust="spacingAndGlyphs" textLength="36" x="528" y="801.2748">submit</text><!--MD5=[0361fc0b2f9e0c1d656e25018cbd835c]
link Job1 to HPCMaster--><path d="M585.29,863.2058 C593.25,842.1758 608.87,808.4658 633,788.5158 C641.34,781.6158 646.51,785.7158 656,780.5158 C666.52,774.7558 677.1,767.3258 686.6,759.8958 " fill="none" id="Job1-&gt;HPCMaster" style="stroke: #A80036; stroke-width: 1.0;"/><polygon fill="#A80036" points="690.61,756.7158,681.0767,759.1891,686.6973,759.8289,686.0576,765.4494,690.61,756.7158" style="stroke: #A80036; stroke-width: 1.0;"/><text fill="#000000" font-family="Monospace" font-size="11" lengthAdjust="spacingAndGlyphs" textLength="72" x="634" y="801.2748">return results</text><!--MD5=[76de094807e8008348a742240e8dbe38]
link HPCMaster to Job2--><path d="M715.91,756.7258 C713.98,771.3858 713.55,789.3558 719,804.5158 C726.73,826.0158 743.29,845.7858 757.63,859.9858 " fill="none" id="HPCMaster-&gt;Job2" style="stroke: #A80036; stroke-width: 1.0;"/><polygon fill="#A80036" points="761.22,863.4658,757.5548,854.3244,757.6348,859.9807,751.9785,860.0606,761.22,863.4658" style="stroke: #A80036; stroke-width: 1.0;"/><text fill="#000000" font-family="Monospace" font-size="11" lengthAdjust="spacingAndGlyphs" textLength="36" x="720" y="801.2748">submit</text><!--MD5=[dac3ded752d84de080905c6c3483a0d1]
link Job2 to HPCMaster--><path d="M780.57,863.5058 C777.6,844.2058 771.61,813.3558 761,788.5158 C757.05,779.2658 751.69,769.8558 746.22,761.3258 " fill="none" id="Job2-&gt;HPCMaster" style="stroke: #A80036; stroke-width: 1.0;"/><polygon fill="#A80036" points="743.17,756.6758,744.7724,766.3935,745.917,760.8536,751.4569,761.9982,743.17,756.6758" style="stroke: #A80036; stroke-width: 1.0;"/><text fill="#000000" font-family="Monospace" font-size="11" lengthAdjust="spacingAndGlyphs" textLength="72" x="767" y="801.2748">return results</text><!--MD5=[d49c4ab690e9114edc7d2c3d09ac25fe]
link HPCMaster to Job3--><path d="M784.75,756.2158 C805.24,765.8358 827.88,777.0858 848,788.5158 C887.44,810.9258 930.51,840.5258 958.32,860.3658 " fill="none" id="HPCMaster-&gt;Job3" style="stroke: #A80036; stroke-width: 1.0;"/><polygon fill="#A80036" points="962.65,863.4658,957.6598,854.9748,958.5842,860.5556,953.0034,861.48,962.65,863.4658" style="stroke: #A80036; stroke-width: 1.0;"/><text fill="#000000" font-family="Monospace" font-size="11" lengthAdjust="spacingAndGlyphs" textLength="36" x="872" y="801.2748">submit</text><!--MD5=[0b084569a1b025af739eee478835d34a]
link Job3 to HPCMaster--><path d="M973.15,863.4458 C960.82,847.8858 942.95,824.9958 928,804.5158 C922.91,797.5458 923.96,793.6258 917,788.5158 C879.84,761.2258 830.06,746.1758 790.1,737.9758 " fill="none" id="Job3-&gt;HPCMaster" style="stroke: #A80036; stroke-width: 1.0;"/><polygon fill="#A80036" points="784.78,736.9058,792.8144,742.6022,789.6818,737.8919,794.3921,734.7593,784.78,736.9058" style="stroke: #A80036; stroke-width: 1.0;"/><text fill="#000000" font-family="Monospace" font-size="11" lengthAdjust="spacingAndGlyphs" textLength="72" x="929" y="801.2748">return results</text><!--MD5=[571935b6720c67f63951b3fde5967843]
link HPCMaster to HPCRuns--><path d="M784.52,738.5058 C843.36,748.6158 933.59,765.9558 1010,788.5158 C1074.66,807.6058 1146.43,836.3258 1194.9,856.9058 " fill="none" id="HPCMaster-&gt;HPCRuns" style="stroke: #A80036; stroke-width: 1.0;"/><polygon fill="#A80036" points="1199.51,858.8658,1192.7944,851.6616,1194.9091,856.9083,1189.6624,859.023,1199.51,858.8658" style="stroke: #A80036; stroke-width: 1.0;"/><text fill="#000000" font-family="Monospace" font-size="11" lengthAdjust="spacingAndGlyphs" textLength="65" x="1058" y="801.2748">write results</text><!--MD5=[9b4661392c5508d5bc2f8f38988871a1]
link HPCMaster to OmniOpt2Server--><path d="M694.58,756.5258 C683.56,765.9558 670.12,775.3758 656,780.5158 C629.26,790.2558 423.65,772.6858 400,788.5158 C381.19,801.1058 370.7,824.2758 364.91,844.3958 " fill="none" id="HPCMaster-&gt;OmniOpt2Server" style="stroke: #A80036; stroke-width: 1.0;"/><polygon fill="#A80036" points="363.54,849.4358,369.7633,841.8023,364.8532,844.6114,362.0441,839.7013,363.54,849.4358" style="stroke: #A80036; stroke-width: 1.0;"/><text fill="#000000" font-family="Monospace" font-size="11" lengthAdjust="spacingAndGlyphs" textLength="113" x="401" y="801.2748">--live_share (optional)</text><!--MD5=[269db930506c08258c68e05997e1764e]
@startuml
skinparam componentStyle rectangle
skinparam defaultFontName Monospace
skinparam ArrowFontSize 11

title OmniOpt2 Architecture

package "User Interface" {
  node "User" {
    component "Web GUI\n(optional)" as GUI
  }
}

package "OmniOpt2 Workflow" {

  component "CLI Command\nomniopt ..." as CLI

  GUI ..> CLI : Generates CLI Command to be executed

  database "OmniOpt2 Server\n(optional live upload)" as OmniOpt2Server

  package "Local Mode" {
    node "Local System" {
      component "OmniOpt2 Core\n(main script)" as LocalCore
      component "Job #1" as LocalJobs1
      component "Job #2" as LocalJobs2
      component "Job #n" as LocalJobs3
      database "runs/ (local)" as LocalRuns
    }

    CLI - -> LocalCore : Run
    LocalCore - -> LocalJobs1
    LocalJobs1 - -> LocalJobs2
    LocalJobs2 - -> LocalJobs3
    LocalJobs3 - -> LocalRuns : write results
    LocalCore - -> OmniOpt2Server : - -live_share (optional)
  }

  package "HPC Mode (via submitit/sbatch)" {

    cloud "HPC" {

      node "Login Node\n(sbatch only)" as LoginNode

      node "Head Node" {
        component "OmniOpt2 Core\n(main script)" as HPCMaster
      }

      node "Compute Node 1" {
        component "Job #1" as Job1
      }

      node "Compute Node 2" {
        component "Job #2" as Job2
      }

      node "Compute Node n" {
        component "Job #n" as Job3
      }
    }

    database "runs/ (on file system)" as HPCRuns

    CLI - -> LoginNode : ssh login
    LoginNode - -> HPCMaster : sbatch command

    HPCMaster - -> Job1 : submit
    HPCMaster - -> Job2 : submit
    HPCMaster - -> Job3 : submit

    Job1 -down-> HPCMaster : return results
    Job2 -down-> HPCMaster : return results
    Job3 -down-> HPCMaster : return results

    HPCMaster - -> HPCRuns : write results
    HPCMaster - -> OmniOpt2Server : - -live_share (optional)
  }
}

@enduml

PlantUML version 1.2020.02(Sun Mar 01 11:22:07 CET 2020)
(GPL source distribution)
Java Runtime: OpenJDK Runtime Environment
JVM: OpenJDK 64-Bit Server VM
Java Version: 11.0.26+4-post-Debian-1
Operating System: Linux
Default Encoding: UTF-8
Language: de
Country: DE
--></g></svg>