<?xml version="1.0" encoding="UTF-8" standalone="no"?><svg xmlns="http://www.w3.org/2000/svg" xmlns:xlink="http://www.w3.org/1999/xlink" contentScriptType="application/ecmascript" contentStyleType="text/css" height="1035px" preserveAspectRatio="none" style="width:1020px;height:1035px;" version="1.1" viewBox="0 0 1020 1035" width="1020px" zoomAndPan="magnify"><defs><filter height="300%" id="f1sv4nzn014lon" width="300%" x="-1" y="-1"><feGaussianBlur result="blurOut" stdDeviation="2.0"/><feColorMatrix in="blurOut" result="blurOut2" type="matrix" values="0 0 0 0 0 0 0 0 0 0 0 0 0 0 0 0 0 0 .4 0"/><feOffset dx="4.0" dy="4.0" in="blurOut2" result="blurOut3"/><feBlend in="SourceGraphic" in2="blurOut3" mode="normal"/></filter></defs><g><text fill="#000000" font-family="Monospace" font-size="18" lengthAdjust="spacingAndGlyphs" textLength="189" x="421.5" y="19.2419">OmniOpt Architecture</text><!--MD5=[758d0d901c426322093f2028ae96ad77]
cluster OmniOpt Workflow--><polygon fill="#FFFFFF" filter="url(#f1sv4nzn014lon)" points="22,48.5158,164,48.5158,171,73.5838,998,73.5838,998,1023.5158,22,1023.5158,22,48.5158" style="stroke: #000000; stroke-width: 1.5;"/><line style="stroke: #000000; stroke-width: 1.5;" x1="22" x2="171" y1="73.5838" y2="73.5838"/><text fill="#000000" font-family="Monospace" font-size="14" font-weight="bold" lengthAdjust="spacingAndGlyphs" textLength="136" x="26" y="65.4818">OmniOpt Workflow</text><!--MD5=[d0083cf0b2d9f17e335f85bf9624e57e]
cluster User--><polygon fill="#FFFFFF" filter="url(#f1sv4nzn014lon)" points="211,104.5158,221,94.5158,399,94.5158,399,338.5158,389,348.5158,211,348.5158,211,104.5158" style="stroke: #000000; stroke-width: 1.5;"/><line style="stroke: #000000; stroke-width: 1.5;" x1="389" x2="398" y1="104.5158" y2="95.5158"/><line style="stroke: #000000; stroke-width: 1.5;" x1="211" x2="389" y1="104.5158" y2="104.5158"/><line style="stroke: #000000; stroke-width: 1.5;" x1="389" x2="389" y1="104.5158" y2="348.5158"/><text fill="#000000" font-family="Monospace" font-size="14" font-weight="bold" lengthAdjust="spacingAndGlyphs" textLength="32" x="285" y="122.4818">User</text><!--MD5=[068ab849e982e95724e818cf5ecc07ce]
cluster Local Mode--><polygon fill="#FFFFFF" filter="url(#f1sv4nzn014lon)" points="46,399.5158,131,399.5158,138,424.5838,261,424.5838,261,999.5158,46,999.5158,46,399.5158" style="stroke: #000000; stroke-width: 1.5;"/><line style="stroke: #000000; stroke-width: 1.5;" x1="46" x2="138" y1="424.5838" y2="424.5838"/><text fill="#000000" font-family="Monospace" font-size="14" font-weight="bold" lengthAdjust="spacingAndGlyphs" textLength="79" x="50" y="416.4818">Local Mode</text><!--MD5=[494d5f1c0bba01068cf8e38a0ae48f2b]
cluster Local System--><polygon fill="#FFFFFF" filter="url(#f1sv4nzn014lon)" points="70,455.5158,80,445.5158,237,445.5158,237,965.5158,227,975.5158,70,975.5158,70,455.5158" style="stroke: #000000; stroke-width: 1.5;"/><line style="stroke: #000000; stroke-width: 1.5;" x1="227" x2="236" y1="455.5158" y2="446.5158"/><line style="stroke: #000000; stroke-width: 1.5;" x1="70" x2="227" y1="455.5158" y2="455.5158"/><line style="stroke: #000000; stroke-width: 1.5;" x1="227" x2="227" y1="455.5158" y2="975.5158"/><text fill="#000000" font-family="Monospace" font-size="14" font-weight="bold" lengthAdjust="spacingAndGlyphs" textLength="91" x="104" y="473.4818">Local System</text><!--MD5=[510b2a471b203f0a11a8fcb28c9aac5b]
cluster HPC Mode (via Submitit)--><polygon fill="#FFFFFF" filter="url(#f1sv4nzn014lon)" points="455,450.5158,631,450.5158,638,475.5838,974,475.5838,974,999.5158,455,999.5158,455,450.5158" style="stroke: #000000; stroke-width: 1.5;"/><line style="stroke: #000000; stroke-width: 1.5;" x1="455" x2="638" y1="475.5838" y2="475.5838"/><text fill="#000000" font-family="Monospace" font-size="14" font-weight="bold" lengthAdjust="spacingAndGlyphs" textLength="170" x="459" y="467.4818">HPC Mode (via Submitit)</text><!--MD5=[e525c2f3f2ac148df68cd25bb6c0c87e]
cluster Head Node\n(SBATCH job)--><polygon fill="#FFFFFF" filter="url(#f1sv4nzn014lon)" points="601,859.5158,611,849.5158,795,849.5158,795,965.5158,785,975.5158,601,975.5158,601,859.5158" style="stroke: #000000; stroke-width: 1.5;"/><line style="stroke: #000000; stroke-width: 1.5;" x1="785" x2="794" y1="859.5158" y2="850.5158"/><line style="stroke: #000000; stroke-width: 1.5;" x1="601" x2="785" y1="859.5158" y2="859.5158"/><line style="stroke: #000000; stroke-width: 1.5;" x1="785" x2="785" y1="859.5158" y2="975.5158"/><text fill="#000000" font-family="Monospace" font-size="14" font-weight="bold" lengthAdjust="spacingAndGlyphs" textLength="77" x="655.5" y="877.4818">Head Node</text><text fill="#000000" font-family="Monospace" font-size="14" font-weight="bold" lengthAdjust="spacingAndGlyphs" textLength="91" x="648.5" y="896.5497">(SBATCH job)</text><!--MD5=[64c81993ea92f63c5dddd5aa5df9ddbf]
cluster Compute Nodes\n(parallel jobs)--><path d="M497.8051,623.372 C509.3083,610.1894 519.8153,605.601 530.9362,623.7758 C537.6203,608.5109 547.1779,604.2872 559.7084,617.9635 C568.537,600.8927 581.9158,603.6748 591.1295,617.5728 C601.0435,604.471 614.3865,600.414 624.0504,617.8426 C632.8026,604.8134 646.7406,603.9868 655.5937,617.7237 C664.8547,601.7891 676.246,598.1618 688.2429,614.998 C698.7126,599.126 711.638,601.9751 718.9556,618.0301 C728.4207,602.3437 741.9172,604.564 751.6052,617.7782 C759.6144,605.0984 771.6645,605.0637 780.0049,617.4023 C790.3119,605.4704 803.4973,607.3125 810.8649,620.95 C818.7557,606.0783 831.4339,603.5135 842.7175,617.1605 C854.5773,602.7112 864.804,605.4761 873.3339,620.6071 C881.1261,605.3282 897.64,604.6499 906.5434,619.3772 C919.6234,604.9929 935.7007,607.2219 942,626.5158 C943.279,624.8935 944.9565,624.8707 946.1079,626.6691 C963.6542,637.0973 964.4625,653.0412 949.6387,666.3497 C969.1385,676.0286 969.8269,693.8554 954.6181,707.7127 C969.6717,720.659 973.4711,736.7809 951.8228,747.124 C968.7211,771.1 961.7759,783.4721 935,790.5158 C938.1305,791.5726 938.6362,794.1495 935.904,796.1473 C926.9108,808.4152 915.7723,811.3684 906.5603,796.3829 C895.5548,813.5034 884.2299,810.8227 872.7585,796.89 C861.3187,809.4513 852.1583,805.1259 844.8697,792.3252 C837.6457,807.1884 823.2816,811.7722 812.2718,796.4079 C801.953,808.152 789.8942,809.3371 781.5279,794.1767 C774.6885,808.4731 760.6395,812.1074 751.4252,796.5731 C741.7093,811.7415 728.2171,810.4926 718.8817,796.1534 C711.6152,810.7768 697.5503,811.411 688.7032,797.8456 C677.1919,812.8765 659.4273,814.3187 651.8208,793.795 C641.4582,806.1777 632.7725,807.5073 623.2613,792.8943 C616.479,807.0105 602.4965,809.5457 593.3335,795.4168 C581.8736,808.9022 568.7327,809.8901 560.7431,791.8314 C553.9888,807.9376 538.0191,806.9175 528.9382,794.4181 C510.6566,809.3876 495.7065,805.3792 487,783.5158 C488.4634,783.4278 488.9064,784.1943 488.3812,785.4944 C466.1169,772.1565 470.0035,758.8431 487.7519,744.8851 C467.5238,737.2188 463.767,724.5775 477.7964,707.7316 C462.7989,693.5714 464.603,679.2321 483.9383,670.7782 C464.6503,649.9033 468.6097,631.6214 494,619.5158 C497.2865,618.7968 498.5956,620.0681 497.8051,623.372 " fill="#FFFFFF" style="stroke: #000000; stroke-width: 1.5;"/><text fill="#000000" font-family="Monospace" font-size="14" font-weight="bold" lengthAdjust="spacingAndGlyphs" textLength="112" x="658.5" y="639.4818">Compute Nodes</text><text fill="#000000" font-family="Monospace" font-size="14" font-weight="bold" lengthAdjust="spacingAndGlyphs" textLength="94" x="667.5" y="658.5497">(parallel jobs)</text><!--MD5=[e43ffac192d08a1890ecb7e4669d9caa]
cluster Node 1--><polygon fill="#FFFFFF" filter="url(#f1sv4nzn014lon)" points="503,686.5158,513,676.5158,628,676.5158,628,764.5158,618,774.5158,503,774.5158,503,686.5158" style="stroke: #000000; stroke-width: 1.5;"/><line style="stroke: #000000; stroke-width: 1.5;" x1="618" x2="627" y1="686.5158" y2="677.5158"/><line style="stroke: #000000; stroke-width: 1.5;" x1="503" x2="618" y1="686.5158" y2="686.5158"/><line style="stroke: #000000; stroke-width: 1.5;" x1="618" x2="618" y1="686.5158" y2="774.5158"/><text fill="#000000" font-family="Monospace" font-size="14" font-weight="bold" lengthAdjust="spacingAndGlyphs" textLength="49" x="537" y="704.4818">Node 1</text><!--MD5=[1012076c40eb91780e00e4187d731fa6]
cluster Node 2--><polygon fill="#FFFFFF" filter="url(#f1sv4nzn014lon)" points="652,686.5158,662,676.5158,777,676.5158,777,764.5158,767,774.5158,652,774.5158,652,686.5158" style="stroke: #000000; stroke-width: 1.5;"/><line style="stroke: #000000; stroke-width: 1.5;" x1="767" x2="776" y1="686.5158" y2="677.5158"/><line style="stroke: #000000; stroke-width: 1.5;" x1="652" x2="767" y1="686.5158" y2="686.5158"/><line style="stroke: #000000; stroke-width: 1.5;" x1="767" x2="767" y1="686.5158" y2="774.5158"/><text fill="#000000" font-family="Monospace" font-size="14" font-weight="bold" lengthAdjust="spacingAndGlyphs" textLength="49" x="686" y="704.4818">Node 2</text><!--MD5=[578b14f20fa11d93cc4c98de26454446]
cluster Node 3--><polygon fill="#FFFFFF" filter="url(#f1sv4nzn014lon)" points="801,686.5158,811,676.5158,926,676.5158,926,764.5158,916,774.5158,801,774.5158,801,686.5158" style="stroke: #000000; stroke-width: 1.5;"/><line style="stroke: #000000; stroke-width: 1.5;" x1="916" x2="925" y1="686.5158" y2="677.5158"/><line style="stroke: #000000; stroke-width: 1.5;" x1="801" x2="916" y1="686.5158" y2="686.5158"/><line style="stroke: #000000; stroke-width: 1.5;" x1="916" x2="916" y1="686.5158" y2="774.5158"/><text fill="#000000" font-family="Monospace" font-size="14" font-weight="bold" lengthAdjust="spacingAndGlyphs" textLength="49" x="835" y="704.4818">Node 3</text><!--MD5=[a703d980dfcc65cc8e9623754057cb67]
entity OmniOptServer--><path d="M277.5,715.5158 C277.5,705.5158 358,705.5158 358,705.5158 C358,705.5158 438.5,705.5158 438.5,715.5158 L438.5,762.6517 C438.5,772.6517 358,772.6517 358,772.6517 C358,772.6517 277.5,772.6517 277.5,762.6517 L277.5,715.5158 " fill="#FEFECE" filter="url(#f1sv4nzn014lon)" style="stroke: #000000; stroke-width: 1.5;"/><path d="M277.5,715.5158 C277.5,725.5158 358,725.5158 358,725.5158 C358,725.5158 438.5,725.5158 438.5,715.5158 " fill="none" style="stroke: #000000; stroke-width: 1.5;"/><text fill="#000000" font-family="Monospace" font-size="14" lengthAdjust="spacingAndGlyphs" textLength="109" x="287.5" y="744.4818">OmniOpt Server</text><text fill="#000000" font-family="Monospace" font-size="14" lengthAdjust="spacingAndGlyphs" textLength="141" x="287.5" y="763.5497">(optional live upload)</text><!--MD5=[beb5ad5244d3d849df9473931f7c2e5e]
entity GUI--><rect fill="#FEFECE" filter="url(#f1sv4nzn014lon)" height="58.1358" style="stroke: #A80036; stroke-width: 1.5;" width="83" x="227.5" y="137.5158"/><rect fill="#FEFECE" height="5" style="stroke: #A80036; stroke-width: 1.5;" width="10" x="222.5" y="142.5158"/><rect fill="#FEFECE" height="5" style="stroke: #A80036; stroke-width: 1.5;" width="10" x="222.5" y="185.6517"/><text fill="#000000" font-family="Monospace" font-size="14" lengthAdjust="spacingAndGlyphs" textLength="59" x="237.5" y="162.4818">Web GUI</text><text fill="#000000" font-family="Monospace" font-size="14" lengthAdjust="spacingAndGlyphs" textLength="63" x="237.5" y="181.5497">(optional)</text><!--MD5=[df6a39b053164d23cc3ecae9c3484a54]
entity CLI--><rect fill="#FEFECE" filter="url(#f1sv4nzn014lon)" height="58.1358" style="stroke: #A80036; stroke-width: 1.5;" width="114" x="227" y="274.5158"/><rect fill="#FEFECE" height="5" style="stroke: #A80036; stroke-width: 1.5;" width="10" x="222" y="279.5158"/><rect fill="#FEFECE" height="5" style="stroke: #A80036; stroke-width: 1.5;" width="10" x="222" y="322.6517"/><text fill="#000000" font-family="Monospace" font-size="14" lengthAdjust="spacingAndGlyphs" textLength="94" x="237" y="299.4818">CLI Command</text><text fill="#000000" font-family="Monospace" font-size="14" lengthAdjust="spacingAndGlyphs" textLength="72" x="237" y="318.5497">omniopt ...</text><!--MD5=[119bd4be733b4c7d33357554b14c3254]
entity LocalCore--><rect fill="#FEFECE" filter="url(#f1sv4nzn014lon)" height="58.1358" style="stroke: #A80036; stroke-width: 1.5;" width="117" x="103.5" y="488.5158"/><rect fill="#FEFECE" height="5" style="stroke: #A80036; stroke-width: 1.5;" width="10" x="98.5" y="493.5158"/><rect fill="#FEFECE" height="5" style="stroke: #A80036; stroke-width: 1.5;" width="10" x="98.5" y="536.6517"/><text fill="#000000" font-family="Monospace" font-size="14" lengthAdjust="spacingAndGlyphs" textLength="97" x="113.5" y="513.4818">OmniOpt Core</text><text fill="#000000" font-family="Monospace" font-size="14" lengthAdjust="spacingAndGlyphs" textLength="84" x="113.5" y="532.5497">(main script)</text><!--MD5=[b1863c6cb7af23746dfb5d67ac7a9b6e]
entity LocalJobs--><rect fill="#FEFECE" filter="url(#f1sv4nzn014lon)" height="58.1358" style="stroke: #A80036; stroke-width: 1.5;" width="122" x="99" y="710.0158"/><rect fill="#FEFECE" height="5" style="stroke: #A80036; stroke-width: 1.5;" width="10" x="94" y="715.0158"/><rect fill="#FEFECE" height="5" style="stroke: #A80036; stroke-width: 1.5;" width="10" x="94" y="758.1517"/><text fill="#000000" font-family="Monospace" font-size="14" lengthAdjust="spacingAndGlyphs" textLength="102" x="109" y="734.9818">Evaluation Jobs</text><text fill="#000000" font-family="Monospace" font-size="14" lengthAdjust="spacingAndGlyphs" textLength="79" x="109" y="754.0497">(sequential)</text><!--MD5=[feac20ec967ba8193586f5464e6c98c7]
entity LocalRuns--><path d="M99.5,921.5158 C99.5,911.5158 149,911.5158 149,911.5158 C149,911.5158 198.5,911.5158 198.5,921.5158 L198.5,949.5838 C198.5,959.5838 149,959.5838 149,959.5838 C149,959.5838 99.5,959.5838 99.5,949.5838 L99.5,921.5158 " fill="#FEFECE" filter="url(#f1sv4nzn014lon)" style="stroke: #000000; stroke-width: 1.5;"/><path d="M99.5,921.5158 C99.5,931.5158 149,931.5158 149,931.5158 C149,931.5158 198.5,931.5158 198.5,921.5158 " fill="none" style="stroke: #000000; stroke-width: 1.5;"/><text fill="#000000" font-family="Monospace" font-size="14" lengthAdjust="spacingAndGlyphs" textLength="79" x="109.5" y="950.4818">runs/ (local)</text><!--MD5=[0ca049598cf64d5a8f9e0a6c16d5d1d0]
entity HPCMaster--><rect fill="#FEFECE" filter="url(#f1sv4nzn014lon)" height="58.1358" style="stroke: #A80036; stroke-width: 1.5;" width="117" x="524.5" y="488.5158"/><rect fill="#FEFECE" height="5" style="stroke: #A80036; stroke-width: 1.5;" width="10" x="519.5" y="493.5158"/><rect fill="#FEFECE" height="5" style="stroke: #A80036; stroke-width: 1.5;" width="10" x="519.5" y="536.6517"/><text fill="#000000" font-family="Monospace" font-size="14" lengthAdjust="spacingAndGlyphs" textLength="97" x="534.5" y="513.4818">OmniOpt Core</text><text fill="#000000" font-family="Monospace" font-size="14" lengthAdjust="spacingAndGlyphs" textLength="84" x="534.5" y="532.5497">(main script)</text><!--MD5=[ad168f425ab565e150e1a97e9229db73]
entity HPCRuns--><path d="M617.5,921.5158 C617.5,911.5158 698,911.5158 698,911.5158 C698,911.5158 778.5,911.5158 778.5,921.5158 L778.5,949.5838 C778.5,959.5838 698,959.5838 698,959.5838 C698,959.5838 617.5,959.5838 617.5,949.5838 L617.5,921.5158 " fill="#FEFECE" filter="url(#f1sv4nzn014lon)" style="stroke: #000000; stroke-width: 1.5;"/><path d="M617.5,921.5158 C617.5,931.5158 698,931.5158 698,931.5158 C698,931.5158 778.5,931.5158 778.5,921.5158 " fill="none" style="stroke: #000000; stroke-width: 1.5;"/><text fill="#000000" font-family="Monospace" font-size="14" lengthAdjust="spacingAndGlyphs" textLength="141" x="627.5" y="950.4818">runs/ (on file system)</text><!--MD5=[47e052b533fd8425fd8ca2757eeea134]
entity Job1--><rect fill="#FEFECE" filter="url(#f1sv4nzn014lon)" height="39.0679" style="stroke: #A80036; stroke-width: 1.5;" width="53" x="556.5" y="719.5158"/><rect fill="#FEFECE" height="5" style="stroke: #A80036; stroke-width: 1.5;" width="10" x="551.5" y="724.5158"/><rect fill="#FEFECE" height="5" style="stroke: #A80036; stroke-width: 1.5;" width="10" x="551.5" y="748.5838"/><text fill="#000000" font-family="Monospace" font-size="14" lengthAdjust="spacingAndGlyphs" textLength="33" x="566.5" y="744.4818">Job 1</text><!--MD5=[ad1ecd006b7d6e2fcd722d0410ebc487]
entity Job2--><rect fill="#FEFECE" filter="url(#f1sv4nzn014lon)" height="39.0679" style="stroke: #A80036; stroke-width: 1.5;" width="53" x="670.5" y="719.5158"/><rect fill="#FEFECE" height="5" style="stroke: #A80036; stroke-width: 1.5;" width="10" x="665.5" y="724.5158"/><rect fill="#FEFECE" height="5" style="stroke: #A80036; stroke-width: 1.5;" width="10" x="665.5" y="748.5838"/><text fill="#000000" font-family="Monospace" font-size="14" lengthAdjust="spacingAndGlyphs" textLength="33" x="680.5" y="744.4818">Job 2</text><!--MD5=[0ab1b686e84364c8109e522a8c779fa1]
entity Job3--><rect fill="#FEFECE" filter="url(#f1sv4nzn014lon)" height="39.0679" style="stroke: #A80036; stroke-width: 1.5;" width="53" x="817.5" y="719.5158"/><rect fill="#FEFECE" height="5" style="stroke: #A80036; stroke-width: 1.5;" width="10" x="812.5" y="724.5158"/><rect fill="#FEFECE" height="5" style="stroke: #A80036; stroke-width: 1.5;" width="10" x="812.5" y="748.5838"/><text fill="#000000" font-family="Monospace" font-size="14" lengthAdjust="spacingAndGlyphs" textLength="33" x="827.5" y="744.4818">Job 3</text><!--MD5=[35c1068cf10654a3a88a78f31c30ad7d]
link GUI to CLI--><path d="M272.14,195.8158 C274.52,217.2358 277.8,246.7158 280.31,269.2658 " fill="none" id="GUI-&gt;CLI" style="stroke: #A80036; stroke-width: 1.0;"/><polygon fill="#A80036" points="280.86,274.2558,283.8328,264.8663,280.3031,269.287,275.8825,265.7573,280.86,274.2558" style="stroke: #A80036; stroke-width: 1.0;"/><text fill="#000000" font-family="Monospace" font-size="13" lengthAdjust="spacingAndGlyphs" textLength="119" x="278" y="240.4129">Generate command</text><!--MD5=[bb07170366ce939dcc727915865a8aad]
link CLI to LocalCore--><path d="M267.8,332.6658 C245.29,371.7858 204.63,442.4458 180.8,483.8458 " fill="none" id="CLI-&gt;LocalCore" style="stroke: #A80036; stroke-width: 1.0;"/><polygon fill="#A80036" points="178.27,488.2458,186.2123,482.4218,180.7538,483.9064,179.2692,478.4478,178.27,488.2458" style="stroke: #A80036; stroke-width: 1.0;"/><text fill="#000000" font-family="Monospace" font-size="13" lengthAdjust="spacingAndGlyphs" textLength="24" x="248" y="379.4129">Run</text><!--MD5=[9f1487abe7b3198f33c8c149ef1ca271]
link LocalCore to LocalJobs--><path d="M161.74,546.7658 C161.37,587.2658 160.7,661.6858 160.3,704.7858 " fill="none" id="LocalCore-&gt;LocalJobs" style="stroke: #A80036; stroke-width: 1.0;"/><polygon fill="#A80036" points="160.26,709.8758,164.337,700.9105,160.3029,704.876,156.3373,700.8419,160.26,709.8758" style="stroke: #A80036; stroke-width: 1.0;"/><!--MD5=[d02376264a213b415368d6b94b42bd88]
link LocalJobs to LocalRuns--><path d="M158.4,768.2958 C156.32,805.1558 152.69,869.2358 150.61,906.1358 " fill="none" id="LocalJobs-&gt;LocalRuns" style="stroke: #A80036; stroke-width: 1.0;"/><polygon fill="#A80036" points="150.31,911.3758,154.8169,902.6187,150.5952,906.384,146.83,902.1623,150.31,911.3758" style="stroke: #A80036; stroke-width: 1.0;"/><text fill="#000000" font-family="Monospace" font-size="13" lengthAdjust="spacingAndGlyphs" textLength="73" x="156" y="829.4129">write results</text><!--MD5=[c2e1da8537ad2bd9152054719f918e4d]
link LocalCore to OmniOptServer--><path d="M185.73,546.7258 C198.34,561.4758 214.25,579.7058 229,595.5158 C232.43,599.1958 233.54,599.8658 237,603.5158 C267.9,636.0958 302.03,674.2358 326.14,701.5658 " fill="none" id="LocalCore-&gt;OmniOptServer" style="stroke: #A80036; stroke-width: 1.0;"/><polygon fill="#A80036" points="329.62,705.5158,326.6861,696.1141,326.3204,701.7592,320.6754,701.3935,329.62,705.5158" style="stroke: #A80036; stroke-width: 1.0;"/><text fill="#000000" font-family="Monospace" font-size="13" lengthAdjust="spacingAndGlyphs" textLength="128" x="230" y="591.4129">--live_share (optional)</text><!--MD5=[0771a1fcca9f2fce28c194ddb1b2acf0]
link CLI to HPCMaster--><path d="M323.7,332.6658 C379.55,372.2658 480.96,444.1658 539.03,485.3358 " fill="none" id="CLI-&gt;HPCMaster" style="stroke: #A80036; stroke-width: 1.0;"/><polygon fill="#A80036" points="543.13,488.2458,538.0863,479.7864,539.046,485.3613,533.4711,486.3209,543.13,488.2458" style="stroke: #A80036; stroke-width: 1.0;"/><text fill="#000000" font-family="Monospace" font-size="13" lengthAdjust="spacingAndGlyphs" textLength="87" x="390" y="379.4129">Run via sbatch</text><!--MD5=[d73132a875438189b2b3ce4229eb2a32]
link HPCMaster to Job1--><path d="M583,546.7658 C583,590.4258 583,673.5058 583,714.2658 " fill="none" id="HPCMaster-&gt;Job1" style="stroke: #A80036; stroke-width: 1.0;"/><polygon fill="#A80036" points="583,719.4958,587,710.4958,583,714.4958,579,710.4958,583,719.4958" style="stroke: #A80036; stroke-width: 1.0;"/><text fill="#000000" font-family="Monospace" font-size="13" lengthAdjust="spacingAndGlyphs" textLength="42" x="584" y="591.4129">submit</text><!--MD5=[76de094807e8008348a742240e8dbe38]
link HPCMaster to Job2--><path d="M611.96,546.6558 C620.15,555.6558 628.58,566.0158 635,576.5158 C662.73,621.8758 681.76,681.7358 690.86,714.3458 " fill="none" id="HPCMaster-&gt;Job2" style="stroke: #A80036; stroke-width: 1.0;"/><polygon fill="#A80036" points="692.23,719.3358,693.7186,709.6001,690.9132,714.5124,686.001,711.707,692.23,719.3358" style="stroke: #A80036; stroke-width: 1.0;"/><text fill="#000000" font-family="Monospace" font-size="13" lengthAdjust="spacingAndGlyphs" textLength="42" x="645" y="591.4129">submit</text><!--MD5=[d49c4ab690e9114edc7d2c3d09ac25fe]
link HPCMaster to Job3--><path d="M641.61,542.1758 C673.06,556.7658 711.17,577.6358 740,603.5158 C777.74,637.3958 811.67,686.3758 829.9,714.9358 " fill="none" id="HPCMaster-&gt;Job3" style="stroke: #A80036; stroke-width: 1.0;"/><polygon fill="#A80036" points="832.69,719.3358,831.2648,709.5907,830.0195,715.1087,824.5014,713.8635,832.69,719.3358" style="stroke: #A80036; stroke-width: 1.0;"/><text fill="#000000" font-family="Monospace" font-size="13" lengthAdjust="spacingAndGlyphs" textLength="42" x="729" y="591.4129">submit</text><!--MD5=[09ef9997f49ef322f6289d0c61d9e7d6]
link Job1 to HPCRuns--><path d="M587.03,758.7758 C591.71,778.2858 600.55,809.2958 614,833.5158 C629.36,861.1758 652.75,888.5258 670.95,907.7758 " fill="none" id="Job1-&gt;HPCRuns" style="stroke: #A80036; stroke-width: 1.0;"/><polygon fill="#A80036" points="674.51,911.5158,671.1796,902.2472,671.0539,907.9026,665.3984,907.777,674.51,911.5158" style="stroke: #A80036; stroke-width: 1.0;"/><text fill="#000000" font-family="Monospace" font-size="13" lengthAdjust="spacingAndGlyphs" textLength="73" x="615" y="829.4129">write results</text><!--MD5=[9e9ccac7b93a86b79a8465ea356bbe44]
link Job2 to HPCRuns--><path d="M697.1,758.6658 C697.27,792.8758 697.65,865.8658 697.85,906.2158 " fill="none" id="Job2-&gt;HPCRuns" style="stroke: #A80036; stroke-width: 1.0;"/><polygon fill="#A80036" points="697.88,911.4558,701.8285,902.4331,697.8514,906.4559,693.8286,902.4788,697.88,911.4558" style="stroke: #A80036; stroke-width: 1.0;"/><text fill="#000000" font-family="Monospace" font-size="13" lengthAdjust="spacingAndGlyphs" textLength="73" x="698" y="829.4129">write results</text><!--MD5=[2f5da8988571b9aef107359f0c7664fe]
link Job3 to HPCRuns--><path d="M831.93,758.6058 C819.37,777.6958 798.94,808.1358 780,833.5158 C760.88,859.1358 737.83,887.3058 721.04,907.3758 " fill="none" id="Job3-&gt;HPCRuns" style="stroke: #A80036; stroke-width: 1.0;"/><polygon fill="#A80036" points="717.77,911.2758,726.6125,906.9387,720.9779,907.4406,720.4761,901.806,717.77,911.2758" style="stroke: #A80036; stroke-width: 1.0;"/><text fill="#000000" font-family="Monospace" font-size="13" lengthAdjust="spacingAndGlyphs" textLength="73" x="793" y="829.4129">write results</text><!--MD5=[ee70d8c345acbf1d3b0ab7716904fc71]
link HPCMaster to OmniOptServer--><path d="M524.35,533.3958 C497.74,542.4358 467.32,556.2458 445,576.5158 C407.54,610.5258 383.07,664.5258 369.89,700.5958 " fill="none" id="HPCMaster-&gt;OmniOptServer" style="stroke: #A80036; stroke-width: 1.0;"/><polygon fill="#A80036" points="368.19,705.3458,375.0127,698.243,369.8907,700.644,367.4897,695.5219,368.19,705.3458" style="stroke: #A80036; stroke-width: 1.0;"/><text fill="#000000" font-family="Monospace" font-size="13" lengthAdjust="spacingAndGlyphs" textLength="128" x="446" y="591.4129">--live_share (optional)</text><!--MD5=[1c54a612585d4fc0cf3a0a20de427f50]
@startuml
skinparam componentStyle rectangle
skinparam defaultFontName Monospace

title OmniOpt Architecture

package "OmniOpt Workflow" {

  node "User" {
    component "Web GUI\n(optional)" as GUI
    component "CLI Command\nomniopt ..." as CLI
    GUI - -> CLI : Generate command
  }

  database "OmniOpt Server\n(optional live upload)" as OmniOptServer

  package "Local Mode" {
    node "Local System" {
      component "OmniOpt Core\n(main script)" as LocalCore
      component "Evaluation Jobs\n(sequential)" as LocalJobs
      database "runs/ (local)" as LocalRuns
    }

    CLI - -> LocalCore : Run
    LocalCore - -> LocalJobs
    LocalJobs - -> LocalRuns : write results
    LocalCore - -> OmniOptServer : - -live_share (optional)
  }

  package "HPC Mode (via Submitit)" {

    component "OmniOpt Core\n(main script)" as HPCMaster

    CLI - -> HPCMaster : Run via sbatch

    node "Head Node\n(SBATCH job)" {
      database "runs/ (on file system)" as HPCRuns
    }

    cloud "Compute Nodes\n(parallel jobs)" {
      node "Node 1" {
        component "Job 1" as Job1
      }
      node "Node 2" {
        component "Job 2" as Job2
      }
      node "Node 3" {
        component "Job 3" as Job3
      }
    }

    HPCMaster - -> Job1 : submit
    HPCMaster - -> Job2 : submit
    HPCMaster - -> Job3 : submit

    Job1 - -> HPCRuns : write results
    Job2 - -> HPCRuns : write results
    Job3 - -> HPCRuns : write results

    HPCMaster - -> OmniOptServer : - -live_share (optional)
  }
}

@enduml

PlantUML version 1.2020.02(Sun Mar 01 11:22:07 CET 2020)
(GPL source distribution)
Java Runtime: OpenJDK Runtime Environment
JVM: OpenJDK 64-Bit Server VM
Java Version: 11.0.26+4-post-Debian-1
Operating System: Linux
Default Encoding: UTF-8
Language: de
Country: DE
--></g></svg>