<?xml version="1.0" encoding="UTF-8" standalone="no"?><svg xmlns="http://www.w3.org/2000/svg" xmlns:xlink="http://www.w3.org/1999/xlink" contentScriptType="application/ecmascript" contentStyleType="text/css" height="1035px" preserveAspectRatio="none" style="width:1020px;height:1035px;" version="1.1" viewBox="0 0 1020 1035" width="1020px" zoomAndPan="magnify"><defs><filter height="300%" id="f8nxhy2wmnfhy" width="300%" x="-1" y="-1"><feGaussianBlur result="blurOut" stdDeviation="2.0"/><feColorMatrix in="blurOut" result="blurOut2" type="matrix" values="0 0 0 0 0 0 0 0 0 0 0 0 0 0 0 0 0 0 .4 0"/><feOffset dx="4.0" dy="4.0" in="blurOut2" result="blurOut3"/><feBlend in="SourceGraphic" in2="blurOut3" mode="normal"/></filter></defs><g><text fill="#000000" font-family="Monospace" font-size="18" lengthAdjust="spacingAndGlyphs" textLength="189" x="421.5" y="19.2419">OmniOpt Architecture</text><!--MD5=[758d0d901c426322093f2028ae96ad77]
cluster OmniOpt Workflow--><polygon fill="#FFFFFF" filter="url(#f8nxhy2wmnfhy)" points="22,48.5158,164,48.5158,171,73.5838,998,73.5838,998,1023.5158,22,1023.5158,22,48.5158" style="stroke: #000000; stroke-width: 1.5;"/><line style="stroke: #000000; stroke-width: 1.5;" x1="22" x2="171" y1="73.5838" y2="73.5838"/><text fill="#000000" font-family="Monospace" font-size="14" font-weight="bold" lengthAdjust="spacingAndGlyphs" textLength="136" x="26" y="65.4818">OmniOpt Workflow</text><!--MD5=[d0083cf0b2d9f17e335f85bf9624e57e]
cluster User--><polygon fill="#FFFFFF" filter="url(#f8nxhy2wmnfhy)" points="215,104.5158,225,94.5158,403,94.5158,403,338.5158,393,348.5158,215,348.5158,215,104.5158" style="stroke: #000000; stroke-width: 1.5;"/><line style="stroke: #000000; stroke-width: 1.5;" x1="393" x2="402" y1="104.5158" y2="95.5158"/><line style="stroke: #000000; stroke-width: 1.5;" x1="215" x2="393" y1="104.5158" y2="104.5158"/><line style="stroke: #000000; stroke-width: 1.5;" x1="393" x2="393" y1="104.5158" y2="348.5158"/><text fill="#000000" font-family="Monospace" font-size="14" font-weight="bold" lengthAdjust="spacingAndGlyphs" textLength="32" x="289" y="122.4818">User</text><!--MD5=[068ab849e982e95724e818cf5ecc07ce]
cluster Local Mode--><polygon fill="#FFFFFF" filter="url(#f8nxhy2wmnfhy)" points="46,399.5158,131,399.5158,138,424.5838,261,424.5838,261,999.5158,46,999.5158,46,399.5158" style="stroke: #000000; stroke-width: 1.5;"/><line style="stroke: #000000; stroke-width: 1.5;" x1="46" x2="138" y1="424.5838" y2="424.5838"/><text fill="#000000" font-family="Monospace" font-size="14" font-weight="bold" lengthAdjust="spacingAndGlyphs" textLength="79" x="50" y="416.4818">Local Mode</text><!--MD5=[494d5f1c0bba01068cf8e38a0ae48f2b]
cluster Local System--><polygon fill="#FFFFFF" filter="url(#f8nxhy2wmnfhy)" points="70,455.5158,80,445.5158,237,445.5158,237,965.5158,227,975.5158,70,975.5158,70,455.5158" style="stroke: #000000; stroke-width: 1.5;"/><line style="stroke: #000000; stroke-width: 1.5;" x1="227" x2="236" y1="455.5158" y2="446.5158"/><line style="stroke: #000000; stroke-width: 1.5;" x1="70" x2="227" y1="455.5158" y2="455.5158"/><line style="stroke: #000000; stroke-width: 1.5;" x1="227" x2="227" y1="455.5158" y2="975.5158"/><text fill="#000000" font-family="Monospace" font-size="14" font-weight="bold" lengthAdjust="spacingAndGlyphs" textLength="91" x="104" y="473.4818">Local System</text><!--MD5=[510b2a471b203f0a11a8fcb28c9aac5b]
cluster HPC Mode (via Submitit)--><polygon fill="#FFFFFF" filter="url(#f8nxhy2wmnfhy)" points="455,450.5158,631,450.5158,638,475.5838,974,475.5838,974,999.5158,455,999.5158,455,450.5158" style="stroke: #000000; stroke-width: 1.5;"/><line style="stroke: #000000; stroke-width: 1.5;" x1="455" x2="638" y1="475.5838" y2="475.5838"/><text fill="#000000" font-family="Monospace" font-size="14" font-weight="bold" lengthAdjust="spacingAndGlyphs" textLength="170" x="459" y="467.4818">HPC Mode (via Submitit)</text><!--MD5=[e525c2f3f2ac148df68cd25bb6c0c87e]
cluster Head Node\n(SBATCH job)--><polygon fill="#FFFFFF" filter="url(#f8nxhy2wmnfhy)" points="603,859.5158,613,849.5158,797,849.5158,797,965.5158,787,975.5158,603,975.5158,603,859.5158" style="stroke: #000000; stroke-width: 1.5;"/><line style="stroke: #000000; stroke-width: 1.5;" x1="787" x2="796" y1="859.5158" y2="850.5158"/><line style="stroke: #000000; stroke-width: 1.5;" x1="603" x2="787" y1="859.5158" y2="859.5158"/><line style="stroke: #000000; stroke-width: 1.5;" x1="787" x2="787" y1="859.5158" y2="975.5158"/><text fill="#000000" font-family="Monospace" font-size="14" font-weight="bold" lengthAdjust="spacingAndGlyphs" textLength="77" x="657.5" y="877.4818">Head Node</text><text fill="#000000" font-family="Monospace" font-size="14" font-weight="bold" lengthAdjust="spacingAndGlyphs" textLength="91" x="650.5" y="896.5497">(SBATCH job)</text><!--MD5=[64c81993ea92f63c5dddd5aa5df9ddbf]
cluster Compute Nodes\n(parallel jobs)--><path d="M497.8051,623.372 C509.3083,610.1894 519.8153,605.601 530.9362,623.7758 C537.6203,608.5109 547.1779,604.2872 559.7084,617.9635 C568.537,600.8927 581.9158,603.6748 591.1295,617.5728 C601.0435,604.471 614.3865,600.414 624.0504,617.8426 C632.8026,604.8134 646.7406,603.9868 655.5937,617.7237 C664.8547,601.7891 676.246,598.1618 688.2429,614.998 C698.7126,599.126 711.638,601.9751 718.9556,618.0301 C728.4207,602.3437 741.9172,604.564 751.6052,617.7782 C759.6144,605.0984 771.6645,605.0637 780.0049,617.4023 C790.3119,605.4704 803.4973,607.3125 810.8649,620.95 C818.7557,606.0783 831.4339,603.5135 842.7175,617.1605 C854.5773,602.7112 864.804,605.4761 873.3339,620.6071 C881.1261,605.3282 897.64,604.6499 906.5434,619.3772 C919.6234,604.9929 935.7007,607.2219 942,626.5158 C943.279,624.8935 944.9565,624.8707 946.1079,626.6691 C963.6542,637.0973 964.4625,653.0412 949.6387,666.3497 C969.1385,676.0286 969.8269,693.8554 954.6181,707.7127 C969.6717,720.659 973.4711,736.7809 951.8228,747.124 C968.7211,771.1 961.7759,783.4721 935,790.5158 C938.1305,791.5726 938.6362,794.1495 935.904,796.1473 C926.9108,808.4152 915.7723,811.3684 906.5603,796.3829 C895.5548,813.5034 884.2299,810.8227 872.7585,796.89 C861.3187,809.4513 852.1583,805.1259 844.8697,792.3252 C837.6457,807.1884 823.2816,811.7722 812.2718,796.4079 C801.953,808.152 789.8942,809.3371 781.5279,794.1767 C774.6885,808.4731 760.6395,812.1074 751.4252,796.5731 C741.7093,811.7415 728.2171,810.4926 718.8817,796.1534 C711.6152,810.7768 697.5503,811.411 688.7032,797.8456 C677.1919,812.8765 659.4273,814.3187 651.8208,793.795 C641.4582,806.1777 632.7725,807.5073 623.2613,792.8943 C616.479,807.0105 602.4965,809.5457 593.3335,795.4168 C581.8736,808.9022 568.7327,809.8901 560.7431,791.8314 C553.9888,807.9376 538.0191,806.9175 528.9382,794.4181 C510.6566,809.3876 495.7065,805.3792 487,783.5158 C488.4634,783.4278 488.9064,784.1943 488.3812,785.4944 C466.1169,772.1565 470.0035,758.8431 487.7519,744.8851 C467.5238,737.2188 463.767,724.5775 477.7964,707.7316 C462.7989,693.5714 464.603,679.2321 483.9383,670.7782 C464.6503,649.9033 468.6097,631.6214 494,619.5158 C497.2865,618.7968 498.5956,620.0681 497.8051,623.372 " fill="#FFFFFF" style="stroke: #000000; stroke-width: 1.5;"/><text fill="#000000" font-family="Monospace" font-size="14" font-weight="bold" lengthAdjust="spacingAndGlyphs" textLength="112" x="658.5" y="639.4818">Compute Nodes</text><text fill="#000000" font-family="Monospace" font-size="14" font-weight="bold" lengthAdjust="spacingAndGlyphs" textLength="94" x="667.5" y="658.5497">(parallel jobs)</text><!--MD5=[e43ffac192d08a1890ecb7e4669d9caa]
cluster Node 1--><polygon fill="#FFFFFF" filter="url(#f8nxhy2wmnfhy)" points="503,686.5158,513,676.5158,628,676.5158,628,764.5158,618,774.5158,503,774.5158,503,686.5158" style="stroke: #000000; stroke-width: 1.5;"/><line style="stroke: #000000; stroke-width: 1.5;" x1="618" x2="627" y1="686.5158" y2="677.5158"/><line style="stroke: #000000; stroke-width: 1.5;" x1="503" x2="618" y1="686.5158" y2="686.5158"/><line style="stroke: #000000; stroke-width: 1.5;" x1="618" x2="618" y1="686.5158" y2="774.5158"/><text fill="#000000" font-family="Monospace" font-size="14" font-weight="bold" lengthAdjust="spacingAndGlyphs" textLength="49" x="537" y="704.4818">Node 1</text><!--MD5=[1012076c40eb91780e00e4187d731fa6]
cluster Node 2--><polygon fill="#FFFFFF" filter="url(#f8nxhy2wmnfhy)" points="652,686.5158,662,676.5158,777,676.5158,777,764.5158,767,774.5158,652,774.5158,652,686.5158" style="stroke: #000000; stroke-width: 1.5;"/><line style="stroke: #000000; stroke-width: 1.5;" x1="767" x2="776" y1="686.5158" y2="677.5158"/><line style="stroke: #000000; stroke-width: 1.5;" x1="652" x2="767" y1="686.5158" y2="686.5158"/><line style="stroke: #000000; stroke-width: 1.5;" x1="767" x2="767" y1="686.5158" y2="774.5158"/><text fill="#000000" font-family="Monospace" font-size="14" font-weight="bold" lengthAdjust="spacingAndGlyphs" textLength="49" x="686" y="704.4818">Node 2</text><!--MD5=[578b14f20fa11d93cc4c98de26454446]
cluster Node 3--><polygon fill="#FFFFFF" filter="url(#f8nxhy2wmnfhy)" points="801,686.5158,811,676.5158,926,676.5158,926,764.5158,916,774.5158,801,774.5158,801,686.5158" style="stroke: #000000; stroke-width: 1.5;"/><line style="stroke: #000000; stroke-width: 1.5;" x1="916" x2="925" y1="686.5158" y2="677.5158"/><line style="stroke: #000000; stroke-width: 1.5;" x1="801" x2="916" y1="686.5158" y2="686.5158"/><line style="stroke: #000000; stroke-width: 1.5;" x1="916" x2="916" y1="686.5158" y2="774.5158"/><text fill="#000000" font-family="Monospace" font-size="14" font-weight="bold" lengthAdjust="spacingAndGlyphs" textLength="49" x="835" y="704.4818">Node 3</text><!--MD5=[a703d980dfcc65cc8e9623754057cb67]
entity OmniOptServer--><path d="M277.5,715.5158 C277.5,705.5158 358,705.5158 358,705.5158 C358,705.5158 438.5,705.5158 438.5,715.5158 L438.5,762.6517 C438.5,772.6517 358,772.6517 358,772.6517 C358,772.6517 277.5,772.6517 277.5,762.6517 L277.5,715.5158 " fill="#FEFECE" filter="url(#f8nxhy2wmnfhy)" style="stroke: #000000; stroke-width: 1.5;"/><path d="M277.5,715.5158 C277.5,725.5158 358,725.5158 358,725.5158 C358,725.5158 438.5,725.5158 438.5,715.5158 " fill="none" style="stroke: #000000; stroke-width: 1.5;"/><text fill="#000000" font-family="Monospace" font-size="14" lengthAdjust="spacingAndGlyphs" textLength="109" x="287.5" y="744.4818">OmniOpt Server</text><text fill="#000000" font-family="Monospace" font-size="14" lengthAdjust="spacingAndGlyphs" textLength="141" x="287.5" y="763.5497">(optional live upload)</text><!--MD5=[beb5ad5244d3d849df9473931f7c2e5e]
entity GUI--><rect fill="#FEFECE" filter="url(#f8nxhy2wmnfhy)" height="58.1358" style="stroke: #A80036; stroke-width: 1.5;" width="83" x="231.5" y="137.5158"/><rect fill="#FEFECE" height="5" style="stroke: #A80036; stroke-width: 1.5;" width="10" x="226.5" y="142.5158"/><rect fill="#FEFECE" height="5" style="stroke: #A80036; stroke-width: 1.5;" width="10" x="226.5" y="185.6517"/><text fill="#000000" font-family="Monospace" font-size="14" lengthAdjust="spacingAndGlyphs" textLength="59" x="241.5" y="162.4818">Web GUI</text><text fill="#000000" font-family="Monospace" font-size="14" lengthAdjust="spacingAndGlyphs" textLength="63" x="241.5" y="181.5497">(optional)</text><!--MD5=[df6a39b053164d23cc3ecae9c3484a54]
entity CLI--><rect fill="#FEFECE" filter="url(#f8nxhy2wmnfhy)" height="58.1358" style="stroke: #A80036; stroke-width: 1.5;" width="114" x="231" y="274.5158"/><rect fill="#FEFECE" height="5" style="stroke: #A80036; stroke-width: 1.5;" width="10" x="226" y="279.5158"/><rect fill="#FEFECE" height="5" style="stroke: #A80036; stroke-width: 1.5;" width="10" x="226" y="322.6517"/><text fill="#000000" font-family="Monospace" font-size="14" lengthAdjust="spacingAndGlyphs" textLength="94" x="241" y="299.4818">CLI Command</text><text fill="#000000" font-family="Monospace" font-size="14" lengthAdjust="spacingAndGlyphs" textLength="72" x="241" y="318.5497">omniopt ...</text><!--MD5=[119bd4be733b4c7d33357554b14c3254]
entity LocalCore--><rect fill="#FEFECE" filter="url(#f8nxhy2wmnfhy)" height="58.1358" style="stroke: #A80036; stroke-width: 1.5;" width="117" x="103.5" y="488.5158"/><rect fill="#FEFECE" height="5" style="stroke: #A80036; stroke-width: 1.5;" width="10" x="98.5" y="493.5158"/><rect fill="#FEFECE" height="5" style="stroke: #A80036; stroke-width: 1.5;" width="10" x="98.5" y="536.6517"/><text fill="#000000" font-family="Monospace" font-size="14" lengthAdjust="spacingAndGlyphs" textLength="97" x="113.5" y="513.4818">OmniOpt Core</text><text fill="#000000" font-family="Monospace" font-size="14" lengthAdjust="spacingAndGlyphs" textLength="84" x="113.5" y="532.5497">(main script)</text><!--MD5=[b1863c6cb7af23746dfb5d67ac7a9b6e]
entity LocalJobs--><rect fill="#FEFECE" filter="url(#f8nxhy2wmnfhy)" height="58.1358" style="stroke: #A80036; stroke-width: 1.5;" width="122" x="99" y="710.0158"/><rect fill="#FEFECE" height="5" style="stroke: #A80036; stroke-width: 1.5;" width="10" x="94" y="715.0158"/><rect fill="#FEFECE" height="5" style="stroke: #A80036; stroke-width: 1.5;" width="10" x="94" y="758.1517"/><text fill="#000000" font-family="Monospace" font-size="14" lengthAdjust="spacingAndGlyphs" textLength="102" x="109" y="734.9818">Evaluation Jobs</text><text fill="#000000" font-family="Monospace" font-size="14" lengthAdjust="spacingAndGlyphs" textLength="79" x="109" y="754.0497">(sequential)</text><!--MD5=[feac20ec967ba8193586f5464e6c98c7]
entity LocalRuns--><path d="M99.5,921.5158 C99.5,911.5158 149,911.5158 149,911.5158 C149,911.5158 198.5,911.5158 198.5,921.5158 L198.5,949.5838 C198.5,959.5838 149,959.5838 149,959.5838 C149,959.5838 99.5,959.5838 99.5,949.5838 L99.5,921.5158 " fill="#FEFECE" filter="url(#f8nxhy2wmnfhy)" style="stroke: #000000; stroke-width: 1.5;"/><path d="M99.5,921.5158 C99.5,931.5158 149,931.5158 149,931.5158 C149,931.5158 198.5,931.5158 198.5,921.5158 " fill="none" style="stroke: #000000; stroke-width: 1.5;"/><text fill="#000000" font-family="Monospace" font-size="14" lengthAdjust="spacingAndGlyphs" textLength="79" x="109.5" y="950.4818">runs/ (local)</text><!--MD5=[0ca049598cf64d5a8f9e0a6c16d5d1d0]
entity HPCMaster--><rect fill="#FEFECE" filter="url(#f8nxhy2wmnfhy)" height="58.1358" style="stroke: #A80036; stroke-width: 1.5;" width="117" x="542.5" y="488.5158"/><rect fill="#FEFECE" height="5" style="stroke: #A80036; stroke-width: 1.5;" width="10" x="537.5" y="493.5158"/><rect fill="#FEFECE" height="5" style="stroke: #A80036; stroke-width: 1.5;" width="10" x="537.5" y="536.6517"/><text fill="#000000" font-family="Monospace" font-size="14" lengthAdjust="spacingAndGlyphs" textLength="97" x="552.5" y="513.4818">OmniOpt Core</text><text fill="#000000" font-family="Monospace" font-size="14" lengthAdjust="spacingAndGlyphs" textLength="84" x="552.5" y="532.5497">(main script)</text><!--MD5=[ad168f425ab565e150e1a97e9229db73]
entity HPCRuns--><path d="M619.5,921.5158 C619.5,911.5158 700,911.5158 700,911.5158 C700,911.5158 780.5,911.5158 780.5,921.5158 L780.5,949.5838 C780.5,959.5838 700,959.5838 700,959.5838 C700,959.5838 619.5,959.5838 619.5,949.5838 L619.5,921.5158 " fill="#FEFECE" filter="url(#f8nxhy2wmnfhy)" style="stroke: #000000; stroke-width: 1.5;"/><path d="M619.5,921.5158 C619.5,931.5158 700,931.5158 700,931.5158 C700,931.5158 780.5,931.5158 780.5,921.5158 " fill="none" style="stroke: #000000; stroke-width: 1.5;"/><text fill="#000000" font-family="Monospace" font-size="14" lengthAdjust="spacingAndGlyphs" textLength="141" x="629.5" y="950.4818">runs/ (on head node)</text><!--MD5=[47e052b533fd8425fd8ca2757eeea134]
entity Job1--><rect fill="#FEFECE" filter="url(#f8nxhy2wmnfhy)" height="39.0679" style="stroke: #A80036; stroke-width: 1.5;" width="53" x="558.5" y="719.5158"/><rect fill="#FEFECE" height="5" style="stroke: #A80036; stroke-width: 1.5;" width="10" x="553.5" y="724.5158"/><rect fill="#FEFECE" height="5" style="stroke: #A80036; stroke-width: 1.5;" width="10" x="553.5" y="748.5838"/><text fill="#000000" font-family="Monospace" font-size="14" lengthAdjust="spacingAndGlyphs" textLength="33" x="568.5" y="744.4818">Job 1</text><!--MD5=[ad1ecd006b7d6e2fcd722d0410ebc487]
entity Job2--><rect fill="#FEFECE" filter="url(#f8nxhy2wmnfhy)" height="39.0679" style="stroke: #A80036; stroke-width: 1.5;" width="53" x="671.5" y="719.5158"/><rect fill="#FEFECE" height="5" style="stroke: #A80036; stroke-width: 1.5;" width="10" x="666.5" y="724.5158"/><rect fill="#FEFECE" height="5" style="stroke: #A80036; stroke-width: 1.5;" width="10" x="666.5" y="748.5838"/><text fill="#000000" font-family="Monospace" font-size="14" lengthAdjust="spacingAndGlyphs" textLength="33" x="681.5" y="744.4818">Job 2</text><!--MD5=[0ab1b686e84364c8109e522a8c779fa1]
entity Job3--><rect fill="#FEFECE" filter="url(#f8nxhy2wmnfhy)" height="39.0679" style="stroke: #A80036; stroke-width: 1.5;" width="53" x="817.5" y="719.5158"/><rect fill="#FEFECE" height="5" style="stroke: #A80036; stroke-width: 1.5;" width="10" x="812.5" y="724.5158"/><rect fill="#FEFECE" height="5" style="stroke: #A80036; stroke-width: 1.5;" width="10" x="812.5" y="748.5838"/><text fill="#000000" font-family="Monospace" font-size="14" lengthAdjust="spacingAndGlyphs" textLength="33" x="827.5" y="744.4818">Job 3</text><!--MD5=[35c1068cf10654a3a88a78f31c30ad7d]
link GUI to CLI--><path d="M276.14,195.8158 C278.52,217.2358 281.8,246.7158 284.31,269.2658 " fill="none" id="GUI-&gt;CLI" style="stroke: #A80036; stroke-width: 1.0;"/><polygon fill="#A80036" points="284.86,274.2558,287.8328,264.8663,284.3031,269.287,279.8825,265.7573,284.86,274.2558" style="stroke: #A80036; stroke-width: 1.0;"/><text fill="#000000" font-family="Monospace" font-size="13" lengthAdjust="spacingAndGlyphs" textLength="119" x="282" y="240.4129">Generate command</text><!--MD5=[bb07170366ce939dcc727915865a8aad]
link CLI to LocalCore--><path d="M271.27,332.6658 C248.02,371.7858 206.02,442.4458 181.42,483.8458 " fill="none" id="CLI-&gt;LocalCore" style="stroke: #A80036; stroke-width: 1.0;"/><polygon fill="#A80036" points="178.8,488.2458,186.8382,482.5549,181.3557,483.9483,179.9622,478.4658,178.8,488.2458" style="stroke: #A80036; stroke-width: 1.0;"/><text fill="#000000" font-family="Monospace" font-size="13" lengthAdjust="spacingAndGlyphs" textLength="24" x="251" y="379.4129">Run</text><!--MD5=[9f1487abe7b3198f33c8c149ef1ca271]
link LocalCore to LocalJobs--><path d="M128.54,546.8058 C120.62,555.4458 113.24,565.5758 109,576.5158 C91.95,620.4558 116.25,672.6958 136.8,705.6058 " fill="none" id="LocalCore-&gt;LocalJobs" style="stroke: #A80036; stroke-width: 1.0;"/><polygon fill="#A80036" points="139.54,709.9158,138.0913,700.1741,136.8593,705.6952,131.3382,704.4632,139.54,709.9158" style="stroke: #A80036; stroke-width: 1.0;"/><text fill="#000000" font-family="Monospace" font-size="13" lengthAdjust="spacingAndGlyphs" textLength="59" x="110" y="591.4129">evaluate()</text><!--MD5=[d02376264a213b415368d6b94b42bd88]
link LocalJobs to LocalRuns--><path d="M158.4,768.2958 C156.32,805.1558 152.69,869.2358 150.61,906.1358 " fill="none" id="LocalJobs-&gt;LocalRuns" style="stroke: #A80036; stroke-width: 1.0;"/><polygon fill="#A80036" points="150.31,911.3758,154.8169,902.6187,150.5952,906.384,146.83,902.1623,150.31,911.3758" style="stroke: #A80036; stroke-width: 1.0;"/><text fill="#000000" font-family="Monospace" font-size="13" lengthAdjust="spacingAndGlyphs" textLength="73" x="156" y="829.4129">write results</text><!--MD5=[c2e1da8537ad2bd9152054719f918e4d]
link LocalCore to OmniOptServer--><path d="M187.22,546.7658 C222.45,586.2158 286.42,657.8558 325.28,701.3658 " fill="none" id="LocalCore-&gt;OmniOptServer" style="stroke: #A80036; stroke-width: 1.0;"/><polygon fill="#A80036" points="328.73,705.2358,325.7203,695.8581,325.4002,701.5059,319.7524,701.1858,328.73,705.2358" style="stroke: #A80036; stroke-width: 1.0;"/><text fill="#000000" font-family="Monospace" font-size="13" lengthAdjust="spacingAndGlyphs" textLength="128" x="226" y="591.4129">--live_share (optional)</text><!--MD5=[0771a1fcca9f2fce28c194ddb1b2acf0]
link CLI to HPCMaster--><path d="M329.56,332.6658 C388.03,372.2658 494.18,444.1658 554.97,485.3358 " fill="none" id="CLI-&gt;HPCMaster" style="stroke: #A80036; stroke-width: 1.0;"/><polygon fill="#A80036" points="559.26,488.2458,554.063,479.8798,555.124,485.4362,549.5676,486.4973,559.26,488.2458" style="stroke: #A80036; stroke-width: 1.0;"/><text fill="#000000" font-family="Monospace" font-size="13" lengthAdjust="spacingAndGlyphs" textLength="87" x="399" y="379.4129">Run via sbatch</text><!--MD5=[d73132a875438189b2b3ce4229eb2a32]
link HPCMaster to Job1--><path d="M598.94,546.7658 C595.76,590.4258 589.7,673.5058 586.73,714.2658 " fill="none" id="HPCMaster-&gt;Job1" style="stroke: #A80036; stroke-width: 1.0;"/><polygon fill="#A80036" points="586.35,719.4958,591.0076,710.8179,586.7215,714.5097,583.0297,710.2235,586.35,719.4958" style="stroke: #A80036; stroke-width: 1.0;"/><text fill="#000000" font-family="Monospace" font-size="13" lengthAdjust="spacingAndGlyphs" textLength="42" x="597" y="591.4129">submit</text><!--MD5=[76de094807e8008348a742240e8dbe38]
link HPCMaster to Job2--><path d="M627.48,546.7758 C634.9,555.7758 642.44,566.1158 648,576.5158 C672.42,622.2258 686.94,681.7058 693.6,714.2158 " fill="none" id="HPCMaster-&gt;Job2" style="stroke: #A80036; stroke-width: 1.0;"/><polygon fill="#A80036" points="694.6,719.1958,696.7465,709.5837,693.6139,714.294,688.9036,711.1615,694.6,719.1958" style="stroke: #A80036; stroke-width: 1.0;"/><text fill="#000000" font-family="Monospace" font-size="13" lengthAdjust="spacingAndGlyphs" textLength="42" x="657" y="591.4129">submit</text><!--MD5=[d49c4ab690e9114edc7d2c3d09ac25fe]
link HPCMaster to Job3--><path d="M657.43,546.5358 C674.1,555.4858 692.12,565.8558 708,576.5158 C763.48,613.7658 808.92,679.8658 830.47,714.8358 " fill="none" id="HPCMaster-&gt;Job3" style="stroke: #A80036; stroke-width: 1.0;"/><polygon fill="#A80036" points="833.23,719.3558,831.9673,709.5883,830.6303,715.0849,825.1337,713.7478,833.23,719.3558" style="stroke: #A80036; stroke-width: 1.0;"/><text fill="#000000" font-family="Monospace" font-size="13" lengthAdjust="spacingAndGlyphs" textLength="42" x="731" y="591.4129">submit</text><!--MD5=[09ef9997f49ef322f6289d0c61d9e7d6]
link Job1 to HPCRuns--><path d="M588.76,758.8058 C593.17,778.3258 601.64,809.3458 615,833.5158 C630.28,861.1558 653.74,888.3058 672.15,907.4858 " fill="none" id="Job1-&gt;HPCRuns" style="stroke: #A80036; stroke-width: 1.0;"/><polygon fill="#A80036" points="675.76,911.2158,672.3922,901.9607,672.2893,907.6166,666.6334,907.5138,675.76,911.2158" style="stroke: #A80036; stroke-width: 1.0;"/><text fill="#000000" font-family="Monospace" font-size="13" lengthAdjust="spacingAndGlyphs" textLength="73" x="616" y="829.4129">write results</text><!--MD5=[9e9ccac7b93a86b79a8465ea356bbe44]
link Job2 to HPCRuns--><path d="M698.19,758.6658 C698.54,792.8758 699.29,865.8658 699.71,906.2158 " fill="none" id="Job2-&gt;HPCRuns" style="stroke: #A80036; stroke-width: 1.0;"/><polygon fill="#A80036" points="699.76,911.4558,703.6827,902.4219,699.7171,906.456,695.683,902.4905,699.76,911.4558" style="stroke: #A80036; stroke-width: 1.0;"/><text fill="#000000" font-family="Monospace" font-size="13" lengthAdjust="spacingAndGlyphs" textLength="73" x="699" y="829.4129">write results</text><!--MD5=[2f5da8988571b9aef107359f0c7664fe]
link Job3 to HPCRuns--><path d="M832.13,758.6058 C819.78,777.6958 799.68,808.1358 781,833.5158 C762.14,859.1458 739.37,887.3158 722.78,907.3758 " fill="none" id="Job3-&gt;HPCRuns" style="stroke: #A80036; stroke-width: 1.0;"/><polygon fill="#A80036" points="719.55,911.2758,728.375,906.9033,722.7425,907.4277,722.218,901.7953,719.55,911.2758" style="stroke: #A80036; stroke-width: 1.0;"/><text fill="#000000" font-family="Monospace" font-size="13" lengthAdjust="spacingAndGlyphs" textLength="73" x="794" y="829.4129">write results</text><!--MD5=[ee70d8c345acbf1d3b0ab7716904fc71]
link HPCMaster to OmniOptServer--><path d="M542.46,532.7758 C514.33,541.8158 481.49,555.8058 457,576.5158 C417.1,610.2458 388.6,664.3058 372.71,700.4758 " fill="none" id="HPCMaster-&gt;OmniOptServer" style="stroke: #A80036; stroke-width: 1.0;"/><polygon fill="#A80036" points="370.65,705.2358,377.8969,698.5664,372.6368,700.6475,370.5557,695.3874,370.65,705.2358" style="stroke: #A80036; stroke-width: 1.0;"/><text fill="#000000" font-family="Monospace" font-size="13" lengthAdjust="spacingAndGlyphs" textLength="128" x="458" y="591.4129">--live_share (optional)</text><!--MD5=[f8b14f47dd74a31991dea398407b6aa1]
@startuml
skinparam componentStyle rectangle
skinparam defaultFontName Monospace

title OmniOpt Architecture

package "OmniOpt Workflow" {

  node "User" {
    component "Web GUI\n(optional)" as GUI
    component "CLI Command\nomniopt ..." as CLI
    GUI - -> CLI : Generate command
  }

  database "OmniOpt Server\n(optional live upload)" as OmniOptServer

  package "Local Mode" {
    node "Local System" {
      component "OmniOpt Core\n(main script)" as LocalCore
      component "Evaluation Jobs\n(sequential)" as LocalJobs
      database "runs/ (local)" as LocalRuns
    }

    CLI - -> LocalCore : Run
    LocalCore - -> LocalJobs : evaluate()
    LocalJobs - -> LocalRuns : write results
    LocalCore - -> OmniOptServer : - -live_share (optional)
  }

  package "HPC Mode (via Submitit)" {

    component "OmniOpt Core\n(main script)" as HPCMaster

    CLI - -> HPCMaster : Run via sbatch

    node "Head Node\n(SBATCH job)" {
      database "runs/ (on head node)" as HPCRuns
    }

    cloud "Compute Nodes\n(parallel jobs)" {
      node "Node 1" {
        component "Job 1" as Job1
      }
      node "Node 2" {
        component "Job 2" as Job2
      }
      node "Node 3" {
        component "Job 3" as Job3
      }
    }

    HPCMaster - -> Job1 : submit
    HPCMaster - -> Job2 : submit
    HPCMaster - -> Job3 : submit

    Job1 - -> HPCRuns : write results
    Job2 - -> HPCRuns : write results
    Job3 - -> HPCRuns : write results

    HPCMaster - -> OmniOptServer : - -live_share (optional)
  }
}

@enduml

PlantUML version 1.2020.02(Sun Mar 01 11:22:07 CET 2020)
(GPL source distribution)
Java Runtime: OpenJDK Runtime Environment
JVM: OpenJDK 64-Bit Server VM
Java Version: 11.0.26+4-post-Debian-1
Operating System: Linux
Default Encoding: UTF-8
Language: de
Country: DE
--></g></svg>