<?xml version="1.0" encoding="UTF-8" standalone="no"?><svg xmlns="http://www.w3.org/2000/svg" xmlns:xlink="http://www.w3.org/1999/xlink" contentScriptType="application/ecmascript" contentStyleType="text/css" height="1350px" preserveAspectRatio="none" style="width:1395px;height:1350px;" version="1.1" viewBox="0 0 1395 1350" width="1395px" zoomAndPan="magnify"><defs><filter height="300%" id="fi1v94at117lm" width="300%" x="-1" y="-1"><feGaussianBlur result="blurOut" stdDeviation="2.0"/><feColorMatrix in="blurOut" result="blurOut2" type="matrix" values="0 0 0 0 0 0 0 0 0 0 0 0 0 0 0 0 0 0 .4 0"/><feOffset dx="4.0" dy="4.0" in="blurOut2" result="blurOut3"/><feBlend in="SourceGraphic" in2="blurOut3" mode="normal"/></filter></defs><g><text fill="#000000" font-family="Monospace" font-size="18" lengthAdjust="spacingAndGlyphs" textLength="189" x="609" y="19.2419">OmniOpt Architecture</text><!--MD5=[758d0d901c426322093f2028ae96ad77]
cluster OmniOpt Workflow--><polygon fill="#FFFFFF" filter="url(#fi1v94at117lm)" points="22,48.5158,164,48.5158,171,73.5838,1373,73.5838,1373,1338.5158,22,1338.5158,22,48.5158" style="stroke: #000000; stroke-width: 1.5;"/><line style="stroke: #000000; stroke-width: 1.5;" x1="22" x2="171" y1="73.5838" y2="73.5838"/><text fill="#000000" font-family="Monospace" font-size="14" font-weight="bold" lengthAdjust="spacingAndGlyphs" textLength="136" x="26" y="65.4818">OmniOpt Workflow</text><!--MD5=[d0083cf0b2d9f17e335f85bf9624e57e]
cluster User--><polygon fill="#FFFFFF" filter="url(#fi1v94at117lm)" points="340,104.5158,350,94.5158,456,94.5158,456,201.5158,446,211.5158,340,211.5158,340,104.5158" style="stroke: #000000; stroke-width: 1.5;"/><line style="stroke: #000000; stroke-width: 1.5;" x1="446" x2="455" y1="104.5158" y2="95.5158"/><line style="stroke: #000000; stroke-width: 1.5;" x1="340" x2="446" y1="104.5158" y2="104.5158"/><line style="stroke: #000000; stroke-width: 1.5;" x1="446" x2="446" y1="104.5158" y2="211.5158"/><text fill="#000000" font-family="Monospace" font-size="14" font-weight="bold" lengthAdjust="spacingAndGlyphs" textLength="32" x="378" y="122.4818">User</text><!--MD5=[068ab849e982e95724e818cf5ecc07ce]
cluster Local Mode--><polygon fill="#FFFFFF" filter="url(#fi1v94at117lm)" points="46,607.5158,131,607.5158,138,632.5838,261,632.5838,261,1314.5158,46,1314.5158,46,607.5158" style="stroke: #000000; stroke-width: 1.5;"/><line style="stroke: #000000; stroke-width: 1.5;" x1="46" x2="138" y1="632.5838" y2="632.5838"/><text fill="#000000" font-family="Monospace" font-size="14" font-weight="bold" lengthAdjust="spacingAndGlyphs" textLength="79" x="50" y="624.4818">Local Mode</text><!--MD5=[494d5f1c0bba01068cf8e38a0ae48f2b]
cluster Local System--><polygon fill="#FFFFFF" filter="url(#fi1v94at117lm)" points="70,663.5158,80,653.5158,237,653.5158,237,1280.5158,227,1290.5158,70,1290.5158,70,663.5158" style="stroke: #000000; stroke-width: 1.5;"/><line style="stroke: #000000; stroke-width: 1.5;" x1="227" x2="236" y1="663.5158" y2="654.5158"/><line style="stroke: #000000; stroke-width: 1.5;" x1="70" x2="227" y1="663.5158" y2="663.5158"/><line style="stroke: #000000; stroke-width: 1.5;" x1="227" x2="227" y1="663.5158" y2="1290.5158"/><text fill="#000000" font-family="Monospace" font-size="14" font-weight="bold" lengthAdjust="spacingAndGlyphs" textLength="91" x="104" y="681.4818">Local System</text><!--MD5=[8c9472c44c824e4c2cc3dfcfbb71d530]
cluster HPC Mode (via submitit/sbatch)--><polygon fill="#FFFFFF" filter="url(#fi1v94at117lm)" points="455,393.5158,682,393.5158,689,418.5838,1349,418.5838,1349,964.5158,455,964.5158,455,393.5158" style="stroke: #000000; stroke-width: 1.5;"/><line style="stroke: #000000; stroke-width: 1.5;" x1="455" x2="689" y1="418.5838" y2="418.5838"/><text fill="#000000" font-family="Monospace" font-size="14" font-weight="bold" lengthAdjust="spacingAndGlyphs" textLength="221" x="459" y="410.4818">HPC Mode (via submitit/sbatch)</text><!--MD5=[f47ff5492917336f42ec66f20ec4a271]
cluster HPC--><path d="M498.939,448.6744 C513.023,426.7769 535.7401,429.3761 544.6335,453.7954 C557.0974,430.3959 573.2851,433.4956 587.8806,451.5729 C597.0137,432.1894 618.6058,426.3932 632.6387,445.9396 C651.5972,420.4647 669.583,420.4357 685.9229,448.5437 C696.8464,432.0664 712.2506,431.2623 724.8095,446.5412 C737.0342,423.9192 757.3119,424.8741 771.0729,444.8736 C788.0705,422.5715 802.9404,422.7539 818.3228,446.5299 C830.9535,424.3605 850.462,419.9559 865.7728,443.764 C881.9152,422.4142 902.956,417.5559 917.5352,445.4086 C933.1212,421.812 947.0552,423.6538 963.2794,444.7554 C976.3893,423.1797 996.0348,423.1907 1008.9908,444.9178 C1027.4556,425.7536 1043.5863,427.5768 1053.2724,453.5332 C1066.3963,432.6465 1083.8519,433.6063 1096.6137,453.9142 C1112.1035,431.4586 1132.0222,434.0989 1147,454.5158 C1150.1547,456.2437 1150.4952,458.6348 1147.584,460.9161 C1171.02,472.3843 1173.7053,485.4301 1153.7487,503.2214 C1178.4615,519.1687 1173.2341,538.1545 1151.9142,552.384 C1172.137,565.1827 1174.5878,589.2203 1151.1028,601.2939 C1171.0065,612.651 1176.6324,635.6149 1152.5475,648.3232 C1174.7658,659.5973 1179.0311,682.9678 1154.5015,696.1518 C1178.3045,708.3268 1178.2802,726.6159 1156.989,741.2767 C1179.7404,757.1518 1175.1677,773.5646 1152.8322,785.1697 C1172.9135,802.1515 1174.6201,818.1259 1150.3622,832.8088 C1176.3994,846.6155 1181.3106,867.1418 1155.0118,885.5614 C1169.4912,906.0804 1169.2541,925.9789 1140,932.5158 C1144.0195,932.0407 1146.2783,934.2889 1144.975,938.3515 C1130.029,962.1909 1112.5541,960.281 1096.659,939.3764 C1082.9668,961.5222 1065.2716,962.1508 1049.5541,941.6116 C1035.8358,965.4048 1017.9856,963.4257 1002.4064,943.6243 C985.2637,963.0238 971.5821,959.5044 960.4387,937.5378 C947.6434,961.4025 928.7394,968.8219 909.5734,944.2244 C897.5762,962.3856 879.5042,960.7685 869.7001,941.8651 C857.4387,967.901 834.9343,972.3509 818.8781,945.5125 C805.5216,969.6063 786.7536,968.7704 772.4378,946.4729 C755.2732,965.0069 736.1704,963.3506 724.8477,939.8578 C710.3568,959.6752 694.5701,955.369 682.9615,936.7193 C670.9145,959.7487 655.9678,964.129 637.7465,943.0483 C618.5522,964.2985 604.7248,959.0773 591.538,936.6873 C579.8313,958.6521 559.0194,964.9459 543.3784,940.7961 C518.6697,962.3018 497.896,954.9741 487,925.5158 C490.5645,925.6067 492.0596,928.1949 490.728,931.392 C467.9784,915.2279 464.4781,895.9431 489.486,878.6543 C467.836,864.8492 467.1834,847.479 487.5215,831.9093 C467.9285,816.2518 465.3012,800.5402 487.3966,784.7722 C464.6494,774.4299 465.4509,757.1196 482.565,742.2482 C456.096,731.5534 454.9745,711.7499 474.0653,693.1656 C448.0733,675.4119 454.6645,656.7035 478.2946,643.1454 C457.8157,626.7261 458.5014,611.8508 480.4724,597.4548 C462.9372,582.7935 465.1006,562.5672 488.2604,555.4513 C462.8854,543.0367 465.2204,519.3679 485.9148,504.819 C457.4205,483.5326 468.0038,461.1139 494,447.5158 C496.0329,445.6658 497.9717,445.9815 498.939,448.6744 " fill="#FFFFFF" style="stroke: #000000; stroke-width: 1.5;"/><text fill="#000000" font-family="Monospace" font-size="14" font-weight="bold" lengthAdjust="spacingAndGlyphs" textLength="29" x="802.5" y="467.4818">HPC</text><!--MD5=[4f140ef10277af62a9bbfeabfb64c237]
cluster Head Node--><polygon fill="#FFFFFF" filter="url(#fi1v94at117lm)" points="646,663.5158,656,653.5158,799,653.5158,799,760.5158,789,770.5158,646,770.5158,646,663.5158" style="stroke: #000000; stroke-width: 1.5;"/><line style="stroke: #000000; stroke-width: 1.5;" x1="789" x2="798" y1="663.5158" y2="654.5158"/><line style="stroke: #000000; stroke-width: 1.5;" x1="646" x2="789" y1="663.5158" y2="663.5158"/><line style="stroke: #000000; stroke-width: 1.5;" x1="789" x2="789" y1="663.5158" y2="770.5158"/><text fill="#000000" font-family="Monospace" font-size="14" font-weight="bold" lengthAdjust="spacingAndGlyphs" textLength="77" x="680" y="681.4818">Head Node</text><!--MD5=[7018e2f8ec6c3126037d80ab91f6880d]
cluster Compute Node 1--><polygon fill="#FFFFFF" filter="url(#fi1v94at117lm)" points="503,828.5158,513,818.5158,696,818.5158,696,906.5158,686,916.5158,503,916.5158,503,828.5158" style="stroke: #000000; stroke-width: 1.5;"/><line style="stroke: #000000; stroke-width: 1.5;" x1="686" x2="695" y1="828.5158" y2="819.5158"/><line style="stroke: #000000; stroke-width: 1.5;" x1="503" x2="686" y1="828.5158" y2="828.5158"/><line style="stroke: #000000; stroke-width: 1.5;" x1="686" x2="686" y1="828.5158" y2="916.5158"/><text fill="#000000" font-family="Monospace" font-size="14" font-weight="bold" lengthAdjust="spacingAndGlyphs" textLength="117" x="537" y="846.4818">Compute Node 1</text><!--MD5=[87367e987a291b585b0318bcf694b76e]
cluster Compute Node 2--><polygon fill="#FFFFFF" filter="url(#fi1v94at117lm)" points="720,828.5158,730,818.5158,913,818.5158,913,906.5158,903,916.5158,720,916.5158,720,828.5158" style="stroke: #000000; stroke-width: 1.5;"/><line style="stroke: #000000; stroke-width: 1.5;" x1="903" x2="912" y1="828.5158" y2="819.5158"/><line style="stroke: #000000; stroke-width: 1.5;" x1="720" x2="903" y1="828.5158" y2="828.5158"/><line style="stroke: #000000; stroke-width: 1.5;" x1="903" x2="903" y1="828.5158" y2="916.5158"/><text fill="#000000" font-family="Monospace" font-size="14" font-weight="bold" lengthAdjust="spacingAndGlyphs" textLength="117" x="754" y="846.4818">Compute Node 2</text><!--MD5=[611865159834dcb625bf3423a333d68b]
cluster Compute Node n--><polygon fill="#FFFFFF" filter="url(#fi1v94at117lm)" points="937,828.5158,947,818.5158,1131,818.5158,1131,906.5158,1121,916.5158,937,916.5158,937,828.5158" style="stroke: #000000; stroke-width: 1.5;"/><line style="stroke: #000000; stroke-width: 1.5;" x1="1121" x2="1130" y1="828.5158" y2="819.5158"/><line style="stroke: #000000; stroke-width: 1.5;" x1="937" x2="1121" y1="828.5158" y2="828.5158"/><line style="stroke: #000000; stroke-width: 1.5;" x1="1121" x2="1121" y1="828.5158" y2="916.5158"/><text fill="#000000" font-family="Monospace" font-size="14" font-weight="bold" lengthAdjust="spacingAndGlyphs" textLength="118" x="971" y="846.4818">Compute Node n</text><!--MD5=[df6a39b053164d23cc3ecae9c3484a54]
entity CLI--><rect fill="#FEFECE" filter="url(#fi1v94at117lm)" height="58.1358" style="stroke: #A80036; stroke-width: 1.5;" width="114" x="341" y="273.5158"/><rect fill="#FEFECE" height="5" style="stroke: #A80036; stroke-width: 1.5;" width="10" x="336" y="278.5158"/><rect fill="#FEFECE" height="5" style="stroke: #A80036; stroke-width: 1.5;" width="10" x="336" y="321.6517"/><text fill="#000000" font-family="Monospace" font-size="14" lengthAdjust="spacingAndGlyphs" textLength="94" x="351" y="298.4818">CLI Command</text><text fill="#000000" font-family="Monospace" font-size="14" lengthAdjust="spacingAndGlyphs" textLength="72" x="351" y="317.5497">omniopt ...</text><!--MD5=[a703d980dfcc65cc8e9623754057cb67]
entity OmniOptServer--><path d="M277.5,857.5158 C277.5,847.5158 358,847.5158 358,847.5158 C358,847.5158 438.5,847.5158 438.5,857.5158 L438.5,904.6517 C438.5,914.6517 358,914.6517 358,914.6517 C358,914.6517 277.5,914.6517 277.5,904.6517 L277.5,857.5158 " fill="#FEFECE" filter="url(#fi1v94at117lm)" style="stroke: #000000; stroke-width: 1.5;"/><path d="M277.5,857.5158 C277.5,867.5158 358,867.5158 358,867.5158 C358,867.5158 438.5,867.5158 438.5,857.5158 " fill="none" style="stroke: #000000; stroke-width: 1.5;"/><text fill="#000000" font-family="Monospace" font-size="14" lengthAdjust="spacingAndGlyphs" textLength="109" x="287.5" y="886.4818">OmniOpt Server</text><text fill="#000000" font-family="Monospace" font-size="14" lengthAdjust="spacingAndGlyphs" textLength="141" x="287.5" y="905.5497">(optional live upload)</text><!--MD5=[beb5ad5244d3d849df9473931f7c2e5e]
entity GUI--><rect fill="#FEFECE" filter="url(#fi1v94at117lm)" height="58.1358" style="stroke: #A80036; stroke-width: 1.5;" width="83" x="356.5" y="137.5158"/><rect fill="#FEFECE" height="5" style="stroke: #A80036; stroke-width: 1.5;" width="10" x="351.5" y="142.5158"/><rect fill="#FEFECE" height="5" style="stroke: #A80036; stroke-width: 1.5;" width="10" x="351.5" y="185.6517"/><text fill="#000000" font-family="Monospace" font-size="14" lengthAdjust="spacingAndGlyphs" textLength="59" x="366.5" y="162.4818">Web GUI</text><text fill="#000000" font-family="Monospace" font-size="14" lengthAdjust="spacingAndGlyphs" textLength="63" x="366.5" y="181.5497">(optional)</text><!--MD5=[119bd4be733b4c7d33357554b14c3254]
entity LocalCore--><rect fill="#FEFECE" filter="url(#fi1v94at117lm)" height="58.1358" style="stroke: #A80036; stroke-width: 1.5;" width="117" x="103.5" y="696.5158"/><rect fill="#FEFECE" height="5" style="stroke: #A80036; stroke-width: 1.5;" width="10" x="98.5" y="701.5158"/><rect fill="#FEFECE" height="5" style="stroke: #A80036; stroke-width: 1.5;" width="10" x="98.5" y="744.6517"/><text fill="#000000" font-family="Monospace" font-size="14" lengthAdjust="spacingAndGlyphs" textLength="97" x="113.5" y="721.4818">OmniOpt Core</text><text fill="#000000" font-family="Monospace" font-size="14" lengthAdjust="spacingAndGlyphs" textLength="84" x="113.5" y="740.5497">(main script)</text><!--MD5=[d2fc6cf2bce407d526ef15191755a4fd]
entity LocalJobs1--><rect fill="#FEFECE" filter="url(#fi1v94at117lm)" height="39.0679" style="stroke: #A80036; stroke-width: 1.5;" width="62" x="126" y="861.5158"/><rect fill="#FEFECE" height="5" style="stroke: #A80036; stroke-width: 1.5;" width="10" x="121" y="866.5158"/><rect fill="#FEFECE" height="5" style="stroke: #A80036; stroke-width: 1.5;" width="10" x="121" y="890.5838"/><text fill="#000000" font-family="Monospace" font-size="14" lengthAdjust="spacingAndGlyphs" textLength="42" x="136" y="886.4818">Job #1</text><!--MD5=[e40594d447fda55db88d25f62754828c]
entity LocalJobs2--><rect fill="#FEFECE" filter="url(#fi1v94at117lm)" height="39.0679" style="stroke: #A80036; stroke-width: 1.5;" width="62" x="124" y="1011.5158"/><rect fill="#FEFECE" height="5" style="stroke: #A80036; stroke-width: 1.5;" width="10" x="119" y="1016.5158"/><rect fill="#FEFECE" height="5" style="stroke: #A80036; stroke-width: 1.5;" width="10" x="119" y="1040.5838"/><text fill="#000000" font-family="Monospace" font-size="14" lengthAdjust="spacingAndGlyphs" textLength="42" x="134" y="1036.4818">Job #2</text><!--MD5=[56b844404ccb3c9080fe51c1c814a144]
entity LocalJobs3--><rect fill="#FEFECE" filter="url(#fi1v94at117lm)" height="39.0679" style="stroke: #A80036; stroke-width: 1.5;" width="63" x="122.5" y="1111.5158"/><rect fill="#FEFECE" height="5" style="stroke: #A80036; stroke-width: 1.5;" width="10" x="117.5" y="1116.5158"/><rect fill="#FEFECE" height="5" style="stroke: #A80036; stroke-width: 1.5;" width="10" x="117.5" y="1140.5838"/><text fill="#000000" font-family="Monospace" font-size="14" lengthAdjust="spacingAndGlyphs" textLength="43" x="132.5" y="1136.4818">Job #n</text><!--MD5=[feac20ec967ba8193586f5464e6c98c7]
entity LocalRuns--><path d="M104.5,1236.5158 C104.5,1226.5158 154,1226.5158 154,1226.5158 C154,1226.5158 203.5,1226.5158 203.5,1236.5158 L203.5,1264.5838 C203.5,1274.5838 154,1274.5838 154,1274.5838 C154,1274.5838 104.5,1274.5838 104.5,1264.5838 L104.5,1236.5158 " fill="#FEFECE" filter="url(#fi1v94at117lm)" style="stroke: #000000; stroke-width: 1.5;"/><path d="M104.5,1236.5158 C104.5,1246.5158 154,1246.5158 154,1246.5158 C154,1246.5158 203.5,1246.5158 203.5,1236.5158 " fill="none" style="stroke: #000000; stroke-width: 1.5;"/><text fill="#000000" font-family="Monospace" font-size="14" lengthAdjust="spacingAndGlyphs" textLength="79" x="114.5" y="1265.4818">runs/ (local)</text><!--MD5=[ad168f425ab565e150e1a97e9229db73]
entity HPCRuns--><path d="M1171.5,867.0158 C1171.5,857.0158 1252,857.0158 1252,857.0158 C1252,857.0158 1332.5,857.0158 1332.5,867.0158 L1332.5,895.0838 C1332.5,905.0838 1252,905.0838 1252,905.0838 C1252,905.0838 1171.5,905.0838 1171.5,895.0838 L1171.5,867.0158 " fill="#FEFECE" filter="url(#fi1v94at117lm)" style="stroke: #000000; stroke-width: 1.5;"/><path d="M1171.5,867.0158 C1171.5,877.0158 1252,877.0158 1252,877.0158 C1252,877.0158 1332.5,877.0158 1332.5,867.0158 " fill="none" style="stroke: #000000; stroke-width: 1.5;"/><text fill="#000000" font-family="Monospace" font-size="14" lengthAdjust="spacingAndGlyphs" textLength="141" x="1181.5" y="895.9818">runs/ (on file system)</text><!--MD5=[1e30e967108d4cd087a1e501a36a7024]
entity LoginNode--><polygon fill="#FEFECE" filter="url(#fi1v94at117lm)" points="577.5,487.5158,587.5,477.5158,702.5,477.5158,702.5,535.6517,692.5,545.6517,577.5,545.6517,577.5,487.5158" style="stroke: #000000; stroke-width: 1.5;"/><line style="stroke: #000000; stroke-width: 1.5;" x1="692.5" x2="701.5" y1="487.5158" y2="478.5158"/><line style="stroke: #000000; stroke-width: 1.5;" x1="577.5" x2="692.5" y1="487.5158" y2="487.5158"/><line style="stroke: #000000; stroke-width: 1.5;" x1="692.5" x2="692.5" y1="487.5158" y2="545.6517"/><text fill="#000000" font-family="Monospace" font-size="14" lengthAdjust="spacingAndGlyphs" textLength="77" x="592.5" y="512.4818">Login Node</text><text fill="#000000" font-family="Monospace" font-size="14" lengthAdjust="spacingAndGlyphs" textLength="85" x="592.5" y="531.5497">(sbatch only)</text><!--MD5=[0ca049598cf64d5a8f9e0a6c16d5d1d0]
entity HPCMaster--><rect fill="#FEFECE" filter="url(#fi1v94at117lm)" height="58.1358" style="stroke: #A80036; stroke-width: 1.5;" width="117" x="663.5" y="696.5158"/><rect fill="#FEFECE" height="5" style="stroke: #A80036; stroke-width: 1.5;" width="10" x="658.5" y="701.5158"/><rect fill="#FEFECE" height="5" style="stroke: #A80036; stroke-width: 1.5;" width="10" x="658.5" y="744.6517"/><text fill="#000000" font-family="Monospace" font-size="14" lengthAdjust="spacingAndGlyphs" textLength="97" x="673.5" y="721.4818">OmniOpt Core</text><text fill="#000000" font-family="Monospace" font-size="14" lengthAdjust="spacingAndGlyphs" textLength="84" x="673.5" y="740.5497">(main script)</text><!--MD5=[47e052b533fd8425fd8ca2757eeea134]
entity Job1--><rect fill="#FEFECE" filter="url(#fi1v94at117lm)" height="39.0679" style="stroke: #A80036; stroke-width: 1.5;" width="62" x="548" y="861.5158"/><rect fill="#FEFECE" height="5" style="stroke: #A80036; stroke-width: 1.5;" width="10" x="543" y="866.5158"/><rect fill="#FEFECE" height="5" style="stroke: #A80036; stroke-width: 1.5;" width="10" x="543" y="890.5838"/><text fill="#000000" font-family="Monospace" font-size="14" lengthAdjust="spacingAndGlyphs" textLength="42" x="558" y="886.4818">Job #1</text><!--MD5=[ad1ecd006b7d6e2fcd722d0410ebc487]
entity Job2--><rect fill="#FEFECE" filter="url(#fi1v94at117lm)" height="39.0679" style="stroke: #A80036; stroke-width: 1.5;" width="62" x="752" y="861.5158"/><rect fill="#FEFECE" height="5" style="stroke: #A80036; stroke-width: 1.5;" width="10" x="747" y="866.5158"/><rect fill="#FEFECE" height="5" style="stroke: #A80036; stroke-width: 1.5;" width="10" x="747" y="890.5838"/><text fill="#000000" font-family="Monospace" font-size="14" lengthAdjust="spacingAndGlyphs" textLength="42" x="762" y="886.4818">Job #2</text><!--MD5=[0ab1b686e84364c8109e522a8c779fa1]
entity Job3--><rect fill="#FEFECE" filter="url(#fi1v94at117lm)" height="39.0679" style="stroke: #A80036; stroke-width: 1.5;" width="63" x="956.5" y="861.5158"/><rect fill="#FEFECE" height="5" style="stroke: #A80036; stroke-width: 1.5;" width="10" x="951.5" y="866.5158"/><rect fill="#FEFECE" height="5" style="stroke: #A80036; stroke-width: 1.5;" width="10" x="951.5" y="890.5838"/><text fill="#000000" font-family="Monospace" font-size="14" lengthAdjust="spacingAndGlyphs" textLength="43" x="966.5" y="886.4818">Job #n</text><!--MD5=[35c1068cf10654a3a88a78f31c30ad7d]
link GUI to CLI--><path d="M398,195.6058 C398,216.7758 398,245.8858 398,268.2258 " fill="none" id="GUI-&gt;CLI" style="stroke: #A80036; stroke-width: 1.0; stroke-dasharray: 7.0,7.0;"/><polygon fill="#A80036" points="398,273.4658,402,264.4658,398,268.4658,394,264.4658,398,273.4658" style="stroke: #A80036; stroke-width: 1.0;"/><text fill="#000000" font-family="Monospace" font-size="11" lengthAdjust="spacingAndGlyphs" textLength="103" x="399" y="240.2748">Generate command</text><!--MD5=[bb07170366ce939dcc727915865a8aad]
link CLI to LocalCore--><path d="M382.15,331.7958 C340,406.9858 225.29,611.6058 180.38,691.7258 " fill="none" id="CLI-&gt;LocalCore" style="stroke: #A80036; stroke-width: 1.0;"/><polygon fill="#A80036" points="177.78,696.3658,185.6704,690.4716,180.2252,692.0045,178.6923,686.5593,177.78,696.3658" style="stroke: #A80036; stroke-width: 1.0;"/><text fill="#000000" font-family="Monospace" font-size="11" lengthAdjust="spacingAndGlyphs" textLength="21" x="351" y="516.2748">Run</text><!--MD5=[c27c3c7b98a2dd3503e29f99b530e9bd]
link LocalCore to LocalJobs1--><path d="M161.08,754.6658 C160.14,783.7158 158.68,828.5458 157.78,855.9858 " fill="none" id="LocalCore-&gt;LocalJobs1" style="stroke: #A80036; stroke-width: 1.0;"/><polygon fill="#A80036" points="157.61,861.2258,161.8915,852.3563,157.7675,856.2283,153.8955,852.1043,157.61,861.2258" style="stroke: #A80036; stroke-width: 1.0;"/><!--MD5=[d01e2fbc9967036337eedae7337f61ea]
link LocalJobs1 to LocalJobs2--><path d="M156.75,900.7558 C156.38,927.5558 155.72,976.8258 155.32,1006.1858 " fill="none" id="LocalJobs1-&gt;LocalJobs2" style="stroke: #A80036; stroke-width: 1.0;"/><polygon fill="#A80036" points="155.25,1011.4258,159.3782,1002.4839,155.3214,1006.4264,151.379,1002.3696,155.25,1011.4258" style="stroke: #A80036; stroke-width: 1.0;"/><!--MD5=[8318b7c12ef90802bd16e5fa1c392597]
link LocalJobs2 to LocalJobs3--><path d="M154.81,1050.9158 C154.65,1066.7358 154.41,1089.4058 154.24,1106.4258 " fill="none" id="LocalJobs2-&gt;LocalJobs3" style="stroke: #A80036; stroke-width: 1.0;"/><polygon fill="#A80036" points="154.19,1111.5058,158.267,1102.5405,154.2329,1106.506,150.2673,1102.4719,154.19,1111.5058" style="stroke: #A80036; stroke-width: 1.0;"/><!--MD5=[ca851b8c61ec6a7d6bed90f24515cb48]
link LocalJobs3 to LocalRuns--><path d="M154,1150.6358 C154,1169.5658 154,1199.1458 154,1221.0258 " fill="none" id="LocalJobs3-&gt;LocalRuns" style="stroke: #A80036; stroke-width: 1.0;"/><polygon fill="#A80036" points="154,1226.1258,158,1217.1258,154,1221.1258,150,1217.1258,154,1226.1258" style="stroke: #A80036; stroke-width: 1.0;"/><text fill="#000000" font-family="Monospace" font-size="11" lengthAdjust="spacingAndGlyphs" textLength="65" x="155" y="1193.2748">write results</text><!--MD5=[c2e1da8537ad2bd9152054719f918e4d]
link LocalCore to OmniOptServer--><path d="M172.84,754.8358 C180.4,771.0058 192.01,790.4158 208,802.5158 C218.66,810.5858 224.66,805.3658 237,810.5158 C259.55,819.9258 283.12,832.7058 303.4,844.7458 " fill="none" id="LocalCore-&gt;OmniOptServer" style="stroke: #A80036; stroke-width: 1.0;"/><polygon fill="#A80036" points="307.94,847.4658,302.2687,839.4137,303.6488,844.8997,298.1628,846.2797,307.94,847.4658" style="stroke: #A80036; stroke-width: 1.0;"/><text fill="#000000" font-family="Monospace" font-size="11" lengthAdjust="spacingAndGlyphs" textLength="113" x="209" y="799.2748">--live_share (optional)</text><!--MD5=[800e0e0bb90fb898e4eff9c9cad77fdf]
link CLI to LoginNode--><path d="M455.05,319.5658 C492.49,332.4358 540.54,353.6858 574,385.5158 C599.19,409.4858 616.71,445.2058 627.34,472.3358 " fill="none" id="CLI-&gt;LoginNode" style="stroke: #A80036; stroke-width: 1.0;"/><polygon fill="#A80036" points="629.24,477.2958,629.7627,467.4609,627.4547,472.6254,622.2901,470.3174,629.24,477.2958" style="stroke: #A80036; stroke-width: 1.0;"/><text fill="#000000" font-family="Monospace" font-size="11" lengthAdjust="spacingAndGlyphs" textLength="47" x="563" y="374.2748">ssh login</text><!--MD5=[0c619afe08a0a430c7a3ffb1ff1eec8b]
link LoginNode to HPCMaster--><path d="M652.81,545.6358 C668.22,585.4758 693.93,651.9358 709.29,691.6558 " fill="none" id="LoginNode-&gt;HPCMaster" style="stroke: #A80036; stroke-width: 1.0;"/><polygon fill="#A80036" points="711.11,696.3658,711.5702,686.5277,709.295,691.7069,704.1159,689.4317,711.11,696.3658" style="stroke: #A80036; stroke-width: 1.0;"/><text fill="#000000" font-family="Monospace" font-size="11" lengthAdjust="spacingAndGlyphs" textLength="89" x="669" y="588.2748">sbatch command</text><!--MD5=[d73132a875438189b2b3ce4229eb2a32]
link HPCMaster to Job1--><path d="M663.33,727.0658 C618.05,730.9758 558.04,744.4858 527,786.5158 C522.78,792.2358 523.19,796.5158 527,802.5158 C531.47,809.5658 538.02,804.6858 544,810.5158 C557.04,823.2158 566.05,841.8058 571.66,856.5658 " fill="none" id="HPCMaster-&gt;Job1" style="stroke: #A80036; stroke-width: 1.0;"/><polygon fill="#A80036" points="573.44,861.4058,574.0876,851.5783,571.7141,856.7132,566.5793,854.3397,573.44,861.4058" style="stroke: #A80036; stroke-width: 1.0;"/><text fill="#000000" font-family="Monospace" font-size="11" lengthAdjust="spacingAndGlyphs" textLength="36" x="528" y="799.2748">submit</text><!--MD5=[0361fc0b2f9e0c1d656e25018cbd835c]
link Job1 to HPCMaster--><path d="M586.78,861.1758 C595.77,841.0458 612.03,808.9958 633,786.5158 C643.05,775.7458 655.38,765.9058 667.63,757.4458 " fill="none" id="Job1-&gt;HPCMaster" style="stroke: #A80036; stroke-width: 1.0;"/><polygon fill="#A80036" points="671.77,754.6258,662.0776,756.3744,667.634,757.4354,666.573,762.9919,671.77,754.6258" style="stroke: #A80036; stroke-width: 1.0;"/><text fill="#000000" font-family="Monospace" font-size="11" lengthAdjust="spacingAndGlyphs" textLength="72" x="634" y="799.2748">return results</text><!--MD5=[76de094807e8008348a742240e8dbe38]
link HPCMaster to Job2--><path d="M715.91,754.7258 C713.98,769.3858 713.55,787.3558 719,802.5158 C726.73,824.0158 743.29,843.7858 757.63,857.9858 " fill="none" id="HPCMaster-&gt;Job2" style="stroke: #A80036; stroke-width: 1.0;"/><polygon fill="#A80036" points="761.22,861.4658,757.5548,852.3244,757.6348,857.9807,751.9785,858.0606,761.22,861.4658" style="stroke: #A80036; stroke-width: 1.0;"/><text fill="#000000" font-family="Monospace" font-size="11" lengthAdjust="spacingAndGlyphs" textLength="36" x="720" y="799.2748">submit</text><!--MD5=[dac3ded752d84de080905c6c3483a0d1]
link Job2 to HPCMaster--><path d="M780.57,861.5058 C777.6,842.2058 771.61,811.3558 761,786.5158 C757.05,777.2658 751.69,767.8558 746.22,759.3258 " fill="none" id="Job2-&gt;HPCMaster" style="stroke: #A80036; stroke-width: 1.0;"/><polygon fill="#A80036" points="743.17,754.6758,744.7724,764.3935,745.917,758.8536,751.4569,759.9982,743.17,754.6758" style="stroke: #A80036; stroke-width: 1.0;"/><text fill="#000000" font-family="Monospace" font-size="11" lengthAdjust="spacingAndGlyphs" textLength="72" x="767" y="799.2748">return results</text><!--MD5=[d49c4ab690e9114edc7d2c3d09ac25fe]
link HPCMaster to Job3--><path d="M780.6,752.2758 C802.14,762.3058 826.51,774.3058 848,786.5158 C887.44,808.9258 930.51,838.5258 958.32,858.3658 " fill="none" id="HPCMaster-&gt;Job3" style="stroke: #A80036; stroke-width: 1.0;"/><polygon fill="#A80036" points="962.65,861.4658,957.6598,852.9748,958.5842,858.5556,953.0034,859.48,962.65,861.4658" style="stroke: #A80036; stroke-width: 1.0;"/><text fill="#000000" font-family="Monospace" font-size="11" lengthAdjust="spacingAndGlyphs" textLength="36" x="872" y="799.2748">submit</text><!--MD5=[0b084569a1b025af739eee478835d34a]
link Job3 to HPCMaster--><path d="M973.15,861.4458 C960.82,845.8858 942.95,822.9958 928,802.5158 C922.91,795.5458 923.96,791.6258 917,786.5158 C878.61,758.3258 826.76,743.1958 786.17,735.1858 " fill="none" id="Job3-&gt;HPCMaster" style="stroke: #A80036; stroke-width: 1.0;"/><polygon fill="#A80036" points="780.77,734.1458,788.8551,739.77,785.6804,735.088,790.3625,731.9133,780.77,734.1458" style="stroke: #A80036; stroke-width: 1.0;"/><text fill="#000000" font-family="Monospace" font-size="11" lengthAdjust="spacingAndGlyphs" textLength="72" x="929" y="799.2748">return results</text><!--MD5=[571935b6720c67f63951b3fde5967843]
link HPCMaster to HPCRuns--><path d="M780.61,735.8358 C839.3,745.8358 931.87,763.4558 1010,786.5158 C1074.66,805.6058 1146.43,834.3258 1194.9,854.9058 " fill="none" id="HPCMaster-&gt;HPCRuns" style="stroke: #A80036; stroke-width: 1.0;"/><polygon fill="#A80036" points="1199.51,856.8658,1192.7944,849.6616,1194.9091,854.9083,1189.6624,857.023,1199.51,856.8658" style="stroke: #A80036; stroke-width: 1.0;"/><text fill="#000000" font-family="Monospace" font-size="11" lengthAdjust="spacingAndGlyphs" textLength="65" x="1058" y="799.2748">write results</text><!--MD5=[ee70d8c345acbf1d3b0ab7716904fc71]
link HPCMaster to OmniOptServer--><path d="M663.33,730.9658 C581.89,738.2058 440.06,755.0058 400,786.5158 C382.46,800.3058 372.03,823.0158 365.95,842.5958 " fill="none" id="HPCMaster-&gt;OmniOptServer" style="stroke: #A80036; stroke-width: 1.0;"/><polygon fill="#A80036" points="364.49,847.5058,370.8767,840.0085,365.907,842.7108,363.2047,837.7412,364.49,847.5058" style="stroke: #A80036; stroke-width: 1.0;"/><text fill="#000000" font-family="Monospace" font-size="11" lengthAdjust="spacingAndGlyphs" textLength="113" x="401" y="799.2748">--live_share (optional)</text><!--MD5=[b46931a1cd7aab2379305703ea89c11f]
@startuml
skinparam componentStyle rectangle
skinparam defaultFontName Monospace
skinparam ArrowFontSize 11

title OmniOpt Architecture

package "OmniOpt Workflow" {

  node "User" {
    component "Web GUI\n(optional)" as GUI
  }

  component "CLI Command\nomniopt ..." as CLI

  GUI ..> CLI : Generate command

  database "OmniOpt Server\n(optional live upload)" as OmniOptServer

  package "Local Mode" {
    node "Local System" {
      component "OmniOpt Core\n(main script)" as LocalCore
      component "Job #1" as LocalJobs1
      component "Job #2" as LocalJobs2
      component "Job #n" as LocalJobs3
      database "runs/ (local)" as LocalRuns
    }

    CLI - -> LocalCore : Run
    LocalCore - -> LocalJobs1
    LocalJobs1 - -> LocalJobs2
    LocalJobs2 - -> LocalJobs3
    LocalJobs3 - -> LocalRuns : write results
    LocalCore - -> OmniOptServer : - -live_share (optional)
  }

  package "HPC Mode (via submitit/sbatch)" {

    cloud "HPC" {

      node "Login Node\n(sbatch only)" as LoginNode

      node "Head Node" {
        component "OmniOpt Core\n(main script)" as HPCMaster
      }

      node "Compute Node 1" {
        component "Job #1" as Job1
      }

      node "Compute Node 2" {
        component "Job #2" as Job2
      }

      node "Compute Node n" {
        component "Job #n" as Job3
      }
    }

    database "runs/ (on file system)" as HPCRuns

    CLI - -> LoginNode : ssh login
    LoginNode - -> HPCMaster : sbatch command

    HPCMaster - -> Job1 : submit
    HPCMaster - -> Job2 : submit
    HPCMaster - -> Job3 : submit

    Job1 -down-> HPCMaster : return results
    Job2 -down-> HPCMaster : return results
    Job3 -down-> HPCMaster : return results

    HPCMaster - -> HPCRuns : write results
    HPCMaster - -> OmniOptServer : - -live_share (optional)
  }
}

@enduml

PlantUML version 1.2020.02(Sun Mar 01 11:22:07 CET 2020)
(GPL source distribution)
Java Runtime: OpenJDK Runtime Environment
JVM: OpenJDK 64-Bit Server VM
Java Version: 11.0.26+4-post-Debian-1
Operating System: Linux
Default Encoding: UTF-8
Language: de
Country: DE
--></g></svg>