<?xml version="1.0" encoding="UTF-8" standalone="no"?><svg xmlns="http://www.w3.org/2000/svg" xmlns:xlink="http://www.w3.org/1999/xlink" contentScriptType="application/ecmascript" contentStyleType="text/css" height="990px" preserveAspectRatio="none" style="width:1347px;height:990px;" version="1.1" viewBox="0 0 1347 990" width="1347px" zoomAndPan="magnify"><defs><filter height="300%" id="f5ixdxawircnk" width="300%" x="-1" y="-1"><feGaussianBlur result="blurOut" stdDeviation="2.0"/><feColorMatrix in="blurOut" result="blurOut2" type="matrix" values="0 0 0 0 0 0 0 0 0 0 0 0 0 0 0 0 0 0 .4 0"/><feOffset dx="4.0" dy="4.0" in="blurOut2" result="blurOut3"/><feBlend in="SourceGraphic" in2="blurOut3" mode="normal"/></filter></defs><g><text fill="#000000" font-family="Monospace" font-size="18" lengthAdjust="spacingAndGlyphs" textLength="189" x="585" y="19.2419">OmniOpt Architecture</text><!--MD5=[758d0d901c426322093f2028ae96ad77]
cluster OmniOpt Workflow--><polygon fill="#FFFFFF" filter="url(#f5ixdxawircnk)" points="22,49.0158,164,49.0158,171,74.0838,1325,74.0838,1325,978.5158,22,978.5158,22,49.0158" style="stroke: #000000; stroke-width: 1.5;"/><line style="stroke: #000000; stroke-width: 1.5;" x1="22" x2="171" y1="74.0838" y2="74.0838"/><text fill="#000000" font-family="Monospace" font-size="14" font-weight="bold" lengthAdjust="spacingAndGlyphs" textLength="136" x="26" y="65.9818">OmniOpt Workflow</text><!--MD5=[d0083cf0b2d9f17e335f85bf9624e57e]
cluster User--><polygon fill="#FFFFFF" filter="url(#f5ixdxawircnk)" points="266,105.0158,276,95.0158,454,95.0158,454,339.0158,444,349.0158,266,349.0158,266,105.0158" style="stroke: #000000; stroke-width: 1.5;"/><line style="stroke: #000000; stroke-width: 1.5;" x1="444" x2="453" y1="105.0158" y2="96.0158"/><line style="stroke: #000000; stroke-width: 1.5;" x1="266" x2="444" y1="105.0158" y2="105.0158"/><line style="stroke: #000000; stroke-width: 1.5;" x1="444" x2="444" y1="105.0158" y2="349.0158"/><text fill="#000000" font-family="Monospace" font-size="14" font-weight="bold" lengthAdjust="spacingAndGlyphs" textLength="32" x="340" y="122.9818">User</text><!--MD5=[71c9734364f573e28405006c64e19638]
cluster Execution Modes--><polygon fill="#FFFFFF" filter="url(#f5ixdxawircnk)" points="46,400.0158,170,400.0158,177,425.0838,982,425.0838,982,849.5158,46,849.5158,46,400.0158" style="stroke: #000000; stroke-width: 1.5;"/><line style="stroke: #000000; stroke-width: 1.5;" x1="46" x2="177" y1="425.0838" y2="425.0838"/><text fill="#000000" font-family="Monospace" font-size="14" font-weight="bold" lengthAdjust="spacingAndGlyphs" textLength="118" x="50" y="416.9818">Execution Modes</text><!--MD5=[068ab849e982e95724e818cf5ecc07ce]
cluster Local Mode--><polygon fill="#FFFFFF" filter="url(#f5ixdxawircnk)" points="70,552.5158,155,552.5158,162,577.5838,224,577.5838,224,822.5158,70,822.5158,70,552.5158" style="stroke: #000000; stroke-width: 1.5;"/><line style="stroke: #000000; stroke-width: 1.5;" x1="70" x2="162" y1="577.5838" y2="577.5838"/><text fill="#000000" font-family="Monospace" font-size="14" font-weight="bold" lengthAdjust="spacingAndGlyphs" textLength="79" x="74" y="569.4818">Local Mode</text><!--MD5=[510b2a471b203f0a11a8fcb28c9aac5b]
cluster HPC Mode (via Submitit)--><polygon fill="#FFFFFF" filter="url(#f5ixdxawircnk)" points="248,446.0158,424,446.0158,431,471.0838,958,471.0838,958,825.5158,248,825.5158,248,446.0158" style="stroke: #000000; stroke-width: 1.5;"/><line style="stroke: #000000; stroke-width: 1.5;" x1="248" x2="431" y1="471.0838" y2="471.0838"/><text fill="#000000" font-family="Monospace" font-size="14" font-weight="bold" lengthAdjust="spacingAndGlyphs" textLength="170" x="252" y="462.9818">HPC Mode (via Submitit)</text><!--MD5=[e525c2f3f2ac148df68cd25bb6c0c87e]
cluster Head Node\n(SBATCH job)--><polygon fill="#FFFFFF" filter="url(#f5ixdxawircnk)" points="767,538.5158,777,528.5158,934,528.5158,934,654.5158,924,664.5158,767,664.5158,767,538.5158" style="stroke: #000000; stroke-width: 1.5;"/><line style="stroke: #000000; stroke-width: 1.5;" x1="924" x2="933" y1="538.5158" y2="529.5158"/><line style="stroke: #000000; stroke-width: 1.5;" x1="767" x2="924" y1="538.5158" y2="538.5158"/><line style="stroke: #000000; stroke-width: 1.5;" x1="924" x2="924" y1="538.5158" y2="664.5158"/><text fill="#000000" font-family="Monospace" font-size="14" font-weight="bold" lengthAdjust="spacingAndGlyphs" textLength="77" x="808" y="556.4818">Head Node</text><text fill="#000000" font-family="Monospace" font-size="14" font-weight="bold" lengthAdjust="spacingAndGlyphs" textLength="91" x="801" y="575.5497">(SBATCH job)</text><!--MD5=[64c81993ea92f63c5dddd5aa5df9ddbf]
cluster Compute Nodes\n(parallel jobs)--><path d="M290.8051,503.872 C302.3083,490.6894 312.8153,486.101 323.9362,504.2758 C330.6203,489.0109 340.1779,484.7872 352.7084,498.4635 C361.537,481.3927 374.9158,484.1748 384.1295,498.0728 C394.0435,484.971 407.3865,480.914 417.0504,498.3426 C425.8026,485.3134 439.7406,484.4868 448.5937,498.2237 C457.8547,482.2891 469.246,478.6618 481.2429,495.498 C491.7126,479.626 504.638,482.4751 511.9556,498.5301 C521.4207,482.8437 534.9172,485.064 544.6052,498.2782 C552.6144,485.5984 564.6645,485.5637 573.0049,497.9023 C583.3119,485.9704 596.4973,487.8125 603.8649,501.45 C611.7557,486.5783 624.4339,484.0135 635.7175,497.6605 C647.5773,483.2112 657.804,485.9761 666.3339,501.1071 C674.1261,485.8282 690.64,485.1499 699.5434,499.8772 C712.6234,485.4929 728.7007,487.7219 735,507.0158 C736.279,505.3935 737.9565,505.3707 739.1079,507.1691 C756.6542,517.5973 757.4625,533.5412 742.6387,546.8497 C762.1385,556.5286 762.8269,574.3554 747.6181,588.2127 C762.6717,601.159 766.4711,617.2809 744.8228,627.624 C761.7211,651.6 754.7759,663.9721 728,671.0158 C731.1305,672.0726 731.6362,674.6495 728.904,676.6473 C719.9108,688.9152 708.7723,691.8684 699.5603,676.8829 C688.5548,694.0034 677.2299,691.3227 665.7585,677.39 C654.3187,689.9513 645.1583,685.6259 637.8697,672.8252 C630.6457,687.6884 616.2816,692.2722 605.2718,676.9079 C594.953,688.652 582.8942,689.8371 574.5279,674.6767 C567.6885,688.9731 553.6395,692.6074 544.4252,677.0731 C534.7093,692.2415 521.2171,690.9926 511.8817,676.6534 C504.6152,691.2768 490.5503,691.911 481.7032,678.3456 C470.1919,693.3765 452.4273,694.8187 444.8208,674.295 C434.4582,686.6777 425.7725,688.0073 416.2613,673.3943 C409.479,687.5105 395.4965,690.0457 386.3335,675.9168 C374.8736,689.4022 361.7327,690.3901 353.7431,672.3314 C346.9888,688.4376 331.0191,687.4175 321.9382,674.9181 C303.6566,689.8876 288.7065,685.8792 280,664.0158 C281.4634,663.9278 281.9064,664.6943 281.3812,665.9944 C259.1169,652.6565 263.0035,639.3431 280.7519,625.3851 C260.5238,617.7188 256.767,605.0775 270.7964,588.2316 C255.7989,574.0714 257.603,559.7321 276.9383,551.2782 C257.6503,530.4033 261.6097,512.1214 287,500.0158 C290.2865,499.2968 291.5956,500.5681 290.8051,503.872 " fill="#FFFFFF" style="stroke: #000000; stroke-width: 1.5;"/><text fill="#000000" font-family="Monospace" font-size="14" font-weight="bold" lengthAdjust="spacingAndGlyphs" textLength="112" x="451.5" y="519.9818">Compute Nodes</text><text fill="#000000" font-family="Monospace" font-size="14" font-weight="bold" lengthAdjust="spacingAndGlyphs" textLength="94" x="460.5" y="539.0497">(parallel jobs)</text><!--MD5=[e43ffac192d08a1890ecb7e4669d9caa]
cluster Node 1--><polygon fill="#FFFFFF" filter="url(#f5ixdxawircnk)" points="594,567.0158,604,557.0158,719,557.0158,719,645.0158,709,655.0158,594,655.0158,594,567.0158" style="stroke: #000000; stroke-width: 1.5;"/><line style="stroke: #000000; stroke-width: 1.5;" x1="709" x2="718" y1="567.0158" y2="558.0158"/><line style="stroke: #000000; stroke-width: 1.5;" x1="594" x2="709" y1="567.0158" y2="567.0158"/><line style="stroke: #000000; stroke-width: 1.5;" x1="709" x2="709" y1="567.0158" y2="655.0158"/><text fill="#000000" font-family="Monospace" font-size="14" font-weight="bold" lengthAdjust="spacingAndGlyphs" textLength="49" x="628" y="584.9818">Node 1</text><!--MD5=[1012076c40eb91780e00e4187d731fa6]
cluster Node 2--><polygon fill="#FFFFFF" filter="url(#f5ixdxawircnk)" points="445,567.0158,455,557.0158,570,557.0158,570,645.0158,560,655.0158,445,655.0158,445,567.0158" style="stroke: #000000; stroke-width: 1.5;"/><line style="stroke: #000000; stroke-width: 1.5;" x1="560" x2="569" y1="567.0158" y2="558.0158"/><line style="stroke: #000000; stroke-width: 1.5;" x1="445" x2="560" y1="567.0158" y2="567.0158"/><line style="stroke: #000000; stroke-width: 1.5;" x1="560" x2="560" y1="567.0158" y2="655.0158"/><text fill="#000000" font-family="Monospace" font-size="14" font-weight="bold" lengthAdjust="spacingAndGlyphs" textLength="49" x="479" y="584.9818">Node 2</text><!--MD5=[578b14f20fa11d93cc4c98de26454446]
cluster Node 3--><polygon fill="#FFFFFF" filter="url(#f5ixdxawircnk)" points="296,567.0158,306,557.0158,421,557.0158,421,645.0158,411,655.0158,296,655.0158,296,567.0158" style="stroke: #000000; stroke-width: 1.5;"/><line style="stroke: #000000; stroke-width: 1.5;" x1="411" x2="420" y1="567.0158" y2="558.0158"/><line style="stroke: #000000; stroke-width: 1.5;" x1="296" x2="411" y1="567.0158" y2="567.0158"/><line style="stroke: #000000; stroke-width: 1.5;" x1="411" x2="411" y1="567.0158" y2="655.0158"/><text fill="#000000" font-family="Monospace" font-size="14" font-weight="bold" lengthAdjust="spacingAndGlyphs" textLength="49" x="330" y="584.9818">Node 3</text><!--MD5=[0fe05ff2bbc6292038a5e4d4d28e96f7]
entity RunsFolder--><path d="M614,924.5158 C614,914.5158 696,914.5158 696,914.5158 C696,914.5158 778,914.5158 778,924.5158 L778,952.5838 C778,962.5838 696,962.5838 696,962.5838 C696,962.5838 614,962.5838 614,952.5838 L614,924.5158 " fill="#FEFECE" filter="url(#f5ixdxawircnk)" style="stroke: #000000; stroke-width: 1.5;"/><path d="M614,924.5158 C614,934.5158 696,934.5158 696,934.5158 C696,934.5158 778,934.5158 778,924.5158 " fill="none" style="stroke: #000000; stroke-width: 1.5;"/><text fill="#000000" font-family="Monospace" font-size="14" lengthAdjust="spacingAndGlyphs" textLength="144" x="624" y="953.4818">Local 'runs/' directory</text><!--MD5=[a703d980dfcc65cc8e9623754057cb67]
entity OmniOptServer--><path d="M1048.5,754.0158 C1048.5,744.0158 1129,744.0158 1129,744.0158 C1129,744.0158 1209.5,744.0158 1209.5,754.0158 L1209.5,801.1517 C1209.5,811.1517 1129,811.1517 1129,811.1517 C1129,811.1517 1048.5,811.1517 1048.5,801.1517 L1048.5,754.0158 " fill="#FEFECE" filter="url(#f5ixdxawircnk)" style="stroke: #000000; stroke-width: 1.5;"/><path d="M1048.5,754.0158 C1048.5,764.0158 1129,764.0158 1129,764.0158 C1129,764.0158 1209.5,764.0158 1209.5,754.0158 " fill="none" style="stroke: #000000; stroke-width: 1.5;"/><text fill="#000000" font-family="Monospace" font-size="14" lengthAdjust="spacingAndGlyphs" textLength="109" x="1058.5" y="782.9818">OmniOpt Server</text><text fill="#000000" font-family="Monospace" font-size="14" lengthAdjust="spacingAndGlyphs" textLength="141" x="1058.5" y="802.0497">(optional live upload)</text><!--MD5=[beb5ad5244d3d849df9473931f7c2e5e]
entity GUI--><rect fill="#FEFECE" filter="url(#f5ixdxawircnk)" height="58.1358" style="stroke: #A80036; stroke-width: 1.5;" width="83" x="282.5" y="138.0158"/><rect fill="#FEFECE" height="5" style="stroke: #A80036; stroke-width: 1.5;" width="10" x="277.5" y="143.0158"/><rect fill="#FEFECE" height="5" style="stroke: #A80036; stroke-width: 1.5;" width="10" x="277.5" y="186.1517"/><text fill="#000000" font-family="Monospace" font-size="14" lengthAdjust="spacingAndGlyphs" textLength="59" x="292.5" y="162.9818">Web GUI</text><text fill="#000000" font-family="Monospace" font-size="14" lengthAdjust="spacingAndGlyphs" textLength="63" x="292.5" y="182.0497">(optional)</text><!--MD5=[df6a39b053164d23cc3ecae9c3484a54]
entity CLI--><rect fill="#FEFECE" filter="url(#f5ixdxawircnk)" height="58.1358" style="stroke: #A80036; stroke-width: 1.5;" width="114" x="282" y="275.0158"/><rect fill="#FEFECE" height="5" style="stroke: #A80036; stroke-width: 1.5;" width="10" x="277" y="280.0158"/><rect fill="#FEFECE" height="5" style="stroke: #A80036; stroke-width: 1.5;" width="10" x="277" y="323.1517"/><text fill="#000000" font-family="Monospace" font-size="14" lengthAdjust="spacingAndGlyphs" textLength="94" x="292" y="299.9818">CLI Command</text><text fill="#000000" font-family="Monospace" font-size="14" lengthAdjust="spacingAndGlyphs" textLength="72" x="292" y="319.0497">omniopt ...</text><!--MD5=[119bd4be733b4c7d33357554b14c3254]
entity LocalCore--><rect fill="#FEFECE" filter="url(#f5ixdxawircnk)" height="58.1358" style="stroke: #A80036; stroke-width: 1.5;" width="117" x="90.5" y="590.5158"/><rect fill="#FEFECE" height="5" style="stroke: #A80036; stroke-width: 1.5;" width="10" x="85.5" y="595.5158"/><rect fill="#FEFECE" height="5" style="stroke: #A80036; stroke-width: 1.5;" width="10" x="85.5" y="638.6517"/><text fill="#000000" font-family="Monospace" font-size="14" lengthAdjust="spacingAndGlyphs" textLength="97" x="100.5" y="615.4818">OmniOpt Core</text><text fill="#000000" font-family="Monospace" font-size="14" lengthAdjust="spacingAndGlyphs" textLength="84" x="100.5" y="634.5497">(main script)</text><!--MD5=[b1863c6cb7af23746dfb5d67ac7a9b6e]
entity LocalJobs--><rect fill="#FEFECE" filter="url(#f5ixdxawircnk)" height="58.1358" style="stroke: #A80036; stroke-width: 1.5;" width="122" x="86" y="748.5158"/><rect fill="#FEFECE" height="5" style="stroke: #A80036; stroke-width: 1.5;" width="10" x="81" y="753.5158"/><rect fill="#FEFECE" height="5" style="stroke: #A80036; stroke-width: 1.5;" width="10" x="81" y="796.6517"/><text fill="#000000" font-family="Monospace" font-size="14" lengthAdjust="spacingAndGlyphs" textLength="102" x="96" y="773.4818">Evaluation Jobs</text><text fill="#000000" font-family="Monospace" font-size="14" lengthAdjust="spacingAndGlyphs" textLength="79" x="96" y="792.5497">(sequential)</text><!--MD5=[47e052b533fd8425fd8ca2757eeea134]
entity Job1--><ellipse cx="641" cy="777.5158" fill="#FEFECE" filter="url(#f5ixdxawircnk)" rx="8" ry="8" style="stroke: #A80036; stroke-width: 2.0;"/><text fill="#000000" font-family="Monospace" font-size="14" lengthAdjust="spacingAndGlyphs" textLength="29" x="626.5" y="809.4818">Job1</text><!--MD5=[ad1ecd006b7d6e2fcd722d0410ebc487]
entity Job2--><ellipse cx="756" cy="777.5158" fill="#FEFECE" filter="url(#f5ixdxawircnk)" rx="8" ry="8" style="stroke: #A80036; stroke-width: 2.0;"/><text fill="#000000" font-family="Monospace" font-size="14" lengthAdjust="spacingAndGlyphs" textLength="29" x="741.5" y="809.4818">Job2</text><!--MD5=[0ab1b686e84364c8109e522a8c779fa1]
entity Job3--><ellipse cx="866" cy="777.5158" fill="#FEFECE" filter="url(#f5ixdxawircnk)" rx="8" ry="8" style="stroke: #A80036; stroke-width: 2.0;"/><text fill="#000000" font-family="Monospace" font-size="14" lengthAdjust="spacingAndGlyphs" textLength="29" x="851.5" y="809.4818">Job3</text><!--MD5=[0ca049598cf64d5a8f9e0a6c16d5d1d0]
entity HPCMaster--><rect fill="#FEFECE" filter="url(#f5ixdxawircnk)" height="58.1358" style="stroke: #A80036; stroke-width: 1.5;" width="117" x="783.5" y="590.5158"/><rect fill="#FEFECE" height="5" style="stroke: #A80036; stroke-width: 1.5;" width="10" x="778.5" y="595.5158"/><rect fill="#FEFECE" height="5" style="stroke: #A80036; stroke-width: 1.5;" width="10" x="778.5" y="638.6517"/><text fill="#000000" font-family="Monospace" font-size="14" lengthAdjust="spacingAndGlyphs" textLength="97" x="793.5" y="615.4818">OmniOpt Core</text><text fill="#000000" font-family="Monospace" font-size="14" lengthAdjust="spacingAndGlyphs" textLength="84" x="793.5" y="634.5497">(main script)</text><!--MD5=[4d48fbc98fa8667280ca4e4d895d90f3]
entity Job 1--><rect fill="#FEFECE" filter="url(#f5ixdxawircnk)" height="39.0679" style="stroke: #A80036; stroke-width: 1.5;" width="53" x="629.5" y="600.0158"/><rect fill="#FEFECE" height="5" style="stroke: #A80036; stroke-width: 1.5;" width="10" x="624.5" y="605.0158"/><rect fill="#FEFECE" height="5" style="stroke: #A80036; stroke-width: 1.5;" width="10" x="624.5" y="629.0838"/><text fill="#000000" font-family="Monospace" font-size="14" lengthAdjust="spacingAndGlyphs" textLength="33" x="639.5" y="624.9818">Job 1</text><!--MD5=[1d847e0adc6797a3aef125b2bfb9bbbb]
entity Job 2--><rect fill="#FEFECE" filter="url(#f5ixdxawircnk)" height="39.0679" style="stroke: #A80036; stroke-width: 1.5;" width="53" x="480.5" y="600.0158"/><rect fill="#FEFECE" height="5" style="stroke: #A80036; stroke-width: 1.5;" width="10" x="475.5" y="605.0158"/><rect fill="#FEFECE" height="5" style="stroke: #A80036; stroke-width: 1.5;" width="10" x="475.5" y="629.0838"/><text fill="#000000" font-family="Monospace" font-size="14" lengthAdjust="spacingAndGlyphs" textLength="33" x="490.5" y="624.9818">Job 2</text><!--MD5=[319e332f6b017f5166e6a91f470552cb]
entity Job 3--><rect fill="#FEFECE" filter="url(#f5ixdxawircnk)" height="39.0679" style="stroke: #A80036; stroke-width: 1.5;" width="53" x="331.5" y="600.0158"/><rect fill="#FEFECE" height="5" style="stroke: #A80036; stroke-width: 1.5;" width="10" x="326.5" y="605.0158"/><rect fill="#FEFECE" height="5" style="stroke: #A80036; stroke-width: 1.5;" width="10" x="326.5" y="629.0838"/><text fill="#000000" font-family="Monospace" font-size="14" lengthAdjust="spacingAndGlyphs" textLength="33" x="341.5" y="624.9818">Job 3</text><!--MD5=[35c1068cf10654a3a88a78f31c30ad7d]
link GUI to CLI--><path d="M327.14,196.3158 C329.52,217.7358 332.8,247.2158 335.31,269.7658 " fill="none" id="GUI-&gt;CLI" style="stroke: #A80036; stroke-width: 1.0;"/><polygon fill="#A80036" points="335.86,274.7558,338.8328,265.3663,335.3031,269.787,330.8825,266.2573,335.86,274.7558" style="stroke: #A80036; stroke-width: 1.0;"/><text fill="#000000" font-family="Monospace" font-size="13" lengthAdjust="spacingAndGlyphs" textLength="119" x="333" y="240.9129">Generate command</text><!--MD5=[bb07170366ce939dcc727915865a8aad]
link CLI to LocalCore--><path d="M321.97,333.1158 C286.75,391.2358 206.05,524.3758 168.67,586.0558 " fill="none" id="CLI-&gt;LocalCore" style="stroke: #A80036; stroke-width: 1.0;"/><polygon fill="#A80036" points="166.06,590.3658,174.1343,584.7261,168.643,586.0847,167.2844,580.5934,166.06,590.3658" style="stroke: #A80036; stroke-width: 1.0;"/><text fill="#000000" font-family="Monospace" font-size="13" lengthAdjust="spacingAndGlyphs" textLength="24" x="298" y="379.9129">Run</text><!--MD5=[9f1487abe7b3198f33c8c149ef1ca271]
link LocalCore to LocalJobs--><path d="M148.64,648.7658 C148.3,675.3858 147.79,715.2658 147.42,743.3658 " fill="none" id="LocalCore-&gt;LocalJobs" style="stroke: #A80036; stroke-width: 1.0;"/><polygon fill="#A80036" points="147.36,748.4758,151.4626,739.5221,147.4171,743.4762,143.4631,739.4307,147.36,748.4758" style="stroke: #A80036; stroke-width: 1.0;"/><text fill="#000000" font-family="Monospace" font-size="13" lengthAdjust="spacingAndGlyphs" textLength="59" x="149" y="709.9129">evaluate()</text><!--MD5=[222e7d025138e80457aa0a81270aa0fc]
link LocalJobs to RunsFolder--><path d="M174.97,806.5658 C193.98,823.9558 220.56,845.2558 248,857.5158 C365.7,910.1058 515.35,928.1558 608.42,934.3358 " fill="none" id="LocalJobs-&gt;RunsFolder" style="stroke: #A80036; stroke-width: 1.0;"/><polygon fill="#A80036" points="613.64,934.6758,604.9225,930.0927,608.6508,934.347,604.3964,938.0753,613.64,934.6758" style="stroke: #A80036; stroke-width: 1.0;"/><text fill="#000000" font-family="Monospace" font-size="13" lengthAdjust="spacingAndGlyphs" textLength="73" x="318" y="880.4129">write results</text><!--MD5=[0771a1fcca9f2fce28c194ddb1b2acf0]
link CLI to HPCMaster--><path d="M396.21,305.8958 C472.15,309.7558 607.31,326.2258 699,392.0158 C768,441.5258 811.32,535.6458 830.49,585.5458 " fill="none" id="CLI-&gt;HPCMaster" style="stroke: #A80036; stroke-width: 1.0;"/><polygon fill="#A80036" points="832.27,590.2358,832.819,580.4023,830.4972,585.5607,825.3388,583.2388,832.27,590.2358" style="stroke: #A80036; stroke-width: 1.0;"/><text fill="#000000" font-family="Monospace" font-size="13" lengthAdjust="spacingAndGlyphs" textLength="87" x="683" y="379.9129">Run via sbatch</text><!--MD5=[d73132a875438189b2b3ce4229eb2a32]
link HPCMaster to Job1--><path d="M790.91,648.6558 C768.92,661.6658 743.4,677.9958 722,695.0158 C694.37,716.9958 666.22,747.5458 651.49,764.3058 " fill="none" id="HPCMaster-&gt;Job1" style="stroke: #A80036; stroke-width: 1.0;"/><polygon fill="#A80036" points="648.04,768.2558,656.9757,764.1143,651.3315,764.4921,650.9537,758.8479,648.04,768.2558" style="stroke: #A80036; stroke-width: 1.0;"/><text fill="#000000" font-family="Monospace" font-size="13" lengthAdjust="spacingAndGlyphs" textLength="51" x="723" y="709.9129">dispatch</text><!--MD5=[76de094807e8008348a742240e8dbe38]
link HPCMaster to Job2--><path d="M821.32,648.7858 C811.8,662.4058 800.72,679.1858 792,695.0158 C779.26,718.1458 767.5,746.6658 761.08,763.1058 " fill="none" id="HPCMaster-&gt;Job2" style="stroke: #A80036; stroke-width: 1.0;"/><polygon fill="#A80036" points="759.12,768.1858,766.0956,761.2331,760.9226,763.5221,758.6336,758.349,759.12,768.1858" style="stroke: #A80036; stroke-width: 1.0;"/><text fill="#000000" font-family="Monospace" font-size="13" lengthAdjust="spacingAndGlyphs" textLength="51" x="793" y="709.9129">dispatch</text><!--MD5=[d49c4ab690e9114edc7d2c3d09ac25fe]
link HPCMaster to Job3--><path d="M846.35,648.7658 C851.55,682.5558 860.03,737.7358 863.93,763.0558 " fill="none" id="HPCMaster-&gt;Job3" style="stroke: #A80036; stroke-width: 1.0;"/><polygon fill="#A80036" points="864.73,768.2658,867.3212,758.764,863.9729,763.3235,859.4134,759.9753,864.73,768.2658" style="stroke: #A80036; stroke-width: 1.0;"/><text fill="#000000" font-family="Monospace" font-size="13" lengthAdjust="spacingAndGlyphs" textLength="51" x="856" y="709.9129">dispatch</text><!--MD5=[904e30277fcc8997cf0478635dd68304]
link Job1 to RunsFolder--><path d="M638.21,786.6958 C632.43,805.1258 620.85,850.9258 636,884.5158 C640.52,894.5358 647.97,903.4158 656.11,910.9158 " fill="none" id="Job1-&gt;RunsFolder" style="stroke: #A80036; stroke-width: 1.0;"/><polygon fill="#A80036" points="660.15,914.4858,656.0638,905.5247,656.4067,911.1711,650.7602,911.514,660.15,914.4858" style="stroke: #A80036; stroke-width: 1.0;"/><text fill="#000000" font-family="Monospace" font-size="13" lengthAdjust="spacingAndGlyphs" textLength="73" x="637" y="880.4129">write results</text><!--MD5=[99e2869e5be40f7f0495778415f1bce7]
link Job2 to RunsFolder--><path d="M752.94,786.6158 C744.51,808.9658 720.62,872.2758 706.61,909.4058 " fill="none" id="Job2-&gt;RunsFolder" style="stroke: #A80036; stroke-width: 1.0;"/><polygon fill="#A80036" points="704.78,914.2458,711.7112,907.2488,706.5528,909.5707,704.231,904.4123,704.78,914.2458" style="stroke: #A80036; stroke-width: 1.0;"/><text fill="#000000" font-family="Monospace" font-size="13" lengthAdjust="spacingAndGlyphs" textLength="73" x="723" y="880.4129">write results</text><!--MD5=[760d2de45a448f73be221bf2cbc67bb2]
link Job3 to RunsFolder--><path d="M863.19,786.7658 C856.21,806.1758 836.36,855.2658 805,884.5158 C793.15,895.5758 778.56,904.7758 763.95,912.2358 " fill="none" id="Job3-&gt;RunsFolder" style="stroke: #A80036; stroke-width: 1.0;"/><polygon fill="#A80036" points="759.42,914.4958,769.2593,914.0612,763.895,912.2655,765.6907,906.9012,759.42,914.4958" style="stroke: #A80036; stroke-width: 1.0;"/><text fill="#000000" font-family="Monospace" font-size="13" lengthAdjust="spacingAndGlyphs" textLength="73" x="821" y="880.4129">write results</text><!--MD5=[c2e1da8537ad2bd9152054719f918e4d]
link LocalCore to OmniOptServer--><path d="M204.27,648.6258 C235.82,663.1358 276.64,679.3658 315,687.0158 C385.07,700.9858 888.41,678.8258 958,695.0158 C963.55,696.3058 1013.31,720.1358 1057.73,741.6958 " fill="none" id="LocalCore-&gt;OmniOptServer" style="stroke: #A80036; stroke-width: 1.0;"/><polygon fill="#A80036" points="1062.28,743.9058,1055.932,736.3757,1057.7825,741.7213,1052.4368,743.5717,1062.28,743.9058" style="stroke: #A80036; stroke-width: 1.0;"/><text fill="#000000" font-family="Monospace" font-size="13" lengthAdjust="spacingAndGlyphs" textLength="128" x="1000" y="709.9129">--live_share (optional)</text><!--MD5=[ee70d8c345acbf1d3b0ab7716904fc71]
link HPCMaster to OmniOptServer--><path d="M900.66,626.7158 C978.87,636.3258 1110.87,657.7158 1140,695.0158 C1149.55,707.2458 1149.01,723.7858 1145.22,738.7758 " fill="none" id="HPCMaster-&gt;OmniOptServer" style="stroke: #A80036; stroke-width: 1.0;"/><polygon fill="#A80036" points="1143.82,743.7858,1150.1119,736.2088,1145.1766,738.9734,1142.412,734.0382,1143.82,743.7858" style="stroke: #A80036; stroke-width: 1.0;"/><text fill="#000000" font-family="Monospace" font-size="13" lengthAdjust="spacingAndGlyphs" textLength="128" x="1148" y="709.9129">--live_share (optional)</text><!--MD5=[dfe3d7b5f822d5a2800e8be524d9579e]
@startuml
skinparam componentStyle rectangle
skinparam defaultFontName Monospace

title OmniOpt Architecture

package "OmniOpt Workflow" {

  node "User" {
    component "Web GUI\n(optional)" as GUI
    component "CLI Command\nomniopt ..." as CLI
    GUI - -> CLI : Generate command
  }

  database "Local 'runs/' directory" as RunsFolder

  package "Execution Modes" {

    folder "Local Mode" {
      component "OmniOpt Core\n(main script)" as LocalCore
      component "Evaluation Jobs\n(sequential)" as LocalJobs

      CLI - -> LocalCore : Run
      LocalCore - -> LocalJobs : evaluate()
      LocalJobs - -> RunsFolder : write results
    }

    folder "HPC Mode (via Submitit)" {
      node "Head Node\n(SBATCH job)" {
        component "OmniOpt Core\n(main script)" as HPCMaster
      }

      cloud "Compute Nodes\n(parallel jobs)" {
        node "Node 1" {
          component "Job 1"
        }
        node "Node 2" {
          component "Job 2"
        }
        node "Node 3" {
          component "Job 3"
        }
      }

      CLI - -> HPCMaster : Run via sbatch
      HPCMaster - -> Job1 : dispatch
      HPCMaster - -> Job2 : dispatch
      HPCMaster - -> Job3 : dispatch

      Job1 - -> RunsFolder : write results
      Job2 - -> RunsFolder : write results
      Job3 - -> RunsFolder : write results
    }
  }

  database "OmniOpt Server\n(optional live upload)" as OmniOptServer

  LocalCore - -> OmniOptServer : - -live_share (optional)
  HPCMaster - -> OmniOptServer : - -live_share (optional)

}

@enduml

PlantUML version 1.2020.02(Sun Mar 01 11:22:07 CET 2020)
(GPL source distribution)
Java Runtime: OpenJDK Runtime Environment
JVM: OpenJDK 64-Bit Server VM
Java Version: 11.0.26+4-post-Debian-1
Operating System: Linux
Default Encoding: UTF-8
Language: de
Country: DE
--></g></svg>