<?xml version="1.0" encoding="UTF-8" standalone="no"?><svg xmlns="http://www.w3.org/2000/svg" xmlns:xlink="http://www.w3.org/1999/xlink" contentScriptType="application/ecmascript" contentStyleType="text/css" height="1032px" preserveAspectRatio="none" style="width:1394px;height:1032px;" version="1.1" viewBox="0 0 1394 1032" width="1394px" zoomAndPan="magnify"><defs><filter height="300%" id="f1xe9w8ij218cd" width="300%" x="-1" y="-1"><feGaussianBlur result="blurOut" stdDeviation="2.0"/><feColorMatrix in="blurOut" result="blurOut2" type="matrix" values="0 0 0 0 0 0 0 0 0 0 0 0 0 0 0 0 0 0 .4 0"/><feOffset dx="4.0" dy="4.0" in="blurOut2" result="blurOut3"/><feBlend in="SourceGraphic" in2="blurOut3" mode="normal"/></filter></defs><g><text fill="#000000" font-family="Monospace" font-size="18" lengthAdjust="spacingAndGlyphs" textLength="189" x="608.5" y="19.2419">OmniOpt Architecture</text><!--MD5=[758d0d901c426322093f2028ae96ad77]
cluster OmniOpt Workflow--><polygon fill="#FFFFFF" filter="url(#f1xe9w8ij218cd)" points="22,48.5158,164,48.5158,171,73.5838,1372,73.5838,1372,1020.5158,22,1020.5158,22,48.5158" style="stroke: #000000; stroke-width: 1.5;"/><line style="stroke: #000000; stroke-width: 1.5;" x1="22" x2="171" y1="73.5838" y2="73.5838"/><text fill="#000000" font-family="Monospace" font-size="14" font-weight="bold" lengthAdjust="spacingAndGlyphs" textLength="136" x="26" y="65.4818">OmniOpt Workflow</text><!--MD5=[d0083cf0b2d9f17e335f85bf9624e57e]
cluster User--><polygon fill="#FFFFFF" filter="url(#f1xe9w8ij218cd)" points="267,104.5158,277,94.5158,383,94.5158,383,201.5158,373,211.5158,267,211.5158,267,104.5158" style="stroke: #000000; stroke-width: 1.5;"/><line style="stroke: #000000; stroke-width: 1.5;" x1="373" x2="382" y1="104.5158" y2="95.5158"/><line style="stroke: #000000; stroke-width: 1.5;" x1="267" x2="373" y1="104.5158" y2="104.5158"/><line style="stroke: #000000; stroke-width: 1.5;" x1="373" x2="373" y1="104.5158" y2="211.5158"/><text fill="#000000" font-family="Monospace" font-size="14" font-weight="bold" lengthAdjust="spacingAndGlyphs" textLength="32" x="305" y="122.4818">User</text><!--MD5=[068ab849e982e95724e818cf5ecc07ce]
cluster Local Mode--><polygon fill="#FFFFFF" filter="url(#f1xe9w8ij218cd)" points="46,483.5158,131,483.5158,138,508.5838,261,508.5838,261,996.5158,46,996.5158,46,483.5158" style="stroke: #000000; stroke-width: 1.5;"/><line style="stroke: #000000; stroke-width: 1.5;" x1="46" x2="138" y1="508.5838" y2="508.5838"/><text fill="#000000" font-family="Monospace" font-size="14" font-weight="bold" lengthAdjust="spacingAndGlyphs" textLength="79" x="50" y="500.4818">Local Mode</text><!--MD5=[494d5f1c0bba01068cf8e38a0ae48f2b]
cluster Local System--><polygon fill="#FFFFFF" filter="url(#f1xe9w8ij218cd)" points="70,539.5158,80,529.5158,237,529.5158,237,962.5158,227,972.5158,70,972.5158,70,539.5158" style="stroke: #000000; stroke-width: 1.5;"/><line style="stroke: #000000; stroke-width: 1.5;" x1="227" x2="236" y1="539.5158" y2="530.5158"/><line style="stroke: #000000; stroke-width: 1.5;" x1="70" x2="227" y1="539.5158" y2="539.5158"/><line style="stroke: #000000; stroke-width: 1.5;" x1="227" x2="227" y1="539.5158" y2="972.5158"/><text fill="#000000" font-family="Monospace" font-size="14" font-weight="bold" lengthAdjust="spacingAndGlyphs" textLength="91" x="104" y="557.4818">Local System</text><!--MD5=[8c9472c44c824e4c2cc3dfcfbb71d530]
cluster HPC Mode (via submitit/sbatch)--><polygon fill="#FFFFFF" filter="url(#f1xe9w8ij218cd)" points="455,399.5158,682,399.5158,689,424.5838,1348,424.5838,1348,843.5158,455,843.5158,455,399.5158" style="stroke: #000000; stroke-width: 1.5;"/><line style="stroke: #000000; stroke-width: 1.5;" x1="455" x2="689" y1="424.5838" y2="424.5838"/><text fill="#000000" font-family="Monospace" font-size="14" font-weight="bold" lengthAdjust="spacingAndGlyphs" textLength="221" x="459" y="416.4818">HPC Mode (via submitit/sbatch)</text><!--MD5=[033a9a4a2f08d7ab18f9d949d0c79d5e]
cluster Compute Nodes\n(parallel jobs including head node)--><path d="M499.8879,461.9081 C511.5671,434.0471 527.4477,437.1396 547.1157,453.3463 C558.2959,432.0859 579.5893,432.8409 590.774,453.3416 C605.6984,434.5532 622.5715,431.1125 637.3643,453.4906 C650.629,435.0653 665.9238,431.5298 679.192,453.487 C694.2549,425.27 711.6219,428.5323 729.245,450.9565 C741.0578,427.6654 761.274,430.461 774.2892,449.6825 C789.0839,427.8478 803.2679,424.4503 821.8383,445.4957 C833.964,425.7731 857.6124,423.6687 869.3437,445.9419 C883.4699,427.3308 901.2223,427.998 914.0612,447.4541 C931.8863,430.1003 944.5941,432.3957 956.1733,454.1755 C966.3495,426.9799 992.0739,427.7453 1007.1264,449.053 C1020.1476,428.8774 1038.6693,435.4133 1048.0729,452.978 C1062.133,431.9206 1084.5989,435.2234 1096.0249,455.9974 C1114.8252,436.4833 1130.921,438.8721 1146,460.5158 C1151.2434,459.4594 1154.095,460.8046 1153.7415,466.7257 C1171.8561,479.2841 1174.2913,495.9408 1154.5842,509.2488 C1174.34,518.2125 1175.3932,537.1293 1156.8152,548.284 C1174.9528,562.0163 1177.1231,580.2807 1154.6203,591.9712 C1181.9456,604.7934 1179.2541,621.497 1160.6999,640.113 C1177.3407,655.6095 1179.7146,671.9814 1155.7285,682.7397 C1170.3773,696.2924 1170.9903,714.0673 1149.98,722.4591 C1173.5086,731.8751 1171.3596,752.9911 1152.7992,765.1843 C1167.576,785.8049 1162.7375,802.3661 1139,811.5158 C1142.8669,812.6443 1143.8962,816.2412 1140.5567,818.8909 C1126.5138,840.4752 1112.0699,837.9966 1096.9415,820.0897 C1081.2143,837.9295 1060.7273,835.6278 1049.2722,814.8203 C1041.1016,836.4765 1018.3218,839.7823 1003.3503,822.9304 C989.333,843.0664 970.9862,840.427 961.6183,818.3355 C948.9595,844.2387 924.6034,846.6613 908.6602,821.7591 C898.7418,839.1389 879.5061,837.3432 869.9191,821.3742 C858.7504,851.5185 835.0571,847.968 817.3063,828.3306 C803.4621,851.4062 781.2719,845.5535 771.455,824.1765 C759.355,843.7633 736.4749,842.4061 725.1145,823.2909 C707.5621,844.0512 691.0558,838.6102 678.9103,817.3463 C668.5655,835.9253 647.5207,841.4284 635.8821,818.6937 C621.5572,840.4839 602.8217,844.0282 588.1711,819.0259 C572.885,838.9883 557.3729,836.8241 548.0141,813.524 C528.1034,840.2067 498.562,834.3808 487,804.5158 C487.9998,803.3399 489.174,803.0985 490.026,804.6782 C472.8454,793.7327 472.5014,782.7954 486.5752,768.8405 C465.9865,755.3661 465.8817,732.0029 489.7964,721.5607 C472.6444,713.4052 468.2753,694.953 484.9267,682.5752 C465.6705,674.0882 462.278,652.9538 479.3979,639.7686 C461.4573,624.3108 463.1894,601.1521 486.3911,591.677 C464.7264,579.3392 468.4542,562.9281 487.4838,551.7027 C467.5177,540.7859 464.348,517.9531 485.6468,505.3993 C460.1756,486.8941 469.9391,464.0464 494,453.5158 C498.9494,453.3334 502.3029,456.9237 499.8879,461.9081 " fill="#FFFFFF" style="stroke: #000000; stroke-width: 1.5;"/><text fill="#000000" font-family="Monospace" font-size="14" font-weight="bold" lengthAdjust="spacingAndGlyphs" textLength="112" x="760.5" y="473.4818">Compute Nodes</text><text fill="#000000" font-family="Monospace" font-size="14" font-weight="bold" lengthAdjust="spacingAndGlyphs" textLength="239" x="697" y="492.5497">(parallel jobs including head node)</text><!--MD5=[41fee0b8f0350db60edcb86a56a64f8b]
cluster Head Node\n(also compute node)--><polygon fill="#FFFFFF" filter="url(#f1xe9w8ij218cd)" points="639,520.5158,649,510.5158,858,510.5158,858,636.5158,848,646.5158,639,646.5158,639,520.5158" style="stroke: #000000; stroke-width: 1.5;"/><line style="stroke: #000000; stroke-width: 1.5;" x1="848" x2="857" y1="520.5158" y2="511.5158"/><line style="stroke: #000000; stroke-width: 1.5;" x1="639" x2="848" y1="520.5158" y2="520.5158"/><line style="stroke: #000000; stroke-width: 1.5;" x1="848" x2="848" y1="520.5158" y2="646.5158"/><text fill="#000000" font-family="Monospace" font-size="14" font-weight="bold" lengthAdjust="spacingAndGlyphs" textLength="77" x="706" y="538.4818">Head Node</text><text fill="#000000" font-family="Monospace" font-size="14" font-weight="bold" lengthAdjust="spacingAndGlyphs" textLength="143" x="673" y="557.5497">(also compute node)</text><!--MD5=[7018e2f8ec6c3126037d80ab91f6880d]
cluster Compute Node 1--><polygon fill="#FFFFFF" filter="url(#f1xe9w8ij218cd)" points="503,707.5158,513,697.5158,696,697.5158,696,785.5158,686,795.5158,503,795.5158,503,707.5158" style="stroke: #000000; stroke-width: 1.5;"/><line style="stroke: #000000; stroke-width: 1.5;" x1="686" x2="695" y1="707.5158" y2="698.5158"/><line style="stroke: #000000; stroke-width: 1.5;" x1="503" x2="686" y1="707.5158" y2="707.5158"/><line style="stroke: #000000; stroke-width: 1.5;" x1="686" x2="686" y1="707.5158" y2="795.5158"/><text fill="#000000" font-family="Monospace" font-size="14" font-weight="bold" lengthAdjust="spacingAndGlyphs" textLength="117" x="537" y="725.4818">Compute Node 1</text><!--MD5=[87367e987a291b585b0318bcf694b76e]
cluster Compute Node 2--><polygon fill="#FFFFFF" filter="url(#f1xe9w8ij218cd)" points="720,707.5158,730,697.5158,913,697.5158,913,785.5158,903,795.5158,720,795.5158,720,707.5158" style="stroke: #000000; stroke-width: 1.5;"/><line style="stroke: #000000; stroke-width: 1.5;" x1="903" x2="912" y1="707.5158" y2="698.5158"/><line style="stroke: #000000; stroke-width: 1.5;" x1="720" x2="903" y1="707.5158" y2="707.5158"/><line style="stroke: #000000; stroke-width: 1.5;" x1="903" x2="903" y1="707.5158" y2="795.5158"/><text fill="#000000" font-family="Monospace" font-size="14" font-weight="bold" lengthAdjust="spacingAndGlyphs" textLength="117" x="754" y="725.4818">Compute Node 2</text><!--MD5=[5135ac6baedf7841046db9de9289cbc0]
cluster Compute Node 3--><polygon fill="#FFFFFF" filter="url(#f1xe9w8ij218cd)" points="937,707.5158,947,697.5158,1130,697.5158,1130,785.5158,1120,795.5158,937,795.5158,937,707.5158" style="stroke: #000000; stroke-width: 1.5;"/><line style="stroke: #000000; stroke-width: 1.5;" x1="1120" x2="1129" y1="707.5158" y2="698.5158"/><line style="stroke: #000000; stroke-width: 1.5;" x1="937" x2="1120" y1="707.5158" y2="707.5158"/><line style="stroke: #000000; stroke-width: 1.5;" x1="1120" x2="1120" y1="707.5158" y2="795.5158"/><text fill="#000000" font-family="Monospace" font-size="14" font-weight="bold" lengthAdjust="spacingAndGlyphs" textLength="117" x="971" y="725.4818">Compute Node 3</text><!--MD5=[df6a39b053164d23cc3ecae9c3484a54]
entity CLI--><rect fill="#FEFECE" filter="url(#f1xe9w8ij218cd)" height="58.1358" style="stroke: #A80036; stroke-width: 1.5;" width="114" x="268" y="276.5158"/><rect fill="#FEFECE" height="5" style="stroke: #A80036; stroke-width: 1.5;" width="10" x="263" y="281.5158"/><rect fill="#FEFECE" height="5" style="stroke: #A80036; stroke-width: 1.5;" width="10" x="263" y="324.6517"/><text fill="#000000" font-family="Monospace" font-size="14" lengthAdjust="spacingAndGlyphs" textLength="94" x="278" y="301.4818">CLI Command</text><text fill="#000000" font-family="Monospace" font-size="14" lengthAdjust="spacingAndGlyphs" textLength="72" x="278" y="320.5497">omniopt ...</text><!--MD5=[a703d980dfcc65cc8e9623754057cb67]
entity OmniOptServer--><path d="M277.5,736.5158 C277.5,726.5158 358,726.5158 358,726.5158 C358,726.5158 438.5,726.5158 438.5,736.5158 L438.5,783.6517 C438.5,793.6517 358,793.6517 358,793.6517 C358,793.6517 277.5,793.6517 277.5,783.6517 L277.5,736.5158 " fill="#FEFECE" filter="url(#f1xe9w8ij218cd)" style="stroke: #000000; stroke-width: 1.5;"/><path d="M277.5,736.5158 C277.5,746.5158 358,746.5158 358,746.5158 C358,746.5158 438.5,746.5158 438.5,736.5158 " fill="none" style="stroke: #000000; stroke-width: 1.5;"/><text fill="#000000" font-family="Monospace" font-size="14" lengthAdjust="spacingAndGlyphs" textLength="109" x="287.5" y="765.4818">OmniOpt Server</text><text fill="#000000" font-family="Monospace" font-size="14" lengthAdjust="spacingAndGlyphs" textLength="141" x="287.5" y="784.5497">(optional live upload)</text><!--MD5=[beb5ad5244d3d849df9473931f7c2e5e]
entity GUI--><rect fill="#FEFECE" filter="url(#f1xe9w8ij218cd)" height="58.1358" style="stroke: #A80036; stroke-width: 1.5;" width="83" x="283.5" y="137.5158"/><rect fill="#FEFECE" height="5" style="stroke: #A80036; stroke-width: 1.5;" width="10" x="278.5" y="142.5158"/><rect fill="#FEFECE" height="5" style="stroke: #A80036; stroke-width: 1.5;" width="10" x="278.5" y="185.6517"/><text fill="#000000" font-family="Monospace" font-size="14" lengthAdjust="spacingAndGlyphs" textLength="59" x="293.5" y="162.4818">Web GUI</text><text fill="#000000" font-family="Monospace" font-size="14" lengthAdjust="spacingAndGlyphs" textLength="63" x="293.5" y="181.5497">(optional)</text><!--MD5=[119bd4be733b4c7d33357554b14c3254]
entity LocalCore--><rect fill="#FEFECE" filter="url(#f1xe9w8ij218cd)" height="58.1358" style="stroke: #A80036; stroke-width: 1.5;" width="117" x="103.5" y="572.5158"/><rect fill="#FEFECE" height="5" style="stroke: #A80036; stroke-width: 1.5;" width="10" x="98.5" y="577.5158"/><rect fill="#FEFECE" height="5" style="stroke: #A80036; stroke-width: 1.5;" width="10" x="98.5" y="620.6517"/><text fill="#000000" font-family="Monospace" font-size="14" lengthAdjust="spacingAndGlyphs" textLength="97" x="113.5" y="597.4818">OmniOpt Core</text><text fill="#000000" font-family="Monospace" font-size="14" lengthAdjust="spacingAndGlyphs" textLength="84" x="113.5" y="616.5497">(main script)</text><!--MD5=[b1863c6cb7af23746dfb5d67ac7a9b6e]
entity LocalJobs--><rect fill="#FEFECE" filter="url(#f1xe9w8ij218cd)" height="58.1358" style="stroke: #A80036; stroke-width: 1.5;" width="122" x="99" y="731.0158"/><rect fill="#FEFECE" height="5" style="stroke: #A80036; stroke-width: 1.5;" width="10" x="94" y="736.0158"/><rect fill="#FEFECE" height="5" style="stroke: #A80036; stroke-width: 1.5;" width="10" x="94" y="779.1517"/><text fill="#000000" font-family="Monospace" font-size="14" lengthAdjust="spacingAndGlyphs" textLength="102" x="109" y="755.9818">Evaluation Jobs</text><text fill="#000000" font-family="Monospace" font-size="14" lengthAdjust="spacingAndGlyphs" textLength="79" x="109" y="775.0497">(sequential)</text><!--MD5=[feac20ec967ba8193586f5464e6c98c7]
entity LocalRuns--><path d="M99.5,918.5158 C99.5,908.5158 149,908.5158 149,908.5158 C149,908.5158 198.5,908.5158 198.5,918.5158 L198.5,946.5838 C198.5,956.5838 149,956.5838 149,956.5838 C149,956.5838 99.5,956.5838 99.5,946.5838 L99.5,918.5158 " fill="#FEFECE" filter="url(#f1xe9w8ij218cd)" style="stroke: #000000; stroke-width: 1.5;"/><path d="M99.5,918.5158 C99.5,928.5158 149,928.5158 149,928.5158 C149,928.5158 198.5,928.5158 198.5,918.5158 " fill="none" style="stroke: #000000; stroke-width: 1.5;"/><text fill="#000000" font-family="Monospace" font-size="14" lengthAdjust="spacingAndGlyphs" textLength="79" x="109.5" y="947.4818">runs/ (local)</text><!--MD5=[ad168f425ab565e150e1a97e9229db73]
entity HPCRuns--><path d="M1170.5,746.0158 C1170.5,736.0158 1251,736.0158 1251,736.0158 C1251,736.0158 1331.5,736.0158 1331.5,746.0158 L1331.5,774.0838 C1331.5,784.0838 1251,784.0838 1251,784.0838 C1251,784.0838 1170.5,784.0838 1170.5,774.0838 L1170.5,746.0158 " fill="#FEFECE" filter="url(#f1xe9w8ij218cd)" style="stroke: #000000; stroke-width: 1.5;"/><path d="M1170.5,746.0158 C1170.5,756.0158 1251,756.0158 1251,756.0158 C1251,756.0158 1331.5,756.0158 1331.5,746.0158 " fill="none" style="stroke: #000000; stroke-width: 1.5;"/><text fill="#000000" font-family="Monospace" font-size="14" lengthAdjust="spacingAndGlyphs" textLength="141" x="1180.5" y="774.9818">runs/ (on file system)</text><!--MD5=[0ca049598cf64d5a8f9e0a6c16d5d1d0]
entity HPCMaster--><rect fill="#FEFECE" filter="url(#f1xe9w8ij218cd)" height="58.1358" style="stroke: #A80036; stroke-width: 1.5;" width="117" x="689.5" y="572.5158"/><rect fill="#FEFECE" height="5" style="stroke: #A80036; stroke-width: 1.5;" width="10" x="684.5" y="577.5158"/><rect fill="#FEFECE" height="5" style="stroke: #A80036; stroke-width: 1.5;" width="10" x="684.5" y="620.6517"/><text fill="#000000" font-family="Monospace" font-size="14" lengthAdjust="spacingAndGlyphs" textLength="97" x="699.5" y="597.4818">OmniOpt Core</text><text fill="#000000" font-family="Monospace" font-size="14" lengthAdjust="spacingAndGlyphs" textLength="84" x="699.5" y="616.5497">(main script)</text><!--MD5=[47e052b533fd8425fd8ca2757eeea134]
entity Job1--><rect fill="#FEFECE" filter="url(#f1xe9w8ij218cd)" height="39.0679" style="stroke: #A80036; stroke-width: 1.5;" width="53" x="558.5" y="740.5158"/><rect fill="#FEFECE" height="5" style="stroke: #A80036; stroke-width: 1.5;" width="10" x="553.5" y="745.5158"/><rect fill="#FEFECE" height="5" style="stroke: #A80036; stroke-width: 1.5;" width="10" x="553.5" y="769.5838"/><text fill="#000000" font-family="Monospace" font-size="14" lengthAdjust="spacingAndGlyphs" textLength="33" x="568.5" y="765.4818">Job 1</text><!--MD5=[ad1ecd006b7d6e2fcd722d0410ebc487]
entity Job2--><rect fill="#FEFECE" filter="url(#f1xe9w8ij218cd)" height="39.0679" style="stroke: #A80036; stroke-width: 1.5;" width="53" x="770.5" y="740.5158"/><rect fill="#FEFECE" height="5" style="stroke: #A80036; stroke-width: 1.5;" width="10" x="765.5" y="745.5158"/><rect fill="#FEFECE" height="5" style="stroke: #A80036; stroke-width: 1.5;" width="10" x="765.5" y="769.5838"/><text fill="#000000" font-family="Monospace" font-size="14" lengthAdjust="spacingAndGlyphs" textLength="33" x="780.5" y="765.4818">Job 2</text><!--MD5=[0ab1b686e84364c8109e522a8c779fa1]
entity Job3--><rect fill="#FEFECE" filter="url(#f1xe9w8ij218cd)" height="39.0679" style="stroke: #A80036; stroke-width: 1.5;" width="53" x="982.5" y="740.5158"/><rect fill="#FEFECE" height="5" style="stroke: #A80036; stroke-width: 1.5;" width="10" x="977.5" y="745.5158"/><rect fill="#FEFECE" height="5" style="stroke: #A80036; stroke-width: 1.5;" width="10" x="977.5" y="769.5838"/><text fill="#000000" font-family="Monospace" font-size="14" lengthAdjust="spacingAndGlyphs" textLength="33" x="992.5" y="765.4818">Job 3</text><!--MD5=[35c1068cf10654a3a88a78f31c30ad7d]
link GUI to CLI--><path d="M325,195.5658 C325,217.5458 325,248.1858 325,271.3758 " fill="none" id="GUI-&gt;CLI" style="stroke: #A80036; stroke-width: 1.0; stroke-dasharray: 7.0,7.0;"/><polygon fill="#A80036" points="325,276.4958,329,267.4958,325,271.4958,321,267.4958,325,276.4958" style="stroke: #A80036; stroke-width: 1.0;"/><text fill="#000000" font-family="Monospace" font-size="13" lengthAdjust="spacingAndGlyphs" textLength="119" x="326" y="242.4129">Generate command</text><!--MD5=[bb07170366ce939dcc727915865a8aad]
link CLI to LocalCore--><path d="M309.37,334.7058 C279.01,389.4758 212.2,509.9658 180.03,568.0058 " fill="none" id="CLI-&gt;LocalCore" style="stroke: #A80036; stroke-width: 1.0;"/><polygon fill="#A80036" points="177.58,572.4158,185.4474,566.491,180.0082,568.0451,178.4542,562.6059,177.58,572.4158" style="stroke: #A80036; stroke-width: 1.0;"/><text fill="#000000" font-family="Monospace" font-size="13" lengthAdjust="spacingAndGlyphs" textLength="24" x="290" y="379.4129">Run</text><!--MD5=[9f1487abe7b3198f33c8c149ef1ca271]
link LocalCore to LocalJobs--><path d="M161.64,630.8558 C161.3,657.5558 160.79,697.5658 160.42,725.7658 " fill="none" id="LocalCore-&gt;LocalJobs" style="stroke: #A80036; stroke-width: 1.0;"/><polygon fill="#A80036" points="160.36,730.8858,164.4626,721.9321,160.4171,725.8862,156.4631,721.8407,160.36,730.8858" style="stroke: #A80036; stroke-width: 1.0;"/><!--MD5=[d02376264a213b415368d6b94b42bd88]
link LocalJobs to LocalRuns--><path d="M158.18,789.1658 C156.15,820.6458 152.88,871.3258 150.84,902.9658 " fill="none" id="LocalJobs-&gt;LocalRuns" style="stroke: #A80036; stroke-width: 1.0;"/><polygon fill="#A80036" points="150.5,908.2558,155.0583,899.5253,150.8146,903.2658,147.0741,899.022,150.5,908.2558" style="stroke: #A80036; stroke-width: 1.0;"/><text fill="#000000" font-family="Monospace" font-size="13" lengthAdjust="spacingAndGlyphs" textLength="73" x="154" y="874.4129">write results</text><!--MD5=[c2e1da8537ad2bd9152054719f918e4d]
link LocalCore to OmniOptServer--><path d="M167.97,630.6658 C173.08,647.8758 182.2,668.9258 198,681.5158 C211.84,692.5458 220.45,683.2558 237,689.5158 C260.37,698.3658 284.56,711.3658 305.1,723.7358 " fill="none" id="LocalCore-&gt;OmniOptServer" style="stroke: #A80036; stroke-width: 1.0;"/><polygon fill="#A80036" points="309.43,726.3658,303.822,718.2695,305.159,723.7661,299.6624,725.1031,309.43,726.3658" style="stroke: #A80036; stroke-width: 1.0;"/><text fill="#000000" font-family="Monospace" font-size="13" lengthAdjust="spacingAndGlyphs" textLength="128" x="199" y="677.4129">--live_share (optional)</text><!--MD5=[0771a1fcca9f2fce28c194ddb1b2acf0]
link CLI to HPCMaster--><path d="M365.56,334.7058 C444.99,389.9158 620.5,511.8958 703.21,569.3858 " fill="none" id="CLI-&gt;HPCMaster" style="stroke: #A80036; stroke-width: 1.0;"/><polygon fill="#A80036" points="707.56,572.4158,702.4493,563.9968,703.4532,569.5639,697.8861,570.5678,707.56,572.4158" style="stroke: #A80036; stroke-width: 1.0;"/><text fill="#000000" font-family="Monospace" font-size="13" lengthAdjust="spacingAndGlyphs" textLength="119" x="428" y="379.4129">ssh login &amp;&amp; sbatch</text><!--MD5=[d73132a875438189b2b3ce4229eb2a32]
link HPCMaster to Job1--><path d="M689.26,611.2858 C633.73,620.9158 556.27,638.2958 538,662.5158 C532.91,669.2558 533.48,674.3858 538,681.5158 C542.47,688.5658 549.19,683.5158 555,689.5158 C567.32,702.2358 574.98,720.8258 579.48,735.5758 " fill="none" id="HPCMaster-&gt;Job1" style="stroke: #A80036; stroke-width: 1.0;"/><polygon fill="#A80036" points="580.88,740.4258,582.2268,730.6695,579.4932,735.622,574.5407,732.8884,580.88,740.4258" style="stroke: #A80036; stroke-width: 1.0;"/><text fill="#000000" font-family="Monospace" font-size="13" lengthAdjust="spacingAndGlyphs" textLength="42" x="539" y="677.4129">submit</text><!--MD5=[0361fc0b2f9e0c1d656e25018cbd835c]
link Job1 to HPCMaster--><path d="M594.47,740.2158 C605.64,719.3958 625.78,685.7058 650,662.5158 C661.33,651.6658 674.94,641.8258 688.36,633.3958 " fill="none" id="Job1-&gt;HPCMaster" style="stroke: #A80036; stroke-width: 1.0;"/><polygon fill="#A80036" points="692.91,630.5858,683.1507,631.9107,688.6556,633.2127,687.3536,638.7177,692.91,630.5858" style="stroke: #A80036; stroke-width: 1.0;"/><text fill="#000000" font-family="Monospace" font-size="13" lengthAdjust="spacingAndGlyphs" textLength="81" x="651" y="677.4129">return results</text><!--MD5=[76de094807e8008348a742240e8dbe38]
link HPCMaster to Job2--><path d="M742.48,630.8758 C740.59,646.1858 740.04,665.2358 745,681.5158 C751.21,701.9158 764.78,721.8258 776.5,736.3558 " fill="none" id="HPCMaster-&gt;Job2" style="stroke: #A80036; stroke-width: 1.0;"/><polygon fill="#A80036" points="779.75,740.3058,777.141,730.8088,776.5815,736.438,770.9524,735.8785,779.75,740.3058" style="stroke: #A80036; stroke-width: 1.0;"/><text fill="#000000" font-family="Monospace" font-size="13" lengthAdjust="spacingAndGlyphs" textLength="42" x="746" y="677.4129">submit</text><!--MD5=[dac3ded752d84de080905c6c3483a0d1]
link Job2 to HPCMaster--><path d="M799.43,740.2558 C801.29,720.3458 802.18,688.2558 793,662.5158 C789.51,652.7158 783.81,643.1858 777.62,634.7158 " fill="none" id="Job2-&gt;HPCMaster" style="stroke: #A80036; stroke-width: 1.0;"/><polygon fill="#A80036" points="774.55,630.6458,776.7719,640.2408,777.5591,634.639,783.1609,635.4262,774.55,630.6458" style="stroke: #A80036; stroke-width: 1.0;"/><text fill="#000000" font-family="Monospace" font-size="13" lengthAdjust="spacingAndGlyphs" textLength="81" x="798" y="677.4129">return results</text><!--MD5=[d49c4ab690e9114edc7d2c3d09ac25fe]
link HPCMaster to Job3--><path d="M806.59,623.5458 C832.34,633.8058 862.47,647.2458 888,662.5158 C924.4,684.2858 961.92,715.9058 985.34,736.9458 " fill="none" id="HPCMaster-&gt;Job3" style="stroke: #A80036; stroke-width: 1.0;"/><polygon fill="#A80036" points="989.26,740.4858,985.2653,731.4835,985.5506,737.1331,979.901,737.4185,989.26,740.4858" style="stroke: #A80036; stroke-width: 1.0;"/><text fill="#000000" font-family="Monospace" font-size="13" lengthAdjust="spacingAndGlyphs" textLength="42" x="917" y="677.4129">submit</text><!--MD5=[0b084569a1b025af739eee478835d34a]
link Job3 to HPCMaster--><path d="M1006.04,740.1658 C1001.62,718.3258 991.18,682.7458 968,662.5158 C924.84,624.8358 860.16,610.5858 812.1,605.3158 " fill="none" id="Job3-&gt;HPCMaster" style="stroke: #A80036; stroke-width: 1.0;"/><polygon fill="#A80036" points="806.91,604.7758,815.4521,609.6782,811.8836,605.2889,816.2729,601.7204,806.91,604.7758" style="stroke: #A80036; stroke-width: 1.0;"/><text fill="#000000" font-family="Monospace" font-size="13" lengthAdjust="spacingAndGlyphs" textLength="81" x="983" y="677.4129">return results</text><!--MD5=[571935b6720c67f63951b3fde5967843]
link HPCMaster to HPCRuns--><path d="M806.67,607.7458 C872.87,614.9258 983.06,630.7358 1073,662.5158 C1123.43,680.3358 1176.8,711.0658 1211.8,733.0658 " fill="none" id="HPCMaster-&gt;HPCRuns" style="stroke: #A80036; stroke-width: 1.0;"/><polygon fill="#A80036" points="1216.4,735.9758,1210.9401,727.7789,1212.177,733.2989,1206.657,734.5357,1216.4,735.9758" style="stroke: #A80036; stroke-width: 1.0;"/><text fill="#000000" font-family="Monospace" font-size="13" lengthAdjust="spacingAndGlyphs" textLength="73" x="1114" y="677.4129">write results</text><!--MD5=[ee70d8c345acbf1d3b0ab7716904fc71]
link HPCMaster to OmniOptServer--><path d="M689.2,605.6458 C600.98,611.4558 440.03,626.7458 396,662.5158 C378.22,676.9558 368.73,700.8758 363.68,721.2858 " fill="none" id="HPCMaster-&gt;OmniOptServer" style="stroke: #A80036; stroke-width: 1.0;"/><polygon fill="#A80036" points="362.49,726.3958,368.4399,718.5474,363.632,721.528,360.6514,716.7201,362.49,726.3958" style="stroke: #A80036; stroke-width: 1.0;"/><text fill="#000000" font-family="Monospace" font-size="13" lengthAdjust="spacingAndGlyphs" textLength="128" x="397" y="677.4129">--live_share (optional)</text><!--MD5=[4a5976f0822148b0f1ac459878635877]
@startuml
skinparam componentStyle rectangle
skinparam defaultFontName Monospace

title OmniOpt Architecture

package "OmniOpt Workflow" {

  node "User" {
    component "Web GUI\n(optional)" as GUI
  }

  component "CLI Command\nomniopt ..." as CLI

  GUI ..> CLI : Generate command

  database "OmniOpt Server\n(optional live upload)" as OmniOptServer

  package "Local Mode" {
    node "Local System" {
      component "OmniOpt Core\n(main script)" as LocalCore
      component "Evaluation Jobs\n(sequential)" as LocalJobs
      database "runs/ (local)" as LocalRuns
    }

    CLI - -> LocalCore : Run
    LocalCore - -> LocalJobs
    LocalJobs - -> LocalRuns : write results
    LocalCore - -> OmniOptServer : - -live_share (optional)
  }

  package "HPC Mode (via submitit/sbatch)" {

    cloud "Compute Nodes\n(parallel jobs including head node)" {
      node "Head Node\n(also compute node)" {
        component "OmniOpt Core\n(main script)" as HPCMaster
      }

      node "Compute Node 1" {
        component "Job 1" as Job1
      }

      node "Compute Node 2" {
        component "Job 2" as Job2
      }

      node "Compute Node 3" {
        component "Job 3" as Job3
      }
    }

    database "runs/ (on file system)" as HPCRuns

    CLI - -> HPCMaster : ssh login && sbatch
    HPCMaster - -> Job1 : submit
    HPCMaster - -> Job2 : submit
    HPCMaster - -> Job3 : submit

    Job1 - -> HPCMaster : return results
    Job2 - -> HPCMaster : return results
    Job3 - -> HPCMaster : return results

    HPCMaster - -> HPCRuns : write results
    HPCMaster - -> OmniOptServer : - -live_share (optional)
  }
}

@enduml

PlantUML version 1.2020.02(Sun Mar 01 11:22:07 CET 2020)
(GPL source distribution)
Java Runtime: OpenJDK Runtime Environment
JVM: OpenJDK 64-Bit Server VM
Java Version: 11.0.26+4-post-Debian-1
Operating System: Linux
Default Encoding: UTF-8
Language: de
Country: DE
--></g></svg>