<?xml version="1.0" encoding="UTF-8"?><svg id="Ebene_1" xmlns="http://www.w3.org/2000/svg" viewBox="0 0 127.56 87.87"><defs><style>.cls-1{fill:#1d1d1b;}.cls-2{fill:#e20613;}.cls-3{fill:#fff;}.cls-4{fill:#f8d200;}</style></defs><rect class="cls-3" y="-.85" width="127.12" height="90.15"/><path class="cls-1" d="M44.81,51.81c0,.71-.46.98-.83.98-.49,0-.72-.35-.72-.86v-2.95h-.69v3.24c0,.72.4,1.09,1.14,1.09.45,0,.85-.21,1.08-.6h.03v.51h.73c-.03-.3-.04-.59-.04-.88v-3.37h-.69v2.82h0Z"/><path class="cls-1" d="M49.74,53.24v-2.95c0-.84-.23-1.39-1.14-1.39-.55,0-.87.15-1.14.63h-.03v-.55h-.73c.03.29.04.59.04.88v3.37h.69v-2.52c0-.58.11-1.25.87-1.25.59,0,.75.37.75.82v2.95h.69Z"/><path class="cls-1" d="M53.13,50.94c0,.86,0,1.82-.77,1.82-.87,0-.87-.93-.87-1.56,0-1.14.1-1.73.84-1.73s.8.91.8,1.47h0ZM53.13,49.42h-.02c-.24-.34-.53-.51-.93-.51-1.37,0-1.4,1.22-1.4,2.28,0,1.87.69,2.14,1.37,2.14.45,0,.74-.19.97-.59h.02v.51h.69v-6.07h-.69v2.25h0Z"/><polygon class="cls-1" points="57.49 53.24 57.49 50.46 59.61 50.46 59.61 49.79 57.49 49.79 57.49 47.84 59.73 47.84 59.73 47.16 56.72 47.16 56.72 53.24 57.49 53.24 57.49 53.24"/><path class="cls-1" d="M61.85,52.76c-.72,0-.89-.5-.89-1.88,0-1.16.36-1.41.89-1.41s.89.25.89,1.41c0,1.38-.18,1.88-.89,1.88h0ZM61.85,53.32c.9,0,1.62-.27,1.62-2.15,0-1.24-.14-2.27-1.62-2.27s-1.62,1.03-1.62,2.27c0,1.88.71,2.15,1.62,2.15h0Z"/><path class="cls-1" d="M65.23,48.99h-.69v4.25h.69v-2.51c0-.57.19-1.15.96-1.15.13,0,.25.03.37.04v-.72c-.67,0-1.02.08-1.31.72h-.02v-.64h0Z"/><path class="cls-1" d="M70.01,52.03c0-1.29-2.12-1.28-2.12-2.03,0-.37.29-.57.66-.57.44,0,.67.24.66.68h.77c.06-.84-.59-1.2-1.35-1.2-1.19,0-1.46.72-1.46,1.16,0,1.27,2.12,1.29,2.12,2.04,0,.44-.32.65-.73.65-.7,0-.71-.57-.71-.82h-.78c-.03.98.55,1.38,1.46,1.38.84,0,1.48-.36,1.48-1.3h0Z"/><path class="cls-1" d="M73.82,50.35c.04-.95-.45-1.45-1.3-1.45-1.47,0-1.62,1.03-1.62,2.27,0,1.88.72,2.15,1.62,2.15.47,0,1.37-.3,1.34-1.5h-.72c.02.77-.46.93-.62.93-.71,0-.89-.5-.89-1.88,0-1.16.36-1.41.89-1.41.26,0,.61.19.59.88h.71Z"/><path class="cls-1" d="M77.95,53.24v-3.01c0-.96-.4-1.32-1.13-1.32-.56,0-.87.13-1.15.63h-.03v-2.37h-.69v6.07h.69v-2.5c0-.71.18-1.27.86-1.27.59,0,.76.37.76.89v2.88h.69Z"/><path class="cls-1" d="M81.44,51.81c0,.71-.46.98-.83.98-.49,0-.72-.35-.72-.86v-2.95h-.69v3.24c0,.72.4,1.09,1.14,1.09.45,0,.85-.21,1.08-.6h.02v.51h.73c-.03-.3-.04-.59-.04-.88v-3.37h-.69v2.82h0Z"/><path class="cls-1" d="M86.37,53.24v-2.95c0-.84-.23-1.39-1.13-1.39-.55,0-.87.15-1.14.63h-.03v-.55h-.73c.02.29.04.59.04.88v3.37h.69v-2.52c0-.58.11-1.25.87-1.25.59,0,.75.37.75.82v2.95h.69Z"/><path class="cls-1" d="M89.78,51.09c0,.59.02,1.57-.81,1.57-.51,0-.83-.32-.83-1.68,0-.56.03-1.51.81-1.51.87,0,.82.98.82,1.61h0ZM89.76,49.51h-.02c-.19-.41-.55-.61-.99-.61-.34,0-1.33.13-1.33,2.08,0,1.26.23,2.25,1.38,2.25.37,0,.76-.19.93-.53h.03v.88c0,.44-.26.73-.74.73-.38,0-.64-.22-.65-.61h-.77c-.06.78.58,1.13,1.29,1.13.93,0,1.57-.23,1.57-1.18v-4.68h-.69v.52h0Z"/><path class="cls-1" d="M42.26,39.98v.52h.66v3.73h.69v-3.73h.86v-.52h-.86v-.72c0-.34.13-.66.86-.61v-.49c-.1-.02-.19-.03-.33-.03-.61,0-1.22.17-1.22,1.03v.82h-.66Z"/><path class="cls-1" d="M46.28,38.39h-.79v.87h.79v-.87h0ZM47.76,38.39h-.79v.87h.79v-.87h0ZM47.4,42.79c0,.71-.46.98-.83.98-.49,0-.72-.35-.72-.86v-2.95h-.69v3.24c0,.72.4,1.09,1.14,1.09.45,0,.85-.21,1.08-.6h.03v.51h.73c-.02-.3-.04-.59-.04-.88v-3.37h-.69v2.82h0Z"/><path class="cls-1" d="M50.05,39.98h-.69v4.25h.69v-2.51c0-.57.19-1.15.96-1.15.13,0,.24.03.37.04v-.72c-.67,0-1.03.08-1.31.72h-.02v-.64h0Z"/><path class="cls-1" d="M54.25,41.38h.82c.79,0,1.39.17,1.39,1.14,0,.45-.29,1.03-1.12,1.03h-1.09v-2.17h0ZM54.25,38.82h1.09c.65,0,.93.41.93.92,0,.59-.29.96-.9.97h-1.13v-1.88h0ZM55.43,44.22c.69,0,1.82-.15,1.82-1.71,0-.83-.38-1.36-1.24-1.46v-.04c.78-.18,1.04-.68,1.04-1.44,0-.12-.03-.48-.24-.81-.23-.34-.51-.62-1.35-.62h-1.98v6.07h1.95Z"/><path class="cls-1" d="M59.05,39.98h-.69v4.25h.69v-4.25h0ZM58.32,38.89h.77v-.74h-.77v.74h0Z"/><polygon class="cls-1" points="61 38.15 60.31 38.15 60.31 44.22 61 44.22 61 38.15 61 38.15"/><path class="cls-1" d="M64.44,41.93c0,.86,0,1.82-.77,1.82-.87,0-.87-.93-.87-1.57,0-1.14.1-1.72.84-1.72s.8.91.8,1.47h0ZM64.44,40.4h-.03c-.23-.34-.53-.51-.93-.51-1.37,0-1.4,1.22-1.4,2.28,0,1.87.69,2.14,1.37,2.14.45,0,.74-.19.98-.59h.02v.51h.69v-6.07h-.69v2.25h0Z"/><path class="cls-1" d="M68.67,42.79c0,.71-.46.98-.83.98-.49,0-.72-.35-.72-.86v-2.95h-.69v3.24c0,.72.4,1.09,1.14,1.09.45,0,.85-.21,1.08-.6h.03v.51h.73c-.02-.3-.04-.59-.04-.88v-3.37h-.69v2.82h0Z"/><path class="cls-1" d="M73.6,44.22v-2.94c0-.84-.23-1.39-1.14-1.39-.55,0-.87.15-1.13.63h-.04v-.55h-.73c.03.29.04.59.04.88v3.37h.69v-2.52c0-.58.11-1.25.87-1.25.59,0,.75.37.75.82v2.94h.69Z"/><path class="cls-1" d="M77.01,42.08c0,.59.02,1.57-.81,1.57-.51,0-.83-.32-.83-1.68,0-.56.03-1.51.81-1.51.87,0,.83.98.83,1.61h0ZM76.99,40.5h-.02c-.19-.41-.55-.61-.99-.61-.35,0-1.33.13-1.33,2.08,0,1.26.23,2.25,1.38,2.25.37,0,.76-.19.93-.53h.03v.88c0,.44-.26.73-.74.73-.38,0-.64-.22-.65-.61h-.77c-.06.78.58,1.14,1.29,1.14.93,0,1.56-.23,1.56-1.18v-4.68h-.69v.52h0Z"/><path class="cls-1" d="M43.36,32.37h.83c.79,0,1.39.17,1.39,1.14,0,.45-.29,1.03-1.12,1.03h-1.09v-2.17h0ZM43.36,29.81h1.09c.65,0,.93.41.93.92,0,.59-.3.96-.9.97h-1.13v-1.88h0ZM44.54,35.21c.69,0,1.83-.15,1.83-1.71,0-.83-.38-1.36-1.25-1.46v-.04c.78-.18,1.04-.68,1.04-1.44,0-.12-.03-.48-.24-.81-.23-.34-.51-.62-1.35-.62h-1.98v6.07h1.95Z"/><path class="cls-1" d="M49.62,33.78c0,.71-.46.98-.83.98-.49,0-.72-.35-.72-.86v-2.95h-.69v3.24c0,.72.4,1.09,1.14,1.09.45,0,.85-.21,1.08-.6h.03v.51h.73c-.02-.3-.04-.59-.04-.88v-3.37h-.69v2.82h0Z"/><path class="cls-1" d="M54.55,35.21v-2.94c0-.84-.23-1.39-1.14-1.39-.55,0-.87.15-1.14.63h-.03v-.55h-.73c.03.29.04.59.04.88v3.37h.69v-2.52c0-.58.11-1.25.87-1.25.59,0,.75.37.75.82v2.94h.69Z"/><path class="cls-1" d="M57.94,32.91c0,.86,0,1.82-.77,1.82-.87,0-.87-.93-.87-1.57,0-1.14.1-1.72.84-1.72s.8.91.8,1.47h0ZM57.94,31.39h-.02c-.24-.34-.53-.51-.93-.51-1.37,0-1.41,1.22-1.41,2.28,0,1.87.69,2.14,1.37,2.14.45,0,.74-.19.98-.59h.02v.51h.69v-6.07h-.69v2.25h0Z"/><path class="cls-1" d="M60.41,32.79c0-1.18.37-1.39.81-1.39.5,0,.85.15.85,1.39h-1.66ZM62.8,33.31v-.36c0-1.4-.3-2.07-1.51-2.07-1.47,0-1.62,1.03-1.62,2.27,0,1.88.71,2.15,1.62,2.15s1.47-.43,1.48-1.37h-.76c-.03.43-.27.81-.74.81-.54,0-.86-.24-.86-1.42h2.39Z"/><path class="cls-1" d="M66.61,34c0-1.29-2.12-1.28-2.12-2.03,0-.37.29-.57.66-.57.44,0,.67.24.66.68h.77c.06-.84-.59-1.2-1.35-1.2-1.19,0-1.46.72-1.46,1.16,0,1.27,2.12,1.29,2.12,2.04,0,.44-.32.65-.73.65-.7,0-.71-.57-.71-.82h-.78c-.03.98.55,1.38,1.46,1.38.84,0,1.48-.36,1.48-1.3h0Z"/><path class="cls-1" d="M70.46,35.21v-2.86c0-.16.03-.58.24-.75.18-.15.26-.16.52-.16.56,0,.67.4.67.82v2.94h.69v-3.23c0-1-.72-1.1-1.16-1.1-.39,0-.77.09-1.01.55-.16-.39-.61-.55-.99-.55-.5,0-.86.16-1.06.61h-.02v-.53h-.73c.02.29.04.59.04.88v3.37h.69v-2.86c0-.16.03-.41.16-.62.1-.16.39-.29.6-.29.56,0,.67.4.67.82v2.94h.69Z"/><path class="cls-1" d="M74.48,30.96h-.69v4.25h.69v-4.25h0ZM73.75,29.88h.77v-.74h-.77v.74h0Z"/><path class="cls-1" d="M78.73,35.21v-2.94c0-.84-.23-1.39-1.13-1.39-.55,0-.87.15-1.14.63h-.03v-.55h-.73c.02.29.04.59.04.88v3.37h.69v-2.52c0-.58.11-1.25.87-1.25.59,0,.75.37.75.82v2.94h.69Z"/><path class="cls-1" d="M80.64,30.96h-.69v4.25h.69v-4.25h0ZM79.91,29.88h.77v-.74h-.77v.74h0Z"/><path class="cls-1" d="M84.56,34c0-1.29-2.12-1.28-2.12-2.03,0-.37.29-.57.66-.57.44,0,.67.24.66.68h.77c.06-.84-.59-1.2-1.35-1.2-1.19,0-1.46.72-1.46,1.16,0,1.27,2.12,1.29,2.12,2.04,0,.44-.32.65-.73.65-.7,0-.71-.57-.71-.82h-.78c-.02.98.55,1.38,1.46,1.38.84,0,1.48-.36,1.48-1.3h0Z"/><path class="cls-1" d="M85.02,30.96v.52h.7v3.02c0,.49.29.76.95.76.23,0,.45-.05.68-.07v-.53c-.15.02-.26.03-.31.03-.63,0-.63-.35-.63-.61v-2.6h.92v-.52h-.92v-1.13l-.69.31v.82h-.7Z"/><path class="cls-1" d="M88.65,32.79c0-1.18.37-1.39.81-1.39.5,0,.85.15.85,1.39h-1.66ZM91.04,33.31v-.36c0-1.4-.3-2.07-1.51-2.07-1.47,0-1.62,1.03-1.62,2.27,0,1.88.71,2.15,1.62,2.15s1.47-.43,1.48-1.37h-.76c-.03.43-.27.81-.74.81-.54,0-.86-.24-.86-1.42h2.39Z"/><path class="cls-1" d="M92.75,30.96h-.69v4.25h.69v-2.51c0-.57.19-1.15.96-1.15.13,0,.24.03.37.04v-.72c-.67,0-1.03.08-1.31.72h-.02v-.64h0Z"/><path class="cls-1" d="M95.51,30.96h-.69v4.25h.69v-4.25h0ZM94.78,29.88h.77v-.74h-.77v.74h0Z"/><path class="cls-1" d="M98.97,33.78c0,.71-.46.98-.83.98-.49,0-.72-.35-.72-.86v-2.95h-.69v3.24c0,.72.4,1.09,1.14,1.09.45,0,.85-.21,1.08-.6h.02v.51h.73c-.03-.3-.04-.59-.04-.88v-3.37h-.69v2.82h0Z"/><path class="cls-1" d="M103.71,35.21v-2.86c0-.16.03-.58.24-.75.19-.15.26-.16.52-.16.56,0,.67.4.67.82v2.94h.69v-3.23c0-1-.72-1.1-1.16-1.1-.39,0-.77.09-1.01.55-.16-.39-.61-.55-.99-.55-.5,0-.86.16-1.06.61h-.02v-.53h-.73c.03.29.04.59.04.88v3.37h.69v-2.86c0-.16.03-.41.16-.62.1-.16.39-.29.6-.29.55,0,.67.4.67.82v2.94h.69Z"/><polygon class="cls-4" points="34.6 59.25 37.26 59.25 37.26 74.27 34.6 74.27 34.6 59.25 34.6 59.25"/><polygon class="cls-2" points="34.6 44.17 37.26 44.17 37.26 59.25 34.6 59.25 34.6 44.17 34.6 44.17"/><polygon class="cls-1" points="34.6 29.2 37.26 29.2 37.26 44.22 34.6 44.22 34.6 29.2 34.6 29.2"/><path class="cls-1" d="M19.41,44.23h0ZM19.41,44.23h0ZM19.4,44.24h0ZM19.4,44.22h0ZM26.3,31.74c0-.86-.62-1.53-.84-1.72l-.16.04c.23.28.64.76.64,1.39,0,1.24-1.31,2.32-2.81,2.34.01.13.01.24.01.34,0,.18-.01.35-.03.52,1.7-.03,3.19-1.41,3.19-2.9h0ZM23.96,42.02c-.73,0-.88-.08-1.07-.08-.12,0-.24.01-.24.19,0,.12.14.3.26.39.17-.17.4-.21.78-.21.18,0,.42.03.52.05-.01.1-.04.24-.04.43,0,.1,0,.22,0,.34,0,.43-.06.65-.21.83.03.02.12.04.17.04.28,0,.35-.14.35-.86,0-.22.02-.42.02-.47.39.3.78.82.78,1.21.13-.07.28-.26.28-.4,0-.26-.43-.65-.9-1.11.06-.02.24-.06.38-.06.36,0,.66.06.83.26.07-.07.12-.29.12-.42,0-.22-.12-.21-.21-.21-.39,0-.86.06-1.2.12-.12-.17-.91-1.24-1.12-1.81-.06-.02-.11-.04-.2-.04-.19,0-.24.13-.29.31.44.53.85,1.1,1,1.51h0ZM19.63,40.51c-.05-.18-.1-.31-.29-.31-.1,0-.14.02-.2.04-.21.57-1,1.64-1.12,1.81-.34-.06-.82-.12-1.2-.12-.09,0-.22,0-.22.21,0,.12.06.35.12.42.17-.2.46-.26.83-.26.14,0,.31.05.38.06-.46.47-.9.85-.9,1.11,0,.14.15.34.28.4,0-.38.4-.91.78-1.21,0,.05.02.25.02.47,0,.72.07.86.35.86.05,0,.14-.02.17-.04-.15-.17-.21-.4-.21-.83,0-.12,0-.24,0-.34,0-.19-.02-.33-.04-.43.11-.01.35-.05.52-.05.38,0,.61.04.78.21.12-.09.26-.27.26-.39,0-.17-.12-.19-.24-.19-.19,0-.35.08-1.07.08.14-.41.56-.98,1-1.51h0ZM16.64,31.44c0-.63.41-1.11.64-1.39l-.16-.04c-.22.19-.84.87-.84,1.72,0,1.5,1.51,2.89,3.22,2.9-.02-.16-.03-.34-.03-.52,0-.12,0-.23.01-.34-1.52,0-2.85-1.09-2.85-2.34h0ZM21.25,30.29c.08-.18.18-.39.18-.63,0-.65-.54-.96-1.26-.96-.37,0-.56.12-.56.24s.12.38.17.47c.13-.06.37-.13.51-.13.5,0,.86.56.95,1.01h0ZM21.61,29.46c.42.08.71-.46.31-.55.06.18-.21.3-.21.3,0,0-.1-.24.03-.37-.25-.12-.31.03-.31.18.1.13.16.28.19.45h0ZM22.97,33.15c.07,0,.13,0,.2,0,1.19,0,2.36-.77,2.36-1.75,0-.52-.24-.89-.53-1.3-.17.03-.33.04-.45.04-.54,0-.83-.29-.85-.57,0-.25.21-.45.53-.45.5,0,1.41.47,2.33.47-.09.07-.24.14-.42.21.54.48.9,1.13,1.03,1.83l1.41,2.25c.24.38.73,1.11,1.49,1.69-.91,0-1.51.02-2.28-1.19l-.72-1.15c-.05.15-.12.29-.2.44l1.43,2.29c.24.38.73,1.11,1.49,1.69-.91,0-1.51.02-2.28-1.19l-1.23-1.97c-.09.1-.19.19-.29.29l1.74,2.78c.24.38.73,1.11,1.49,1.69-.91,0-1.51.02-2.28-1.2l-1.7-2.71c-.11.07-.23.14-.34.2l2.07,3.31c.24.38.73,1.11,1.49,1.69-.91,0-1.51.02-2.28-1.19l-2.13-3.41c-.13.05-.25.09-.38.14l2.41,3.86c.23.37.74,1.11,1.49,1.69-.91,0-1.51.02-2.28-1.19l-2.57-4.11h-.08c-.07.24-.12.44-.12.65,0,1.29.85,2.43,1.86,3.31-.07.03-.18.04-.28.04-.21,0-.35-.01-.44-.03.24.54.74,1.23,1,1.59.33-.06.82-.11,1.13-.11s.37.19.37.37c0,.3-.14.54-.3.68-.06-.16-.18-.36-.8-.36h-.06c.18.2.74.66.74,1.02,0,.24-.27.6-.62.6.02-.08.02-.15.02-.2,0-.3-.26-.64-.48-.88,0,.07,0,.06,0,.15,0,.7-.06,1.02-.51,1.02-.22,0-.37-.12-.42-.15.29-.27.3-.48.3-.87v-.34c0-.09,0-.21.01-.29-.16-.02-.22-.02-.35-.02,0,0-.63-.05-.78.28-.17-.16-.42-.38-.42-.62,0-.16.08-.34.4-.34.12,0,.51.08.83.08-.09-.19-.47-.76-.81-1.17-.05.16-.13.33-.31.47-.02-.26-.18-1.1-.59-1.59-.05.33-.11.67-.11,1.38,0,1.74.42,3.02,1.31,3.27-.12.2-.36.38-.61.38-.32,0-.5-.37-.68-.71-.09.26-.35.88-.61.88s-.52-.62-.61-.88c-.18.35-.36.71-.68.71-.25,0-.5-.18-.61-.38.89-.25,1.31-1.53,1.31-3.27,0-.71-.07-1.05-.11-1.38-.41.49-.57,1.32-.59,1.59-.18-.14-.26-.31-.31-.47-.34.41-.72.98-.81,1.17.32,0,.71-.08.83-.08.32,0,.4.18.4.34,0,.25-.25.47-.42.62-.15-.33-.78-.28-.78-.28-.12,0-.19,0-.35.02.01.09.02.2.01.29v.34c0,.39.01.6.3.87-.05.04-.2.15-.42.15-.44,0-.51-.32-.51-1.02,0-.08,0-.08,0-.15-.22.24-.48.59-.48.88,0,.05,0,.13.02.2-.35,0-.61-.36-.61-.6,0-.37.56-.82.74-1.02h-.06c-.61,0-.74.2-.8.36-.16-.13-.3-.38-.3-.68,0-.17.04-.37.37-.37s.8.05,1.13.11c.25-.36.76-1.05,1-1.59-.1.02-.23.03-.44.03-.1,0-.22-.01-.28-.04,1.02-.88,1.86-2.02,1.86-3.31,0-.21-.05-.41-.12-.64h-.08s-2.57,4.1-2.57,4.1c-.77,1.22-1.37,1.19-2.28,1.19.75-.58,1.25-1.32,1.49-1.69l2.41-3.86c-.13-.04-.26-.09-.38-.14l-2.13,3.41c-.77,1.22-1.37,1.19-2.28,1.19.76-.58,1.25-1.31,1.49-1.69l2.07-3.31c-.12-.07-.23-.13-.34-.2l-1.7,2.71c-.77,1.22-1.37,1.2-2.28,1.2.76-.58,1.25-1.31,1.49-1.69l1.74-2.78c-.1-.09-.2-.19-.29-.29l-1.23,1.97c-.77,1.22-1.37,1.19-2.28,1.19.75-.58,1.25-1.31,1.49-1.69l1.43-2.29c-.08-.14-.14-.29-.2-.44l-.72,1.15c-.77,1.22-1.37,1.19-2.28,1.19.75-.58,1.25-1.31,1.49-1.69l1.4-2.25c.14-.69.5-1.34,1.03-1.83-.18-.07-.33-.14-.42-.21.92,0,1.83-.47,2.33-.47.32,0,.53.19.53.45-.02.28-.31.57-.85.57-.12,0-.28-.02-.45-.04-.29.41-.53.77-.53,1.3,0,.98,1.18,1.75,2.37,1.75.07,0,.13,0,.2,0,.24-.8.74-1.32,1.14-1.83-.48-.17-1.01-.63-1.01-.84.06-.04.98.25,1.07.28.02,0,.04,0,.06,0,.11-.03.21-.2.21-.21-.1-.02-.67-.09-1.07-.23-.3-.11-.45-.31-.45-.38.1-.02.46.18,1,.18.2,0,.24,0,.43-.03-.14-.33-.4-.61-.69-.61-.12,0-.37.07-.59.18-.15-.23-.28-.54-.28-.7,0-.2.19-.43.74-.43.15,0,.3.01.43.04.11.02.2.04.29.08,0-.01-.01-.04-.01-.07,0-.08.07-.16.33-.16.45,0,.92.15,1.49.15.15,0,.25,0,.33-.04-.04.11-.2.28-.34.41.09.12.33.42.33.9,0,.77-.51,1.41-.51,2.19,0,.47.36.87.47,1.12h0Z"/><path class="cls-1" d="M44.4,11.4c0-.45-.18-.69-.67-.69-.15,0-.7.03-.7.82v1.28c0,.83.24,1.04.7,1.04.35,0,.58-.09.68-.17v-1.14h-.7v-.42h1.18v1.85c-.31.17-.67.28-1.16.28-.8,0-1.19-.42-1.19-1.47v-1.25c0-.76.39-1.24,1.19-1.24s1.21.3,1.18,1.09h-.5Z"/><path class="cls-1" d="M45.79,14.18v-3.8h1.96v.42h-1.47v1.22h1.37v.42h-1.37v1.31h1.5v.42h-1.99Z"/><path class="cls-1" d="M48.38,14.18v-3.8h1.88v.42h-1.4v1.22h1.33v.42h-1.33v1.74h-.48Z"/><path class="cls-1" d="M50.74,12.79v-1.25c0-.76.39-1.24,1.19-1.24s1.19.48,1.19,1.24v1.25c0,1.05-.39,1.47-1.19,1.47s-1.19-.42-1.19-1.47ZM51.72,9.93h-.49v-.55h.49v.55ZM52.63,12.81v-1.28c0-.79-.55-.82-.7-.82s-.7.03-.7.82v1.28c0,.83.24,1.04.7,1.04s.7-.21.7-1.04ZM52.65,9.93h-.49v-.55h.49v.55Z"/><path class="cls-1" d="M54.44,12.43v1.75h-.48v-3.8h1.31c.67,0,.91.47.91.95,0,.45-.25.79-.69.87h0c.44.08.59.23.62.99,0,.16.06.76.13.99h-.5c-.14-.26-.11-.76-.15-1.26-.04-.46-.41-.48-.57-.48h-.57ZM54.44,12.01h.73c.35,0,.52-.3.52-.63,0-.27-.14-.58-.51-.58h-.73v1.21Z"/><path class="cls-1" d="M56.9,10.38h1.17c.48,0,.83.17,1.02.58.15.32.17,1.08.17,1.2,0,.81-.07,1.28-.23,1.53-.2.33-.59.49-1.25.49h-.87v-3.8ZM57.39,13.76h.46c.67,0,.92-.25.92-1.14v-.77c0-.77-.24-1.05-.74-1.05h-.64v2.95Z"/><path class="cls-1" d="M60.1,14.18v-3.8h1.96v.42h-1.47v1.22h1.37v.42h-1.37v1.31h1.5v.42h-1.99Z"/><path class="cls-1" d="M63.21,12.43v1.75h-.48v-3.8h1.31c.67,0,.91.47.91.95,0,.45-.25.79-.69.87h0c.44.08.59.23.62.99,0,.16.06.76.13.99h-.5c-.14-.26-.11-.76-.15-1.26-.04-.46-.41-.48-.57-.48h-.57ZM63.21,12.01h.73c.35,0,.52-.3.52-.63,0-.27-.14-.58-.51-.58h-.73v1.21Z"/><path class="cls-1" d="M67.79,10.38v.42h-1v3.38h-.48v-3.38h-1v-.42h2.48Z"/><path class="cls-1" d="M70.77,14.18h-.58l-1.1-3.8h.52l.87,3.34h0l.89-3.34h.5l-1.11,3.8Z"/><path class="cls-1" d="M72.36,12.79v-1.25c0-.76.39-1.24,1.19-1.24s1.19.48,1.19,1.24v1.25c0,1.05-.39,1.47-1.19,1.47s-1.19-.42-1.19-1.47ZM74.25,12.81v-1.28c0-.79-.55-.82-.7-.82s-.7.03-.7.82v1.28c0,.83.24,1.04.7,1.04s.7-.21.7-1.04Z"/><path class="cls-1" d="M76.05,14.18h-.45v-3.8h.78l.96,3.19h.01l.97-3.19h.8v3.8h-.48v-3.38h-.01l-1.06,3.38h-.46l-1.04-3.38h-.01v3.38Z"/></svg>