<svg xmlns="http://www.w3.org/2000/svg" viewBox="0 0 127.5591 73.7008"><rect width="127.5591" height="76.0757" style="fill:#fff"/><path d="M35.01,52.4339c-3.4889,0-3.2742-4.0524-3.2742-4.0524l5.8837.0083A13.5245,13.5245,0,0,1,36.4184,52.42S35.9488,52.4339,35.01,52.4339Z" style="fill:#00a656"/><path d="M33.1229,56.7608a14.8126,14.8126,0,0,1-22.2894-3.0163l19.2648-.0224Z" style="fill:#00a656"/><path d="M21.9934,45.6172l6.6825,6.79L10.12,52.399a13.62,13.62,0,0,1-1.3519-5.9278l-.0055-.845Z" style="fill:#00a656"/><polygon points="8.768 44.302 8.763 37.423 13.808 37.423 20.732 44.302 8.768 44.302" style="fill:#00a656"/><polygon points="8.763 32.386 12.486 36.11 8.768 36.103 8.763 32.386" style="fill:#00a656"/><path d="M37.7523,24.0132H8.7681s-.02,4.0837,2.9869,4.0793c2.9923-.0045,25.9919,0,25.9919,0Z" style="fill:#00a656"/><path d="M37.7469,32.0644H16.3307s-.4294,4.07,3.0058,4.07,18.4158.0092,18.4158.0092Z" style="fill:#00a656"/><path d="M27.3966,44.1948c-3.4709,0-3.3189-4.0792-3.3189-4.0792h13.705l.0179,4.0792Z" style="fill:#00a656"/><path d="M11.3082,16.68a.87.87,0,0,0-.8279-.5165.7517.7517,0,0,0-.7918.7389.6062.6062,0,0,0,.3023.5164,2.6347,2.6347,0,0,0,.3743.2008l.1512.0718.1512.0645.1512.0646c.7689.3371,1.0839.7172,1.0839,1.3126a1.473,1.473,0,0,1-1.5087,1.4719,1.4481,1.4481,0,0,1-1.486-1.228l.5158-.1435a.9583.9583,0,0,0,.963.8751.9441.9441,0,0,0,.9791-.94.7566.7566,0,0,0-.396-.6814,2.5154,2.5154,0,0,0-.4175-.2152l-.144-.0717-.1439-.0645-.144-.0646c-.69-.3084-.9687-.6455-.9687-1.1835a1.26,1.26,0,0,1,1.343-1.221,1.3556,1.3556,0,0,1,1.2361.74Z" style="fill:#231f20"/><path d="M15.2308,18.6734H13.6193l.8165-1.9146Zm.2077.4948.5658,1.3549h.5875l-2.1488-5.012-2.1989,5.012h.58l.573-1.3549Z" style="fill:#231f20"/><path d="M20.7116,16.7946a1.9438,1.9438,0,0,0-3.3775,1.3413A1.9546,1.9546,0,0,0,19.27,20.1084a2.0167,2.0167,0,0,0,1.4413-.6241v.6595A2.4755,2.4755,0,0,1,16.7974,18.15a2.5,2.5,0,0,1,2.4944-2.4834,2.2593,2.2593,0,0,1,1.42.4681Z" style="fill:#231f20"/><path d="M24.7564,17.6939V15.7486h.5368v4.7745h-.5368V18.1887H22.3277v2.3344h-.5368V15.7486h.5368v1.9453Z" style="fill:#231f20"/><path d="M28.6748,16.68a.87.87,0,0,0-.8278-.5165.7518.7518,0,0,0-.7919.7389.6061.6061,0,0,0,.3024.5164,2.6238,2.6238,0,0,0,.3743.2008l.1512.0718.1511.0645.1512.0646c.769.3371,1.0839.7172,1.0839,1.3126a1.473,1.473,0,0,1-1.5086,1.4719,1.4481,1.4481,0,0,1-1.486-1.228l.5157-.1435a.9584.9584,0,0,0,.9631.8751.9441.9441,0,0,0,.979-.94.7566.7566,0,0,0-.3959-.6814,2.5234,2.5234,0,0,0-.4175-.2152L27.775,18.2l-.144-.0645-.144-.0646c-.6895-.3084-.9686-.6455-.9686-1.1835a1.26,1.26,0,0,1,1.343-1.221,1.3553,1.3553,0,0,1,1.236.74Z" style="fill:#231f20"/><path d="M30.7893,16.2429V17.667h1.886v.4948h-1.886v1.8669h1.9362v.4948H30.2526V15.7482h2.4729v.4947Z" style="fill:#231f20"/><path d="M33.7089,15.5406l3.717,3.9081V15.7414h.5367V20.74l-3.7169-3.901v3.6858h-.5368Z" style="fill:#231f20"/><path d="M43.685,24.0065h.93c1.2412,0,1.6972.7437,1.6972,2.0566,0,1.835-.87,2.0811-1.8476,2.0811H43.685Zm.4677,3.7481H44.47c.8037,0,1.3321-.24,1.3321-1.6851,0-1.4932-.5762-1.6733-1.3858-1.6733h-.2637Z"/><path d="M47.07,24.0065h.5391v.54H47.07Zm.0655,1.2832h.4082v2.8545h-.4082Z"/><path d="M50.3988,28.1261a2.2128,2.2128,0,0,1-.6543.084c-.8808,0-1.3906-.5337-1.3906-1.5889,0-.8515.3535-1.3974,1.1153-1.3974a.96.96,0,0,1,.9951,1.0854v.1377H48.8217v.168c0,.4321.1914,1.2534,1.0127,1.2534a1.8487,1.8487,0,0,0,.5644-.0781Zm-.4023-2.021a.5316.5316,0,0,0-.5459-.54.6043.6043,0,0,0-.6.54Z"/><path d="M52.1274,26.5309c.3.1563.665.3242.665.8159,0,.5694-.3955.8633-1.0615.8633a2.6314,2.6314,0,0,1-.7793-.12v-.3716a2.4359,2.4359,0,0,0,.7373.15c.3965,0,.6963-.1318.6963-.4619,0-.2935-.3477-.4194-.5157-.5156l-.2578-.1377c-.2646-.15-.6484-.3062-.6484-.7739,0-.4615.3428-.7554.9775-.7554a2.7167,2.7167,0,0,1,.6719.0962v.3774a2.0535,2.0535,0,0,0-.665-.1318c-.3487,0-.5762.168-.5762.3721,0,.2334.2881.3295.5156.45Z"/><path d="M55.2826,28.1261a2.2128,2.2128,0,0,1-.6543.084c-.8808,0-1.3906-.5337-1.3906-1.5889,0-.8515.3535-1.3974,1.1152-1.3974a.96.96,0,0,1,.9952,1.0854v.1377H53.7055v.168c0,.4321.1914,1.2534,1.0127,1.2534a1.8487,1.8487,0,0,0,.5644-.0781Zm-.4023-2.021a.5316.5316,0,0,0-.5459-.54.6051.6051,0,0,0-.6.54Z"/><path d="M57.6772,24.0065h.7011l1.1758,3.52h.0117l1.1758-3.52h.6953v4.1377h-.42v-3.64h-.0117l-1.2178,3.64h-.4609l-1.2178-3.64h-.0117v3.64h-.42Z"/><path d="M63.851,27.7663h-.0127a.9851.9851,0,0,1-.875.4438.72.72,0,0,1-.7676-.7973c0-.6661.8633-.8877,1.3613-.8877a1.4394,1.4394,0,0,0,.2813-.0181,5.2257,5.2257,0,0,0-.0176-.5454.4783.4783,0,0,0-.5215-.396c-.4619,0-.5517.2339-.582.4556h-.4561c.0069-.3594.2461-.7974,1.0254-.7974.8877,0,.96.5576.96.9175v2.0029H63.851Zm-.252-.9175c-.3,0-.9355.12-.9355.6059a.39.39,0,0,0,.4014.4136.7544.7544,0,0,0,.666-.4438,1.0872,1.0872,0,0,0,.1074-.5757Z"/><path d="M65.2016,25.11c0-.6836.2578-1.1694,1.05-1.1694a.9938.9938,0,0,1,1.0791,1.0254.879.879,0,0,1-.6172.9233v.0122c.4375.0479.8516.3115.8516,1.1211a1.062,1.062,0,0,1-1.1641,1.1758,1.3873,1.3873,0,0,1-.4551-.0664V27.79a2.0528,2.0528,0,0,0,.4014.0664c.5459,0,.75-.3721.75-.84,0-.5157-.1738-.9414-.8154-.9414h-.0909v-.3418h.0909c.3476-.0362.581-.252.581-.7378a.6393.6393,0,0,0-.6172-.7134c-.6357,0-.6357.5156-.6357.9355v2.9263h-.4082Z"/><path d="M68.3158,25.29h.4082v.66h.0118a.9061.9061,0,0,1,.8935-.7256c.4854,0,.7315.4077.7315.8813v2.0391h-.4073v-1.583c0-.4917,0-.93-.42-.93-.54,0-.81.8218-.81,1.3374v1.1753h-.4082Z"/><path d="M72.7436,27.7663h-.0127a.9851.9851,0,0,1-.875.4438.72.72,0,0,1-.7676-.7973c0-.6661.8633-.8877,1.3613-.8877a1.4394,1.4394,0,0,0,.2813-.0181,5.2257,5.2257,0,0,0-.0176-.5454.4783.4783,0,0,0-.5215-.396c-.4619,0-.5517.2339-.582.4556h-.4561c.0069-.3594.2461-.7974,1.0254-.7974.8877,0,.96.5576.96.9175v2.0029h-.3955Zm-.252-.9175c-.3,0-.9355.12-.9355.6059a.39.39,0,0,0,.4013.4136.7547.7547,0,0,0,.6661-.4438,1.0872,1.0872,0,0,0,.1074-.5757Z"/><path d="M74.0942,24.0065h.4082v1.9429h.0117a.9061.9061,0,0,1,.8935-.7256c.4854,0,.7315.4077.7315.8813v2.0391h-.4072v-1.583c0-.4917,0-.93-.42-.93-.54,0-.8095.8218-.8095,1.3374v1.1753h-.4082Z"/><path d="M77.0883,25.29h.4082v.66h.0117a.8391.8391,0,0,1,.7979-.7256.65.65,0,0,1,.72.6538h.0117a.8828.8828,0,0,1,.81-.6538c.4853,0,.7314.4077.7314.8813v2.0391H80.17v-1.583c0-.4981,0-.93-.4189-.93-.4805,0-.7139.8276-.7139,1.3374v1.1753h-.4082v-1.583c0-.4917,0-.93-.42-.93-.4736,0-.7129.8218-.7129,1.3374v1.1753h-.4082Z"/><path d="M83.394,28.1261a2.2137,2.2137,0,0,1-.6543.084c-.8809,0-1.3907-.5337-1.3907-1.5889,0-.8515.3536-1.3974,1.1153-1.3974a.96.96,0,0,1,.9951,1.0854v.1377H81.8168v.168c0,.4321.1914,1.2534,1.0127,1.2534a1.85,1.85,0,0,0,.5645-.0781Zm-.4024-2.021a.5316.5316,0,0,0-.5459-.54.6051.6051,0,0,0-.6.54Z"/><path d="M85.5307,25.29h.4072l.5225,2.2188h.0117l.6836-2.2188h.3535l.6894,2.2188h.0127L88.727,25.29h.4072l-.665,2.8545h-.4561l-.6719-2.189H87.33l-.666,2.189H86.22Z"/><path d="M89.8393,24.0065h.539v.54h-.539Zm.0654,1.2832h.4082v2.8545h-.4082Z"/><path d="M91.3149,25.29h.4082v.5518h.0117a.9566.9566,0,0,1,.9531-.6177v.438c-.6475,0-.9648.5337-.9648,1.3012v1.1812h-.4082Z"/><path d="M94.7279,27.6584h-.0117a.7763.7763,0,0,1-.7441.5517c-.6895,0-.9776-.5635-.9776-1.4692,0-.7676.2706-1.5171.9717-1.5171a.7428.7428,0,0,1,.75.5337h.0117v-1.751h.4082v4.1377h-.4082Zm-.6718.21c.4677,0,.6718-.6474.6718-1.1391,0-.6358-.2275-1.1636-.66-1.1636-.4854,0-.6055.6474-.6055,1.2534C93.4623,27.1847,93.517,27.8683,94.0561,27.8683Z"/><path d="M43.6488,33.29h.4082v.66h.0118a.839.839,0,0,1,.7978-.7256.6494.6494,0,0,1,.72.6538h.0118a.8827.8827,0,0,1,.8095-.6538c.4854,0,.7315.4077.7315.8813v2.0391h-.4082v-1.583c0-.4981,0-.93-.419-.93-.48,0-.7138.8276-.7138,1.3374v1.1753H45.19v-1.583c0-.4917,0-.93-.42-.93-.4736,0-.7129.8218-.7129,1.3374v1.1753h-.4082Z"/><path d="M48.0717,32.0065h.5391v.54h-.5391Zm.0654,1.2832h.4082v2.8545h-.4082Z"/><path d="M50.8969,36.18a2.4189,2.4189,0,0,1-.36.03c-.5752,0-.791-.228-.791-.7373V33.6315h-.4678V33.29h.4678v-.6655l.4072-.2578V33.29H50.92v.3418h-.7676v1.7573a.422.422,0,0,0,.4678.4795.7064.7064,0,0,0,.2764-.0537Z"/><path d="M51.7192,33.6315h-.4854V33.29h.4854v-.3955a.8286.8286,0,0,1,.93-.9058,2.0908,2.0908,0,0,1,.4864.0542v.3658a1.237,1.237,0,0,0-.4141-.0782c-.4678,0-.5937.2637-.5937.6475v.312h.8154v.3418h-.8154v2.5127h-.4082Zm1.583-1.625h.54v.54h-.54Zm.0664,1.2832h.4082v2.8545h-.4082Z"/><path d="M54.767,33.29h.4082v.66h.0117a.9062.9062,0,0,1,.8936-.7256c.4853,0,.7314.4077.7314.8813v2.0391h-.4072v-1.583c0-.4917,0-.93-.42-.93-.54,0-.81.8218-.81,1.3374v1.1753H54.767Z"/><path d="M59.1947,35.7663H59.182a.985.985,0,0,1-.875.4438.72.72,0,0,1-.7675-.7973c0-.6661.8632-.8877,1.3613-.8877a1.4384,1.4384,0,0,0,.2812-.0181,5.2554,5.2554,0,0,0-.0175-.5454.4783.4783,0,0,0-.5215-.396c-.4619,0-.5518.2339-.582.4556h-.4561c.0068-.3594.2461-.7974,1.0254-.7974.8877,0,.96.5576.96.9175v2.0029h-.3955Zm-.2519-.9175c-.3,0-.9356.12-.9356.6059a.39.39,0,0,0,.4014.4136.7544.7544,0,0,0,.666-.4438,1.0862,1.0862,0,0,0,.1074-.5757Z"/><path d="M60.5453,33.29h.4082v.66h.0117a.9063.9063,0,0,1,.8936-.7256c.4854,0,.7314.4077.7314.8813v2.0391H62.183v-1.583c0-.4917,0-.93-.42-.93-.54,0-.81.8218-.81,1.3374v1.1753h-.4082Z"/><path d="M63.2514,35.8083l1.4931-2.1768H63.36V33.29h1.8828v.3477l-1.4873,2.165h1.541v.3418H63.2514Z"/><path d="M65.9584,32.0065h.5391v.54h-.5391Zm.0654,1.2832h.4082v2.8545h-.4082Z"/><path d="M69.2875,36.1261a2.2128,2.2128,0,0,1-.6543.084c-.8808,0-1.3906-.5337-1.3906-1.5889,0-.8515.3535-1.3974,1.1152-1.3974a.96.96,0,0,1,.9951,1.0854v.1377H67.71v.168c0,.4321.1914,1.2534,1.0127,1.2534a1.8487,1.8487,0,0,0,.5644-.0781Zm-.4023-2.021a.5317.5317,0,0,0-.5459-.5395.6043.6043,0,0,0-.6.5395Z"/><path d="M70.0981,33.29h.4082v.5518h.0117a.9566.9566,0,0,1,.9531-.6177v.438c-.6475,0-.9648.5337-.9648,1.3012v1.1812h-.4082Z"/><path d="M73.3373,36.18a2.4187,2.4187,0,0,1-.36.03c-.5752,0-.791-.228-.791-.7373V33.6315h-.4678V33.29h.4678v-.6655l.4072-.2578V33.29h.7676v.3418h-.7676v1.7573a.4219.4219,0,0,0,.4678.4795.7055.7055,0,0,0,.2763-.0537Z"/><path d="M77.0629,35.6584h-.0117a.7764.7764,0,0,1-.7442.5517c-.6894,0-.9775-.5635-.9775-1.4692,0-.7676.27-1.5171.9717-1.5171a.7429.7429,0,0,1,.75.5337h.0117v-1.751h.4082v4.1377h-.4082Zm-.6719.21c.4678,0,.6719-.6474.6719-1.1391,0-.6358-.2275-1.1636-.6592-1.1636-.4863,0-.6064.6474-.6064,1.2534C75.7973,35.1847,75.852,35.8683,76.391,35.8683Z"/><path d="M80.0326,35.4845h-.0117a.8933.8933,0,0,1-.8877.7256c-.4922,0-.7314-.4077-.7314-.8813V33.29h.4072v1.583c0,.4917,0,.93.42.93.54,0,.8037-.8218.8037-1.3374V33.29h.4082v2.8545h-.4082Z"/><path d="M81.4252,33.29h.4082v.5518h.0117a.9566.9566,0,0,1,.9532-.6177v.438c-.6475,0-.9649.5337-.9649,1.3012v1.1812h-.4082Z"/><path d="M85.1742,36.132a1.8431,1.8431,0,0,1-.5937.0781,1.3723,1.3723,0,0,1-1.47-1.5591c0-.8574.3418-1.4272,1.164-1.4272a.866.866,0,0,1,.9776.9355H84.766c0-.3056-.1259-.5937-.51-.5937-.5157,0-.6778.5635-.6778.9956,0,.5454.1866,1.3071,1.1338,1.3071a1.542,1.542,0,0,0,.4619-.06Z"/><path d="M85.8705,32.0065h.4082v1.9429H86.29a.9063.9063,0,0,1,.8936-.7256c.4854,0,.7314.4077.7314.8813v2.0391h-.4072v-1.583c0-.4917,0-.93-.42-.93-.54,0-.81.8218-.81,1.3374v1.1753h-.4082Z"/><path d="M91.7621,33.9074c.419.2339.875.4858.875,1.14,0,.8633-.6836,1.1631-1.457,1.1631a4.2557,4.2557,0,0,1-.9531-.126v-.48a2.6869,2.6869,0,0,0,1.0068.2159c.51,0,.8936-.252.8936-.7076,0-.4677-.3477-.6416-.6895-.8334l-.3662-.2041c-.3838-.2159-.8936-.4439-.8936-1.0733,0-.7139.57-1.0615,1.3321-1.0615a3.9746,3.9746,0,0,1,.8633.1079V32.51a2.47,2.47,0,0,0-.9053-.18c-.4737,0-.78.2461-.78.63,0,.3657.3662.5576.69.7373Z"/><path d="M94.66,36.18a2.4189,2.4189,0,0,1-.36.03c-.5752,0-.791-.228-.791-.7373V33.6315H93.04V33.29h.4678v-.6655l.4072-.2578V33.29h.7676v.3418h-.7676v1.7573a.422.422,0,0,0,.4678.4795.7064.7064,0,0,0,.2764-.0537Z"/><path d="M97.1615,36.1261a2.2128,2.2128,0,0,1-.6543.084c-.8808,0-1.3906-.5337-1.3906-1.5889,0-.8515.3535-1.3974,1.1153-1.3974a.96.96,0,0,1,.9951,1.0854v.1377H95.5844v.168c0,.4321.1914,1.2534,1.0127,1.2534a1.8487,1.8487,0,0,0,.5644-.0781Zm-.4023-2.021a.5316.5316,0,0,0-.5459-.5395.6051.6051,0,0,0-.6.5395Z"/><path d="M99.58,35.4845h-.0117a.8934.8934,0,0,1-.8877.7256c-.4922,0-.7315-.4077-.7315-.8813V33.29h.4073v1.583c0,.4917,0,.93.42.93.54,0,.8037-.8218.8037-1.3374V33.29h.4082v2.8545H99.58Z"/><path d="M102.8256,36.1261a2.2128,2.2128,0,0,1-.6543.084c-.8809,0-1.3906-.5337-1.3906-1.5889,0-.8515.3535-1.3974,1.1152-1.3974a.96.96,0,0,1,.9951,1.0854v.1377h-1.6425v.168c0,.4321.1914,1.2534,1.0126,1.2534a1.849,1.849,0,0,0,.5645-.0781Zm-.4023-2.021a.5317.5317,0,0,0-.5459-.5395.6053.6053,0,0,0-.6.5395Z"/><path d="M103.6361,33.29h.4083v.5518h.0117a.9566.9566,0,0,1,.9531-.6177v.438c-.6475,0-.9648.5337-.9648,1.3012v1.1812h-.4083Z"/><path d="M105.52,33.29h.4082v.66h.0118a.839.839,0,0,1,.7978-.7256.6494.6494,0,0,1,.72.6538h.0118a.8826.8826,0,0,1,.8095-.6538c.4854,0,.7315.4077.7315.8813v2.0391h-.4082v-1.583c0-.4981,0-.93-.419-.93-.48,0-.7138.8276-.7138,1.3374v1.1753h-.4082v-1.583c0-.4917,0-.93-.42-.93-.4736,0-.7129.8218-.7129,1.3374v1.1753H105.52Z"/><path d="M109.9428,32.0065h.5391v.54h-.5391Zm.0654,1.2832h.4082v2.8545h-.4082Z"/><path d="M112.768,36.18a2.42,2.42,0,0,1-.36.03c-.5752,0-.791-.228-.791-.7373V33.6315h-.4678V33.29h.4678v-.6655l.4072-.2578V33.29h.7676v.3418h-.7676v1.7573a.422.422,0,0,0,.4678.4795.7064.7064,0,0,0,.2764-.0537Z"/><path d="M114.766,36.18a2.4187,2.4187,0,0,1-.36.03c-.5752,0-.791-.228-.791-.7373V33.6315h-.4678V33.29h.4678v-.6655l.4072-.2578V33.29h.7676v.3418h-.7676v1.7573a.4219.4219,0,0,0,.4678.4795.7055.7055,0,0,0,.2763-.0537Z"/><path d="M117.268,36.1261a2.2133,2.2133,0,0,1-.6543.084c-.8809,0-1.3906-.5337-1.3906-1.5889,0-.8515.3535-1.3974,1.1152-1.3974a.96.96,0,0,1,.9951,1.0854v.1377h-1.6426v.168c0,.4321.1914,1.2534,1.0127,1.2534a1.85,1.85,0,0,0,.5645-.0781Zm-.4024-2.021a.5316.5316,0,0,0-.5459-.5395.6044.6044,0,0,0-.6.5395Z"/><path d="M118.1147,32.0065h.4082v4.1377h-.4082Z"/><path d="M45.0824,43.7658H45.07a.9862.9862,0,0,1-.875.4443.7208.7208,0,0,1-.7675-.7978c0-.6661.8632-.8877,1.3613-.8877a1.4786,1.4786,0,0,0,.2812-.0176,5.2556,5.2556,0,0,0-.0175-.5459.4783.4783,0,0,0-.5215-.396c-.4619,0-.5518.2339-.5821.4556h-.456c.0068-.3594.2461-.7974,1.0264-.7974.8867,0,.9589.5576.9589.9175v2.0029h-.3955Zm-.2519-.917c-.3,0-.9356.1191-.9356.6055a.39.39,0,0,0,.4014.414.7541.7541,0,0,0,.666-.4443,1.0841,1.0841,0,0,0,.1074-.5752Z"/><path d="M48.04,43.4845h-.0117a.8936.8936,0,0,1-.8877.7256c-.4922,0-.7314-.4082-.7314-.8818V41.2892h.4072v1.583c0,.4922,0,.93.42.93.54,0,.8037-.8213.8037-1.3369V41.2892h.4082v2.8545H48.04Z"/><path d="M49.601,41.631h-.48v-.3418h.48v-.3955a.83.83,0,0,1,.9355-.9058,2.0908,2.0908,0,0,1,.4864.0542v.3658a1.237,1.237,0,0,0-.4141-.0782c-.4736,0-.6.2642-.6.648v.3115h.8213v.3418h-.8213v2.5127H49.601Z"/><path d="M54.4,43.6584h-.0117a.7774.7774,0,0,1-.7441.5517c-.6895,0-.9776-.5644-.9776-1.47,0-.7676.27-1.5171.9717-1.5171a.7424.7424,0,0,1,.75.5337H54.4V40.006h.4082v4.1377H54.4Zm-.6719.21c.4678,0,.6719-.6484.6719-1.14,0-.6358-.2275-1.1636-.66-1.1636-.4854,0-.6055.6475-.6055,1.2534C53.1342,43.1837,53.1889,43.8683,53.7279,43.8683Z"/><path d="M57.6156,44.1261a2.23,2.23,0,0,1-.6543.084c-.8808,0-1.3906-.5342-1.3906-1.59,0-.8511.3535-1.397,1.1153-1.397a.96.96,0,0,1,.9951,1.0854v.1377H56.0385v.168c0,.4317.1914,1.2539,1.0127,1.2539a1.8817,1.8817,0,0,0,.5644-.0781Zm-.4023-2.0215a.5317.5317,0,0,0-.5459-.5395.6043.6043,0,0,0-.6.5395Z"/><path d="M58.4262,41.2892h.4082v.5518h.0117a.9566.9566,0,0,1,.9531-.6177v.438c-.6474,0-.9648.5337-.9648,1.3008v1.1816h-.4082Z"/><path d="M64.5444,43.8136a1.93,1.93,0,0,1-1.1934.3965c-1.3076,0-1.6553-1.0742-1.6553-2.2734,0-1.0552.4082-1.9966,1.541-1.9966a1.2,1.2,0,0,1,1.3321,1.1934H64.04a.7494.7494,0,0,0-.7978-.8038c-.8389,0-1.0371.8575-1.0371,1.607,0,.8037.1377,1.8828,1.1094,1.8828a1.2144,1.2144,0,0,0,.7617-.2275V42.195h-.9473v-.39h1.4151Z"/><path d="M65.4272,41.2892h.4082v.5518h.0117a.9566.9566,0,0,1,.9531-.6177v.438c-.6475,0-.9648.5337-.9648,1.3008v1.1816h-.4082Z"/><path d="M68.9242,43.4845h-.0117a.8937.8937,0,0,1-.8877.7256c-.4922,0-.7314-.4082-.7314-.8818V41.2892h.4072v1.583c0,.4922,0,.93.42.93.54,0,.8037-.8213.8037-1.3369V41.2892h.4073v2.8545h-.4073Z"/><path d="M70.3168,41.2892h.4082v.66h.0117a.9062.9062,0,0,1,.8936-.7256c.4853,0,.7314.4077.7314.8813v2.0391h-.4072v-1.583c0-.4917,0-.93-.42-.93-.54,0-.81.8213-.81,1.3369v1.1758h-.4082Z"/><path d="M74.84,43.6584h-.0117a.7774.7774,0,0,1-.7441.5517c-.6895,0-.9775-.5644-.9775-1.47,0-.7676.27-1.5171.9716-1.5171a.7422.7422,0,0,1,.75.5337H74.84V40.006h.4083v4.1377H74.84Zm-.6718.21c.4677,0,.6718-.6484.6718-1.14,0-.6358-.2275-1.1636-.6591-1.1636-.4864,0-.6065.6475-.6065,1.2534C73.5746,43.1837,73.6293,43.8683,74.1684,43.8683Z"/><path d="M76.2387,40.006h.4082v4.1377h-.4082Z"/><path d="M79.0766,43.7658h-.0127a.9863.9863,0,0,1-.875.4443.7208.7208,0,0,1-.7676-.7978c0-.6661.8633-.8877,1.3613-.8877a1.48,1.48,0,0,0,.2813-.0176,5.2259,5.2259,0,0,0-.0176-.5459.4783.4783,0,0,0-.5215-.396c-.4619,0-.5517.2339-.582.4556h-.4561c.0069-.3594.2461-.7974,1.0264-.7974.8867,0,.959.5576.959.9175v2.0029h-.3955Zm-.252-.917c-.3,0-.9355.1191-.9355.6055a.39.39,0,0,0,.4013.414.7542.7542,0,0,0,.6661-.4443,1.0851,1.0851,0,0,0,.1074-.5752Z"/><path d="M82.3588,44.15a1.0861,1.0861,0,0,1-1.2119,1.2412,3.0122,3.0122,0,0,1-.7734-.0957V44.881a1.6424,1.6424,0,0,0,.7138.168c.7373,0,.8633-.4375.8633-.9473v-.5039h-.0117a.7651.7651,0,0,1-.7559.5459c-.75,0-.9658-.7012-.9658-1.4092,0-.7617.27-1.5112.9775-1.5112a.7479.7479,0,0,1,.7442.5337h.0117v-.4678h.4082Zm-1.0918-.3477c.4912,0,.6836-.6592.6836-1.14,0-.4434-.1855-1.0972-.6719-1.0972-.4316,0-.5937.564-.5937,1.1753C80.685,43.1779,80.7817,43.8019,81.267,43.8019Z"/><path d="M85.1664,44.1261a2.23,2.23,0,0,1-.6543.084c-.8808,0-1.3906-.5342-1.3906-1.59,0-.8511.3535-1.397,1.1152-1.397a.96.96,0,0,1,.9952,1.0854v.1377H83.5893v.168c0,.4317.1914,1.2539,1.0127,1.2539a1.8817,1.8817,0,0,0,.5644-.0781Zm-.4023-2.0215a.5317.5317,0,0,0-.5459-.5395.6043.6043,0,0,0-.6.5395Z"/><path d="M89.0541,43.6584h-.0117a.7774.7774,0,0,1-.7441.5517c-.6895,0-.9776-.5644-.9776-1.47,0-.7676.27-1.5171.9717-1.5171a.7424.7424,0,0,1,.75.5337h.0117V40.006h.4082v4.1377h-.4082Zm-.6719.21c.4678,0,.6719-.6484.6719-1.14,0-.6358-.2275-1.1636-.66-1.1636-.4854,0-.6055.6475-.6055,1.2534C87.7885,43.1837,87.8432,43.8683,88.3822,43.8683Z"/><path d="M92.27,44.1261a2.23,2.23,0,0,1-.6543.084c-.8808,0-1.3906-.5342-1.3906-1.59,0-.8511.3535-1.397,1.1152-1.397a.96.96,0,0,1,.9952,1.0854v.1377H90.6928v.168c0,.4317.1914,1.2539,1.0127,1.2539A1.8817,1.8817,0,0,0,92.27,43.79Zm-.4023-2.0215a.5317.5317,0,0,0-.5459-.5395.6043.6043,0,0,0-.6.5395Z"/><path d="M93.9985,42.53c.3.1563.665.3242.665.8155,0,.57-.3955.8642-1.0615.8642a2.6314,2.6314,0,0,1-.7793-.12v-.3721a2.4157,2.4157,0,0,0,.7373.15c.3965,0,.6963-.1328.6963-.4619,0-.2939-.3477-.42-.5157-.5156l-.2578-.1387c-.2646-.1494-.6484-.3057-.6484-.7734,0-.4615.3428-.7554.9775-.7554a2.7167,2.7167,0,0,1,.6719.0962v.3774a2.0535,2.0535,0,0,0-.665-.1318c-.3487,0-.5762.168-.5762.3716,0,.2339.2881.33.5156.45Z"/><path d="M96.4223,41.2892H96.86l.84,2.2549h.0117l.7325-2.2549h.4375l-.9659,2.8545h-.414Z"/><path d="M99.2055,42.7228c0-.834.3242-1.4995,1.164-1.4995.8457,0,1.1749.6655,1.1749,1.4995S101.2152,44.21,100.37,44.21C99.53,44.21,99.2055,43.5558,99.2055,42.7228Zm1.164,1.1455c.4678,0,.7071-.4326.7071-1.1513,0-.7139-.2393-1.1519-.7071-1.1519-.4619,0-.6962.438-.6962,1.1519C99.6733,43.4357,99.9076,43.8683,100.37,43.8683Z"/><path d="M102.29,41.2892h.4082v.66h.0117a.839.839,0,0,1,.7978-.7256.65.65,0,0,1,.72.6538h.0117a.8828.8828,0,0,1,.81-.6538c.4853,0,.7314.4077.7314.8813v2.0391h-.4082v-1.583c0-.498,0-.93-.4189-.93-.4805,0-.7139.8272-.7139,1.3369v1.1758h-.4082v-1.583c0-.4917,0-.93-.42-.93-.4737,0-.7129.8213-.7129,1.3369v1.1758H102.29Z"/><path d="M44.9926,49.9074c.4189.2334.875.4853.875,1.1387,0,.8642-.6836,1.164-1.457,1.164a4.289,4.289,0,0,1-.9532-.126v-.48a2.6806,2.6806,0,0,0,1.0069.2158c.51,0,.8935-.251.8935-.707,0-.4678-.3476-.6416-.6894-.834l-.3662-.2041c-.3838-.2158-.8936-.4434-.8936-1.0733,0-.7129.57-1.0615,1.332-1.0615a3.9335,3.9335,0,0,1,.8633.1084V48.51a2.472,2.472,0,0,0-.9053-.18c-.4736,0-.78.2452-.78.6289,0,.3663.3662.5577.69.7383Z"/><path d="M47.9682,51.7658h-.0127a.9863.9863,0,0,1-.875.4443.7208.7208,0,0,1-.7676-.7978c0-.6661.8633-.8877,1.3613-.8877a1.48,1.48,0,0,0,.2813-.0176,5.2259,5.2259,0,0,0-.0176-.5459.4775.4775,0,0,0-.5215-.3955c-.4619,0-.5517.2334-.582.4551h-.4561c.0069-.3594.2461-.7969,1.0254-.7969.8877,0,.96.5576.96.917v2.0029h-.3955Zm-1.3135-3.5684h.54v.5283h-.54Zm1.0615,2.6514c-.3,0-.9355.1191-.9355.6055a.39.39,0,0,0,.4013.414.7542.7542,0,0,0,.6661-.4443,1.0851,1.0851,0,0,0,.1074-.5752ZM47.71,48.1974h.539v.5283H47.71Z"/><path d="M51.1781,52.132a1.8567,1.8567,0,0,1-.5937.0781,1.3727,1.3727,0,0,1-1.47-1.56c0-.8574.3418-1.4267,1.164-1.4267a.8656.8656,0,0,1,.9776.9346H50.77c0-.3057-.1259-.5928-.51-.5928-.5157,0-.6778.5635-.6778.9951,0,.5459.1866,1.3076,1.1338,1.3076a1.5609,1.5609,0,0,0,.4619-.06Z"/><path d="M51.8744,48.006h.4082v1.9434h.0118a.9056.9056,0,0,1,.8935-.7256c.4854,0,.7315.4072.7315.8808v2.0391h-.4073v-1.583c0-.4922,0-.93-.42-.93-.54,0-.81.8213-.81,1.3369v1.1758h-.4082Z"/><path d="M55.7924,50.53c.3.1563.665.3242.665.8155,0,.57-.3955.8642-1.0615.8642a2.632,2.632,0,0,1-.7793-.12v-.3721a2.4183,2.4183,0,0,0,.7383.15c.3955,0,.6953-.1328.6953-.4619,0-.2939-.3476-.42-.5156-.5156l-.2578-.1387c-.2647-.1494-.6485-.3057-.6485-.7734,0-.4619.3418-.7549.9776-.7549a2.7219,2.7219,0,0,1,.6718.0957v.3779a2.04,2.04,0,0,0-.665-.1318c-.3486,0-.5762.167-.5762.3711,0,.2344.2881.33.5157.45Z"/><path d="M57.0649,48.006h.539v.54h-.539Zm.0654,1.2832h.4082v2.8545H57.13Z"/><path d="M59.4584,50.53c.3.1563.6651.3242.6651.8155,0,.57-.3956.8642-1.0616.8642a2.632,2.632,0,0,1-.7793-.12v-.3721a2.4183,2.4183,0,0,0,.7383.15c.3955,0,.6953-.1328.6953-.4619,0-.2939-.3476-.42-.5156-.5156l-.2578-.1387c-.2647-.1494-.6484-.3057-.6484-.7734,0-.4619.3417-.7549.9775-.7549a2.7237,2.7237,0,0,1,.6719.0957v.3779a2.0407,2.0407,0,0,0-.6651-.1318c-.3486,0-.5761.167-.5761.3711,0,.2344.288.33.5156.45Z"/><path d="M62.62,52.132a1.8567,1.8567,0,0,1-.5937.0781,1.3727,1.3727,0,0,1-1.47-1.56c0-.8574.3418-1.4267,1.164-1.4267a.8655.8655,0,0,1,.9776.9346h-.4864c0-.3057-.1259-.5928-.51-.5928-.5156,0-.6778.5635-.6778.9951,0,.5459.1866,1.3076,1.1338,1.3076a1.5609,1.5609,0,0,0,.4619-.06Z"/><path d="M63.3158,48.006h.4082v1.9434h.0118a.9056.9056,0,0,1,.8935-.7256c.4854,0,.7315.4072.7315.8808v2.0391h-.4073v-1.583c0-.4922,0-.93-.42-.93-.54,0-.81.8213-.81,1.3369v1.1758h-.4082Z"/><path d="M68.1694,52.1261a2.23,2.23,0,0,1-.6543.084c-.8809,0-1.3907-.5342-1.3907-1.59,0-.8516.3535-1.3965,1.1153-1.3965a.96.96,0,0,1,.9951,1.0849v.1377H66.5922v.168c0,.4317.1914,1.2539,1.0127,1.2539a1.8825,1.8825,0,0,0,.5645-.0781Zm-.4024-2.0215a.5315.5315,0,0,0-.5459-.539.6051.6051,0,0,0-.6.539Z"/><path d="M68.98,49.2892h.4082v.66H69.4a.9056.9056,0,0,1,.8936-.7256c.4853,0,.7314.4072.7314.8808v2.0391h-.4072v-1.583c0-.4922,0-.93-.42-.93-.54,0-.81.8213-.81,1.3369v1.1758H68.98Z"/><path d="M73.5639,48.006h.4678v3.7481h1.4814v.39H73.5639Z"/><path d="M77.4037,51.7658H77.391a.9863.9863,0,0,1-.875.4443.7208.7208,0,0,1-.7675-.7978c0-.6661.8632-.8877,1.3613-.8877a1.4791,1.4791,0,0,0,.2812-.0176,5.2556,5.2556,0,0,0-.0175-.5459.4775.4775,0,0,0-.5215-.3955c-.4619,0-.5518.2334-.5821.4551h-.456c.0068-.3594.2461-.7969,1.0254-.7969.8877,0,.96.5576.96.917v2.0029h-.3955Zm-.2519-.917c-.3,0-.9356.1191-.9356.6055a.39.39,0,0,0,.4014.414.7541.7541,0,0,0,.666-.4443,1.0841,1.0841,0,0,0,.1074-.5752Z"/><path d="M78.7543,49.2892h.4082v.66h.0117a.9057.9057,0,0,1,.8936-.7256c.4853,0,.7314.4072.7314.8808v2.0391H80.392v-1.583c0-.4922,0-.93-.42-.93-.54,0-.81.8213-.81,1.3369v1.1758h-.4082Z"/><path d="M83.2777,51.6584H83.266a.7774.7774,0,0,1-.7441.5517c-.6895,0-.9775-.5644-.9775-1.47,0-.7676.27-1.5166.9716-1.5166a.7419.7419,0,0,1,.75.5332h.0117V48.006h.4083v4.1377h-.4083Zm-.6718.21c.4677,0,.6718-.6484.6718-1.14,0-.6358-.2275-1.1631-.6591-1.1631-.4864,0-.6065.6474-.6065,1.2529C82.0121,51.1837,82.0668,51.8683,82.6059,51.8683Z"/><path d="M85.99,52.18a2.4906,2.4906,0,0,1-.36.03c-.5752,0-.791-.2285-.791-.7383V49.631h-.4678v-.3418h.4678v-.666l.4072-.2578v.9238h.7676v.3418h-.7676v1.7569a.4223.4223,0,0,0,.4678.48.6963.6963,0,0,0,.2764-.0547Z"/><path d="M88.0658,51.7658h-.0127a.9862.9862,0,0,1-.875.4443.7208.7208,0,0,1-.7675-.7978c0-.6661.8632-.8877,1.3613-.8877a1.4786,1.4786,0,0,0,.2812-.0176,5.2556,5.2556,0,0,0-.0175-.5459.4775.4775,0,0,0-.5215-.3955c-.4619,0-.5518.2334-.5821.4551h-.456c.0068-.3594.2461-.7969,1.0254-.7969.8877,0,.96.5576.96.917v2.0029h-.3955Zm-.2519-.917c-.3,0-.9356.1191-.9356.6055a.39.39,0,0,0,.4014.414.7541.7541,0,0,0,.666-.4443,1.0841,1.0841,0,0,0,.1074-.5752Z"/><path d="M91.3481,52.15a1.0861,1.0861,0,0,1-1.212,1.2412,3.0131,3.0131,0,0,1-.7734-.0957V52.881a1.643,1.643,0,0,0,.7139.168c.7373,0,.8633-.4375.8633-.9473v-.5039h-.0118a.7659.7659,0,0,1-.7558.5459c-.75,0-.9658-.7012-.9658-1.4092,0-.7617.27-1.5107.9775-1.5107a.7474.7474,0,0,1,.7441.5332H90.94v-.4678h.4082Zm-1.0918-.3477c.4912,0,.6836-.6592.6836-1.14,0-.4434-.1856-1.0967-.6719-1.0967-.4317,0-.5938.5635-.5938,1.1748C89.6742,51.1779,89.7709,51.8019,90.2563,51.8019Z"/><path d="M43.9848,57.7629h.0117a.785.785,0,0,1,.7734-.5391c.7862,0,1.02.7851,1.02,1.5224,0,.8223-.3291,1.4639-1.1455,1.4639-1.0186,0-1.0674-.87-1.0674-1.2422V56.006h.4082Zm.6474,2.1054c.51,0,.69-.5644.69-1.1338,0-.5459-.1553-1.1689-.6289-1.1689-.51,0-.708.7012-.708,1.2646C43.9848,59.16,44.0326,59.8683,44.6322,59.8683Z"/><path d="M48.394,60.1261a2.23,2.23,0,0,1-.6543.084c-.8809,0-1.3907-.5342-1.3907-1.59,0-.8516.3536-1.3965,1.1153-1.3965a.96.96,0,0,1,.9951,1.0849v.1377H46.8168v.168c0,.4317.1914,1.2539,1.0127,1.2539a1.8825,1.8825,0,0,0,.5645-.0781Zm-.4024-2.0215a.5315.5315,0,0,0-.5459-.539.6051.6051,0,0,0-.6.539Z"/><path d="M50.1225,58.53c.3.1563.665.3242.665.8155,0,.57-.3955.8642-1.0615.8642a2.632,2.632,0,0,1-.7793-.12v-.3721a2.4183,2.4183,0,0,0,.7383.15c.3955,0,.6953-.1328.6953-.4619,0-.2939-.3477-.42-.5156-.5156l-.2578-.1387c-.2647-.1494-.6485-.3057-.6485-.7734,0-.4619.3418-.7549.9776-.7549a2.7219,2.7219,0,0,1,.6718.0957v.3779a2.04,2.04,0,0,0-.665-.1318c-.3486,0-.5762.167-.5762.3711,0,.2344.2881.33.5156.45Z"/><path d="M53.2836,60.132a1.8576,1.8576,0,0,1-.5937.0781,1.3727,1.3727,0,0,1-1.47-1.56c0-.8574.3418-1.4267,1.1641-1.4267a.8655.8655,0,0,1,.9775.9346h-.4863c0-.3057-.126-.5928-.51-.5928-.5156,0-.6777.5635-.6777.9951,0,.5459.1865,1.3076,1.1338,1.3076a1.5609,1.5609,0,0,0,.4619-.06Z"/><path d="M53.98,56.006h.4082v1.9434H54.4a.9056.9056,0,0,1,.8936-.7256c.4853,0,.7314.4072.7314.8808v2.0391h-.4072v-1.583c0-.4922,0-.93-.42-.93-.54,0-.81.8213-.81,1.3369v1.1758H53.98Z"/><path d="M57.016,56.006h.4082v4.1377H57.016Z"/><path d="M58.2221,58.7228c0-.834.3242-1.499,1.164-1.499.8458,0,1.1749.665,1.1749,1.499S60.2319,60.21,59.3861,60.21C58.5463,60.21,58.2221,59.5558,58.2221,58.7228Zm1.164,1.1455c.4678,0,.7071-.4326.7071-1.1513,0-.7139-.2393-1.1514-.7071-1.1514-.4619,0-.6962.4375-.6962,1.1514C58.69,59.4357,58.9242,59.8683,59.3861,59.8683Z"/><path d="M62.23,58.53c.3.1563.665.3242.665.8155,0,.57-.3955.8642-1.0615.8642a2.632,2.632,0,0,1-.7793-.12v-.3721a2.4183,2.4183,0,0,0,.7383.15c.3955,0,.6953-.1328.6953-.4619,0-.2939-.3476-.42-.5156-.5156l-.2578-.1387c-.2647-.1494-.6485-.3057-.6485-.7734,0-.4619.3418-.7549.9776-.7549a2.7219,2.7219,0,0,1,.6718.0957v.3779a2.04,2.04,0,0,0-.665-.1318c-.3486,0-.5762.167-.5762.3711,0,.2344.2881.33.5157.45Z"/><path d="M64.45,58.53c.3.1563.6651.3242.6651.8155,0,.57-.3955.8642-1.0616.8642a2.632,2.632,0,0,1-.7793-.12v-.3721a2.4173,2.4173,0,0,0,.7373.15c.3965,0,.6963-.1328.6963-.4619,0-.2939-.3476-.42-.5156-.5156l-.2578-.1387c-.2646-.1494-.6484-.3057-.6484-.7734,0-.4619.3427-.7549.9775-.7549a2.7237,2.7237,0,0,1,.6719.0957v.3779a2.0407,2.0407,0,0,0-.6651-.1318c-.3486,0-.5761.167-.5761.3711,0,.2344.2881.33.5156.45Z"/><path d="M67.6049,60.1261a2.23,2.23,0,0,1-.6543.084c-.8809,0-1.3906-.5342-1.3906-1.59,0-.8516.3535-1.3965,1.1152-1.3965a.96.96,0,0,1,.9951,1.0849v.1377H66.0277v.168c0,.4317.1915,1.2539,1.0127,1.2539a1.882,1.882,0,0,0,.5645-.0781Zm-.4023-2.0215a.5316.5316,0,0,0-.5459-.539.6053.6053,0,0,0-.6.539Z"/><path d="M68.4154,57.2892h.4082v.66h.0118a.9056.9056,0,0,1,.8935-.7256c.4854,0,.7315.4072.7315.8808v2.0391h-.4073v-1.583c0-.4922,0-.93-.42-.93-.54,0-.81.8213-.81,1.3369v1.1758h-.4082Z"/><path d="M73.269,60.1261a2.23,2.23,0,0,1-.6543.084c-.8809,0-1.3907-.5342-1.3907-1.59,0-.8516.3536-1.3965,1.1153-1.3965a.96.96,0,0,1,.9951,1.0849v.1377H71.6918v.168c0,.4317.1914,1.2539,1.0127,1.2539a1.8825,1.8825,0,0,0,.5645-.0781Zm-.4024-2.0215a.5315.5315,0,0,0-.5459-.539.6051.6051,0,0,0-.6.539Z"/><path d="M74.08,57.2892h.4082v.66h.0117a.9057.9057,0,0,1,.8936-.7256c.4853,0,.7314.4072.7314.8808v2.0391h-.4072v-1.583c0-.4922,0-.93-.42-.93-.54,0-.81.8213-.81,1.3369v1.1758H74.08Z"/><path d="M78.6635,56.006h.4678v1.793H80.84V56.006h.4678v4.1377H80.84V58.1886H79.1313v1.9551h-.4678Z"/><path d="M83.727,59.7658h-.0127a.9863.9863,0,0,1-.875.4443.7208.7208,0,0,1-.7676-.7978c0-.6661.8633-.8877,1.3613-.8877a1.48,1.48,0,0,0,.2813-.0176,5.2259,5.2259,0,0,0-.0176-.5459.4775.4775,0,0,0-.5215-.3955c-.4619,0-.5517.2334-.582.4551h-.4561c.0069-.3594.2461-.7969,1.0264-.7969.8867,0,.959.5576.959.917v2.0029H83.727Zm-.252-.917c-.3,0-.9355.1191-.9355.6055a.39.39,0,0,0,.4013.414.7543.7543,0,0,0,.6661-.4443,1.0851,1.0851,0,0,0,.1074-.5752Z"/><path d="M86.685,59.4845h-.0117a.8938.8938,0,0,1-.8877.7256c-.4922,0-.7315-.4082-.7315-.8818V57.2892h.4072v1.583c0,.4922,0,.93.42.93.54,0,.8037-.8213.8037-1.3369V57.2892h.4082v2.8545H86.685Z"/><path d="M88.9955,58.53c.3.1563.6651.3242.6651.8155,0,.57-.3955.8642-1.0616.8642a2.632,2.632,0,0,1-.7793-.12v-.3721a2.4183,2.4183,0,0,0,.7383.15c.3955,0,.6953-.1328.6953-.4619,0-.2939-.3476-.42-.5156-.5156l-.2578-.1387c-.2647-.1494-.6484-.3057-.6484-.7734,0-.4619.3418-.7549.9775-.7549a2.7237,2.7237,0,0,1,.6719.0957v.3779a2.0407,2.0407,0,0,0-.6651-.1318c-.3486,0-.5761.167-.5761.3711,0,.2344.288.33.5156.45Z"/><path d="M90.2973,56.006h.4082v1.9434h.0117a.9056.9056,0,0,1,.8936-.7256c.4853,0,.7314.4072.7314.8808v2.0391H91.935v-1.583c0-.4922,0-.93-.42-.93-.54,0-.81.8213-.81,1.3369v1.1758h-.4082Z"/><path d="M94.725,59.7658h-.0127a.9863.9863,0,0,1-.875.4443.7208.7208,0,0,1-.7676-.7978c0-.6661.8633-.8877,1.3614-.8877a1.4791,1.4791,0,0,0,.2812-.0176,5.2259,5.2259,0,0,0-.0176-.5459.4774.4774,0,0,0-.5214-.3955c-.462,0-.5518.2334-.5821.4551h-.456c.0068-.3594.2461-.7969,1.0263-.7969.8868,0,.959.5576.959.917v2.0029H94.725Zm-.2519-.917c-.3,0-.9356.1191-.9356.6055a.39.39,0,0,0,.4014.414.7541.7541,0,0,0,.666-.4443,1.0841,1.0841,0,0,0,.1074-.5752Z"/><path d="M96.1117,56.006H96.52v4.1377h-.4082Z"/><path d="M98.8715,60.18a2.4882,2.4882,0,0,1-.36.03c-.5751,0-.791-.2285-.791-.7383V57.631h-.4677v-.3418H97.72v-.666l.4073-.2578v.9238h.7675v.3418h-.7675v1.7569a.4222.4222,0,0,0,.4677.48.6959.6959,0,0,0,.2764-.0547Z"/><path d="M101.3735,60.1261a2.23,2.23,0,0,1-.6543.084c-.8809,0-1.3907-.5342-1.3907-1.59,0-.8516.3535-1.3965,1.1153-1.3965a.96.96,0,0,1,.9951,1.0849v.1377H99.7963v.168c0,.4317.1914,1.2539,1.0127,1.2539a1.8825,1.8825,0,0,0,.5645-.0781Zm-.4024-2.0215a.5315.5315,0,0,0-.5459-.539.6042.6042,0,0,0-.6.539Z"/><path d="M103.102,58.53c.3.1563.665.3242.665.8155,0,.57-.3955.8642-1.0615.8642a2.6314,2.6314,0,0,1-.7793-.12v-.3721a2.4165,2.4165,0,0,0,.7373.15c.3965,0,.6963-.1328.6963-.4619,0-.2939-.3477-.42-.5156-.5156l-.2579-.1387c-.2646-.1494-.6484-.3057-.6484-.7734,0-.4619.3428-.7549.9775-.7549a2.7221,2.7221,0,0,1,.6719.0957v.3779a2.04,2.04,0,0,0-.665-.1318c-.3487,0-.5762.167-.5762.3711,0,.2344.2881.33.5156.45Z"/><path d="M104.2358,59.5441h.6v.6h-.6Z"/></svg>