<?xml version="1.0" encoding="UTF-8" standalone="no"?>
<!-- Generator: Adobe Illustrator 19.1.0, SVG Export Plug-In . SVG Version: 6.00 Build 0)  -->

<svg
   version="1.1"
   id="DESIGNS"
   x="0px"
   y="0px"
   width="30"
   height="24"
   viewBox="0 0 30 24"
   xml:space="preserve"
   xmlns="http://www.w3.org/2000/svg"
   xmlns:svg="http://www.w3.org/2000/svg"
   xmlns:rdf="http://www.w3.org/1999/02/22-rdf-syntax-ns#"><defs
   id="defs838" />
<title
   property="dc:title"
   id="title827">to trend</title><desc
   property="dc:description"
   id="desc829">An icon for &quot;trend&quot; from the Blueprint series on to [icon]. Downloaded from http://www.toicon.com/icons/blueprint_trend by 127.0.0.1 on 2017-07-10. Licensed CC-BY, see http://toicon.com/license/ for details.</desc>
<path
   class="blueprint_een"
   d="M 29,0 H 1 C 0.448,0 0,0.448 0,1 v 22 c 0,0.552 0.448,1 1,1 h 28 c 0.552,0 1,-0.448 1,-1 V 1 C 30,0.448 29.552,0 29,0 Z M 28,22 H 2 V 2 H 28 Z M 7,18 H 3 v 3 H 7 Z M 6,20 H 4 v -1 h 2 z m 2,1 h 4 V 16 H 8 Z m 1,-4 h 2 v 3 H 9 Z m 4,4 h 4 v -7 h -4 z m 1,-6 h 2 v 5 h -2 z m 4,6 h 4 v -9 h -4 z m 1,-8 h 2 v 7 h -2 z m 4,8 h 4 V 10 h -4 z m 1,-10 h 2 v 9 H 24 Z M 25.356,7.082 3,16.049 V 14.962 L 24.999,6.148 24.106,5.701 24.553,4.806 27,6.031 25.776,8.478 24.881,8.031 Z"
   style="fill:#111918"
   id="path831" />
<metadata
   id="metadata833"><work
     rdf:about=""><format>image/svg+xml</format><type
       rdf:resource="http://purl.org/dc/dcmitype/StillImage" /><license
       rdf:resource="http://creativecommons.org/licenses/by/4.0/" /><attributionname>Shannon E Thomas</attributionname><attributionurl>http://www.toicon.com/icons/blueprint_trend</attributionurl></work></metadata></svg>
