<?xml version="1.0" encoding="UTF-8"?>
<!-- Generator: Adobe Illustrator 19.1.0, SVG Export Plug-In . SVG Version: 6.00 Build 0)  -->
<svg xmlns="http://www.w3.org/2000/svg" xmlns:xlink="http://www.w3.org/1999/xlink" xmlns:dc="http://purl.org/dc/elements/1.1/" xmlns:cc="http://creativecommons.org/ns#" xmlns:rdf="http://www.w3.org/1999/02/22-rdf-syntax-ns#" version="1.1" id="DESIGNS" x="0px" y="0px" width="32px" height="32px" viewBox="0 0 32 32" style="enable-background:new 0 0 32 32;" xml:space="preserve">
<title property="dc:title">to trend</title><desc property="dc:description">An icon for "trend" from the Blueprint series on to [icon]. Downloaded from http://www.toicon.com/icons/blueprint_trend by 127.0.0.1 on 2017-07-10. Licensed CC-BY, see http://toicon.com/license/ for details.</desc>
<path class="blueprint_een" d="M30,5H2C1.448,5,1,5.448,1,6v22c0,0.552,0.448,1,1,1h28c0.552,0,1-0.448,1-1V6  C31,5.448,30.552,5,30,5z M29,27H3V7h26V27z M8,23H4v3h4V23z M7,25H5v-1h2V25z M9,26h4v-5H9V26z M10,22h2v3h-2V22z M14,26h4v-7h-4  V26z M15,20h2v5h-2V20z M19,26h4v-9h-4V26z M20,18h2v7h-2V18z M24,26h4V15h-4V26z M25,16h2v9h-2V16z M26.356,12.082L4,21.049v-1.087  l21.999-8.814l-0.893-0.447l0.447-0.895L28,11.031l-1.224,2.447l-0.895-0.447L26.356,12.082z" style="fill: #111918;"/>
<metadata><work rdf:about=""><format>image/svg+xml</format><type rdf:resource="http://purl.org/dc/dcmitype/StillImage"/><license rdf:resource="http://creativecommons.org/licenses/by/4.0/"/><attributionname>Shannon E Thomas</attributionname><attributionurl>http://www.toicon.com/icons/blueprint_trend</attributionurl></work></metadata></svg>
