<?xml version="1.0" encoding="UTF-8" standalone="no"?>
<svg
   width="18"
   height="18"
   viewBox="0 0 18 18"
   fill="none"
   version="1.1"
   id="svg4"
   xmlns="http://www.w3.org/2000/svg"
   xmlns:svg="http://www.w3.org/2000/svg">
  <defs
     id="defs8" />
  <path
     d="M 0,0.75 C 0,0.33579 0.33579,0 0.75,0 1.16421,0 1.5,0.33579 1.5,0.75 V 16.5 H 17.25 C 17.6642,16.5 18,16.8358 18,17.25 18,17.6642 17.6642,18 17.25,18 H 0.75 C 0.33579,18 0,17.6642 0,17.25 Z M 11,4 c 0,-1.65685 1.3431,-3 3,-3 1.6569,0 3,1.34315 3,3 0,1.65685 -1.3431,3 -3,3 C 12.3431,7 11,5.65685 11,4 Z M 6,3 C 4.34315,3 3,4.34315 3,6 3,7.6569 4.34315,9 6,9 7.6569,9 9,7.6569 9,6 9,4.34315 7.6569,3 6,3 Z m 6,6 c -1.6569,0 -3,1.3431 -3,3 0,1.6569 1.3431,3 3,3 1.6569,0 3,-1.3431 3,-3 0,-1.6569 -1.3431,-3 -3,-3 z"
     fill="#212121"
     id="path2" />
</svg>
